<?xml version="1.0" encoding="UTF-8" standalone="no"?><svg viewBox="0 0 97.896 82.284" version="1.1" id="svg9136" xmlns:xlink="http://www.w3.org/1999/xlink" xmlns="http://www.w3.org/2000/svg" xmlns:svg="http://www.w3.org/2000/svg"><defs id="defs9130"><linearGradient id="linearGradient5373"><stop id="stop5363" offset="0" style="stop-color:#8f9299;stop-opacity:1"/><stop style="stop-color:#9f9fa1;stop-opacity:1" offset=".059" id="stop5365"/><stop id="stop5367" offset=".497" style="stop-color:#84878e;stop-opacity:1"/><stop style="stop-color:#5e6166;stop-opacity:1" offset=".883" id="stop5369"/><stop id="stop5371" offset="1" style="stop-color:#575a5f;stop-opacity:1"/></linearGradient><linearGradient xlink:href="#linearGradient5016" id="linearGradient7955" gradientUnits="userSpaceOnUse" gradientTransform="matrix(0.18590851,0,0,0.18590851,261.24805,300.99001)" x1="-1207.749" y1="-202.216" x2="-978.27" y2="106.67"/><linearGradient id="linearGradient5016"><stop style="stop-color:#8f9299;stop-opacity:1" offset="0" id="stop5012"/><stop id="stop5351" offset=".012" style="stop-color:#9f9fa1;stop-opacity:1"/><stop style="stop-color:#84878e;stop-opacity:1" offset=".497" id="stop5359"/><stop id="stop5065" offset=".883" style="stop-color:#5e6166;stop-opacity:1"/><stop style="stop-color:#575a5f;stop-opacity:1" offset="1" id="stop5014"/></linearGradient><linearGradient xlink:href="#linearGradient5373" id="linearGradient5361-1" gradientUnits="userSpaceOnUse" gradientTransform="matrix(0.70264634,0,0,0.70264634,908.58602,140.77009)" x1="-1236.502" y1="-233.665" x2="-978.27" y2="106.67"/></defs><g id="layer1" transform="translate(9.2011719,-238.94944)"><g transform="matrix(0.06841316,0,0,0.06841316,-16.789277,271.61148)" id="g5316" style="fill:#ffffff;fill-opacity:1;stroke:#ffffff;stroke-width:7.73487;stroke-miterlimit:4;stroke-dasharray:none"/><g id="g5776" transform="matrix(1.0767869,0,0,1.0767869,2.9218857,-41.124831)"><path id="path7905" d="m -4.6386719,263.82031 c -2.5214825,0 -4.5605469,2.03905 -4.5605469,4.56055 v 5.74023 1.67188 52.05078 c 0,2.19516 1.7755492,3.97266 3.9707032,3.97266 H 73.84375 c 2.195174,0 3.972656,-1.7775 3.972656,-3.97266 v -53.72266 c 0,-2.19516 -1.777481,-3.97265 -3.972656,-3.97265 H 24.816406 23.755859 c -1.181533,0 -3.070121,-0.80679 -3.759765,-3.13282 -0.390656,-1.31764 -1.347453,-2.12387 -2.265625,-2.58789 -0.918173,-0.46402 -1.773508,-0.60546 -2.166016,-0.60546 -5.456165,3.2e-4 -15.3944381,-0.002 -19.9101561,-0.002 z m 0,0.58789 c 4.41490851,0 14.6664669,0.002 20.2031249,0.002 0.221904,0 1.077879,0.12534 1.900391,0.54101 0.822511,0.41568 1.633532,1.10177 1.96875,2.23242 0.762148,2.57056 2.874327,3.55274 4.322265,3.55274 h 1.060547 49.027344 c 1.879849,0 3.384766,1.50493 3.384766,3.38476 v 53.72266 c 0,1.87984 -1.504916,3.38477 -3.384766,3.38477 H -5.2285156 c -1.8798266,0 -3.3847656,-1.50493 -3.3847656,-3.38477 v -52.05078 -1.67188 -5.74023 c 0,-2.20618 1.7684479,-3.97266 3.9746093,-3.97266 z" style="color:#000000;font-style:normal;font-variant:normal;font-weight:normal;font-stretch:normal;font-size:medium;line-height:normal;font-family:sans-serif;text-indent:0;text-align:start;text-decoration:none;text-decoration-line:none;text-decoration-style:solid;text-decoration-color:#000000;letter-spacing:normal;word-spacing:normal;text-transform:none;writing-mode:lr-tb;direction:ltr;baseline-shift:baseline;text-anchor:start;white-space:normal;clip-rule:nonzero;display:inline;overflow:visible;visibility:visible;opacity:1;isolation:auto;mix-blend-mode:normal;color-interpolation:sRGB;color-interpolation-filters:linearRGB;solid-color:#000000;solid-opacity:1;fill:#ffffff;fill-opacity:1;fill-rule:nonzero;stroke:none;stroke-width:0.58752;stroke-linecap:butt;stroke-linejoin:miter;stroke-miterlimit:4;stroke-dasharray:none;stroke-dashoffset:0;stroke-opacity:1;color-rendering:auto;image-rendering:auto;shape-rendering:auto;text-rendering:auto;enable-background:accumulate"/><path id="path7907" d="m -4.4707031,274.22266 c -2.6150163,0 -4.7304688,2.11544 -4.7304688,4.73046 v 7.34571 31.83789 4.97851 h 0.5878907 v -4.97851 -31.83789 -7.34571 c 0,-2.29969 1.8428966,-4.14257 4.1425781,-4.14257 H 73.085938 c 2.299703,0 4.142578,1.84288 4.142578,4.14257 v 7.34571 31.83789 4.97851 h 0.58789 v -4.97851 -31.83789 -7.34571 c 0,-2.61502 -2.115432,-4.73046 -4.730468,-4.73046 z" style="color:#000000;font-style:normal;font-variant:normal;font-weight:normal;font-stretch:normal;font-size:medium;line-height:normal;font-family:sans-serif;text-indent:0;text-align:start;text-decoration:none;text-decoration-line:none;text-decoration-style:solid;text-decoration-color:#000000;letter-spacing:normal;word-spacing:normal;text-transform:none;writing-mode:lr-tb;direction:ltr;baseline-shift:baseline;text-anchor:start;white-space:normal;clip-rule:nonzero;display:inline;overflow:visible;visibility:visible;opacity:1;isolation:auto;mix-blend-mode:normal;color-interpolation:sRGB;color-interpolation-filters:linearRGB;solid-color:#000000;solid-opacity:1;fill:#ffffff;fill-opacity:1;fill-rule:nonzero;stroke:none;stroke-width:0.58752;stroke-linecap:butt;stroke-linejoin:miter;stroke-miterlimit:4;stroke-dasharray:none;stroke-dashoffset:0;stroke-opacity:1;color-rendering:auto;image-rendering:auto;shape-rendering:auto;text-rendering:auto;enable-background:accumulate"/><path id="rect7909" d="m -9.0214844,324.76172 v 0.11523 2.19727 H 77.636719 v -2.3125 z m 0.2285156,0.22851 H 77.408203 v 1.85547 H -8.7929688 Z" style="color:#000000;font-style:normal;font-variant:normal;font-weight:normal;font-stretch:normal;font-size:medium;line-height:normal;font-family:sans-serif;text-indent:0;text-align:start;text-decoration:none;text-decoration-line:none;text-decoration-style:solid;text-decoration-color:#000000;letter-spacing:normal;word-spacing:normal;text-transform:none;writing-mode:lr-tb;direction:ltr;baseline-shift:baseline;text-anchor:start;white-space:normal;clip-rule:nonzero;display:inline;overflow:visible;visibility:visible;opacity:1;isolation:auto;mix-blend-mode:normal;color-interpolation:sRGB;color-interpolation-filters:linearRGB;solid-color:#000000;solid-opacity:1;fill:#ffffff;fill-opacity:1;fill-rule:nonzero;stroke:none;stroke-width:0.22848;stroke-linecap:butt;stroke-linejoin:miter;stroke-miterlimit:4;stroke-dasharray:none;stroke-dashoffset:0;stroke-opacity:1;color-rendering:auto;image-rendering:auto;shape-rendering:auto;text-rendering:auto;enable-background:accumulate"/><path id="rect5420" d="m -9.0214844,326.8457 v 0.11524 1.92187 H 77.636719 v -2.03711 z m 0.2285156,0.22852 H 77.408203 v 1.58008 H -8.7929688 Z" style="color:#000000;font-style:normal;font-variant:normal;font-weight:normal;font-stretch:normal;font-size:medium;line-height:normal;font-family:sans-serif;text-indent:0;text-align:start;text-decoration:none;text-decoration-line:none;text-decoration-style:solid;text-decoration-color:#000000;letter-spacing:normal;word-spacing:normal;text-transform:none;writing-mode:lr-tb;direction:ltr;baseline-shift:baseline;text-anchor:start;white-space:normal;clip-rule:nonzero;display:inline;overflow:visible;visibility:visible;opacity:1;isolation:auto;mix-blend-mode:normal;color-interpolation:sRGB;color-interpolation-filters:linearRGB;solid-color:#000000;solid-opacity:1;fill:#ffffff;fill-opacity:1;fill-rule:nonzero;stroke:none;stroke-width:0.22848;stroke-linecap:butt;stroke-linejoin:miter;stroke-miterlimit:4;stroke-dasharray:none;stroke-dashoffset:0;stroke-opacity:1;color-rendering:auto;image-rendering:auto;shape-rendering:auto;text-rendering:auto;enable-background:accumulate"/><path id="path5179" d="m 34.428948,278.7628 a 1.2787873,1.2787873 0 0 0 -1.165821,0.70538 l -6.156213,12.27006 -13.596068,1.88463 a 1.2787873,1.2787873 0 0 0 -0.72347,2.17765 l 9.767362,9.64644 -2.408121,13.51338 a 1.2787873,1.2787873 0 0 0 1.845881,1.36013 l 12.190987,-6.30918 12.109856,6.46731 a 1.2787873,1.2787873 0 0 0 1.865,-1.33635 l -2.233454,-13.54388 9.891903,-9.51673 a 1.2787873,1.2787873 0 0 0 -0.69505,-2.18592 l -13.570746,-2.06344 -5.994466,-12.34911 a 1.2787873,1.2787873 0 0 0 -1.12758,-0.72037 z m -0.02325,1.27951 6.288505,12.95321 14.23634,2.16318 -10.376627,9.98388 2.341975,14.20792 -12.70155,-6.78356 -12.788883,6.61768 2.526461,-14.17588 -10.245886,-10.11773 14.263211,-1.97817 z" style="color:#000000;clip-rule:nonzero;display:inline;overflow:visible;visibility:visible;opacity:1;isolation:auto;mix-blend-mode:normal;color-interpolation:sRGB;color-interpolation-filters:linearRGB;solid-color:#000000;solid-opacity:1;fill:#ffffff;fill-opacity:1;fill-rule:nonzero;stroke:none;stroke-width:0.387729;stroke-linecap:butt;stroke-linejoin:miter;stroke-miterlimit:4;stroke-dasharray:none;stroke-dashoffset:0;stroke-opacity:1;color-rendering:auto;image-rendering:auto;shape-rendering:auto;text-rendering:auto;enable-background:accumulate"/></g></g></svg>