<?xml version="1.0" encoding="UTF-8" standalone="no"?>
<!-- Generator: Adobe Illustrator 18.0.0, SVG Export Plug-In . SVG Version: 6.00 Build 0)  -->

<svg
   version="1.1"
   id="Слой_1"
   x="0px"
   y="0px"
   viewBox="35 0 271.30417 397.80728"
   enable-background="new 35 0 710 1024"
   xml:space="preserve"
   sodipodi:docname="auto-retroachievements.svg"
   inkscape:version="1.2.1 (9c6d41e410, 2022-07-14, custom)"
   width="271.30417"
   height="397.80728"
   xmlns:inkscape="http://www.inkscape.org/namespaces/inkscape"
   xmlns:sodipodi="http://sodipodi.sourceforge.net/DTD/sodipodi-0.dtd"
   xmlns="http://www.w3.org/2000/svg"
   xmlns:svg="http://www.w3.org/2000/svg"><defs
   id="defs7" /><sodipodi:namedview
   id="namedview5"
   pagecolor="#ffffff"
   bordercolor="#000000"
   borderopacity="0.25"
   inkscape:showpageshadow="2"
   inkscape:pageopacity="0.0"
   inkscape:pagecheckerboard="0"
   inkscape:deskcolor="#d1d1d1"
   showgrid="false"
   inkscape:zoom="1.1739077"
   inkscape:cx="177.18599"
   inkscape:cy="134.16727"
   inkscape:window-width="1920"
   inkscape:window-height="1016"
   inkscape:window-x="0"
   inkscape:window-y="27"
   inkscape:window-maximized="1"
   inkscape:current-layer="Слой_1" />
<path
   fill="none"
   stroke="#000000"
   stroke-width="2"
   stroke-linecap="round"
   stroke-linejoin="round"
   stroke-miterlimit="10"
   d="m 90.234839,368.9675 h -3.733806 l -6.573059,13.2628 v 14.81855 h 82.804986 15.90758 81.40481 V 382.2303 l -5.13399,-13.2628 h -5.60071 v -73.00374 h -29.32596 l -26.05887,-17.0744 c -3.11151,-3.65602 -10.42355,-4.395 -10.42355,-4.395 -8.8678,-11.9793 -4.70616,-44.92239 -4.70616,-44.92239 11.9793,-7.81766 0,-14.11846 0,-14.11846 -2.60589,-5.7174 4.16165,-35.97681 4.16165,-35.97681 17.19107,0 32.8264,-19.83586 32.8264,-19.83586 103.30204,-58.37965 89.10578,-146.940927 89.10578,-146.940927 -2.5281,-19.2913457 -40.56627,-9.4123101 -40.56627,-9.4123101 -17.19108,2.9948257 -10.7736,25.7088291 -10.7736,25.7088291 -2.60588,9.567885 -12.17377,5.87297 -12.17377,5.87297 v -4.044959 c -33.68206,-7.584299 -58.45744,-8.089919 -71.3702,-7.545405 -12.91275,-0.544514 -37.18251,-0.03889 -71.370185,7.545405 v 4.044959 c 0,0 -8.867796,3.694915 -11.473688,-5.87297 0,0 6.961998,-22.6751094 -10.267972,-25.7088291 0,0 -37.960389,-9.8790356 -40.488489,9.4123101 0,0 -14.118464,88.600167 89.105784,146.979827 0,0 15.67422,19.79696 32.8653,19.79696 0,0 6.80642,30.22052 4.20053,35.97681 0,0 -11.9793,6.26191 0,14.07957 0,0 4.16164,32.8264 -4.70615,44.8446 0,0 -7.31204,0.93345 -10.42356,4.55058 L 121.3888,296.00265 H 90.195947 l 0.0389,72.96485 z M 242.27086,42.181445 l 3.88939,0.350044 c 18.59125,0.427832 15.1297,-13.76842 15.1297,-13.76842 -2.64478,-9.956823 -0.46672,-12.951649 -0.46672,-12.951649 1.67243,-11.2403202 26.40891,-9.0622654 26.40891,-9.0622654 26.37003,-3.0337196 4.08385,62.6968714 4.08385,62.6968714 -22.20838,54.023544 -69.77554,79.965734 -69.77554,79.965734 24.19196,-38.466 20.73041,-107.230315 20.73041,-107.230315 z M 50.096398,69.446026 c 0,0 -22.286171,-65.6916968 4.083853,-62.6968714 0,0 24.736486,-2.1780548 26.408918,9.0622654 0,0 2.178057,3.03372 -0.466727,12.951649 0,0 -3.461548,14.196252 15.129703,13.76842 l 3.88939,-0.350044 c 0,0 -3.46155,68.725415 20.730405,107.191425 0,0.0389 -47.528262,-25.9033 -69.775542,-79.926844 z"
   id="path2"
   style="stroke:#cacaca;stroke-width:1.51686;stroke-dasharray:none;stroke-opacity:1" />
</svg>
