<?xml version="1.0" encoding="UTF-8" standalone="no"?><svg version="1.1" id="svg2" viewBox="0 0 1066.667 618.667" xmlns="http://www.w3.org/2000/svg" xmlns:svg="http://www.w3.org/2000/svg"><g id="g8"><path id="rect2022-5-1" style="fill:none;stroke:#ffffff;stroke-width:5.005;stroke-linecap:round;stroke-linejoin:round;paint-order:fill markers stroke;stroke-opacity:1" d="m 817.38547,378.07678 c 0,0 67.19383,-14.61628 101.25745,-18.95425 38.05715,-4.84654 114.82528,-7.85331 114.82528,-7.85331 0,0 11.3699,0.0894 12.0993,15.89257 0.561,12.15402 -12.2853,14.12099 -12.2853,14.12099 0,0 -85.06493,6.87551 -107.98843,8.90614 -34.81433,3.08395 -103.6714,15.69003 -103.6714,15.69003 0,0 -10.99118,1.3008 -13.94944,-12.26708 -2.70206,-12.39285 9.71254,-15.53509 9.71254,-15.53509 z"/><path id="rect2022-5-8" style="fill:none;stroke:#ffffff;stroke-width:5.005;stroke-linecap:round;stroke-linejoin:round;paint-order:fill markers stroke;stroke-opacity:1" d="m 968.44807,362.7335 49.07793,-2.69375 c 0,0 7.8084,0.15607 7.9392,8.95939 0.094,6.29956 -8.8771,6.56829 -8.8771,6.56829 l -47.54644,1.28264 c 0,0 -11.64675,3.17103 -11.38092,-6.36785 0.26657,-9.56494 10.78733,-7.74872 10.78733,-7.74872 z"/><path id="rect2022-5-6" style="fill:none;stroke:#ffffff;stroke-width:5.005;stroke-linecap:round;stroke-linejoin:round;paint-order:fill markers stroke;stroke-opacity:1" d="m 897.72011,371.46015 48.68697,-6.74397 c 0,0 7.7945,-0.49035 8.65312,8.27199 0.61442,6.27022 -8.30341,7.28005 -8.30341,7.28005 l -47.27747,5.21102 c 0,0 -11.34455,4.12351 -11.86864,-5.40468 -0.5255,-9.5542 10.10943,-8.61441 10.10943,-8.61441 z"/><path id="rect2022-5" style="fill:none;stroke:#ffffff;stroke-width:5.005;stroke-linecap:round;stroke-linejoin:round;paint-order:fill markers stroke;stroke-opacity:1" d="m 827.03812,383.76947 48.33515,-8.92271 c 0,0 7.76464,-0.83974 9.01573,7.87522 0.89527,6.23632 -7.96824,7.64545 -7.96824,7.64545 l -46.9959,7.32803 c 0,0 -11.14801,4.62861 -12.09928,-4.86645 -0.95386,-9.52098 9.71254,-9.05954 9.71254,-9.05954 z"/><ellipse style="fill:#ff15ff;fill-opacity:1;stroke:#ffffff;stroke-width:2.71434;stroke-linecap:round;stroke-linejoin:round;stroke-dasharray:none;stroke-opacity:1;paint-order:fill markers stroke" id="path2051-30" cx="141.229" cy="133.828" rx="3.084" ry="2.775"/><ellipse style="fill:#ff15ff;fill-opacity:1;stroke:#ffffff;stroke-width:2.71434;stroke-linecap:round;stroke-linejoin:round;stroke-dasharray:none;stroke-opacity:1;paint-order:fill markers stroke" id="path2051-30-7" cx="157.88" cy="137.528" rx="3.084" ry="2.775"/><ellipse style="fill:#ff15ff;fill-opacity:1;stroke:#ffffff;stroke-width:2.71434;stroke-linecap:round;stroke-linejoin:round;stroke-dasharray:none;stroke-opacity:1;paint-order:fill markers stroke" id="path2051-30-1" cx="173.298" cy="142.462" rx="3.084" ry="2.775"/><ellipse style="fill:#ff15ff;fill-opacity:1;stroke:#ffffff;stroke-width:2.71434;stroke-linecap:round;stroke-linejoin:round;stroke-dasharray:none;stroke-opacity:1;paint-order:fill markers stroke" id="path2051-30-0" cx="187.483" cy="146.162" rx="3.084" ry="2.775"/><ellipse style="fill:#ff15ff;fill-opacity:1;stroke:#ffffff;stroke-width:2.71434;stroke-linecap:round;stroke-linejoin:round;stroke-dasharray:none;stroke-opacity:1;paint-order:fill markers stroke" id="path2051-30-3" cx="203.517" cy="150.479" rx="3.084" ry="2.775"/><ellipse style="fill:#ff15ff;fill-opacity:1;stroke:#ffffff;stroke-width:2.71434;stroke-linecap:round;stroke-linejoin:round;stroke-dasharray:none;stroke-opacity:1;paint-order:fill markers stroke" id="path2051-30-07" cx="207.834" cy="133.211" rx="3.084" ry="2.775"/><ellipse style="fill:#ff15ff;fill-opacity:1;stroke:#ffffff;stroke-width:2.71434;stroke-linecap:round;stroke-linejoin:round;stroke-dasharray:none;stroke-opacity:1;paint-order:fill markers stroke" id="path2051-30-5" cx="210.918" cy="115.943" rx="3.084" ry="2.775"/><ellipse style="fill:#ff15ff;fill-opacity:1;stroke:#ffffff;stroke-width:2.71434;stroke-linecap:round;stroke-linejoin:round;stroke-dasharray:none;stroke-opacity:1;paint-order:fill markers stroke" id="path2051-30-77" cx="215.235" cy="98.675" rx="3.084" ry="2.775"/><ellipse style="fill:#ff15ff;fill-opacity:1;stroke:#ffffff;stroke-width:2.71434;stroke-linecap:round;stroke-linejoin:round;stroke-dasharray:none;stroke-opacity:1;paint-order:fill markers stroke" id="path2051-30-6" cx="218.319" cy="78.94" rx="3.084" ry="2.775"/><ellipse style="fill:#ff15ff;fill-opacity:1;stroke:#ffffff;stroke-width:2.71434;stroke-linecap:round;stroke-linejoin:round;stroke-dasharray:none;stroke-opacity:1;paint-order:fill markers stroke" id="path2051-30-13" cx="202.901" cy="79.557" rx="3.084" ry="2.775"/><ellipse style="fill:#ff15ff;fill-opacity:1;stroke:#ffffff;stroke-width:2.71434;stroke-linecap:round;stroke-linejoin:round;stroke-dasharray:none;stroke-opacity:1;paint-order:fill markers stroke" id="path2051-30-79" cx="185.632" cy="79.557" rx="3.084" ry="2.775"/><ellipse style="fill:#ff15ff;fill-opacity:1;stroke:#ffffff;stroke-width:2.71434;stroke-linecap:round;stroke-linejoin:round;stroke-dasharray:none;stroke-opacity:1;paint-order:fill markers stroke" id="path2051-30-00" cx="169.598" cy="78.94" rx="3.084" ry="2.775"/><ellipse style="fill:#ff15ff;fill-opacity:1;stroke:#ffffff;stroke-width:2.71434;stroke-linecap:round;stroke-linejoin:round;stroke-dasharray:none;stroke-opacity:1;paint-order:fill markers stroke" id="path2051-30-05" cx="155.413" cy="76.473" rx="3.084" ry="2.775"/><ellipse style="fill:#ff15ff;fill-opacity:1;stroke:#ffffff;stroke-width:2.71434;stroke-linecap:round;stroke-linejoin:round;stroke-dasharray:none;stroke-opacity:1;paint-order:fill markers stroke" id="path2051-30-2" cx="141.229" cy="75.24" rx="3.084" ry="2.775"/><ellipse style="fill:#ff15ff;fill-opacity:1;stroke:#ffffff;stroke-width:2.71434;stroke-linecap:round;stroke-linejoin:round;stroke-dasharray:none;stroke-opacity:1;paint-order:fill markers stroke" id="path2051-30-8" cx="124.577" cy="75.856" rx="3.084" ry="2.775"/><ellipse style="fill:#ff15ff;fill-opacity:1;stroke:#ffffff;stroke-width:2.71434;stroke-linecap:round;stroke-linejoin:round;stroke-dasharray:none;stroke-opacity:1;paint-order:fill markers stroke" id="path2051-30-01" cx="120.26" cy="87.574" rx="3.084" ry="2.775"/><ellipse style="fill:#ff15ff;fill-opacity:1;stroke:#ffffff;stroke-width:2.71434;stroke-linecap:round;stroke-linejoin:round;stroke-dasharray:none;stroke-opacity:1;paint-order:fill markers stroke" id="path2051-30-16" cx="117.793" cy="101.142" rx="3.084" ry="2.775"/><ellipse style="fill:#ff15ff;fill-opacity:1;stroke:#ffffff;stroke-width:2.71434;stroke-linecap:round;stroke-linejoin:round;stroke-dasharray:none;stroke-opacity:1;paint-order:fill markers stroke" id="path2051-30-39" cx="115.326" cy="111.626" rx="3.084" ry="2.775"/><ellipse style="fill:#ff15ff;fill-opacity:1;stroke:#ffffff;stroke-width:2.71434;stroke-linecap:round;stroke-linejoin:round;stroke-dasharray:none;stroke-opacity:1;paint-order:fill markers stroke" id="path2051-30-08" cx="112.86" cy="127.661" rx="3.084" ry="2.775"/><ellipse style="fill:#ff15ff;fill-opacity:1;stroke:#ffffff;stroke-width:2.71434;stroke-linecap:round;stroke-linejoin:round;stroke-dasharray:none;stroke-opacity:1;paint-order:fill markers stroke" id="path2051-30-20" cx="128.894" cy="131.361" rx="3.084" ry="2.775"/><ellipse style="fill:#ff15ff;fill-opacity:1;stroke:#ffffff;stroke-width:2.71434;stroke-linecap:round;stroke-linejoin:round;stroke-dasharray:none;stroke-opacity:1;paint-order:fill markers stroke" id="path2051-30-69" cx="233.736" cy="80.173" rx="3.084" ry="2.775"/><ellipse style="fill:#ff15ff;fill-opacity:1;stroke:#ffffff;stroke-width:2.71434;stroke-linecap:round;stroke-linejoin:round;stroke-dasharray:none;stroke-opacity:1;paint-order:fill markers stroke" id="path2051-30-4" cx="231.886" cy="99.292" rx="3.084" ry="2.775"/><ellipse style="fill:#ff15ff;fill-opacity:1;stroke:#ffffff;stroke-width:2.71434;stroke-linecap:round;stroke-linejoin:round;stroke-dasharray:none;stroke-opacity:1;paint-order:fill markers stroke" id="path2051-30-02" cx="226.953" cy="120.26" rx="3.084" ry="2.775"/><ellipse style="fill:#ff15ff;fill-opacity:1;stroke:#ffffff;stroke-width:2.71434;stroke-linecap:round;stroke-linejoin:round;stroke-dasharray:none;stroke-opacity:1;paint-order:fill markers stroke" id="path2051-30-22" cx="223.252" cy="135.678" rx="3.084" ry="2.775"/><ellipse style="fill:#ff15ff;fill-opacity:1;stroke:#ffffff;stroke-width:2.71434;stroke-linecap:round;stroke-linejoin:round;stroke-dasharray:none;stroke-opacity:1;paint-order:fill markers stroke" id="path2051-30-023" cx="219.552" cy="152.33" rx="3.084" ry="2.775"/><ellipse style="fill:#ff15ff;fill-opacity:1;stroke:#ffffff;stroke-width:2.71434;stroke-linecap:round;stroke-linejoin:round;stroke-dasharray:none;stroke-opacity:1;paint-order:fill markers stroke" id="path2051-30-48" cx="109.159" cy="74.623" rx="3.084" ry="2.775"/><ellipse style="fill:#ff15ff;fill-opacity:1;stroke:#ffffff;stroke-width:2.71434;stroke-linecap:round;stroke-linejoin:round;stroke-dasharray:none;stroke-opacity:1;paint-order:fill markers stroke" id="path2051-30-50" cx="106.076" cy="86.341" rx="3.084" ry="2.775"/><ellipse style="fill:#ff15ff;fill-opacity:1;stroke:#ffffff;stroke-width:2.71434;stroke-linecap:round;stroke-linejoin:round;stroke-dasharray:none;stroke-opacity:1;paint-order:fill markers stroke" id="path2051-30-32" cx="102.992" cy="99.292" rx="3.084" ry="2.775"/><ellipse style="fill:#ff15ff;fill-opacity:1;stroke:#ffffff;stroke-width:2.71434;stroke-linecap:round;stroke-linejoin:round;stroke-dasharray:none;stroke-opacity:1;paint-order:fill markers stroke" id="path2051-30-52" cx="101.142" cy="111.626" rx="3.084" ry="2.775"/><ellipse style="fill:#ff15ff;fill-opacity:1;stroke:#ffffff;stroke-width:2.71434;stroke-linecap:round;stroke-linejoin:round;stroke-dasharray:none;stroke-opacity:1;paint-order:fill markers stroke" id="path2051-30-71" cx="97.442" cy="121.494" rx="3.084" ry="2.775"/><ellipse style="fill:#ff15ff;fill-opacity:1;stroke:#ffffff;stroke-width:2.71434;stroke-linecap:round;stroke-linejoin:round;stroke-dasharray:none;stroke-opacity:1;paint-order:fill markers stroke" id="path2051-30-21" cx="86.957" cy="96.208" rx="3.084" ry="2.775"/><ellipse style="fill:#ff15ff;fill-opacity:1;stroke:#ffffff;stroke-width:2.71434;stroke-linecap:round;stroke-linejoin:round;stroke-dasharray:none;stroke-opacity:1;paint-order:fill markers stroke" id="path2051-30-33" cx="91.891" cy="83.874" rx="3.084" ry="2.775"/><ellipse style="fill:#ff15ff;fill-opacity:1;stroke:#ffffff;stroke-width:2.71434;stroke-linecap:round;stroke-linejoin:round;stroke-dasharray:none;stroke-opacity:1;paint-order:fill markers stroke" id="path2051-30-75" cx="86.957" cy="107.926" rx="3.084" ry="2.775"/><ellipse style="fill:#ff15ff;fill-opacity:1;stroke:#ffffff;stroke-width:5.005;stroke-linecap:round;stroke-linejoin:round;stroke-dasharray:none;stroke-opacity:1;paint-order:fill markers stroke" id="path2051-4" cx="191.8" cy="129.511" rx="5.55" ry="5.242"/><ellipse style="fill:#ff15ff;fill-opacity:1;stroke:#ffffff;stroke-width:5.005;stroke-linecap:round;stroke-linejoin:round;stroke-dasharray:none;stroke-opacity:1;paint-order:fill markers stroke" id="path2051-74" cx="176.382" cy="126.427" rx="5.55" ry="5.242"/><ellipse style="fill:#ff15ff;fill-opacity:1;stroke:#ffffff;stroke-width:5.005;stroke-linecap:round;stroke-linejoin:round;stroke-dasharray:none;stroke-opacity:1;paint-order:fill markers stroke" id="path2051-8" cx="160.347" cy="123.961" rx="5.55" ry="5.242"/><ellipse style="fill:#ff15ff;fill-opacity:1;stroke:#ffffff;stroke-width:5.005;stroke-linecap:round;stroke-linejoin:round;stroke-dasharray:none;stroke-opacity:1;paint-order:fill markers stroke" id="path2051-19" cx="147.396" cy="121.494" rx="5.55" ry="5.242"/><ellipse style="fill:#ff15ff;fill-opacity:1;stroke:#ffffff;stroke-width:5.005;stroke-linecap:round;stroke-linejoin:round;stroke-dasharray:none;stroke-opacity:1;paint-order:fill markers stroke" id="path2051-0" cx="129.511" cy="116.56" rx="5.55" ry="5.242"/><ellipse style="fill:#ff15ff;fill-opacity:1;stroke:#ffffff;stroke-width:5.005;stroke-linecap:round;stroke-linejoin:round;stroke-dasharray:none;stroke-opacity:1;paint-order:fill markers stroke" id="path2051-61" cx="194.883" cy="112.86" rx="5.55" ry="5.242"/><ellipse style="fill:#ff15ff;fill-opacity:1;stroke:#ffffff;stroke-width:5.005;stroke-linecap:round;stroke-linejoin:round;stroke-dasharray:none;stroke-opacity:1;paint-order:fill markers stroke" id="path2051-51" cx="180.082" cy="110.393" rx="5.55" ry="5.242"/><ellipse style="fill:#ff15ff;fill-opacity:1;stroke:#ffffff;stroke-width:5.005;stroke-linecap:round;stroke-linejoin:round;stroke-dasharray:none;stroke-opacity:1;paint-order:fill markers stroke" id="path2051-1" cx="165.281" cy="107.926" rx="5.55" ry="5.242"/><ellipse style="fill:#ff15ff;fill-opacity:1;stroke:#ffffff;stroke-width:5.005;stroke-linecap:round;stroke-linejoin:round;stroke-dasharray:none;stroke-opacity:1;paint-order:fill markers stroke" id="path2051-6" cx="198.584" cy="95.591" rx="5.55" ry="5.242"/><ellipse style="fill:#ff15ff;fill-opacity:1;stroke:#ffffff;stroke-width:5.005;stroke-linecap:round;stroke-linejoin:round;stroke-dasharray:none;stroke-opacity:1;paint-order:fill markers stroke" id="path2051-9" cx="133.828" cy="102.992" rx="5.55" ry="5.242"/><ellipse style="fill:#ff15ff;fill-opacity:1;stroke:#ffffff;stroke-width:5.005;stroke-linecap:round;stroke-linejoin:round;stroke-dasharray:none;stroke-opacity:1;paint-order:fill markers stroke" id="path2051-66" cx="150.479" cy="106.076" rx="5.55" ry="5.242"/><ellipse style="fill:#ff15ff;fill-opacity:1;stroke:#ffffff;stroke-width:5.005;stroke-linecap:round;stroke-linejoin:round;stroke-dasharray:none;stroke-opacity:1;paint-order:fill markers stroke" id="path2051-7" cx="184.399" cy="93.741" rx="5.55" ry="5.242"/><path id="rect2022-0" style="fill:none;stroke:#ffffff;stroke-width:5.005;stroke-linecap:round;stroke-linejoin:round;paint-order:fill markers stroke;stroke-opacity:1" d="m 826.349,283.35268 133.44237,-40.9921 c 0,0 26.54357,-3.12253 31.83429,22.67648 5.80716,28.31734 -13.51867,36.63124 -13.51867,36.63124 l -135.18671,41.86427 c 0,0 -21.22697,5.08661 -31.83429,-23.98474 -8.73711,-23.94568 15.26301,-36.19515 15.26301,-36.19515 z"/><path id="rect845" style="fill:none;stroke:#ffffff;stroke-width:5.005;stroke-linecap:round;stroke-linejoin:round;paint-order:fill markers stroke;stroke-opacity:1" d="M 68.029439,29.653857 C 120.08868,29.307053 372.29825,12.309448 524.61162,11.338238 c 159.51853,-1.017153 464.20666,12.880437 478.38648,13.082585 19.652,0.28016 37.8695,24.038534 39.6838,43.608605 6.8071,73.423202 10.9022,238.103042 10.9022,238.103042 0,0 -2.9079,213.56768 -6.5413,243.33607 -3.0283,24.81011 -26.0509,53.87346 -51.02208,54.94685 -93.54634,4.02112 -306.10761,8.4252 -459.1987,8.28564 C 383.14409,612.56094 197.91793,610.75018 75.87899,603.54322 58.695356,602.52845 14.524695,584.40288 9.8119365,541.18291 3.3527915,481.94709 14.390842,300.02726 14.390842,300.02726 L 30.307986,65.849002 C 31.48971,48.463094 50.603803,29.769942 68.029439,29.653857 Z"/><path style="fill:none;stroke:#ffffff;stroke-width:5.005;stroke-linecap:round;stroke-linejoin:round;stroke-dasharray:none;stroke-opacity:1;paint-order:fill markers stroke" d="m 11.33824,395.96623 59.089672,1.5263 168.111218,21.58626 163.75035,0.65413 130.60781,1.52631 127.11911,-1.96239 177.70512,-2.83456 139.32952,-22.02235 72.17226,-0.21804" id="path1102"/><path id="rect1106" style="fill:none;stroke:#ffffff;stroke-width:5.005;stroke-linecap:round;stroke-linejoin:round;paint-order:fill markers stroke;stroke-opacity:1" d="m 374.16193,453.52961 c 162.70486,-9.71477 356.46137,3.53439 488.41652,23.54865 23.65624,3.58805 25.94609,15.04935 -0.11246,19.20832 -127.3696,20.32835 -326.1121,31.25852 -489.1762,23.52813 -49.80292,-2.36101 -95.98699,-10.05523 -148.05399,-21.28755 -12.09033,-2.60823 -12.15749,-17.31435 -4.57619,-19.05042 47.49277,-10.87555 101.70129,-22.8542 153.50232,-25.94713 z"/><path id="rect1835" style="fill:none;stroke:#ffffff;stroke-width:5.005;stroke-linecap:round;stroke-linejoin:round;paint-order:fill markers stroke;stroke-opacity:1" d="m 352.97432,87.067592 c 45.68859,-1.13065 95.61624,-1.593189 173.59176,-1.773066 77.97551,-0.179877 183.99888,-0.07709 183.99888,-0.07709 l -0.92508,283.861104 c 0,0 -121.24529,3.18631 -181.87892,2.92942 -60.64408,-0.25693 -181.87891,-4.47121 -181.87891,-4.47121 0,0 5.75604,-190.94212 7.09227,-280.469157 z"/><ellipse style="fill:none;stroke:#ffffff;stroke-width:4.84341;stroke-linecap:round;stroke-linejoin:round;stroke-dasharray:none;stroke-opacity:1;paint-order:fill markers stroke" id="path1894" cx="170.074" cy="280.84" rx="87.298" ry="81.193"/><ellipse style="fill:none;stroke:#ffffff;stroke-width:4.24686;stroke-linecap:round;stroke-linejoin:round;stroke-dasharray:none;stroke-opacity:1;paint-order:fill markers stroke" id="path1894-3" cx="169.562" cy="279.531" rx="76.258" ry="71.461"/><ellipse style="fill:none;stroke:#ffffff;stroke-width:4.86819;stroke-linecap:round;stroke-linejoin:round;stroke-dasharray:none;stroke-opacity:1;paint-order:fill markers stroke" id="path1972" cx="851.24" cy="225.457" rx="27.978" ry="24.925"/><ellipse style="fill:none;stroke:#ffffff;stroke-width:4.86819;stroke-linecap:round;stroke-linejoin:round;stroke-dasharray:none;stroke-opacity:1;paint-order:fill markers stroke" id="path1972-5" cx="943.69" cy="198.855" rx="27.978" ry="24.925"/><ellipse style="fill:none;stroke:#ffffff;stroke-width:4.86819;stroke-linecap:round;stroke-linejoin:round;stroke-dasharray:none;stroke-opacity:1;paint-order:fill markers stroke" id="path1972-8" cx="858.218" cy="307.005" rx="27.978" ry="24.925"/><ellipse style="fill:none;stroke:#ffffff;stroke-width:4.86819;stroke-linecap:round;stroke-linejoin:round;stroke-dasharray:none;stroke-opacity:1;paint-order:fill markers stroke" id="path1972-7" cx="948.051" cy="278.223" rx="27.978" ry="24.925"/><path id="rect2022" style="fill:none;stroke:#ffffff;stroke-width:5.005;stroke-linecap:round;stroke-linejoin:round;paint-order:fill markers stroke;stroke-opacity:1" d="m 820.71418,203.21616 133.44237,-40.9921 c 0,0 26.54357,-3.12253 31.83429,22.67648 5.80716,28.31734 -13.51867,36.63124 -13.51867,36.63124 l -135.18671,41.86427 c 0,0 -21.22697,5.08661 -31.83429,-23.98474 -8.73711,-23.94568 15.26301,-36.19515 15.26301,-36.19515 z"/><ellipse style="fill:none;stroke:#ffffff;stroke-width:5.005;stroke-linecap:round;stroke-linejoin:round;stroke-dasharray:none;stroke-opacity:1;paint-order:fill markers stroke" id="path2047" cx="842.518" cy="100.3" rx="21.804" ry="20.932"/><ellipse style="fill:none;stroke:#ffffff;stroke-width:5.50165;stroke-linecap:round;stroke-linejoin:round;stroke-dasharray:none;stroke-opacity:1;paint-order:fill markers stroke" id="path2049" cx="842.263" cy="100.48" rx="13.451" ry="12.812"/><ellipse style="fill:#ff15ff;fill-opacity:1;stroke:#ffffff;stroke-width:5.005;stroke-linecap:round;stroke-linejoin:round;stroke-dasharray:none;stroke-opacity:1;paint-order:fill markers stroke" id="path2051" cx="136.912" cy="88.499" rx="5.55" ry="5.242"/><ellipse style="fill:#ff15ff;fill-opacity:1;stroke:#ffffff;stroke-width:5.005;stroke-linecap:round;stroke-linejoin:round;stroke-dasharray:none;stroke-opacity:1;paint-order:fill markers stroke" id="path2051-5" cx="169.598" cy="91.274" rx="5.55" ry="5.242"/><ellipse style="fill:#ff15ff;fill-opacity:1;stroke:#ffffff;stroke-width:5.005;stroke-linecap:round;stroke-linejoin:round;stroke-dasharray:none;stroke-opacity:1;paint-order:fill markers stroke" id="path2051-3" cx="154.18" cy="90.041" rx="5.55" ry="5.242"/><path style="fill:none;fill-opacity:1;stroke:#ffffff;stroke-width:5.005;stroke-linecap:round;stroke-linejoin:round;stroke-dasharray:none;stroke-opacity:1;paint-order:fill markers stroke" d="m 284.92416,67.222367 c 22.61422,6.578682 45.22725,13.157018 67.83909,19.735007" id="path2840"/><path style="fill:none;fill-opacity:1;stroke:#ffffff;stroke-width:5.005;stroke-linecap:round;stroke-linejoin:round;stroke-dasharray:none;stroke-opacity:1;paint-order:fill markers stroke" d="m 709.22681,85.107217 c 22.20252,-6.784103 44.4044,-13.568011 66.60564,-20.351726" id="path2898"/><path style="fill:none;fill-opacity:1;stroke:#ffffff;stroke-width:5.005;stroke-linecap:round;stroke-linejoin:round;stroke-dasharray:none;stroke-opacity:1;paint-order:fill markers stroke" d="m 708.61009,369.41465 c 21.5863,3.70051 43.17147,7.40083 64.75549,11.10095" id="path2902"/><path style="fill:none;fill-opacity:1;stroke:#ffffff;stroke-width:5.005;stroke-linecap:round;stroke-linejoin:round;stroke-dasharray:none;stroke-opacity:1;paint-order:fill markers stroke" d="m 347.21278,366.33107 c -23.64013,4.93359 -47.28103,9.86734 -70.92268,14.80125" id="path2906"/><path id="rect3002" style="fill:none;stroke:#ffffff;stroke-width:5.005;stroke-linecap:round;stroke-linejoin:round;paint-order:fill markers stroke;stroke-opacity:1" d="m 281.22385,64.138771 c 0,0 164.85313,-4.925632 247.30429,-4.933752 83.2733,-0.0082 249.77118,4.933752 249.77118,4.933752 l -1.23344,318.843719 c 0,0 -167.52155,5.55503 -251.31297,5.55047 -83.38037,-0.005 -250.07953,-5.55047 -250.07953,-5.55047 z"/></g></svg>