<?xml version="1.0" encoding="UTF-8" standalone="no"?><svg version="1.1" id="svg2" viewBox="0 0 1454.667 838.667" xmlns="http://www.w3.org/2000/svg" xmlns:svg="http://www.w3.org/2000/svg"><g id="g8"><path id="rect291" style="fill:none;stroke:#ffffff;stroke-width:7;stroke-linecap:round;stroke-linejoin:round;paint-order:fill markers stroke;stroke-opacity:1;stroke-dasharray:none" d="M 19.030798,672.02512 C 2.6071402,560.88438 11.090576,413.15846 20.814943,284.27257 25.42787,223.13325 47.577011,102.29055 47.577011,102.29055 c 0,0 -13.55885,-62.479229 39.845743,-67.797226 211.962156,-21.107061 431.615746,-23.94437 647.641906,-23.7885 187.07408,0.13498 389.32974,4.966441 560.81384,21.40965 9.7175,0.931787 16.3546,16.354593 16.3546,16.354593 0,0 41.0768,0.462383 58.5792,0.297356 21.729,-0.20488 26.3654,17.048456 28.8435,30.92505 43.3473,242.729027 49.5804,434.082697 41.3326,617.311557 -2.2581,50.16549 -50.6218,81.18833 -105.5614,97.23549 -166.0165,48.49129 -419.10537,24.30755 -628.90854,25.27528 -166.59748,0.76843 -317.32715,-5.31066 -499.55852,-15.46252 -75.0979,-4.1836 -167.155791,8.54943 -187.929142,-132.02616 z"/><path style="fill:none;stroke:#ffffff;stroke-width:7;stroke-linecap:round;stroke-linejoin:round;stroke-dasharray:none;stroke-opacity:1;paint-order:fill markers stroke" d="m 53.524124,97.532849 c 0,0 72.297236,-5.284806 109.055406,1.784141 26.18327,5.03529 52.96291,4.26171 63.85725,48.1717 51.21401,206.41978 81.85361,325.72844 118.57081,479.93299 15.98183,67.12033 90.0246,71.96021 90.0246,71.96021 l 584.82541,2.97356 c 0,0 83.3292,3.20644 99.54,-104.07469 8.6331,-57.13301 -3.419,-280.17243 2.8249,-442.46609 1.958,-50.89358 42.4476,-46.98229 42.4476,-46.98229 0,0 51.9932,-1.47484 104.2977,-1.78413 38.1458,-0.22556 42.4476,-57.687111 42.4476,-57.687111" id="path1050"/><rect style="fill:none;stroke:#ffffff;stroke-width:7;stroke-linecap:round;stroke-linejoin:round;stroke-dasharray:none;stroke-opacity:1;paint-order:fill markers stroke" id="rect1780" width="664.908" height="606.617" x="399.114" y="56.898" ry="87.006" rx="70.176" transform="matrix(0.99999822,0.00188456,-0.00184633,0.9999983,0,0)"/><path id="rect1836" style="fill:none;stroke:#ffffff;stroke-width:7;stroke-linecap:round;stroke-linejoin:round;paint-order:fill markers stroke;stroke-opacity:1;stroke-dasharray:none" d="m 82.07032,624.44811 17.54402,-57.09241 53.22677,17.84138 21.11229,-55.90298 61.55274,20.22023 -21.70701,59.47125 46.09022,16.65195 -18.13872,54.71355 -52.63206,-19.0308 -20.22022,57.09239 -53.52413,-19.03079 17.84137,-58.87654 z"/><ellipse style="fill:none;stroke:#ffffff;stroke-width:7;stroke-linecap:round;stroke-linejoin:round;stroke-dasharray:none;stroke-opacity:1;paint-order:fill markers stroke" id="path1891" cx="1197.156" cy="658.347" rx="55.308" ry="51.74"/><ellipse style="fill:none;stroke:#ffffff;stroke-width:7;stroke-linecap:round;stroke-linejoin:round;stroke-dasharray:none;stroke-opacity:1;paint-order:fill markers stroke" id="path1891-3" cx="1338.103" cy="578.06" rx="55.308" ry="51.74"/><circle style="fill:none;stroke:#ffffff;stroke-width:7;stroke-linecap:round;stroke-linejoin:round;stroke-dasharray:none;stroke-opacity:1;paint-order:fill markers stroke" id="path1915" cx="1211.429" cy="366.938" r="22.004"/><circle style="fill:none;stroke:#ffffff;stroke-width:7;stroke-linecap:round;stroke-linejoin:round;stroke-dasharray:none;stroke-opacity:1;paint-order:fill markers stroke" id="path1915-3" cx="1309.557" cy="327.092" r="22.004"/><path style="fill:none;stroke:#ffffff;stroke-width:7;stroke-linecap:round;stroke-linejoin:round;stroke-dasharray:none;stroke-opacity:1;paint-order:fill markers stroke" d="m 70.176076,482.90654 c 0,0 162.343664,44.55127 184.360874,62.44481 92.53884,75.20693 116.56364,259.88936 116.56364,259.88936" id="path1939"/><path style="fill:none;stroke:#ffffff;stroke-width:7;stroke-linecap:round;stroke-linejoin:round;stroke-dasharray:none;stroke-opacity:1;paint-order:fill markers stroke" d="m 1000.3064,818.32438 c 50.7489,-41.62996 101.4977,-83.25983 152.2464,-124.88962" id="path1943"/><path style="fill:none;stroke:#ffffff;stroke-width:7;stroke-linecap:round;stroke-linejoin:round;stroke-dasharray:none;stroke-opacity:1;paint-order:fill markers stroke;fill-opacity:1" d="m 1241.7597,624.44811 c 14.6697,-11.89436 29.3392,-23.78858 44.0087,-35.68275" id="path1947"/><circle style="fill:none;fill-opacity:1;stroke:#ffffff;stroke-width:7;stroke-linecap:round;stroke-linejoin:round;stroke-dasharray:none;stroke-opacity:1;paint-order:fill markers stroke" id="path4291" cx="143.326" cy="211.123" r="8.921"/><circle style="fill:none;fill-opacity:1;stroke:#ffffff;stroke-width:7;stroke-linecap:round;stroke-linejoin:round;stroke-dasharray:none;stroke-opacity:1;paint-order:fill markers stroke" id="path4291-4" cx="110.617" cy="212.907" r="8.921"/><circle style="fill:none;fill-opacity:1;stroke:#ffffff;stroke-width:7;stroke-linecap:round;stroke-linejoin:round;stroke-dasharray:none;stroke-opacity:1;paint-order:fill markers stroke" id="path4291-3" cx="79.691" cy="248.59" r="8.921"/><circle style="fill:none;fill-opacity:1;stroke:#ffffff;stroke-width:7;stroke-linecap:round;stroke-linejoin:round;stroke-dasharray:none;stroke-opacity:1;paint-order:fill markers stroke" id="path4291-7" cx="111.806" cy="247.4" r="8.921"/><circle style="fill:none;fill-opacity:1;stroke:#ffffff;stroke-width:7;stroke-linecap:round;stroke-linejoin:round;stroke-dasharray:none;stroke-opacity:1;paint-order:fill markers stroke" id="path4291-5" cx="142.731" cy="247.4" r="8.921"/><circle style="fill:none;fill-opacity:1;stroke:#ffffff;stroke-width:7;stroke-linecap:round;stroke-linejoin:round;stroke-dasharray:none;stroke-opacity:1;paint-order:fill markers stroke" id="path4291-59" cx="176.035" cy="248.59" r="8.921"/><circle style="fill:none;fill-opacity:1;stroke:#ffffff;stroke-width:7;stroke-linecap:round;stroke-linejoin:round;stroke-dasharray:none;stroke-opacity:1;paint-order:fill markers stroke" id="path4291-0" cx="210.528" cy="249.779" r="8.921"/><circle style="fill:none;fill-opacity:1;stroke:#ffffff;stroke-width:7;stroke-linecap:round;stroke-linejoin:round;stroke-dasharray:none;stroke-opacity:1;paint-order:fill markers stroke" id="path4291-77" cx="79.691" cy="279.515" r="8.921"/><circle style="fill:none;fill-opacity:1;stroke:#ffffff;stroke-width:7;stroke-linecap:round;stroke-linejoin:round;stroke-dasharray:none;stroke-opacity:1;paint-order:fill markers stroke" id="path4291-82" cx="110.617" cy="279.515" r="8.921"/><circle style="fill:none;fill-opacity:1;stroke:#ffffff;stroke-width:7;stroke-linecap:round;stroke-linejoin:round;stroke-dasharray:none;stroke-opacity:1;paint-order:fill markers stroke" id="path4291-68" cx="143.92" cy="279.515" r="8.921"/><circle style="fill:none;fill-opacity:1;stroke:#ffffff;stroke-width:7;stroke-linecap:round;stroke-linejoin:round;stroke-dasharray:none;stroke-opacity:1;paint-order:fill markers stroke" id="path4291-78" cx="176.035" cy="280.704" r="8.921"/><circle style="fill:none;fill-opacity:1;stroke:#ffffff;stroke-width:7;stroke-linecap:round;stroke-linejoin:round;stroke-dasharray:none;stroke-opacity:1;paint-order:fill markers stroke" id="path4291-01" cx="210.528" cy="281.894" r="8.921"/><circle style="fill:none;fill-opacity:1;stroke:#ffffff;stroke-width:7;stroke-linecap:round;stroke-linejoin:round;stroke-dasharray:none;stroke-opacity:1;paint-order:fill markers stroke" id="path4291-89" cx="112.995" cy="311.629" r="8.921"/><circle style="fill:none;fill-opacity:1;stroke:#ffffff;stroke-width:7;stroke-linecap:round;stroke-linejoin:round;stroke-dasharray:none;stroke-opacity:1;paint-order:fill markers stroke" id="path4291-1" cx="145.11" cy="312.819" r="8.921"/><circle style="fill:none;fill-opacity:1;stroke:#ffffff;stroke-width:7;stroke-linecap:round;stroke-linejoin:round;stroke-dasharray:none;stroke-opacity:1;paint-order:fill markers stroke" id="path4291-66" cx="176.035" cy="311.629" r="8.921"/><circle style="fill:none;fill-opacity:1;stroke:#ffffff;stroke-width:7;stroke-linecap:round;stroke-linejoin:round;stroke-dasharray:none;stroke-opacity:1;paint-order:fill markers stroke" id="path4291-57" cx="206.96" cy="311.629" r="8.921"/><circle style="fill:none;fill-opacity:1;stroke:#ffffff;stroke-width:7;stroke-linecap:round;stroke-linejoin:round;stroke-dasharray:none;stroke-opacity:1;paint-order:fill markers stroke" id="path4291-6" cx="176.035" cy="212.907" r="8.921"/><circle style="fill:none;fill-opacity:1;stroke:#ffffff;stroke-width:7;stroke-linecap:round;stroke-linejoin:round;stroke-dasharray:none;stroke-opacity:1;paint-order:fill markers stroke" id="path4291-8" cx="205.771" cy="216.475" r="8.921"/></g></svg>