<?xml version="1.0" encoding="UTF-8" standalone="no"?><svg viewBox="0 0 207.621 152.861" version="1.1" id="svg318" xmlns:xlink="http://www.w3.org/1999/xlink" xmlns="http://www.w3.org/2000/svg" xmlns:svg="http://www.w3.org/2000/svg"><clipPath id="a"><circle cx="80.449" cy="288.467" r="58.417" id="circle2"/></clipPath><clipPath id="b"><path d="m 62.033,224.716 v 45.25 h -45.25 v 34.333 h 45.25 v 45.25 h 34.333 v -45.25 h 45.25 v -34.333 h -45.25 v -45.25 z" id="path5"/></clipPath><linearGradient id="c" gradientTransform="matrix(0.75632525,0.00271936,-0.00271936,0.75632525,381.39937,-258.90102)" gradientUnits="userSpaceOnUse" x1="320.24" x2="328.66" y1="626.39" y2="626.39"><stop offset="0" stop-color="currentColor" id="stop8"/><stop offset=".5" stop-color="currentColor" id="stop10"/><stop offset=".75" stop-color="currentColor" id="stop12"/><stop offset=".875" stop-color="currentColor" id="stop14"/><stop offset="1" stop-color="currentColor" id="stop16"/></linearGradient><linearGradient id="d" gradientUnits="userSpaceOnUse" x1="409.437" x2="604.382" xlink:href="#e" y1="216.525" y2="216.525"/><linearGradient id="e"><stop offset="0" stop-color="currentColor" id="stop20"/><stop offset=".239" stop-color="currentColor" id="stop22"/><stop offset="1" stop-color="currentColor" id="stop24"/></linearGradient><linearGradient id="f" gradientTransform="matrix(0.73408644,-0.18207795,-0.18207795,-0.73408644,136.09951,601.65152)" gradientUnits="userSpaceOnUse" x1="443.91" x2="701.66" xlink:href="#e" y1="179.9" y2="179.9"/><linearGradient id="g" gradientTransform="matrix(1,0,0,-1,0,103.17)" gradientUnits="userSpaceOnUse" x1="691.21" x2="691.21" y1="16.75" y2="75.58"><stop offset="0" stop-color="currentColor" id="stop28"/><stop offset="1" stop-color="currentColor" id="stop30"/></linearGradient><linearGradient id="h" gradientUnits="userSpaceOnUse" x1="186.46" x2="186.46" y1="609" y2="521.84"><stop offset="0" stop-opacity=".491" id="stop33"/><stop offset=".5" stop-opacity=".824" id="stop35"/><stop offset="1" stop-opacity=".365" id="stop37"/></linearGradient><g transform="scale(0.2982856)" id="g216" style="fill:none;stroke:#000000;stroke-opacity:1"><path id="path40" style="fill:none;stroke:#ffffff;stroke-width:3.68104;stroke-dasharray:none;stroke-opacity:1" d="m 537.18848,155.66363 h 104.8825 c 27.61397,0 50,22.38603 50,50 v 254.878 0 c 0,27.61397 -22.38603,50 -50,50 H 56.704983 c -27.613972,0 -49.9999996,-22.38603 -49.9999996,-50 v -254.878 c 0,-27.61397 22.3860276,-50 49.9999996,-50 H 159.14518"/><path id="path1163" style="fill:none;stroke:#ffffff;stroke-width:3.68104;stroke-dasharray:none;stroke-opacity:1" d="m 533.18776,155.66363 h 4.00072"/><path id="path1159" style="fill:none;stroke:#ffffff;stroke-width:3.68104;stroke-dasharray:none;stroke-opacity:1" d="m 159.14518,155.66363 h 4.0007"/><path d="m 576.07098,254.38063 c -10.292,0 -18.666,-8.374 -18.666,-18.667 0,-10.293 8.374,-18.667 18.666,-18.667 10.293,0 18.667,8.374 18.667,18.667 0,10.293 -8.374,18.667 -18.667,18.667 z" fill="currentColor" id="path44" style="fill:none;stroke:#ffffff;stroke-width:3.68104;stroke-dasharray:none;stroke-opacity:1"/><path d="m 641.90498,295.38063 c -13.143,0 -23.834,-10.691 -23.834,-23.833 0,-13.142 10.691,-23.833 23.834,-23.833 13.142,0 23.833,10.692 23.833,23.833 0,13.141 -10.692,23.833 -23.833,23.833 z" fill="currentColor" id="path48" style="fill:none;stroke:#ffffff;stroke-width:3.68104;stroke-dasharray:none;stroke-opacity:1"/><path d="m 581.90498,339.38063 c -13.143,0 -23.834,-10.691 -23.834,-23.833 0,-13.142 10.691,-23.833 23.834,-23.833 13.142,0 23.833,10.691 23.833,23.833 0,13.142 -10.692,23.833 -23.833,23.833 z" fill="currentColor" id="path52" style="fill:none;stroke:#ffffff;stroke-width:3.68104;stroke-dasharray:none;stroke-opacity:1"/><path d="m 190.57098,387.21264 h 37 v 23 h -37 z" fill="currentColor" id="path56" style="fill:none;stroke:#ffffff;stroke-width:3.68104;stroke-dasharray:none;stroke-opacity:1"/><path d="m 246.57098,387.21264 h 37 v 23 h -37 z" fill="currentColor" id="path60" style="fill:none;stroke:#ffffff;stroke-width:3.68104;stroke-dasharray:none;stroke-opacity:1"/><path d="m 302.57098,387.21264 h 37 v 23 h -37 z" fill="currentColor" id="path64" style="fill:none;stroke:#ffffff;stroke-width:3.68104;stroke-dasharray:none;stroke-opacity:1"/><path d="m 358.57098,387.21264 h 37 v 23 h -37 z" fill="currentColor" id="path68" style="fill:none;stroke:#ffffff;stroke-width:3.68104;stroke-dasharray:none;stroke-opacity:1"/><path d="m 414.57098,387.21264 h 37 v 23 h -37 z" fill="currentColor" id="path72" style="fill:none;stroke:#ffffff;stroke-width:3.68104;stroke-dasharray:none;stroke-opacity:1"/><path d="m 470.57098,387.21264 h 37 v 23 h -37 z" fill="currentColor" id="path76" style="fill:none;stroke:#ffffff;stroke-width:3.68104;stroke-dasharray:none;stroke-opacity:1"/><path d="m 190.57098,427.71264 h 37 v 23 h -37 z" fill="currentColor" id="path80" style="fill:none;stroke:#ffffff;stroke-width:3.68104;stroke-dasharray:none;stroke-opacity:1"/><path d="m 246.57098,427.71264 h 37 v 23 h -37 z" fill="currentColor" id="path84" style="fill:none;stroke:#ffffff;stroke-width:3.68104;stroke-dasharray:none;stroke-opacity:1"/><path d="m 302.57098,427.71264 h 37 v 23 h -37 z" fill="currentColor" id="path88" style="fill:none;stroke:#ffffff;stroke-width:3.68104;stroke-dasharray:none;stroke-opacity:1"/><path d="m 358.57098,427.71264 h 37 v 23 h -37 z" fill="currentColor" id="path92" style="fill:none;stroke:#ffffff;stroke-width:3.68104;stroke-dasharray:none;stroke-opacity:1"/><path d="m 414.57098,427.71264 h 37 v 23 h -37 z" fill="currentColor" id="path96" style="fill:none;stroke:#ffffff;stroke-width:3.68104;stroke-dasharray:none;stroke-opacity:1"/><path d="m 470.57098,427.71264 h 37 v 23 h -37 z" fill="currentColor" id="path100" style="fill:none;stroke:#ffffff;stroke-width:3.68104;stroke-dasharray:none;stroke-opacity:1"/><path d="m 190.57098,468.21264 h 37 v 23 h -37 z" fill="currentColor" id="path104" style="fill:none;stroke:#ffffff;stroke-width:3.68104;stroke-dasharray:none;stroke-opacity:1"/><path d="m 246.57098,468.21264 h 37 v 23 h -37 z" fill="currentColor" id="path108" style="fill:none;stroke:#ffffff;stroke-width:3.68104;stroke-dasharray:none;stroke-opacity:1"/><path d="m 302.57098,468.21264 h 37 v 23 h -37 z" fill="currentColor" id="path112" style="fill:none;stroke:#ffffff;stroke-width:3.68104;stroke-dasharray:none;stroke-opacity:1"/><path d="m 358.57098,468.21264 h 37 v 23 h -37 z" fill="currentColor" id="path116" style="fill:none;stroke:#ffffff;stroke-width:3.68104;stroke-dasharray:none;stroke-opacity:1"/><path d="m 414.57098,468.21264 h 37 v 23 h -37 z" fill="currentColor" id="path120" style="fill:none;stroke:#ffffff;stroke-width:3.68104;stroke-dasharray:none;stroke-opacity:1"/><path d="m 470.57098,468.21264 h 37 v 23 h -37 z" fill="currentColor" id="path124" style="fill:none;stroke:#ffffff;stroke-width:3.68104;stroke-dasharray:none;stroke-opacity:1"/><path d="m 87.153983,351.54663 c -31.66,0 -57.417,-25.757 -57.417,-57.416 0,-31.659 25.758,-57.417 57.417,-57.417 31.658997,0 57.416997,25.757 57.416997,57.417 0,31.66 -25.757,57.416 -57.416997,57.416 z" fill="currentColor" id="path128" style="fill:none;stroke:#ffffff;stroke-width:3.68104;stroke-dasharray:none;stroke-opacity:1"/><path d="m 87.153983,237.71363 c 31.107997,0 56.416997,25.308 56.416997,56.417 0,31.107 -25.309,56.416 -56.416997,56.416 -31.108,0 -56.417,-25.309 -56.417,-56.416 0.001,-31.109 25.309,-56.417 56.417,-56.417 m 0,-2 c -32.263,0 -58.417,26.154 -58.417,58.417 0,32.263 26.154,58.416 58.417,58.416 32.262997,0 58.416997,-26.153 58.416997,-58.416 0,-32.263 -26.154,-58.417 -58.416997,-58.417 z" fill="currentColor" id="path130" style="fill:none;stroke:#ffffff;stroke-width:3.68104;stroke-dasharray:none;stroke-opacity:1"/><g clip-path="url(#a)" id="g142" style="fill:none;stroke:#ffffff;stroke-width:3.68104;stroke-dasharray:none;stroke-opacity:1" transform="translate(6.7049834,5.663634)"><path d="m 62.033,224.716 v 45.25 h -45.25 v 34.333 h 45.25 v 45.25 h 34.333 v -45.25 h 45.25 v -34.333 h -45.25 v -45.25 z" fill="currentColor" id="path132" style="fill:none;stroke:#ffffff;stroke-width:3.68104;stroke-dasharray:none;stroke-opacity:1"/><g clip-path="url(#b)" id="g138" style="fill:none;stroke:#ffffff;stroke-width:3.68104;stroke-dasharray:none;stroke-opacity:1"><path d="m 80.449,344.883 c -31.108,0 -56.417,-25.309 -56.417,-56.416 0,-31.108 25.308,-56.417 56.417,-56.417 31.109,0 56.417,25.308 56.417,56.417 0,31.107 -25.308,56.416 -56.417,56.416 z" fill="currentColor" id="path134" style="fill:none;stroke:#ffffff;stroke-width:3.68104;stroke-dasharray:none;stroke-opacity:1"/><path d="m 80.449,234.05 c 30.005,0 54.417,24.411 54.417,54.417 0,30.005 -24.411,54.416 -54.417,54.416 -30.006,0 -54.417,-24.411 -54.417,-54.416 0.001,-30.006 24.412,-54.417 54.417,-54.417 m 0,-4 c -32.263,0 -58.417,26.154 -58.417,58.417 0,32.263 26.154,58.416 58.417,58.416 32.263,0 58.417,-26.153 58.417,-58.416 0,-32.263 -26.154,-58.417 -58.417,-58.417 z" fill="currentColor" id="path136" style="fill:none;stroke:#ffffff;stroke-width:3.68104;stroke-dasharray:none;stroke-opacity:1"/></g><path d="m 62.033,224.716 v 45.25 h -45.25 v 34.333 h 45.25 v 45.25 h 34.333 v -45.25 h 45.25 v -34.333 h -45.25 v -45.25 z" fill="none" stroke="currentColor" stroke-miterlimit="10" stroke-width="4" id="path140" style="fill:none;stroke:#ffffff;stroke-width:3.68104;stroke-dasharray:none;stroke-opacity:1"/></g><path d="m 184.14398,358.71263 c -12.682,0 -23,-10.317 -23,-23 V 30.663634 c 0,-12.682 10.318,-23 23,-23 h 328.049 c 12.683,0 23,10.318 23,23 V 335.71263 c 0,12.683 -10.317,23 -23,23 z" fill="currentColor" id="path144" style="fill:none;stroke:#ffffff;stroke-width:3.68104;stroke-dasharray:none;stroke-opacity:1"/><path d="m 499.73798,284.13063 c 0,5.522 -4.478,10 -10,10 h -279.667 c -5.523,0 -10,-4.478 -10,-10 V 53.045634 c 0,-5.523 4.477,-10 10,-10 h 279.667 c 5.522,0 10,4.477 10,10 z" fill="currentColor" id="path148" style="fill:none;stroke:#ffffff;stroke-width:3.68104;stroke-dasharray:none;stroke-opacity:1"/><path d="M 227.40399,69.045634 H 473.071 V 266.04563 H 227.40399 Z" fill="currentColor" id="path150" style="fill:none;stroke:#ffffff;stroke-width:3.68104;stroke-dasharray:none;stroke-opacity:1"/><circle cx="60.696" cy="411.421" r="4.625" id="circle152" style="fill:none;stroke:#ffffff;stroke-width:3.68104;stroke-dasharray:none;stroke-opacity:1"/><circle cx="76.196" cy="411.421" r="4.625" id="circle154" style="fill:none;stroke:#ffffff;stroke-width:3.68104;stroke-dasharray:none;stroke-opacity:1"/><circle cx="91.696" cy="411.421" r="4.625" id="circle156" style="fill:none;stroke:#ffffff;stroke-width:3.68104;stroke-dasharray:none;stroke-opacity:1"/><circle cx="107.196" cy="411.421" r="4.625" id="circle158" style="fill:none;stroke:#ffffff;stroke-width:3.68104;stroke-dasharray:none;stroke-opacity:1"/><circle cx="122.696" cy="411.421" r="4.625" id="circle160" style="fill:none;stroke:#ffffff;stroke-width:3.68104;stroke-dasharray:none;stroke-opacity:1"/><circle cx="76.196" cy="396.088" r="4.625" id="circle162" style="fill:none;stroke:#ffffff;stroke-width:3.68104;stroke-dasharray:none;stroke-opacity:1"/><circle cx="91.696" cy="396.088" r="4.625" id="circle164" style="fill:none;stroke:#ffffff;stroke-width:3.68104;stroke-dasharray:none;stroke-opacity:1"/><circle cx="107.196" cy="396.088" r="4.625" id="circle166" style="fill:none;stroke:#ffffff;stroke-width:3.68104;stroke-dasharray:none;stroke-opacity:1"/><circle cx="60.696" cy="426.755" r="4.625" id="circle168" style="fill:none;stroke:#ffffff;stroke-width:3.68104;stroke-dasharray:none;stroke-opacity:1"/><circle cx="76.196" cy="426.755" r="4.625" id="circle170" style="fill:none;stroke:#ffffff;stroke-width:3.68104;stroke-dasharray:none;stroke-opacity:1"/><circle cx="91.696" cy="426.755" r="4.625" id="circle172" style="fill:none;stroke:#ffffff;stroke-width:3.68104;stroke-dasharray:none;stroke-opacity:1"/><circle cx="107.196" cy="426.755" r="4.625" id="circle174" style="fill:none;stroke:#ffffff;stroke-width:3.68104;stroke-dasharray:none;stroke-opacity:1"/><circle cx="122.696" cy="426.755" r="4.625" id="circle176" style="fill:none;stroke:#ffffff;stroke-width:3.68104;stroke-dasharray:none;stroke-opacity:1"/><circle cx="76.196" cy="442.088" r="4.625" id="circle178" style="fill:none;stroke:#ffffff;stroke-width:3.68104;stroke-dasharray:none;stroke-opacity:1"/><circle cx="91.696" cy="442.088" r="4.625" id="circle180" style="fill:none;stroke:#ffffff;stroke-width:3.68104;stroke-dasharray:none;stroke-opacity:1"/><circle cx="107.196" cy="442.088" r="4.625" id="circle182" style="fill:none;stroke:#ffffff;stroke-width:3.68104;stroke-dasharray:none;stroke-opacity:1"/><circle cx="576.696" cy="411.421" r="4.625" id="circle184" style="fill:none;stroke:#ffffff;stroke-width:3.68104;stroke-dasharray:none;stroke-opacity:1"/><circle cx="592.196" cy="411.421" r="4.625" id="circle186" style="fill:none;stroke:#ffffff;stroke-width:3.68104;stroke-dasharray:none;stroke-opacity:1"/><circle cx="607.696" cy="411.421" r="4.625" id="circle188" style="fill:none;stroke:#ffffff;stroke-width:3.68104;stroke-dasharray:none;stroke-opacity:1"/><circle cx="623.196" cy="411.421" r="4.625" id="circle190" style="fill:none;stroke:#ffffff;stroke-width:3.68104;stroke-dasharray:none;stroke-opacity:1"/><circle cx="638.696" cy="411.421" r="4.625" id="circle192" style="fill:none;stroke:#ffffff;stroke-width:3.68104;stroke-dasharray:none;stroke-opacity:1"/><circle cx="592.196" cy="396.088" r="4.625" id="circle194" style="fill:none;stroke:#ffffff;stroke-width:3.68104;stroke-dasharray:none;stroke-opacity:1"/><circle cx="607.696" cy="396.088" r="4.625" id="circle196" style="fill:none;stroke:#ffffff;stroke-width:3.68104;stroke-dasharray:none;stroke-opacity:1"/><circle cx="623.196" cy="396.088" r="4.625" id="circle198" style="fill:none;stroke:#ffffff;stroke-width:3.68104;stroke-dasharray:none;stroke-opacity:1"/><circle cx="576.696" cy="426.755" r="4.625" id="circle200" style="fill:none;stroke:#ffffff;stroke-width:3.68104;stroke-dasharray:none;stroke-opacity:1"/><circle cx="592.196" cy="426.755" r="4.625" id="circle202" style="fill:none;stroke:#ffffff;stroke-width:3.68104;stroke-dasharray:none;stroke-opacity:1"/><circle cx="607.696" cy="426.755" r="4.625" id="circle204" style="fill:none;stroke:#ffffff;stroke-width:3.68104;stroke-dasharray:none;stroke-opacity:1"/><circle cx="623.196" cy="426.755" r="4.625" id="circle206" style="fill:none;stroke:#ffffff;stroke-width:3.68104;stroke-dasharray:none;stroke-opacity:1"/><circle cx="638.696" cy="426.755" r="4.625" id="circle208" style="fill:none;stroke:#ffffff;stroke-width:3.68104;stroke-dasharray:none;stroke-opacity:1"/><circle cx="592.196" cy="442.088" r="4.625" id="circle210" style="fill:none;stroke:#ffffff;stroke-width:3.68104;stroke-dasharray:none;stroke-opacity:1"/><circle cx="607.696" cy="442.088" r="4.625" id="circle212" style="fill:none;stroke:#ffffff;stroke-width:3.68104;stroke-dasharray:none;stroke-opacity:1"/><circle cx="623.196" cy="442.088" r="4.625" id="circle214" style="fill:none;stroke:#ffffff;stroke-width:3.68104;stroke-dasharray:none;stroke-opacity:1"/></g></svg>