<svg viewBox="0 0 2855.648 1314.339" xmlns="http://www.w3.org/2000/svg"><g transform="translate(-59.878449 -771.04122)"><g fill="currentColor" fill-opacity=".5" stroke-width="3.7"><path d="m939.42145 1606.195q0 .888-.2146 1.4948-.3182.9028-1.0212.9028-.4662 0-.9768-.2146-.6142-.259-.6734-.6364.2072 0 .4884.074.6512.1702.814.1702.629 0 .9472-.629.2516-.5032.2516-1.2062 0-.4958-.3256-1.4134-.3182-.925-.3182-1.2876 0-.111.0592-.1776.0666-.074.1776-.074.2886 0 .5624 1.332.2294 1.1248.2294 1.665z"/><path d="m942.27046 1606.9498q0 .7548-.4366 1.184-.4366.4292-1.2062.4292-.4218 0-.6512-.1998-.2294-.1998-.2294-.6142 0-.5846.7622-1.1766.7252-.5624 1.3394-.5624.2812 0 .37.3478.0518.1998.0518.592zm-.4514.2072q0-.089-.0222-.1702-.0148-.089-.0592-.1998-.1184.081-.3922.3996-.1406.1628-.2442.2368 0-.1406.0296-.2294.0592-.1258.0962-.2146-.3256 0-.6808.2738-.3478.2738-.3478.592 0 .2146.2368.2146.4514 0 .8732-.222.5106-.2664.5106-.6808z"/><path d="m945.31926 1607.2532q0 .3626-.2738.814-.3108.5106-.6438.5106-.0962 0-.1628-.1036-.0592-.111-.0592-.2146 0-.1332.2812-.4144.2886-.2886.2886-.3922 0-.067-.0222-.1332-.0222-.067-.0296-.089-.555.1258-1.1322.6364-.5698.5106-.8658.5772-.0592-.1628-.0592-.333 0-.2072.0962-.4366.0666-.1628.222-.3922.259-.3922.5476-.888.148-.259.5106-.8954.37-.6364.5402-.9028.0888-.1332.1554-.1998.0962-.089.2294-.1184.0888.03.1258.111.0444.081.0444.1924 0 .2516-.3256.6808-.592.7696-.6068.7992-.333.5032-.333.9102l.0148.074q.407-.1998.481-.2294.3034-.1258.518-.1258.2368 0 .3478.1628.111.1554.111.3996z"/><path d="m948.75286 1606.8166q0 .5032-.2442 1.073-.2664.629-.6586.8658-.0814-.096-.1406-.2146-.0518-.1184-.0518-.2368 0-.1258.37-.7474.1628-.2738.148-.481l-.007-.096q-.2738.081-.9472.4958-.666.407-1.3468.8288-.1036 0-.1924-.074-.0814-.081-.0814-.1776 0-.1554.4958-1.0434.148-.2664.5328-.925.1184.1554.1554.3478.037.185.037.444 0 .111 0 .1702.6808-.407 1.0656-.6142.4218-.2294.5772-.2294.1036 0 .1924.2368.0962.2368.0962.3774z"/><path d="m955.18346 1608.2522q0 .1332-.1184.2072-.111.067-.2516.067-.1258 0-.3182-.03-.4366-.067-.5624-.067-.222 0-.8732.052-.37.03-.5328.03-.4514 0-.4514-.4514 0-.4292.2812-1.2284.1554-.4514.5846-1.48.3848-.925.4884-1.3024.037-.1184.0592-.1554.0592-.089.148-.089.1406 0 .2368.2072.0962.1998.0962.3626 0 .259-.3034.8732-.3034.6068-.592 1.1914-.3182.6956-.3182 1.0582 0 .185.1554.259.111.052.3256.052.1628 0 .5624-.037.3996-.044.5328-.044.333 0 .5476.096.3034.1332.3034.4292z"/><path d="m957.93626 1606.9498q0 .7548-.4366 1.184-.4366.4292-1.2062.4292-.4218 0-.6512-.1998-.2294-.1998-.2294-.6142 0-.5846.7622-1.1766.7252-.5624 1.3394-.5624.2812 0 .37.3478.0518.1998.0518.592zm-.4514.2072q0-.089-.0222-.1702-.0148-.089-.0592-.1998-.1184.081-.3922.3996-.1406.1628-.2442.2368 0-.1406.0296-.2294.0592-.1258.0962-.2146-.3256 0-.6808.2738-.3478.2738-.3478.592 0 .2146.2368.2146.4514 0 .8732-.222.5106-.2664.5106-.6808z"/><path d="m961.05166 1606.7944q0 .2368-.1258.5032-.1184.2664-.3034.444l-.007-.1036q0-.089.0222-.2738.0222-.185.0222-.2738 0-.1258-.037-.185-.037-.067-.1554-.067-.3478 0-.8658.5402-.5624.592-1.1174 1.1766-.0444 0-.0888-.01-.111-.03-.148-.037.0222-.2664.185-.592.4366-.8806.4514-.9398.0592-.2368.0888-.3478.0296-.111.0814-.2294.0592-.1258.1332-.222.0814-.1036.2072-.1554l.074.888q.3182-.259.4884-.3996.3256-.259.5624-.259.2368 0 .3848.1554.148.1554.148.3848z"/><path d="m964.68507 1605.936q0 .3108-.8288.8214-.7992.4884-1.1618.4884-.1702 0-.2294-.1184-.0518-.1184-.0518-.333 0-.1406 0-.1998.4958 0 .9028-.148.407-.148.7104-.4884-.222-.081-.4514-.081-.5402 0-1.147.4144-.666.4514-.666.962 0 .4884.666.6808.1036.03 1.2506.2072.6734.1036.6734.3626 0 .111-.2442.1776-.2442.074-.6216.074-.9472 0-1.4948-.2886-.7252-.3848-.7252-1.2358 0-.888.888-1.4134.7548-.444 1.7168-.444.2886 0 .5254.1332.2886.1628.2886.4292z"/><path d="m967.63027 1604.6114q0 .1628-.3922.6808-.3922.518-.3922.7918 0 .1406.1628.2812.37.3256.37.3996 0 .096-.0666.185-.0592.089-.1554.089-.0814 0-.2294-.089-.1036-.059-.3996-.2886-.111.2146-.1702.3256-.2072.3922-.2812.5698-.111.3404-.222.6808-.1924.4588-.481.4588l-.007-.1702q0-.5254.3404-1.2432.0666-.1332.37-.6882-.5846-.3182-1.2876-.3182 0-.2738.111-.3996.1184-.1332.3922-.1332.2516 0 .629.089.185.044.37.089.1406-.044.3848-.481.5994-1.0508.814-1.2062.0592.096.0962.1924.0444.096.0444.185z"/><path d="m970.36088 1607.2532q0 .3626-.2738.814-.3108.5106-.6438.5106-.0962 0-.1628-.1036-.0592-.111-.0592-.2146 0-.1332.2812-.4144.2886-.2886.2886-.3922 0-.067-.0222-.1332-.0222-.067-.0296-.089-.555.1258-1.1322.6364-.5698.5106-.8658.5772-.0592-.1628-.0592-.333 0-.2072.0962-.4366.0666-.1628.222-.3922.259-.3922.5476-.888.148-.259.5106-.8954.37-.6364.5402-.9028.0888-.1332.1554-.1998.0962-.089.2294-.1184.0888.03.1258.111.0444.081.0444.1924 0 .2516-.3256.6808-.592.7696-.6068.7992-.333.5032-.333.9102l.0148.074q.407-.1998.481-.2294.3034-.1258.518-.1258.2368 0 .3478.1628.111.1554.111.3996z"/><path d="m976.43629 1604.8408q0 .3478-.37.9324-.2368.37-.777 1.0656-.5402.6882-.6734.9028.0222.01.555.1776.5402.1628.5402.592-.222.037-.4366.067l-.0814-.01v-.059q-.1184-.03-.1924-.03-.1406 0-.444.044-.3034.044-.4588.044-.1998 0-.3256-.074-.1258-.074-.1258-.2664 0-.1554.5698-.8806 1.0656-1.3542 1.073-1.369.5772-.7844.5772-1.0508 0-.1036-.074-.1554-.0666-.052-.2738-.052-.1406 0-.5846.2738-.2146.1332-.3478.1332l-.1258-.022q-.0444-.03-.0962-.111-.0518-.089-.0518-.1406 0-.3108.5994-.5698.5106-.222.888-.222.3182 0 .4884.2368.148.2072.148.5402z"/><path d="m980.88368 1606.1728q0 .8954-.9694 1.5836-.888.629-1.8278.629-.4662 0-.74-.2368-.2738-.2368-.2738-.6882 0-1.0064.8806-1.7464.8362-.703 1.8722-.703.5254 0 .7918.3108.2664.3108.2664.851zm-.4514.1702q0-.3404-.3848-.5106-.2886-.1258-.6882-.1258-.5846 0-1.221.5698-.6364.5698-.6364 1.147 0 .2368.1184.3404.1258.096.3774.096.7252 0 1.5096-.3996.925-.4736.925-1.1174z"/><path d="m984.27289 1604.8408q0 .3478-.37.9324-.2368.37-.777 1.0656-.5402.6882-.6734.9028.0222.01.555.1776.5402.1628.5402.592-.222.037-.4366.067l-.0814-.01v-.059q-.1184-.03-.1924-.03-.1406 0-.444.044-.3034.044-.4588.044-.1998 0-.3256-.074-.1258-.074-.1258-.2664 0-.1554.5698-.8806 1.0656-1.3542 1.073-1.369.5772-.7844.5772-1.0508 0-.1036-.074-.1554-.0666-.052-.2738-.052-.1406 0-.5846.2738-.2146.1332-.3478.1332l-.1258-.022q-.0444-.03-.0962-.111-.0518-.089-.0518-.1406 0-.3108.5994-.5698.5106-.222.888-.222.3182 0 .4884.2368.148.2072.148.5402z"/><path d="m987.67688 1604.8408q0 .3478-.37.9324-.2368.37-.777 1.0656-.5402.6882-.6734.9028.0222.01.555.1776.5402.1628.5402.592-.222.037-.4366.067l-.0814-.01v-.059q-.1184-.03-.1924-.03-.1406 0-.444.044-.3034.044-.4588.044-.1998 0-.3256-.074-.1258-.074-.1258-.2664 0-.1554.5698-.8806 1.0656-1.3542 1.073-1.369.5772-.7844.5772-1.0508 0-.1036-.074-.1554-.0666-.052-.2738-.052-.1406 0-.5846.2738-.2146.1332-.3478.1332l-.1258-.022q-.0444-.03-.0962-.111-.0518-.089-.0518-.1406 0-.3108.5994-.5698.5106-.222.888-.222.3182 0 .4884.2368.148.2072.148.5402z"/></g><g fill="none" stroke="currentColor"><g stroke-width="7.4"><path d="m1487.7831 2081.6007c470.1164-.067 939.1682-19.4408 1407.18-57.6816 9.2376-.7548 17.5503-7.498 16.7301-16.7301l-108.0001-1215.63817c-.8202-9.23211-7.4616-16.73009-16.73-16.73009h-10-1289.0872m-.2544 1306.77986c-470.1163-.067-939.16813-19.4408-1407.179872-57.6816-9.237685-.7548-17.550296-7.498-16.730092-16.7301l108.000004-1215.63807c.8202-9.23211 7.46162-16.73009 16.73009-16.73009h10 1289.08707" opacity=".98"/><rect height="974.079" opacity=".98" rx="14.374" width="872.637" x="244.241" y="901.659"/><rect height="445.563" opacity=".98" rx="14.374" ry="14.374" width="723.67" x="323.854" y="948.444"/></g><rect height="202.299" opacity=".98" rx="14.374" stroke-width="3.7" width="480.404" x="445.486" y="1070.076"/><rect height="96.706" opacity=".98" rx="14.374" ry="14.374" stroke-width="3.7" width="723.67" x="323.854" y="1429.555"/><rect fill="none" height="227.145" opacity=".98" rx="9.689" stroke="currentColor" stroke-width="7.4" width="122.857" x="907.274" y="1612.947"/><g fill="currentColor" stroke="none"><circle cx="1001.997" cy="1743.58" opacity=".98" r="7.5"/><circle cx="979.997" cy="1743.58" opacity=".98" r="7.5"/><circle cx="957.997" cy="1743.58" opacity=".98" r="7.5"/><circle cx="935.997" cy="1743.58" opacity=".98" r="7.5"/><circle cx="1001.997" cy="1765.58" opacity=".98" r="7.5"/><circle cx="979.997" cy="1765.58" opacity=".98" r="7.5"/><circle cx="957.997" cy="1765.58" opacity=".98" r="7.5"/><circle cx="935.997" cy="1765.58" opacity=".98" r="7.5"/><circle cx="1001.924" cy="1787.528" opacity=".98" r="7.5"/><circle cx="979.924" cy="1787.528" opacity=".98" r="7.5"/><circle cx="957.924" cy="1787.528" opacity=".98" r="7.5"/><circle cx="935.924" cy="1787.528" opacity=".98" r="7.5"/><circle cx="1001.924" cy="1809.528" opacity=".98" r="7.5"/><circle cx="979.924" cy="1809.528" opacity=".98" r="7.5"/><circle cx="957.924" cy="1809.528" opacity=".98" r="7.5"/><circle cx="935.924" cy="1809.528" opacity=".98" r="7.5"/></g><rect fill="none" height="227.145" opacity=".98" rx="9.689" stroke="currentColor" stroke-width="7.4" width="122.857" x="765.274" y="1612.947"/><g fill="currentColor" stroke="none"><circle cx="859.997" cy="1743.58" opacity=".98" r="7.5"/><circle cx="837.997" cy="1743.58" opacity=".98" r="7.5"/><circle cx="815.997" cy="1743.58" opacity=".98" r="7.5"/><circle cx="793.997" cy="1743.58" opacity=".98" r="7.5"/><circle cx="859.997" cy="1765.58" opacity=".98" r="7.5"/><circle cx="837.997" cy="1765.58" opacity=".98" r="7.5"/><circle cx="815.997" cy="1765.58" opacity=".98" r="7.5"/><circle cx="793.997" cy="1765.58" opacity=".98" r="7.5"/><circle cx="859.924" cy="1787.528" opacity=".98" r="7.5"/><circle cx="837.924" cy="1787.528" opacity=".98" r="7.5"/><circle cx="815.924" cy="1787.528" opacity=".98" r="7.5"/><circle cx="793.924" cy="1787.528" opacity=".98" r="7.5"/><circle cx="859.924" cy="1809.528" opacity=".98" r="7.5"/><circle cx="837.924" cy="1809.528" opacity=".98" r="7.5"/><circle cx="815.924" cy="1809.528" opacity=".98" r="7.5"/><circle cx="793.924" cy="1809.528" opacity=".98" r="7.5"/></g><rect fill="none" height="227.145" opacity=".98" rx="9.689" stroke="currentColor" stroke-width="7.4" width="122.857" x="625.274" y="1612.947"/><g fill="currentColor" stroke="none"><circle cx="719.997" cy="1743.58" opacity=".98" r="7.5"/><circle cx="697.997" cy="1743.58" opacity=".98" r="7.5"/><circle cx="675.997" cy="1743.58" opacity=".98" r="7.5"/><circle cx="653.997" cy="1743.58" opacity=".98" r="7.5"/><circle cx="719.997" cy="1765.58" opacity=".98" r="7.5"/><circle cx="697.997" cy="1765.58" opacity=".98" r="7.5"/><circle cx="675.997" cy="1765.58" opacity=".98" r="7.5"/><circle cx="653.997" cy="1765.58" opacity=".98" r="7.5"/><circle cx="719.924" cy="1787.528" opacity=".98" r="7.5"/><circle cx="697.924" cy="1787.528" opacity=".98" r="7.5"/><circle cx="675.924" cy="1787.528" opacity=".98" r="7.5"/><circle cx="653.924" cy="1787.528" opacity=".98" r="7.5"/><circle cx="719.924" cy="1809.528" opacity=".98" r="7.5"/><circle cx="697.924" cy="1809.528" opacity=".98" r="7.5"/><circle cx="675.924" cy="1809.528" opacity=".98" r="7.5"/><circle cx="653.924" cy="1809.528" opacity=".98" r="7.5"/></g><rect fill="none" height="227.145" opacity=".98" rx="9.689" stroke="currentColor" stroke-width="7.4" width="122.857" x="483.274" y="1612.947"/><g fill="currentColor" stroke="none"><circle cx="577.997" cy="1743.58" opacity=".98" r="7.5"/><circle cx="555.997" cy="1743.58" opacity=".98" r="7.5"/><circle cx="533.997" cy="1743.58" opacity=".98" r="7.5"/><circle cx="511.997" cy="1743.58" opacity=".98" r="7.5"/><circle cx="577.997" cy="1765.58" opacity=".98" r="7.5"/><circle cx="555.997" cy="1765.58" opacity=".98" r="7.5"/><circle cx="533.997" cy="1765.58" opacity=".98" r="7.5"/><circle cx="511.997" cy="1765.58" opacity=".98" r="7.5"/><circle cx="577.924" cy="1787.528" opacity=".98" r="7.5"/><circle cx="555.924" cy="1787.528" opacity=".98" r="7.5"/><circle cx="533.924" cy="1787.528" opacity=".98" r="7.5"/><circle cx="511.924" cy="1787.528" opacity=".98" r="7.5"/><circle cx="577.924" cy="1809.528" opacity=".98" r="7.5"/><circle cx="555.924" cy="1809.528" opacity=".98" r="7.5"/><circle cx="533.924" cy="1809.528" opacity=".98" r="7.5"/><circle cx="511.924" cy="1809.528" opacity=".98" r="7.5"/></g><rect fill="none" height="227.145" opacity=".98" rx="9.689" stroke="currentColor" stroke-width="7.4" width="122.857" x="343.274" y="1612.947"/><g fill="currentColor" stroke="none"><circle cx="437.997" cy="1743.58" opacity=".98" r="7.5"/><circle cx="415.997" cy="1743.58" opacity=".98" r="7.5"/><circle cx="393.997" cy="1743.58" opacity=".98" r="7.5"/><circle cx="371.997" cy="1743.58" opacity=".98" r="7.5"/><circle cx="437.997" cy="1765.58" opacity=".98" r="7.5"/><circle cx="415.997" cy="1765.58" opacity=".98" r="7.5"/><circle cx="393.997" cy="1765.58" opacity=".98" r="7.5"/><circle cx="371.997" cy="1765.58" opacity=".98" r="7.5"/><circle cx="437.924" cy="1787.528" opacity=".98" r="7.5"/><circle cx="415.924" cy="1787.528" opacity=".98" r="7.5"/><circle cx="393.924" cy="1787.528" opacity=".98" r="7.5"/><circle cx="371.924" cy="1787.528" opacity=".98" r="7.5"/><circle cx="437.924" cy="1809.528" opacity=".98" r="7.5"/><circle cx="415.924" cy="1809.528" opacity=".98" r="7.5"/><circle cx="393.924" cy="1809.528" opacity=".98" r="7.5"/><circle cx="371.924" cy="1809.528" opacity=".98" r="7.5"/></g><path d="m323.85397 1876.2304v-287.3192c0-7.9633 6.4109-14.3742 14.3742-14.3742h694.92193c7.9633 0 14.3742 6.4109 14.3742 14.3742v286.2292" opacity=".98" stroke-width="3.7"/><g stroke-width=".952"><g transform="matrix(1.0501274 0 0 1.0504325 844.23027 -69.952548)"><path d="m1829.4117 1557.5607h-370.7003m0-87.2329h370.7003m0-87.233h-370.7003m0-87.2329h370.7003m-278.0252 348.9318v-436.1648m92.6751 0v436.1648m92.675 0v-436.1648m92.6751 436.1648v-436.1648h-370.7003v436.1648z" opacity=".98" stroke-width="3.523"/><g stroke-linecap="round" stroke-linejoin="round" stroke-width="7.046"><rect height="58.622" rx="23.126" ry="23.12" width="62.293" x="1565.854" y="1571.892"/><rect height="58.622" rx="23.126" ry="23.12" width="62.293" x="1473.125" y="1571.892"/><rect height="58.622" rx="23.126" ry="23.12" width="62.293" x="1565.854" y="1484.659"/><rect height="58.622" rx="23.126" ry="23.12" width="62.293" x="1473.125" y="1484.659"/><rect height="58.622" rx="23.126" ry="23.12" width="62.293" x="1751.259" y="1484.659"/><rect height="58.622" rx="23.126" ry="23.12" width="62.293" x="1658.529" y="1484.659"/><rect height="58.622" rx="23.126" ry="23.12" width="62.293" x="1565.909" y="1397.426"/><rect height="58.622" rx="23.126" ry="23.12" width="62.293" x="1473.179" y="1397.426"/><rect height="58.622" rx="23.126" ry="23.12" width="62.293" x="1751.313" y="1397.426"/><rect height="58.622" rx="23.126" ry="23.12" width="62.293" x="1658.584" y="1397.426"/><rect height="58.622" rx="23.126" ry="23.12" width="62.293" x="1565.909" y="1310.193"/><rect height="58.622" rx="23.126" ry="23.12" width="62.293" x="1473.179" y="1310.193"/><rect height="58.622" rx="23.126" ry="23.12" width="62.293" x="1751.313" y="1310.193"/><rect height="58.622" rx="23.126" ry="23.12" width="62.293" x="1658.584" y="1310.193"/><rect height="58.622" rx="23.126" ry="23.12" width="62.293" x="1565.909" y="1222.96"/><rect height="58.622" rx="23.126" ry="23.12" width="62.293" x="1473.179" y="1222.96"/><rect height="58.622" rx="23.126" ry="23.12" width="62.293" x="1751.313" y="1222.96"/><rect height="58.622" rx="23.126" ry="23.12" width="62.293" x="1658.584" y="1222.96"/><rect height="58.622" rx="23.126" ry="23.12" width="62.293" x="1751.259" y="1571.891"/><rect height="58.622" rx="23.126" ry="23.12" width="62.293" x="1658.529" y="1571.892"/></g></g><g transform="matrix(1.0501274 0 0 1.0504325 -128.97592 -69.952676)"><path d="m1810.0683 1571.8501c-.824 0-1.6283.073-2.4075.2138-.6815-.106-1.3839-.168-2.0984-.168h-37.1368c-7.0033 0-12.6391 5.2933-12.6391 11.8711v34.8648c0 6.5779 5.6358 11.8864 12.6391 11.8864h37.1368c.8177 0 1.6175-.076 2.3912-.2138.6864.1075 1.3948.168 2.1147.168h37.1367c.7311 0 1.4508-.057 2.1472-.168.7786.1398 1.5843.2138 2.4075.2138h37.1368c7.0034 0 12.6391-5.3085 12.6391-11.8864v-34.8648c0-6.5778-5.6358-11.8711-12.6391-11.8711h-37.1368c-.737 0-1.4617.056-2.1635.168-.7736-.1379-1.5735-.2138-2.3912-.2138z" stroke-linecap="round" stroke-linejoin="round" stroke-width="7.046"/><path d="m2199.3613 1644.7937v-436.1648m-92.6751 0v436.1648m-92.675 0v-436.1648m-92.6751 0v436.1648m-92.675-87.233v-348.9318m-92.6751 0v436.1718m-92.6751-.01v-436.1648m-92.675 0v436.1648m-92.6751-436.1648v436.1648m-92.6751 0v-436.1648m926.7507 348.9388-1019.4257-.01m0-87.2299h926.7506m92.6751-87.226-1019.4257-.01m0-87.2299h1019.4257m-1019.4257-87.233v436.1648h1019.4257v-436.1648z" opacity=".98" stroke-width="3.523"/><g stroke-linecap="round" stroke-linejoin="round" stroke-width="7.046"><rect height="58.622" rx="23.126" ry="23.12" width="62.293" x="2214.58" y="1571.892"/><rect height="58.622" rx="23.126" ry="23.12" width="62.293" x="2121.85" y="1571.892"/><rect height="58.622" rx="23.126" ry="23.12" width="62.293" x="2029.284" y="1571.891"/><rect height="58.622" rx="23.126" ry="23.12" width="62.293" x="1936.554" y="1571.892"/><rect height="58.622" rx="23.126" ry="23.12" width="62.293" x="1565.854" y="1571.892"/><rect height="58.622" rx="23.126" ry="23.12" width="62.293" x="1473.125" y="1571.892"/><rect height="58.622" rx="23.126" ry="23.12" width="62.293" x="1380.559" y="1571.891"/><rect height="58.622" rx="23.126" ry="23.12" width="62.293" x="1287.829" y="1571.892"/><rect height="58.622" rx="23.126" ry="23.12" width="62.293" x="2121.85" y="1484.659"/><rect height="58.622" rx="23.126" ry="23.12" width="62.293" x="2029.284" y="1484.659"/><rect height="58.622" rx="23.126" ry="23.12" width="62.293" x="1936.554" y="1484.659"/><rect height="58.622" rx="23.126" ry="23.12" width="62.293" x="1565.854" y="1484.659"/><rect height="58.622" rx="23.126" ry="23.12" width="62.293" x="1473.125" y="1484.659"/><rect height="58.622" rx="23.126" ry="23.12" width="62.293" x="1380.559" y="1484.659"/><rect height="58.622" rx="23.126" ry="23.12" width="62.293" x="1287.829" y="1484.659"/><rect height="58.622" rx="23.126" ry="23.12" width="62.293" x="1843.825" y="1484.659"/><rect height="58.622" rx="23.126" ry="23.12" width="62.293" x="1751.259" y="1484.659"/><rect height="58.622" rx="23.126" ry="23.12" width="62.293" x="1658.529" y="1484.659"/><rect height="58.622" rx="23.126" ry="23.12" width="62.293" x="2121.905" y="1397.426"/><rect height="58.622" rx="23.126" ry="23.12" width="62.293" x="2029.339" y="1397.426"/><rect height="58.622" rx="23.126" ry="23.12" width="62.293" x="1936.609" y="1397.426"/><rect height="58.622" rx="23.126" ry="23.12" width="62.293" x="1565.909" y="1397.426"/><rect height="58.622" rx="23.126" ry="23.12" width="62.293" x="1473.179" y="1397.426"/><rect height="58.622" rx="23.126" ry="23.12" width="62.293" x="1380.613" y="1397.426"/><rect height="58.622" rx="23.126" ry="23.12" width="62.293" x="1287.883" y="1397.426"/><rect height="58.622" rx="23.126" ry="23.12" width="62.293" x="1843.879" y="1397.426"/><rect height="58.622" rx="23.126" ry="23.12" width="62.293" x="1751.313" y="1397.426"/><rect height="58.622" rx="23.126" ry="23.12" width="62.293" x="1658.584" y="1397.426"/><rect height="58.622" rx="23.126" ry="23.12" width="62.293" x="2121.905" y="1310.193"/><rect height="58.622" rx="23.126" ry="23.12" width="62.293" x="2029.339" y="1310.193"/><rect height="58.622" rx="23.126" ry="23.12" width="62.293" x="1936.609" y="1310.193"/><rect height="58.622" rx="23.126" ry="23.12" width="62.293" x="1565.909" y="1310.193"/><rect height="58.622" rx="23.126" ry="23.12" width="62.293" x="1473.179" y="1310.193"/><rect height="58.622" rx="23.126" ry="23.12" width="62.293" x="1380.613" y="1310.193"/><rect height="58.622" rx="23.126" ry="23.12" width="62.293" x="1287.884" y="1310.193"/><rect height="58.622" rx="23.126" ry="23.12" width="62.293" x="1843.88" y="1310.193"/><rect height="58.622" rx="23.126" ry="23.12" width="62.293" x="1751.313" y="1310.193"/><rect height="58.622" rx="23.126" ry="23.12" width="62.293" x="1658.584" y="1310.193"/><rect height="58.622" rx="23.126" ry="23.12" width="62.293" x="2121.905" y="1222.96"/><rect height="58.622" rx="23.126" ry="23.12" width="62.293" x="2029.339" y="1222.96"/><rect height="58.622" rx="23.126" ry="23.12" width="62.293" x="1936.609" y="1222.96"/><rect height="58.622" rx="23.126" ry="23.12" width="62.293" x="1565.909" y="1222.96"/><rect height="58.622" rx="23.126" ry="23.12" width="62.293" x="1473.179" y="1222.96"/><rect height="58.622" rx="23.126" ry="23.12" width="62.293" x="1380.613" y="1222.96"/><rect height="58.622" rx="23.126" ry="23.12" width="62.293" x="1287.884" y="1222.96"/><rect height="58.622" rx="23.126" ry="23.12" width="62.293" x="1843.88" y="1222.96"/><rect height="58.622" rx="23.126" ry="23.12" width="62.293" x="1751.313" y="1222.96"/><rect height="58.622" rx="23.126" ry="23.12" width="62.293" x="1658.584" y="1222.96"/><rect height="58.622" rx="23.126" ry="23.12" width="62.293" x="2214.58" y="1310.193"/><rect height="58.622" rx="23.126" ry="23.12" width="62.293" x="2214.58" y="1222.96"/><path d="m2227.1941 1401.7943c-6.9897 0-12.6145 5.3044-12.6145 11.8959v34.9375c0 .7267.08 1.438.2111 2.1281-.1311.69-.2111 1.4014-.2111 2.1281v34.9375c0 .7266.08 1.438.2111 2.1281-.1311.69-.2111 1.4014-.2111 2.128v34.9375c0 6.5916 5.6248 11.9112 12.6145 11.9112h37.0638c6.9897 0 12.6145-5.3196 12.6145-11.9112v-34.9375c0-.7266-.08-1.438-.2111-2.128.1311-.6901.2111-1.4015.2111-2.1281v-34.9375c0-.7267-.08-1.4381-.2111-2.1281.1311-.6901.2111-1.4014.2111-2.1281v-34.9375c0-6.5915-5.6248-11.8959-12.6145-11.8959z"/><rect height="58.622" rx="23.126" ry="23.12" width="62.293" x="1658.529" y="1571.892"/></g></g></g></g></g></svg>