<?xml version="1.0" encoding="UTF-8" standalone="no"?><svg version="1.1" id="svg22" xmlns="http://www.w3.org/2000/svg" xmlns:svg="http://www.w3.org/2000/svg" viewBox="0 0 34 33"><path style="color:#000000;fill:#f4f4f4;fill-rule:evenodd;-inkscape-stroke:none" d="m 13.75,1.75 v 6.5 h 6.5 V 8 1.75 Z m 0.5,0.5 h 5.5 v 5.5 h -5.5 z" id="path4"/><path style="color:#000000;fill:#f4f4f4;fill-rule:evenodd;-inkscape-stroke:none" d="m 7.75,7.75 v 6.5 h 6.5 V 14 7.75 Z m 0.5,0.5 h 5.5 v 5.5 h -5.5 z" id="path6"/><path style="color:#000000;fill:#f4f4f4;fill-rule:evenodd;-inkscape-stroke:none" d="m 19.75,7.75 v 6.5 h 6.5 V 14 7.75 Z m 0.5,0.5 h 5.5 v 5.5 h -5.5 z" id="path10"/><path style="color:#000000;fill:#f4f4f4;fill-rule:evenodd;-inkscape-stroke:none" d="m 1.75,13.75 v 6.5 h 6.5 V 20 13.75 Z m 0.5,0.5 h 5.5 v 5.5 h -5.5 z" id="path12"/><path style="color:#000000;fill:#f4f4f4;fill-rule:evenodd;-inkscape-stroke:none" d="m 25.75,13.75 v 6.5 h 6.5 V 20 13.75 Z m 0.5,0.5 h 5.5 v 5.5 h -5.5 z" id="path14"/><path style="color:#000000;fill:#f4f4f4;fill-rule:evenodd;-inkscape-stroke:none" d="m 7.75,19.75 v 6.5 h 6.5 V 26 19.75 Z m 0.5,0.5 h 5.5 v 5.5 h -5.5 z" id="path16"/><path style="color:#000000;fill:#f4f4f4;fill-rule:evenodd;-inkscape-stroke:none" d="m 19.75,19.75 v 6.5 h 6.5 V 26 19.75 Z m 0.5,0.5 h 5.5 v 5.5 h -5.5 z" id="path18"/><path style="color:#000000;fill:#f4f4f4;fill-rule:evenodd;-inkscape-stroke:none" d="m 13.75,25.75 v 6.5 h 6.5 V 32 25.75 Z m 0.5,0.5 h 5.5 v 5.5 h -5.5 z" id="path20"/></svg>