<?xml version="1.0" encoding="UTF-8" standalone="no"?><svg viewBox="0 0 5.556 5.556" version="1.1" id="svg1612" xmlns="http://www.w3.org/2000/svg" xmlns:svg="http://www.w3.org/2000/svg"><g id="layer1" style="display:inline;fill:none;stroke:#ffffff;stroke-width:0.0740833;stroke-dasharray:none;stroke-opacity:1" transform="matrix(1.2568453,0,0,1.2568453,0.1045474,0.1185517)"><path id="rect1638" style="fill:none;fill-opacity:1;stroke:#ffffff;stroke-width:0.28;stroke-dasharray:none;stroke-opacity:1" d="M 1,0 V 1 H 0 v 14 h 1 v 1 h 5 v -1 h 1 v 1 h 5 v -1 h 1 v -1 h 1 v -4 h 1 V 9 h 1 V 4 H 14 V 1 H 13 V 0 Z" transform="scale(0.26458333)"/></g><g id="layer2" style="display:inline;fill:none;stroke:#ffffff;stroke-width:0.0740833;stroke-dasharray:none;stroke-opacity:1" transform="matrix(1.2568453,0,0,1.2568453,0.1045474,0.1185517)"><rect style="fill:none;fill-opacity:1;stroke:#ffffff;stroke-width:0.0740833;stroke-dasharray:none;stroke-opacity:1" id="rect3119" width=".794" height=".529" x=".529" y="3.44"/><rect style="fill:none;fill-opacity:1;stroke:#ffffff;stroke-width:0.0740833;stroke-dasharray:none;stroke-opacity:1" id="rect3119-0" width=".794" height=".529" x="2.117" y="3.44"/><path id="rect3267" style="fill:none;fill-opacity:1;stroke:#ffffff;stroke-width:0.28;stroke-dasharray:none;stroke-opacity:1" d="m 11,2 v 11 h 2 V 9 h 1 V 8 H 13 V 2 Z" transform="scale(0.26458333)"/><rect style="fill:none;fill-opacity:1;stroke:#ffffff;stroke-width:0.0740833;stroke-dasharray:none;stroke-opacity:1" id="rect3476" width=".265" height=".794" x="3.704" y="1.323"/><rect style="fill:none;fill-opacity:1;stroke:#ffffff;stroke-width:0.0740833;stroke-dasharray:none;stroke-opacity:1" id="rect3581" width=".265" height=".794" x="1.058" y="1.323"/><rect style="fill:none;fill-opacity:1;stroke:#ffffff;stroke-width:0.0740833;stroke-dasharray:none;stroke-opacity:1" id="rect3581-7" width=".265" height=".794" x="2.117" y="1.323"/></g><g id="layer3" style="display:inline;fill:none;stroke:#ffffff;stroke-width:0.0740833;stroke-dasharray:none;stroke-opacity:1" transform="matrix(1.2568453,0,0,1.2568453,0.1045474,0.1185517)"><rect style="fill:none;fill-opacity:1;stroke:#ffffff;stroke-width:0.0740833;stroke-dasharray:none;stroke-opacity:1" id="rect3707" width="2.91" height=".529" x=".265" y="3.175"/><rect style="fill:none;fill-opacity:1;stroke:#ffffff;stroke-width:0.0740833;stroke-dasharray:none;stroke-opacity:1" id="rect3707-4" width="2.646" height=".794" x=".529" y=".265"/></g><g id="layer4" style="fill:none;stroke:#ffffff;stroke-width:0.0740833;stroke-dasharray:none;stroke-opacity:1" transform="matrix(1.2568453,0,0,1.2568453,0.1045474,0.1185517)"><path id="rect3936" style="fill:none;fill-opacity:1;stroke:#ffffff;stroke-width:0.28;stroke-dasharray:none;stroke-opacity:1" d="m 1,2 v 1 7 3 H 12 V 9 3 2 H 11 2 Z m 1,1 h 9 V 9 H 2 Z" transform="scale(0.26458333)"/><g id="g5700" style="fill:none;stroke:#ffffff;stroke-width:0.0740833;stroke-dasharray:none;stroke-opacity:1"><rect style="fill:none;fill-opacity:1;stroke:#ffffff;stroke-width:0.0740833;stroke-dasharray:none;stroke-opacity:1" id="rect4245" width=".794" height=".265" x="1.323" y="2.91"/><rect style="fill:none;fill-opacity:1;stroke:#ffffff;stroke-width:0.0740833;stroke-dasharray:none;stroke-opacity:1" id="rect4245-6" width=".265" height=".265" x="1.058" y="2.646"/><rect style="fill:none;fill-opacity:1;stroke:#ffffff;stroke-width:0.0740833;stroke-dasharray:none;stroke-opacity:1" id="rect4245-6-1" width=".265" height=".265" x="2.117" y="2.646"/></g></g></svg>