<?xml version="1.0" encoding="UTF-8" standalone="no"?><svg viewBox="0 0 472.811 238.126" version="1.1" id="svg5" xml:space="preserve" xmlns="http://www.w3.org/2000/svg" xmlns:svg="http://www.w3.org/2000/svg"><g id="layer1"><path id="rect9615-3" style="fill:none;stroke:#ffffff;stroke-width:2.69999;stroke-linecap:round;stroke-linejoin:round;stroke-opacity:1;paint-order:fill markers stroke" d="m 283.51213,95.464065 -24.10712,1.70746 1.34044,10.294525 24.08262,-1.92569 c 1.98723,-0.1589 2.91618,-3.54942 2.61205,-5.963045 -0.29591,-2.34839 -2.15393,-4.2389 -3.92799,-4.11325 z"/><ellipse style="fill:none;stroke:#ffffff;stroke-width:2.7;stroke-linecap:round;stroke-linejoin:round;stroke-dasharray:none;stroke-opacity:1;paint-order:fill markers stroke" id="path9556-4" cx="256.565" cy="138.813" rx="9.761" ry="9.346"/><ellipse style="fill:none;stroke:#ffffff;stroke-width:2.7;stroke-linecap:round;stroke-linejoin:round;stroke-dasharray:none;stroke-opacity:1;paint-order:fill markers stroke" id="path9556-3" cx="232.473" cy="140.059" rx="9.761" ry="9.346"/><path style="fill:none;stroke:#ffffff;stroke-width:3.81701;stroke-linecap:round;stroke-linejoin:round;stroke-opacity:1;paint-order:fill markers stroke" d="m 400.23914,9.008927 -5.19215,13.914959 c 0,0 42.20665,3.720247 50.88308,75.805399 7.08087,58.829055 -26.7915,73.313175 -26.7915,73.313175 l 9.76125,24.29926" id="path9520-6"/><path id="rect8957" style="fill:none;stroke:#ffffff;stroke-width:3.81701;stroke-linecap:round;stroke-linejoin:round;stroke-opacity:1;paint-order:fill markers stroke" d="M 66.499175,27.697522 C 110.39907,18.797567 175.06585,36.191807 228.03025,35.589591 280.17414,34.996705 332.07157,1.301212 381.25388,4.021316 c 19.638,1.08611 42.62285,5.901041 56.84817,22.057088 12.67837,14.399126 23.88758,35.794782 27.26467,60.713291 5.18492,38.257925 1.98893,64.329855 -8.92572,84.277175 -10.91465,19.94732 -33.98053,34.11244 -51.92629,36.29207 C 365.32338,212.12098 265.08139,192.63178 249.83728,192.40755 228.25575,192.0901 143.61776,234.51406 88.513894,232.69863 79.671164,232.40731 18.237386,234.30468 6.0625436,137.88246 -5.2867614,47.998317 55.431582,29.941288 66.499175,27.697522 Z"/><ellipse style="fill:none;stroke:#ffffff;stroke-width:3.81701;stroke-linecap:round;stroke-linejoin:round;stroke-opacity:1;paint-order:fill markers stroke" id="path9375" cx="111.6" cy="118.252" rx="64.383" ry="62.513"/><ellipse style="fill:none;stroke:#ffffff;stroke-width:3.81701;stroke-linecap:round;stroke-linejoin:round;stroke-opacity:1;paint-order:fill markers stroke" id="path9375-0" cx="369.546" cy="97.275" rx="64.383" ry="62.513"/><ellipse style="fill:none;stroke:#ffffff;stroke-width:3.10712;stroke-linecap:round;stroke-linejoin:round;stroke-opacity:1;paint-order:fill markers stroke" id="path9375-4" cx="241.743" cy="105.232" rx="52.409" ry="50.887"/><ellipse style="fill:none;stroke:#ffffff;stroke-width:3.81701;stroke-linecap:round;stroke-linejoin:round;stroke-opacity:1;paint-order:fill markers stroke" id="path9412" cx="109.938" cy="118.252" rx="33.645" ry="31.361"/><path style="fill:none;stroke:#ffffff;stroke-width:3.81701;stroke-linecap:round;stroke-linejoin:round;stroke-opacity:1;paint-order:fill markers stroke" d="m 50.955389,34.969679 9.761243,14.745703 c 0,0 -33.148286,9.388254 -27.206869,77.051518 5.464473,62.23163 45.483241,75.8054 45.483241,75.8054 l -8.515131,27.20687" id="path9520"/><ellipse style="fill:none;stroke:#ffffff;stroke-width:2.7;stroke-linecap:round;stroke-linejoin:round;stroke-dasharray:none;stroke-opacity:1;paint-order:fill markers stroke" id="path9556" cx="211.497" cy="126.559" rx="9.761" ry="9.346"/><ellipse style="fill:none;stroke:#ffffff;stroke-width:2.7;stroke-linecap:round;stroke-linejoin:round;stroke-dasharray:none;stroke-opacity:1;paint-order:fill markers stroke" id="path9556-5" cx="275.464" cy="122.198" rx="9.761" ry="9.346"/><path id="rect9615" style="fill:none;stroke:#ffffff;stroke-width:2.69999;stroke-linecap:round;stroke-linejoin:round;stroke-opacity:1;paint-order:fill markers stroke" d="m 197.04684,101.94321 25.11525,-2.00344 1.10142,10.11579 -25.11741,1.85658 c -1.98816,0.14695 -3.2743,-2.48231 -3.41333,-4.91105 -0.13527,-2.36309 0.54502,-4.87486 2.31407,-5.05788 z"/><path id="rect9615-1" style="fill:none;stroke:#ffffff;stroke-width:2.7;stroke-linecap:round;stroke-linejoin:round;stroke-dasharray:none;stroke-opacity:1;paint-order:fill markers stroke" d="m 225.28979,99.562885 30.98075,-1.95905 1.35865,9.891675 -31.35057,2.25602 c -0.24048,-3.00958 -0.98883,-10.188645 -0.98883,-10.188645 z"/></g></svg>