<?xml version="1.0" encoding="UTF-8" standalone="no"?><svg version="1.1" id="svg2" viewBox="0 0 1464 690" xmlns="http://www.w3.org/2000/svg" xmlns:svg="http://www.w3.org/2000/svg"><g id="g8"><path style="fill:none;stroke:#fffeff;stroke-width:4.2;stroke-linecap:round;stroke-linejoin:round;stroke-dasharray:none;stroke-opacity:1;paint-order:fill markers stroke" d="m 418.42105,451.53514 c 0.29241,24.41621 0.58481,48.83141 0.87719,73.2456" id="path2323-67-6"/><path style="fill:none;stroke:#fffeff;stroke-width:4.2;stroke-linecap:round;stroke-linejoin:round;stroke-dasharray:none;stroke-opacity:1;paint-order:fill markers stroke" d="m 245.17544,451.09654 c 0.29241,24.41621 0.58481,48.83141 0.87719,73.2456" id="path2323-67-38"/><path style="fill:none;stroke:#fffeff;stroke-width:4.2;stroke-linecap:round;stroke-linejoin:round;stroke-dasharray:none;stroke-opacity:1;paint-order:fill markers stroke" d="m 345.17544,451.97374 c 0.29241,24.41621 0.58481,48.83141 0.87719,73.2456" id="path2323-67-37"/><path style="fill:none;stroke:#fffeff;stroke-width:4.2;stroke-linecap:round;stroke-linejoin:round;stroke-dasharray:none;stroke-opacity:1;paint-order:fill markers stroke" d="m 371.89006,529.56554 c 0.31892,21.66492 0.63783,43.32882 0.95673,64.9918" id="path2323-67-41"/><path style="fill:none;stroke:#fffeff;stroke-width:4.2;stroke-linecap:round;stroke-linejoin:round;stroke-dasharray:none;stroke-opacity:1;paint-order:fill markers stroke" d="m 296.90766,527.39014 c 0.30719,22.82271 0.61437,45.64451 0.92153,68.4654" id="path2323-67-060"/><path style="fill:none;stroke:#fffeff;stroke-width:4.2;stroke-linecap:round;stroke-linejoin:round;stroke-dasharray:none;stroke-opacity:1;paint-order:fill markers stroke" d="m 225.40559,528.25644 c 0.31442,22.09892 0.62882,44.19692 0.94321,66.2941" id="path2323-67-059"/><path style="fill:none;stroke:#fffeff;stroke-width:4.2;stroke-linecap:round;stroke-linejoin:round;stroke-dasharray:none;stroke-opacity:1;paint-order:fill markers stroke" d="m 149.96921,529.57454 c 0.31294,22.24361 0.62587,44.48642 0.93879,66.7283" id="path2323-67-8"/><path style="fill:none;stroke:#fffeff;stroke-width:4.2;stroke-linecap:round;stroke-linejoin:round;stroke-dasharray:none;stroke-opacity:1;paint-order:fill markers stroke" d="m 447.33981,528.69944 c 0.31148,22.38841 0.62295,44.77591 0.93441,67.1625" id="path2323-67-18"/><path id="rect291" style="fill:none;stroke:#fffeff;stroke-width:4.2;stroke-linecap:round;stroke-linejoin:round;stroke-opacity:1;paint-order:fill markers stroke;stroke-dasharray:none" d="m 23.232703,61.175509 c 0.251383,-17.35322 17.742932,-38.39831 35.097877,-38.45669 191.08182,-0.64271 622.49273,10e-6 622.49273,10e-6 l 655.36699,0.62027 100.8464,7.44323 2.4811,629.061411 -98.3654,7.2881 -610.70758,-0.1551 c 0,0 -425.59955,-0.757 -680.177744,-5.1171 -24.177024,-0.4141 -29.10038,-13.205 -28.89518,-26.2064 2.726061,-172.7224 -0.919731,-382.53407 1.860807,-574.477731 z"/><path id="rect1308" style="fill:none;stroke:#fffeff;stroke-width:4.2;stroke-linecap:round;stroke-linejoin:round;stroke-opacity:1;paint-order:fill markers stroke;stroke-dasharray:none" d="m 243.80228,245.23849 c 14.65139,-0.63176 24.82766,-0.096 37.21615,0 10.06971,0.078 10.98838,31.38225 0.62027,39.69715 -11.94912,9.5828 -23.32864,9.5408 -37.21615,-0.6203 -10.01726,-7.3292 -13.35711,-38.52764 -0.62027,-39.07685 z"/><path id="rect1308-9" style="fill:none;stroke:#fffeff;stroke-width:4.2;stroke-linecap:round;stroke-linejoin:round;stroke-opacity:1;paint-order:fill markers stroke;stroke-dasharray:none" d="m 316.52524,245.56412 c 14.65139,-0.63176 24.82767,-0.096 37.21615,0 10.06971,0.078 10.98838,31.38222 0.62027,39.69712 -11.94912,9.5828 -23.32863,9.5408 -37.21615,-0.6203 -10.01725,-7.3292 -13.3571,-38.52761 -0.62027,-39.07682 z"/><path id="rect1308-5" style="fill:none;stroke:#fffeff;stroke-width:4.2;stroke-linecap:round;stroke-linejoin:round;stroke-opacity:1;paint-order:fill markers stroke;stroke-dasharray:none" d="m 96.329708,244.94386 c 14.651392,-0.63176 24.827662,-0.096 37.216152,0 10.06971,0.078 10.98838,31.38218 0.62027,39.69708 -11.94912,9.5828 -23.32864,9.5408 -37.216152,-0.6203 -10.01726,-7.3292 -13.35711,-38.52757 -0.62027,-39.07678 z"/><path id="rect1308-7" style="fill:none;stroke:#fffeff;stroke-width:4.2;stroke-linecap:round;stroke-linejoin:round;stroke-opacity:1;paint-order:fill markers stroke;stroke-dasharray:none" d="m 170.14173,244.32359 c 14.65139,-0.63176 24.82766,-0.096 37.21615,0 10.06971,0.078 10.98838,31.38225 0.62027,39.69715 -11.94912,9.5828 -23.32864,9.5408 -37.21615,-0.6203 -10.01726,-7.3292 -13.35711,-38.52764 -0.62027,-39.07685 z"/><path id="rect1308-2" style="fill:none;stroke:#fffeff;stroke-width:4.2;stroke-linecap:round;stroke-linejoin:round;stroke-opacity:1;paint-order:fill markers stroke;stroke-dasharray:none" d="m 390.95754,244.32359 c 14.65139,-0.63176 24.82766,-0.096 37.21615,0 10.06971,0.078 10.98838,31.38225 0.62027,39.69715 -11.94912,9.5828 -23.32864,9.5408 -37.21615,-0.6203 -10.01726,-7.3292 -13.35711,-38.52764 -0.62027,-39.07685 z"/><path id="rect1308-8" style="fill:none;stroke:#fffeff;stroke-width:4.2;stroke-linecap:round;stroke-linejoin:round;stroke-opacity:1;paint-order:fill markers stroke;stroke-dasharray:none" d="m 464.1493,245.56412 c 14.65139,-0.63176 24.82766,-0.096 37.21615,0 10.06971,0.078 10.98838,31.38222 0.62027,39.69712 -11.94912,9.5828 -23.32864,9.5408 -37.21615,-0.6203 -10.01726,-7.3292 -13.35711,-38.52761 -0.62027,-39.07682 z"/><path id="rect1308-0" style="fill:none;stroke:#fffeff;stroke-width:4.2;stroke-linecap:round;stroke-linejoin:round;stroke-opacity:1;paint-order:fill markers stroke;stroke-dasharray:none" d="m 539.20186,244.94385 c 14.65139,-0.63176 24.82766,-0.096 37.21615,0 10.06971,0.078 10.98838,31.38229 0.62027,39.69719 -11.94912,9.5828 -23.32864,9.5408 -37.21615,-0.6203 -10.01726,-7.3292 -13.35711,-38.52768 -0.62027,-39.07689 z"/><path id="rect1308-3" style="fill:none;stroke:#fffeff;stroke-width:4.2;stroke-linecap:round;stroke-linejoin:round;stroke-opacity:1;paint-order:fill markers stroke;stroke-dasharray:none" d="m 611.77334,244.94386 c 14.65139,-0.63176 24.82766,-0.096 37.21615,0 10.06971,0.078 10.98838,31.38228 0.62027,39.69708 -11.94912,9.5828 -23.32864,9.5408 -37.21615,-0.6203 -10.01726,-7.3291 -13.35711,-38.52757 -0.62027,-39.07678 z"/><path id="rect1308-79" style="fill:none;stroke:#fffeff;stroke-width:4.2;stroke-linecap:round;stroke-linejoin:round;stroke-opacity:1;paint-order:fill markers stroke;stroke-dasharray:none" d="m 686.82591,244.94385 c 14.65139,-0.63176 24.82766,-0.096 37.21615,0 10.06971,0.078 10.98838,31.38229 0.62027,39.69719 -11.94912,9.5828 -23.32864,9.5408 -37.21615,-0.6203 -10.01726,-7.3292 -13.35711,-38.52768 -0.62027,-39.07689 z"/><path id="rect1308-29" style="fill:none;stroke:#fffeff;stroke-width:4.2;stroke-linecap:round;stroke-linejoin:round;stroke-opacity:1;paint-order:fill markers stroke;stroke-dasharray:none" d="m 761.25819,245.56413 c 14.65139,-0.63176 24.82766,-0.096 37.21615,0 10.06971,0.078 10.98838,31.38221 0.62027,39.69711 -11.94912,9.5828 -23.32864,9.5408 -37.21615,-0.6203 -10.01726,-7.3292 -13.35711,-38.5276 -0.62027,-39.07681 z"/><path id="rect1308-4" style="fill:none;stroke:#fffeff;stroke-width:4.2;stroke-linecap:round;stroke-linejoin:round;stroke-opacity:1;paint-order:fill markers stroke;stroke-dasharray:none" d="m 835.69049,244.32358 c 14.65139,-0.63176 24.82766,-0.096 37.21615,0 10.06971,0.078 10.98838,31.38226 0.62027,39.69716 -11.94912,9.5828 -23.32864,9.5408 -37.21615,-0.6203 -10.01726,-7.3292 -13.35711,-38.52765 -0.62027,-39.07686 z"/><path id="rect1308-90" style="fill:none;stroke:#fffeff;stroke-width:4.2;stroke-linecap:round;stroke-linejoin:round;stroke-opacity:1;paint-order:fill markers stroke;stroke-dasharray:none" d="m 872.90664,321.23694 c 14.65139,-0.6318 24.82766,-0.096 37.21615,0 10.06971,0.078 10.98838,31.3822 0.62027,39.6971 -11.94912,9.5828 -23.32864,9.5408 -37.21615,-0.6203 -10.01726,-7.3292 -13.35711,-38.5276 -0.62027,-39.0768 z"/><path id="rect1308-82" style="fill:none;stroke:#fffeff;stroke-width:4.2;stroke-linecap:round;stroke-linejoin:round;stroke-opacity:1;paint-order:fill markers stroke;stroke-dasharray:none" d="m 799.71488,321.23704 c 14.65139,-0.6318 24.82766,-0.096 37.21615,0 10.06971,0.078 10.98838,31.3822 0.62027,39.6971 -11.94912,9.5828 -23.32864,9.5408 -37.21615,-0.6203 -10.01726,-7.3292 -13.35711,-38.5276 -0.62027,-39.0768 z"/><path id="rect1308-24" style="fill:none;stroke:#fffeff;stroke-width:4.2;stroke-linecap:round;stroke-linejoin:round;stroke-opacity:1;paint-order:fill markers stroke;stroke-dasharray:none" d="m 725.28258,321.23694 c 14.65139,-0.6318 24.82766,-0.096 37.21615,0 10.06971,0.078 10.98838,31.3822 0.62027,39.6971 -11.94912,9.5828 -23.32864,9.5408 -37.21615,-0.6203 -10.01726,-7.3292 -13.35711,-38.5276 -0.62027,-39.0768 z"/><path id="rect1308-34" style="fill:none;stroke:#fffeff;stroke-width:4.2;stroke-linecap:round;stroke-linejoin:round;stroke-opacity:1;paint-order:fill markers stroke;stroke-dasharray:none" d="m 650.8503,321.23694 c 14.65139,-0.6318 24.82766,-0.096 37.21615,0 10.06971,0.078 10.98838,31.3822 0.62027,39.6971 -11.94912,9.5828 -23.32864,9.5408 -37.21615,-0.6203 -10.01726,-7.3292 -13.35711,-38.5276 -0.62027,-39.0768 z"/><path id="rect1308-99" style="fill:none;stroke:#fffeff;stroke-width:4.2;stroke-linecap:round;stroke-linejoin:round;stroke-opacity:1;paint-order:fill markers stroke;stroke-dasharray:none" d="m 575.79773,321.85724 c 14.65139,-0.6318 24.82766,-0.096 37.21615,0 10.06971,0.078 10.98838,31.3822 0.62027,39.6971 -11.94912,9.5828 -23.32864,9.5408 -37.21615,-0.6203 -10.01726,-7.3292 -13.35711,-38.5276 -0.62027,-39.0768 z"/><path id="rect1308-76" style="fill:none;stroke:#fffeff;stroke-width:4.2;stroke-linecap:round;stroke-linejoin:round;stroke-opacity:1;paint-order:fill markers stroke;stroke-dasharray:none" d="m 501.36544,321.85724 c 14.65139,-0.6318 24.82766,-0.096 37.21615,0 10.06971,0.078 10.98838,31.3822 0.62027,39.6971 -11.94912,9.5828 -23.32864,9.5408 -37.21615,-0.6203 -10.01726,-7.3292 -13.35711,-38.5276 -0.62027,-39.0768 z"/><path id="rect1308-49" style="fill:none;stroke:#fffeff;stroke-width:4.2;stroke-linecap:round;stroke-linejoin:round;stroke-opacity:1;paint-order:fill markers stroke;stroke-dasharray:none" d="m 426.93315,321.23694 c 14.65139,-0.6317 24.82766,-0.096 37.21615,0 10.06971,0.078 10.98838,31.3823 0.62027,39.6972 -11.94912,9.5828 -23.32864,9.5408 -37.21615,-0.6203 -10.01726,-7.3292 -13.35711,-38.5277 -0.62027,-39.0769 z"/><path id="rect1308-51" style="fill:none;stroke:#fffeff;stroke-width:4.2;stroke-linecap:round;stroke-linejoin:round;stroke-opacity:1;paint-order:fill markers stroke;stroke-dasharray:none" d="m 354.36166,321.23694 c 14.65139,-0.6317 24.82766,-0.096 37.21615,0 10.06971,0.078 10.98838,31.3823 0.62027,39.6972 -11.94912,9.5828 -23.32864,9.5408 -37.21615,-0.6203 -10.01726,-7.3292 -13.35711,-38.5277 -0.62027,-39.0769 z"/><path id="rect1308-28" style="fill:none;stroke:#fffeff;stroke-width:4.2;stroke-linecap:round;stroke-linejoin:round;stroke-opacity:1;paint-order:fill markers stroke;stroke-dasharray:none" d="m 282.41044,321.23704 c 14.65139,-0.6318 24.82766,-0.096 37.21615,0 10.06971,0.078 10.98838,31.3822 0.62027,39.6971 -11.94912,9.5828 -23.32864,9.5408 -37.21615,-0.6203 -10.01726,-7.3292 -13.35711,-38.5276 -0.62027,-39.0768 z"/><path id="rect1308-39" style="fill:none;stroke:#fffeff;stroke-width:4.2;stroke-linecap:round;stroke-linejoin:round;stroke-opacity:1;paint-order:fill markers stroke;stroke-dasharray:none" d="m 186.26873,321.85724 c 14.65139,-0.6318 47.15735,-0.096 59.54584,0 10.06971,0.078 7.26676,32.6227 -3.10135,40.9376 -11.94912,9.5828 -41.93671,8.3003 -55.82422,-1.8608 -10.01726,-7.3292 -13.35711,-38.5276 -0.62027,-39.0768 z"/><path id="rect1308-519" style="fill:none;stroke:#fffeff;stroke-width:4.2;stroke-linecap:round;stroke-linejoin:round;stroke-opacity:1;paint-order:fill markers stroke;stroke-dasharray:none" d="m 93.848638,322.47754 c 14.651392,-0.6318 49.018162,-0.096 61.406652,0 10.06971,0.078 6.64649,30.7619 -3.72162,39.0768 -11.94912,9.5828 -43.17725,10.1611 -57.064762,0 -10.01726,-7.3292 -13.35711,-38.5276 -0.62027,-39.0768 z"/><path id="rect1308-6" style="fill:none;stroke:#fffeff;stroke-width:4.2;stroke-linecap:round;stroke-linejoin:round;stroke-opacity:1;paint-order:fill markers stroke;stroke-dasharray:none" d="m 95.709448,399.39084 c 14.651392,-0.6318 62.664082,0.5243 75.052572,0.6203 10.06971,0.078 7.88703,32.6227 -2.48108,40.9376 -11.94912,9.5828 -58.06371,7.68 -71.951222,-2.4811 -10.01726,-7.3292 -13.35711,-38.5276 -0.62027,-39.0768 z"/><path id="rect1308-97" style="fill:none;stroke:#fffeff;stroke-width:4.2;stroke-linecap:round;stroke-linejoin:round;stroke-opacity:1;paint-order:fill markers stroke;stroke-dasharray:none" d="m 201.77546,397.53014 c 14.65139,-0.6318 53.98031,0.5243 66.3688,0.6203 10.06971,0.078 8.5073,30.7619 -1.86081,39.0768 -11.94912,9.5828 -50.00021,9.5408 -63.88772,-0.6203 -10.01726,-7.3292 -13.35711,-38.5276 -0.62027,-39.0768 z"/><path id="rect1308-23" style="fill:none;stroke:#fffeff;stroke-width:4.2;stroke-linecap:round;stroke-linejoin:round;stroke-opacity:1;paint-order:fill markers stroke;stroke-dasharray:none" d="m 910.74305,243.70332 c 14.65139,-0.63176 24.82766,-0.096 37.21615,0 10.06971,0.078 10.98838,31.38222 0.62027,39.69712 -11.94912,9.5828 -23.32864,9.5408 -37.21615,-0.6203 -10.01726,-7.3292 -13.35711,-38.52761 -0.62027,-39.07682 z"/><path id="rect1308-91" style="fill:none;stroke:#fffeff;stroke-width:4.2;stroke-linecap:round;stroke-linejoin:round;stroke-opacity:1;paint-order:fill markers stroke;stroke-dasharray:none" d="m 947.9592,320.61674 c 14.65139,-0.6318 24.82766,-0.096 37.21607,0 10.0697,0.078 10.9884,31.3822 0.6203,39.6971 -11.94907,9.5828 -23.32859,9.5408 -37.2161,-0.6203 -10.01726,-7.3292 -13.35711,-38.5276 -0.62027,-39.0768 z"/><path id="rect1308-55" style="fill:none;stroke:#fffeff;stroke-width:4.2;stroke-linecap:round;stroke-linejoin:round;stroke-opacity:1;paint-order:fill markers stroke;stroke-dasharray:none" d="m 979.59297,243.08305 c 14.6514,-0.63176 71.34793,0.52427 83.73643,0.62027 10.0697,0.078 9.7477,32.00252 -0.6204,40.31742 -11.9491,9.5828 -68.60823,8.3003 -82.49573,-1.8608 -10.01735,-7.3292 -13.35715,-38.52768 -0.6203,-39.07689 z"/><path id="rect1308-63" style="fill:none;stroke:#fffeff;stroke-width:4.2;stroke-linecap:round;stroke-linejoin:round;stroke-opacity:1;paint-order:fill markers stroke;stroke-dasharray:none" d="m 951.93777,466.80564 c 14.6514,-0.6317 97.39923,0.5243 109.78763,0.6203 10.0697,0.078 10.9884,31.3823 0.6203,39.6972 -11.9491,9.5828 -95.27986,10.1611 -109.16736,0 -10.0173,-7.3292 -13.97747,-39.7683 -1.24057,-40.3175 z"/><path id="rect1308-63-8" style="fill:none;stroke:#fffeff;stroke-width:4.2;stroke-linecap:round;stroke-linejoin:round;stroke-opacity:1;paint-order:fill markers stroke;stroke-dasharray:none" d="m 969.24942,391.58564 c 1.74262,0.082 36.13948,0.4407 46.04418,-0.4873 2.3065,-21.0867 0.2796,-67.8056 0.9709,-84.0346 7.9794,-0.2571 44.8836,0.5129 53.7211,0.2817 -0.1564,21.7883 1.4561,88.6295 1.4669,91.967 0.064,19.6812 -2.5549,40.659 -21.7884,41.2341 -15.3102,0.4579 -49.87753,0.6221 -69.08643,-0.3101 -18.69083,-0.907 -24.06286,-49.2508 -11.32825,-48.6508 z"/><path id="rect1308-285" style="fill:none;stroke:#fffeff;stroke-width:4.2;stroke-linecap:round;stroke-linejoin:round;stroke-opacity:1;paint-order:fill markers stroke;stroke-dasharray:none" d="m 1023.1935,544.67144 c 14.6513,-0.6318 24.8276,-0.096 37.2161,0 10.0697,0.078 10.9884,31.3822 0.6203,39.6971 -11.9491,9.5828 -23.3287,9.5408 -37.2162,-0.6203 -10.0172,-7.3292 -13.3571,-38.5276 -0.6202,-39.0768 z"/><path id="rect1308-05" style="fill:none;stroke:#fffeff;stroke-width:4.2;stroke-linecap:round;stroke-linejoin:round;stroke-opacity:1;paint-order:fill markers stroke;stroke-dasharray:none" d="m 90.127028,473.20284 c 14.651392,-0.6317 126.551792,-0.096 138.940282,0 10.06971,0.078 9.12758,32.6228 -1.24053,40.9377 -11.94912,9.5828 -123.19197,8.3003 -137.079482,-1.8608 -10.01726,-7.3292 -13.357114,-38.5277 -0.62027,-39.0769 z"/><path id="rect1308-89" style="fill:none;stroke:#fffeff;stroke-width:4.2;stroke-linecap:round;stroke-linejoin:round;stroke-opacity:1;paint-order:fill markers stroke;stroke-dasharray:none" d="m 261.3213,468.86104 c 14.65139,-0.6317 55.22084,-0.7163 67.60933,-0.6203 10.06971,0.078 12.22892,33.2431 1.86081,41.558 -11.94912,9.5828 -53.10156,12.0219 -66.98907,1.8608 -10.01726,-7.3292 -15.21791,-42.2493 -2.48107,-42.7985 z"/><path id="rect1308-799" style="fill:none;stroke:#fffeff;stroke-width:4.2;stroke-linecap:round;stroke-linejoin:round;stroke-opacity:1;paint-order:fill markers stroke;stroke-dasharray:none" d="m 362.59392,471.16044 c 14.65139,-0.6318 24.82766,-0.096 37.21615,0 10.06971,0.078 10.98838,31.3822 0.62027,39.6971 -11.94912,9.5828 -23.32864,9.5408 -37.21615,-0.6203 -10.01726,-7.3292 -13.35711,-38.5276 -0.62027,-39.0768 z"/><path id="rect1308-40" style="fill:none;stroke:#fffeff;stroke-width:4.2;stroke-linecap:round;stroke-linejoin:round;stroke-opacity:1;paint-order:fill markers stroke;stroke-dasharray:none" d="m 436.90153,473.97364 c 14.65139,-0.6317 24.82766,-0.096 37.21615,0 10.06971,0.078 10.98838,31.3823 0.62027,39.6972 -11.94912,9.5828 -23.32864,9.5408 -37.21615,-0.6203 -10.01726,-7.3292 -13.35711,-38.5277 -0.62027,-39.0769 z"/><path id="rect1308-587" style="fill:none;stroke:#fffeff;stroke-width:4.2;stroke-linecap:round;stroke-linejoin:round;stroke-opacity:1;paint-order:fill markers stroke;stroke-dasharray:none" d="m 96.148048,543.27194 c 14.651392,-0.6318 24.827662,-0.096 37.216152,0 10.06971,0.078 10.98838,31.3822 0.62027,39.6971 -11.94912,9.5828 -23.32864,9.5408 -37.216152,-0.6203 -10.01726,-7.3292 -13.35711,-38.5276 -0.62027,-39.0768 z"/><path id="rect1308-56" style="fill:none;stroke:#fffeff;stroke-width:4.2;stroke-linecap:round;stroke-linejoin:round;stroke-opacity:1;paint-order:fill markers stroke;stroke-dasharray:none" d="m 169.96007,543.89214 c 14.65139,-0.6318 24.82766,-0.096 37.21615,0 10.06971,0.078 10.98838,31.3822 0.62027,39.6971 -11.94912,9.5828 -23.32864,9.5408 -37.21615,-0.6203 -10.01726,-7.3292 -13.35711,-38.5276 -0.62027,-39.0768 z"/><path id="rect1308-529" style="fill:none;stroke:#fffeff;stroke-width:4.2;stroke-linecap:round;stroke-linejoin:round;stroke-opacity:1;paint-order:fill markers stroke;stroke-dasharray:none" d="m 243.3335,543.63514 c 14.65139,-0.6318 24.82766,-0.096 37.21615,0 10.06971,0.078 10.98838,31.3822 0.62027,39.6971 -11.94912,9.5828 -23.32864,9.5408 -37.21615,-0.6203 -10.01726,-7.3292 -13.35711,-38.5276 -0.62027,-39.0768 z"/><path id="rect1308-81" style="fill:none;stroke:#fffeff;stroke-width:4.2;stroke-linecap:round;stroke-linejoin:round;stroke-opacity:1;paint-order:fill markers stroke;stroke-dasharray:none" d="m 316.88859,542.95094 c 14.65139,-0.6318 24.82766,-0.096 37.21615,0 10.06971,0.078 10.98838,31.3822 0.62027,39.6971 -11.94912,9.5828 -23.32864,9.5408 -37.21615,-0.6203 -10.01726,-7.3292 -13.35711,-38.5276 -0.62027,-39.0768 z"/><path id="rect1308-990" style="fill:none;stroke:#fffeff;stroke-width:4.2;stroke-linecap:round;stroke-linejoin:round;stroke-opacity:1;paint-order:fill markers stroke;stroke-dasharray:none" d="m 391.57781,543.43094 c 14.65139,-0.6318 24.82766,-0.096 37.21615,0 10.06971,0.078 10.98838,31.3822 0.62027,39.6971 -11.94912,9.5828 -23.32864,9.5408 -37.21615,-0.6203 -10.01726,-7.3292 -13.35711,-38.5276 -0.62027,-39.0768 z"/><path id="rect1308-971" style="fill:none;stroke:#fffeff;stroke-width:4.2;stroke-linecap:round;stroke-linejoin:round;stroke-opacity:1;paint-order:fill markers stroke;stroke-dasharray:none" d="m 460.86628,540.73534 c 14.65139,-0.6317 292.16365,-0.7163 304.55214,-0.6203 10.06971,0.078 8.5073,46.8891 -10.54458,47.1404 -15.31576,0.202 -268.34695,2.8944 -282.22245,1.8607 -18.59125,-1.3849 -24.52195,-47.8316 -11.78511,-48.3808 z"/><path id="rect1308-52" style="fill:none;stroke:#fffeff;stroke-width:4.2;stroke-linecap:round;stroke-linejoin:round;stroke-opacity:1;paint-order:fill markers stroke;stroke-dasharray:none" d="m 949.09332,544.41454 c 14.65139,-0.6318 24.82766,-0.096 37.21615,0 10.0697,0.078 10.9884,31.3822 0.6203,39.6971 -11.94915,9.5828 -23.32867,9.5408 -37.21618,-0.6203 -10.01726,-7.3292 -13.35711,-38.5276 -0.62027,-39.0768 z"/><path id="rect1308-493" style="fill:none;stroke:#fffeff;stroke-width:4.2;stroke-linecap:round;stroke-linejoin:round;stroke-opacity:1;paint-order:fill markers stroke;stroke-dasharray:none" d="m 874.58577,543.17394 c 14.65139,-0.6317 24.82766,-0.096 37.21615,0 10.06971,0.078 10.98838,31.3823 0.62027,39.6972 -11.94912,9.5828 -23.32864,9.5408 -37.21615,-0.6203 -10.01726,-7.3292 -13.35711,-38.5277 -0.62027,-39.0769 z"/><path id="rect1308-08" style="fill:none;stroke:#fffeff;stroke-width:4.2;stroke-linecap:round;stroke-linejoin:round;stroke-opacity:1;paint-order:fill markers stroke;stroke-dasharray:none" d="m 800.59207,542.91714 c 14.65139,-0.6318 24.82766,-0.096 37.21615,0 10.06971,0.078 10.98838,31.3822 0.62027,39.6971 -11.94912,9.5828 -23.32864,9.5408 -37.21615,-0.6203 -10.01726,-7.3292 -13.35711,-38.5276 -0.62027,-39.0768 z"/><path id="rect1308-901" style="fill:none;stroke:#fffeff;stroke-width:4.2;stroke-linecap:round;stroke-linejoin:round;stroke-opacity:1;paint-order:fill markers stroke;stroke-dasharray:none" d="m 809.01892,473.20294 c 14.65139,-0.6318 24.82766,-0.096 37.21615,0 10.06971,0.078 10.98838,31.3822 0.62027,39.6971 -11.94912,9.5828 -23.32864,9.5408 -37.21615,-0.6203 -10.01726,-7.3292 -13.35711,-38.5276 -0.62027,-39.0768 z"/><path id="rect1308-999" style="fill:none;stroke:#fffeff;stroke-width:4.2;stroke-linecap:round;stroke-linejoin:round;stroke-opacity:1;paint-order:fill markers stroke;stroke-dasharray:none" d="m 882.83095,472.58254 c 14.65139,-0.6317 24.82766,-0.096 37.21615,0 10.06971,0.078 10.98838,31.3823 0.62027,39.6972 -11.94912,9.5828 -23.32864,9.5408 -37.21615,-0.6203 -10.01726,-7.3292 -13.35711,-38.5277 -0.62027,-39.0769 z"/><path id="rect1308-03" style="fill:none;stroke:#fffeff;stroke-width:4.2;stroke-linecap:round;stroke-linejoin:round;stroke-opacity:1;paint-order:fill markers stroke;stroke-dasharray:none" d="m 735.2069,472.58264 c 14.65139,-0.6318 24.82766,-0.096 37.21615,0 10.06971,0.078 10.98838,31.3822 0.62027,39.6971 -11.94912,9.5828 -23.32864,9.5408 -37.21615,-0.6203 -10.01726,-7.3292 -13.35711,-38.5276 -0.62027,-39.0768 z"/><path id="rect1308-42" style="fill:none;stroke:#fffeff;stroke-width:4.2;stroke-linecap:round;stroke-linejoin:round;stroke-opacity:1;paint-order:fill markers stroke;stroke-dasharray:none" d="m 658.9138,473.82314 c 14.65139,-0.6317 24.82766,-0.096 37.21615,0 10.06971,0.078 10.98838,31.3823 0.62027,39.6972 -11.94912,9.5828 -23.32864,9.5408 -37.21615,-0.6203 -10.01726,-7.3292 -13.35711,-38.5277 -0.62027,-39.0769 z"/><path id="rect1308-253" style="fill:none;stroke:#fffeff;stroke-width:4.2;stroke-linecap:round;stroke-linejoin:round;stroke-opacity:1;paint-order:fill markers stroke;stroke-dasharray:none" d="m 585.10177,471.96234 c 14.65139,-0.6318 24.82766,-0.096 37.21615,0 10.06971,0.078 10.98838,31.3822 0.62027,39.6971 -11.94912,9.5828 -23.32864,9.5408 -37.21615,-0.6203 -10.01726,-7.3292 -13.35711,-38.5276 -0.62027,-39.0768 z"/><path id="rect1308-58" style="fill:none;stroke:#fffeff;stroke-width:4.2;stroke-linecap:round;stroke-linejoin:round;stroke-opacity:1;paint-order:fill markers stroke;stroke-dasharray:none" d="m 511.28975,473.82314 c 14.65139,-0.6317 24.82766,-0.096 37.21615,0 10.06971,0.078 10.98838,31.3823 0.62027,39.6972 -11.94912,9.5828 -23.32864,9.5408 -37.21615,-0.6203 -10.01726,-7.3292 -13.35711,-38.5277 -0.62027,-39.0769 z"/><path id="rect1308-98" style="fill:none;stroke:#fffeff;stroke-width:4.2;stroke-linecap:round;stroke-linejoin:round;stroke-opacity:1;paint-order:fill markers stroke;stroke-dasharray:none" d="m 302.87932,395.04904 c 14.65139,-0.6318 24.82766,-0.096 37.21615,0 10.06971,0.078 10.98838,31.3822 0.62027,39.6971 -11.94912,9.5828 -23.32864,9.5408 -37.21615,-0.6203 -10.01726,-7.3292 -13.35711,-38.5276 -0.62027,-39.0768 z"/><path id="rect1308-25" style="fill:none;stroke:#fffeff;stroke-width:4.2;stroke-linecap:round;stroke-linejoin:round;stroke-opacity:1;paint-order:fill markers stroke;stroke-dasharray:none" d="m 377.31162,396.28954 c 14.65139,-0.6318 24.82766,-0.096 37.21615,0 10.06971,0.078 10.98838,31.3822 0.62027,39.6971 -11.94912,9.5828 -23.32864,9.5408 -37.21615,-0.6203 -10.01726,-7.3292 -13.35711,-38.5276 -0.62027,-39.0768 z"/><path id="rect1308-67" style="fill:none;stroke:#fffeff;stroke-width:4.2;stroke-linecap:round;stroke-linejoin:round;stroke-opacity:1;paint-order:fill markers stroke;stroke-dasharray:none" d="m 451.74391,396.90974 c 14.65139,-0.6317 24.82766,-0.096 37.21615,0 10.06971,0.078 10.98838,31.3823 0.62027,39.6972 -11.94912,9.5828 -23.32864,9.5408 -37.21615,-0.6203 -10.01726,-7.3292 -13.35711,-38.5276 -0.62027,-39.0769 z"/><path id="rect1308-94" style="fill:none;stroke:#fffeff;stroke-width:4.2;stroke-linecap:round;stroke-linejoin:round;stroke-opacity:1;paint-order:fill markers stroke;stroke-dasharray:none" d="m 524.3154,396.90974 c 14.65139,-0.6317 24.82766,-0.096 37.21615,0 10.06971,0.078 10.98838,31.3823 0.62027,39.6972 -11.94912,9.5828 -23.32864,9.5408 -37.21615,-0.6203 -10.01726,-7.3292 -13.35711,-38.5277 -0.62027,-39.0769 z"/><path id="rect1308-47" style="fill:none;stroke:#fffeff;stroke-width:4.2;stroke-linecap:round;stroke-linejoin:round;stroke-opacity:1;paint-order:fill markers stroke;stroke-dasharray:none" d="m 599.36796,396.28954 c 14.65139,-0.6318 24.82766,-0.096 37.21615,0 10.06971,0.078 10.98838,31.3822 0.62027,39.6971 -11.94912,9.5828 -23.32864,9.5408 -37.21615,-0.6203 -10.01726,-7.3292 -13.35711,-38.5276 -0.62027,-39.0768 z"/><path id="rect1308-256" style="fill:none;stroke:#fffeff;stroke-width:4.2;stroke-linecap:round;stroke-linejoin:round;stroke-opacity:1;paint-order:fill markers stroke;stroke-dasharray:none" d="m 673.17999,396.90984 c 14.65139,-0.6318 24.82766,-0.096 37.21615,0 10.06971,0.078 10.98838,31.3822 0.62027,39.6971 -11.94912,9.5828 -23.32864,9.5408 -37.21615,-0.6203 -10.01726,-7.3292 -13.35711,-38.5276 -0.62027,-39.0768 z"/><path id="rect1308-342" style="fill:none;stroke:#fffeff;stroke-width:4.2;stroke-linecap:round;stroke-linejoin:round;stroke-opacity:1;paint-order:fill markers stroke;stroke-dasharray:none" d="m 748.23255,396.90984 c 14.65139,-0.6318 24.82766,-0.096 37.21615,0 10.06971,0.078 10.98838,31.3822 0.62027,39.6971 -11.94912,9.5828 -23.32864,9.5408 -37.21615,-0.6203 -10.01726,-7.3292 -13.35711,-38.5276 -0.62027,-39.0768 z"/><path id="rect1308-978" style="fill:none;stroke:#fffeff;stroke-width:4.2;stroke-linecap:round;stroke-linejoin:round;stroke-opacity:1;paint-order:fill markers stroke;stroke-dasharray:none" d="m 822.66484,396.28954 c 14.65139,-0.6318 24.82766,-0.096 37.21615,0 10.06971,0.078 10.98838,31.3822 0.62027,39.6971 -11.94912,9.5828 -23.32864,9.5408 -37.21615,-0.6203 -10.01726,-7.3292 -13.35711,-38.5276 -0.62027,-39.0768 z"/><path id="rect1308-984" style="fill:none;stroke:#fffeff;stroke-width:4.2;stroke-linecap:round;stroke-linejoin:round;stroke-opacity:1;paint-order:fill markers stroke;stroke-dasharray:none" d="m 895.85659,396.28954 c 14.65139,-0.6318 24.82766,-0.096 37.21615,0 10.06971,0.078 10.98838,31.3822 0.62027,39.6971 -11.94912,9.5828 -23.32864,9.5408 -37.21615,-0.6203 -10.01726,-7.3292 -13.35711,-38.5276 -0.62027,-39.0768 z"/><path style="fill:none;stroke:#fffeff;stroke-width:4.2;stroke-linecap:round;stroke-linejoin:round;stroke-dasharray:none;stroke-opacity:1;paint-order:fill markers stroke" d="m 21.125667,224.14933 c 471.819033,0 943.637073,0 1415.454133,0" id="path2287"/><path style="fill:none;stroke:#fffeff;stroke-width:4.2;stroke-linecap:round;stroke-linejoin:round;stroke-dasharray:none;stroke-opacity:1;paint-order:fill markers stroke" d="m 21.125667,298.58164 c 471.819033,0 943.637073,0 1415.454133,0" id="path2291"/><path style="fill:none;stroke:#fffeff;stroke-width:4.2;stroke-linecap:round;stroke-linejoin:round;stroke-dasharray:none;stroke-opacity:1;paint-order:fill markers stroke" d="m 23.606744,371.77334 177.086826,0.3101 177.08683,0.3102 177.08683,0.3101 177.08683,0.3102 272.26234,-0.5671" id="path2295"/><path style="fill:none;stroke:#fffeff;stroke-width:4.2;stroke-linecap:round;stroke-linejoin:round;stroke-dasharray:none;stroke-opacity:1;paint-order:fill markers stroke" d="m 22.366205,448.68674 c 472.232545,0 944.464095,0 1416.694695,0" id="path2299"/><path style="fill:none;stroke:#fffeff;stroke-width:4.2;stroke-linecap:round;stroke-linejoin:round;stroke-dasharray:none;stroke-opacity:1;paint-order:fill markers stroke" d="m 22.366205,526.84064 c 470.992015,-0.4135 941.983015,-0.827 1412.973095,-1.2405" id="path2303"/><path style="fill:none;stroke:#fffeff;stroke-width:4.2;stroke-linecap:round;stroke-linejoin:round;stroke-dasharray:none;stroke-opacity:1;paint-order:fill markers stroke" d="m 21.125667,597.55134 c 471.405523,0 942.810043,0 1414.213633,0" id="path2307"/><path style="fill:none;stroke:#fffeff;stroke-width:4.2;stroke-linecap:round;stroke-linejoin:round;stroke-dasharray:none;stroke-opacity:1;paint-order:fill markers stroke" d="m 74.561403,225.4386 c 0.2924,123.10044 0.584798,246.19984 0.877193,369.29824" id="path2311"/><path style="fill:none;stroke:#fffeff;stroke-width:4.2;stroke-linecap:round;stroke-linejoin:round;stroke-dasharray:none;stroke-opacity:1;paint-order:fill markers stroke" d="m 1078.9474,223.68421 c 0,124.56243 0,249.12383 0,373.68423" id="path2315"/><path style="fill:none;stroke:#fffeff;stroke-width:4.2;stroke-linecap:round;stroke-linejoin:round;stroke-dasharray:none;stroke-opacity:1;paint-order:fill markers stroke" d="m 150,224.56141 c 0.29241,24.41621 0.58481,48.83143 0.87719,73.24561" id="path2323"/><path style="fill:none;stroke:#fffeff;stroke-width:4.2;stroke-linecap:round;stroke-linejoin:round;stroke-dasharray:none;stroke-opacity:1;paint-order:fill markers stroke" d="m 223.66204,227.82871 c 0.30719,22.82274 0.61437,45.64454 0.92153,68.46543" id="path2323-4"/><path style="fill:none;stroke:#fffeff;stroke-width:4.2;stroke-linecap:round;stroke-linejoin:round;stroke-dasharray:none;stroke-opacity:1;paint-order:fill markers stroke" d="m 372.80702,224.3421 c 0.29241,24.41622 0.58481,48.83145 0.87719,73.24564" id="path2323-0"/><path style="fill:none;stroke:#fffeff;stroke-width:4.2;stroke-linecap:round;stroke-linejoin:round;stroke-dasharray:none;stroke-opacity:1;paint-order:fill markers stroke" d="m 445.15747,227.39431 c 0.30439,23.11236 0.60877,46.22374 0.91313,69.33423" id="path2323-7"/><path style="fill:none;stroke:#fffeff;stroke-width:4.2;stroke-linecap:round;stroke-linejoin:round;stroke-dasharray:none;stroke-opacity:1;paint-order:fill markers stroke" d="m 593.42106,225.65789 c 0.29241,24.41622 0.58481,48.83146 0.87719,73.24555" id="path2323-03"/><path style="fill:none;stroke:#fffeff;stroke-width:4.2;stroke-linecap:round;stroke-linejoin:round;stroke-dasharray:none;stroke-opacity:1;paint-order:fill markers stroke" d="m 667.98246,224.7807 c 0.29241,24.41622 0.58481,48.83145 0.87719,73.24564" id="path2323-418"/><path style="fill:none;stroke:#fffeff;stroke-width:4.2;stroke-linecap:round;stroke-linejoin:round;stroke-dasharray:none;stroke-opacity:1;paint-order:fill markers stroke" d="m 716.28177,28.227249 c -0.002,9.72663 -0.003,19.452659 -0.005,29.178" id="path2323-418-2"/><path style="fill:none;stroke:#fffeff;stroke-width:4.2;stroke-linecap:round;stroke-linejoin:round;stroke-dasharray:none;stroke-opacity:1;paint-order:fill markers stroke" d="m 732.45865,27.954869 c -0.002,9.72663 -0.003,19.452659 -0.005,29.178" id="path2323-418-2-0"/><path style="fill:none;stroke:#fffeff;stroke-width:4.2;stroke-linecap:round;stroke-linejoin:round;stroke-dasharray:none;stroke-opacity:1;paint-order:fill markers stroke" d="m 748.24812,27.735559 c -0.002,9.72663 -0.003,19.452659 -0.005,29.178" id="path2323-418-2-3"/><path style="fill:none;stroke:#fffeff;stroke-width:4.2;stroke-linecap:round;stroke-linejoin:round;stroke-dasharray:none;stroke-opacity:1;paint-order:fill markers stroke" d="m 764.69548,28.174159 c -0.002,9.72663 -0.003,19.452659 -0.005,29.178" id="path2323-418-2-03"/><path style="fill:none;stroke:#fffeff;stroke-width:4.2;stroke-linecap:round;stroke-linejoin:round;stroke-dasharray:none;stroke-opacity:1;paint-order:fill markers stroke" d="m 780.48496,27.954859 c -0.002,9.72663 -0.003,19.452659 -0.005,29.178" id="path2323-418-2-7"/><path style="fill:none;stroke:#fffeff;stroke-width:4.2;stroke-linecap:round;stroke-linejoin:round;stroke-dasharray:none;stroke-opacity:1;paint-order:fill markers stroke" d="m 797.39652,28.419999 c -0.002,9.72663 -0.003,19.452659 -0.005,29.178" id="path2323-418-2-2"/><path style="fill:none;stroke:#fffeff;stroke-width:4.2;stroke-linecap:round;stroke-linejoin:round;stroke-dasharray:none;stroke-opacity:1;paint-order:fill markers stroke" d="m 813.5734,28.147619 c -0.002,9.72663 -0.003,19.452659 -0.005,29.178" id="path2323-418-2-0-0"/><path style="fill:none;stroke:#fffeff;stroke-width:4.2;stroke-linecap:round;stroke-linejoin:round;stroke-dasharray:none;stroke-opacity:1;paint-order:fill markers stroke" d="m 829.36287,27.928309 c -0.002,9.72663 -0.003,19.452659 -0.005,29.178" id="path2323-418-2-3-6"/><path style="fill:none;stroke:#fffeff;stroke-width:4.2;stroke-linecap:round;stroke-linejoin:round;stroke-dasharray:none;stroke-opacity:1;paint-order:fill markers stroke" d="m 845.81023,28.366909 c -0.002,9.72663 -0.003,19.452659 -0.005,29.178" id="path2323-418-2-03-2"/><path style="fill:none;stroke:#fffeff;stroke-width:4.2;stroke-linecap:round;stroke-linejoin:round;stroke-dasharray:none;stroke-opacity:1;paint-order:fill markers stroke" d="m 861.59971,28.147609 c -0.002,9.72663 -0.003,19.452659 -0.005,29.178" id="path2323-418-2-7-6"/><path style="fill:none;stroke:#fffeff;stroke-width:4.2;stroke-linecap:round;stroke-linejoin:round;stroke-dasharray:none;stroke-opacity:1;paint-order:fill markers stroke" d="m 878.09827,28.310349 c -0.002,9.72663 -0.003,19.452659 -0.005,29.178" id="path2323-418-2-6"/><path style="fill:none;stroke:#fffeff;stroke-width:4.2;stroke-linecap:round;stroke-linejoin:round;stroke-dasharray:none;stroke-opacity:1;paint-order:fill markers stroke" d="m 894.27515,28.037969 c -0.002,9.72663 -0.003,19.452659 -0.005,29.178" id="path2323-418-2-0-1"/><path style="fill:none;stroke:#fffeff;stroke-width:4.2;stroke-linecap:round;stroke-linejoin:round;stroke-dasharray:none;stroke-opacity:1;paint-order:fill markers stroke" d="m 910.06462,27.818659 c -0.002,9.72663 -0.003,19.452659 -0.005,29.178" id="path2323-418-2-3-5"/><path style="fill:none;stroke:#fffeff;stroke-width:4.2;stroke-linecap:round;stroke-linejoin:round;stroke-dasharray:none;stroke-opacity:1;paint-order:fill markers stroke" d="m 926.51198,28.257259 c -0.002,9.72663 -0.003,19.452659 -0.005,29.178" id="path2323-418-2-03-0"/><path style="fill:none;stroke:#fffeff;stroke-width:4.2;stroke-linecap:round;stroke-linejoin:round;stroke-dasharray:none;stroke-opacity:1;paint-order:fill markers stroke" d="m 942.30151,28.037959 c 0,9.72663 0,19.45266 0,29.178" id="path2323-418-2-7-4"/><path style="fill:none;stroke:#fffeff;stroke-width:4.2;stroke-linecap:round;stroke-linejoin:round;stroke-dasharray:none;stroke-opacity:1;paint-order:fill markers stroke" d="m 742.98246,224.7807 c 0.29241,24.41622 0.58481,48.83145 0.87719,73.24564" id="path2323-5"/><path style="fill:none;stroke:#fffeff;stroke-width:4.2;stroke-linecap:round;stroke-linejoin:round;stroke-dasharray:none;stroke-opacity:1;paint-order:fill markers stroke" d="m 817.98246,226.09648 c 0.29241,24.41622 0.58481,48.83147 0.87719,73.24566" id="path2323-9"/><path style="fill:none;stroke:#fffeff;stroke-width:4.2;stroke-linecap:round;stroke-linejoin:round;stroke-dasharray:none;stroke-opacity:1;paint-order:fill markers stroke" d="m 893.42106,226.09648 c 0.29241,24.41622 0.58481,48.83147 0.87719,73.24566" id="path2323-6"/><path style="fill:none;stroke:#fffeff;stroke-width:4.2;stroke-linecap:round;stroke-linejoin:round;stroke-dasharray:none;stroke-opacity:1;paint-order:fill markers stroke" d="m 964.47369,225.65789 c 0.29241,24.41622 0.58481,48.83146 0.87719,73.24565" id="path2323-58"/><path style="fill:none;stroke:#fffeff;stroke-width:4.2;stroke-linecap:round;stroke-linejoin:round;stroke-dasharray:none;stroke-opacity:1;paint-order:fill markers stroke" d="m 1003.9474,299.34204 c 0.2924,24.41631 0.5848,48.83151 0.8772,73.2457" id="path2323-3"/><path style="fill:none;stroke:#fffeff;stroke-width:4.2;stroke-linecap:round;stroke-linejoin:round;stroke-dasharray:none;stroke-opacity:1;paint-order:fill markers stroke" d="m 929.368,301.07854 c 0.30439,23.11231 0.60877,46.22371 0.91313,69.3342" id="path2323-63"/><path style="fill:none;stroke:#fffeff;stroke-width:4.2;stroke-linecap:round;stroke-linejoin:round;stroke-dasharray:none;stroke-opacity:1;paint-order:fill markers stroke" d="m 855.70176,300.21924 c 0.29241,24.41631 0.58481,48.83151 0.87719,73.2457" id="path2323-46"/><path style="fill:none;stroke:#fffeff;stroke-width:4.2;stroke-linecap:round;stroke-linejoin:round;stroke-dasharray:none;stroke-opacity:1;paint-order:fill markers stroke" d="m 778.94737,298.90354 c 0.29241,24.41621 0.58481,48.83141 0.87719,73.2456" id="path2323-50"/><path style="fill:none;stroke:#fffeff;stroke-width:4.2;stroke-linecap:round;stroke-linejoin:round;stroke-dasharray:none;stroke-opacity:1;paint-order:fill markers stroke" d="m 704.82456,298.90344 c 0.29241,24.41621 0.58481,48.83151 0.87719,73.2457" id="path2323-20"/><path style="fill:none;stroke:#fffeff;stroke-width:4.2;stroke-linecap:round;stroke-linejoin:round;stroke-dasharray:none;stroke-opacity:1;paint-order:fill markers stroke" d="m 631.57895,298.46494 c 0.29241,24.41621 0.58481,48.83141 0.87719,73.2456" id="path2323-1"/><path style="fill:none;stroke:#fffeff;stroke-width:4.2;stroke-linecap:round;stroke-linejoin:round;stroke-dasharray:none;stroke-opacity:1;paint-order:fill markers stroke" d="m 557.45614,297.58774 c 0.29241,24.41621 0.58481,48.83141 0.87719,73.2456" id="path2323-61"/><path style="fill:none;stroke:#fffeff;stroke-width:4.2;stroke-linecap:round;stroke-linejoin:round;stroke-dasharray:none;stroke-opacity:1;paint-order:fill markers stroke" d="m 410.50835,301.95574 c 0.30439,23.11231 0.60877,46.22371 0.91313,69.3342" id="path2323-208"/><path style="fill:none;stroke:#fffeff;stroke-width:4.2;stroke-linecap:round;stroke-linejoin:round;stroke-dasharray:none;stroke-opacity:1;paint-order:fill markers stroke" d="m 484.21053,299.34204 c 0.29241,24.41621 0.58481,48.83141 0.87719,73.2456" id="path2323-00"/><path style="fill:none;stroke:#fffeff;stroke-width:4.2;stroke-linecap:round;stroke-linejoin:round;stroke-dasharray:none;stroke-opacity:1;paint-order:fill markers stroke" d="m 432.89474,374.78064 c 0.29241,24.41621 0.58481,48.83141 0.87719,73.2456" id="path2323-49"/><path style="fill:none;stroke:#fffeff;stroke-width:4.2;stroke-linecap:round;stroke-linejoin:round;stroke-dasharray:none;stroke-opacity:1;paint-order:fill markers stroke" d="m 507.01755,376.09654 c 0.29241,24.41621 0.58481,48.83141 0.87719,73.2456" id="path2323-26"/><path style="fill:none;stroke:#fffeff;stroke-width:4.2;stroke-linecap:round;stroke-linejoin:round;stroke-dasharray:none;stroke-opacity:1;paint-order:fill markers stroke" d="m 581.14035,372.58774 c 0.29241,24.41621 0.58481,48.83141 0.87719,73.2456" id="path2323-8"/><path style="fill:none;stroke:#fffeff;stroke-width:4.2;stroke-linecap:round;stroke-linejoin:round;stroke-dasharray:none;stroke-opacity:1;paint-order:fill markers stroke" d="m 655.26316,374.34204 c 0.29241,24.41621 0.58481,48.83151 0.87719,73.2457" id="path2323-94"/><path style="fill:none;stroke:#fffeff;stroke-width:4.2;stroke-linecap:round;stroke-linejoin:round;stroke-dasharray:none;stroke-opacity:1;paint-order:fill markers stroke" d="m 730.26317,374.78064 c 0.29241,24.41621 0.58481,48.83151 0.87719,73.2457" id="path2323-25"/><path style="fill:none;stroke:#fffeff;stroke-width:4.2;stroke-linecap:round;stroke-linejoin:round;stroke-dasharray:none;stroke-opacity:1;paint-order:fill markers stroke" d="m 802.63158,374.34204 c 0.29241,24.41621 0.58481,48.83151 0.87719,73.2457" id="path2323-55"/><path style="fill:none;stroke:#fffeff;stroke-width:4.2;stroke-linecap:round;stroke-linejoin:round;stroke-dasharray:none;stroke-opacity:1;paint-order:fill markers stroke" d="m 878.50878,375.65794 c 0.29241,24.41621 0.58481,48.83141 0.87719,73.2456" id="path2323-67"/><path style="fill:none;stroke:#fffeff;stroke-width:4.2;stroke-linecap:round;stroke-linejoin:round;stroke-dasharray:none;stroke-opacity:1;paint-order:fill markers stroke" d="m 936.40352,451.53514 c 0.29241,24.41621 0.58481,48.83141 0.87719,73.2456" id="path2323-67-0"/><path style="fill:none;stroke:#fffeff;stroke-width:4.2;stroke-linecap:round;stroke-linejoin:round;stroke-dasharray:none;stroke-opacity:1;paint-order:fill markers stroke" d="m 863.5965,451.97364 c 0.29241,24.41621 0.58481,48.83141 0.87719,73.2456" id="path2323-67-3"/><path style="fill:none;stroke:#fffeff;stroke-width:4.2;stroke-linecap:round;stroke-linejoin:round;stroke-dasharray:none;stroke-opacity:1;paint-order:fill markers stroke" d="m 1003.5088,524.78074 c 0.2924,24.41621 0.5848,48.83141 0.8772,73.2456" id="path2323-67-06"/><path style="fill:none;stroke:#fffeff;stroke-width:4.2;stroke-linecap:round;stroke-linejoin:round;stroke-dasharray:none;stroke-opacity:1;paint-order:fill markers stroke" d="m 928.9252,528.70594 c 0.30719,22.82271 0.61437,45.64451 0.92153,68.4654" id="path2323-67-1"/><path style="fill:none;stroke:#fffeff;stroke-width:4.2;stroke-linecap:round;stroke-linejoin:round;stroke-dasharray:none;stroke-opacity:1;paint-order:fill markers stroke" d="m 855.23456,528.26074 c 0.31148,22.38841 0.62295,44.77591 0.93441,67.1625" id="path2323-67-14"/><path style="fill:none;stroke:#fffeff;stroke-width:4.2;stroke-linecap:round;stroke-linejoin:round;stroke-dasharray:none;stroke-opacity:1;paint-order:fill markers stroke" d="m 780.67959,529.14454 c 0.30719,22.82271 0.61437,45.64451 0.92153,68.4654" id="path2323-67-148"/><path style="fill:none;stroke:#fffeff;stroke-width:4.2;stroke-linecap:round;stroke-linejoin:round;stroke-dasharray:none;stroke-opacity:1;paint-order:fill markers stroke" d="m 789.03509,451.53514 c 0.29241,24.41621 0.58481,48.83141 0.87719,73.2456" id="path2323-67-7"/><path style="fill:none;stroke:#fffeff;stroke-width:4.2;stroke-linecap:round;stroke-linejoin:round;stroke-dasharray:none;stroke-opacity:1;paint-order:fill markers stroke" d="m 713.59649,449.78074 c 0.29241,24.41621 0.58481,48.83141 0.87719,73.2456" id="path2323-67-4"/><path style="fill:none;stroke:#fffeff;stroke-width:4.2;stroke-linecap:round;stroke-linejoin:round;stroke-dasharray:none;stroke-opacity:1;paint-order:fill markers stroke" d="m 640.35088,452.85084 c 0.29241,24.41621 0.58481,48.83141 0.87719,73.2456" id="path2323-67-05"/><path style="fill:none;stroke:#fffeff;stroke-width:4.2;stroke-linecap:round;stroke-linejoin:round;stroke-dasharray:none;stroke-opacity:1;paint-order:fill markers stroke" d="m 565.78948,450.21924 c 0.29241,24.41621 0.58481,48.83141 0.87719,73.2456" id="path2323-67-5"/><path style="fill:none;stroke:#fffeff;stroke-width:4.2;stroke-linecap:round;stroke-linejoin:round;stroke-dasharray:none;stroke-opacity:1;paint-order:fill markers stroke" d="m 493.42106,448.90354 c 0.29241,24.41621 0.58481,48.83141 0.87719,73.2456" id="path2323-67-56"/><path style="fill:none;stroke:#fffeff;stroke-width:4.2;stroke-linecap:round;stroke-linejoin:round;stroke-dasharray:none;stroke-opacity:1;paint-order:fill markers stroke" d="m 953.07018,373.90354 c 0.29241,24.41621 0.58481,48.83141 0.87719,73.2456" id="path2323-02"/><path style="fill:none;stroke:#fffeff;stroke-width:4.2;stroke-linecap:round;stroke-linejoin:round;stroke-dasharray:none;stroke-opacity:1;paint-order:fill markers stroke" d="m 335.96492,298.90344 c 0.29241,24.41621 0.58481,48.83151 0.87719,73.2457" id="path2323-19"/><path style="fill:none;stroke:#fffeff;stroke-width:4.2;stroke-linecap:round;stroke-linejoin:round;stroke-dasharray:none;stroke-opacity:1;paint-order:fill markers stroke" d="m 261.40351,298.90354 c 0.29241,24.41621 0.58481,48.83141 0.87719,73.2456" id="path2323-508"/><path style="fill:none;stroke:#fffeff;stroke-width:4.2;stroke-linecap:round;stroke-linejoin:round;stroke-dasharray:none;stroke-opacity:1;paint-order:fill markers stroke" d="m 169.2844,299.32834 c 0.30164,23.40201 0.60327,46.80301 0.90489,70.2031" id="path2323-70"/><path style="fill:none;stroke:#fffeff;stroke-width:4.2;stroke-linecap:round;stroke-linejoin:round;stroke-dasharray:none;stroke-opacity:1;paint-order:fill markers stroke" d="m 284.64913,373.02634 c 0.29241,24.41621 0.58481,48.83141 0.87719,73.2456" id="path2323-99"/><path style="fill:none;stroke:#fffeff;stroke-width:4.2;stroke-linecap:round;stroke-linejoin:round;stroke-dasharray:none;stroke-opacity:1;paint-order:fill markers stroke" d="m 360.08772,375.21934 c 0.29241,24.41621 0.58481,48.83141 0.87719,73.2456" id="path2323-62"/><path style="fill:none;stroke:#fffeff;stroke-width:4.2;stroke-linecap:round;stroke-linejoin:round;stroke-dasharray:none;stroke-opacity:1;paint-order:fill markers stroke" d="m 186.40351,373.90344 c 0.29241,24.41621 0.58481,48.83151 0.87719,73.2457" id="path2323-4189"/><path style="fill:none;stroke:#fffeff;stroke-width:4.2;stroke-linecap:round;stroke-linejoin:round;stroke-dasharray:none;stroke-opacity:1;paint-order:fill markers stroke" d="m 520.17545,224.7807 c 0.29241,24.41622 0.58481,48.83145 0.87719,73.24564" id="path2323-2"/><path style="fill:none;stroke:#fffeff;stroke-width:4.2;stroke-linecap:round;stroke-linejoin:round;stroke-dasharray:none;stroke-opacity:1;paint-order:fill markers stroke" d="m 300.00001,224.78069 c 0.29241,24.41622 0.58481,48.83146 0.87719,73.24565" id="path2323-41"/><path style="fill:none;stroke:#fffeff;stroke-width:4.2;stroke-linecap:round;stroke-linejoin:round;stroke-dasharray:none;stroke-opacity:1;paint-order:fill markers stroke" d="m 1078.9474,372.80704 c 118.8607,0 237.7203,0 356.5789,0" id="path2916"/><rect style="fill:none;stroke:#fffeff;stroke-width:4.2;stroke-linecap:round;stroke-linejoin:round;stroke-dasharray:none;stroke-opacity:1;paint-order:fill markers stroke" id="rect3298" width="98.623" height="9.924" x="1338.577" y="299.341"/><rect style="fill:none;stroke:#fffeff;stroke-width:4.2;stroke-linecap:round;stroke-linejoin:round;stroke-dasharray:none;stroke-opacity:1;paint-order:fill markers stroke" id="rect3298-2" width="98.623" height="9.924" x="1339.938" y="373.913"/><rect style="fill:none;stroke:#fffeff;stroke-width:4.2;stroke-linecap:round;stroke-linejoin:round;stroke-dasharray:none;stroke-opacity:1;paint-order:fill markers stroke" id="rect3298-1" width="98.623" height="9.924" x="1340.077" y="449.927"/><rect style="fill:none;stroke:#fffeff;stroke-width:4.2;stroke-linecap:round;stroke-linejoin:round;stroke-dasharray:none;stroke-opacity:1;paint-order:fill markers stroke" id="rect3298-9" width="98.623" height="9.924" x="1338.697" y="525.195"/><path style="fill:none;stroke:#fffeff;stroke-width:4.2;stroke-linecap:round;stroke-linejoin:round;stroke-dasharray:none;stroke-opacity:1;paint-order:fill markers stroke" d="m 958.69039,27.871759 c -0.002,9.72663 -0.003,19.452659 -0.005,29.178" id="path2323-418-2-4"/><path style="fill:none;stroke:#fffeff;stroke-width:4.2;stroke-linecap:round;stroke-linejoin:round;stroke-dasharray:none;stroke-opacity:1;paint-order:fill markers stroke" d="m 974.86727,27.599379 c -0.002,9.72663 -0.003,19.452659 -0.005,29.178" id="path2323-418-2-0-04"/><path style="fill:none;stroke:#fffeff;stroke-width:4.2;stroke-linecap:round;stroke-linejoin:round;stroke-dasharray:none;stroke-opacity:1;paint-order:fill markers stroke" d="m 990.65667,27.380069 c 0,9.72663 0,19.45266 0,29.178" id="path2323-418-2-3-9"/><path style="fill:none;stroke:#fffeff;stroke-width:4.2;stroke-linecap:round;stroke-linejoin:round;stroke-dasharray:none;stroke-opacity:1;paint-order:fill markers stroke" d="m 1007.1041,27.818669 c 0,9.72663 0,19.45266 0,29.178" id="path2323-418-2-03-1"/><path style="fill:none;stroke:#fffeff;stroke-width:4.2;stroke-linecap:round;stroke-linejoin:round;stroke-dasharray:none;stroke-opacity:1;paint-order:fill markers stroke" d="m 1022.8936,27.599369 c -0,9.726629 -0.01,19.452658 -0.01,29.178" id="path2323-418-2-7-5"/><ellipse style="fill:none;stroke:#fffeff;stroke-width:4.2;stroke-linecap:round;stroke-linejoin:round;stroke-dasharray:none;stroke-opacity:1;paint-order:fill markers stroke" id="path3748" cx="1061.404" cy="58.333" rx="7.018" ry="6.579"/><rect style="fill:none;stroke:#fffeff;stroke-width:4.2;stroke-linecap:round;stroke-linejoin:round;stroke-dasharray:none;stroke-opacity:1;paint-order:fill markers stroke" id="rect3750" width="63.958" height="38.52" x="636.88" y="22.845" ry="13.158" rx="13.158"/></g></svg>