<?xml version="1.0" encoding="UTF-8" standalone="no"?>
<svg
   width="21.775"
   height="20.762"
   xml:space="preserve"
   version="1.1"
   id="svg1"
   sodipodi:docname="rating_empty.svg"
   inkscape:version="1.3.2 (091e20ef0f, 2023-11-25, custom)"
   xmlns:inkscape="http://www.inkscape.org/namespaces/inkscape"
   xmlns:sodipodi="http://sodipodi.sourceforge.net/DTD/sodipodi-0.dtd"
   xmlns="http://www.w3.org/2000/svg"
   xmlns:svg="http://www.w3.org/2000/svg"><defs
   id="defs1" /><sodipodi:namedview
   id="namedview1"
   pagecolor="#ffffff"
   bordercolor="#000000"
   borderopacity="0.25"
   inkscape:showpageshadow="2"
   inkscape:pageopacity="0.0"
   inkscape:pagecheckerboard="0"
   inkscape:deskcolor="#d1d1d1"
   inkscape:zoom="39.061749"
   inkscape:cx="10.880209"
   inkscape:cy="10.381"
   inkscape:window-width="1920"
   inkscape:window-height="1011"
   inkscape:window-x="0"
   inkscape:window-y="0"
   inkscape:window-maximized="1"
   inkscape:current-layer="svg1" />
    <path
   fill="#777"
   d="M8.71 2.48c.026.018.083.07.143.193l1.859 3.766c.333.676 1.18 1.291 1.924 1.398l4.155.603c.15.022.218.066.227.066h.001c0 .019-.025.096-.14.207l-3.009 2.931c-.539.526-.862 1.521-.735 2.263l.711 4.14c.027.156.003.234-.011.239a.527.527 0 0 1-.221-.071L9.9 16.26c-.324-.171-.747-.264-1.19-.264s-.867.094-1.19.264l-3.716 1.954c-.123.063-.196.071-.224.082-.01-.016-.034-.094-.008-.25l.71-4.14c.128-.743-.195-1.737-.735-2.263L.541 8.712C.427 8.602.4 8.525.395 8.525c.01-.015.077-.061.235-.084l4.153-.603c.747-.108 1.592-.723 1.926-1.399l1.859-3.766a.49.49 0 0 1 .142-.193m0-.404c-.182 0-.364.14-.501.419L6.35 6.262c-.276.56-1.007 1.091-1.624 1.18l-4.154.603c-.618.09-.757.52-.31.955l3.007 2.931c.447.436.726 1.295.62 1.909l-.71 4.139c-.077.446.094.708.405.708a.903.903 0 0 0 .407-.117l3.717-1.955c.276-.145.64-.216 1.003-.216.364 0 .729.072 1.004.216l3.717 1.955c.15.079.289.117.407.117.311 0 .481-.262.405-.708l-.711-4.139c-.105-.614.174-1.474.619-1.909L17.161 9c.446-.435.307-.865-.311-.955l-4.154-.603c-.617-.089-1.349-.62-1.624-1.18L9.213 2.495c-.139-.279-.32-.419-.503-.419z"
   id="path1" />
<path
   style="fill:#ffffff;stroke-width:0.0256005"
   d="M 3.4176657,18.639654 C 3.2688122,18.573949 3.1777328,18.405891 3.1755846,18.192972 3.1749666,18.131714 3.3424082,17.106414 3.547677,15.914529 3.9068586,13.828956 3.9204729,13.736875 3.9097159,13.465859 3.9029097,13.29438 3.876629,13.099156 3.8425133,12.966649 3.7671559,12.673959 3.5426017,12.217872 3.3906336,12.048847 3.3240939,11.974838 2.5731247,11.233185 1.7218131,10.400729 0.87050168,9.568272 0.14436039,8.8424218 0.10816585,8.7877281 0.02430881,8.6610116 0.00226999,8.4523353 0.0607921,8.339166 0.10993549,8.2441331 0.21388779,8.1664769 0.36311559,8.1133192 0.42388701,8.0916712 1.458588,7.9306019 2.6624512,7.755387 4.292562,7.5181342 4.9012721,7.420179 5.0470861,7.3716446 5.2860864,7.2920931 5.6228196,7.0948556 5.8338599,6.9108009 6.2009195,6.590677 6.172679,6.639558 7.2831488,4.4022569 8.2442404,2.4659137 8.3210135,2.3204447 8.4346361,2.2204299 8.5729853,2.0986501 8.6843897,2.0674932 8.8206644,2.1124679 c 0.2148391,0.070903 0.2352322,0.1062742 1.2955066,2.2469894 0.547623,1.1056625 1.046347,2.0813014 1.108276,2.1680863 0.262955,0.3684981 0.782418,0.7391894 1.217435,0.868766 0.07742,0.02306 1.091178,0.1797861 2.2528,0.3482793 2.312945,0.335493 2.313372,0.3355639 2.455273,0.4079564 0.269095,0.1372819 0.327278,0.3742756 0.157024,0.6395938 -0.04314,0.067228 -0.789392,0.8138596 -1.662979,1.6638259 -0.897667,0.873395 -1.630201,1.606707 -1.689622,1.691417 -0.274363,0.391133 -0.439279,0.898995 -0.444769,1.369678 -0.003,0.25541 0.03089,0.478072 0.364095,2.393646 0.221414,1.272893 0.367427,2.179223 0.367499,2.281132 2.66e-4,0.377262 -0.257088,0.563459 -0.612169,0.442905 -0.06612,-0.02245 -0.991923,-0.499612 -2.057339,-1.060365 -1.065416,-0.560752 -2.0069454,-1.042472 -2.0922872,-1.070489 -0.2631513,-0.08639 -0.5149592,-0.114467 -0.8956488,-0.09987 -0.2517803,0.0097 -0.408334,0.02938 -0.5452045,0.06871 -0.1375299,0.03952 -0.7476355,0.347007 -2.1504413,1.08381 -1.0771407,0.565753 -2.0160388,1.048601 -2.0864401,1.072998 -0.1527692,0.05294 -0.2794437,0.05628 -0.3840074,0.01012 z M 3.676852,18.282015 c 0.054571,-0.01933 0.9541352,-0.484919 1.9990306,-1.034652 1.0448956,-0.549734 1.9763876,-1.030151 2.0699825,-1.067595 0.5123163,-0.204959 1.2785339,-0.219694 1.8399778,-0.03538 0.091935,0.03018 1.0515091,0.521082 2.1323871,1.090895 1.40646,0.741451 1.990709,1.037082 2.054835,1.039748 l 0.0896,0.0037 -0.0051,-0.140802 c -0.0028,-0.07744 -0.166992,-1.081082 -0.364807,-2.230312 -0.313599,-1.821892 -0.359621,-2.125183 -0.359327,-2.368045 7.48e-4,-0.619967 0.249648,-1.312721 0.626876,-1.744765 0.0704,-0.08063 0.802223,-0.803256 1.626271,-1.605831 0.824048,-0.8025756 1.529662,-1.4985239 1.56803,-1.5465522 0.0904,-0.1131591 0.08794,-0.1459712 -0.01344,-0.1790936 C 16.895365,8.448399 15.872945,8.2931199 14.669082,8.1182855 13.224182,7.9084457 12.423683,7.7814485 12.313837,7.7446317 12.096467,7.6717763 11.797259,7.5217195 11.593636,7.3834418 11.365578,7.2285706 11.009534,6.8781777 10.873049,6.6742918 10.809808,6.5798201 10.324043,5.6212281 9.7935712,4.5440874 9.2630995,3.4669466 8.8010017,2.5571401 8.7666871,2.522295 8.7045972,2.4592454 8.704057,2.4591837 8.6545508,2.5094947 8.6271907,2.5372997 8.1651738,3.4523546 7.6278464,4.5429501 7.0905192,5.6335455 6.6036866,6.595484 6.5459964,6.6805913 6.2504178,7.1166411 5.6990333,7.5316865 5.1584992,7.7250066 4.9377279,7.8039647 4.9132905,7.8079427 2.5216485,8.1542654 1.4515479,8.3092219 0.53873082,8.4482205 0.49316604,8.4631515 c -0.10714019,0.035108 -0.12013669,0.059659 -0.0711546,0.1344156 0.0220726,0.033687 0.74914296,0.7511461 1.61571186,1.5943539 0.8665691,0.843207 1.6268945,1.600874 1.6896121,1.683704 0.3510007,0.46356 0.5541045,1.066587 0.5571584,1.654235 0.00156,0.300072 -0.021002,0.450676 -0.3621812,2.417671 -0.3141687,1.81127 -0.397643,2.369621 -0.3542627,2.369621 0.00527,0 0.054231,-0.01581 0.1088021,-0.03514 z"
   id="path2" /></svg>
