<?xml version="1.0" encoding="UTF-8" standalone="no"?>
<svg
   version="1.0"
   width="21.775"
   height="20.762"
   xml:space="preserve"
   id="svg1"
   sodipodi:docname="rating_filled.svg"
   inkscape:version="1.3.2 (091e20ef0f, 2023-11-25, custom)"
   xmlns:inkscape="http://www.inkscape.org/namespaces/inkscape"
   xmlns:sodipodi="http://sodipodi.sourceforge.net/DTD/sodipodi-0.dtd"
   xmlns="http://www.w3.org/2000/svg"
   xmlns:svg="http://www.w3.org/2000/svg"><defs
   id="defs1" /><sodipodi:namedview
   id="namedview1"
   pagecolor="#ffffff"
   bordercolor="#000000"
   borderopacity="0.25"
   inkscape:showpageshadow="2"
   inkscape:pageopacity="0.0"
   inkscape:pagecheckerboard="0"
   inkscape:deskcolor="#d1d1d1"
   inkscape:zoom="39.061749"
   inkscape:cx="10.880209"
   inkscape:cy="10.381"
   inkscape:window-width="1920"
   inkscape:window-height="1011"
   inkscape:window-x="0"
   inkscape:window-y="0"
   inkscape:window-maximized="1"
   inkscape:current-layer="svg1" />
    <path
   fill="#393A3B"
   d="M8.71 2.076c-.182 0-.363.14-.501.419L6.35 6.261c-.276.56-1.008 1.091-1.624 1.18l-4.154.604c-.618.09-.757.519-.31.955l3.007 2.931c.446.437.726 1.295.62 1.909l-.71 4.14c-.077.446.094.708.404.708a.903.903 0 0 0 .407-.117l3.717-1.956c.276-.145.641-.216 1.003-.216.364 0 .729.072 1.004.216l3.718 1.956a.893.893 0 0 0 .406.117c.312 0 .481-.262.405-.708l-.711-4.14c-.104-.614.174-1.474.619-1.909L17.16 9c.446-.437.307-.865-.311-.955l-4.154-.604c-.617-.089-1.349-.62-1.624-1.18L9.213 2.495c-.139-.279-.32-.419-.503-.419z"
   id="path1" />
<path
   style="fill:#ffffff;stroke-width:0.0256005"
   d="m 3.4176657,18.639654 c -0.1484744,-0.06554 -0.2399194,-0.233732 -0.2420811,-0.445256 -6.18e-4,-0.06048 0.1668651,-1.085775 0.3721843,-2.278444 0.3668062,-2.130722 0.3730873,-2.173617 0.3606334,-2.462895 -0.0078,-0.1811 -0.033664,-0.373227 -0.067212,-0.49921 C 3.7697216,12.685463 3.5404318,12.219122 3.4006229,12.057802 3.3395952,11.987384 2.5887945,11.245429 1.7321772,10.409012 0.8755599,9.5725954 0.14518758,8.8436718 0.10912764,8.7891817 0.03050936,8.6703813 0.00443001,8.4714758 0.0523146,8.3558721 0.0981249,8.2452762 0.25118507,8.1417051 0.44147532,8.0925388 0.52955025,8.0697825 1.5620677,7.9122404 2.7359584,7.7424452 4.5671731,7.4775727 4.9003469,7.4228566 5.0818262,7.3571898 5.4496216,7.2241059 5.815621,6.9672382 6.1159005,6.6314506 6.2373582,6.4956303 6.3787379,6.2257453 7.2838193,4.4019683 8.2439337,2.4672968 8.3217607,2.3197868 8.4349641,2.2201413 8.5729999,2.0986372 8.6844685,2.0675193 8.8206644,2.1124679 c 0.2140455,0.070641 0.2323539,0.1024837 1.3296436,2.3125427 0.983564,1.9810059 1.039044,2.0857667 1.194297,2.2551621 0.286577,0.3126824 0.750302,0.6148939 1.099109,0.7162949 0.07662,0.022275 1.089647,0.1786804 2.251163,0.3475674 1.161515,0.1688869 2.166948,0.3186042 2.234294,0.332705 0.238554,0.049948 0.430516,0.1938802 0.470373,0.3526834 0.02221,0.088489 -0.02689,0.2651891 -0.107559,0.3870889 -0.03574,0.05401 -0.779653,0.7935543 -1.653134,1.6434307 -0.87348,0.849877 -1.626715,1.597771 -1.673854,1.661988 -0.177235,0.241441 -0.351172,0.654785 -0.425487,1.011121 -0.0777,0.372555 -0.05742,0.542053 0.333774,2.790454 0.200884,1.154582 0.365636,2.17039 0.366117,2.257351 0.0021,0.372533 -0.23465,0.56229 -0.58135,0.46604 -0.05622,-0.01561 -0.98504,-0.492885 -2.064051,-1.060618 -1.079011,-0.567734 -2.03112,-1.054987 -2.1157985,-1.082786 -0.399106,-0.131019 -1.0622732,-0.142262 -1.4552374,-0.02467 -0.1515155,0.04534 -0.7324257,0.338213 -2.1504414,1.084171 -1.0685658,0.562127 -2.0004483,1.042039 -2.0708496,1.066471 -0.1527218,0.053 -0.2794033,0.05636 -0.3840074,0.01019 z"
   id="path2" /></svg>
