<?xml version="1.0" encoding="UTF-8" standalone="no"?>
<!-- Created with Inkscape (http://www.inkscape.org/) -->

<svg
   version="1.1"
   id="svg2406"
   width="50"
   height="50"
   viewBox="0 0 50 50"
   sodipodi:docname="Advanced.svg"
   inkscape:version="1.1.2 (0a00cf5339, 2022-02-04, custom)"
   xmlns:inkscape="http://www.inkscape.org/namespaces/inkscape"
   xmlns:sodipodi="http://sodipodi.sourceforge.net/DTD/sodipodi-0.dtd"
   xmlns="http://www.w3.org/2000/svg"
   xmlns:svg="http://www.w3.org/2000/svg">
  <defs
     id="defs2410">
    <inkscape:path-effect
       effect="fillet_chamfer"
       id="path-effect1917"
       is_visible="true"
       lpeversion="1"
       satellites_param="F,0,1,1,0,0.5,0,1 @ F,0,1,1,0,0.5,0,1 @ F,0,1,1,0,0.5,0,1 @ F,0,1,1,0,0.5,0,1 @ F,0,1,1,0,0.5,0,1 @ F,0,1,1,0,0.5,0,1 @ F,0,1,1,0,0.5,0,1 @ F,0,1,1,0,0.5,0,1 @ F,0,1,1,0,0.5,0,1 @ F,0,1,1,0,0.5,0,1 @ F,0,0,1,0,0.5,0,1 @ F,0,0,1,0,0.5,0,1 @ F,0,0,1,0,0.5,0,1 @ F,0,0,1,0,0.5,0,1 @ F,0,0,1,0,0.5,0,1 @ F,0,0,1,0,0.5,0,1 @ F,0,1,1,0,0.5,0,1 @ F,0,1,1,0,0.5,0,1 @ F,0,1,1,0,0.5,0,1 @ F,0,1,1,0,0.5,0,1 @ F,0,1,1,0,0.5,0,1 | F,0,0,1,0,0.5,0,1 @ F,0,0,1,0,0.5,0,1 @ F,0,0,1,0,0.5,0,1 @ F,0,0,1,0,0.5,0,1 @ F,0,0,1,0,0.5,0,1 @ F,0,0,1,0,0.5,0,1 @ F,0,0,1,0,0.5,0,1 @ F,0,0,1,0,0.5,0,1"
       unit="px"
       method="auto"
       mode="F"
       radius="0.5"
       chamfer_steps="1"
       flexible="false"
       use_knot_distance="true"
       apply_no_radius="true"
       apply_with_radius="true"
       only_selected="true"
       hide_knots="false" />
  </defs>
  <sodipodi:namedview
     id="namedview2408"
     pagecolor="#ff00ff"
     bordercolor="#111111"
     borderopacity="1"
     inkscape:pageshadow="0"
     inkscape:pageopacity="0"
     inkscape:pagecheckerboard="1"
     showgrid="false"
     showguides="false"
     inkscape:guide-bbox="true"
     inkscape:zoom="4.37"
     inkscape:cx="11.899313"
     inkscape:cy="12.700229"
     inkscape:window-width="1366"
     inkscape:window-height="703"
     inkscape:window-x="0"
     inkscape:window-y="0"
     inkscape:window-maximized="1"
     inkscape:current-layer="g2412">
    <sodipodi:guide
       position="51.201373,16.704805"
       orientation="1,0"
       id="guide3076" />
    <sodipodi:guide
       position="38.551073,17.678586"
       orientation="1,0"
       id="guide3614" />
    <sodipodi:guide
       position="25.095421,-2.1844159"
       orientation="1,0"
       id="guide1080" />
  </sodipodi:namedview>
  <g
     inkscape:groupmode="layer"
     inkscape:label="AdvancedIcon"
     id="g2412">
    <path
       id="path2935"
       style="display:inline;fill:#ffffff;fill-opacity:1;stroke:none;stroke-width:3;stroke-linecap:square;stroke-linejoin:round"
       d="M 13.685402,4.9919219 20.450453,11.9499 c 0.192498,0.197987 0.32001,0.580531 0.280852,0.853881 -0.492097,3.435163 -1.503144,6.652023 -7.520705,7.762844 -0.271536,0.05012 -0.717466,0.222629 -0.974733,0.146286 -0.206811,-0.06137 -0.392826,-0.22496 -0.566118,-0.395651 -0.195814,-0.192876 -0.522196,-0.497882 -0.722314,-0.688164 -2.0661342,-1.964578 -4.0044676,-4.067792 -6.1129101,-5.983351 -0.2027734,-0.184224 -0.531231,-0.157608 -0.5931288,0.107613 -0.027874,0.119434 -0.042843,0.246111 -0.055792,0.372314 -0.028107,0.27394 -0.097894,0.715855 -0.124688,0.990686 -0.1418679,1.455168 -0.098992,2.938735 0.3517348,4.33678 0.084699,0.262715 0.2397252,0.682843 0.337401,0.941119 0.5953575,1.574255 1.4753225,3.052239 2.702478,4.229111 0.1992761,0.191111 0.530253,0.492712 0.7373258,0.675366 3.0900898,2.725699 7.6780718,3.743154 11.6376268,2.462333 0.262715,-0.08498 0.684313,-0.235833 0.948127,-0.317325 0.219733,-0.06788 0.44441,-0.117798 0.646809,-0.07656 0.26298,0.05358 0.559372,0.431953 0.75234,0.629483 4.764146,4.876796 8.348974,8.965421 12.841021,14.010089 0.18332,0.205872 0.480736,0.540066 0.670249,0.7409 0.310595,0.329148 0.636296,0.653683 0.96519,0.985379 0.194309,0.195965 0.505154,0.518694 0.713914,0.699319 0.827517,0.715989 1.8757,1.206406 2.980514,1.232877 0.275863,0.0066 0.723773,-8.61e-4 0.99875,-0.02318 1.011604,-0.08211 1.940404,-0.612218 2.714703,-1.25664 0.212204,-0.176611 0.539411,-0.483889 0.715189,-0.696651 1.030921,-1.247832 1.294317,-3.016334 0.846415,-4.551571 C 45.543374,38.872126 45.363051,38.46089 45.220007,38.224827 44.553659,37.125162 43.495849,36.300355 42.559383,35.411515 42.359375,35.22168 42.031002,34.91848 41.819537,34.740892 37.086561,30.766155 32.46846,26.649599 28.059839,22.268368 c -0.195806,-0.19459 -0.555243,-0.513653 -0.587883,-0.781201 -0.03124,-0.256075 0.06793,-0.540805 0.165674,-0.813246 0.09266,-0.258269 0.227521,-0.683653 0.311616,-0.946646 0.566437,-1.771451 0.620588,-3.677297 0.338427,-5.507974 C 28.24561,13.946397 28.159311,13.506854 28.090772,13.239379 27.02743,9.0896782 23.473205,5.6916265 19.260491,4.6332119 18.992692,4.5659294 18.553291,4.4787756 18.280122,4.4385056 17.764418,4.3624817 17.243192,4.3200952 16.721773,4.308535 c -0.27605,-0.00612 -0.723422,0.012162 -0.999404,0.02121 -0.638035,0.020919 -1.291486,0.024281 -1.906493,0.1626771 -0.269053,0.060545 -0.322972,0.3015117 -0.130474,0.4994995 z M 38.100088,37.458753 c 0.138643,-0.09202 0.288454,-0.17296 0.448325,-0.241441 0.253556,-0.10861 0.692131,-0.217311 0.967456,-0.232342 1.131124,-0.06175 2.182436,0.614545 2.589371,1.665367 0.0996,0.257187 0.17919,0.703471 0.166766,0.978759 -0.02173,0.481577 -0.189299,0.971003 -0.472427,1.37777 -0.157499,0.226277 -0.483203,0.539886 -0.710245,0.696563 -0.154741,0.106784 -0.313777,0.192514 -0.482873,0.260295 -0.255979,0.102609 -0.697973,0.204872 -0.973544,0.20835 -0.0055,6.9e-5 -0.01093,1.06e-4 -0.0164,1.11e-4 -0.276818,2.74e-4 -0.722572,-0.08861 -0.97876,-0.190274 -0.763645,-0.303028 -1.359534,-0.992293 -1.568849,-1.816097 -0.06793,-0.267336 -0.09532,-0.719193 -0.05829,-0.992407 0.05033,-0.371317 0.182262,-0.715114 0.383286,-1.015853 0.153194,-0.229182 0.318321,-0.384474 0.318321,-0.384486 z"
       sodipodi:nodetypes="ccccccccccsccccccccccccsscscscc"
       inkscape:path-effect="#path-effect1917"
       inkscape:original-d="m 13.336854,4.6334334 7.462147,7.6749546 c -0.486438,3.70941 -1.323716,7.271234 -8.081186,8.342671 -0.58836,0.329877 -1.018065,-0.35817 -1.406645,-0.678895 -2.3246706,-2.17412 -4.4683162,-4.544839 -6.8455732,-6.658022 -0.322726,0.315902 -0.2450044,0.888631 -0.3492256,1.305316 -0.2222625,1.775873 -0.2046771,3.614085 0.4650057,5.304136 0.6457793,1.904586 1.6903647,3.700346 3.2410519,5.03609 3.2040102,3.093215 8.2569902,4.220146 12.4770752,2.636605 0.491093,-0.133286 1.140435,-0.497692 1.525482,0.04308 5.058275,5.156256 8.763402,9.398808 13.522784,14.740093 0.513639,0.576441 1.085355,1.126182 1.654,1.709655 0.984975,1.015109 2.386829,1.709352 3.84311,1.556028 1.378249,0.09618 2.630725,-0.695453 3.588919,-1.590638 1.434194,-1.367718 1.74239,-3.605893 1.023391,-5.389766 -0.700793,-1.480256 -2.126351,-2.455955 -3.254508,-3.602601 -4.993918,-4.180487 -9.863108,-8.514775 -14.496869,-13.146622 -0.533068,-0.456712 -0.02576,-1.178121 0.07896,-1.716128 0.777945,-2.059197 0.8212,-4.331476 0.418577,-6.472898 C 27.269443,9.1960569 23.362545,5.4662066 18.773085,4.5218679 17.93426,4.361475 17.076011,4.2939178 16.22182,4.3068075 15.265209,4.3690152 14.239545,4.2965547 13.336854,4.6334334 Z M 37.712229,37.773068 c 0.338883,-0.334189 0.785021,-0.584096 1.30991,-0.713977 1.473552,-0.364622 2.95007,0.586112 3.217969,2.072065 0.141374,0.784162 -0.161947,1.68053 -0.764847,2.255193 -0.414341,0.394995 -0.824431,0.61313 -1.347978,0.717838 -0.440764,0.08815 -0.545832,0.08898 -1.008835,0.01187 -1.148039,-0.191254 -2.055169,-1.234067 -2.126157,-2.443766 -0.04358,-0.742565 0.224669,-1.410753 0.719938,-1.899201 z" />
  </g>
</svg>
