<?xml version="1.0" encoding="UTF-8" standalone="no"?>
<!-- Created with Inkscape (http://www.inkscape.org/) -->

<svg
   version="1.1"
   id="svg55"
   width="48"
   height="48"
   viewBox="0 0 48 48"
   sodipodi:docname="book.svg"
   inkscape:version="1.1.2 (0a00cf5339, 2022-02-04)"
   xmlns:inkscape="http://www.inkscape.org/namespaces/inkscape"
   xmlns:sodipodi="http://sodipodi.sourceforge.net/DTD/sodipodi-0.dtd"
   xmlns="http://www.w3.org/2000/svg"
   xmlns:svg="http://www.w3.org/2000/svg">
  <defs
     id="defs59">
    <inkscape:path-effect
       effect="fillet_chamfer"
       id="path-effect5274"
       is_visible="true"
       lpeversion="1"
       satellites_param="F,0,0,1,0,1,0,1 @ F,0,0,1,0,1,0,1 @ F,0,0,1,0,1,0,1 @ F,0,0,1,0,1,0,1"
       unit="px"
       method="auto"
       mode="F"
       radius="1"
       chamfer_steps="1"
       flexible="false"
       use_knot_distance="true"
       apply_no_radius="true"
       apply_with_radius="true"
       only_selected="false"
       hide_knots="false" />
    <inkscape:path-effect
       effect="fillet_chamfer"
       id="path-effect4807"
       is_visible="true"
       lpeversion="1"
       satellites_param="F,0,0,1,0,1,0,1 @ F,0,0,1,0,1,0,1 @ F,0,0,1,0,1,0,1 @ F,0,0,1,0,1,0,1"
       unit="px"
       method="auto"
       mode="F"
       radius="1"
       chamfer_steps="1"
       flexible="false"
       use_knot_distance="true"
       apply_no_radius="true"
       apply_with_radius="true"
       only_selected="false"
       hide_knots="false" />
    <inkscape:path-effect
       effect="fillet_chamfer"
       id="path-effect4721"
       is_visible="true"
       lpeversion="1"
       satellites_param="F,0,0,1,0,1,0,1 @ F,0,0,1,0,1,0,1 @ F,0,0,1,0,1,0,1 @ F,0,0,1,0,1,0,1"
       unit="px"
       method="auto"
       mode="F"
       radius="1"
       chamfer_steps="1"
       flexible="false"
       use_knot_distance="true"
       apply_no_radius="true"
       apply_with_radius="true"
       only_selected="false"
       hide_knots="false" />
    <inkscape:path-effect
       effect="fillet_chamfer"
       id="path-effect4013"
       is_visible="true"
       lpeversion="1"
       satellites_param="F,0,0,1,0,1,0,1 @ F,0,0,1,0,1,0,1 @ F,0,0,1,0,1,0,1 @ F,0,0,1,0,1,0,1 @ F,0,0,1,0,1,0,1 @ F,0,0,1,0,1,0,1 @ F,0,0,1,0,1,0,1 @ F,0,0,1,0,1,0,1 @ F,0,0,1,0,1,0,1 @ F,0,0,1,0,1,0,1 @ F,0,0,1,0,1,0,1 @ F,0,0,1,0,1,0,1 @ F,0,0,1,0,1,0,1 @ F,0,0,1,0,1,0,1 @ F,0,0,1,0,1,0,1 @ F,0,0,1,0,1,0,1 @ F,0,0,1,0,1,0,1 @ F,0,0,1,0,1,0,1"
       unit="px"
       method="auto"
       mode="F"
       radius="1"
       chamfer_steps="1"
       flexible="false"
       use_knot_distance="true"
       apply_no_radius="true"
       apply_with_radius="true"
       only_selected="false"
       hide_knots="false" />
    <inkscape:path-effect
       effect="fillet_chamfer"
       id="path-effect2053"
       is_visible="true"
       lpeversion="1"
       satellites_param="F,0,0,1,0,1,0,1 @ F,0,0,1,0,1,0,1 @ F,0,0,1,0,1,0,1 @ F,0,0,1,0,1,0,1"
       unit="px"
       method="auto"
       mode="F"
       radius="1"
       chamfer_steps="1"
       flexible="false"
       use_knot_distance="true"
       apply_no_radius="true"
       apply_with_radius="true"
       only_selected="false"
       hide_knots="false" />
    <inkscape:path-effect
       effect="fillet_chamfer"
       id="path-effect1762"
       is_visible="true"
       lpeversion="1"
       satellites_param="F,0,0,1,0,1,0,1 @ F,0,0,1,0,1,0,1 @ F,0,0,1,0,1,0,1 @ F,0,0,1,0,1,0,1"
       unit="px"
       method="auto"
       mode="F"
       radius="1"
       chamfer_steps="1"
       flexible="false"
       use_knot_distance="true"
       apply_no_radius="true"
       apply_with_radius="true"
       only_selected="false"
       hide_knots="false" />
  </defs>
  <sodipodi:namedview
     id="namedview57"
     pagecolor="#505050"
     bordercolor="#eeeeee"
     borderopacity="1"
     inkscape:pageshadow="0"
     inkscape:pageopacity="0"
     inkscape:pagecheckerboard="0"
     showgrid="false"
     inkscape:zoom="3.5944595"
     inkscape:cx="22.534682"
     inkscape:cy="37.279597"
     inkscape:window-width="1366"
     inkscape:window-height="708"
     inkscape:window-x="0"
     inkscape:window-y="0"
     inkscape:window-maximized="1"
     inkscape:current-layer="layer1" />
  <g
     inkscape:groupmode="layer"
     id="layer1"
     inkscape:label="Manual">
    <path
       id="rect2157"
       style="opacity:1;fill:#ffffff;fill-opacity:1;stroke-width:1.01097"
       d="M 44.193359,7.4277344 V 34.345703 c 0,0.552285 0.01807,1.465225 -0.17723,1.978577 -0.209193,0.54988 -0.589759,0.996273 -1.06699,1.255014 -0.480511,0.260519 -1.40662,0.244925 -1.958905,0.244925 H 30.242188 c -0.552285,0 -1.244329,0.375651 -1.572902,0.819485 -3.393978,4.584562 -6.57058,4.067551 -9.529057,0.0048 -0.325063,-0.4464 -1.013725,-0.82424 -1.56601,-0.82424 H 6.7441406 c -0.5522847,0 -1.4783807,0.01559 -1.9588837,-0.244914 C 4.3080226,37.320569 3.9274526,36.87418 3.7182549,36.324302 3.5229496,35.81094 3.5410156,34.897988 3.5410156,34.345703 V 7.4277344 a 0.9287515,0.9287515 49.58353 0 0 -0.8515625,-1 C 1.0525409,6.8790982 0.52639073,7.404551 0.26153209,8.0648464 0.05716134,8.5743447 0.07421875,9.4887309 0.07421875,10.041016 v 30.199218 c 0,0.552285 -0.01705601,1.466645 0.18729396,1.976121 0.26484589,0.660302 0.79098639,1.185765 1.45167819,1.450203 0.5096651,0.203991 1.4239775,0.186958 1.9762622,0.186958 H 16.910156 c 0.552285,0 1.300254,0.333131 1.702729,0.711151 3.220139,3.024475 6.899329,3.300951 11.186296,-0.07229 0.433983,-0.341483 1.216893,-0.638863 1.769178,-0.638863 h 13.123047 c 0.552285,0 1.466608,0.01708 1.976185,-0.187039 0.66019,-0.264451 1.185578,-0.789831 1.45004,-1.450015 0.204139,-0.509597 0.187057,-1.423943 0.187057,-1.976228 V 10.041016 c 0,-0.5522851 0.01708,-1.466608 -0.187039,-1.9761852 C 47.853198,7.4046411 47.327818,6.8792527 46.667634,6.614791 46.158037,6.4106524 45.243691,6.4277344 44.691406,6.4277344 a 0.78995279,0.78995279 116.47546 0 0 -0.498047,1 z"
       sodipodi:nodetypes="cssccsscssssccssssc"
       inkscape:path-effect="#path-effect4013"
       inkscape:original-d="M 44.193359,6.4277344 V 35.345703 c 0,1.372625 -0.982668,2.478516 -2.203125,2.478516 H 29.242188 c -3.829033,5.781599 -7.385374,5.052734 -10.667969,0 H 5.7441406 c -1.2204552,0 -2.203125,-1.105891 -2.203125,-2.478516 V 6.4277344 H 2.6894531 c -1.4479425,0 -2.61523435,1.1653387 -2.61523435,2.6132812 V 41.240234 c 0,1.447942 1.16729185,2.613282 2.61523435,2.613282 H 17.910156 c 3.572277,3.878301 7.71961,4.315243 12.658203,0 h 15.123047 c 1.447942,0 2.613282,-1.16534 2.613282,-2.613282 V 9.0410156 c 0,-1.4479425 -1.16534,-2.6132812 -2.613282,-2.6132812 z"
       inkscape:label="Outline" />
    <path
       id="rect4117"
       style="opacity:1;fill:#ffffff;fill-opacity:1;stroke-width:0.9801"
       d="M 8.0722427,1.2693176 C 10.551908,0.90592429 17.188011,0.39474759 21.850372,4.3012939 c 0.422951,0.3543863 0.738161,1.1210228 0.738161,1.6733075 V 34.702905 c 0,0.552285 -0.397405,0.792311 -0.905546,0.576254 C 17.315526,33.42216 12.545927,33.996356 8.0797546,34.55431 7.5318254,34.622763 7.0875658,34.229935 7.0875658,33.67765 V 2.4428271 c 0,-0.5522847 0.4383125,-1.0934402 0.9846769,-1.1735095 z"
       sodipodi:nodetypes="ccccc"
       inkscape:path-effect="#path-effect4721"
       inkscape:original-d="m 7.0875658,1.4428271 c 0,0 9.7155292,-2.21030825 15.5009672,3.5317743 V 35.702905 C 17.659965,33.177856 12.140828,34.057622 7.0875658,34.67765 Z"
       inkscape:label="Left Page" />
    <path
       id="path5270"
       style="opacity:1;fill:#ffffff;fill-opacity:1;stroke-width:0.9801"
       d="M 40.290257,1.2693175 C 37.810592,0.90592427 31.17449,0.39474765 26.512128,4.301294 26.089177,4.6556802 25.773967,5.4223167 25.773967,5.9746014 V 34.702905 c 0,0.552285 0.397405,0.792311 0.905546,0.576254 4.367462,-1.856999 9.137061,-1.282803 13.603232,-0.724849 0.547929,0.06845 0.992189,-0.324375 0.992189,-0.87666 V 2.4428271 c 0,-0.5522847 -0.438312,-1.0934402 -0.984677,-1.1735096 z"
       sodipodi:nodetypes="ccccc"
       inkscape:path-effect="#path-effect5274"
       inkscape:original-d="m 41.274934,1.4428271 c 0,0 -9.715528,-2.21030825 -15.500967,3.5317743 V 35.702905 c 4.928569,-2.525049 10.447706,-1.645283 15.500967,-1.025255 z"
       inkscape:label="Right Page" />
  </g>
</svg>
