<?xml version="1.0" encoding="UTF-8" standalone="no"?><svg version="1.1" id="svg55" viewBox="0 0 48 48" xmlns="http://www.w3.org/2000/svg" xmlns:svg="http://www.w3.org/2000/svg"><g id="layer1"><path id="rect2157" style="opacity:1;fill:#ffffff;fill-opacity:1;stroke-width:1.01097" d="M 44.193359,7.4277344 V 34.345703 c 0,0.552285 0.01807,1.465225 -0.17723,1.978577 -0.209193,0.54988 -0.589759,0.996273 -1.06699,1.255014 -0.480511,0.260519 -1.40662,0.244925 -1.958905,0.244925 H 30.242188 c -0.552285,0 -1.244329,0.375651 -1.572902,0.819485 -3.393978,4.584562 -6.57058,4.067551 -9.529057,0.0048 -0.325063,-0.4464 -1.013725,-0.82424 -1.56601,-0.82424 H 6.7441406 c -0.5522847,0 -1.4783807,0.01559 -1.9588837,-0.244914 C 4.3080226,37.320569 3.9274526,36.87418 3.7182549,36.324302 3.5229496,35.81094 3.5410156,34.897988 3.5410156,34.345703 V 7.4277344 a 0.9287515,0.9287515 49.58353 0 0 -0.8515625,-1 C 1.0525409,6.8790982 0.52639073,7.404551 0.26153209,8.0648464 0.05716134,8.5743447 0.07421875,9.4887309 0.07421875,10.041016 v 30.199218 c 0,0.552285 -0.01705601,1.466645 0.18729396,1.976121 0.26484589,0.660302 0.79098639,1.185765 1.45167819,1.450203 0.5096651,0.203991 1.4239775,0.186958 1.9762622,0.186958 H 16.910156 c 0.552285,0 1.300254,0.333131 1.702729,0.711151 3.220139,3.024475 6.899329,3.300951 11.186296,-0.07229 0.433983,-0.341483 1.216893,-0.638863 1.769178,-0.638863 h 13.123047 c 0.552285,0 1.466608,0.01708 1.976185,-0.187039 0.66019,-0.264451 1.185578,-0.789831 1.45004,-1.450015 0.204139,-0.509597 0.187057,-1.423943 0.187057,-1.976228 V 10.041016 c 0,-0.5522851 0.01708,-1.466608 -0.187039,-1.9761852 C 47.853198,7.4046411 47.327818,6.8792527 46.667634,6.614791 46.158037,6.4106524 45.243691,6.4277344 44.691406,6.4277344 a 0.78995279,0.78995279 116.47546 0 0 -0.498047,1 z"/><path id="rect4117" style="opacity:1;fill:#ffffff;fill-opacity:1;stroke-width:0.9801" d="M 8.0722427,1.2693176 C 10.551908,0.90592429 17.188011,0.39474759 21.850372,4.3012939 c 0.422951,0.3543863 0.738161,1.1210228 0.738161,1.6733075 V 34.702905 c 0,0.552285 -0.397405,0.792311 -0.905546,0.576254 C 17.315526,33.42216 12.545927,33.996356 8.0797546,34.55431 7.5318254,34.622763 7.0875658,34.229935 7.0875658,33.67765 V 2.4428271 c 0,-0.5522847 0.4383125,-1.0934402 0.9846769,-1.1735095 z"/><path id="path5270" style="opacity:1;fill:#ffffff;fill-opacity:1;stroke-width:0.9801" d="M 40.290257,1.2693175 C 37.810592,0.90592427 31.17449,0.39474765 26.512128,4.301294 26.089177,4.6556802 25.773967,5.4223167 25.773967,5.9746014 V 34.702905 c 0,0.552285 0.397405,0.792311 0.905546,0.576254 4.367462,-1.856999 9.137061,-1.282803 13.603232,-0.724849 0.547929,0.06845 0.992189,-0.324375 0.992189,-0.87666 V 2.4428271 c 0,-0.5522847 -0.438312,-1.0934402 -0.984677,-1.1735096 z"/></g></svg>