<?xml version="1.0" encoding="UTF-8" standalone="no"?><svg version="1.1" id="svg2" viewBox="0 0 50 50" xmlns="http://www.w3.org/2000/svg" xmlns:svg="http://www.w3.org/2000/svg"><g id="g8"><path id="rect871" style="display:inline;fill:#ffffff;fill-opacity:1;stroke-width:4.5;stroke-linecap:square;stroke-opacity:0.567951" d="m 23.63424,27.636415 c -0.176996,0.0034 -0.331445,0.453796 -0.336999,1.006084 -0.0075,0.745609 -0.01501,1.75777 -0.02267,2.503134 -0.0057,0.551728 -0.066,1.444235 -0.154513,1.989335 -0.386148,2.378156 -1.210017,4.747613 -3.18165,7.070778 -0.357311,0.421017 -1.11842,0.74152 -1.670705,0.74152 h -5.057158 a 1,1 135 0 0 -1,1 v 6 a 1,1 45 0 0 1,1 h 10.43203 12.43203 a 1,1 135 0 0 1,-1 v -6 a 1,1 45 0 0 -1,-1 h -5.057158 c -0.552285,0 -1.313375,-0.320509 -1.670799,-0.741424 -1.972772,-2.323205 -2.802283,-4.692704 -3.18979,-7.070902 -0.08881,-0.545058 -0.149134,-1.43798 -0.154809,-1.990204 -0.0077,-0.745579 -0.01517,-1.75774 -0.02267,-2.503135 -0.0056,-0.551793 -0.46416,-1.007576 -1.016344,-1.018127 a 34.667827,34.667827 179.44201 0 0 -1.328795,0.01294 z m -4.692642,14.164366 h 11.393913 a 1,1 45 0 1 1,1 v 2.38086 a 1,1 135 0 1 -1,1 H 18.941598 a 1,1 45 0 1 -1,-1 v -2.38086 a 1,1 135 0 1 1,-1 z"/><path id="rect4796" style="display:inline;fill:#ffffff;fill-opacity:1;stroke-width:4.5;stroke-linecap:square;stroke-opacity:0.567951" d="m 12.335938,3.9296875 v 9.4511715 c 0,0.552285 0.0054,1.449027 0.07342,1.996866 0.782105,6.298932 7.450881,12.925465 11.265896,14.312982 0.517895,0.188358 1.416751,0.188355 1.934657,7e-6 3.815265,-1.3875 10.485574,-8.014054 11.267824,-14.313002 0.06803,-0.54783 0.07343,-1.444568 0.07343,-1.996853 V 3.9296875 a 1,1 45 0 0 -1,-1 H 25.642578 13.335938 a 1,1 135 0 0 -1,1 z"/><path style="display:inline;fill:none;fill-opacity:1;stroke:#ffffff;stroke-width:2.5;stroke-linecap:round;stroke-miterlimit:4;stroke-dasharray:none;stroke-opacity:1" d="m 38.868975,7.8093714 c 2.461404,-0.1899595 3.418974,-0.1236593 3.608812,2.1256436 l 0.24604,4.287266 c 0.216993,2.088606 -2.294673,4.313154 -4.512299,4.325926" id="path5874"/><path style="display:inline;fill:none;fill-opacity:1;stroke:#ffffff;stroke-width:2.5;stroke-linecap:round;stroke-miterlimit:4;stroke-dasharray:none;stroke-opacity:1" d="M 10.372655,7.8093714 C 7.9112511,7.6194119 6.9536811,7.6857121 6.7638431,9.935015 l -0.24604,4.287266 c -0.216993,2.088606 2.294673,4.313154 4.5122989,4.325926" id="path9307"/></g></svg>