<?xml version="1.0" encoding="UTF-8" standalone="no"?>
<!-- Created with Inkscape (http://www.inkscape.org/) -->

<svg
   version="1.1"
   id="svg2"
   width="50"
   height="50"
   viewBox="0 0 50 50"
   sodipodi:docname="Controllers.svg"
   inkscape:version="1.1.2 (0a00cf5339, 2022-02-04, custom)"
   xmlns:inkscape="http://www.inkscape.org/namespaces/inkscape"
   xmlns:sodipodi="http://sodipodi.sourceforge.net/DTD/sodipodi-0.dtd"
   xmlns="http://www.w3.org/2000/svg"
   xmlns:svg="http://www.w3.org/2000/svg">
  <defs
     id="defs6" />
  <sodipodi:namedview
     id="namedview4"
     pagecolor="#ff0eff"
     bordercolor="#111111"
     borderopacity="1"
     inkscape:pageshadow="0"
     inkscape:pageopacity="0"
     inkscape:pagecheckerboard="1"
     showgrid="false"
     showguides="true"
     inkscape:guide-bbox="true"
     fit-margin-top="0"
     fit-margin-left="0"
     fit-margin-right="0"
     fit-margin-bottom="0"
     inkscape:zoom="4.37"
     inkscape:cx="23.340961"
     inkscape:cy="19.336384"
     inkscape:window-width="1366"
     inkscape:window-height="703"
     inkscape:window-x="0"
     inkscape:window-y="0"
     inkscape:window-maximized="1"
     inkscape:current-layer="g8">
    <sodipodi:guide
       position="25.238502,37.566423"
       orientation="1,0"
       id="guide827" />
  </sodipodi:namedview>
  <g
     inkscape:groupmode="layer"
     inkscape:label="ControllerIcon"
     id="g8"
     transform="translate(0.29571038,-12.512269)">
    <path
       id="path975"
       style="display:inline;fill:#ffffff;fill-opacity:1;stroke-width:4.5;stroke-linecap:square;stroke-opacity:0.567951"
       d="m 14.915661,23.117034 c -1.071408,0.01951 -2.206226,0.242508 -3.161783,0.572808 -0.754353,0.291095 -1.485249,0.712746 -2.124616,1.158966 -9.04237093,6.44771 -10.26866648,12.755949 -9.85647698,18.367796 0.13271293,1.78148 1.00802887,3.411202 2.26359588,4.776767 1.8036524,1.729094 3.9388687,3.112903 6.1426638,3.673991 1.4844181,0.337683 2.7478173,0.330899 4.0125623,-0.08126 2.752473,-1.032077 8.73015,-3.883256 12.51306,-3.70928 3.858616,-0.257706 9.761711,2.677203 12.514184,3.70928 1.264746,0.412159 2.528144,0.418942 4.012562,0.08126 2.203795,-0.561088 4.339012,-1.944897 6.142664,-3.673991 1.255567,-1.365565 2.128948,-2.995287 2.261661,-4.776767 0.379273,-5.163692 -0.627153,-10.916991 -7.834661,-16.826031 -1.667565,-1.382608 -3.271946,-2.551943 -5.230008,-3.009864 -1.803103,-0.412591 -3.876455,-0.409584 -4.998364,0.49159 l -0.437594,0.316195 c -2.572861,1.493276 -5.215338,1.163451 -6.429882,1.23083 -1.122291,-0.06226 -3.463826,0.214631 -5.843046,-0.921134 -0.487261,-0.205519 -0.845806,-0.490878 -1.230898,-0.774937 -0.696645,-0.452133 -1.676304,-0.625147 -2.715624,-0.606219 z m 20.163415,7.460193 c 1.504454,0 2.724054,1.2196 2.724054,2.724053 0,1.504454 -1.2196,2.724054 -2.724054,2.724054 -1.504453,0 -2.724054,-1.2196 -2.724054,-2.724054 0,-1.504453 1.219601,-2.724053 2.724054,-2.724053 z m -22.156154,0.771944 h 3.242554 c 0.360482,0 0.651992,0.289575 0.651992,0.650058 v 3.368307 h 3.366373 c 0.360484,0 0.651993,0.289576 0.651993,0.650059 v 3.242553 c 0,0.360482 -0.291509,0.650058 -0.651993,0.650058 h -3.366373 v 3.368309 c 0,0.360482 -0.29151,0.650058 -0.651992,0.650058 h -3.242554 c -0.360482,0 -0.650058,-0.289576 -0.650058,-0.650058 V 39.910206 H 8.9045562 c -0.3604831,0 -0.6500583,-0.289576 -0.6500583,-0.650058 v -3.242553 c 0,-0.360483 0.2895752,-0.650059 0.6500583,-0.650059 h 3.3683078 v -3.368307 c 0,-0.360483 0.289576,-0.650058 0.650058,-0.650058 z m 17.921101,3.465043 c 1.504454,0 2.724054,1.2196 2.724054,2.724054 0,1.504453 -1.2196,2.724053 -2.724054,2.724053 -1.504453,0 -2.724053,-1.2196 -2.724053,-2.724053 0,-1.504454 1.2196,-2.724054 2.724053,-2.724054 z m 8.47204,0 c 1.504453,0 2.724053,1.2196 2.724053,2.724054 0,1.504453 -1.2196,2.724053 -2.724053,2.724053 -1.504454,0 -2.724054,-1.2196 -2.724054,-2.724053 0,-1.504454 1.2196,-2.724054 2.724054,-2.724054 z m -4.236987,4.235052 c 1.504454,0 2.724054,1.2196 2.724054,2.724053 0,1.504454 -1.2196,2.724054 -2.724054,2.724054 -1.504453,0 -2.724054,-1.2196 -2.724054,-2.724054 0,-1.504453 1.219601,-2.724053 2.724054,-2.724053 z"
       sodipodi:nodetypes="sccccccccccccccccccssssssssscsssscsssscsssscsssssssssssssssss" />
  </g>
</svg>
