<?xml version="1.0" encoding="UTF-8" standalone="no"?><svg version="1.1" id="svg2" viewBox="0 0 50 50" xmlns="http://www.w3.org/2000/svg" xmlns:svg="http://www.w3.org/2000/svg"><g id="g8"><rect style="fill:#ffffff;fill-opacity:1;stroke-width:4.5;stroke-linecap:square;stroke-opacity:0.567951" id="rect871" width="28.513" height="3.849" x="17.242" y="10.577" ry=".698"/><path id="rect1113" style="fill:#ffffff;fill-opacity:1;stroke-width:4.5;stroke-linecap:square;stroke-opacity:0.567951" d="m 35.005859,19.324219 c -0.38667,0 -0.699218,0.310595 -0.699218,0.697265 v 2.917969 H 4.9316406 c -0.3866702,0 -0.6972656,0.310596 -0.6972656,0.697266 v 2.453125 c 0,0.38667 0.3105954,0.697265 0.6972656,0.697265 H 34.306641 v 3.169922 c 0,0.386671 0.312548,0.697266 0.699218,0.697266 h 3.140625 c 0.386671,0 0.699219,-0.310595 0.699219,-0.697266 v -9.935547 c 0,-0.38667 -0.312548,-0.697265 -0.699219,-0.697265 z"/><rect style="fill:#ffffff;fill-opacity:1;stroke-width:4.5;stroke-linecap:square;stroke-opacity:0.567951" id="rect1115" width="18.314" height="3.849" x="27.441" y="35.61" ry=".698" rx=".698"/><path id="rect1117" style="fill:#ffffff;fill-opacity:1;stroke-width:4.5;stroke-linecap:square;stroke-opacity:0.567951" d="m 20.300781,31.933594 c -0.38667,0 -0.699219,0.310595 -0.699219,0.697265 v 2.978516 H 4.9316406 c -0.3866702,0 -0.6972656,0.312549 -0.6972656,0.699219 v 2.453125 c 0,0.38667 0.3105954,0.697265 0.6972656,0.697265 H 19.601562 v 3.105469 c 0,0.38667 0.312549,0.697266 0.699219,0.697266 h 3.140625 c 0.386671,0 0.699219,-0.310596 0.699219,-0.697266 v -9.933594 c 0,-0.38667 -0.312548,-0.697265 -0.699219,-0.697265 z"/><path id="rect1127" style="fill:#ffffff;fill-opacity:1;stroke-width:4.5;stroke-linecap:square;stroke-opacity:0.567951" d="m 9.90625,6.8613281 c -0.3866704,0 -0.6972656,0.3125484 -0.6972656,0.6992188 V 10.576172 H 4.9316406 c -0.3866702,0 -0.6972656,0.312548 -0.6972656,0.699219 v 2.453125 c 0,0.38667 0.3105954,0.697265 0.6972656,0.697265 h 4.2773438 v 3.06836 c 0,0.38667 0.3105952,0.697265 0.6972656,0.697265 h 3.142578 c 0.386671,0 0.697266,-0.310595 0.697266,-0.697265 V 7.5605469 c 0,-0.3866704 -0.310595,-0.6992188 -0.697266,-0.6992188 z"/><rect style="fill:#ffffff;fill-opacity:1;stroke-width:4.5;stroke-linecap:square;stroke-opacity:0.567951" id="rect1209" width="3.811" height="3.849" x="41.945" y="22.939" ry=".698" rx=".698"/></g></svg>