<?xml version="1.0" encoding="UTF-8" standalone="no"?>
<!-- Created with Inkscape (http://www.inkscape.org/) -->

<svg
   version="1.1"
   id="svg2"
   width="50"
   height="50"
   viewBox="0 0 50 50"
   sodipodi:docname="Games.svg"
   inkscape:version="1.1.2 (0a00cf5339, 2022-02-04, custom)"
   xmlns:inkscape="http://www.inkscape.org/namespaces/inkscape"
   xmlns:sodipodi="http://sodipodi.sourceforge.net/DTD/sodipodi-0.dtd"
   xmlns="http://www.w3.org/2000/svg"
   xmlns:svg="http://www.w3.org/2000/svg">
  <defs
     id="defs6" />
  <sodipodi:namedview
     id="namedview4"
     pagecolor="#ff40ff"
     bordercolor="#111111"
     borderopacity="1"
     inkscape:pageshadow="0"
     inkscape:pageopacity="0"
     inkscape:pagecheckerboard="1"
     showgrid="false"
     showguides="true"
     inkscape:guide-bbox="true"
     inkscape:zoom="6.1801133"
     inkscape:cx="18.608073"
     inkscape:cy="18.041741"
     inkscape:window-width="1366"
     inkscape:window-height="703"
     inkscape:window-x="0"
     inkscape:window-y="0"
     inkscape:window-maximized="1"
     inkscape:current-layer="g8">
    <sodipodi:guide
       position="4.23452,23.212143"
       orientation="1,0"
       id="guide1121" />
    <sodipodi:guide
       position="45.755219,35.573687"
       orientation="1,0"
       id="guide1123" />
    <sodipodi:guide
       position="26.134444,12.468938"
       orientation="0,-1"
       id="guide1317" />
    <sodipodi:guide
       position="13.901602,37.471396"
       orientation="0,-1"
       id="guide1321" />
  </sodipodi:namedview>
  <g
     inkscape:groupmode="layer"
     inkscape:label="GamesIcon"
     id="g8">
    <rect
       style="fill:#ffffff;fill-opacity:1;stroke-width:4.5;stroke-linecap:square;stroke-opacity:0.567951"
       id="rect871"
       width="28.513363"
       height="3.8492923"
       x="17.241858"
       y="10.577021"
       ry="0.69796073" />
    <path
       id="rect1113"
       style="fill:#ffffff;fill-opacity:1;stroke-width:4.5;stroke-linecap:square;stroke-opacity:0.567951"
       d="m 35.005859,19.324219 c -0.38667,0 -0.699218,0.310595 -0.699218,0.697265 v 2.917969 H 4.9316406 c -0.3866702,0 -0.6972656,0.310596 -0.6972656,0.697266 v 2.453125 c 0,0.38667 0.3105954,0.697265 0.6972656,0.697265 H 34.306641 v 3.169922 c 0,0.386671 0.312548,0.697266 0.699218,0.697266 h 3.140625 c 0.386671,0 0.699219,-0.310595 0.699219,-0.697266 v -9.935547 c 0,-0.38667 -0.312548,-0.697265 -0.699219,-0.697265 z" />
    <rect
       style="fill:#ffffff;fill-opacity:1;stroke-width:4.5;stroke-linecap:square;stroke-opacity:0.567951"
       id="rect1115"
       width="18.314281"
       height="3.8492923"
       x="27.440943"
       y="35.609661"
       ry="0.69796073"
       rx="0.69796079" />
    <path
       id="rect1117"
       style="fill:#ffffff;fill-opacity:1;stroke-width:4.5;stroke-linecap:square;stroke-opacity:0.567951"
       d="m 20.300781,31.933594 c -0.38667,0 -0.699219,0.310595 -0.699219,0.697265 v 2.978516 H 4.9316406 c -0.3866702,0 -0.6972656,0.312549 -0.6972656,0.699219 v 2.453125 c 0,0.38667 0.3105954,0.697265 0.6972656,0.697265 H 19.601562 v 3.105469 c 0,0.38667 0.312549,0.697266 0.699219,0.697266 h 3.140625 c 0.386671,0 0.699219,-0.310596 0.699219,-0.697266 v -9.933594 c 0,-0.38667 -0.312548,-0.697265 -0.699219,-0.697265 z" />
    <path
       id="rect1127"
       style="fill:#ffffff;fill-opacity:1;stroke-width:4.5;stroke-linecap:square;stroke-opacity:0.567951"
       d="m 9.90625,6.8613281 c -0.3866704,0 -0.6972656,0.3125484 -0.6972656,0.6992188 V 10.576172 H 4.9316406 c -0.3866702,0 -0.6972656,0.312548 -0.6972656,0.699219 v 2.453125 c 0,0.38667 0.3105954,0.697265 0.6972656,0.697265 h 4.2773438 v 3.06836 c 0,0.38667 0.3105952,0.697265 0.6972656,0.697265 h 3.142578 c 0.386671,0 0.697266,-0.310595 0.697266,-0.697265 V 7.5605469 c 0,-0.3866704 -0.310595,-0.6992188 -0.697266,-0.6992188 z" />
    <rect
       style="fill:#ffffff;fill-opacity:1;stroke-width:4.5;stroke-linecap:square;stroke-opacity:0.567951"
       id="rect1209"
       width="3.8105757"
       height="3.8492923"
       x="41.944641"
       y="22.938564"
       ry="0.69796073"
       rx="0.69796073" />
  </g>
</svg>
