<?xml version="1.0" encoding="UTF-8" standalone="no"?><svg version="1.1" id="svg2" viewBox="0 0 50 50" xmlns="http://www.w3.org/2000/svg" xmlns:svg="http://www.w3.org/2000/svg"><g id="g8"><path id="path7349" style="display:inline;fill:none;fill-opacity:1;stroke:#ffffff;stroke-width:4;stroke-linecap:square;stroke-miterlimit:4;stroke-dasharray:none;stroke-opacity:1" d="M 25,9.7323432 V 36.844848 m 11.077549,3.179873 c 3.712133,1.512526 8.273521,1.698347 11.575332,0.269323 V 25.013193 L 47.630593,11.534025 C 44.412057,12.817082 39.137523,12.70383 35.473892,10.870931 33.277788,9.5343101 31.346001,8.714432 29.199587,8.7312033 27.911739,8.741266 26.546351,9.0519947 25,9.7323432 23.453649,9.0519947 22.088263,8.7412656 20.800414,8.7312033 18.654,8.714432 16.722212,9.5343101 14.526108,10.870931 10.862477,12.70383 5.5879432,12.817082 2.3694086,11.534025 l -0.022288,13.479168 v 15.280851 c 3.3018105,1.429024 7.8631974,1.243203 11.5753314,-0.269323 4.717383,-2.36046 6.52368,-3.188286 11.077548,-1.277893 4.553869,-1.910393 6.360165,-1.082567 11.077549,1.277893 z"/><path id="path21090" style="display:inline;fill:#ffffff;fill-opacity:1;stroke-width:2.00001;stroke-linecap:square;stroke-opacity:0.539085" d="m 39.824678,19.850018 c 0,1.217788 -0.987212,2.205 -2.205,2.205 -1.217788,0 -2.205,-0.987212 -2.205,-2.205 0,-1.217788 0.987212,-2.205 2.205,-2.205 1.217788,0 2.205,0.987212 2.205,2.205 z"/><path id="rect21318" style="display:inline;fill:#ffffff;fill-opacity:1;stroke:none;stroke-width:2;stroke-linecap:square;stroke-miterlimit:4;stroke-dasharray:none;stroke-opacity:0.539085" d="m 32.837802,23.339274 v 2.133836 c 0,0.121779 0.09872,0.2205 0.2205,0.2205 h 2.000419 c 0.121779,0 0.2205,0.09872 0.2205,0.2205 v 4.302582 c 0,0.121779 -0.09872,0.2205 -0.2205,0.2205 h -1.952286 c -0.121779,0 -0.2205,0.09872 -0.2205,0.2205 v 1.878085 c 0,0.121779 0.09872,0.2205 0.2205,0.2205 h 1.952286 4.569346 2.155463 c 0.121779,0 0.2205,-0.09872 0.2205,-0.2205 v -1.878085 c 0,-0.121779 -0.09872,-0.2205 -0.2205,-0.2205 h -1.714463 c -0.121779,0 -0.2205,-0.09872 -0.2205,-0.2205 v -5.308365 -1.569053 c 0,-0.121779 -0.09872,-0.2205 -0.2205,-0.2205 h -4.128346 -2.441419 c -0.121778,0 -0.2205,0.09872 -0.2205,0.2205 z"/></g></svg>