<?xml version="1.0" encoding="UTF-8" standalone="no"?><svg version="1.1" id="svg2" viewBox="0 0 50 50" xmlns="http://www.w3.org/2000/svg" xmlns:svg="http://www.w3.org/2000/svg"><g id="g8"><path id="path1269" style="fill:#ffffff;fill-opacity:1;stroke:none;stroke-width:4;stroke-linecap:square;stroke-linejoin:round;stroke-opacity:0.508637" d="m 33.472656,17.9375 v 4.636719 a 0.5,0.5 135 0 1 -0.5,0.5 h -8.53125 c -0.276142,0 -0.743334,-0.0091 -0.974692,0.135031 -0.116171,0.07236 -0.214403,0.17059 -0.286761,0.286761 -0.144103,0.231357 -0.135031,0.69855 -0.135031,0.974692 v 1.064453 c 0,0.276142 -0.0091,0.743334 0.135031,0.974692 0.07236,0.116171 0.17059,0.214404 0.286761,0.286762 0.231357,0.144103 0.69855,0.135031 0.974692,0.135031 h 8.53125 a 0.5,0.5 45 0 1 0.5,0.5 v 4.52539 a 0.25464417,0.25464417 26.989214 0 0 0.404398,0.205955 l 9.519329,-6.921675 a 0.363559,0.363559 90.000002 0 0 0,-0.58809 L 33.877054,17.731545 A 0.25464415,0.25464415 153.01079 0 0 33.472656,17.9375 Z"/><path id="path2452" style="color:#000000;fill:#ffffff;fill-opacity:1;stroke:none;stroke-linecap:square;stroke-linejoin:round;-inkscape-stroke:none" d="m 13.619141,3.8730469 c -3.000013,0 -5.4765629,2.4785031 -5.4765629,5.4785156 V 40.808594 c 0,3.000012 2.4765499,5.476562 5.4765629,5.476562 h 22.957031 c 3.000012,0 5.476562,-2.47655 5.476562,-5.476562 v -9.039063 l -4,2.908203 v 6.13086 c 0,0.853203 -0.623359,1.476562 -1.476562,1.476562 H 13.619141 c -0.853204,0 -1.476563,-0.623359 -1.476563,-1.476562 V 9.3515625 c 0,-0.8532037 0.623359,-1.4785156 1.476563,-1.4785156 h 22.957031 c 0.853203,0 1.476562,0.6253119 1.476562,1.4785156 V 15.21875 l 4,2.908203 V 9.3515625 c 0,-3.0000125 -2.47655,-5.4785156 -5.476562,-5.4785156 z"/></g></svg>