<?xml version="1.0" encoding="UTF-8" standalone="no"?>
<!-- Created with Inkscape (http://www.inkscape.org/) -->

<svg
   version="1.1"
   id="svg2"
   width="50"
   height="50"
   viewBox="0 0 50 50"
   sodipodi:docname="Restart.svg"
   inkscape:version="1.1.2 (0a00cf5339, 2022-02-04, custom)"
   xmlns:inkscape="http://www.inkscape.org/namespaces/inkscape"
   xmlns:sodipodi="http://sodipodi.sourceforge.net/DTD/sodipodi-0.dtd"
   xmlns="http://www.w3.org/2000/svg"
   xmlns:svg="http://www.w3.org/2000/svg">
  <defs
     id="defs6">
    <inkscape:path-effect
       effect="fillet_chamfer"
       id="path-effect2998"
       is_visible="true"
       lpeversion="1"
       satellites_param="F,0,0,1,0,0.5,0,1 @ F,0,0,1,0,0.5,0,1 @ F,0,0,1,0,0.5,0,1 @ F,0,0,1,0,0.5,0,1 @ F,0,0,1,0,0.5,0,1 @ F,0,0,1,0,0.5,0,1 @ F,0,0,1,0,0.5,0,1 @ F,0,0,1,0,0.5,0,1 @ F,0,0,1,0,0.5,0,1 @ F,0,0,1,0,0.5,0,1 @ F,0,0,1,0,0.5,0,1 @ F,0,0,1,0,0.5,0,1 @ F,0,0,1,0,0.5,0,1 @ F,0,0,1,0,0.5,0,1 @ F,0,0,1,0,0.5,0,1 @ F,0,0,1,0,0.5,0,1"
       unit="px"
       method="auto"
       mode="F"
       radius="0.5"
       chamfer_steps="1"
       flexible="false"
       use_knot_distance="true"
       apply_no_radius="true"
       apply_with_radius="true"
       only_selected="false"
       hide_knots="false" />
  </defs>
  <sodipodi:namedview
     id="namedview4"
     pagecolor="#ff3cff"
     bordercolor="#111111"
     borderopacity="1"
     inkscape:pageshadow="0"
     inkscape:pageopacity="0"
     inkscape:pagecheckerboard="1"
     showgrid="false"
     showguides="true"
     inkscape:guide-bbox="true"
     inkscape:zoom="6.1801133"
     inkscape:cx="43.52671"
     inkscape:cy="25.646779"
     inkscape:window-width="1366"
     inkscape:window-height="703"
     inkscape:window-x="0"
     inkscape:window-y="0"
     inkscape:window-maximized="1"
     inkscape:current-layer="g8">
    <sodipodi:guide
       position="35.224185,41.827937"
       orientation="-0.70710678,-0.70710678"
       id="guide1201" />
    <sodipodi:guide
       position="44.16476,32.837529"
       orientation="1,0"
       id="guide1416" />
    <sodipodi:guide
       position="44.078213,33.053875"
       orientation="0,-1"
       id="guide1418" />
    <sodipodi:guide
       position="38.615561,40.503432"
       orientation="1,0"
       id="guide2284" />
    <sodipodi:guide
       position="39.232896,41.019312"
       orientation="0,-1"
       id="guide2324" />
  </sodipodi:namedview>
  <g
     inkscape:groupmode="layer"
     inkscape:label="Restart Icon"
     id="g8">
    <path
       id="path849"
       style="color:#000000;display:inline;fill:#ffffff;fill-opacity:1;stroke-width:1;stroke-linecap:square;-inkscape-stroke:none"
       d="M 43.809001,4.1196179 39.009358,8.878429 A 1100.0161,1100.0161 135.2708 0 1 38.298917,9.5821857 0.10020089,0.10020089 133.68691 0 1 38.437335,9.4372725 C 38.595995,9.2766718 38.545705,9.0117409 38.317528,8.8562705 38.058451,8.6797463 37.745817,8.4747912 37.484048,8.302404 37.253638,8.1506685 36.884233,7.8980052 36.653038,7.7470088 30.866791,3.9679346 23.337833,3.1355639 16.634891,6.1600708 16.383203,6.2736376 15.97953,6.4674297 15.733496,6.5928026 5.8395447,11.634523 1.6218343,23.646001 6.1893502,33.767456 c 0.1135783,0.251686 0.3073817,0.655355 0.4327605,0.901386 5.0418303,9.893589 17.0509893,14.109584 27.1726843,9.542188 0.251688,-0.113574 0.655363,-0.307366 0.901397,-0.432738 6.975522,-3.55451 11.12667,-10.570978 11.369523,-17.948336 0.0091,-0.275986 -0.213208,-0.509156 -0.489113,-0.520602 l -3.897344,-0.161677 c -0.275905,-0.01145 -0.497641,0.203193 -0.504978,0.479226 -0.149539,5.625379 -3.286067,10.960982 -8.60777,13.718252 -0.245167,0.127025 -0.648883,0.320838 -0.90134,0.432707 C 23.944846,43.198908 14.940116,40.036605 11.055252,32.539167 10.928217,32.294 10.734391,31.890285 10.622518,31.637831 7.201411,23.917726 10.365431,14.91264 17.863171,11.027897 c 0.24517,-0.127028 0.64889,-0.320843 0.901348,-0.432708 5.44284,-2.4117379 11.522779,-1.548902 15.998008,1.796468 0.221156,0.165321 0.236698,0.46321 0.04059,0.657621 l -3.57498,3.544022 a 0.20583417,0.20583417 67.624586 0 0 0.144912,0.352012 h 12.205078 a 0.50327132,0.50327132 135.18682 0 0 0.503261,-0.499989 l 0.07941,-12.1777555 a 0.20644826,0.20644826 22.809202 0 0 -0.3518,-0.1479496 z"
       inkscape:path-effect="#path-effect2998"
       inkscape:original-d="m 44.164062,3.7675781 -5.509765,5.4628907 -0.568359,0.5625 0.638671,-0.6464844 C 38.389387,8.8844599 37.417718,8.2656564 37.068359,8.0253906 31.101348,3.921678 23.157197,3.0223262 16.181641,6.3710938 5.8171484,11.346794 1.4245062,23.856539 6.4003906,34.220703 11.376276,44.584869 23.883554,48.975699 34.248047,44 41.653751,40.444731 46.007348,33.045885 46.076172,25.330078 l -4.896484,-0.203125 c 0.02949,5.96367 -3.306582,11.679092 -9.060547,14.441406 -7.968914,3.825651 -17.46132,0.492103 -21.28711,-7.476562 -3.8257933,-7.96866 -0.490399,-17.461459 7.478516,-21.287109 5.7174,-2.744763 12.217492,-1.8015101 16.847656,1.892578 l -4.285156,4.248046 h 13.205078 z" />
  </g>
</svg>
