<?xml version="1.0" encoding="UTF-8" standalone="no"?><svg version="1.1" id="svg2" viewBox="0 0 50 50" xmlns="http://www.w3.org/2000/svg" xmlns:svg="http://www.w3.org/2000/svg"><g id="g8"><path id="path849" style="color:#000000;display:inline;fill:#ffffff;fill-opacity:1;stroke-width:1;stroke-linecap:square;-inkscape-stroke:none" d="M 43.809001,4.1196179 39.009358,8.878429 A 1100.0161,1100.0161 135.2708 0 1 38.298917,9.5821857 0.10020089,0.10020089 133.68691 0 1 38.437335,9.4372725 C 38.595995,9.2766718 38.545705,9.0117409 38.317528,8.8562705 38.058451,8.6797463 37.745817,8.4747912 37.484048,8.302404 37.253638,8.1506685 36.884233,7.8980052 36.653038,7.7470088 30.866791,3.9679346 23.337833,3.1355639 16.634891,6.1600708 16.383203,6.2736376 15.97953,6.4674297 15.733496,6.5928026 5.8395447,11.634523 1.6218343,23.646001 6.1893502,33.767456 c 0.1135783,0.251686 0.3073817,0.655355 0.4327605,0.901386 5.0418303,9.893589 17.0509893,14.109584 27.1726843,9.542188 0.251688,-0.113574 0.655363,-0.307366 0.901397,-0.432738 6.975522,-3.55451 11.12667,-10.570978 11.369523,-17.948336 0.0091,-0.275986 -0.213208,-0.509156 -0.489113,-0.520602 l -3.897344,-0.161677 c -0.275905,-0.01145 -0.497641,0.203193 -0.504978,0.479226 -0.149539,5.625379 -3.286067,10.960982 -8.60777,13.718252 -0.245167,0.127025 -0.648883,0.320838 -0.90134,0.432707 C 23.944846,43.198908 14.940116,40.036605 11.055252,32.539167 10.928217,32.294 10.734391,31.890285 10.622518,31.637831 7.201411,23.917726 10.365431,14.91264 17.863171,11.027897 c 0.24517,-0.127028 0.64889,-0.320843 0.901348,-0.432708 5.44284,-2.4117379 11.522779,-1.548902 15.998008,1.796468 0.221156,0.165321 0.236698,0.46321 0.04059,0.657621 l -3.57498,3.544022 a 0.20583417,0.20583417 67.624586 0 0 0.144912,0.352012 h 12.205078 a 0.50327132,0.50327132 135.18682 0 0 0.503261,-0.499989 l 0.07941,-12.1777555 a 0.20644826,0.20644826 22.809202 0 0 -0.3518,-0.1479496 z"/></g></svg>