<?xml version="1.0" encoding="UTF-8" standalone="no"?><svg version="1.1" id="svg2" viewBox="0 0 50 50" xmlns="http://www.w3.org/2000/svg" xmlns:svg="http://www.w3.org/2000/svg"><g id="g8"><path id="path849" style="color:#000000;display:inline;fill:#ffffff;fill-opacity:1;stroke-linecap:square;-inkscape-stroke:none" d="m 33.26115,8.531207 -1.637534,3.076258 c -0.129756,0.243758 -0.03221,0.536471 0.213089,0.663267 4.549895,2.351897 7.688335,7.023965 7.869828,12.473521 0.0092,0.275966 0.0092,0.723819 0,0.999796 -0.256116,7.690736 -6.400742,13.837155 -14.091403,14.093341 -0.27597,0.0092 -0.723827,0.0092 -0.999804,0 -7.690736,-0.256193 -13.837155,-6.402616 -14.093341,-14.093353 -0.0092,-0.27597 -0.0092,-0.723827 0,-0.999804 0.180797,-5.42772 3.29527,-10.08517 7.816094,-12.446232 0.244749,-0.127824 0.341884,-0.421384 0.212122,-0.665139 L 16.914643,8.560498 C 16.784881,8.316743 16.478731,8.2178784 16.23456,8.3468404 10.30504,11.478601 6.2043597,17.636098 6.0201436,24.744205 c -0.00715,0.276037 -0.00715,0.723838 -3.1e-6,0.99988 0.2623006,10.126315 8.4688475,18.332858 18.5951655,18.59515 0.276033,0.0071 0.72383,0.0071 0.999872,-1e-6 10.126258,-0.2623 18.330966,-8.468847 18.593199,-18.595165 0.0071,-0.276033 0.0071,-0.72383 -10e-7,-0.999872 C 44.023692,17.614055 39.900483,11.438828 33.941947,8.3161088 33.697367,8.1879309 33.390906,8.2874488 33.26115,8.531207 Z"/><rect style="display:inline;fill:#ffffff;fill-opacity:1;stroke:none;stroke-width:5;stroke-linecap:square;stroke-miterlimit:4;stroke-dasharray:none;stroke-opacity:0.567951" id="rect2221" width="4.213" height="21.108" x="22.91" y="4.037" ry=".63" rx=".63"/></g></svg>