<?xml version="1.0" encoding="UTF-8" standalone="no"?><svg version="1.1" id="svg2" viewBox="0 0 50 50" xmlns="http://www.w3.org/2000/svg" xmlns:svg="http://www.w3.org/2000/svg"><g id="g8"><path d="m 29.356267,6.4055868 0,4.4520992 c 0,0.276142 0.219641,0.543777 0.487824,0.609525 5.813072,1.425132 10.183265,6.821447 10.407343,13.020832 0.01,0.275946 0.01,0.723833 0,0.99978 -0.224079,6.199384 -4.594272,11.595698 -10.407345,13.020832 -0.268182,0.06575 -0.487822,0.333383 -0.487822,0.609525 v 4.4521 c 0,0.276142 0.221717,0.46876 0.493861,0.421988 8.830055,-1.517597 15.617977,-9.300085 15.855976,-18.504398 0.0071,-0.276039 0.0071,-0.72384 0,-0.999882 C 45.468102,15.283674 38.680178,7.5011924 29.850122,5.983598 29.577982,5.936826 29.356267,6.1294444 29.356267,6.4055868 Z m 0,10.9041962 v 15.356296 c 0,0.276142 0.216746,0.442208 0.475819,0.346856 2.709329,-0.997163 4.786182,-3.939256 4.963929,-7.525207 0.01367,-0.275775 0.0137,-0.723819 -5.3e-5,-0.99959 -0.1783,-3.574539 -2.259443,-6.352845 -4.972934,-7.49944 -0.254303,-0.107457 -0.466761,0.04494 -0.466761,0.321085 z" style="display:inline;fill:#ffffff;fill-opacity:1;stroke-width:1" id="path981"/><path d="M 24.212267,6.976776 12.630646,18.558397 A 1.2071068,1.2071068 157.5 0 1 11.777093,18.91195 H 4.5846074 a 0.5,0.5 135 0 0 -0.5,0.5 v 11.288727 a 0.5,0.5 45 0 0 0.5,0.5 h 7.1924856 a 1.2071066,1.2071066 22.500003 0 1 0.853553,0.353553 l 11.581621,11.581624 a 0.20710675,0.20710675 157.5 0 0 0.353553,-0.146447 l 0,-35.8661844 A 0.20710678,0.20710678 22.5 0 0 24.212267,6.976776 Z" id="path867" style="display:inline;fill:#ffffff;fill-opacity:1;stroke-width:1"/></g></svg>