<?xml version="1.0" encoding="UTF-8" standalone="no"?>
<!-- Created with Inkscape (http://www.inkscape.org/) -->

<svg
   version="1.1"
   id="svg2"
   width="50"
   height="50"
   viewBox="0 0 50 50"
   sodipodi:docname="System.svg"
   inkscape:version="1.1.2 (0a00cf5339, 2022-02-04, custom)"
   xmlns:inkscape="http://www.inkscape.org/namespaces/inkscape"
   xmlns:sodipodi="http://sodipodi.sourceforge.net/DTD/sodipodi-0.dtd"
   xmlns="http://www.w3.org/2000/svg"
   xmlns:svg="http://www.w3.org/2000/svg">
  <defs
     id="defs6">
    <inkscape:path-effect
       effect="fillet_chamfer"
       id="path-effect1441"
       is_visible="true"
       lpeversion="1"
       satellites_param="F,0,0,1,0,1,0,1 @ F,0,0,1,0,1,0,1 @ F,0,0,1,0,1,0,1 @ F,0,0,1,0,1,0,1 @ F,0,0,1,0,1,0,1 @ F,0,0,1,0,1,0,1 @ F,0,0,1,0,1,0,1 @ F,0,0,1,0,1,0,1 @ F,0,0,1,0,1,0,1 @ F,0,0,1,0,1,0,1 @ F,0,0,1,0,1,0,1 @ F,0,0,1,0,1,0,1 @ F,0,0,1,0,1,0,1 @ F,0,0,1,0,1,0,1 @ F,0,0,1,0,1,0,1 @ F,0,0,1,0,1,0,1 @ F,0,0,1,0,1,0,1 @ F,0,0,1,0,1,0,1 @ F,0,0,1,0,1,0,1 @ F,0,0,1,0,1,0,1 @ F,0,0,1,0,1,0,1 @ F,0,0,1,0,1,0,1 @ F,0,0,1,0,1,0,1 @ F,0,0,1,0,1,0,1 @ F,0,0,1,0,1,0,1 @ F,0,0,1,0,1,0,1 | F,0,0,1,0,1,0,1 @ F,0,0,1,0,1,0,1 @ F,0,0,1,0,1,0,1 @ F,0,0,1,0,1,0,1"
       unit="px"
       method="auto"
       mode="F"
       radius="1"
       chamfer_steps="1"
       flexible="false"
       use_knot_distance="true"
       apply_no_radius="true"
       apply_with_radius="true"
       only_selected="false"
       hide_knots="false" />
    <inkscape:path-effect
       effect="fillet_chamfer"
       id="path-effect1195"
       is_visible="true"
       lpeversion="1"
       satellites_param="F,0,0,1,0,1,0,1 @ F,0,0,1,0,1,0,1 @ F,0,0,1,0,1,0,1 @ F,0,0,1,0,1,0,1 @ F,0,0,1,0,1,0,1 @ F,0,0,1,0,1,0,1 @ F,0,0,1,0,1,0,1 @ F,0,0,1,0,1,0,1 @ F,0,0,1,0,1,0,1 @ F,0,0,1,0,1,0,1 @ F,0,0,1,0,1,0,1 @ F,0,0,1,0,1,0,1 @ F,0,0,1,0,1,0,1 @ F,0,0,1,0,1,0,1 @ F,0,0,1,0,1,0,1 @ F,0,0,1,0,1,0,1 @ F,0,0,1,0,1,0,1 @ F,0,0,1,0,1,0,1 @ F,0,0,1,0,1,0,1 @ F,0,0,1,0,1,0,1 @ F,0,0,1,0,1,0,1 @ F,0,0,1,0,1,0,1 @ F,0,0,1,0,1,0,1 @ F,0,0,1,0,1,0,1 @ F,0,0,1,0,1,0,1 @ F,0,0,1,0,1,0,1 | F,0,0,1,0,1,0,1 @ F,0,0,1,0,1,0,1 @ F,0,0,1,0,1,0,1 @ F,0,0,1,0,1,0,1"
       unit="px"
       method="auto"
       mode="F"
       radius="1"
       chamfer_steps="1"
       flexible="false"
       use_knot_distance="true"
       apply_no_radius="true"
       apply_with_radius="true"
       only_selected="false"
       hide_knots="false" />
    <inkscape:path-effect
       effect="fillet_chamfer"
       id="path-effect960"
       is_visible="true"
       lpeversion="1"
       satellites_param="F,0,0,1,0,1,0,1 @ F,0,0,1,0,1,0,1 @ F,0,0,1,0,1,0,1 @ F,0,0,1,0,1,0,1 @ F,0,0,1,0,1,0,1 @ F,0,0,1,0,1,0,1 @ F,0,0,1,0,1,0,1 @ F,0,0,1,0,1,0,1 @ F,0,0,1,0,1,0,1 @ F,0,0,1,0,1,0,1 @ F,0,0,1,0,1,0,1 @ F,0,0,1,0,1,0,1 @ F,0,0,1,0,1,0,1 @ F,0,0,1,0,1,0,1 @ F,0,0,1,0,1,0,1 @ F,0,0,1,0,1,0,1 @ F,0,0,1,0,1,0,1 @ F,0,0,1,0,1,0,1"
       unit="px"
       method="auto"
       mode="F"
       radius="1"
       chamfer_steps="1"
       flexible="false"
       use_knot_distance="true"
       apply_no_radius="true"
       apply_with_radius="true"
       only_selected="false"
       hide_knots="false" />
  </defs>
  <sodipodi:namedview
     id="namedview4"
     pagecolor="#ff00ff"
     bordercolor="#111111"
     borderopacity="1"
     inkscape:pageshadow="0"
     inkscape:pageopacity="0"
     inkscape:pagecheckerboard="1"
     showgrid="false"
     showguides="true"
     inkscape:guide-bbox="true"
     inkscape:zoom="12.360227"
     inkscape:cx="20.145262"
     inkscape:cy="35.476696"
     inkscape:window-width="1366"
     inkscape:window-height="703"
     inkscape:window-x="0"
     inkscape:window-y="0"
     inkscape:window-maximized="1"
     inkscape:current-layer="g8">
    <sodipodi:guide
       position="17.677346,30.377574"
       orientation="1,0"
       id="guide1066" />
    <sodipodi:guide
       position="31.922197,17.448513"
       orientation="0,-1"
       id="guide1068" />
    <sodipodi:guide
       position="27.386229,35.396708"
       orientation="0,-1"
       id="guide1248" />
    <sodipodi:guide
       position="31.431463,35.396708"
       orientation="1,0"
       id="guide1272" />
  </sodipodi:namedview>
  <g
     inkscape:groupmode="layer"
     inkscape:label="SystemIcon"
     id="g8">
    <path
       id="rect849"
       style="display:inline;fill:#ffffff;fill-opacity:1;stroke-width:4;stroke-linecap:square"
       d="m 15.8125,18.308594 a 1,1 0 0 0 -1,1 v 2.107422 c 0,0.552285 -0.427741,1.13435 -0.933594,1.355468 -0.77942,0.3407 -1.514647,0.776451 -2.1875,1.296875 -0.436687,0.33776 -1.152864,0.434243 -1.636718,0.167969 L 8.203125,23.214844 A 0.99977122,0.99977122 0 0 0 6.84375,23.609375 l -2.1484375,3.90625 a 0.99996439,0.99996439 0 0 0 0.3945313,1.357422 L 6.96875,29.90625 c 0.4839264,0.266146 0.7847544,0.921119 0.7324219,1.470703 -0.045413,0.47692 -0.045954,1.316392 0.013672,1.865235 0.011281,0.103833 0.024644,0.2071 0.039062,0.310546 0.076212,0.546783 -0.1984442,1.209115 -0.6738281,1.490235 L 5.203125,36.152344 a 1.0001165,1.0001165 0 0 0 -0.3515625,1.371094 l 2.2675781,3.835937 a 0.99984702,0.99984702 0 0 0 1.3710938,0.351563 l 1.8964846,-1.121094 c 0.475374,-0.281138 1.198218,-0.213221 1.65039,0.103515 0.576794,0.404031 1.193172,0.74851 1.839844,1.027344 0.50695,0.218587 0.935547,0.797325 0.935547,1.349609 v 2.248047 a 1,1 0 0 0 1,1 h 4.457031 a 1,1 0 0 0 1,-1 v -2.273437 c 0,-0.552285 0.427078,-1.137282 0.931641,-1.361328 0.726595,-0.322638 1.413058,-0.729076 2.046875,-1.208985 0.440134,-0.333257 1.158748,-0.424524 1.642578,-0.158203 l 1.988281,1.09375 a 0.9996737,0.9996737 0 0 0 1.359375,-0.394531 l 2.148438,-3.904297 a 1.0001144,1.0001144 0 0 0 -0.394531,-1.359375 l -1.96875,-1.082031 c -0.483887,-0.266219 -0.780085,-0.919675 -0.722657,-1.46875 0.05506,-0.526412 0.05812,-1.405671 0.0039,-1.955078 -0.0052,-0.05301 -0.0096,-0.107238 -0.01563,-0.160156 -0.06264,-0.548505 0.223818,-1.213048 0.699219,-1.494141 l 1.890625,-1.119141 a 1.0000574,1.0000574 0 0 0 0.351563,-1.36914 l -2.269531,-3.835938 a 0.99993954,0.99993954 0 0 0 -1.369141,-0.353516 l -1.84375,1.091797 c -0.475399,0.281094 -1.192729,0.206308 -1.638672,-0.11914 -0.594807,-0.434087 -1.235003,-0.803186 -1.908203,-1.101563 -0.504715,-0.223701 -0.931641,-0.809043 -0.931641,-1.361328 v -2.115234 a 1,1 0 0 0 -1,-1 z m 2.236328,8.289062 c 0.495419,0.0066 0.992241,0.04903 1.273438,0.126953 1.960267,0.543218 3.652095,2.235045 4.195312,4.195313 0.153797,0.554994 0.170435,2.028054 0.03711,2.546875 -0.50313,1.957896 -2.262568,3.745142 -4.232422,4.291015 -0.677799,0.187827 -2.064957,0.172712 -2.722657,-0.02539 -1.993128,-0.600342 -3.633847,-2.300831 -4.146484,-4.283203 -0.111202,-0.430019 -0.122305,-1.881614 0,-2.404297 0.247542,-1.05804 1.083396,-2.369922 2.076172,-3.19336 0.505554,-0.41932 1.661999,-1.01085 2.257812,-1.162109 0.272285,-0.06912 0.7663,-0.09839 1.261719,-0.0918 z" />
    <path
       id="path1437"
       style="display:inline;fill:#ffffff;fill-opacity:1;stroke-width:4;stroke-linecap:square"
       d="m 36.144531,3.953125 a 0.99999977,0.99999977 0 0 0 -1.152343,0.8203125 l -0.183594,1.0917969 c -0.09199,0.5445705 -0.613487,1.0449921 -1.144532,1.1953125 -0.462589,0.1309432 -0.910988,0.3061318 -1.341796,0.5195312 -0.494558,0.2449774 -1.21569,0.2200968 -1.648438,-0.1230469 L 29.800781,6.765625 a 0.99977145,0.99977145 0 0 0 -1.404297,0.1621094 l -1.792968,2.2617187 a 0.99996436,0.99996436 0 0 0 0.162109,1.4042969 l 0.890625,0.705078 c 0.432839,0.343029 0.618644,1.040898 0.492188,1.578125 -0.05226,0.221998 -0.160315,0.846745 -0.175782,1.398438 -0.0116,0.413975 -0.402404,0.909407 -0.917968,1.107421 l -1.083985,0.417969 a 1.0001159,1.0001159 0 0 0 -0.576172,1.291016 l 1.035157,2.693359 a 0.99984747,0.99984747 0 0 0 1.291015,0.576172 L 28.822266,19.9375 c 0.515558,-0.198034 1.216249,-0.0099 1.621093,0.365234 0.271531,0.251586 0.560881,0.484615 0.865235,0.695313 0.453781,0.314142 0.781439,0.957383 0.689453,1.501953 l -0.201172,1.195312 a 1,1 0 0 0 0.818359,1.154297 l 2.845704,0.480469 a 0.99999989,0.99999989 0 0 0 1.152343,-0.820312 l 0.205078,-1.216797 c 0.09199,-0.544571 0.612415,-1.04973 1.142579,-1.203125 0.421463,-0.121945 0.831423,-0.278049 1.226562,-0.46875 0.497048,-0.239885 1.221582,-0.212327 1.654297,0.130859 l 0.962891,0.763672 a 0.99967367,0.99967367 0 0 0 1.404296,-0.162109 l 1.792969,-2.261719 A 1.0001147,1.0001147 0 0 0 44.839844,18.6875 L 43.890625,17.933594 C 43.457838,17.5905 43.274816,16.895406 43.40625,16.359375 c 0.06336,-0.258415 0.180216,-0.913332 0.201172,-1.464844 0.01329,-0.349792 0.416064,-0.794202 0.93164,-0.992187 l 1.097657,-0.421875 a 1.0000571,1.0000571 0 0 0 0.574219,-1.291016 L 45.177734,9.4960938 A 0.99993953,0.99993953 0 0 0 43.884766,8.9199219 L 42.826172,9.328125 C 42.310595,9.5261119 41.616242,9.3301545 41.21875,8.9472656 40.934664,8.6736164 40.630624,8.4230961 40.308594,8.1953125 39.858011,7.8765995 39.531061,7.2301174 39.623047,6.6855469 l 0.185547,-1.0976563 a 1.0000002,1.0000002 0 0 0 -0.81836,-1.1542968 z m -0.28125,6.345703 c 0.759419,6.84e-4 1.509904,0.211844 2.171875,0.650391 0.97187,0.643849 1.735992,1.773419 1.97461,2.923828 0.211767,1.020963 -0.03891,2.200582 -0.644532,3.041015 -0.570371,0.791523 -1.470053,1.459592 -2.361328,1.757813 -0.47314,0.158313 -0.537961,0.169406 -1.11914,0.185547 -0.41437,0.0115 -0.786402,-0.01668 -0.958985,-0.05273 -0.745925,-0.155723 -1.324591,-0.463104 -1.958984,-1.056641 -0.973765,-0.91105 -1.452583,-1.955777 -1.464844,-3.134766 -0.01082,-1.040346 0.256407,-1.819048 0.900391,-2.615234 0.722892,-0.893744 1.692881,-1.446167 2.701172,-1.630859 0.252019,-0.04616 0.506626,-0.06859 0.759765,-0.06836 z" />
  </g>
</svg>
