<svg xmlns="http://www.w3.org/2000/svg" viewBox="0 0 264 56"><path d="M70.15 26.24v.16q10.33.21 15.26 4.37t4.92 10.06q0 6.6-5.6 10.88T69.83 56q-8.04 0-12.43-3.42-4.4-3.4-4.4-7.77 0-2.9 1.97-4.68a6.8 6.8 0 0 1 4.73-1.78q2.59 0 4.42 1.55a5.1 5.1 0 0 1 1.84 4.11q0 3.4-4.28 5.7-.85.45-.85 1.01 0 1.05 2.41 1.84 2.4.79 4.92.78 8.25 0 8.26-12.9 0-12.77-9.92-12.77l-5.48.24q-1.67 0-1.67-1.3 0-1.5 1.75-1.5l4 .16q6.1 0 8.18-2.9 2.09-2.88 2.08-8.23 0-5.5-1.56-8.08-1.58-2.6-5.4-2.59-2.1 0-3.9.75-1.84.74-1.84 1.47 0 .68 1.2 1.4Q67 9.23 67 11.72q0 2.45-1.76 3.9a6 6 0 0 1-3.97 1.45q-2.55 0-4.54-1.66a5.1 5.1 0 0 1-2-4.1q0-4.2 4.44-7.26T70.58 1q7.7 0 12.99 3.46t5.29 8.89q0 10.67-18.7 12.9m32.86 26.1V3.4h-7.23V.74h28.94q12.56 0 19.88 7.57 7.32 7.56 7.32 19.1 0 5.99-2.24 11.24a28 28 0 0 1-6.87 9.58q-4.63 4.3-9.51 5.54A49 49 0 0 1 121.33 55H95.79v-2.65ZM116.94 3.4v48.96h4.5q10.35 0 12.5-5.76t2.15-19.73q0-10.92-1.32-15.7t-4-6.27-6.8-1.5zM160 27.67q0-12.18 7.57-19.93Q175.12 0 185.7 0q9.81 0 17.56 7.28T211 27.99q0 12.59-7.32 20.18a24 24 0 0 1-17.9 7.58q-11.42 0-18.6-8.05-7.17-8.06-7.17-20.03m35.16.23q0-12.47-.48-16.43-.5-3.97-2.5-6.4-2.03-2.42-6.65-2.42-3.9 0-6.22 1.96-2.32 1.95-2.9 6.29-.56 4.33-.56 16.91 0 12.45.49 16.49.47 4.02 2.58 6.41 2.1 2.39 6.6 2.38 3.75 0 6.1-1.91 2.36-1.93 2.95-6.25.6-4.34.6-17.03" style="fill-opacity:1;fill-rule:nonzero;stroke:none;fill:#fff"/></svg>