<svg xmlns="http://www.w3.org/2000/svg" viewBox="0.24 107.93 799.3 133.4"><path d="m336.25 126.25 2.78-16.77a1 .99 85.6 0 1 .66-.78l1.96-.69a1.36 1.36 0 0 1 1.79 1.52q-1.27 7.08-2.28 13.61c-.49 3.11-1.87 3.91-4.91 3.11m361.02 79.21q1.23-.73 2.79-2.65 12.66-15.47 25.43-30.96a2.2 2.2 51 0 0 .24-2.37l-19.95-37.78a.64.64 0 0 1 .57-.94l33.28-.01a1.59 1.57-13.6 0 1 1.4.84l6.29 11.91a.7.69 50.8 0 0 1.15.12l10.38-12.49a1 1 0 0 1 .8-.38l39.51.05q.62 0 .22.48l-35.28 42.46a1 1 0 0 0-.12 1.14l22.28 42.39a.65.65 0 0 1-.57.95q-15.88.1-32.01-.03c-1.99-.02-2.52-.28-3.45-2.06q-3.91-7.48-7.23-14.09a1.28 1.28 0 0 0-2.13-.24c-2.66 3.24-12.36 16.44-15.22 16.44l-55.67.01a1.97 1.97 0 0 1-1.96-1.75l-1.01-9.04a1.89 1.88 87.1 0 0-1.85-1.67q-9.21-.08-18.16.05c-5.2.08-3.78 12.31-8.81 12.32q-29.69.12-58.6.08a1.8 1.8 0 0 1-1.78-1.84c.15-4.4 2.06-44.4 1.56-44.91a.4.4 0 0 0-.67.1q-11.04 22.53-21.88 44.88c-.59 1.23-1.34 1.62-2.64 1.66q-9.32.32-17.66-.07a2.1 2.1 0 0 1-1.96-1.76l-6.55-42.17a.76.75 48 0 0-1.48-.08q-.11.42-.03.82.1.54-.05 1.06l-11.03 40.79a2.06 2.05-82.4 0 1-1.98 1.52l-33.48.02a1.11 1.1-82.2 0 1-1.06-1.41q14-50.15 27.91-99.29.56-2.01 1.53-3.85a1 1 0 0 1 .75-.56q.73-.15 2.16-.15 17.36-.01 34.15.01a1.39 1.38-4.3 0 1 1.37 1.17l7.12 44.7a.51.51 0 0 0 .97.14q10.63-22.21 21.46-43.95.5-.99 1.27-1.73a1.3 1.3 0 0 1 .88-.35l36.54.01a1.2 1.2 0 0 1 1.18 1.22c-.72 23.38-1.8 46.87-2.52 70.35q-.28 9.04-1.07 18.02a.3.3 0 0 0 .58.14c.83-1.92 2.17-3.72 2.98-5.36q15.89-32.47 32.23-64.71c1.13-2.24 2.16-1.93 4.36-1.92q15.63.02 31.3.34a.56.55 85.5 0 1 .53.46l11.62 69.67q.33 1.99.56 4a.34.34 0 0 0 .51.25m-35.2-40.5-8.43 19.88a.7.7 0 0 0 .65.96l10.34-.17a.45.44 87 0 0 .43-.49l-1.81-21.18a.37.37 0 0 0-.61-.25c-.46.41-.38.81-.57 1.25M24.5 170.41c9.41-17.8 18.25-35.89 27.63-53.8a2.08 2.07 13.7 0 1 1.84-1.11h39.28a1.2 1.2 0 0 1 1.16 1q3.8 25.23 7.44 50.43.31 2.11.38 4.02a.77.77 0 0 1-.77.8H24.87a1.6 1.58-73.7 0 0-1.34.74l-2.03 3.28a1 1 0 0 1-.86.46L.9 175.95a.6.6 0 0 1-.61-.61l-.05-2.65a.79.78 81.9 0 1 .57-.77q1.61-.45 3.19-.43 9.5.16 19.05-.18a1.7 1.69 13 0 0 1.45-.9m311.75-44.16q-3.44 20.54-6.91 41.07-.24 1.39-.94 3.44a.8.8 0 0 1-.67.51c-14.39 1-28.97.37-43.29.2a.77.76-84.3 0 1-.74-.91c4.9-25.55 26.08-44.81 52.55-44.31m4.02 1.1a1.03 1.02 10.1 0 1 1.21-.84c21.14 4.05 38.42 21.03 36.71 44.09a1 1 0 0 1-.49.75c-1.34.7-2.53.14-3.56.17q-20.08.57-40.22-.08a.67.67 0 0 1-.64-.78zm-164.33 4.9a1.9 1.9 0 0 1 1.08 1.95q-1.78 12.97-4.61 25.74a.98.98 0 0 1-1.58.55c-10.94-8.91-27.76-3.58-31.98 9.66a2.39 2.38 8.9 0 1-2.29 1.66l-29.98-.26a.44.44 0 0 1-.42-.52c6.08-31.77 39.11-52.73 69.78-38.78m18.94 24.23-16.41-.23a.7.7 0 0 1-.67-.81l4.07-23.38a1.6 1.6 0 0 1 1.55-1.31h67.59a1.09 1.08 5.3 0 1 1.07 1.28l-4.36 23.48a1.3 1.3 0 0 1-1.29 1.05l-16.21-.36a1.4 1.4 0 0 0-1.42 1.15l-2.34 12.78a1.06 1.03-11.2 0 1-.5.72q-1.19.74-3.39.79-14.48.32-28.93-.08a.59.58 5.6 0 1-.56-.68l2.31-13.79a.53.52 5.2 0 0-.51-.61m54.21 15.3a.9.9 0 0 1-.89-1.05q3.09-18.7 6.63-37.26c.39-2.04 1.41-2.8 3.43-2.79q14.92.07 29.7.24a.34.33-86.2 0 1 .33.38q-2.81 19.76-7.01 39.28a1.4 1.4 0 0 1-1.35 1.08zm187.97-6.01q1.41 2.98 1.96-.28l5.66-33.44a1.5 1.5 0 0 1 1.5-1.27l30.39-.04a.57.57-85.2 0 1 .55.66l-14.98 85.39a1.76 1.74-84.9 0 1-1.72 1.45l-29.17.02a2.53 2.51 78.2 0 1-2.31-1.52l-15.96-37.17a.45.45 0 0 0-.86.1l-6.71 37.13a1.76 1.76 0 0 1-1.73 1.45h-29.03a1.4 1.4 0 0 1-1.38-1.64l6.8-39.24a1.78 1.77-84.7 0 1 1.77-1.48l13.1.16a1.11 1.1 18.8 0 0 .87-.42q1.38-1.77.27-3.65a.98.97-15 0 0-.84-.48h-13.31a.7.69 5.1 0 1-.69-.82l6.83-38.26a2 2 0 0 1 1.99-1.66l29.51-.01a1.39 1.36-12.4 0 1 1.25.78z" style="fill:#fff"/><path d="M47.96 204.22a2.5 2.5 0 0 0-2.37 1.72l-3.61 11.14a1.7 1.7 0 0 1-1.61 1.17l-39.45-.02a.35.35 0 0 1-.31-.51l20.54-40.64a1.43 1.39 1.9 0 1 .75-.68q1.88-.73 2.85-.72 37.87.27 77.4.31a1.05 1.05 0 0 1 1.04.9l5.7 39.53a1.56 1.56 0 0 1-1.54 1.78l-34.28.08a1.79 1.78 89.8 0 1-1.78-1.78l-.06-11a1.24 1.24 0 0 0-1.24-1.24zm90.03-27.39c3.49 13.75 17.57 17.48 28.89 10.53a.58.58 0 0 1 .88.6l-5.45 30.07a1.49 1.48-1.8 0 1-1.11 1.18q-18.5 4.41-33.38-3.44c-14.2-7.49-22.03-21.51-22.16-37.6-.02-3.59 1.82-2.18 4.04-2.18q13.64.02 27.22.01a1.1 1.1 0 0 1 1.07.83m56.82-.89q14.93.17 29.6-.02a.91.9 4.8 0 1 .9 1.06l-6.93 39.7a1.9 1.9 0 0 1-1.85 1.56l-30.57.01a1 1 0 0 1-.98-1.16q3.24-19.52 6.8-39.1c.39-2.17 1.17-2.07 3.03-2.05m78.5 41.4a1.1 1.1 0 0 1-1.09.9l-30.95.01a.62.61 83.5 0 1-.6-.48q-.37-1.67-.05-3.6 3.13-18.65 6.54-37.35a1.37 1.36-84.2 0 1 1.36-1.12l31.22.36a.47.47 0 0 1 .46.48q-.05 2.37-.45 4.71-3.06 18.04-6.44 36.09m10.13-40.62a.75.74.8 0 1 .75-.72l42.53-.05a.9.9 0 0 1 .9 1.05q-2.84 17.61-5.62 34.5-.86 5.21-1.8 8.26a.67.66-80.3 0 1-.66.47q-2.3-.05-4.3-.65c-19.33-5.8-32.53-21.93-31.8-42.86m48.65.43a1.5 1.49-85.2 0 1 1.47-1.25l43.34-.02a.9.9 0 0 1 .9 1.04c-2.77 19.64-18.18 35.6-36.43 41.77-5.05 1.71-10.3 2.16-15.68 2.33a.8.8 0 0 1-.81-.94z" style="fill:#fff"/><rect width="4.5" height="21.02" x="-2.25" y="-10.51" rx="2.15" style="fill:#fff" transform="rotate(9.1 -1288.43 2131.33)"/></svg>