<svg xmlns="http://www.w3.org/2000/svg" viewBox="0 0 884.92 183.75"><g style="stroke:none;fill:#fff;fill-opacity:1"><path d="m5690.52 595.32-259.71 782.77h-733.93c-16.5 0-29.04-10.23-36.63-26.41l-134.3-292.7c-7.27-16.5-3.97-29.37 12.53-29.37h117.15c55.79 0 87.78-32.34 87.78-87.79l.66-917.4A24.4 24.4 0 0 1 4768.51 0h347.14a24.37 24.37 0 0 1 24.42 24.42v964.92c0 9.25 10.56 16.5 19.47 16.5l-.32-.32c9.23 0 17.48-6.93 20.46-16.18l320.43-971.52C5503.41 7.59 5514.29 0 5525.19 0h338.58c10.89 0 21.77 7.59 25.08 17.82l312.51 971.52c2.96 9.25 11.21 16.18 20.46 16.18l-.34.32c8.91 0 19.47-7.25 19.47-16.5V24.42A24.37 24.37 0 0 1 6265.38 0h347.15a24.36 24.36 0 0 1 24.41 24.42V1378.1h-686.73z" style="fill:#fff;fill-opacity:1;fill-rule:nonzero;stroke:none" transform="matrix(.13333 0 0 -.13333 0 183.75)"/><path d="M3872.88 997.27c2.96 9.23 11.21 16.16 20.46 16.16l3.29.34 3.3-.34c9.25 0 17.5-6.93 20.46-16.16l180.18-420.43c5.94-13.86 1.32-22.43-12.53-22.43h-382.81c-13.85 0-18.47 8.57-12.53 22.43zM3065.7 0h379.5l95.03 221.77h712.81L4348.07 0h379.5A24.37 24.37 0 0 1 4752 24.42L4161.94 1378.1h-740.17c-16.51 0-29.06-10.23-36.64-26.41l-134.31-292.7c-7.25-16.5-3.96-29.37 12.54-29.37h93.4c55.76 0 87.78-32.34 87.78-87.79l-403.27-917.4A24.37 24.37 0 0 1 3065.7 0" style="fill:#fff;fill-opacity:1;fill-rule:nonzero;stroke:none" transform="matrix(.13333 0 0 -.13333 0 183.75)"/><path d="M2139.05 364.33a24.37 24.37 0 0 0-24.43 24.42v616.43a24.4 24.4 0 0 0 24.43 24.43h505.56c55.44 0 87.78-32.34 87.78-87.79V452.11c0-55.45-32.34-87.78-87.78-87.78zM2846.91 0c154.77 0 265.64 110.9 265.64 265.66v846.77c0 154.77-110.87 265.66-265.64 265.66h-1174.8c-16.5 0-29.04-10.23-36.65-26.41l-134.3-292.7c-7.25-16.5-3.96-29.37 12.54-29.37h117.16c55.43 0 87.77-32.34 87.77-87.79V24.42A24.37 24.37 0 0 1 1743.05 0zM831.59 997.27c2.98 9.23 11.23 16.16 20.46 16.16l3.3.34 3.31-.34c9.24 0 17.49-6.93 20.45-16.16l180.18-420.43c5.94-13.86 1.32-22.43-12.54-22.43h-382.8c-13.86 0-18.49 8.57-12.54 22.43zM24.4 0h379.5l95.04 221.77h712.8L1306.79 0h379.5a24.37 24.37 0 0 1 24.42 24.42L1120.68 1378.1h-740.2c-16.5 0-29.03-10.23-36.63-26.41l-134.32-292.7c-7.25-16.5-3.94-29.37 12.56-29.37h93.37c55.79 0 87.8-32.34 87.8-87.79L0 24.42A24.35 24.35 0 0 1 24.41 0" style="fill:#fff;fill-opacity:1;fill-rule:nonzero;stroke:none" transform="matrix(.13333 0 0 -.13333 0 183.75)"/></g></svg>