<svg xmlns="http://www.w3.org/2000/svg" viewBox="0 0 3839 468.7"><path d="M2089.8 180.4c0-26-8.5-52.8-27.6-71-21.1-20.7-51.5-25.2-79.9-25.2h-92.9v300.3h43.8V245.3h.8l99 139.2h54.8l-84-112c9.7 0 20.3-2.4 29.2-5.7 38.9-13.8 56.8-45.8 56.8-86.4m-126.6 58.8h-30V124.4h46.3c34.9 0 66.5 17.9 66.5 56 0 47.9-43.9 58.8-82.8 58.8M223.6 384.5h53.6l60.5-88.5H440v88.5h43.8V84.2h-54zM439.9 141v114.8h-74.7L439.1 141zm1669.5 243.5h145.3v-40.2h-101.4V253h101.4v-40.1h-101.4v-88.5h101.4V84.2h-145.3zm-294.5-98.2c0 35.7-19.5 63.7-56.8 63.7s-56.8-28-56.8-63.7V84.2h-43.8v203.3c0 29.2 8.1 57.2 30.4 77.1 19.1 17 44.6 25.6 70.2 25.6s51.1-8.5 70.2-25.6c22.3-19.9 30.4-47.9 30.4-77.1V84.2h-43.8zm-341.3-161.9h57.6v260.1h43.9V124.4h57.6V84.2h-159.1zm-454.1-40.2h-19.9L838.9 321.6h-.8V84.2h-43.8v300.3h51.1l174.1-249.6v249.6h145.3v-40.2h-101.5V253h101.5v-40.1h-101.5v-88.5h101.5V84.2h-110zm-404.1 0H518v300.3h95.8c45 0 84.4-11 117.3-43.4 25.2-25.2 37.7-71 37.7-105.9 0-33.7-11.4-68.6-30.8-95.8-28.8-40.6-74.3-55.2-122.6-55.2m-1.2 260.1h-52.3V124.4H615c46.3 0 83.2 21.5 101 64.9 5.7 14.6 8.9 30.4 8.9 45.9.1 69.4-42.5 109.1-110.7 109.1M2642.9 84.2h43.8v300.3h-43.8zM1397.7 312.7h-.9l-146-228.5h-47.9v300.3h43.8V152.4h.8L1396 384.5h45.5V84.2h-43.8zm1112.5 16.2-85.6-244.7h-47.7l109.6 300.3h47.3l99-300.3h-45.2z" class="st2" style="fill:#fff"/><path d="M3599.3 136.5v-101h-141.2v103.1h-5.6l-16.7-26.1-49.2-77h-123.3v34.6l-18.3-11c-31.8-19.1-68.8-29.2-107-29.2-37.8 0-74.7 10.4-106.9 30.1l-18.4 11.3V35.5h-141.2v9.8l-16.4-6.2c-16.1-6.1-33.4-9.2-51.4-9.2s-35.3 3.3-51.6 9.8l-16.6 6.7V35.5H2552l-32.6 103.1h-24.1l-36.1-103.1h-398.4v13.9l-15.8-5c-18.3-5.9-39.4-8.8-62.7-8.8H1349v103h-5.6l-16.7-26.1-49.2-77H976l-72.2 103.1h-17V35.5H745.6v39.7L727.2 64c-31-18.9-68.6-28.5-111.8-28.5H404.1l-65.7 95.7-3.6 5.2h-134l-144.2 210h134l-13 18.9-46.5 67.8h171.8l56.9-83.2 3.6-5.3h27.9v88.5h222.6c44.3 0 81.5-9.2 113.5-28.2l18.2-10.8v39h125.2l62-88.8h38v88.8h324.6v-88.8h17.1l56.8 88.8h254.4v-66.4l21.1 23.5c3.3 3.7 6.9 7.3 10.6 10.6 27.4 24.5 63.9 38 102.7 38 22.9 0 44.9-4.7 65.4-13.9l17.1-7.7v16h141.2v-36.6l22 30.9 4 5.7h295.6v-88.8H2420l2.9 7.9 29.5 80.9H2569l1.7-5 23.6-71.5v76.6h141.2v-9.7l16.3 6.1c16.3 6.1 33.8 9.2 51.8 9.2s35.3-3 51.5-8.9l16.2-5.9v9.2h141.2v-35.7l18.4 11.3c32.1 19.7 69.1 30.1 106.9 30.1s74.8-10.4 106.9-30l18.4-11.2v35.6h141.2v-88.8h17.1l56.8 88.8H3599v-86.7h38.9l144.2-210h-182.8Zm32 192.9h-46.9v88.8h-97.7l-56.8-88.8h-40.2v88.8h-111.4v-55.9a190 190 0 0 1-140.2 61.5 189.7 189.7 0 0 1-140.2-61.8v56.1h-111.4v-22.8c-21.7 18-50.2 28.5-82.7 28.5-32.7 0-61.4-10.8-83.1-29.4v23.7h-111.4v-88.8h-21.7l-29.3 88.8h-95.4l-32.4-88.8h-141.9v88.8h-273l-48.6-68.4v68.4h-111.4v-33.2c-1.6 1.6-3.1 3.2-4.8 4.7-24.6 22-57.5 34.1-92.7 34.1-35.1 0-68.1-12.1-92.7-34.2-17.7-15.8-30-36.3-36.5-60.4h-20.1v88.8h-111.4v-88.8h-22.2v88.8h-97.7l-56.8-88.8h-40.2v88.8H985.7v-88.8H925l-62 88.8H760.5V359c-1.8 2.1-3.6 4.1-5.6 6-36.4 35.9-82.5 53.3-141.2 53.3H406v-88.5h-50.7L295 418.3H159.5l32.9-47.9 28.1-40.9h-134l120.7-175.9h134L412 50.4h203.5c62.7 0 112.6 21.7 145.1 62.8V50.4H872v103.1h40l69.8-103.1h287.6l65.9 103.1h28.7V50.4h371.2v103.1h46.1V50.4h201.1c39.7 0 70.4 8.6 93.4 26.1V50.4h212.9v103.1h77.7l-37.6-103.1h120l36.1 103.1h45.6l32.6-103.1h157.7v27.3c21.2-20.5 50.4-32.9 83.1-32.9 33 0 61.7 11.3 82.7 30.3V50.4H2998v56.1c34.8-38 84.8-61.8 140.2-61.8 56.1 0 105.7 23.2 140.2 60.7v-55h100.2l65.9 103.1h28.7V50.4h111.4v103.1H3752z" class="st2" style="fill:#fff"/><path d="M3506.8 312.7h-.8L3359.9 84.2H3312v300.3h43.8V152.4h.8l148.5 232.1h45.5V84.2h-43.8zm-743.3-153c0-21.9 18.3-41 40.2-41 26 0 42.2 17.4 42.2 43.4h43.8c0-50.7-36.1-83.6-86-83.6-45.9 0-84 34.9-84 81.6 0 58.4 37.3 72.2 84 90.1 25.2 9.7 48.3 17 48.3 49.1 0 29.2-18.3 50.7-48.3 50.7-31.7 0-48.7-25.2-48.7-54.4h-43.8c0 54.4 37.7 94.5 92.5 94.5 53.6 0 92.1-36.9 92.1-90.9 0-113.9-132.3-75.8-132.3-139.5" class="st2" style="fill:#fff"/><path d="M3138 14.9c39.2 0 77.2 10 110.4 28.9V20.6h146.4l4.4 6.9 44 68.8V20.6h171v100.9h196.5l-16.1 23.4-144.2 210-4.5 6.5h-31.8v86.7h-143.9l-4.4-6.9-46.4-72.6V448h-171v-23.9a220 220 0 0 1-110.4 29.6c-38.9 0-76.9-10.3-110.4-29.7v24h-171v-2.8c-16.8 5.6-34.5 8.5-52.8 8.5-18.5 0-36.4-3-53.3-8.8v3.1H2442l-3.6-9.8-28.8-79h-91.1V448h-492.6v-7.8c-21.3 9-44 13.5-67.5 13.5-42.5 0-82.5-14.8-112.6-41.8-2.3-2.1-4.6-4.2-6.8-6.5v42.5h-277.5l-4.4-6.9-46.4-72.6v79.4H955.9V359h-15.3l-57.5 82.4-4.5 6.4H730.7v-27.7c-33.4 18.7-71.7 27.8-116.8 27.8H376.3v-88.4h-5l-56 82-4.4 6.5H102.7l16.1-23.4 43.5-63.3h-134l16.1-23.4 144.2-210 4.4-6.5h134l64.9-94.5 4.5-6.5h219.2c44 0 82.7 9.5 115.2 28.1V20.6h171v94.9l62-88.6 4.5-6.4h317.4l4.4 6.9 44 68.8V20.6h648.2c23.3 0 44.7 2.8 63.5 8.4v-8.4h423.9l3.5 10 32.6 93.1h2.6l29.3-92.7 3.3-10.4h209.3v3.7c16.9-6.2 34.8-9.4 53.3-9.4 18.4 0 36.1 3 52.8 8.8v-3.1h171v24c33.7-19.4 71.7-29.7 110.6-29.7m0-14.9c-33 0-65.5 7-95.5 20.3V5.7h-194C2834 1.9 2819 0 2803.7 0q-22.5 0-43.8 5.7h-229.8l-3.3 10.4-3.3 10.4-17.1 53.9-19.2-54.8-3.5-10-3.5-10h-449.4V10a258 258 0 0 0-48.6-4.4h-663.1v39.6l-16.6-25.9-4.4-6.9-4.4-6.9H960.4L956 12l-4.5 6.4-34.9 49.9V5.7H715.8v19c-29.7-12.6-63.4-19-100.3-19H388.4l-4.4 6.5-4.5 6.5-60.4 88H185.2l-4.4 6.5-4.4 6.5-144.2 210L16 353 0 376.4h134l-27.4 40-16.1 23.4-16 23.3h244.3l4.4-6.5 4.4-6.5 33.8-49.5v62.5h252.4c38.2 0 71.8-6.2 102-18.9v18.9h170.6l4.4-6.4 4.5-6.4 45.7-65.5V463h384.2v-43.4l19 29.7 4.4 6.9 4.4 6.9h300.6v-25.8c30 20.4 66.4 31.5 104.5 31.5 18.1 0 35.7-2.5 52.6-7.4v1.7h522.4v-88.8h65.8l25.3 69.2 3.6 9.8 3.6 9.8h327c14.5 3.8 29.7 5.7 45.1 5.7 15.6 0 30.8-1.9 45.5-5.7h193.3v-14.6a235.3 235.3 0 0 0 191 .1v14.5h200.8v-43.4l19 29.7 4.4 6.9 4.4 6.9h167v-86.7h24.7l4.4-6.5 4.5-6.5 144.2-210L3823 130l16-23.3h-209.9V5.7h-200.8v39.6l-16.6-25.9-4.4-6.9-4.4-6.9h-169.5v14A239.5 239.5 0 0 0 3138 0" class="st2" style="fill:#fff"/><path d="M2920.2 84.2h43.8v300.3h-43.8zm217.8-5.7c-86.4 0-156.2 69-156.2 155.8 0 86 70.2 155.8 156.2 155.8 85.6 0 156.2-69.4 156.2-155 0-87.2-68.6-156.6-156.2-156.6m104.7 197.3c-17 45.9-55.2 74.3-104.7 74.3-46.3 0-83.2-24.8-101.9-67-6.5-15.4-10.6-32.1-10.6-48.7s4.1-32.9 10.6-47.9c18.3-42.6 55.2-67.8 101.9-67.8 65.3 0 112.4 53.2 112.4 116.9 0 13.8-2.9 27.6-7.7 40.2" class="st2" style="fill:#fff"/></svg>