<svg xmlns="http://www.w3.org/2000/svg" viewBox="0 0 600 125"><path d="M53.89 54.43q0 .69-.96.96-1.15.3-7.13.3-5.49 0-7.06-.3-1.3-.27-1.65-1.73-1.3-5.52-2.03-5.9-.62-.27-10.28-.27-6.52 0-6.94.34-.66.62-1.46 4.1-.73 3.2-1.77 3.46-1.3.3-8.74.3Q0 55.7 0 54.6q0-1 8.67-24.52 9.39-25.42 10.2-27.96.45-1.46 1.07-1.46 1.04 0 3.2.2 2.17.18 3.25.19 1.03 0 3.05-.14 2.01-.13 3-.13.74 0 1.35 1.27 1.88 4.03 10.97 27.61Q53.9 53.4 53.9 54.43M26.7 19.49a85 85 0 0 0-2.72 7.32q-2.07 5.99-2.07 7.02 0 .7 2.3.77 1.2.07 3.91.07 2.55 0 2.8-.6.09-.2.08-.55 0-1.26-1.76-6.98-1.73-5.52-2.53-7.05M98.2.96q0-.84-.32 2.53-.42 4.26-.65 10.9-.3 7.5-.3 17.1 0 15.84.88 22.55.07.74.07.92 0 .42-.57.5-1.38.2-10.17.2-2.07 0-2.37-.81l-.16-2.92q-.03-.3-.3-.61a2 2 0 0 0-.58.46 14.2 14.2 0 0 1-10.36 4.06q-8.09 0-12.96-5.67-4.65-5.4-4.64-13.66 0-8.36 4.56-13.76 4.84-5.76 13.05-5.76 5.79 0 9 3.68.55.62.78.62.34 0 .34-1 0-2.95-.15-8.82-.16-5.86-.16-8.79 0-1.11.62-1.26 2.44-.12 6.75-.46Q98.23 0 97.35 0q.84 0 .84.96M83.72 36.2q0-3.04-2.1-5.31a6.7 6.7 0 0 0-5.11-2.29q-3.15 0-5 2.29a8.4 8.4 0 0 0-1.87 5.46 7.7 7.7 0 0 0 1.88 5.26 6.2 6.2 0 0 0 4.99 2.3q3.07 0 5.14-2.3a7.8 7.8 0 0 0 2.07-5.41m57.05-7.43q0 6.56-.43 7.74-.88 2.73-5.29 9.25a101 101 0 0 1-6.56 8.74q-1 1.2-6.02 1.2-4.36 0-5.67-.32a2.6 2.6 0 0 1-1.35-.76q-2.3-2.49-6.56-8.67-4.56-6.64-5.45-9.1-.95-2.64-.95-7.93-.01-1.5.04-4.5l.03-4.55q0-1 1.35-1 1.95 0 5.88.11 3.94.12 5.9.12.87 0 .87 1.19 0 1.07-.15 3.24a51 51 0 0 0-.16 3.28q0 3.99.24 6.52.1 1.3 2.22 4.9 2.19 3.8 3.18 3.8.97 0 3.07-3.72 2.04-3.48 2.19-4.75.3-2.73.3-6.6 0-1.11-.23-3.36a36 36 0 0 1-.23-3.31q0-1.2.8-1.2.93 0 2.75.05l2.74.04q.93 0 2.78-.16 1.86-.15 2.78-.15.96 0 1.27 1 .66 2.18.66 8.9m40.35 5.79q0 3.87-2.5 4.41-.41.07-7.94.84-4.51.5-13.5 1.2.54 2.49 3.26 3.79a11.5 11.5 0 0 0 5.07 1.07q3.4 0 6.86-1.84l2.92-1.84q.8.39 2.7 3.91t1.9 4.49q0 .27-.57.88-4.69 5.03-14.54 5.03-9.14 0-14.73-5.34-5.75-5.4-5.75-14.45 0-8.82 5.13-14.47 5.3-5.82 14.04-5.83 7.37 0 12.5 5.38a17.8 17.8 0 0 1 5.15 12.77m-13.43-2.34q0-2.38-1.69-4.18a5.3 5.3 0 0 0-4.02-1.8q-2.41 0-4 2.03a7 7 0 0 0-1.45 4.41q0 1.05 1.07 1.04 2.85 0 8.83-.89 1.26-.18 1.26-.61m55.77 22.05q0 1.05-1.07 1.2-1.08.15-5.6.15-4.83 0-5.99-.23-1.14-.23-1.15-1.58 0-1.8.12-5.44t.11-5.49q0-1.42-.07-4.24-.09-2.82-.08-4.23 0-5.26-4.56-5.26-1.5 0-3.5 1.3-2.14 1.46-2.14 2.88v20.71q0 1.27-1.2 1.42-1.33.15-5.48.16-4.48 0-5.83-.23-1.18-.2-1.18-1.27l.03-9.01q.04-6.02.04-9.05 0-9.55-1.5-15a3 3 0 0 1-.07-.58q0-.6.57-.84 2.42-.27 6.45-.84 6.1-1.2 6.86-1.2.42 0 .66 2.6.23 2.59.65 2.59-.42 0 4.12-2.67t7.96-2.67q4.88 0 8.13 2.3a8.6 8.6 0 0 1 3.64 7.37v12.23l.04 7.47q.04 4.96.04 7.45m32.07-10.12q0 1.15-.3 3.49-.28 2.34-.28 3.43t-.23 1.4-1.26.88a22.4 22.4 0 0 1-10.97 2.73q-11.1 0-11.09-8.48 0-2.53.2-7.61.18-5.1.18-7.62 0-1.68-1.95-1.68h-.5l-.5.03q-1.46 0-1.46-1.03 0-.62.1-1.88t.1-1.88q0-.81-.1-2.45a48 48 0 0 1-.1-2.46q0-.77 2.46-.84 1.38-.05 1.5-.77.22-1.45.15-4.6l-.16-4.72q0-4.45.85-4.45 1.03 0 2.95.46 2.19.5 3.03.58 1.95.27 5.9.72.97.08.97.66 0 1.53-.25 4.64a63 63 0 0 0-.25 4.68q0 1.88 1.11 1.88 1.35 0 4.07-.12t4.1-.11q.84 0 .84.57 0 .88-.19 2.65-.2 1.76-.19 2.64 0 .93.04 2.69.04 1.77.04 2.69 0 .8-1.11.8-.77 0-2.57-.06t-2.57-.05h-2.88q-.57 0-.58 1.68v2.73q.04 1.83.04 2.72 0 3.22.73 4.45 1.05 1.65 4.07 1.65.96 0 2.74-.44 1.79-.45 2.51-.45.8 0 .8.85m43.5-23.63q0 2.84-.27 8.52-.26 5.67-.26 8.51 0 2.76.19 8.29t.19 8.24q0 1.05-.96 1.3-1.45.4-6.18.4-4.17 0-5.83-.24-.72-.1-.92-.92l-.23-2.3q-.18-1.76-.54-1.76.54 0-3.87 2.6t-8.01 2.61q-10.17 0-12.05-9.17-.84-4.26-.84-12.35 0-8.75 1.42-13.8.42-1.58 1.57-1.58l5.37.04q3.6.04 5.37.04 1.2 0 1.19 1 0 .27-.08.8-.8 5.21-.8 10.59 0 6.68.42 9.13.69 4.22 5.02 4.22 1.7 0 3.66-1.5t2.06-3.1q.07-1.43.07-19.26 0-1.26.2-1.5.22-.38 1.38-.38 1.87 0 5.65.04 3.77.04 5.66.04 1.15 0 1.34.57.09.3.08.92m31.76 10.97q0 1.5-1.65 1.5-.73 0-2.13-.1t-2.09-.1q-3.18 0-4.33 1t-1.15 4.03q0 1.65.06 5t.05 5q0 1.13.16 3.33.15 2.2.15 3.27 0 .92-1.27 1.04-1.83.16-5.63.16a59 59 0 0 1-5.83-.23q-1.27-.15-1.27-1.27 0-3.06.04-9.19l.04-9.18q0-9.01-1.65-14.85a3 3 0 0 1-.08-.57q0-.58.57-.77 2.12-.22 6.18-.84 6.07-1.2 6.25-1.2.7 0 .88 2.42.2 2.42.7 2.42-.54 0 3.14-2.01a15 15 0 0 1 7.1-2.02q2.15 0 2.15.93 0 1.1-.24 3.14-.23 2.18-.26 3.15a151 151 0 0 0 .11 5.94m39.62 3.07q0 3.87-2.5 4.41-.41.07-7.93.84-4.53.5-13.5 1.2.54 2.49 3.26 3.79a11.5 11.5 0 0 0 5.06 1.07q3.4 0 6.86-1.84l2.92-1.84q.81.39 2.7 3.91t1.9 4.49q0 .27-.57.88-4.68 5.03-14.54 5.03-9.13 0-14.73-5.34-5.75-5.4-5.75-14.45 0-8.82 5.14-14.47 5.29-5.82 14.04-5.83 7.35 0 12.5 5.38a17.8 17.8 0 0 1 5.14 12.77m-13.42-2.34q0-2.38-1.7-4.18a5.3 5.3 0 0 0-4.02-1.8q-2.42 0-3.99 2.03a7 7 0 0 0-1.46 4.41q0 1.05 1.08 1.04 2.83 0 8.82-.89 1.27-.18 1.27-.61M445 54.16q.09 1.04-1.07 1.04-.73 0-4.2-.85a51 51 0 0 1-4.28-1.15 42 42 0 0 1-15.38 3.15q-11.85 0-19.44-7.9-7.52-7.8-7.52-19.68 0-12.15 7.29-20.18Q407.9.31 419.92.31q5.83 0 10.97 2.22a21 21 0 0 1 8.75 6.9q.65.93.65 1.31 0 1.23-3.44 5.5-3.42 4.29-4.43 4.28-.23 0-1.76-1.57a16 16 0 0 0-3.83-2.92 13.4 13.4 0 0 0-6.45-1.57q-5.75 0-9.13 4.3-3.14 3.94-3.14 9.85 0 6.26 3.26 9.9 3.37 3.75 9.55 3.76 3.9 0 8.74-1.96-.1-1.27-.69-6.44-.5-4-.5-6.44 0-.74.5-.89.2-.07.62-.07 1.11 0 3.35.2 2.25.22 3.4.22 1.22 0 3.68-.18t3.68-.17q.96 0 .96 1.27 0 1.84-.21 5.56a108 108 0 0 0-.21 5.56q0 4.95.73 14.8zm43.65-17.96q0 2.96.35 8.8.34 5.83.34 8.74 0 1.53-1.34 1.65-4.75.34-10.9.34-.72 0-.97-2.2t-.6-2.25q-.3.15-.8.65-4.3 4.34-9.2 4.34-7.49 0-12.4-5.9a19.8 19.8 0 0 1-4.64-13.2q0-8.86 4.8-14.27 4.98-5.6 13.65-5.6 6.03 0 9.51 4.22.16.2.27.2.35 0 .79-1.87.45-1.86 1.06-1.86 1.41 0 5.4.8 3.8.77 5.45 1.31.57.23.58.61 0 .15-.12.8a84 84 0 0 0-1.23 14.7m-12.35.24q0-3.26-2.05-5.4a7 7 0 0 0-5.35-2.12q-3.3 0-5.33 2.11a7.5 7.5 0 0 0-2.04 5.4 7.4 7.4 0 0 0 2.15 5.34A7 7 0 0 0 468.9 44q3.26 0 5.33-2.12a7.5 7.5 0 0 0 2.07-5.43m81.28 17.52q0 1.35-1.15 1.5t-5.68.15q-4.68 0-5.83-.23t-1.15-1.88q0-1.77.11-5.27.12-3.51.12-5.28 0-6.72-.15-9.55-.23-4.56-4.34-4.56-1.8 0-3.58 1.51a5 5 0 0 0-1.98 3.36q-.15 1.61-.15 9.43 0 1.8.11 5.47t.12 5.5q0 1.27-1.11 1.27h-11.63q-1.07 0-1.07-1.57 0-1.8.12-5.41.1-3.6.11-5.45 0-1.42-.08-4.3t-.07-4.33q0-5.48-4.18-5.48-1.69 0-3.65 1.3-2.15 1.42-2.15 3l.04 10.43q.04 6.94.04 10.39 0 .96-.23 1.19t-1.19.3q-1.73.16-5.45.16-2.4 0-5.48-.23-.92-.07-1.1-.27-.17-.2-.17-1.15l.04-9.19q.04-6.12.04-9.18a123 123 0 0 0-1-14.85q0-.65.54-.88a13 13 0 0 1 3.18-.57q2.88-.27 3.42-.35.37-.08 3.03-.8 1.87-.54 3.03-.54.73 0 .76 2.66t.31 2.67q.39-.15.88-.54a36 36 0 0 1 5.45-3.68q2.95-1.42 6.4-1.42 3.53 0 6.3 1.57a8.2 8.2 0 0 1 4.02 4.95 16 16 0 0 1 5.6-4.64 15 15 0 0 1 6.95-1.88q5.06 0 8.24 2.34 3.6 2.66 3.6 7.56 0 2.03-.1 6.12a238 238 0 0 0-.12 6.11q0 2.42.11 7.27t.12 7.27M600 34.56q0 3.87-2.5 4.41-.42.07-7.93.84-4.53.5-13.5 1.2.53 2.49 3.25 3.79a11.5 11.5 0 0 0 5.07 1.07q3.4 0 6.86-1.84l2.92-1.84q.81.39 2.7 3.91t1.9 4.49q0 .27-.57.88-4.68 5.03-14.54 5.03-9.13 0-14.73-5.34-5.75-5.4-5.75-14.45 0-8.82 5.14-14.47 5.28-5.82 14.03-5.83 7.37 0 12.5 5.38A17.8 17.8 0 0 1 600 34.56m-13.42-2.34q0-2.38-1.7-4.18a5.3 5.3 0 0 0-4.02-1.8q-2.42 0-3.99 2.03a7 7 0 0 0-1.46 4.41q0 1.05 1.08 1.04 2.83 0 8.82-.89 1.26-.18 1.27-.61m-359.24 73.09q0 7.8-6.55 13.35-5.76 4.91-14 6.25-.31.04-.5.04-.9 0-3.91-5.39-3.03-5.38-3.03-6.58 0-.42.57-.53 5.55-1.27 7.37-2.15 3.99-2 3.99-5.9 0-2.5-2.61-5.57-4.53-5.21-4.91-5.8a15.6 15.6 0 0 1-2.65-8.81q0-7.02 6.48-11.66 5.3-3.84 13-4.99.43-.04.66-.04.57 0 .92.92 1 2.8 4.64 10.13a1 1 0 0 1 .12.38q0 .66-.7.66-.3 0-1.03-.12a9 9 0 0 0-5.95 1.15q-2.49 1.46-2.49 4.07 0 2.34 2.76 5.75l5.1 6.44q2.72 4.23 2.72 8.4m31.76 6.41q0 1.15-.28 3.5-.3 2.33-.3 3.42 0 1.1-.22 1.4-.24.3-1.27.88a22.4 22.4 0 0 1-10.97 2.73q-11.08 0-11.08-8.48 0-2.53.19-7.61.2-5.09.19-7.62 0-1.68-1.96-1.68h-.5l-.5.03q-1.44 0-1.45-1.03 0-.61.1-1.88.1-1.26.1-1.88 0-.8-.1-2.45t-.1-2.46q0-.77 2.46-.84 1.37-.04 1.5-.77.22-1.45.15-4.6-.15-4.95-.16-4.72 0-4.45.84-4.45 1.04 0 2.96.46 2.19.5 3.03.57 1.95.28 5.9.73.96.08.96.66 0 1.53-.25 4.64a64 64 0 0 0-.25 4.67q0 1.89 1.12 1.89 1.35 0 4.06-.12 2.73-.11 4.1-.11.85 0 .85.57 0 .88-.19 2.65-.2 1.76-.2 2.64 0 .93.05 2.69l.04 2.68q0 .81-1.12.81-.75 0-2.57-.06-1.8-.06-2.57-.06h-2.87q-.58 0-.58 1.7v2.72q.04 1.83.04 2.72 0 3.22.73 4.45 1.04 1.65 4.06 1.65.96 0 2.75-.44 1.78-.44 2.51-.44.8 0 .8.84m43.5-23.62q0 2.83-.27 8.5a197 197 0 0 0-.27 8.52q0 2.76.2 8.29.18 5.52.18 8.25 0 1.03-.95 1.3-1.46.38-6.18.38-4.18 0-5.83-.23-.74-.11-.92-.92l-.23-2.3q-.19-1.76-.54-1.76.54 0-3.87 2.6t-8.02 2.61q-10.17 0-12.04-9.16-.85-4.26-.85-12.35 0-8.75 1.42-13.81.42-1.58 1.57-1.58l5.37.04q3.6.04 5.38.04 1.18 0 1.18 1 0 .27-.07.8-.81 5.22-.81 10.59 0 6.68.42 9.13.7 4.22 5.03 4.22 1.68 0 3.66-1.5t2.05-3.1q.08-1.42.08-19.26 0-1.26.2-1.5.21-.38 1.37-.38l5.66.04q3.77.04 5.66.04 1.14 0 1.34.57.08.31.08.92m46.98-19.56q0-.84-.3 2.53-.43 4.26-.65 10.9-.31 7.5-.31 17.1 0 15.84.88 22.55.08.75.08.92 0 .43-.58.5-1.37.2-10.16.2-2.07 0-2.38-.81l-.15-2.92q-.05-.3-.3-.61-.24.12-.58.46a14.2 14.2 0 0 1-10.36 4.07q-8.1 0-12.96-5.68-4.64-5.4-4.64-13.65 0-8.37 4.56-13.78 4.83-5.75 13.04-5.75 5.8 0 9.01 3.68.54.62.77.62.34 0 .34-1 0-2.95-.15-8.82t-.15-8.79q0-1.11.61-1.26 2.46-.12 6.75-.46 7.68-.96 6.8-.96.83 0 .83.96m-14.46 35.25q0-3.03-2.1-5.31a6.7 6.7 0 0 0-5.1-2.28q-3.15 0-5.01 2.28a8.4 8.4 0 0 0-1.86 5.46 7.7 7.7 0 0 0 1.88 5.26 6.2 6.2 0 0 0 4.98 2.3q3.07 0 5.14-2.3a7.8 7.8 0 0 0 2.07-5.41m34.33 1.57q0 2.8.12 8.34.1 5.55.11 8.3 0 .82-.96.97-1.3.23-5.87.23-4.6 0-5.9-.23-.84-.15-1.04-.5-.08-.15-.08-1.15 0-2.65.12-7.96.12-5.3.12-8 0-10.9-.85-17.33-.08-.62-.08-.8 0-.78 1.04-.78 1.06 0 3.28.24 2.2.23 3.32.23t3.33-.2q2.23-.19 3.34-.19.92 0 .92.77 0 .15-.08.73-.84 7.47-.84 17.33m1-28.5q0 6.68-7.52 6.68a8.3 8.3 0 0 1-5.33-1.69 6 6 0 0 1-2.3-4.99q0-2.99 2.38-4.9a8 8 0 0 1 5.25-1.77q3 0 5.18 1.8a6 6 0 0 1 2.34 4.87m43.3 27.24q0 8.75-5.35 14.19-5.35 5.45-14.05 5.45-8.44 0-13.89-5.37t-5.45-13.81q0-8.9 5.22-14.44 5.22-5.55 14.11-5.55 8.67 0 14.04 5.43t5.37 14.1m-12.58 0q0-3.03-1.88-5.35a6 6 0 0 0-4.87-2.32q-3.03 0-4.99 2.37a8 8 0 0 0-1.84 5.3q0 3.1 1.85 5.33a6.2 6.2 0 0 0 4.98 2.38q3 0 4.95-2.38a8.2 8.2 0 0 0 1.8-5.33" style="fill:#fff"/></svg>