<svg xmlns="http://www.w3.org/2000/svg" viewBox="0 0 3840 1265.9"><path d="M1589.9 0h-169.8l-861 1252.9h190.3L1610.5 0zm-221.6 0h-169.7L337.5 1252.9h190.3L1388.9 0zM1282 1043.1h-183.9l-28.5 43.1c-8 12.8-13.8 22.3-17.5 28.4-7.4 12.2-12.6 22-15.6 29.3-7.4 13.5-11 24.8-11 33.9 0 17.7 17.9 28.7 53.9 33 16.4 2.5 24.7 9.5 24.7 21.1 0 14.1-9.7 21.1-29.2 21.1l-34.7-2.2-60.3-3.3-77.6 5.5h-24.6c-14.6 0-21.9-5.5-21.9-16.4 0-9.1 2.9-15.7 8.7-19.6 5.8-4 16.8-6.8 32.9-8.7 16.1-1.8 29.7-8.5 40.6-20.1l35.6-44.7 15.5-23.7 16.4-22.8 16.4-23.7 288.5-410.8c14.6-21.9 25-35.3 31-40.2 6.1-4.9 15.5-7.3 28.3-7.3 14 0 23.6 3.7 28.8 11s7.8 23.2 7.8 47.6l28.3 457.8q0 27.6 3.3 44.1c1.9 9.4 6.5 18 13.1 24.9 5.8 6.2 12.9 11.2 21 13.7 10.9 3.5 16.3 9.7 16.3 18.9 0 13.4-9.1 20.1-27.4 20.1l-29.2-2.7-53.8-2.7c-17 0-35.8.7-56.1 2.1-20.4 1.4-42.2 2.5-65.3 3.4h-30.1c-14 0-21-5.8-21-17.3 0-7.9 2.9-13.7 8.7-17.3 5.8-3.7 16.6-6.4 32.4-8.2s26.5-6.2 32-13.2 8.2-19 8.2-36.1v-37.4zm-3.7-45.6-8.2-211.1-142.7 211.1zm1399.6-266.6-115 400.8c-5.5 19.5-8.2 34.4-8.2 44.7 0 22.5 12.2 33.8 36.5 33.8 21.9 0 32.9 6.8 32.9 20.5 0 13.1-9.4 19.6-28.3 19.6h-52.9l-98.6-3.6q-28.35 0-42.9.9c-9.7.6-33.8 2.7-72.1 6.4h-3.7q-23.7 0-23.7-18.3c0-7.3 2.7-12.3 8.2-15.1s17.9-6.1 37.4-10c19.5-4 31.3-9.1 35.6-15.5 4.2-6.4 11.3-26.9 21-61.6l114.1-398.9c4.2-14.6 6.4-24.3 6.4-29.2 0-15.8-11.3-23.7-33.8-23.7-19.5 0-29.2-5.8-29.2-17.5 0-7 2.4-12.5 7.3-16.6s11.6-6.1 20.1-6.1h92.2c58.4 0 99.2-1.5 122.3-4.4l48.4-2.9c12.2 0 18.3 5.8 18.3 17.3 0 7.9-3.1 13.7-9.1 17.3q-9.15 5.4-33.3 9.6c-16.1 2.7-26.9 7.2-32.4 13.2-5.7 6.1-11.5 19.2-17.5 39.3" class="st18" style="fill:#fff"/><path d="M3238.4 1075.1s-19.4 68.2-28.3 98.9c-10.5 35.8-109.4 92-230 92-91.3 0-165.6-22.8-222.8-68.5-57.2-45.6-85.8-104.7-85.8-177.1 0-57.8 17.3-112.6 52-164.3s83.7-96.2 147-133.3c51.7-30.4 107.6-54.2 167.5-71.2s118.8-25.6 176.7-25.6c38.9 0 73.3 3.3 103.2 9.8 15.2 3.6 22.8 10.1 22.8 19.6 0 5.4-1.8 12.3-5.5 20.8l-22.8 69.4c-9.1 31.7-21 47.5-35.6 47.5-15.8 0-23.7-12.5-23.7-37.4l1.8-46.6q0-23.7-9.6-33.3t-32.4-9.6c-39 0-78.8 7.9-119.6 23.8-40.8 15.8-79.4 38.4-115.9 67.7-43.2 34.7-77.3 77.4-102.3 128s-37.4 103-37.4 157.3q0 84.15 43.8 133.5c29.2 32.9 69.1 49.4 119.6 49.4 15.2 0 25.7-2.3 31.5-6.8s11.1-15 16-31.4l33.8-119.1c2.4-6.7 3.6-14.3 3.6-22.7 0-13.3-2.7-22-8.2-25.9q-8.25-5.85-43.8-10.5-19.2 0-19.2-18.3c0-13.4 10.6-20.1 32-20.1l45.6.9 82.2 2.7h21.9c26.8 0 50.8-1.2 72.1-3.7h43.8c15.2 0 22.8 5.2 22.8 15.7 0 14.6-12.5 23-37.4 25.3-15.8 0-28 4.6-36.5 13.7-8.6 9.2-16.2 25.6-22.9 49.4m377-32h-183.9l-28.5 43.1c-8 12.8-13.8 22.3-17.5 28.4-7.4 12.2-12.6 22-15.6 29.3-7.4 13.5-11 24.8-11 33.9 0 17.7 17.9 28.7 53.9 33 16.4 2.5 24.7 9.5 24.7 21.1 0 14.1-9.7 21.1-29.2 21.1l-34.7-2.2-28.1-1.5c-21.4-1.2-42.9-1.1-64.3.2l-57.9 3.5c-14.6 0-21.9-5.5-21.9-16.4 0-9.1 2.9-15.7 8.7-19.6 5.8-4 16.8-6.8 32.9-8.7 16.1-1.8 17.5-8.5 28.4-20.1l35.6-44.7 15.5-23.7 16.4-22.8 16.4-23.7 288.5-410.8c14.6-21.9 25-35.3 31-40.2 6.1-4.9 15.5-7.3 28.3-7.3 14 0 23.6 3.7 28.8 11s7.8 23.2 7.8 47.6l28.3 457.8q0 46.65 9.6 61.8c6.4 10.1 18.4 16.3 36.1 18.8 17.6 2.4 26.5 9.5 26.5 21.1 0 13.4-9.1 20.1-27.4 20.1l-29.2-2.7-72.1-2.7c-17 0-35.8.7-56.1 2.1-20.4 1.4-42.2 2.5-65.3 3.4H3560c-14 0-21-5.8-21-17.3 0-7.9 2.9-13.7 8.7-17.3 5.8-3.7 16.6-6.4 32.4-8.2s26.5-6.2 32-13.2 8.2-19 8.2-36.1v-37.4zm-3.6-45.6-8.2-211.1-142.7 211.1zM2156.7 764.6l-288.5 430c-14 21.3-24.4 34.7-31 40.2-6.7 5.5-15.8 8.2-27.4 8.2-12.2 0-20.4-2.7-24.6-8.2-4.3-5.5-6.4-17.4-6.4-35.7l-14.6-435.6-92.2 251.3-14.6 49.5c-11.6 38.5-18.3 61.9-20.1 70.1s-2.7 18.8-2.7 31.6c0 14.7 3.5 24.3 10.5 28.9s23.9 9 50.7 13.3c15.2 1.8 22.8 8.5 22.8 20.2 0 14.7-9.7 22-29.2 22l-33.8-3.3-53.9-2.2-70.9 2.7q-23.7 0-23.7-18.3c0-9.9 8-17.2 24.1-21.8a53 53 0 0 0 23.7-15.1c3.2-3.5 5.8-6.4 5.8-6.4q10.05-12.3 39.3-93.6l118.7-334.1c11-32.9 16.4-53.2 16.4-61.2 0-6.7-2.9-11.6-8.7-14.6q-8.7-4.5-35.1-8.7c-17.7-2.7-26.5-9.3-26.5-19.6 0-5.5 2.4-10.3 7.3-14.6s10.6-6.4 17.3-6.4l33.8 3.7h171.5c7.3 0 11.6 1.2 12.8 3.6q2.7 4.65 2.7 22.8l14.6 373.3L2171.3 656c6.1-9.3 10.3-14.8 12.8-16.6 2.4-1.7 7.3-2.6 14.6-2.6h181.7c13.4 0 20.1 5.5 20.1 16.4 0 15.2-10.5 23.9-31.5 26s-34.1 6.4-39.3 12.7c-5.2 6.4-10.5 20.8-16 43.3l-89.5 372.8c-2.4 10.3-4.9 22.8-7.3 37.4s-3.6 24.3-3.6 29.2q0 15.45 8.7 22.8c5.8 4.9 16.6 8.5 32.4 10.9q23.7 3.6 23.7 21c0 14-10.7 21-32 21H2217c-43.2-4.9-78.5-7.3-105.9-7.3-30.4 0-56.6 1.2-78.5 3.7l-45.6 3.6q-22.8 0-22.8-19.2c0-10.3 5.5-17.3 16.4-21l15.5-2.7 11-.9 10-1.8c12.2-1.2 20.8-5.9 26-14.1s12-29.1 20.5-62.5zm-1966.4-2.8H0l332.6 484 95.2-138.4zm147.2 491.1h190.3l-95.1-138.5zm74.4-491.1H221.6l221.8 322.8 95.2-138.4zm131.5 191.4-95.1 138.5 105.9 154.1 95.2-138.4z" class="st18" style="fill:#fff"/></svg>