<svg xmlns="http://www.w3.org/2000/svg" viewBox="0 0 264 30"><path d="M21.35 21.43h-9.6l-1.88 1.92-2.1 2.09q-.61.69-.89 1.24-.2.43-.19.86.03.45.63.82.6.38 1.97.44l.03.63H0l.2-.63a6 6 0 0 0 2.17-.7q1.25-.75 3.55-3.06L26.98 4.08h1.04v20.28q0 1.59.02 1.93.06 1.26.72 1.84.64.57 2.1.67l-.19.63H17.19l.22-.63q2-.15 2.29-.26.64-.26 1.12-1.08t.5-2.85zm-.07-1.5.2-8.09-8.22 8.1zM50.46 4.65l3.17 17.07L67.6 4.65h10.96l-.25.64q-2.25 0-3.38.77-1.14.76-1.85 3.04L68.13 25a7 7 0 0 0-.44 2.26q.03.68.74 1.1.72.42 2.74.45l-.18.64H55.45l.24-.64q2.51 0 3.66-.77T61.24 25l5-16.1-16.77 20.55h-.97L44.63 8.49 39.5 25q-.31 1.03-.28 1.71.04.92.86 1.5.83.55 2.73.61l-.2.64H32.33l.18-.64a6 6 0 0 0 2.81-.63A5.5 5.5 0 0 0 37.7 25l5.8-18.36a6 6 0 0 0-1.79-1.1 9 9 0 0 0-2.6-.25l.25-.64zm30.82.62.22-.63h15.22l-.26.63q-2.07 0-3.13.74-1.05.74-1.76 3.09l-4.94 15.87a8 8 0 0 0-.5 2.28q.03.66.69 1.03.85.49 3.15.52l-.2.63H74.35l.22-.63q2.33 0 3.36-.71 1.05-.72 1.8-3.12L84.67 9.1q.45-1.48.41-2.24-.03-.68-.7-1.07t-3.1-.52m61.05 16.16h-9.6l-1.88 1.92-2.1 2.09q-.61.69-.89 1.24-.2.43-.19.86.03.45.63.82.6.38 1.96.44l.04.63h-9.32l.2-.63a6 6 0 0 0 2.17-.7 21 21 0 0 0 3.55-3.06l21.06-20.96H149v20.28q0 1.59.02 1.93.06 1.26.72 1.84.64.57 2.1.67l-.2.63h-13.47l.22-.63q2-.15 2.29-.26.63-.26 1.12-1.08t.5-2.85zm-.07-1.5.2-8.09-8.22 8.1z" style="fill:#fff"/><path d="M125.27 4.31c.22.2.28.9.28.9l-1.48 6.8h-.8c-.23-2.3-.32-3.94-1.56-4.95s-1.89-1.58-4.04-1.58c-2.22 0-5.02.68-7.17 1.91-2.16 1.24-4.83 3.15-6.26 5.72-1.43 2.58-2.3 5.28-2.16 8.12q.18 3.66 2.45 5.57a7.8 7.8 0 0 0 5.17 1.93q1.23 0 2.96-.53l2.04-6.55q.5-1.64.49-2.16-.04-.67-.78-1.14a5 5 0 0 0-2.52-.47l.2-.7h13.38l-.17.7q-1.2.06-1.86.37-.66.32-1.02.92-.21.36-.62 1.85l-2.3 7.38a33 33 0 0 1-10.32 1.6q-4.22 0-7.23-1.19-3-1.18-5.08-3.76a10 10 0 0 1-2.23-5.87q-.35-7.01 7.27-11.57c3.98-2.35 8.48-3.38 13.63-3.63.49 0 1.75-.12 3.5-.12 1.5 0 3.23.05 5.74.23 0 0 .21-.03.48.23m41.34 6.25v12.38a6.1 6.1 0 0 0 6.03 6.18h13.2a6.1 6.1 0 0 0 6.01-6.18v-3.17h-5.97v1.2c0 1.53-1.1 2.65-2.59 2.65h-8.2c-1.5 0-2.59-1.12-2.59-2.66V13.1c0-1.54 1.1-2.66 2.58-2.66h7.68c1.49 0 2.58 1.12 2.58 2.66v.64h5.98v-3.17a6.1 6.1 0 0 0-6.02-6.18h-12.67a6.1 6.1 0 0 0-6.02 6.18m34.8 13.09V9.9h10.56a3.4 3.4 0 0 1 3.34 3.44v6.87a3.4 3.4 0 0 1-3.34 3.44zm-5.9 5.5h19.22a6.73 6.73 0 0 0 6.56-6.74V11.14c0-3.65-3-6.73-6.56-6.73H195.5zM250.09 7.3c-2.4 0-4.84 1.27-4.84 3.7v2.25h.02v3.25H264v-3.48h-13.5c-1.73-.45.17-1.87 1.06-1.97h8.1c2.4 0 4.34-1.98 4.34-4.4V4.4c0-2.43-1.94-4.4-4.34-4.4h-9.54c-2.4 0-4.87 1.42-4.87 3.85V6.1h4.71v-.46c0-1.09.79-1.89 1.87-1.89h6.06c1.04 0 1.8.75 1.86 1.78a1.8 1.8 0 0 1-1.86 1.77zm-10.64.96c1.81-.14 3.14-.7 3.14-2.71V3.3c0-2.43-1.94-3.3-4.34-3.3h-8.47c-2.4 0-4.87 1.42-4.87 3.85V6.1h4.72v-.46c0-1.09.78-1.89 1.86-1.89h5c1.03 0 1.8.2 1.85 1.22a1.8 1.8 0 0 1-1.86 1.78h-4.06V9.8h4.6c1.04 0 1.8.74 1.86 1.77-.06 1.03-.82 1.23-1.86 1.23h-5.53c-1.08 0-1.87-.8-1.87-1.9v-.45h-4.71v2.25c0 2.43 2.48 3.85 4.87 3.85h9.01c2.73-.05 4.34-1.42 4.34-3.85V11c0-2.2-1.6-2.67-3.68-2.74" style="fill:#fff"/></svg>