<svg xmlns="http://www.w3.org/2000/svg" baseProfile="tiny" viewBox="-54.3 345.6 482 105.2"><path d="M-1.6 345.6a52.6 52.6 0 1 0 16 102.7V422c-4.4 2.5-9.5 4-14.9 4-16 0-28.9-12.5-28.9-27.8s13-27.8 28.9-27.8c5.5 0 10.6 1.5 14.9 4v-26.3c-5-1.6-10.4-2.5-16-2.5m16.5 32.6h39.2l-17.6 18.3H14.9zm0 40.2h39.2l-17.6-18.2H14.9zm105.5-26.5c5 0 9-1.4 12.2-4 3.2-2.7 4.8-6.4 4.9-11.3-.1-4.9-1.7-8.7-4.9-11.4s-7.2-4-12.2-4-9 1.4-12.2 4-4.8 6.5-4.9 11.4c.1 4.9 1.7 8.7 4.9 11.3s7.2 4 12.2 4m0-7.1c-2.3-.1-4-.9-5.1-2.5a9.2 9.2 0 0 1-1.5-5.8c0-2.3.5-4.2 1.5-5.8s2.7-2.4 5.1-2.5c2.3.1 4 .9 5.1 2.5s1.6 3.5 1.5 5.8c0 2.2-.5 4.2-1.5 5.8-1.1 1.6-2.8 2.4-5.1 2.5m21.2 6.4h10.2v-12.4c0-3.1.5-5.5 1.5-7s2.4-2.2 4.2-2.2c1.4 0 2.5.6 3.1 1.7s1 2.5 1 4.2v15.8h10.2v-12.4c0-3.1.5-5.5 1.5-7s2.4-2.2 4.2-2.2c1.4 0 2.5.6 3.1 1.7s1 2.5 1 4.2v15.8h10.2v-17.3c.1-4-.6-7.1-2-9.4-1.4-2.2-4.2-3.4-8.4-3.4-2.1 0-4.1.4-5.9 1.3s-3.3 2.3-4.5 4.3c-.8-1.9-2-3.3-3.6-4.3-1.6-.9-3.5-1.4-5.6-1.4-2.3 0-4.5.5-6.3 1.5-1.9 1-3.3 2.5-4.4 4.6h-.1v-5.4h-9.3zm55.7 0h10.2v-12.4c0-3.1.5-5.5 1.5-7s2.4-2.2 4.2-2.2c1.4 0 2.5.6 3.1 1.7s1 2.5 1 4.2v15.8h10.2v-12.4c0-3.1.5-5.5 1.5-7s2.4-2.2 4.2-2.2c1.4 0 2.5.6 3.1 1.7s1 2.5 1 4.2v15.8h10.2v-17.3c.1-4-.6-7.1-2-9.4-1.4-2.2-4.2-3.4-8.4-3.4-2.1 0-4.1.4-5.9 1.3s-3.3 2.3-4.5 4.3c-.8-1.9-2-3.3-3.6-4.3-1.6-.9-3.5-1.4-5.6-1.4q-3.6 0-6.3 1.5c-1.9 1-3.3 2.5-4.4 4.6h-.1v-5.4h-9.3zm71.3.7c5 0 9-1.4 12.2-4 3.2-2.7 4.8-6.4 4.9-11.3-.1-4.9-1.7-8.7-4.9-11.4s-7.2-4-12.2-4-9 1.4-12.2 4-4.8 6.5-4.9 11.4c.1 4.9 1.7 8.7 4.9 11.3s7.3 4 12.2 4m0-7.1c-2.3-.1-4-.9-5.1-2.5a9.2 9.2 0 0 1-1.5-5.8c0-2.3.5-4.2 1.5-5.8s2.7-2.4 5.1-2.5c2.3.1 4 .9 5.1 2.5a10 10 0 0 1 1.6 5.8c0 2.2-.5 4.2-1.6 5.8s-2.7 2.4-5.1 2.5m52.9-35.9h-10.2v16.7h-.1c-1.3-1.7-2.8-2.8-4.5-3.5s-3.6-1-5.6-1c-4.1.2-7.2 1.7-9.3 4.7s-3.2 6.4-3.2 10.1c0 4.5 1.2 8.2 3.4 11.2 2.3 3 5.6 4.6 10 4.7 2.4 0 4.5-.6 6.3-1.7a9 9 0 0 0 3.8-4.2h.1v5.3h9.4zm-22.6 27.3c0-2 .5-3.7 1.6-5.1s2.6-2.1 4.6-2.2c1.9 0 3.4.8 4.5 2.2a8.6 8.6 0 0 1 1.7 5.5c0 2.2-.7 4-1.8 5.4a5.5 5.5 0 0 1-4.4 2.1c-1.9 0-3.4-.8-4.5-2.2s-1.7-3.3-1.7-5.7m43.5 15.7c5 0 9-1.4 12.2-4 3.2-2.7 4.8-6.4 4.9-11.3-.1-4.9-1.7-8.7-4.9-11.4s-7.2-4-12.2-4-9 1.4-12.2 4c-3.2 2.7-4.8 6.5-4.9 11.4.1 4.9 1.7 8.7 4.9 11.3s7.3 4 12.2 4m0-7.1c-2.3-.1-4-.9-5.1-2.5-1-1.6-1.6-3.5-1.5-5.8 0-2.3.5-4.2 1.5-5.8s2.7-2.4 5.1-2.5c2.3.1 4 .9 5.1 2.5 1 1.6 1.6 3.5 1.5 5.8 0 2.2-.5 4.2-1.5 5.8s-2.7 2.4-5.1 2.5m42.8-23.3c-.5-.1-1.1-.2-1.7-.2-.6-.1-1.2-.1-1.8-.1-2.2 0-4 .6-5.3 1.7-1.4 1.1-2.5 2.6-3.4 4.4h-.1v-5.4h-9.3v29.4h10.2v-12.4c0-2.9.6-5.2 1.9-6.8s3.1-2.4 5.5-2.4h1.7c.6 0 1.1.1 1.7.3zm31.9 18v-1.9c.1-4.5-1.1-8.4-3.3-11.5-2.3-3.2-6.1-4.8-11.5-5-4.7 0-8.4 1.4-11.3 4-2.9 2.7-4.4 6.4-4.4 11.3.1 4.9 1.7 8.7 4.9 11.3 3.2 2.7 7.2 4 12.2 4.1a28 28 0 0 0 10.8-1.8v-7.2c-1.5.8-3.1 1.4-4.6 1.7-1.5.4-3 .5-4.4.5-2.5 0-4.5-.4-6-1.3s-2.4-2.3-2.7-4.3zm-20.5-5.8c.1-1.7.6-3.2 1.5-4.3.9-1.2 2.3-1.8 4.1-1.8 2 0 3.5.6 4.3 1.8.9 1.2 1.3 2.6 1.3 4.3zm-315 17.8c-4.4-1.2-7.8-3.2-10.6-6.3s-4.1-5.9-4.9-10.9c-1.5-9.8 2.7-18.8 10.8-22.7 4.1-2 9.6-3 15.1-3 3.4 0 6.4.6 9.2 1.1l-.9 8.8s-.7-.2-2.7-.7c-1.9-.5-3.8-.7-5.7-.7-3.8 0-7.5 1-9.9 2.9-5.7 4.4-5.7 15.9.2 20.7 3.6 3 10.1 4 15.9 2.5l2.7-.7.8 8.9c-1.7.4-5.3 1.1-9.7 1.1-5.8 0-7.6-.2-10.3-1m-22.8 5.1h369v3h-369zm60.7 48.1c0-.5-.1-.9-.4-1-.3-.2-.6-.3-1.1-.3-1.6-.3-2.5-.9-2.8-1.8-.3-1-.4-2.2-.4-3.7l-1.6-30.8c0-1.1-.1-2-.3-2.8-.2-.7-.9-1.1-2.2-1.2a3 3 0 0 0-2.4 1c-.5.6-1 1.4-1.6 2.2l-19.8 27.8-3.3 4.7c-.7 1-1.4 1.9-2.1 2.8-.8.9-1.8 1.4-3 1.6-.7.1-1.3.2-1.9.4s-.9.7-1 1.5c0 .5.2.8.5.9s.7.2 1.1.2c1.1 0 2.3-.1 3.5-.2s2.3-.2 3.5-.2c1.1 0 2.1.1 3.1.2s2.1.1 3.1.2c.5 0 .9-.1 1.3-.3s.6-.6.6-1.1c-.1-.8-.5-1.2-1.4-1.3s-1.7-.3-2.6-.5-1.3-.8-1.4-1.9c.2-1.1.9-2.7 2.2-4.7s2.2-3.5 2.8-4.3h12.3c.1 1.3.1 2.6.2 3.9s.1 2.6.1 3.9c-.1 1.8-.5 2.9-1.4 3.2s-1.8.5-2.6.5c-.9 0-1.4.6-1.4 1.5 0 .4.1.7.4.9s.6.2 1 .2c1.7 0 3.4-.1 5.1-.2s3.4-.2 5.1-.2c1.1 0 2.3.1 3.4.1 1.1.1 2.3.1 3.4.1.5 0 1-.1 1.3-.2.5-.2.7-.6.7-1.1m-15.2-15.8H94l9.8-14.3zm104.6-23.4c0-.4-.1-.6-.4-.8q-.3-.3-.9-.3c-.6 0-1.1 0-1.6.1-.5 0-1.1.1-1.6.2l-4.1.3c-1.4 0-2.8.1-4.2 0-1 0-2-.1-3.1-.1-1-.1-2-.1-3.1-.1-.5 0-.9.1-1.3.4q-.6.45-.6 1.2c.2.9.9 1.4 2.1 1.3s1.9.5 2.1 1.6c0 .3 0 .6-.1 1-.1.3-.2.6-.3 1l-7.8 27c-.3 1.3-.6 2.4-1 3.3s-1.2 1.5-2.5 1.8c-.6.1-1.3.2-2.1.4s-1.3.7-1.3 1.4c0 .4.2.7.5.9s.7.3 1.1.3c1.3 0 2.7-.1 4-.2 1.4-.1 2.7-.2 4.1-.2 1.5 0 2.9.1 4.4.2s2.9.1 4.4.1c.6 0 1.3 0 2.1-.1s1.2-.5 1.3-1.3c-.1-.8-.5-1.2-1.2-1.3s-1.5-.2-2.2-.4q-1.05-.3-1.2-2.1c0-.5.1-1 .2-1.5s.3-1 .4-1.5l7.8-27.1c.3-1.1.6-1.9 1-2.4s1.2-.9 2.3-1.1c.6-.1 1.2-.2 1.9-.5q.75-.6.9-1.5m40.6.3c-.1-.7-.8-1.1-2-1.4-1.3-.3-2.6-.4-4-.5s-2.3-.1-2.8-.1c-5.2 0-10.6 1.1-16.2 3.1-5.6 2.1-10.4 5.1-14.4 9.1s-6.1 8.9-6.2 14.7c.1 3.7 1.1 6.7 3.2 9.1s4.6 4.2 7.8 5.4c3.1 1.2 6.3 1.8 9.7 1.8 2 0 4-.1 6.1-.4 2-.2 4-.6 6-1.1.7-.1 1.4-.3 1.9-.6q.75-.3 1.2-1.5c.5-1.5 1-3.1 1.5-4.7.4-1.6.9-3.2 1.3-4.7.7-2.2 1.6-3.6 2.6-4q1.5-.6 2.7-.6t1.2-1.5c0-.4-.2-.7-.5-.9s-.7-.3-1-.3c-1.5 0-3.1.1-4.6.2-1.6.1-3.1.2-4.7.2-1.5 0-3-.1-4.4-.2-1.5-.1-3-.2-4.4-.2-.5 0-1 .1-1.4.3-.5.2-.7.6-.7 1.1q.15 1.05 1.2 1.2c.8.1 1.5.2 2.3.5.8.2 1.2.9 1.2 2-.1 1.2-.4 2.7-1.1 4.8-.6 2-1.2 3.6-1.6 4.9-.2.9-.6 1.6-1 2q-.6.6-2.1.6c-3.6-.1-6.4-1.2-8.2-3.5-1.9-2.3-2.8-5.1-2.8-8.6 0-3.2.7-6.4 2-9.4s3.1-5.7 5.3-8c2.2-2.2 5-4.1 8.2-5.7 3.3-1.6 6.5-2.4 9.7-2.5 1.5 0 2.4.3 2.8.9.3.6.5 1.6.4 3 0 .4 0 .7-.1 1.1 0 .4-.1.7-.1 1.1 0 .6.1 1.2.3 1.7s.7.8 1.4.8c.8-.1 1.3-.4 1.7-1.1s.6-1.4.8-2c.2-.5.5-1.5 1-3.1.4-1.6.7-2.6.8-3m35.4 38.9c0-.5-.1-.9-.4-1-.3-.2-.6-.3-1.1-.3-1.6-.3-2.5-.9-2.8-1.8-.3-1-.4-2.2-.4-3.7l-1.6-30.8c0-1.1-.1-2-.3-2.8-.2-.7-.9-1.1-2.2-1.2a3 3 0 0 0-2.4 1c-.5.6-1 1.4-1.6 2.2l-19.8 27.8-3.3 4.7c-.7 1-1.4 1.9-2.1 2.8-.8.9-1.8 1.4-3 1.6-.7.1-1.3.2-1.9.4s-.9.7-1 1.5c0 .5.2.8.5.9s.7.2 1.1.2c1.1 0 2.3-.1 3.5-.2s2.3-.2 3.5-.2c1.1 0 2.1.1 3.1.2 1.1.1 2.1.1 3.1.2.5 0 .9-.1 1.3-.3s.6-.6.6-1.1c-.1-.8-.5-1.2-1.4-1.3s-1.7-.3-2.6-.5-1.3-.8-1.4-1.9c.2-1.1.9-2.7 2.2-4.7s2.2-3.5 2.8-4.3h12.4c.1 1.3.1 2.6.2 3.9s.1 2.6.1 3.9c-.1 1.8-.5 2.9-1.4 3.2s-1.8.5-2.6.5c-.9 0-1.4.6-1.4 1.5 0 .4.1.7.4.9s.6.2 1 .2c1.7 0 3.4-.1 5.1-.2s3.4-.2 5.1-.2c1.1 0 2.3.1 3.4.1 1.1.1 2.3.1 3.4.1.5 0 1-.1 1.3-.2.4-.2.6-.6.6-1.1m-15.3-15.8h-10.3l9.8-14.3zm-86.9-23.2c0-.4-.1-.7-.4-.9q-.3-.3-.9-.3c-1.3 0-2.6 0-3.9.1s-2.6.1-3.9.1c-.7 0-1.7-.1-3.1-.1s-2.3.1-2.8.5c-.1.1-.2.3-.2.4-.1.2-.2.3-.2.4l-17 25.7-.7-25.3c0-.5 0-.9-.1-1.2-.1-.4-.4-.5-.9-.6-1.4 0-2.9 0-4.3.1H140c-.8 0-1.6-.1-2.4-.1-.8-.1-1.6-.1-2.4-.1-.5 0-1 .1-1.5.2-.5.2-.7.5-.8 1.1.2 1 1 1.5 2.3 1.4 1.4 0 2.1.5 2.3 1.4 0 .7-.2 1.4-.4 2.1-.3.7-.5 1.4-.7 2-1.5 4.2-3 8.3-4.5 12.5s-3 8.3-4.6 12.5c-.6 1.8-1.2 3-1.8 3.7s-1.8 1.2-3.7 1.5c-.5.1-1 .2-1.4.5q-.6.3-.6 1.2c0 .5.2.8.5 1 .3.1.7.2 1.2.2 1.1 0 2.2 0 3.3-.1s2.2-.1 3.3-.1c1 0 2 .1 3 .2s2 .1 3 .2c.5 0 .9-.1 1.3-.4.4-.2.6-.6.7-1.1-.1-.9-.5-1.3-1.4-1.4s-1.8-.2-2.7-.4-1.4-1-1.4-2.4q.15-2.85 2.1-8.7c1.3-3.8 2.6-7.6 4.1-11.2 1.4-3.6 2.4-6 2.9-7.3l.7 29.4c0 .9.1 1.6.3 2.2.2.5.8.8 1.8.8s1.8-.4 2.4-1.1 1.1-1.4 1.6-2.2l19.8-29.1-6.5 24.6c-.2 1.1-.5 2.1-.9 3.2s-1.2 1.7-2.3 2c-.7 0-1.4.2-2.2.3-.8.2-1.3.7-1.4 1.5 0 .5.2.8.5 1s.7.3 1.1.3c1.4 0 2.9-.1 4.3-.2s2.9-.2 4.3-.2c1.5 0 3 .1 4.4.2 1.5.1 3 .2 4.4.2.6 0 1-.1 1.5-.3.4-.2.7-.6.7-1.2-.1-.7-.4-1.2-1.1-1.3s-1.4-.3-2.1-.5-1.1-.8-1.1-1.9c0-.7.1-1.5.3-2.3s.3-1.5.5-2.2l6.3-25.3c.2-1.1.5-2 .9-2.6s1.1-1 2.3-1.2c.6 0 1.2-.2 1.8-.4.3.2.7-.3.7-1m214.9 3.3c-2.9-4.2-7-6.3-12.1-6.3s-9.2 2.1-12.1 6.2c-3.2 4.5-4.1 10.4-4.1 15.8 0 5.5.9 11.3 4.1 15.9 2.9 4.1 7 6.3 12.1 6.3 5 0 9.1-2.1 12-6.2 3.2-4.5 4.1-10.2 4.1-15.6s-.8-11.5-4-16.1m-1.1 31.1c-2.7 3.8-6.5 5.7-11.1 5.7-4.7 0-8.4-1.9-11.1-5.8-3.1-4.4-3.9-10-3.9-15.2s.9-10.8 3.9-15.2c2.7-3.8 6.5-5.8 11.1-5.8 4.7 0 8.5 1.9 11.2 5.8 3.1 4.4 3.9 10.2 3.9 15.5 0 5.2-.9 10.7-4 15" style="fill:#fff"/><path d="M395.7 410.3c-2.4-3.5-5.8-5.3-10.2-5.3-4.3 0-7.7 1.8-10.2 5.3s-3.7 8.3-3.7 14.5 1.2 11 3.7 14.5 5.9 5.3 10.2 5.3 7.7-1.7 10.2-5.2 3.7-8.2 3.7-14.3c-.1-6.3-1.3-11.3-3.7-14.8m-4.2 25.3c-1.3 2.3-3.3 3.4-6.1 3.4s-4.5-1.2-5.7-3.5c-2.8-5.2-4.5-25.2 5.7-25 10.2.4 8.9 20.1 6.1 25.1M361 409c-2.9-4.2-7-6.3-12.1-6.3s-9.2 2.1-12.1 6.2c-3.2 4.5-4.1 10.4-4.1 15.8 0 5.5.9 11.3 4.1 15.9 2.9 4.1 7 6.3 12.1 6.3 5 0 9.1-2.1 12-6.2 3.2-4.5 4.1-10.2 4.1-15.6.1-5.4-.8-11.5-4-16.1m-1 31.1c-2.7 3.8-6.5 5.7-11.1 5.7-4.7 0-8.4-1.9-11.1-5.8-3.1-4.4-3.9-10-3.9-15.2s.9-10.8 3.9-15.2c2.7-3.8 6.5-5.8 11.1-5.8 4.7 0 8.5 1.9 11.2 5.8 3.1 4.4 3.9 10.2 3.9 15.5-.1 5.2-.9 10.7-4 15" style="fill:#fff"/><path d="M359.1 410.3c-2.4-3.5-5.8-5.3-10.2-5.3-4.3 0-7.7 1.8-10.2 5.3s-3.7 8.3-3.7 14.5 1.2 11 3.7 14.5 5.9 5.3 10.2 5.3 7.7-1.7 10.2-5.2 3.7-8.2 3.7-14.3c0-6.3-1.2-11.3-3.7-14.8m-4.2 25.3c-1.3 2.3-3.3 3.4-6.1 3.4s-4.5-1.2-5.7-3.5c-2.8-5.2-4.5-25.2 5.7-25 10.2.4 9 20.1 6.1 25.1m-28.1-10.5c-.8-1.7-2-3.2-3.4-4.5-1.7-1.5-3.7-2.7-5.9-3.4-1.3-.4-2.7-.7-4.1-.7h-.2c.5-.9 1-1.8 1.5-2.6q1.05-1.8 2.4-3.6c.7-.9 1.3-1.9 2.1-2.7l2.6-3-10.6-1.7-.8.8c-1.6 1.6-3 3.6-4.2 5.5-1.6 2.4-3.1 5-4.4 7.6-2.1 4.3-4.8 10.7-4.4 15.5.3 8 6.6 14.4 14.6 14.7 2 .1 4.1-.2 6-1 1.8-.7 3.5-1.7 5-3.1 2.9-2.7 4.7-6.4 4.9-10.3 0-.4.1-.8.1-1.1.3-2.1-.2-4.3-1.2-6.4m.2 7.5c-.2 3.7-1.8 7.1-4.5 9.6-1.3 1.2-2.9 2.2-4.6 2.8a13 13 0 0 1-5.5.9 14.1 14.1 0 0 1-13.5-13.7c-.4-4.6 2.3-10.9 4.3-14.9 1.3-2.6 2.7-5.1 4.3-7.5 1.2-1.8 2.6-3.8 4.1-5.3l.4-.4 7.9 1.3-1.3 1.4c-.8.9-1.5 1.9-2.2 2.8-.8 1.2-1.6 2.4-2.4 3.7-.9 1.4-1.7 2.9-2.4 4.4h.2q.9-.15 1.8 0c1.3.1 2.6.3 3.8.7 2 .6 3.9 1.7 5.5 3.1 1.3 1.2 2.3 2.6 3.1 4.1.9 1.8 1.3 3.9 1.2 5.9-.2.4-.2.8-.2 1.1" style="fill:#fff"/><path d="M316.9 419.4c-1.1-.4-2.3-.6-3.5-.6h-1.7c-.7.1-1.4.2-2.1.4 1.6-4 5.6-10.2 8.1-13l-5.5-.9c-4.5 4.7-13.1 19.5-12.4 26.9a13.05 13.05 0 0 0 26.1.3c0-.3.1-.7.1-1 .1-3.6-1.4-6.9-4-9.2-1.4-1.3-3.1-2.3-5.1-2.9m-4.3 20a7.6 7.6 0 1 1 .6-15.2c4.2.2 7.5 3.7 7.3 7.9-.1 4.2-3.7 7.5-7.9 7.3" style="fill:#fff"/></svg>