<svg xmlns="http://www.w3.org/2000/svg" viewBox="3.71 0.58 823.83 352.73"><path d="M328.7 124.26c2.69 35.69 3.74 71.56 6.75 107.24.53 6.26 2.05 10.22 8.26 11.75l2.08 2.25-.17 3.36a.85.85 0 0 1-.57.8q-1.72.67-4.3.73-31.56.75-50.25.4c-4.91-2.43-1.67-6.69 2.25-7.26 9.43-1.38 12.18-2.96 12.25-13.53q.03-4.2-.79-13.75.22-3.66-.93-7.28-.15-.5-.7-.52-15.75-.4-31.5-.13c-3.87.07-4.88-.29-6.87 2.87q-8.45 13.43-10.93 18.33c-1.69 3.34-3.58 7.73.15 10.05q3.75 2.36 6.07 2.58 5.38 1.02 8.25 4.14c-.47 2.89-1.96 4.5-5.07 4.59-5.54.16-11.51-.42-16.57-.33q-13.93.28-27.86.34c-3.17-5.71-.32-7.16 4.91-8 8.84-1.43 13.84-8.56 19.24-16.29q35.23-50.48 70.5-100.93 6.8-9.74 15.8-1.41m-42.74 74.24a98 98 0 0 0 16.34.39q.53-.03.56-.56.7-11.62-1.06-23.44l-.85-17.82q-.05-.84-.51-.14L272.74 198q-.36.54.28.59 6.53.55 12.94-.09m519.97-75.24c2.04 22.83 2.93 47.28 4.77 71.27.94 12.16 1.23 26.84 2.64 39.89q.75 7.02 7.66 8.04c2.41 1.55 4.66.99 6.54 3.79q.11 4.24-4.28 4.22-15.86-.08-51.77.63c-1.26.03-2.37-.33-3.7-.35a6 6 0 0 1-1.78-3.18q-.11-.5.14-.97c3.68-6.8 14.48.45 16.03-11.45q1.24-9.42-.47-18.9.3-3.8-.46-7.57-.1-.47-.58-.47l-36.29.13a.9.9 0 0 0-.77.4 138 138 0 0 0-14.03 24.17c-2.42 5.36 3.28 8.67 7.63 9.09 3.06 1.09 5.48 1.26 7.83 3.75.81 6.32-7.81 5.31-12.63 5.07-10.64-.54-21.26-.26-31.91.02q-.5 0-.89-.31-.55-.45-.9-.05-.53.6-.94-.08c-4.34-7.13 5.65-8.09 9.55-9.24q4.8-3.47 9.16-9.69 35.97-51.28 71.85-102.61c4.26-6.09 9.87-11.88 17.6-5.6m-42 75.26q8.4.86 16.17.37 1.01-.06.94-1.06l-1.5-22.73-.7-17.97q-.03-.63-.46-.18-.83.85-1.94 2.5a5556 5556 0 0 0-25.77 38.4q-.36.54.29.61 6.6.67 12.97.06m-38.89-70.77a159 159 0 0 1-7.48 24.06 8.9 8.9 0 0 1-6.56 5.73c-6.21-6.66-1.49-11.85-3.75-19.08 1.12-4.83-4.83-7.87-8.77-7.61-33.8 2.26-63.89 25.07-73.46 57.93-4.97 17.06-4.44 39.13 11.02 50.93 6.63 5.16 12.35 6.2 21.22 5.96q5.87-.16 7.37-5.08 4.3-14.1 8.11-28.34a6 6 0 0 0 .1-3.02q.82-5.22-4.62-6.65-4.2-1.11-6.99-.83-3.2-2.36-2.14-6.26.14-.5.62-.64a12 12 0 0 1 3.08-.66q28.58-.37 57.14-.06a6 6 0 0 1 4.86 2.37c-4.12 9.41-14.55 1.04-18.91 13.77a280 280 0 0 0-6.09 20.27q-1.2 4.59-3.01 6.96c-7.39 9.71-24.47 14.46-35.3 15.62-15.16 1.63-37.33.43-49.84-9.56q-.36-.28-.73-.03l-.41.26c-13.37-11.13-22.8-22.94-22.14-41.45 1.01-28 20.93-48.99 44.32-61.67 27.34-14.83 58.03-21.12 88.82-15.52q1.5.27 3.54 2.6m-192 0c-1.28 9.83-14.2 1.94-17.14 13.93a8046 8046 0 0 0-18.08 75.13c-1.65 7-3.19 13.34-3.06 20.59q0 .5.32.9a8 8 0 0 0 7.13 3.2l5.83 4c-.76 5.54-5.92 5.46-9.98 5.18-20.82-1.47-35.31-.67-51.81.01a5.3 5.3 0 0 1-2.25-6.02q.12-.48.53-.76c3.47-2.37 9.46-2 13.71-3.85q.5-.21.76-.66a35 35 0 0 0 3.68-8.96q5.85-21.64 11.11-43.43.34-1.4.08-3.07a400 400 0 0 0 7.7-29.41q.51-2.3-.79-.34a10588 10588 0 0 1-60.52 90.04q-4.2 6.19-11.51 5.06a6.6 6.6 0 0 1-2.87-5.35q-1.8-43.24-1.97-55.94-.07-5.53-.78-8.16l-1.01-25.7q-.07-1.94-.75-.12a4261 4261 0 0 0-17.1 46.98c-2.5 6.97-11.27 31.04-6.99 37.08q2.21 3.14 6.68 2.42-.58 1.44.79 1.5 4.95.23 8.04 2.5l.01 3.31q0 .52-.31.93a4.7 4.7 0 0 1-4.25 1.87q-17.8-.91-32.79-.36-.49.01-.95.18l-1 .36c-1.69-1.13-5.72-4.99-2.23-6.8 4.44-2.32 7.77-3.26 10.12-7.66a86 86 0 0 0 5.11-11.08q11.72-32.82 23.29-65.69 4.9-13.91 6.17-19.06 1.67-3.67-1.28-5.71-3.64-2.53-9.44-2.09c-4.12-3.27-4.57-7.67 1.8-7.69q20.85-.03 41.71 0 2.49 0 3.54 1.99l2.96 78.43q.02.5.35.12a36 36 0 0 0 6.82-11.2q2.1-1.05 2.7-2 33.1-52.03 42.19-65.3c1.43-2.08 37.41-2.12 42.39-2.16q.53 0 .91.37z" style="fill:#fff"/><path d="M608.79 127.25c-.91 8-12.63 4.29-16.27 9.79q-2.09 3.13-3.92 9.67-11.35 40.2-22.6 80.41c-1.76 6.28-4.07 15.34 6.25 15.09q3.8 1.06 6.79 3.54a8.5 8.5 0 0 1-2.64 4.39q-.4.34-.92.35-30.36.36-60.73.34-1.58 0-2.77-2.21-.12-.23.06-.39l.21-.19 2.49-3.41q.32-.45.86-.52 7.92-1.23 11.36-2.88c3.01-1.44 3.64-4.36 4.77-8.23a11476 11476 0 0 0 25.19-87.82q.26-.95.29-3.68c3.13-6.63-4.85-7.14-8.81-7.81a.8.8 0 0 0-.59.14l-.31.21q-3.15-2.59-1.26-5.93.25-.45.74-.58 2.67-.7 3.83-.73 27.35-.8 54.69-1.84 1.68-.06 3.29 2.29m65.06 149.56a76 76 0 0 1 4.8 14.75c4.28 20.97 2.63 64.24-30.16 61.47q-3.8-.31-7.91-2.98c-.6-.39-1.12-.33-1.79-.3a40 40 0 0 1-11.02-20.49c-3.45-17.06-3.66-51.27 15.66-60.04 11.42-5.2 22.16-1.52 30.42 7.59m-26.64 66.94q.66.75.97.85c10.05 3.26 17.74-4 20-12.92a88.3 88.3 0 0 0-.39-45.18q-.54-2.01-2.79-4.04l.12-.79a1 1 0 0 0-.26-.86c-12.65-13.54-25.21-2.32-27.8 11.51-2.67 14.21-4.13 39.37 8.24 50.87q.42.4 1.91.56m90.78-67.24q4.05 8.75 5.18 14.79c3.01 16.09 3.33 49.43-15.02 59.09a24 24 0 0 1-21.41.54 20 20 0 0 0-3.23-1.18q-9.18-8.93-11.27-19.99c-3.6-19.01-4.19-62.96 25.91-62.77q11.6.08 19.84 9.52m-26.24 66.95q1.92 1.66 3.53 1.78c24.28 1.76 20.6-40.47 18.21-53.98a22 22 0 0 0-3.54-8.69q-3.36-6.82-10.19-7.8c-19-2.72-19.87 26.76-19.61 38.15.2 8.62 1.15 28.17 11.6 30.54m90.29-67.32q4.13 8.52 5.54 15.3c3.81 18.22 3.18 54.7-20.8 61.11q-9.05 2.42-17.76-2.8a.8.8 0 0 0-.67-.1l-.6.14a45 45 0 0 1-12.54-28.99c-1.16-18.57-.56-50.27 24.24-53.62 9.31-1.25 16.01 2.33 22.59 8.96m-26.33 67.11c3.6 4.07 11.82 1.93 14.89-.93 10.3-9.57 9.41-30.32 8.34-43.41-.32-3.8-1.28-9.88-2.64-12.67l-2.03-4.2q-5.7-8.8-14.87-6.86c-16.64 3.54-15.9 33.79-14.63 45.93.6 5.77 3.63 20.88 10.94 22.14M606.04 274l-.05 48.33q0 .55.54.67 3.15.68 5.61-.04a6.4 6.4 0 0 1 3.1.68q.45.26.53.79l.73 4.61q.27 1.03-.06 1.96-.22.6-.85.61l-9.09.19q-.5 0-.5.51v18.72q0 .63-.63.67l-3.92.27-3.69.01q-.56 0-.59-.55l-.69-13.2q.5-2.54-.18-5.72-.14-.62-.75-.62l-31.7-.17q-.4 0-.77.21l-.54.32c-2.15-.83-5.14.79-5.59-2.72-.43-3.39.17-5.79 2.57-8.45a251 251 0 0 0 36.31-52.47q.3-.55.91-.55h7.69q1.16 0 1.25 1.15zM569 322.21c.03 1.48 9.88.64 11.25.5q7.48.65 15.18.17.48-.03.54-.51 1.37-10.8.39-21.77.75-7.92-.39-15.9l.01-1.51a.24.24 0 0 0-.45-.12 257 257 0 0 1-25.79 37.25q-.3.37-.45.85zm-376.13-73.32h-46.01L59.1 117.2h46.43z" style="fill:#fff"/><path d="M193.35 248.89h-43.88L311.36.59h46.01zm-55.86 0H91.47L3.71 117.2h46.44z" style="fill:#fff"/><path d="M137.97 248.89H94.08L255.98.59h46z" style="fill:#fff"/></svg>