<svg xmlns="http://www.w3.org/2000/svg" viewBox="0 0 3840 670.5"><path d="M2588.6 565.7v-461c0-67.2 34.6-102.8 98-102.8h277.6v169h-70.1V68.3h-190.2c-28.8 0-40.3 18.2-40.3 54.7v424.5c0 36.5 11.5 54.7 40.3 54.7h190.2V492.8h70.1v175.8h-277.6c-63.4-.1-98-35.6-98-102.9m414.9 36.5h58.6v-534h-58.6V2h317.9c63.4 0 98 35.5 98 102.8v152.7c0 67.2-34.6 102.8-98 102.8H3137v242h60.5v66.3h-194zM3304.1 294c28.8 0 40.3-18.2 40.3-54.7V123c0-36.5-11.5-54.7-40.3-54.7H3137V294zm160.4 271.7v-461c0-67.2 34.6-102.8 98-102.8H3840v169h-70.1V68.3h-190.2c-28.8 0-40.3 18.2-40.3 54.7v424.5c0 36.5 11.5 54.7 40.3 54.7h190.2V492.8h70.1v175.8h-277.6c-63.3-.1-97.9-35.6-97.9-102.9M338.7 668.5H206.2l-11-131.5h-53.8l-10 131.5H0L83.7 4H256zM168.4 169.4l-18.9 258h37.9zM785 668.5H658.5V291.9l-49.8 376.6H527l-52.8-378.6v378.6H347.7V4H533l32.9 293.9L600.7 4H785zm207.2-436.4v-78.7c0-20.9-1-27.9-3-32.9-4-7-10-12-16.9-12-7 0-14.9 5-17.9 12-2 6-3 11-3 32.9v48.8c0 21.9 6 29.9 31.9 43.8l59.7 33c78.7 43.8 89.7 61.8 89.7 151.4V537c0 57.8-4 76.7-19.9 97.6-21.9 29.9-45.8 35.9-149.4 35.9-82.7 0-105.6-5-127.5-29.9-13-13.9-18.9-29.9-21.9-54.8-2-13-2-27.9-2-72.7V393.5h139.5V522c0 26.9 6 37.9 20.9 37.9 13 0 19.9-11 19.9-29.9v-90.6l-1-13.9c-1-24.9-4-29.9-27.9-42.8-9-5-15.9-8-16.9-9l-58.8-32.9C822.9 303.9 812 283 812 200.3v-77.7c0-54.8 6-78.7 26.9-97.6C860.7 5 886.6 0 983.2 0c84.7 0 107.6 6 128.5 33.9 16.9 21.9 20.9 42.8 20.9 104.6v93.7H992.2Zm360.4 436.4h-140.5V111.6h-70.7V4h280v107.6h-68.7v556.9ZM1579.5 4l49.8 1c97.6 2 121.5 27.9 121.5 128.5v69.7c0 92.7-13.9 124.5-62.8 137.5 23.9 8 37.9 18.9 47.8 36.9 13 22.9 14.9 40.8 14.9 118.6v172.4h-139.5V469.3c0-65.8 0-64.8-34.9-65.8h-6v265H1430V4zm.9 277.9c26.9 0 30.9-6 30.9-48.8v-71.7l-1-17.9c0-23.9-6-30.9-24.9-30.9h-15V282c5.1-.1 8.1-.1 10-.1m513.1 386.6H1961L1950 537h-53.8l-10 131.5h-131.5L1838.4 4h172.4zm-170.4-499.1-18.9 258h37.9zM2238.9 4c120.6 0 137.5 3 160.4 29.9 20.9 23.9 25.9 49.8 25.9 141.5v327.8c0 81.7-3 103.6-18.9 127.5-18.9 27.9-46.8 36.9-115.6 36.9l-70.7 1h-117.6V4zm16.9 555.9c21.9 0 26.9-7 26.9-34.9V149.5c0-29.9-5-36.9-26.9-36.9-3 0-8 1-13 1v446.3z" class="st1" style="fill:#fff"/></svg>