<svg xmlns="http://www.w3.org/2000/svg" style="fill-rule:evenodd;clip-rule:evenodd;stroke-linejoin:round;stroke-miterlimit:2" viewBox="0 0 168 62"><path d="M126.24 11.07a1.07 1.07 0 0 1-.01-2.13c.58 0 1.07.48 1.07 1.06s-.48 1.07-1.06 1.07m-11.72 0a1.07 1.07 0 0 1-.01-2.13c.58 0 1.07.48 1.07 1.06s-.48 1.07-1.06 1.07m12.1-6.39 2.12-3.67a.44.44 0 1 0-.76-.43l-2.16 3.71a13.2 13.2 0 0 0-10.9-.01L112.78.57a.44.44 0 0 0-.82.22q0 .1.06.21l2.12 3.67a12.6 12.6 0 0 0-6.5 10.02h25.47a12.5 12.5 0 0 0-6.49-10m-87.64.03c1.38 0 2.53.71 3.08 1.48V4.9h2.1v9.6h-1.51a.6.6 0 0 1-.6-.6v-.7a3.8 3.8 0 0 1-3.07 1.5c-2.62 0-4.62-2.25-4.62-5 0-2.73 2-4.98 4.62-4.98m.38 1.91c-1.7 0-2.86 1.35-2.86 3.08 0 1.72 1.15 3.07 2.86 3.07 1.7 0 2.86-1.35 2.86-3.07 0-1.73-1.14-3.08-2.86-3.08m7.19-1.73h2.12v1.31a3.3 3.3 0 0 1 2.91-1.49c2.23 0 3.67 1.57 3.67 4v5.77h-1.52a.6.6 0 0 1-.6-.6V9.07c0-1.51-.77-2.44-2-2.44-1.4 0-2.46 1.1-2.46 3.14v4.72h-1.52a.6.6 0 0 1-.6-.6zm14.99-.18c1.38 0 2.52.71 3.07 1.48V.12h2.1V14.5H65.2a.6.6 0 0 1-.6-.6v-.69a3.8 3.8 0 0 1-3.07 1.48c-2.63 0-4.62-2.24-4.62-4.98s2-4.99 4.63-4.99m.37 1.91c-1.7 0-2.86 1.35-2.86 3.08 0 1.72 1.15 3.07 2.86 3.07 1.7 0 2.87-1.35 2.87-3.07 0-1.73-1.16-3.08-2.87-3.08m7.17-1.73h2.13v1.71a2.7 2.7 0 0 1 2.53-1.8q.39 0 .82.08v2.17a3 3 0 0 0-1.06-.18c-1.21 0-2.3 1.01-2.3 2.94v4.67h-1.52a.6.6 0 0 1-.6-.6zm11.18 9.8a4.94 4.94 0 0 1-5.02-5 4.94 4.94 0 0 1 5.02-4.98c2.84 0 5.02 2.2 5.02 4.99a4.94 4.94 0 0 1-5.02 4.98m0-1.96c1.7 0 2.87-1.32 2.87-3.02s-1.19-3.03-2.87-3.03c-1.7 0-2.9 1.32-2.9 3.03s1.2 3.02 2.9 3.02m7.78-9.91c-.77 0-1.41-.64-1.41-1.42 0-.76.65-1.4 1.41-1.4.79 0 1.4.64 1.4 1.4a1.4 1.4 0 0 1-1.4 1.42M86.99 4.9h2.1v9.58h-1.5a.6.6 0 0 1-.6-.6zm8.46-.18c1.38 0 2.53.71 3.08 1.48V.12h2.1V14.5h-1.51a.6.6 0 0 1-.6-.6v-.69a3.8 3.8 0 0 1-3.08 1.48c-2.62 0-4.62-2.24-4.62-4.98.01-2.74 2-4.99 4.63-4.99m.4 1.91c-1.71 0-2.87 1.35-2.87 3.08 0 1.72 1.15 3.07 2.86 3.07 1.7 0 2.86-1.35 2.86-3.07 0-1.73-1.15-3.08-2.86-3.08M35.28 50.69a12.5 12.5 0 0 1-9.57-4.23 14.7 14.7 0 0 1-3.84-10.24q0-6 3.84-10.24a12.5 12.5 0 0 1 9.57-4.23q2.85 0 5.23 1.29 2.4 1.21 3.67 3v-3.73h6.12v27.82h-6.12V46.4a10.5 10.5 0 0 1-3.67 3.06 11 11 0 0 1-5.23 1.23m-4.84-8.13a7.7 7.7 0 0 0 5.95 2.56 7.7 7.7 0 0 0 5.96-2.56 9 9 0 0 0 2.33-6.34q0-3.78-2.33-6.34a7.7 7.7 0 0 0-5.96-2.56 7.7 7.7 0 0 0-5.95 2.56 9 9 0 0 0-2.34 6.34q0 3.78 2.34 6.34m33.23 19.2h-6.12V22.3h6.12v3.73a10 10 0 0 1 3.67-3q2.45-1.28 5.28-1.28 5.68 0 9.52 4.22 3.9 4.23 3.9 10.24t-3.9 10.24a12.3 12.3 0 0 1-9.51 4.23q-2.85 0-5.29-1.23a10.5 10.5 0 0 1-3.67-3.06zm7.84-16.64a7.7 7.7 0 0 0 5.95-2.56 9 9 0 0 0 2.34-6.34q0-3.78-2.33-6.34a7.7 7.7 0 0 0-5.96-2.56q-3.67 0-6 2.56a9 9 0 0 0-2.34 6.34q0 3.78 2.33 6.34a7.8 7.8 0 0 0 6.01 2.56m25.83 16.64h-6.12V22.3h6.12v3.73a10 10 0 0 1 3.67-3q2.45-1.28 5.29-1.28 5.67 0 9.51 4.22 3.9 4.23 3.9 10.24t-3.9 10.24a12.3 12.3 0 0 1-9.51 4.23q-2.85 0-5.29-1.23a10.5 10.5 0 0 1-3.67-3.06zm7.84-16.64a7.7 7.7 0 0 0 5.96-2.56 9 9 0 0 0 2.33-6.34q0-3.78-2.33-6.34a7.7 7.7 0 0 0-5.95-2.56q-3.68 0-6.01 2.56a9 9 0 0 0-2.34 6.34q0 3.78 2.34 6.34a7.8 7.8 0 0 0 6 2.56m29.5 5.57q-4.95 0-8.34-2.45a8.3 8.3 0 0 1-3.56-6.57h6.34q.68 4.12 5.73 4.12 2.06 0 3.28-.72a2.5 2.5 0 0 0 1.23-2.23q0-1.44-.95-2.28a8 8 0 0 0-3.17-1.4l-4.56-1.22q-7.12-1.89-7.12-8.4 0-3.5 2.83-5.61 2.85-2.18 7.52-2.18 4.5 0 7.4 2.29a8.3 8.3 0 0 1 3.22 6.06h-6.12q-.9-3.45-4.56-3.45-1.83 0-2.95.78a2.3 2.3 0 0 0-1.11 2.06q0 2.39 3.73 3.34l4.67 1.22q7.4 1.89 7.4 8.4a7.1 7.1 0 0 1-3.06 6.12q-3 2.12-7.85 2.12" style="fill:#fff;fill-rule:nonzero"/></svg>