<svg xmlns="http://www.w3.org/2000/svg" viewBox="0 0 788 120"><path d="M37.96 38.55c11.27 0 20.63 5.81 25.09 12.09V40.09h17.18v78.27H67.86a4.9 4.9 0 0 1-4.9-4.9v-5.64c-4.37 6.36-13.73 12.18-25 12.18C16.5 120 .23 101.64.23 79.27S16.5 38.55 37.96 38.55m3.09 15.63c-13.91 0-23.37 11-23.37 25.1 0 14.08 9.37 25.08 23.37 25.08 13.9 0 23.36-11 23.36-25.09s-9.36-25.09-23.36-25.09M99.77 40.1h17.28v10.63c4.72-7.82 13.63-12.18 23.81-12.18 18.19 0 29.91 12.81 29.91 32.72v47.1h-12.36a4.9 4.9 0 0 1-4.91-4.92V74.1c0-12.36-6.27-19.9-16.27-19.9-11.46 0-20.18 8.9-20.18 25.63v38.54h-12.37a4.9 4.9 0 0 1-4.9-4.9Zm122.37-1.55c11.27 0 20.63 5.81 25.09 12.09V1h17.18v117.46h-12.36a4.9 4.9 0 0 1-4.91-4.91v-5.64c-4.37 6.27-13.82 12.09-25.1 12.09-21.45 0-37.72-18.36-37.72-40.73.09-22.36 16.36-40.72 37.82-40.72m3.09 15.63c-13.91 0-23.37 11-23.37 25.1 0 14.08 9.37 25.08 23.37 25.08 13.9 0 23.36-11 23.36-25.09s-9.45-25.09-23.36-25.09m58.73-14.08h17.18V54c3-8.9 11.72-14.73 20.63-14.73 2.19 0 4.37.18 6.73.64v17.73c-3-.91-5.45-1.46-8.64-1.46-9.9 0-18.81 8.27-18.81 24v38.18h-12.37a4.9 4.9 0 0 1-4.9-4.9V40.08Zm91.09 79.9c-23.19 0-41-18-41-40.73s17.81-40.72 41-40.72c23.18 0 41 18 41 40.72 0 22.73-17.82 40.73-41 40.73m0-16c13.81 0 23.45-10.82 23.45-24.73s-9.73-24.72-23.45-24.72c-13.91 0-23.64 10.81-23.64 24.72S361.14 104 375.05 104m63.55-81a11.6 11.6 0 0 1-11.55-11.54C427.05 5.18 432.4 0 438.59 0a11.4 11.4 0 0 1 11.46 11.46c0 6.45-5 11.54-11.46 11.54m-8.54 17.1h17.18v78.26h-12.28a4.9 4.9 0 0 1-4.9-4.9Zm69.09-1.55c11.27 0 20.63 5.81 25.09 12.09V1h17.18v117.46h-12.36a4.9 4.9 0 0 1-4.91-4.91v-5.64c-4.37 6.27-13.82 12.09-25.1 12.09-21.45 0-37.72-18.36-37.72-40.73.09-22.36 16.36-40.72 37.82-40.72m3.18 15.63c-13.91 0-23.37 11-23.37 25.1 0 14.08 9.37 25.08 23.37 25.08 13.9 0 23.36-11 23.36-25.09s-9.45-25.09-23.36-25.09" style="stroke-width:9.48393;fill:#fff"/><path d="M731.5 88.82a8.73 8.73 0 1 1 0-17.46 8.73 8.73 0 0 1 0 17.46m-96.1 0a8.73 8.73 0 1 1 .01-17.46 8.73 8.73 0 0 1 0 17.46m99.18-52.36 17.46-30.1a3.6 3.6 0 1 0-6.28-3.54l-17.63 30.45a106.5 106.5 0 0 0-44.64-9.63c-16.1 0-31.27 3.45-44.73 9.54L621.14 2.73a3.6 3.6 0 1 0-6.27 3.55l17.36 30.08c-29.82 16.28-50.27 46.46-53.27 82.19h208.81c-2.9-35.64-23.27-65.82-53.18-82.1" class="logo-android__andy-icon" style="fill-opacity:1;stroke-width:9.48393;fill:#fff"/></svg>