<svg xmlns="http://www.w3.org/2000/svg" style="fill-rule:evenodd;clip-rule:evenodd;stroke-linejoin:round;stroke-miterlimit:2" viewBox="0 0 168 62"><path d="M126.24 11.07a1.07 1.07 0 0 1-.01-2.13c.58 0 1.07.48 1.07 1.06s-.48 1.07-1.06 1.07m-11.72 0a1.07 1.07 0 0 1-.01-2.13c.58 0 1.07.48 1.07 1.06s-.48 1.07-1.06 1.07m12.1-6.39 2.12-3.67a.44.44 0 1 0-.76-.43l-2.16 3.71a13.2 13.2 0 0 0-10.9-.01L112.78.57a.44.44 0 0 0-.82.22q0 .1.06.21l2.12 3.67a12.6 12.6 0 0 0-6.5 10.02h25.47a12.5 12.5 0 0 0-6.49-10m-87.64.03c1.38 0 2.53.71 3.08 1.48V4.9h2.1v9.6h-1.51a.6.6 0 0 1-.6-.6v-.7a3.8 3.8 0 0 1-3.07 1.5c-2.62 0-4.62-2.25-4.62-5 0-2.73 2-4.98 4.62-4.98m.38 1.91c-1.7 0-2.86 1.35-2.86 3.08 0 1.72 1.15 3.07 2.86 3.07 1.7 0 2.86-1.35 2.86-3.07 0-1.73-1.14-3.08-2.86-3.08m7.19-1.73h2.12v1.31a3.3 3.3 0 0 1 2.91-1.49c2.23 0 3.67 1.57 3.67 4v5.77h-1.52a.6.6 0 0 1-.6-.6V9.07c0-1.51-.77-2.44-2-2.44-1.4 0-2.46 1.1-2.46 3.14v4.72h-1.52a.6.6 0 0 1-.6-.6zm14.99-.18c1.38 0 2.52.71 3.07 1.48V.12h2.1V14.5H65.2a.6.6 0 0 1-.6-.6v-.69a3.8 3.8 0 0 1-3.07 1.48c-2.63 0-4.62-2.24-4.62-4.98s2-4.99 4.63-4.99m.37 1.91c-1.7 0-2.86 1.35-2.86 3.08 0 1.72 1.15 3.07 2.86 3.07 1.7 0 2.87-1.35 2.87-3.07 0-1.73-1.16-3.08-2.87-3.08m7.17-1.73h2.13v1.71a2.7 2.7 0 0 1 2.53-1.8q.39 0 .82.08v2.17a3 3 0 0 0-1.06-.18c-1.21 0-2.3 1.01-2.3 2.94v4.67h-1.52a.6.6 0 0 1-.6-.6zm11.18 9.8a4.94 4.94 0 0 1-5.02-5 4.94 4.94 0 0 1 5.02-4.98c2.84 0 5.02 2.2 5.02 4.99a4.94 4.94 0 0 1-5.02 4.98m0-1.96c1.7 0 2.87-1.32 2.87-3.02s-1.19-3.03-2.87-3.03c-1.7 0-2.9 1.32-2.9 3.03s1.2 3.02 2.9 3.02m7.78-9.91c-.77 0-1.41-.64-1.41-1.42 0-.76.65-1.4 1.41-1.4.79 0 1.4.64 1.4 1.4a1.4 1.4 0 0 1-1.4 1.42M86.99 4.9h2.1v9.58h-1.5a.6.6 0 0 1-.6-.6zm8.46-.18c1.38 0 2.53.71 3.08 1.48V.12h2.1V14.5h-1.51a.6.6 0 0 1-.6-.6v-.69a3.8 3.8 0 0 1-3.08 1.48c-2.62 0-4.62-2.24-4.62-4.98.01-2.74 2-4.99 4.63-4.99m.4 1.91c-1.71 0-2.87 1.35-2.87 3.08 0 1.72 1.15 3.07 2.86 3.07 1.7 0 2.86-1.35 2.86-3.07 0-1.73-1.15-3.08-2.86-3.08M14.32 61.76q-5.6 0-9.22-2.75A10.3 10.3 0 0 1 1 51.88h5.9q1.6 4.72 7.58 4.72 3.23 0 5.32-2.14 2.14-2.1 2.14-5.93V45.3a10 10 0 0 1-3.68 3.08q-2.35 1.2-5.1 1.2a12.5 12.5 0 0 1-9.38-4A14 14 0 0 1 0 35.64q0-5.82 3.79-9.82a12.4 12.4 0 0 1 9.38-4.07q2.75 0 5.1 1.21a9.5 9.5 0 0 1 3.68 3.02V22.3h6.03v25.74q0 6.8-3.9 10.26-3.82 3.45-9.76 3.46M8.45 41.67a8 8 0 0 0 5.82 2.36 8 8 0 0 0 5.81-2.36 8.3 8.3 0 0 0 2.36-6.03 8 8 0 0 0-2.36-5.98 7.8 7.8 0 0 0-5.81-2.42q-3.46 0-5.82 2.42a8 8 0 0 0-2.36 5.98q0 3.62 2.36 6.03m37.87 8.62q-5.6 0-9.43-4.17a14.5 14.5 0 0 1-3.79-10.1q0-5.92 3.79-10.1a12.3 12.3 0 0 1 9.43-4.17q2.8 0 5.16 1.27 2.36 1.2 3.62 2.96V22.3h6.04v27.44H55.1v-3.68a10.4 10.4 0 0 1-3.62 3.02q-2.36 1.2-5.16 1.2m-4.77-8.01a7.6 7.6 0 0 0 5.87 2.52 7.6 7.6 0 0 0 5.87-2.52 9 9 0 0 0 2.3-6.26q0-3.73-2.3-6.25a7.6 7.6 0 0 0-5.87-2.53 7.6 7.6 0 0 0-5.87 2.53 9 9 0 0 0-2.3 6.25q0 3.73 2.3 6.26m61.69 7.46V34.32q0-3.35-1.27-5.21a4 4 0 0 0-3.62-1.87q-2.9 0-4.66 2.25t-1.86 6.31v13.94h-6.04V34.32q0-3.35-1.26-5.21a4 4 0 0 0-3.62-1.87q-3.03 0-4.83 2.36-1.76 2.36-1.76 6.64v13.5H68.3V22.3h6.03v3.73q2.52-4.28 7.8-4.28 6.2 0 8.5 5.44a8.7 8.7 0 0 1 3.5-4q2.42-1.44 5.28-1.44 4.6 0 7.24 3.13 2.63 3.13 2.63 8.45v16.4zm24.87.55q-6.15 0-10.1-4-3.95-4.06-3.95-10.27t3.9-10.2q3.9-4.07 10.2-4.07 6.37 0 10.26 4.45 3.9 4.4 3.46 11.3h-21.84q.11 3.18 2.41 5.33a8.3 8.3 0 0 0 5.88 2.14q5.05 0 6.91-3.84h6.31a12.7 12.7 0 0 1-4.83 6.58 14.3 14.3 0 0 1-8.61 2.58M128 26.8q-2.97 0-5.1 1.7a7.6 7.6 0 0 0-2.7 4.72h15.2q-.66-3.17-2.68-4.77A7.3 7.3 0 0 0 128 26.8m28.7 23.49q-4.88 0-8.22-2.42a8.2 8.2 0 0 1-3.51-6.47h6.25q.66 4.06 5.65 4.06 2.04 0 3.24-.71 1.2-.78 1.2-2.2t-.93-2.25a8 8 0 0 0-3.12-1.37l-4.5-1.2q-7.03-1.87-7.03-8.3 0-3.45 2.8-5.53 2.8-2.14 7.41-2.14 4.44 0 7.3 2.24a8.2 8.2 0 0 1 3.18 5.99h-6.04q-.87-3.4-4.5-3.4-1.8 0-2.9.76a2.3 2.3 0 0 0-1.1 2.03q0 2.36 3.68 3.3l4.6 1.2q7.3 1.86 7.3 8.29 0 3.9-3.02 6.03-2.96 2.1-7.73 2.09" style="fill:#fff;fill-rule:nonzero"/></svg>