<?xml version="1.0" encoding="UTF-8" standalone="no"?><svg viewBox="0 0 618 99" version="1.1" id="svg1" xmlns="http://www.w3.org/2000/svg" xmlns:svg="http://www.w3.org/2000/svg"><path fill="currentColor" stroke="currentColor" stroke-width=".09" d="M146.2 14.3c11.3-1.3 22.5.3 33.8.1 21.9-.2 43.8.3 65.7-.1-4.2 11.2-8.3 22.5-11.9 34-20.2.3-40.4.1-60.5.1-3.2 8.8-6.4 17.5-9.5 26.3-13.1.1-26.3-.3-39.4 0 7.6-20 14.5-40.3 21.8-60.4m36 7.7c-2.1 6.4-4.3 12.8-6.3 19.2 7 .2 14.1.3 21.1.2 2.4-6.4 4.8-12.7 7-19.1-7.3-.2-14.6-.3-21.8-.3ZM31 14.6c21-.2 42 0 63-.1 12.7.1 25.4-.1 38.1.2-7.2 20-14.6 39.8-21.9 59.7-33.5 0-67 .2-100.5-.1 3.5-10.8 7.4-21.4 11.4-32.1q31.35 0 62.7-.3c2.4-6.3 4.6-12.6 6.7-19-5.2-.1-10.4-.3-15.6-.3-2.7.1-5.5 0-8.1 1-2.6 4.3-3.8 9.2-5.6 13.9-12.7-.1-25.5.1-38.3-.2 2.5-7.6 5.3-15.1 8.1-22.7m26.1 34.1c-2.1 6.1-4.3 12.1-6.4 18.2 8 .2 16.1.1 24.1 0 2.4-6 4.6-12 6.7-18.1-8.1-.4-16.3-.3-24.4-.1Zm198.2-34c22.2-.4 44.4 0 66.7-.2 12.2.1 24.4-.2 36.6.3-.9 2.3-1.8 4.7-3.2 6.8-3.1.9-6.3.8-9.4.8-18-.3-36-.1-53.9-.2a3666 3666 0 0 1-6.9 18.4c21.4 0 42.9-.1 64.3.3-1.1 2.4-1.9 4.9-3.5 7.1-2.9.8-6 .6-8.9.7-14.7-.3-29.4.2-44.1-.1-3.4 0-7-.2-10.3.8-1.7 2.4-2.5 5.2-3.5 7.9-1.9 5.9-4.1 11.7-6.3 17.4H234c7-20 14.4-39.9 21.3-60Zm122.5 16.9c5.4 0 10.8-.1 16.3 0 3.9 9.5 7.7 19.1 11.7 28.6 2.8-6.4 5.5-12.8 7.9-19.4 1.3-3.1 2.3-6.4 4.7-8.8 5.1-1.1 10.4-.4 15.6-.3v41.8c-3.9-.1-7.8-.2-11.7-.1 0-9.6.3-19.2-.3-28.7-4.5 9.4-8.2 19.2-12.2 28.9-2.4-.1-5-.1-7.4-.6-2.3-2.8-3.5-6.4-4.8-9.7-2.4-6.6-5.3-13.1-8.2-19.5-.2 9.8 0 19.7-.2 29.6h-11.4c-.2-13.9-.2-27.9 0-41.8Zm117.6.9c6.1-1.2 13.2-.3 17.8 4.2 4.3 4.2 5.7 10.5 5.6 16.3-.1 5.4-1.6 11.3-5.7 15.1-4 3.7-9.8 4.7-15.1 4.3-4.5-.2-8.9-2.1-11.8-5.6-3.1-3.5-4.3-8.2-4.5-12.8-.2-4.9.5-10 3.1-14.3 2.2-3.8 6.3-6.3 10.6-7.2m2.1 6.7c-2.6.7-4 3.3-4.6 5.7-1.1 4.4-1.2 9.1-.3 13.6.6 2.4 1.4 5 3.7 6.3 2.5 1.4 5.9 1.6 8.4 0 1.9-1.4 2.6-3.8 3.1-6 .8-4.2.8-8.5.1-12.6-.5-2.2-1.2-4.6-3-6.1-2.2-1.5-5-1.6-7.4-.9Zm36.9-6.7c5.9-1.2 12.8-.5 17.5 3.6 4.4 4 6 10.1 6.1 15.9.1 5.6-1.3 11.6-5.3 15.7-4.1 4-10.2 5.1-15.7 4.7-4.5-.3-8.8-2.3-11.7-5.7-3.2-3.8-4.3-8.9-4.4-13.7-.1-5 .8-10.2 3.8-14.3 2.3-3.2 5.9-5.4 9.7-6.2m2.1 6.8c-2.6.7-3.8 3.4-4.4 5.7-1.1 4.6-1.2 9.5-.1 14.1.6 2.3 1.6 4.9 4 6 3 1.4 7.3 1.2 9.4-1.7 1.7-2.8 2-6.2 2.2-9.4.1-4 0-8.1-1.7-11.8-1.6-3.5-6.2-4-9.4-2.9Zm36.9-6.8c6.6-1.3 14.5-.3 19 5.1 4.5 5.2 5.2 12.7 4.4 19.3-.7 5.4-3.5 10.8-8.5 13.4-4.9 2.4-10.7 2.8-16 1.4-5.8-1.5-10.2-6.6-11.5-12.4-1.3-5.9-1.1-12.4 1.5-18 2-4.5 6.3-7.7 11.1-8.8m2.1 6.8c-2.3.7-3.5 3-4.1 5.1-1.2 4.7-1.3 9.7-.3 14.4.5 2.2 1.3 4.6 3.3 5.9 2.5 1.5 5.9 1.8 8.5.2 2.1-1.4 2.9-4.1 3.4-6.5.7-4.2.7-8.5-.2-12.7-.5-2.1-1.2-4.5-3.1-5.8a9.3 9.3 0 0 0-7.5-.6Zm-115-3.7c2.4-2.1 5.6-2.8 8.7-3.2.3 13.3.2 26.6 0 39.9-3.3-.1-6.6-.1-9.9-.1.1-9.1.1-18.2-.1-27.3l-10-.3c0-1.3.1-2.6.2-3.9 4.1-.6 7.9-2.5 11.1-5.1Z" id="path1" style="fill:#ffffff"/></svg>