<svg xmlns="http://www.w3.org/2000/svg" viewBox="0 0 785 212.6"><path d="M282.46 152.6q1.92 6.15 3.5 9.84a13 13 0 0 0 5.1 5.97 10 10 0 0 0 4.48 2.02q2.02.27 2.02 1.85 0 2.46-3.69 2.46-2.28 0-5.88-.53t-8.87-.53q-7.38 0-11.86.44t-6.23.44q-3 0-2.99-2.1 0-2.82 3.52-2.82 4.38 0 5.8-.88 1.4-.88 1.4-3.33 0-2.28-1.58-7.9l-6.85-22.49q-.36-1.4-2.64-1.4h-21.78q-.52 0-1.14.44c-.4.26-.68.67-.79 1.14l-4.22 15.63q-2.63 10.36-2.63 13.52 0 2.64 1.05 3.52t3.52 1.23q3.51.53 5.27 1.22a2.6 2.6 0 0 1 1.75 2.64q0 2.1-2.98 2.1-1.94 0-5.8-.52a72 72 0 0 0-9.48-.53q-3.87 0-6.77.44t-4.82.44q-3.17 0-3.17-2.28 0-1.4.88-1.85.88-.44 2.2-.61l2.8-.35q1.5-.18 2.9-1.23a10.5 10.5 0 0 0 3.7-5q1.22-3.26 2.63-8l27.93-90.63q.69-1.93 1.14-3.07.43-1.15 1.84-1.15 1.93 0 2.46 2.29.53 2.28 1.76 5.97zm-36.19-60.94q-.7 0-1.05 1.4l-8.26 31.09q-.15.6-.17 1.23v.53q0 1.05 1.23 1.05h17.56q.53 0 1.05-.44.53-.44.53-.96 0-.35-.35-1.76l-9.49-30.56q-.52-1.58-1.05-1.58" style="fill:#fff"/><path d="M315.83 105.88q0 1.23.52 1.23.53 0 1.4-.88l1.76-2.1q4.57-5.27 9.31-7.64a23 23 0 0 1 10.37-2.37q5.8 0 11.06 2.8a28 28 0 0 1 9.14 7.9 40 40 0 0 1 6.14 12.48 55 55 0 0 1 2.29 16.33q0 9.84-2.65 17.92a43 43 0 0 1-7.4 13.96 34 34 0 0 1-11.28 9.14 32 32 0 0 1-14.45 3.25 30.3 30.3 0 0 1-15.33-4.04l-.7.52-.18 24.94q0 3.17.52 4.75.53 1.58 2.64 2.46 1.75.87 3.42 1.05 1.67.17 2.81.35t1.85.7q.7.54.7 2.11 0 2.46-3.69 2.46-3.51 0-7.44-.53a64 64 0 0 0-8.45-.52q-4.51 0-8 .52-3.51.54-5.97.53-3.16 0-3.16-2.81 0-2.46 1.94-2.46 1.92 0 4.56-1.05 2.29-.88 3.07-2.46.8-1.58.8-5.1v-79.39q0-4.74-1.23-6.32a5.5 5.5 0 0 0-2.73-2.02q-1.5-.44-2.72-.53t-1.23-1.84q0-2.1 2.72-3.08 2.72-.96 6.77-3.77 5.1-3.52 7.37-6.15t3.7-2.63q1.75 0 1.75 3.69zm3.88 63.04q3.7 4.06 10.41 4.06 5.12 0 9.35-2.47a23 23 0 0 0 7.33-6.98q3.08-4.5 4.76-10.77a53 53 0 0 0 1.68-13.68q0-15.72-6.62-24.37t-16.68-8.65q-7.41 0-10.67 4.33-3.27 4.32-3.27 13.15v32.84q0 8.47 3.7 12.54m76.03-63.04q0 1.23.53 1.23t1.4-.88l1.76-2.1q4.57-5.27 9.31-7.64a23 23 0 0 1 10.36-2.37q5.8 0 11.07 2.8a28 28 0 0 1 9.13 7.9 40 40 0 0 1 6.15 12.48 55 55 0 0 1 2.28 16.33q0 9.84-2.64 17.92a43 43 0 0 1-7.4 13.96 34 34 0 0 1-11.28 9.14 32 32 0 0 1-14.45 3.25 30.3 30.3 0 0 1-15.34-4.04l-.7.52-.17 24.94q0 3.17.52 4.75.53 1.58 2.63 2.46 1.76.87 3.43 1.05 1.67.17 2.81.35t1.85.7q.7.54.7 2.11 0 2.46-3.7 2.46-3.5 0-7.44-.53a64 64 0 0 0-8.44-.52q-4.5 0-8.01.52-3.5.54-5.96.53-3.16 0-3.16-2.81 0-2.46 1.93-2.46t4.57-1.05q2.28-.88 3.07-2.46.8-1.58.8-5.1v-79.39q0-4.74-1.24-6.32a5.5 5.5 0 0 0-2.72-2.02q-1.5-.44-2.72-.53t-1.23-1.84q0-2.1 2.72-3.08 2.72-.96 6.76-3.77 5.1-3.52 7.38-6.15t3.69-2.63q1.75 0 1.75 3.69zm3.88 63.04q3.72 4.06 10.42 4.06 5.11 0 9.35-2.47a23 23 0 0 0 7.32-6.98q3.09-4.5 4.77-10.77a53 53 0 0 0 1.68-13.68q0-15.72-6.62-24.37t-16.68-8.65q-7.41 0-10.68 4.33t-3.26 13.15v32.84q0 8.47 3.7 12.54m75.86-7.7q0 5.78 3.34 7.37 1.4.7 2.81.79t2.55.26 1.84.8q.7.6.7 2.19 0 2.46-3.5 2.46a51 51 0 0 1-6.84-.53q-3.85-.53-8.19-.53-4.5 0-8.1.53-3.58.53-6.03.53-3.17 0-3.17-2.81 0-2.46 1.76-2.46 1.94 0 4.74-1.06 2.46-.87 2.99-2.37.52-1.5.52-4.13V70.93q0-2.28-1.14-3.34a8 8 0 0 0-2.63-1.58q-1.34-.46-2.64-1.05-1.14-.53-1.14-1.58 0-1.93 2.37-2.55 2.37-.6 5.53-1.84 6.07-2.29 8.94-4.3 2.85-2.03 3.73-2.03 1.38 0 1.74.88.35.88.35 2.46 0 2.28-.27 5.27-.26 2.99-.26 6.67zm30.57-36.2q-1.41 0-1.76.54-.36.52-.35 2.28v4.21q0 16.35 6.94 25.82 6.93 9.49 18 9.49 4.92 0 8.52-1.58a26 26 0 0 0 9.66-7.03q1.32-1.58 1.85-1.58 1.4 0 1.4 1.93 0 1.94-2.1 5.1a27 27 0 0 1-6.07 6.23 41 41 0 0 1-9.4 5.36 32 32 0 0 1-12.29 2.28q-7.2 0-13.09-2.9a29 29 0 0 1-10.1-8.34 40 40 0 0 1-6.5-13.17 61 61 0 0 1-2.28-17.4q0-9.65 2.55-17.47 2.55-7.8 7.11-13.26a31.1 31.1 0 0 1 24.41-11.42q6.33 0 11.6 2.2a27 27 0 0 1 8.96 5.88 26 26 0 0 1 5.7 8.6 28 28 0 0 1 2.03 10.55q0 2.28-1.4 2.98-1.42.7-4.57.7zm25.38-7.37q3.95-1.93 3.95-7.73 0-4.39-3.6-8.08t-9.22-3.69q-6.15 0-10.72 4.75-4.56 4.74-5.97 11.94l-.53 2.81v.35q0 1.59 2.11 1.58h11.42q8.6 0 12.56-1.93m173.19 27.93q0-3.3-.57-4.33-.57-1.02-3.11-1.66a22 22 0 0 0-2.48-.32q-.95-.05-1.9-.19a3 3 0 0 1-1.27-.44q-.45-.31-.45-1.2 0-1.79 2.16-1.78 1.27 0 4.51.5 3.24.51 8.7.51 6.09 0 9.27-.5 3.17-.51 4.07-.51 1.9 0 1.9 1.65 0 .88-.44 1.27-.45.38-1.15.5-.82.15-1.65.2-.95.06-2.1.31-2.28.51-2.85 1.59t-.57 4.38v19.3q0 2.92-1.97 5.4a16 16 0 0 1-5.4 4.2 33 33 0 0 1-7.93 2.66q-4.5.95-9.6.95-7.87 0-14.53-3.04a34 34 0 0 1-11.43-8.45 39 39 0 0 1-7.44-12.9 49 49 0 0 1-2.66-16.37q0-9.53 2.98-17.6a43 43 0 0 1 8.2-13.9 37 37 0 0 1 28.19-12.45 43 43 0 0 1 12 1.65q2.48.72 4.19 1.57a7 7 0 0 1 2.35 1.6q1.53 1.53 1.52 12.33 0 3.55-1.65 3.55-1.4 0-1.97-1.71a80 80 0 0 0-1.58-4.26q-4.46-11.17-15.62-11.17-5.47 0-10.1 2.86a26 26 0 0 0-8.07 8.12 43 43 0 0 0-5.33 12.7 67 67 0 0 0-1.9 16.58q0 8.51 1.96 15.36a40 40 0 0 0 5.34 11.75 25 25 0 0 0 7.87 7.56q4.5 2.66 9.6 2.66 3.67 0 5.83-1.02a7.6 7.6 0 0 0 3.3-2.86q1.15-1.85 1.47-4.4.3-2.55.31-5.6zm40.32-39.11a20 20 0 0 1 4.51-7 20 20 0 0 1 7.05-4.52 26 26 0 0 1 9.34-1.59q5.32 0 9.46 1.5 4.13 1.5 5.01 2.7 1.02 1.26 1.02 13.84 0 2.66-1.65 2.66-1.4 0-1.84-1.71-.45-1.7-1.84-5.02-2.04-5.08-4.45-7.74t-6.86-2.67q-5.7 0-8.95 3.48t-3.24 9.56q0 5.07 2.86 8.23t8.95 6.33a95 95 0 0 1 9.02 5.32 33 33 0 0 1 6.67 5.88 23 23 0 0 1 4.13 7.28q1.4 4.06 1.4 9.37 0 5.57-1.85 10.26a25 25 0 0 1-5.08 8.1 23 23 0 0 1-7.75 5.38 24 24 0 0 1-9.84 1.96q-8.38 0-13.59-2.66-5.2-2.68-5.2-8.13a67 67 0 0 1 .12-4.2q.13-2.03.13-3.8 0-1.4-.06-2.23-.07-.82-.07-1.08 0-3.93 1.9-3.93.9 0 1.28.7t.57 1.9l.44 2.86q.26 1.65.77 3.43 1.9 6.47 6.16 10.03t9.08 3.55q2.8 0 5.33-1.14a13 13 0 0 0 4.38-3.18 15 15 0 0 0 2.92-4.83q1.08-2.8 1.08-6.11 0-5.85-3.62-10.5-3.61-4.64-10.86-8.7-3.6-2.06-7.17-4.2a27 27 0 0 1-5.84-4.71 20 20 0 0 1-3.94-6.36q-1.46-3.69-1.46-9.29 0-4.94 1.58-9.02m-139.1 55.09q0 2.82.08 4.57.1 1.76.53 2.9.42 1.13 1.4 1.84.97.7 2.73 1.23 1.58.53 2.98.53 1.41 0 2.46.17a3 3 0 0 1 1.67.8q.62.6.62 2.01 0 2.46-3.7 2.46-1.58 0-5.7-.53a91 91 0 0 0-10.98-.52q-6.85 0-10.98.52-4.12.53-5.7.53-3.7 0-3.7-2.81 0-1.23.62-1.76.62-.52 1.58-.7 1.1-.18 2.2-.18 1.22 0 2.46-.35 2.1-.52 3.25-1.23a4 4 0 0 0 1.67-1.84q.52-1.14.6-2.98.1-1.84.1-4.66V81.12q0-4.21-.62-5.71-.6-1.5-3.25-2.37a12 12 0 0 0-3.33-.53q-1.42 0-2.55-.17a4 4 0 0 1-1.76-.62q-.6-.43-.61-1.84 0-2.46 2.63-2.46 1.4 0 5.62.7t11.77.7 11.77-.7 5.62-.7q2.64 0 2.64 2.46 0 1.23-.53 1.67t-1.58.61a24 24 0 0 1-2.46.26q-1.4.1-2.99.44-3.33.7-3.95 2.37-.61 1.68-.61 5.89z" style="fill:#fff"/><path d="M643.06 161.56q0 2.82.09 4.57t.52 2.9q.43 1.13 1.41 1.84.96.7 2.72 1.23 1.58.53 2.99.53 1.4 0 2.46.17a3 3 0 0 1 1.67.8q.6.6.61 2.01 0 2.46-3.69 2.46-1.58 0-5.7-.53a91 91 0 0 0-10.98-.52q-6.86 0-10.98.52-4.13.53-5.71.53-3.69 0-3.69-2.81 0-1.23.62-1.76.6-.52 1.58-.7 1.09-.18 2.2-.18 1.21 0 2.45-.35 2.1-.52 3.25-1.23a4 4 0 0 0 1.67-1.84q.52-1.14.61-2.98.1-1.84.1-4.66V81.12q-.01-4.21-.62-5.71-.62-1.5-3.25-2.37a12 12 0 0 0-3.34-.53q-1.41 0-2.55-.17a4 4 0 0 1-1.75-.62q-.62-.43-.62-1.84 0-2.46 2.64-2.46 1.4 0 5.62.7 4.2.7 11.77.7 7.55 0 11.76-.7 4.23-.7 5.63-.7 2.63 0 2.63 2.46 0 1.23-.53 1.67-.52.44-1.58.61a24 24 0 0 1-2.46.26q-1.4.1-2.98.44-3.35.7-3.95 2.37-.62 1.68-.62 5.89zm-512.46 49.9c-13.75.12-17.28-9-35.95-8.9-18.66.11-22.56 9.06-36.32 8.93-14.7-.14-26.13-13.9-34.83-26.9l-1.35-2.02a137 137 0 0 1-12.88-24.9 127 127 0 0 1-7.36-26.91H155.2a45.8 45.8 0 0 0 25.89 24.56l-1.07 2.36c-4.24 9.38-6.7 14.24-12.57 23.22a227 227 0 0 1-2.46 3.68c-8.66 12.73-20.28 26.74-34.38 26.88m-128.7-80.7a102 102 0 0 1-.78-26.92h75.15H.54c.85-9.25 4.09-19.8 8.77-27.16h.72q0-.03.04-.06C20.93 59.82 38.07 50 54.17 50c16.41 0 26.73 9.03 40.29 9.03 13.16 0 21.17-9.05 40.14-9.05 14.33 0 29.53 7.84 40.35 21.4a49 49 0 0 0-7.8 5.31h.88c-8.64 7.35-14.1 17.02-15.74 27.14h-.6a48 48 0 0 0 3.5 26.93Zm85.91-79.41c-2.24-12.26 3.52-24.88 10.5-33.4C106.02 8.6 119.18 1.4 130.44.61c1.9 12.82-3.34 25.36-10.23 34.24-7.38 9.51-20.1 16.88-32.39 16.5" style="fill:#fff"/></svg>