<svg xmlns="http://www.w3.org/2000/svg" viewBox="0 0 3569.4 314.2"><path d="M100 14.2 0 305.8h147L247 14.2zm201 0L201 305.8h147.1l100-291.6zm201.1 0-100 291.6h147l100-291.6zm598.6 189.7c29.3-25.1 50.2-49.5 50.2-96.8 0-46.9-24.3-89.2-120.6-89.2h-77c-23.6 0-42.8 19.1-42.8 42.8v245h93v-205h26.8c27.6 0 38.7 34.5 10.4 44.3-29.3 10.2-36.4 60.2-17.8 90.3l43.4 70.3h97.3zM1957.5 18h93v287.8h-93zm853.4 163.1c27.4-21.5 41.8-56 36.7-90.5-.5-2.6-1-4.6-1.4-6-34.1-106.1-195.9-106-229.9.2-3.4 10.7-5.6 22.6-6.1 35.6 0 .5.4.9.9.9h92.1c-.5-3.1-.6-6.1-.3-9.1.5-10.6 7-18.6 15.4-22.9 24.7-12.6 46 23 24.1 40.2l-123 96.4c-33.4 26.2-14.9 79.9 27.6 79.9h4.6c.1 0 .3-.1.5-.1l-.1.1h196.6V223h-91zm-407.2-47.3h132.2v82.8h-132.2zM3432.9 2.4v82.9h31.8c6.5 0 11.7 5.3 11.7 11.7v208.8h93V52.5c0-27.6-22.4-50-50-50z" style="fill:#fff"/><path d="m1788.3 18.5-14.8-.5h-57.1c-23.6 0-42.8 19.1-42.8 42.8v202.3a42.7 42.7 0 0 0 42.8 42.7h72c195.6-12.7 195.6-274.6-.1-287.3M1773.4 223h-6.8V100.8h6.8c91.5.1 91.5 122.2 0 122.2m-448.2-122.2h35.3V18h-35.3c-215.5 0-215.5 287.8 0 287.7v.1h35.3V223h-35.3v-.1c-91.5 0-91.5-122.1 0-122.1M802 305.8h93L809.7 56.9C789.9-.9 708.1-.9 688.4 56.9l-85.3 248.9h93l9.5-39h86.8zm-80.2-105.2 21.6-88.5c1.1-6.3 10.1-6.3 11.2 0l21.6 88.5zM1570 305.8h93l-85.3-248.9c-19.8-57.8-101.6-57.8-121.3 0l-85.3 248.9h93l9.5-39h86.8zm-80.2-105.2 21.6-88.5c1.1-6.3 10.1-6.3 11.2 0l21.6 88.5zm774.3 105.2h93l-85.3-248.9c-19.8-57.8-101.6-57.8-121.3 0l-85.3 248.9h93l9.5-39h86.8zM2184 200.6l21.6-88.5c1.1-6.3 10.1-6.3 11.2 0l21.6 88.5zM3005.1 0c-96.4 0-132 70.3-132 157.1s35.6 157.1 132 157.1 132-70.3 132-157.1S3101.5 0 3005.1 0m0 231.4c-21.6 0-39.1-18-39.1-74.3s17.4-74.3 39.1-74.3c21.6 0 39.1 18 39.1 74.3s-17.6 74.3-39.1 74.3M3290.5 0c-96.4 0-132 70.3-132 157.1s35.6 157.1 132 157.1 132-70.3 132-157.1S3387 0 3290.5 0m0 231.4c-21.6 0-39.1-18-39.1-74.3s17.4-74.3 39.1-74.3c21.6 0 39.1 18 39.1 74.3s-17.5 74.3-39.1 74.3m-442.1-8.4v82.8h-196.5l62-82.8z" style="fill:#fff"/><path d="M1325.4 223h35.3v82.8h-35.3zm0-205h35.3v82.8h-35.3z" style="fill:#fff"/></svg>