<svg xmlns="http://www.w3.org/2000/svg" viewBox="0 0 465 96.2"><path d="M203.8 96.2c-9.6 0-18.5-2.7-25.8-8v7h-41.5l-4.2-6.4-1.2 6.4H62.4l-1.6-10.5h-4.1l-5.2 10.4H0l49.7-94h44.1L97 19.3l3.2-18.2h46.3C158.3 1.1 169 7 175 16.6l2-2A55.8 55.8 0 0 1 215 0c13.8 0 26.3 5.3 35.1 14.9l.6.7L258.4 1h44.1l3.2 18.2L308.9 1h42.3c12.3 0 23.1 4.2 30.8 11.9L384.1 1H465l-8.1 45.1h-7l-.7 4.1h7l-7.8 45h-80.9l1.2-7.2c-8.2 4.7-18.1 7.2-28.5 7.2h-69l-1.6-10.4h-4.1l-5.2 10.4h-45.6c-3.6.6-7.3 1-10.9 1M175.6 83l2.1 1.7c7.2 5.9 16.2 9 26.2 9 3.6 0 7-.3 10.5-1h44.4l5.2-10.4h7.8l1.6 10.4h66.8c11 0 21.3-2.9 29.6-8.3l2.4-1.6-1.7 9.9h75.9l7-40h-7l1.6-9h7l7.1-40h-75.9l-2.8 14.9-1.7-2c-7.3-8.4-18.1-13-30.6-13h-40.3l-5.2 30.2-5.3-30.1h-40.5l-8.6 16.4-3-3.2C239.8 7.8 228.1 2.8 215 2.8c-13.7 0-26.6 5-36.4 13.9q-1.5 1.35-3 3l-1.2 1.2-.8-1.5c-5.3-9.7-15.7-15.7-27.2-15.7h-44.2l-5.5 30.1-5.3-30.1H51l-47 89h45.9l5.2-10.4h7.8l1.6 10.4H129l1.8-10.5 6.9 10.5h37.7V83z" style="fill:#fff"/><path d="m57.4 14.2-35.9 68h22l5.2-10.4H72l1.6 10.4h21l-11.8-68zm-.6 41.5 10-20 3 20zm110-21.7c0-11.9-9.3-19.8-20.4-19.8H111l-12 68h21.4l4.3-24.4h2.9l16 24.4h21.5v-5l-15.7-20.9c10.1-3.1 17.4-11.1 17.4-22.3m-28.9 9.6h-10.8l1.8-10.4h10.9c3.2 0 4.4 2.3 4.4 4.4.1 2.7-2 6-6.3 6m87.3 12.7c-4.5 3-9.7 6.6-17.2 6.6-8 0-12.3-5.8-12.3-12.5 0-8.9 7.2-17.1 17.5-17.1 7.5 0 11.6 2.8 15 5.8l12.2-15.3c-5.5-6-14-10.7-25.5-10.7-22.6 0-41.5 16.7-41.5 38.8 0 17.9 12.4 31.2 30.4 31.2 11.5 0 20.7-4 28.2-10zm40.9-42.1-35.9 68h22l5.2-10.4h23.3l1.6 10.4h21l-11.9-68zm-.7 41.5 10-20 3 20zM351 14.2h-31.4l-12 68h32.5c22.3 0 40.2-14.1 40.2-39.5 0-17.8-12.1-28.5-29.3-28.5m-9 49h-9.6l5.3-30h9.6c6.4 0 9.5 4.2 9.5 10.9-.1 11.2-4.9 19.1-14.8 19.1m92.7-6.5 3.2-17.5h-27.1l1-6.1H446l3.4-18.9h-54.5l-12 68h54.5l3.3-19h-34.2l1.2-6.5z" style="fill:#fff"/></svg>