<svg xmlns="http://www.w3.org/2000/svg" viewBox="0 0 1000 237"><path d="M183.47 0-.43 237h21.89l86.79-111.85c26.89-12.98 56.08-10.55 78.13 6.08V237h16.84l.03-237zm2.91 24.46v86.37c-18-10.32-39.08-13.42-60.1-8.91zM392.1 64.3l-20.46 142.33h17.74l8.98-60.95a109 109 0 0 1 4.96-5.94 138 138 0 0 1 6.3-6.58 53 53 0 0 1 4.21-3.83 31 31 0 0 1 5.93-3.83q3.3-1.65 6.98-1.73 2.25 0 4.6 1.2a11.4 11.4 0 0 1 5.9 7.7q.41 2.12.36 4.45 0 1.94-.08 3.24t-.26 2.5-.5 2.82l-8.55 60.95h17.94l8.34-59.49a108 108 0 0 0 .64-3.92q.22-1.59.32-3.36.08-1.77.08-4.62-.12-9.13-3.38-14.7t-8.11-8.07a21 21 0 0 0-9.78-2.46q-6.88.08-12.9 2.62-6 2.56-11.16 6.7a81 81 0 0 0-9.55 9.03l9.19-64.06zm408.17 0-6.47 45.92q-5.08-.15-9.91-.05-4.85.1-9.96.93a66 66 0 0 0-11.03 2.88 57 57 0 0 0-16.12 8.93 59.3 59.3 0 0 0-19.66 28.27 53 53 0 0 0-2.63 16.2 44 44 0 0 0 3.53 17.42 39 39 0 0 0 9 13.03 38 38 0 0 0 8.13 5.91 44 44 0 0 0 11.7 4.2q6.95 1.54 16.91 1.59 9.81-.11 15.68-1.15 5.85-1.05 8.32-1.78l20.46-142.3zM486.55 80.88a10 10 0 0 0-10.01 9.8q.03 2.65 1.35 4.92a10.14 10.14 0 0 0 14.15 3.57 10.4 10.4 0 0 0 4.72-8.49 9.5 9.5 0 0 0-1.3-4.76 10 10 0 0 0-3.58-3.61q-2.28-1.38-5.33-1.43M356.5 110q-13.5.09-23.74 3.58T315.3 123a53 53 0 0 0-11.78 13.28 58 58 0 0 0-6.66 15.18 57 57 0 0 0-2.1 15.1q-.04 7 2.03 14.46a43 43 0 0 0 6.81 13.91q4.74 6.46 12.72 10.47 7.97 4.02 19.74 4.13 6.56-.05 11.6-1.17a50 50 0 0 0 8.61-2.66 59 59 0 0 0 5.88-2.84l2.72-18.77a64 64 0 0 1-6.12 4.16 40 40 0 0 1-8.57 3.79 39 39 0 0 1-11.4 1.65q-6.85-.07-11.5-2.2a21 21 0 0 1-7.46-5.5 25 25 0 0 1-4.3-7.13 34 34 0 0 1-2.42-12.51q-.01-6.62 2.46-13.64a41 41 0 0 1 7.64-13.1 38 38 0 0 1 13.24-9.86q8.07-3.78 19.24-3.9 3.54.02 6.71.42t6.86 1.05l2.3-15.68q-2.86-.63-6.26-1.11-3.41-.5-8.77-.52m325.22 0a37.5 37.5 0 0 0-17.75 4.42 43 43 0 0 0-13.85 11.94 57 57 0 0 0-9 17.53 70 70 0 0 0-3.2 21.2q.06 12.83 4.8 22.82a37.6 37.6 0 0 0 13.56 15.74q8.81 5.75 21.06 5.87 6.65.08 14.69-2.25 8.01-2.34 16.4-8.19l2.71-18.56a117 117 0 0 1-9.59 6.6 64 64 0 0 1-11.07 5.5 34 34 0 0 1-11.68 2.28 20.6 20.6 0 0 1-11.04-3.3q-5.21-3.26-8.5-9.46-3.3-6.18-3.4-14.97 0-2.31.13-4.51.12-2.2.28-4.66h58.63q.32-1.54.57-3.73.26-2.21.26-5.46-.08-11.74-4.45-20.44a33 33 0 0 0-12.02-13.5q-7.65-4.8-17.54-4.86m177.9 0a37.5 37.5 0 0 0-17.75 4.42 43 43 0 0 0-13.85 11.94 57 57 0 0 0-9 17.53 70 70 0 0 0-3.2 21.2q.06 12.83 4.8 22.82a37.6 37.6 0 0 0 13.56 15.74q8.8 5.75 21.06 5.87 6.66.08 14.68-2.25t16.41-8.19l2.7-18.56a117 117 0 0 1-9.58 6.6 64 64 0 0 1-11.08 5.5 34 34 0 0 1-11.67 2.28 20.6 20.6 0 0 1-11.05-3.3q-5.2-3.26-8.5-9.46-3.3-6.18-3.4-14.97 0-2.31.13-4.51l.29-4.66h58.62q.33-1.54.58-3.73.24-2.21.26-5.46-.1-11.74-4.46-20.44a33 33 0 0 0-12.01-13.5q-7.65-4.8-17.54-4.86m78.27.61q-9.7.1-16.15 3.75-6.44 3.63-9.65 9.53a26 26 0 0 0-3.2 12.79q.03 5.73 2.2 10.35a30 30 0 0 0 5.68 8.31 49 49 0 0 0 7.77 6.6q7.87 5.64 12.5 9.25 4.65 3.63 6.63 6.47a10.2 10.2 0 0 1 1.94 6.2 9.5 9.5 0 0 1-3.42 7.38q-3.28 2.78-8.26 2.85-6.68-.07-13.86-3.79a104 104 0 0 1-15.58-10.2l-2.91 17.11q6.27 4.47 11.48 7.18a45 45 0 0 0 10.14 3.93q4.95 1.23 10.51 1.2 7.29-.05 12.79-2.36a27 27 0 0 0 9.2-6.22 26 26 0 0 0 5.57-8.76 28 28 0 0 0 1.87-10q-.04-7.2-2.84-12.32a33 33 0 0 0-7.95-9.45 153 153 0 0 0-12.16-9.12q-3.51-2.4-6.8-4.93a32 32 0 0 1-5.4-5.16 9 9 0 0 1-2.2-5.36 8.1 8.1 0 0 1 3.41-6.55q3.34-2.55 8.9-2.63 5.32.05 10.24 1.75a50 50 0 0 1 9.5 4.5q4.57 2.79 8.85 6.06v-18.56a87 87 0 0 0-6.81-4.03 54 54 0 0 0-9.75-3.97 43 43 0 0 0-12.24-1.8m-655.92.82q-5.93.09-10.63 3.16a33 33 0 0 0-8.36 7.92 70 70 0 0 0-6.46 10.39l2.71-20h-17.53l-13.35 93.72h17.73l7.52-52.8a54 54 0 0 1 6.25-10.69q4.26-5.87 7.67-8.75 3.4-2.89 6.23-3.8 2.82-.9 5.3-.81 3.74.08 6.34 1.1t4.3 2.03v-20q-1.38-.5-3.23-.97a19 19 0 0 0-4.49-.5m269.96 0q-8.1-.04-16.23 4.37-8.1 4.43-16.54 13.77l2.3-16.66h-17.54l-13.36 93.7h17.54l8.55-59.48q.84-1.14 2.87-3.63t4.92-5.57a72 72 0 0 1 6.3-5.92 38 38 0 0 1 7.02-4.7 16 16 0 0 1 7.07-1.92q1.88-.07 4.4.9a9.7 9.7 0 0 1 4.43 3.83q1.92 2.85 2.03 8.43 0 2.1-.34 6.5t-1.13 10.4l-7.3 51.17h17.74l8.77-59.51a93 93 0 0 1 5.83-7.13 76 76 0 0 1 7.3-7.12 42 42 0 0 1 8.03-5.49 18 18 0 0 1 8.06-2.19 9.4 9.4 0 0 1 4.08.94q2.32 1 4.08 4.04t1.86 9.01q-.02 1.8-.23 3.97l-.4 3.97-8.55 59.5h17.73l7.93-55.54q.48-3.45.86-6.91.38-3.48.39-7.07-.07-7.94-2.28-13t-5.65-7.81a20 20 0 0 0-7.2-3.83 24 24 0 0 0-6.98-1.02q-6.04.07-11.4 2.2a45 45 0 0 0-9.87 5.4q-4.5 3.29-7.94 6.82a72 72 0 0 0-5.65 6.43q-1.23-7.97-4.65-12.54a19 19 0 0 0-7.89-6.47q-4.5-1.9-8.96-1.84m-77.03 1.48-13.36 93.7h17.74l13.35-93.7zm206.82 11.5q4.86.02 8.64 2.46a16.3 16.3 0 0 1 5.95 7.18q2.16 4.73 2.1 11.63H659.2q.75-2.36 2.26-5.88 1.5-3.5 4.08-7.02a22 22 0 0 1 6.54-5.9q3.98-2.37 9.65-2.47m177.9 0q4.85.02 8.64 2.46a16.3 16.3 0 0 1 5.95 7.18q2.16 4.73 2.1 11.63H837.1q.75-2.36 2.26-5.88 1.5-3.5 4.08-7.02a22 22 0 0 1 6.54-5.9q3.97-2.37 9.65-2.47m-67.92.41L781.7 194.5q-1.5.32-3.26.47-1.77.16-4.67.16-11.22-.12-17.97-4.16-6.77-4.04-9.77-10.52-3-6.46-2.94-13.9-.03-7.51 2.76-15.15a40 40 0 0 1 8.74-13.9q5.95-6.28 15.42-9.74a47 47 0 0 1 12.19-2.63 99 99 0 0 1 9.52-.29" style="fill:#fff;fill-opacity:1"/></svg>