<svg xmlns="http://www.w3.org/2000/svg" viewBox="0 0 210 34"><path d="M37.68 231.6c-5.73 0-5.47.08-6.21 1l-.4.5-.05 3.15c.12 5.55-.02 11.07-.02 15.37 0 10.82.01 11.98.21 12.4.24.5.94 1.13 1.42 1.27q.78.23 1.54-.1c.66-.27.96-.55 1.25-1.2.22-.47.24-.93.25-4.43v-3.91h6.34l4.75 4.73c4 4 4.83 4.76 5.3 4.9a2.3 2.3 0 0 0 2.85-2.86c-.13-.46-.71-1.11-3.3-3.71l-3.14-3.15.45-.3c.18-.1 1.63-1.4 3.07-2.8 2.01-1.96 2.68-2.7 2.85-3.13.19-.5.2-1.24.17-5.98l-.04-5.42c-2-1.95-3.88-4.69-6.29-6.12-.37-.18-1.51-.2-8.16-.2zm31 0c-5.74 0-5.48.08-6.22 1-.37.45-.41.6-.45 1.65l-.02 15.33c0 12.72.02 14.02.22 14.44.24.5.93 1.13 1.41 1.27.17.05 3.61.1 7.65.1 3.27 0 6.2.04 8.37-.05.56-.15 5.87-5.48 6.19-6.25.18-.43.2-1.79.2-10.5 0-5.5-.03-10.2-.08-10.46-.07-.35-.56-.86-2.26-2.54-1.35-1.35-2.33-2.29-3.14-3.12-.87-.9-.5-.87-9.03-.87zm98.33 0c-3.45 0-5.48.05-5.72.15-.48.18-5.85 5.51-6.12 6.08-.17.37-.2 1.59-.2 8.8.04 2.09.04 7.55.04 8.63 0 1.26-.09 2.84.2 3.92.3.62 5.76 6.05 6.17 6.12.19.04 2.71.07 5.61.08 4.9.02 5.32 0 5.81-.23.73-.34 5.73-5.39 6.01-6.06.17-.4.2-1.11.2-3.64v-10.47c0-3.52-.03-6.6-.08-6.85-.07-.36-.66-1.03-2.9-3.28-1.54-1.56-3-2.93-3.23-3.04-.37-.18-1.25-.2-5.79-.2m-155.05 0q-.46.01-.83.15c-.42.15-4.11 3.77-8.26 8.1-2.25 2.33-2.75 2.93-2.83 3.34 0 2.53-.04 7.14-.04 10.62 0 10.85-.06 10.06.85 11.03.42.35.65.43 1.43.43 1.09 0 1.67-.28 2.11-1.15.3-.6.29-.68.29-6.96v-6.32h14.69v6.36c0 5.63.03 6.41.22 6.82.24.5.94 1.13 1.42 1.27q.78.23 1.53-.1c.67-.27.96-.55 1.26-1.19.23-.5.24-1.12.24-10.5 0-5.49-.03-10.17-.08-10.4-3.03-3.38-7.8-9.3-11.18-11.36a2 2 0 0 0-.82-.13m125.65.02-4.2.01-7.94.04-.5.4a4 4 0 0 0-.75.87c-.23.44-.24 1.06-.24 13.5.15 5.1.08 13.1.02 14.89-.02 1.03 0 2.07.04 2.31.1.53 1.08 1.58 1.56 1.67.17.03 3.77.06 8 .07 7.24.02 7.7 0 8.21-.23.73-.34 5.73-5.39 6-6.06q.22-.48.21-1.9c0-1.67.12-3.05-.09-4.5-.06-.34-.52-.89-1.93-2.32l-1.84-1.88 1.68-1.66a14 14 0 0 0 1.93-2.2c.22-.47.25-.88.25-3.3 0-1.5-.04-2.95-.08-3.2-.07-.36-.67-1.03-2.9-3.28a36 36 0 0 0-3.24-3.04c-.3-.14-.94-.19-4.2-.19m-42.15.01-.3.01c-.82.06-1.52.54-1.93 1.3-.24.44-.25 1.05-.25 13.11 0 8.57.05 12.78.14 13.03 1.03.95 5.08 5.79 6.29 6.23.17.03 2.7.06 5.6.07 4.9.02 5.31 0 5.8-.23a21 21 0 0 0 2.84-2.57c1.11-1.2 1.96-1.89 3.17-3.5.2-.5.21-1.88.18-13.27l-.04-12.71-.4-.5c-.6-.75-1.2-1.02-2.04-.96-.8.06-1.5.54-1.92 1.3-.24.44-.25 1.03-.25 12.42v11.96l-1.7 1.7-1.7 1.7h-7.89l-1.7-1.7-1.7-1.7-.03-12.11-.04-12.11-.4-.5c-.53-.65-1.05-.95-1.73-.97m92.98 0-.3.01c-.54.04-.83.15-1.2.45-.93.75-.98.96-.98 4.23 0 2.37.04 3 .21 3.36.11.24 2.3 2.56 4.84 5.15a100 100 0 0 1 4.66 4.86c0 2.8-.08 4.16-.08 6.77-.01 6.36 0 7.13.2 7.56.25.5.95 1.13 1.43 1.27q.78.23 1.53-.1c.67-.27.96-.55 1.26-1.19.22-.5.24-1.03.24-7.57 0-6.34-.03-7.32.17-7.52 2.06-1.76 7.96-6.83 9.4-9.37.17-.45.2-1.07.17-3.5l-.05-2.94-.4-.5c-.6-.75-1.2-1.02-2.04-.96-.52.04-.82.15-1.18.45-.9.72-.99 1.03-.99 3.52v2.2l-3.68 3.7-3.69 3.68-3.63-3.67-3.62-3.66-.07-2.38-.07-2.38-.4-.5c-.53-.65-1.05-.95-1.73-.97M66.65 236.3h5.58l5.58.01 1.77 1.73 1.77 1.73v17.49L79.58 259l-1.77 1.74H66.66v-12.21zm-30.99 0h11.17a126 126 0 0 0 3.53 3.43v7.78l-1.78 1.74-1.77 1.74H35.67c.02-4.39-.07-9.45-.02-13.32zm92.98 0h11.29l1.7 1.7 1.7 1.71v3.08l-1.7 1.7-1.7 1.7h-11.29v-4.94zm34.4 0h7.88l1.7 1.7 1.71 1.7v6.4c0 3.39.02 6.7 0 8.82v2.42l-1.7 1.7-1.7 1.71h-7.89l-1.7-1.7-1.7-1.7-.02-1.44.01-8.7v-7.5l1.7-1.7zm-151.06.97c2.08 2 4.29 4.27 6.12 6.13l1.26 1.25v1.54H4.68l.04-1.5c2.5-2.9 4.49-4.86 7.27-7.42m116.66 13.6h11.29l1.7 1.7 1.7 1.7v2.77c0 .22-.5.82-1.7 2.01l-1.7 1.7h-11.29v-5.9z" style="fill:#fff;fill-opacity:1;stroke-width:.133594" transform="translate(0 -231.5)"/></svg>