<svg xmlns="http://www.w3.org/2000/svg" viewBox="0 0 264 47"><path d="M166.68 9.2V8.04h8.06v10.23h-5.73v2.02h-1.97v2.26h-2.26v9.82h1.96v2.08h2.15v2.19h5.85V47h-8v-1.27h-2.46v-1.2h-1.97v-1.67h-1.79v-2.22h-2.09v-2.18h-1.97v-2.62h-1.91V19.09h1.91v-2.53h1.91v-2.28h2.21V12.1h1.73v-1.58h1.78V9.2zm21.86-.19V8h8.61v1.01h2.46v1.28h1.85v1.83h1.97v1.96h2.03v2.26h2.09v30.64h-9.5V20.43h-2.06v-1.89H191v1.77h-2.21v2.14h-2.28v9.89h2.15v2.2h1.97v1.77h5.29v10.67h-7.38v-.84h-2.58v-1.28h-1.67v-1.77h-1.96v-2.08h-1.91v-2.38h-1.91V36h-2.09V19.15h1.78v-2.59h2.16v-2.24h1.97v-2.26h1.84v-1.65h1.91v-1.4zm-176.42 0V8h8.62v1.01h2.46v1.28h1.84v1.83h1.97v1.96h2.03v2.26h2.1v30.64h-9.51V20.43h-2.06v-1.89h-4.99v1.77h-2.21v2.14h-2.28v9.89h2.15v2.2h1.97v1.77h5.3v10.67h-7.39v-.84H9.54v-1.28H7.88v-1.77H5.91v-2.08H4v-2.38H2.09V36H0V19.15h1.78v-2.59h2.16v-2.24h1.97v-2.26h1.84v-1.65h1.91v-1.4zm216.83 9.12V8h-7.47v1.06h-2.37v1.25h-2.04v1.72h-2.05v2.19h-1.81v2.19h-1.97v2.73h-2.04v16.73h2.12v2.65h1.89v2.42h1.97v2.27h1.97v1.72h1.96v1.17h2.68v.88h8.97v-.8h2.44v-1.41h1.66v-1.95h1.81v-2.27h2.2v-2.18h1.97V0h-10.15v34.54h-1.74v1.79h-5.35v-1.79h-1.81v-2.35h-2.12v-9.76h2.28v-2.04h1.97v-2.26zm15.93.76v-2.46h1.72v-2.15h2.03v-2.2h1.78v-1.77h2.03V8.86h2.29V8H264v10.32h-6.48v1.57h-2.09v1.2h-1.91v1.39H264v9.65h-10.42v1.51h1.97v1.2h1.84v1.51H264v10.63h-9.27v-.85h-2.16V44.8h-1.97v-1.76h-1.84v-1.96h-2.16v-2.52h-1.72v-2.78h-2.29v-16.9zm-182.2 3.83v-6.26h-1.95v-2.32h-2.01v-2.13h-1.81v-1.65h-1.9V9.05h-2.36V8h-9.74v1.05h-2.6v1.31h-1.74v1.65h-1.83v2.13h-2.11v2.2h-1.74v10.21h1.94v1.99h1.99v1.83H50.5v2.04h2.03v1.99h-2.11v2.08h-5.24v-2.16h-1.86v-2.03H32.89v6.22h1.94v2.12h2.03v2.11h2.03v1.67h1.79v1.3h2.43v1.27h9.66v-1.27h2.2v-1.3h1.94v-1.67h1.95v-2.07h1.91v-2.12h1.91v-9.76h-2.36v-1.92h-1.99V24.6H45.14v-2.04h-1.99v-1.99h1.99v-2.16h5.24v2.32h1.95v1.99zm21.87 14.04v-2.15h-1.99v-2.03h-1.82v-14.1h6.04v-3.61h-2.35v-2.24h-2.19v-1.7h-1.5V4.55H70.37v6.38h-1.34v1.7h-2.02v2.24h-2.55v3.61h5.91v17.35h2.03v2.43h1.7v2.36h1.98v2.4h1.75v1.78h1.74v1.3h2.63v.86h7.33v-10.2zm27.93-6.56h2.21v-2.19h1.84v-2.48h1.11v-9.16h-1.36v-2.03h-1.72v-2.16h-2.01v-1.7h-2.21V9.17h-2.13V8h-6.6v1.17h-1.84v1.31h-2.05v1.7H95.5v2.16h-1.97v1.99h-2.21v30.63h10.08V18.41h6.81v5.45h-2.09v1.46h-3.16v7.28l6.15 14.36h10.41zm38.62-11.1v-2.6h-2.02v-2.2H147v-2.2h-1.82v-1.58h-1.87v-1.3h-2.35V7.99h-9.78v1.23h-2.3v1.22h-2.03v1.66h-1.67v2.2h-2.15v2.2h-1.86v2.6h-1.99v16.77h1.99v2.6h1.86v2.2h2.15v2.2h1.67v1.67h2.02v1.22h2.31v1.22h9.78v-1.22h2.35v-1.22h1.87v-1.67H147v-2.2h2.07v-2.2h2.03v-2.63h1.82V19.1zm-10.4 13.15v2.2h-2.03v2.03h-5.19v-2.03h-1.87v-2.2h-2.19v-9.53h2.2v-2.2h1.86V18.5h5.19v2.04h2.03v2.2h2.02v9.52z" style="fill:#fff"/></svg>