<svg xmlns="http://www.w3.org/2000/svg" viewBox="0 0 264 57"><path d="M219.09 5.6c5-6.4 15.35-7.5 21.48-2.13a16.7 16.7 0 0 1 5.16 8.16c11.36 39.08 22.77 78.13 34.1 117.22q-10.05-.02-20.1 0c-3.16-10.77-6.25-21.56-9.37-32.35l-38.87-.01q-4.75 16.17-9.42 32.37c-6.67-.03-13.33 0-20-.02q16.18-55.9 32.43-111.8c1.3-3.91 1.78-8.27 4.58-11.45m11.84 23.94c-4.76 16.19-9.41 32.4-14.14 48.6 9.42.05 18.84.02 28.25.02l-14.12-48.62Zm129.35-23.1A15.4 15.4 0 0 1 376.46.47c5.44 1.26 9.6 5.95 11.04 11.23l34.07 117.12c-6.7.06-13.42 0-20.13.03-3.12-10.78-6.2-21.58-9.35-32.36q-19.4-.02-38.8.01c-3.1 10.79-6.29 21.56-9.38 32.35h-19.97c10.78-37.48 21.69-74.92 32.56-112.38 1.13-3.4 1.58-7.12 3.77-10.04m-1.63 71.72h28.13c-4.66-16.24-9.4-32.46-14.06-48.7-4.69 16.24-9.42 32.46-14.07 48.7M264.84.28h72.73v19.61H310.8v108.95h-19.2V19.9q-13.38-.02-26.77 0zm178.06.8c1.84-.64 3.8-.86 5.75-.81q11.47.02 22.93 0c12.87.25 25.16 8.23 30.73 19.82 3.86 7.52 4.26 16.27 3.28 24.53-.67 8.64-4.3 17.28-10.93 23-3.51 3.13-7.88 5.03-11.64 7.81-2.06 1.57-2.16 4.62-1.1 6.8 10.15 15.67 20.7 31.08 31.06 46.61-7.58.01-15.16-.02-22.73.01-9.92-14.89-19.73-29.86-29.61-44.78a16.6 16.6 0 0 1-1.95-14.71c1.35-3.72 4.6-6.44 8.22-7.84 6.9-2.63 13.71-6.77 17.54-13.29 2.9-4.9 2.75-10.94 1.45-16.3-1.54-6.96-8.32-12.43-15.48-12.19-4.96.03-9.9-.02-14.85.02-2.24-.05-4.35 1.9-4.32 4.17l-.01 104.92h-19.32l-.02-112.96c0-6.6 4.7-12.8 10.96-14.8Zm80.2-.8h20.33q.01 64.28-.01 128.57l-20.32-.01zM57.33.02 67.1 0q.02 11.48 0 22.96c.04 6.4-.14 12.79-.4 19.17-.44 9.22-1.02 18.45-2.55 27.57-1.04 6.28-3.22 12.34-5.91 18.1-4.4 9.27-11.31 17.1-19.08 23.7-6.95 6.12-15.25 10.58-23.97 13.59A82 82 0 0 1 0 128.84v-19.27a57 57 0 0 0 17.77-6.06 64 64 0 0 0 17.53-13.7 73 73 0 0 0 12.4-19.35c3.68-8.07 5.64-16.78 6.98-25.51 1.68-11.1 2.38-22.32 2.64-33.54.03-3.79 0-7.59.01-11.39m13.7.01c6-.04 12 0 17.99-.02v128.83c-5.98.02-11.97-.03-17.95.03-.07-13.7 0-27.4-.03-41.09zM93.02.01h9.7c-.1 13.1.35 26.21 1.9 39.22 1.29 10.1 3.09 20.28 7.11 29.7 3.82 9.1 9.32 17.57 16.48 24.4a63 63 0 0 0 24.15 14.42c2.51.8 5.08 1.44 7.7 1.82v19.25a81 81 0 0 1-15.07-3.68 77 77 0 0 1-16.67-8.03 79 79 0 0 1-10.53-8.39c-5.45-5.03-10.33-10.74-14-17.2a75 75 0 0 1-6.58-16.03c-1.5-5.58-2.14-11.34-2.73-17.08a384 384 0 0 1-1.46-37.28z" style="fill:#fff" transform="scale(.44 .44232)"/><path d="M57.33.02q.02 5.7-.01 11.4c-.26 11.2-.96 22.43-2.64 33.53-1.34 8.73-3.3 17.44-6.98 25.51A73 73 0 0 1 35.3 89.8a64 64 0 0 1-17.53 13.71A56 56 0 0 1 0 109.57v19.27a82 82 0 0 0 15.19-3.74c8.72-3.01 17.02-7.47 23.97-13.58 7.77-6.6 14.68-14.44 19.08-23.72 2.7-5.75 4.87-11.8 5.91-18.1 1.53-9.1 2.11-18.34 2.54-27.56.27-6.38.45-12.78.42-19.17V0h-9.78m13.7.03.01 87.75c.02 13.7-.04 27.4.03 41.08 5.98-.05 11.97-.01 17.95-.02V.01c-6 .01-12-.02-17.99.02M93.02.01v21.11c-.08 12.44.34 24.9 1.46 37.29.58 5.73 1.22 11.5 2.73 17.08a75 75 0 0 0 6.59 16.02c3.66 6.47 8.54 12.18 13.99 17.2a79 79 0 0 0 10.53 8.4 77 77 0 0 0 16.67 8.03 81 81 0 0 0 15.07 3.68v-19.25a48 48 0 0 1-7.7-1.82 63 63 0 0 1-24.15-14.43c-7.16-6.82-12.66-15.28-16.48-24.4-4.02-9.4-5.82-19.58-7.1-29.7-1.56-13-2-26.11-1.9-39.2H93M595.01 105.1h4.2v23.76l-19.76-16.1c-1.86-1.51-4.15-3.27-6.6-3.27-3.85 0-7.01 3.42-7.01 7.22a7.2 7.2 0 0 0 6.72 7.08v4.58c-6.53-.73-10.92-4.97-10.92-11.66 0-6.24 4.63-11.61 11.02-11.61 2.74 0 5.47 1.03 7.57 2.73l14.78 12.1-.01-14.82Zm-31.12-21.03 13.26 9.81.1-.1a8 8 0 0 1-.87-3.6c0-6.06 5.6-10.64 11.51-10.64a12.1 12.1 0 0 1 12.1 12.14c0 6.35-5.27 12.25-11.75 12.25-3.72 0-6.84-1.85-9.72-4L561.65 87.4zm24.49-.14c-4.6 0-7.91 3.9-7.91 7.8 0 4 3.66 7.8 7.66 7.8 4.25 0 7.76-3.6 7.76-7.8 0-4.1-3.4-7.8-7.52-7.8m-26.73-24.38a19.2 19.2 0 0 0 19.26 19.1c10.53 0 19.1-8.57 19.1-19.1 0-10.84-8.42-19.34-19.18-19.34a19.06 19.06 0 0 0-19.19 19.34Zm19.26-14.82c8.32 0 14.82 6.61 14.82 15.05 0 7.92-6.64 14.36-14.82 14.36-8.25 0-14.97-6.44-14.97-14.36 0-8.58 6.44-15.05 14.98-15.05Zm-19.26-25.36a19.2 19.2 0 0 0 19.26 19.1c10.53 0 19.1-8.56 19.1-19.1C600 8.53 591.58.04 580.82.04a19.06 19.06 0 0 0-19.19 19.33ZM580.9 4.55c8.32 0 14.82 6.61 14.82 15.06 0 7.91-6.64 14.35-14.82 14.35-8.25 0-14.97-6.44-14.97-14.35 0-8.58 6.44-15.05 14.98-15.05Z" style="fill:#fff" transform="scale(.44 .44232)"/></svg>