<svg xmlns="http://www.w3.org/2000/svg" viewBox="0 0 264 35"><path d="m207.83 25.97-24.65 8.91h24.81l9.43-5.19zM184.81.24h29.28l38.99 19.71h-15.29l-10.75-4.92-6.63 2.69zm54.54 9.03L264 .36h-24.8l-9.44 5.19z" style="fill:#fff"/><path d="M262.37 35h-29.28L194.1 15.29h15.29l10.75 4.93 6.63-2.69zM0 0h19.41v23.65H0zm0 26.55h49.74v7.24H0zM31.54 0h23.05l15.77 13.28-11.4 8.34zm29.12 22.93v10.86h18.19V22.93L114.03 0H97.05L61.87 22.93zm55.8-19.31 19.41 12.07v18.1h-19.41zM118.89 0l49.74 33.79h10.91V0h-9.46v23.77L134.66 0z" style="fill:#fff"/></svg>