<svg xmlns="http://www.w3.org/2000/svg" viewBox="0 0 264 57"><path d="M96.39 2.49c2.17-2.8 6.77-3.34 9.43-.91a8 8 0 0 1 2.3 3.58c4.95 17.24 10.03 34.54 15 51.78h-8.84c-1.39-4.8-2.72-9.53-4.17-14.33H93l-4.17 14.33H80c4.78-16.45 9.5-32.9 14.27-49.35.66-1.76.9-3.7 2.12-5.1m5.2 10.56q-3.17 10.75-6.23 21.49h12.45q-3.15-10.74-6.23-21.49m56.91-10.2a6.67 6.67 0 0 1 11.97 2.37c4.95 17.24 10.03 34.54 15 51.78h-8.84c-1.33-4.8-2.72-9.53-4.1-14.33H155.4A640 640 0 0 1 151.23 57h-8.83l14.33-49.65c.6-1.52.79-3.22 1.76-4.5m-.67 31.69h12.4c-2.06-7.16-4.18-14.33-6.17-21.49-2.18 7.16-4.18 14.33-6.23 21.49M116.46.18h31.99v8.68h-11.8V57h-8.4V8.86h-11.79zm78.43.31c.78-.3 1.69-.37 2.54-.37h10.1A15.6 15.6 0 0 1 221 8.86c1.7 3.34 1.87 7.23 1.45 10.87-.3 3.82-1.94 7.65-4.78 10.14-1.51 1.4-3.44 2.18-5.14 3.46-.9.72-.9 2.06-.48 2.97 4.47 6.92 9.13 13.72 13.66 20.58H215.7c-4.36-6.62-8.65-13.17-13.06-19.8a7.3 7.3 0 0 1-.85-6.49 6.2 6.2 0 0 1 3.63-3.46c3.02-1.15 6.04-2.97 7.74-5.88 1.33-2.13 1.2-4.8.66-7.23a7.1 7.1 0 0 0-6.77-5.4h-6.53c-.97 0-1.94.85-1.94 1.82v46.32h-8.52V6.86c0-2.73 2.05-5.46 4.84-6.37m35.3-.31h8.95V57h-8.95zM25.22 0h4.29v10.14c0 2.79-.06 5.64-.18 8.43a119 119 0 0 1-1.1 12.2 32 32 0 0 1-2.6 8.02c-1.93 4.13-4.95 7.59-8.4 10.5A31 31 0 0 1 6.71 55.3 36 36 0 0 1 0 56.94v-8.5a25 25 0 0 0 7.8-2.67c2.9-1.52 5.5-3.58 7.74-6.07q3.45-3.82 5.44-8.56c1.63-3.58 2.48-7.4 3.09-11.29.72-4.92 1.02-9.9 1.14-14.81zm5.98 0h7.92v56.88H31.2c-.06-6.01 0-12.14 0-18.15zm9.68 0h4.29c-.06 5.83.12 11.6.85 17.36.54 4.43 1.33 8.99 3.14 13.11 1.7 4 4.11 7.77 7.26 10.8a27 27 0 0 0 10.64 6.38c1.09.37 2.23.67 3.38.8v8.49c-2.3-.3-4.47-.91-6.59-1.64a34 34 0 0 1-7.31-3.58 39 39 0 0 1-4.66-3.7 32 32 0 0 1-6.17-7.65 34 34 0 0 1-2.9-7.04c-.66-2.5-.9-4.98-1.2-7.53-.5-5.46-.73-10.99-.67-16.45Q40.86 4.7 40.88 0" style="fill:#fff"/><path d="M25.22 0v5.04c-.13 4.98-.43 9.9-1.15 14.81-.6 3.82-1.46 7.7-3.09 11.29a33 33 0 0 1-5.44 8.56 27 27 0 0 1-7.74 6.07A24 24 0 0 1 0 48.44v8.5c2.3-.3 4.54-.91 6.71-1.64a32 32 0 0 0 10.52-6c3.39-2.92 6.47-6.38 8.4-10.51a34 34 0 0 0 2.6-8.01c.67-4.01.91-8.08 1.1-12.14.12-2.8.18-5.65.18-8.44V.06Q27.32 0 25.2 0m6 0v56.94c2.66-.06 5.26 0 7.92 0V.06C36.46 0 33.86 0 31.2 0m9.68 0v9.29c-.07 5.52.12 10.99.66 16.45.3 2.55.55 5.1 1.21 7.53a33 33 0 0 0 2.9 7.04 33 33 0 0 0 6.17 7.64 35 35 0 0 0 4.66 3.7 34 34 0 0 0 7.31 3.59c2.12.73 4.36 1.34 6.6 1.64v-8.5c-1.16-.18-2.3-.49-3.4-.79a28.5 28.5 0 0 1-10.63-6.37 31.5 31.5 0 0 1-7.26-10.8c-1.75-4.2-2.54-8.69-3.15-13.12-.66-5.65-.84-11.47-.78-17.24Q42.98 0 40.87 0" style="fill:#fff"/><path d="M256.19 33.04c-.68-1.05-1.72-1.8-2.9-1.8-2.82 0-4.12 2.97-4.12 5.75s1.3 5.74 4.13 5.74c1.23 0 2.27-.67 2.89-1.79.67 1.55 1.9 2.41 3.44 2.41 2.83 0 4.3-3.2 4.3-6.42 0-3.15-1.47-6.42-4.3-6.42a4.4 4.4 0 0 0-3.44 2.53m-1.79 4.07c0 .68-.49 1.3-1.04 1.3-.56 0-1.05-.55-1.05-1.3 0-.67.5-1.3 1.05-1.3.61-.05 1.04.56 1.04 1.3m3.63 0c0-.8.5-1.42 1.17-1.42.62 0 1.1.68 1.1 1.42 0 .8-.48 1.42-1.1 1.42-.68-.06-1.17-.67-1.17-1.42m-6.46-19.94a6 6 0 0 0-2.4 5.06c0 2.1.87 3.83 2.4 5.07a8.5 8.5 0 0 0 5.05 1.54c3.69 0 7.38-2.04 7.38-6.61s-3.75-6.6-7.38-6.6c-1.9 0-3.7.55-5.05 1.54m8.06 5c0 1.6-2.03 1.79-3.01 1.79-.99 0-3.02-.19-3.02-1.8 0-1.6 2.03-1.78 3.02-1.78.98.06 3.01.25 3.01 1.79M251.57 1.6a6 6 0 0 0-2.4 5.07c0 2.1.87 3.83 2.4 5.06a8.5 8.5 0 0 0 5.05 1.55c3.69 0 7.38-2.04 7.38-6.61 0-4.51-3.75-6.61-7.38-6.61-1.9.06-3.7.62-5.05 1.54m8.06 5.07c0 1.6-2.03 1.79-3.01 1.79-.99 0-3.02-.19-3.02-1.8 0-1.6 2.03-1.78 3.02-1.78.98 0 3.01.18 3.01 1.79" style="fill:#fff;stroke-width:1.01737"/><path d="M263.94 55.46v-5.25l-14.58-6.24V57h4.55v-6.18z" style="fill:#fff"/></svg>