<svg xmlns="http://www.w3.org/2000/svg" viewBox="0 0 3840 569.9"><path d="M480.5 14.8H59.8C26.9 14.8 0 41.7 0 74.6v420.7c0 32.9 26.9 59.8 59.8 59.8h420.7c32.9 0 59.8-26.9 59.8-59.8V74.6c-.1-32.9-26.9-59.8-59.8-59.8M234.8 179.7c.1 17.5-.4 34.9-1.1 52.3-1.2 25.2-2.8 50.4-6.9 75.3-2.9 17.2-8.8 33.7-16.2 49.4-12 25.3-30.9 46.7-52.1 64.7-19 16.7-41.6 28.9-65.5 37.1-13.5 4.6-27.3 8.2-41.5 10.2v-52.6c17-2.6 33.3-8.6 48.5-16.6 18-9.5 34.2-22.3 47.9-37.4 14.1-15.6 25.3-33.6 33.9-52.8 10-22 15.4-45.8 19.1-69.7 4.6-30.3 6.5-60.9 7.2-91.6.1-10.4 0-20.8 0-31.1h26.7c.1 21 0 41.9 0 62.8m59.9 289.1c-16.3 0-32.7-.1-49 .1-.2-37.4 0-74.8-.1-112.2V117.1c16.4-.1 32.7 0 49.1 0zm193.9-.1c-14-1.9-27.8-5.5-41.1-10.1-15.9-5.5-31.3-12.7-45.5-21.9-10.3-6.6-19.7-14.6-28.8-22.9-14.9-13.7-28.2-29.3-38.2-47-7.8-13.7-13.5-28.6-18-43.8-4.1-15.2-5.8-31-7.4-46.6-3.1-33.8-4.2-67.8-4-101.8v-57.7h26.5c-.3 35.7.9 71.6 5.2 107.1 3.5 27.6 8.4 55.4 19.4 81.1 10.4 24.9 25.4 48 45 66.6 18.7 17.8 41.3 31.5 65.9 39.4 6.9 2.2 13.9 3.9 21 5zm305.2-431c21-26.9 64.5-31.5 90.3-8.9 10.5 8.9 17.9 21.1 21.7 34.3 47.7 164.2 95.7 328.3 143.3 492.5-28.2 0-56.3-.1-84.5 0-13.3-45.3-26.3-90.6-39.4-135.9-54.5-.1-108.9 0-163.3-.1-13.3 45.3-26.5 90.6-39.6 136-28-.1-56 0-84-.1C683.6 399 729 242.4 774.6 85.8c5.4-16.4 7.4-34.7 19.2-48.1m49.8 100.6c-20 68-39.5 136.2-59.4 204.2 39.6.2 79.1.1 118.7.1-19.8-68.1-39.5-136.2-59.3-204.3m543.5-97.1c14.7-21.3 43-31.6 68-25 22.9 5.3 40.4 25 46.4 47.2 47.7 164.1 95.5 328.1 143.2 492.2-28.2.2-56.4 0-84.6.1-13.1-45.3-26.1-90.7-39.3-136-54.4 0-108.7-.1-163.1 0-13 45.3-26.4 90.6-39.4 135.9h-83.9c45.3-157.5 91.2-314.9 136.8-472.3 4.8-14.1 6.7-29.8 15.9-42.1m-6.9 301.4c39.4.1 78.8 0 118.2 0-19.6-68.3-39.5-136.4-59.1-204.6-19.6 68.2-39.5 136.4-59.1 204.6M986.1 15.4h305.6v82.4h-112.5v457.8h-80.6V97.8c-37.5-.1-75 0-112.5 0 0-27.5-.1-54.9 0-82.4m748.2 3.3c7.7-2.7 16-3.6 24.2-3.4 32.1.1 64.3 0 96.4 0 54.1 1 105.7 34.6 129.1 83.2 16.2 31.6 17.9 68.4 13.8 103.1-2.8 36.3-18.1 72.6-46 96.7-14.7 13.1-33.1 21.1-48.9 32.8-8.7 6.6-9.1 19.4-4.6 28.6 42.6 65.8 87 130.6 130.5 195.9-31.8.1-63.7-.1-95.5.1-41.7-62.6-82.9-125.5-124.4-188.2-12.2-17.8-15.5-41.5-8.2-61.8 5.7-15.6 19.4-27 34.6-32.9 29-11.1 57.6-28.5 73.7-55.9 12.2-20.6 11.6-46 6.1-68.5-6.4-29.2-34.9-52.2-65-51.2-20.8.1-41.6-.1-62.4.1-9.4-.2-18.3 8-18.1 17.5-.1 147 0 293.9 0 440.9-27.1-.1-54.1 0-81.2 0-.1-158.2.1-316.4-.1-474.7 0-27.8 19.7-53.9 46-62.3m337-3.3h85.4c0 180.1.1 360.2-.1 540.3-28.4-.1-56.9 0-85.4 0 .1-180.2.1-360.3.1-540.3m407.5 183.1c29 0 52.6-23.5 52.6-52.6s-23.5-52.6-52.6-52.6c-29 0-52.6 23.5-52.6 52.6s23.5 52.6 52.6 52.6m0-70.4c9.8 0 17.8 8 17.8 17.8s-8 17.8-17.8 17.8-17.8-8-17.8-17.8 7.9-17.8 17.8-17.8" class="st2" style="fill:#fff"/><path d="M2614.7 207.4a147 147 0 0 0 12.3-59.1C2627 66.5 2560.5 0 2478.8 0s-148.3 66.5-148.3 148.3c0 20.6 4.2 40.6 12.3 59.1a205.2 205.2 0 0 0-70.9 155.7c0 114 92.8 206.8 206.8 206.8s206.8-92.8 206.8-206.8c.1-60.6-25.9-116.8-70.8-155.7m-135.9 327.7c-95 0-172.1-77-172.1-172.1 0-61.9 32.8-115.9 81.8-146.3a113 113 0 0 1-23.2-68.6c0-62.7 50.8-113.5 113.5-113.5s113.5 50.8 113.5 113.5c0 25.8-8.7 49.5-23.2 68.6 49 30.3 81.8 84.4 81.8 146.3-.1 95.1-77.1 172.1-172.1 172.1" class="st2" style="fill:#fff"/><path d="M2478.8 263.2c-56.8 0-102.8 46-102.8 102.8s46 102.8 102.8 102.8 102.8-46 102.8-102.8-46.1-102.8-102.8-102.8m0 170.7c-37.5 0-68-30.5-68-68s30.5-68 68-68 68 30.5 68 68-30.5 68-68 68M2974.9 0c-157.1 0-285 127.8-285 285 0 157.1 127.8 285 285 285 157.1 0 284.9-127.8 284.9-285 .1-157.2-127.8-285-284.9-285m0 535.2c-138 0-250.2-112.3-250.2-250.2 0-138 112.3-250.2 250.2-250.2 138 0 250.2 112.3 250.2 250.2s-112.2 250.2-250.2 250.2" class="st2" style="fill:#fff"/><path d="M2974.9 101c-101.4 0-184 82.5-184 184 0 101.4 82.5 184 184 184 101.4 0 184-82.5 184-184s-82.6-184-184-184m0 333.2c-82.3 0-149.3-67-149.3-149.2 0-82.3 67-149.2 149.3-149.2s149.2 67 149.2 149.2c0 82.3-66.9 149.2-149.2 149.2M3555.1 0c-157.1 0-285 127.8-285 285 0 157.1 127.8 285 285 285 157.1 0 284.9-127.8 284.9-285S3712.2 0 3555.1 0m0 535.2c-138 0-250.2-112.3-250.2-250.2 0-138 112.3-250.2 250.2-250.2 138 0 250.2 112.3 250.2 250.2S3693 535.2 3555.1 535.2" class="st2" style="fill:#fff"/><path d="M3555.1 101c-101.4 0-184 82.5-184 184 0 101.4 82.5 184 184 184 101.4 0 184-82.5 184-184-.1-101.5-82.6-184-184-184m0 333.2c-82.3 0-149.3-67-149.3-149.2 0-82.3 67-149.2 149.3-149.2s149.2 67 149.2 149.2c0 82.3-67 149.2-149.2 149.2" class="st2" style="fill:#fff"/></svg>