<svg xmlns="http://www.w3.org/2000/svg" viewBox="0 0 264 57"><g style="fill:#fff"><path d="M96.4 2.47c2.2-2.83 6.75-3.3 9.45-.94a7.4 7.4 0 0 1 2.27 3.62q7.51 25.91 15 51.84h-8.84q-2.08-7.15-4.12-14.3-8.55-.01-17.1-.01-2.1 7.15-4.15 14.32h-8.8q7.12-24.74 14.27-49.47c.57-1.72.78-3.65 2.02-5.06m5.2 10.6q-3.12 10.74-6.22 21.49 6.23.02 12.43 0zm56.92-10.22A6.7 6.7 0 0 1 165.64.2c2.4.55 4.23 2.63 4.86 4.96l15 51.81q-4.44.01-8.86.01l-4.12-14.31h-17.08q-2.06 7.16-4.12 14.31h-8.79q7.14-24.86 14.33-49.7c.5-1.5.7-3.15 1.66-4.45m-.72 31.73h12.38q-3.1-10.77-6.19-21.54-3.1 10.76-6.19 21.54M116.53.12h32V8.8h-11.78V57h-8.44V8.8h-11.78zm78.34.36a7 7 0 0 1 2.54-.36h10.09c5.66.1 11.07 3.64 13.52 8.77 1.7 3.32 1.87 7.2 1.44 10.84-.3 3.83-1.89 7.65-4.81 10.18-1.54 1.38-3.47 2.22-5.12 3.45-.9.7-.95 2.05-.48 3.01 4.46 6.93 9.1 13.75 13.66 20.62h-10q-6.52-9.88-13.03-19.8a7.4 7.4 0 0 1-.86-6.51 6.1 6.1 0 0 1 3.62-3.47c3.04-1.16 6.03-3 7.72-5.88 1.28-2.16 1.21-4.84.63-7.2a7 7 0 0 0-6.8-5.4q-3.28.01-6.54.01a1.9 1.9 0 0 0-1.9 1.84V57h-8.5l-.01-49.96a7.1 7.1 0 0 1 4.82-6.55zm35.29-.36h8.95V57h-8.95zM25.23 0h4.3v10.16q0 4.25-.18 8.48c-.2 4.08-.45 8.16-1.12 12.2a31 31 0 0 1-2.6 8c-1.94 4.1-4.98 7.57-8.4 10.49a31 31 0 0 1-10.55 6C4.51 56.1 2.28 56.67 0 57v-8.52c2.74-.42 5.37-1.4 7.82-2.69a28 28 0 0 0 7.71-6.06A32 32 0 0 0 21 31.17c1.62-3.57 2.48-7.43 3.07-11.29.74-4.9 1.05-9.87 1.16-14.83q.01-2.52 0-5.04zm6.02.01h7.92v56.98q-3.95-.01-7.9.01c-.03-6.06 0-12.11-.01-18.17zM40.93 0h4.27c-.05 5.8.15 11.6.84 17.35.56 4.47 1.35 8.97 3.12 13.14a32 32 0 0 0 7.25 10.79 28 28 0 0 0 10.63 6.38q1.65.55 3.38.8v8.52a35 35 0 0 1-6.63-1.63 34 34 0 0 1-7.33-3.55 35 35 0 0 1-4.63-3.71 32 32 0 0 1-6.16-7.61 34 34 0 0 1-2.9-7.1 48 48 0 0 1-1.2-7.54c-.5-5.49-.68-11-.64-16.5z" style="fill:#fff;stroke-width:.441158"/><path d="m25.23 0-.01 5.05c-.11 4.96-.42 9.92-1.16 14.83-.59 3.86-1.45 7.72-3.07 11.29a32 32 0 0 1-5.46 8.55 28 28 0 0 1-7.71 6.06A25 25 0 0 1 0 48.47v8.52q3.42-.5 6.68-1.66a31 31 0 0 0 10.55-6c3.42-2.92 6.46-6.4 8.4-10.5a31 31 0 0 0 2.6-8c.67-4.03.92-8.11 1.12-12.2.11-2.81.2-5.64.18-8.47V0zm6.02.01v38.82c.02 6.05-.01 12.11.02 18.17 2.63-.03 5.27 0 7.9-.01V0zM40.93 0v9.34q-.08 8.26.64 16.5c.26 2.53.54 5.08 1.2 7.55a33 33 0 0 0 2.9 7.09 32 32 0 0 0 6.16 7.6 35 35 0 0 0 4.63 3.72 34 34 0 0 0 7.33 3.55 35 35 0 0 0 6.63 1.63v-8.52a21 21 0 0 1-3.38-.8 28 28 0 0 1-10.63-6.38 32 32 0 0 1-7.25-10.8c-1.77-4.16-2.56-8.66-3.12-13.13A137 137 0 0 1 45.2.01h-4.28" style="fill:#fff;stroke-width:.441158"/><g style="fill:#fff" transform="matrix(.44866 0 0 .46323 6.6 -1.9)"><path d="M542.64 27.9c-2.4 3.31-6.41 2.32-6.29-1.96a.99.98-.8 0 0-1.04-1.01c-2.68.16-7.38.93-9.56-.49-1.55-1-2.76-2.83-1.85-4.73 1.74-3.65 8.08-2.77 11.38-2.69a.75.74-3.5 0 0 .76-.85q-.67-4.56 3.58-5.3.57-.1 1.04.24 2.7 1.97 2.33 5.27-.07.64.57.64l18.34-.06a1.86 1.85 90 0 0 1.85-1.86v-5.02q0-.42.33-.69c6.46-5.27 10.34 10.34 3.51 14.38q-2.15 1.27-7.43 1.34-8.26.11-16.54-.23-.58-.03-.6.56l-.03 1.43q-.02.57-.35 1.03" style="fill:#fff"/><ellipse rx="4.55" ry="4.07" style="fill:#fff" transform="rotate(-2.2 1252.15 -13712.35)"/><rect width="35.72" height="7.9" x="-17.86" y="-3.95" rx="3.86" style="fill:#fff" transform="rotate(-.1 22037.48 -316883.89)"/><path d="M566.81 70.73c5.33.2 5.41 7.23.88 7.24q-20.35.07-40.69.01c-5.31-.01-6.06-6.97-.69-7.42q3.42-.28 12.95.09.63.02.21-.44-3.64-3.98-3.89-9c-.72-14.37 18.81-15.61 27.94-11.25 8.72 4.16 10.09 13.12 3.05 20.16a.36.36 0 0 0 .24.61m-2.74-7.46a10.94 7.08 1.6 0 0-10.74-7.39 10.94 7.08 1.6 0 0-11.14 6.77 10.94 7.08 1.6 0 0 10.74 7.39 10.94 7.08 1.6 0 0 11.14-6.77m-19.2 37.27q3.23-5.05 9.43-5.91c19.87-2.76 23.3 26.04 4.49 29.31q-7.72 1.35-13.36-5.78-.34-.43-.72-.03c-7.58 7.95-19.36 4.66-21.76-5.86-1.53-6.73 2-13.98 8.66-16.02 4.12-1.27 10.62-.34 12.7 4.25q.24.53.56.04m19.51 8.59a8.01 6.81-.5 0 0-8.07-6.74 8.01 6.81-.5 0 0-7.95 6.88 8.01 6.81-.5 0 0 8.07 6.74 8.01 6.81-.5 0 0 7.95-6.88m-22.56-.05a6.19 5.63-2.2 0 0-6.4-5.39 6.19 5.63-2.2 0 0-5.98 5.87 6.19 5.63-2.2 0 0 6.4 5.39 6.19 5.63-2.2 0 0 5.98-5.87" style="fill:#fff"/></g></g></svg>