<svg xmlns="http://www.w3.org/2000/svg" viewBox="0 0 264 57"><path d="M219.09 5.6c5-6.4 15.35-7.5 21.48-2.13a16.7 16.7 0 0 1 5.17 8.16c11.35 39.08 22.76 78.13 34.1 117.22q-10.05-.02-20.1 0c-3.17-10.77-6.26-21.56-9.38-32.35l-38.87-.01q-4.75 16.17-9.42 32.37c-6.67-.03-13.33 0-20-.01q16.18-55.92 32.43-111.82c1.3-3.9 1.78-8.26 4.59-11.44m11.83 23.94c-4.75 16.19-9.41 32.4-14.14 48.6 9.42.05 18.84.02 28.25.02l-14.12-48.62Zm129.35-23.1A15.35 15.35 0 0 1 376.46.47c5.44 1.26 9.6 5.95 11.04 11.23l34.08 117.12c-6.71.06-13.42 0-20.13.03-3.12-10.78-6.21-21.58-9.35-32.36q-19.41-.02-38.81.01c-3.1 10.8-6.29 21.56-9.38 32.35h-19.97c10.78-37.48 21.69-74.92 32.56-112.38 1.15-3.4 1.6-7.12 3.79-10.04m-1.63 71.72h28.13c-4.66-16.24-9.4-32.46-14.06-48.7-4.67 16.24-9.4 32.46-14.06 48.7ZM264.84.28h72.73v19.61H310.8v108.96h-19.2V19.9q-13.38-.02-26.77 0zm178.05.8c1.84-.64 3.8-.86 5.75-.81q11.48.02 22.93 0c12.88.25 25.16 8.23 30.74 19.82 3.85 7.52 4.25 16.27 3.28 24.53-.67 8.64-4.3 17.28-10.94 23-3.5 3.13-7.88 5.03-11.63 7.81-2.07 1.57-2.17 4.62-1.1 6.8 10.14 15.67 20.69 31.08 31.05 46.61-7.58.02-15.15-.01-22.73.02-9.92-14.9-19.73-29.87-29.6-44.79a16.6 16.6 0 0 1-1.96-14.7c1.35-3.73 4.6-6.44 8.22-7.85 6.9-2.63 13.72-6.77 17.54-13.29 2.9-4.9 2.76-10.94 1.45-16.3-1.54-6.95-8.31-12.43-15.48-12.19-4.95.03-9.9-.02-14.85.02-2.24-.05-4.35 1.9-4.32 4.17-.02 34.97.01 69.95 0 104.92H431.9l-.01-112.96c.04-6.6 4.73-12.8 10.98-14.8Zm80.21-.8h20.33q.02 64.28-.01 128.57l-20.32-.01zM57.33.02 67.1 0v22.96c.04 6.4-.14 12.79-.4 19.17-.44 9.22-1.02 18.45-2.55 27.57-1.04 6.28-3.22 12.34-5.91 18.1-4.4 9.27-11.31 17.11-19.08 23.7-6.95 6.12-15.25 10.58-23.97 13.6A82 82 0 0 1 0 128.83v-19.26a57 57 0 0 0 17.77-6.07A64 64 0 0 0 35.3 89.8a73 73 0 0 0 12.4-19.35c3.68-8.07 5.64-16.78 6.98-25.51 1.68-11.1 2.38-22.32 2.64-33.54.03-3.79 0-7.59.01-11.39Zm13.7.01c6-.04 12 0 17.99-.02v128.83c-5.98.02-11.97-.02-17.95.03-.07-13.7 0-27.4-.03-41.09zM93.02.01h9.7c-.1 13.1.35 26.21 1.91 39.22 1.28 10.1 3.08 20.29 7.1 29.7 3.82 9.1 9.32 17.57 16.48 24.4a63 63 0 0 0 24.15 14.42q3.77 1.23 7.7 1.82v19.25a81 81 0 0 1-15.07-3.68 77 77 0 0 1-16.67-8.03 79 79 0 0 1-10.53-8.39c-5.45-5.02-10.33-10.74-13.99-17.2a75 75 0 0 1-6.6-16.03c-1.5-5.58-2.14-11.34-2.72-17.08a385 385 0 0 1-1.46-37.28z" style="fill:#fff" transform="scale(.44 .44232)"/><path d="M57.33.02q.02 5.7-.01 11.4c-.26 11.2-.96 22.43-2.64 33.53-1.34 8.73-3.3 17.44-6.98 25.51A73 73 0 0 1 35.3 89.8a64 64 0 0 1-17.53 13.71A56 56 0 0 1 0 109.57v19.27a82 82 0 0 0 15.19-3.74c8.72-3.01 17.02-7.47 23.97-13.58 7.77-6.6 14.68-14.44 19.08-23.71 2.7-5.76 4.87-11.82 5.91-18.1 1.53-9.11 2.11-18.35 2.54-27.57.27-6.38.45-12.77.42-19.17V0h-9.78m13.7.03.01 87.75c.02 13.7-.04 27.4.03 41.08 5.98-.05 11.97-.01 17.95-.02V.01c-6 .01-12-.02-17.99.02M93.02.01v21.11c-.08 12.44.34 24.9 1.46 37.29.58 5.73 1.23 11.5 2.73 17.08a75 75 0 0 0 6.59 16.03c3.66 6.46 8.54 12.17 13.99 17.2a78 78 0 0 0 10.53 8.38c5.19 3.38 10.83 6 16.67 8.04a81 81 0 0 0 15.07 3.68v-19.25a48 48 0 0 1-7.7-1.82 63 63 0 0 1-24.15-14.43c-7.16-6.82-12.66-15.28-16.48-24.4-4.02-9.4-5.82-19.58-7.1-29.7-1.56-13-2-26.11-1.9-39.2H93M566.68 116.1l7.55 2.3-.14-2.59c0-7.1 6.08-11.78 12.85-11.78 7.74 0 13.05 6.04 13.05 13.59 0 4.53-2.38 9.06-6.43 11.2l-3.21-3.41c3.12-1.12 5.45-4.87 5.45-8.13a8.93 8.93 0 0 0-9-8.87 8.87 8.87 0 0 0-8.72 8.77 9 9 0 0 0 3.26 6.86v.88l-18.85-5.65v-14.7h4.19v11.55h.01Zm28.35-36.27h4.18v23.72L579.5 87.48c-1.85-1.51-4.14-3.26-6.58-3.26-3.84 0-7 3.4-7 7.2a7.17 7.17 0 0 0 6.71 7.06v4.58c-6.52-.73-10.9-4.97-10.9-11.64 0-6.23 4.62-11.59 11-11.59a12.2 12.2 0 0 1 7.55 2.73l14.75 12.08zM561.7 59.77a19.17 19.17 0 0 0 19.23 19.07A19.1 19.1 0 0 0 600 59.77c0-10.82-8.4-19.3-19.15-19.3-10.73 0-19.14 8.48-19.14 19.3m19.24-14.79c8.3 0 14.8 6.6 14.8 15.03 0 7.9-6.64 14.32-14.8 14.32-8.24 0-14.95-6.42-14.95-14.32 0-8.57 6.43-15.03 14.95-15.03M561.7 19.3a19.17 19.17 0 0 0 19.23 19.07A19.1 19.1 0 0 0 600 19.31C600 8.48 591.6 0 580.87 0a19.03 19.03 0 0 0-19.16 19.3m19.24-14.78c8.3 0 14.8 6.6 14.8 15.02 0 7.9-6.64 14.33-14.8 14.33-8.24 0-14.95-6.43-14.95-14.33 0-8.57 6.43-15.02 14.95-15.02" style="fill:#fff" transform="scale(.44 .44232)"/></svg>