<svg xmlns="http://www.w3.org/2000/svg" viewBox="0 0 3840 634.1"><path d="m2929 405.1 11.4 8.9c39.8 30.8 87.7 56 138.9 56 21.9 0 56.8-8.9 56.8-36.6 0-27.6-29.2-30-49.5-34.1l-44.7-8.1C2955 375.8 2882 324.6 2882 228.8c0-145.3 132.4-226.5 265.5-226.5 69.8 0 134 17 194.1 53.6l-60.1 156.7c-38.2-26-81.2-46.3-129.1-46.3-19.5 0-47.9 7.3-47.9 32.5 0 22.7 27.6 26 44.6 30l50.4 11.4c94.2 21.1 162.4 71.5 162.4 175.4 0 146.2-133.2 218.4-265.5 218.4-77.2 0-166.5-21.1-235.5-56zM3372.3 12H3840v171.8l-122.6.3v440.2h-222.5V184.1l-122.6-.3zM281.3 1.4c16-.1 32 0 47.9 0 .1 37.6 0 75.1 0 112.7.2 31.4-.7 62.7-2 94-2.1 45.2-5 90.6-12.5 135.3-5.1 30.8-15.8 60.6-29 88.8-21.6 45.5-55.5 84-93.6 116.4-34.1 30-74.8 51.9-117.6 66.7C50.3 623.5 25.4 630 0 633.5V539c30.6-4.6 59.9-15.4 87.2-29.8 32.4-17.1 61.5-40.1 86-67.3 25.3-28 45.5-60.5 60.8-94.9 18-39.6 27.7-82.4 34.3-125.2 8.2-54.4 11.7-109.5 12.9-164.5.2-18.6.1-37.3.1-55.9m67.3 0c29.4-.2 58.8 0 88.2-.1v632.2c-29.3.1-58.7-.1-88 .1-.4-67.2-.1-134.4-.2-201.6 0-143.5.1-287 0-430.6m107.8 0h47.7c-.5 64.2 1.7 128.6 9.3 192.5 6.3 49.6 15.1 99.5 34.9 145.7 18.7 44.7 45.7 86.2 80.9 119.7 33.6 32 74.3 56.6 118.5 70.8 12.3 3.9 25 7 37.8 8.9v94.5c-25.2-3.4-49.9-9.9-74-18.1-28.6-10-56.3-22.9-81.8-39.4-18.6-12-35.5-26.2-51.7-41.2-26.7-24.7-50.7-52.7-68.7-84.4-14-24.7-24.3-51.4-32.3-78.7-7.4-27.4-10.5-55.7-13.4-83.8-5.5-60.8-7.6-121.9-7.2-183zm619 26.1C1100-4 1150.9-9.4 1181.1 17c12.3 10.4 21 24.7 25.4 40.2 55.9 192.2 112 384.3 167.7 576.5-33 0-65.9-.1-98.9 0-15.5-53-30.7-106.1-46.1-159.1-63.7-.1-127.5 0-191.2-.1-15.6 53-31 106.1-46.3 159.2-32.8-.1-65.6 0-98.4-.1q79.65-274.95 159.6-549.9c6.3-19.1 8.7-40.6 22.5-56.2m58.2 117.7c-23.4 79.6-46.3 159.4-69.5 239 46.3.2 92.6.1 138.9.1-23.1-79.6-46.2-159.4-69.4-239.1m636.2-113.6c17.2-24.9 50.4-37 79.6-29.3 26.8 6.2 47.2 29.2 54.3 55.2 55.8 192 111.8 384 167.6 576-33 .3-66 0-99 .1-15.4-53-30.5-106.1-46-159.2-63.6 0-127.2-.1-190.9.1-15.2 53.1-30.9 106-46.1 159.1h-98.2c53-184.3 106.7-368.5 160.2-552.7 5.6-16.6 7.7-34.9 18.5-49.3m-8 352.8c46.1.1 92.2 0 138.4 0-23-79.9-46.3-159.7-69.2-239.5-23 79.8-46.3 159.6-69.2 239.5M1300.4 1.3h357.7v96.5c-43.9 0-87.8-.1-131.7 0v535.8h-94.3V97.8c-43.9-.1-87.8 0-131.7 0zm875.8 4c9.1-3.1 18.7-4.2 28.3-4 37.6.1 75.2 0 112.8.1 63.3 1.2 123.7 40.5 151.1 97.4 19 37 20.9 80 16.1 120.6-3.3 42.5-21.1 85-53.8 113.2-17.2 15.4-38.7 24.7-57.2 38.4-10.1 7.7-10.7 22.7-5.4 33.5 49.9 77 101.8 152.9 152.7 229.2-37.3.1-74.5-.1-111.8.1-48.8-73.3-97-146.9-145.6-220.3-14.3-20.9-18.2-48.5-9.6-72.4 6.7-18.3 22.7-31.6 40.4-38.6 34-13 67.5-33.3 86.3-65.4 14.3-24.1 13.6-53.8 7.1-80.2-7.5-34.2-40.9-61.1-76.1-60-24.4.2-48.7-.1-73 .1-11-.3-21.4 9.3-21.2 20.5-.1 172 .1 344-.1 516.1-31.7-.1-63.3 0-95 0-.1-185.2.1-370.4-.1-555.6.2-32.3 23.3-62.9 54.1-72.7m394.4-4h100c0 210.8.1 421.6-.1 632.3-33.3-.1-66.6 0-99.9 0z" class="st7" style="fill:#fff"/></svg>