<?xml version="1.0" encoding="UTF-8" standalone="no"?><svg viewBox="0 0 542.91 106.87" version="1.1" id="svg1" xmlns="http://www.w3.org/2000/svg" xmlns:svg="http://www.w3.org/2000/svg"><text x="-58.91" y="75.79" fill="currentColor" fill-opacity=".5" stroke-width=".18" font-family="TrasksHand" font-size=".37" transform="translate(161.43 -25.38)" id="text1" style="fill:#ffffff"><tspan x="-58.91" y="75.79" id="tspan1" style="fill:#ffffff">John Loreth 2022</tspan></text><path fill="currentColor" d="m30.43 54.29-30.1-.13-.09-.76c-.13-1.04.42-7.86.85-10.67.2-1.25.42-2.8.5-3.43a89 89 0 0 1 3.2-12.95A58 58 0 0 1 9.7 15.34c2-3.53 3.48-5.52 6.11-8.26 2.86-2.95 5.7-4.87 8.97-6.06C28.47-.08 31.65-.44 35.13.7c3.92 1.3 6.2 2.76 9.68 6.22q7 6.96 11.42 20.08c1.78 5.27 3.21 12.57 3.92 19.93.3 3.15.5 6.12.46 6.6l-.08.9zm26.14 51A67 67 0 0 0 53 102.8c-2.4-1.49-4.85-2.96-5.92-3.57a253 253 0 0 0-9.13-4.56c-.05 0-.65-.25-1.33-.55-.67-.3-1.36-.58-1.53-.61s-.8-.3-1.4-.57a47 47 0 0 0-3-1.19l-3.17-1.15c-1.88-.7-7.22-2.3-12.07-3.65-1.52-.42-7-1.61-9.01-1.96C1.77 84.19.3 83.9.1 83.73c-.12-.1-.15-.61-.05-1.12l.17-.93 1.32.17c2.04.26 6.98 1.11 8.81 1.52l4.83 1.02c5.02 1.05 5.67 1.2 6.48 1.45.42.13 1.39.34 2.16.47s1.96.39 2.66.58l1.27.35.08-.88c.05-.48.03-.93-.04-1s-1.02-.24-2.11-.38C12.52 82.62.07 71.04 0 57.57l.08-1.63h60.7l-.04 2.67c-.07 4.51-1.63 8.92-4.92 13.84-1.24 1.87-5.69 6.19-7.79 7.57-3.72 2.46-9.04 4.54-12.44 4.88-2.72.26-2.62.18-2.62 2.04 0 1.57.03 1.64.7 1.78 2.04.44 11.7 3.9 15.56 5.56 4.73 2.05 5.9 2.6 10.8 5.03 5.63 2.8 7.27 3.75 7.15 4.13-.11.33-7.46 3.43-8.13 3.43-.19 0-1.3-.71-2.48-1.58m11.02-29.42 10.3.01L90.95 59.3l21.9.1-.08 16.73h10.48l1.2-60.96h-9.58zm30.55-25.55 16.07-21.81-1.1 22.22zm88.4-18.43-.08-.16q-1.68-2.95-3.59-5.33-1.9-2.47-5.4-4.94-4.3-3.1-9.08-4.38-4.78-1.36-8.92-1.36-6.05 0-11.62 2.31-5.49 2.23-9.7 6.45-4.23 4.15-6.61 9.72-2.4 5.5-2.4 11.87 0 6.13 2.32 11.79 2.38 5.57 6.52 9.87 4.22 4.3 9.71 6.77 5.58 2.4 11.7 2.4 3.59 0 7.25-.89 3.74-.87 7.24-2.7 3.58-1.91 6.77-4.94t5.49-7.17h-10.59q-3.1 3.66-7.32 5.74-4.14 2.07-8.76 2.07-4.21 0-8.2-1.76-3.97-1.75-7-4.93-3.02-3.2-4.77-7.33-1.75-4.22-1.75-8.84t1.67-8.68q1.67-4.15 4.7-7.25 3.02-3.1 7-4.86 4.06-1.75 8.51-1.75 3.27 0 5.97.87 2.7.88 4.7 2.23 2.07 1.28 3.26 2.47 1.27 1.2 2.47 2.55l.16.16zm63.19 14.4q0-6.2-2.33-11.76-2.32-5.64-6.57-9.86-4.16-4.29-9.85-6.67-5.61-2.39-12.1-2.39-6.66 0-12.35 2.47-5.69 2.46-9.86 6.75t-6.4 9.86q-2.25 5.48-2.25 11.44 0 5.97 2.32 11.53 2.33 5.56 6.5 9.86 4.24 4.29 9.93 6.75 5.7 2.39 12.1 2.39 6.42 0 12.1-2.39 5.7-2.46 9.86-6.75 4.25-4.3 6.57-9.78 2.33-5.49 2.33-11.45m-8.66.08q0 3.58-1.36 7.55-1.36 3.9-4.17 7.32-2.72 3.33-6.97 5.48-4.25 2.07-9.7 2.07t-9.7-2.07q-4.16-2.07-6.97-5.48t-4.16-7.4q-1.37-3.97-1.37-7.7 0-3.66 1.37-7.64 1.36-3.97 4.08-7.39 2.81-3.41 7.06-5.48 4.24-2.15 9.7-2.15 5.28 0 9.45 2.07 4.25 1.99 7.05 5.4 2.8 3.34 4.25 7.4 1.44 3.97 1.44 8.02m52.14 29.6-16.85-22.08q1.95 0 4.72-.73 2.85-.8 5.7-2.71 2.93-1.93 4.88-5.6 1.96-3.69 1.96-9.13 0-3.92-1.39-7.68-1.38-3.76-4.15-6.32-2.6-2.4-6.35-3.68-3.66-1.28-9.68-1.28H253.4v59.2h8.79V48.53h.16l19.86 27.45zM262.2 24.68h9.28q3.58 0 6.1.96 2.6.96 4.15 2.64 1.63 1.6 2.36 3.52.74 1.92.74 3.92 0 4-1.96 6.48-1.87 2.4-4.64 3.52-2.77 1.04-5.29 1.36-2.52.24-4.72.24h-6.02zm83.48 51.29V16.76h-8.54V61.8h-.16L308.5 16.76h-9.33v59.2h8.54V30.2h.16l28.94 45.77zm18.28-17.94h26.83l7.7 17.99h2.22l-21.98-51.6h-2.7l-21.99 51.6h2.22zm13.38-31.66 12.55 29.77h-25.03zm20.05-1.92v1.88h13.78v49.69h2.06v-49.7h13.79v-1.87zm30.93 25.78q0 5.65 2.02 10.6 2.1 4.94 5.8 8.57 3.7 3.55 8.58 5.57 4.89 1.95 10.4 1.95t10.4-1.95q4.88-2.02 8.58-5.64 3.7-3.63 5.72-8.5 2.1-4.95 2.1-10.6t-2.1-10.6q-2.02-4.94-5.72-8.5-3.7-3.62-8.58-5.57-4.89-2.02-10.4-2.02t-10.4 2.02q-4.88 1.95-8.58 5.58-3.7 3.55-5.8 8.5-2.02 4.95-2.02 10.6m2.1 0q0-5.22 1.88-9.75 1.95-4.6 5.3-7.95 3.42-3.41 7.89-5.23 4.53-1.88 9.63-1.88t9.56 1.88q4.54 1.82 7.89 5.23 3.42 3.35 5.3 7.94 1.95 4.54 1.95 9.76 0 5.23-1.95 9.83-1.88 4.53-5.3 7.94-3.35 3.35-7.89 5.23-4.47 1.81-9.56 1.81t-9.63-1.81q-4.47-1.88-7.89-5.23-3.35-3.41-5.3-7.94-1.89-4.6-1.89-9.83m61.55-25.78h-3.35v51.57h2.1V26.54h.13l24.36 49.48h1.18l24.3-49.48h.13-.07.07v49.48h2.1V24.45h-3.28l-23.8 48.22z" id="path1" style="fill:#ffffff"/></svg>