<svg xmlns="http://www.w3.org/2000/svg" viewBox="0 0 3839 537.6"><path d="m495 102.6-9.7 41c1.1 4.8 2.7 9.5 4.5 14.1.8 2 1.6 3.9 2.4 5.8l11.7-49.6h111.2L551.7 382H450.5c-.8.4-1.5.8-2.3 1.2-2.7 1.3-5.6 2.6-8.6 3.1-2.4.4-5.1.1-6.8-1.7-1-1-1.5-2.3-1.9-3.7-.3-1.2-.6-2.4-.7-3.6l-3.8 16h134.4l68.7-290.7zM127.1 0 0 537.6h134.4l66.7-282c-.7-1.5-1.4-2.9-2-4.4-1.3-2.9-2.5-5.8-3.4-8.8a74 74 0 0 1-1.5-6.4l-68.7 290.3H14.3l121.8-515h106.3c.7-1 1.5-2 2.5-2.8 1.5-1.2 3.3-1.9 5.2-2 2.5-.1 4.8.7 6.7 2.3.8.6 1.5 1.4 2.2 2.1L261.5 0zm320.3 59.1c2.5-1.9 5.8-2.8 8.9-2.5 3 .3 5.8 1.3 7.8 3.7 1.4 1.6 2.4 3.5 3.6 5.2l3.4-14.2H336.6L305 185.1c.8 1.3 1.5 2.7 2 4.1 1.9 4.9 2.6 10.2 3.6 15.4l.6 3.1 34.3-145.2H444c1-1.2 2.1-2.4 3.4-3.4m-40.9 253c-1.4-6.2-2-12.6-2.8-18.9-.2-1.3-.3-2.5-.5-3.8l-32.9 139.1c.4.9.7 1.7 1.1 2.6 1.7 4.4 3.3 8.9 4.7 13.4h2l30-126.9c-.7-1.8-1.2-3.6-1.6-5.5m-36.7 118.1-.7 3.1h-92.9c-6 4.2-13.4 7-20.5 4.4-3-1.1-5-3.4-6.8-5.9-.5-.8-1.1-1.6-1.6-2.3l-3.6 15.2H375c-1.6-5-3.3-9.8-5.2-14.5" class="st0" style="fill:#fff"/><path d="m252.8 11.3 110.6 422h-111l-110.6-422zM261.5 0H127.1l116.5 444.5H378zm200.8 62.6L546 382H435L351.3 62.6zm8.7-11.3H336.6l89.6 342h134.4zm818.1 88.5 10-37.2H987.5l3.5 37.2h100.1l-51.4 217.3c-4.3 18.3 9.6 35.9 28.4 35.9h60.2l59.9-253.2zm1523.4-37-59.8 253h-46.6l59.8-253.1h-97.1l-59.9 253.1h-46.6l59.9-253.2h-97.1l-60.2 254.6c-4.3 18.3 9.6 35.9 28.4 35.9l347.7.1 68.7-290.4zm623.2-.1-59.8 253.1H3340l-23.1-253.2H3222l24.1 263.9c1.4 15 14 26.5 29 26.5l189.1.2 68.7-290.4h-97.2Zm186.2-.1-42.4.2-60.2 254.5c-4.3 18.3 9.6 35.9 28.4 35.9h60.2l162.4-.2 8.8-37.2h-162.4l26.4-111.8h143.7l8.8-37.2H3652l15.8-67h162.4l8.8-37.1zm-2287.5.3-60.2 254.5c-4.3 18.3 9.6 35.9 28.4 35.9l224.4-.3 60.2-254.5c4.3-18.3-9.6-35.9-28.4-35.9zm37.3 252.9 51.1-216h66.9l-51.1 216zm270.6-253.2L1573.6 393h97.1l59.9-253.2h46.6l-59.9 253.3h97.1l59.9-253.3h46.6L1861 393.2h97.1l60.2-254.6c4.3-18.3-9.6-35.9-28.4-35.9zm431.2.2-60.2 254.5c-4.3 18.3 9.6 35.9 28.4 35.9h60.2l68.7-290.4zm-1333.3-.2L671.5 393h97.1l17.8-75.5h94.1l6.9 75.5h94.9l-24.1-263.9c-1.4-15-14-26.5-29.1-26.5zm55.1 177.7 33.2-140.5h35.9l12.8 140.5zm2161.3-177.7L2887.9 393h97.1l17.9-75.5h94.1l6.9 75.5h94.9l-24.1-263.9c-1.4-15-14-26.5-29.1-26.5zm55.1 177.7 33.2-140.5h35.9l12.8 140.5zm-721.9-73.5 15.8-67h164l8.8-37.2-261.3.3-24.9 105.2c-4.3 18.3 9.6 35.9 28.4 35.9h127.1l-26.4 111.8h-164l-8.9 37.2h261.3l35.5-150.3c4.3-18.3-9.6-35.9-28.4-35.9z" class="st0" style="fill:#fff"/></svg>