<svg xmlns="http://www.w3.org/2000/svg" viewBox="0 0 200 40"><path d="M44.1 18.93v-1.44q-.04-.44.43-.5c1.8-.3 3.5-.82 4.96-1.97q.31-.25.61.01a10.5 10.5 0 0 0 4.93 1.96c.27.04.46.12.46.43-.02 1.82-.04 3.64-.55 5.4a6.6 6.6 0 0 1-2.62 3.67q-1.09.75-2.23 1.4c-.16.1-.46.1-.62 0-.84-.5-1.68-1-2.46-1.6-1.76-1.3-2.52-3.16-2.74-5.27zm1.39-4.94 1.7 1.58c-1.03.42-2 .68-3 .76-.19.01-.4-.22-.66-.38l-1.24 1.27c-.36.37-.45.37-.8.02-1.04-1.06-1.03-.78 0-1.82l.8-.8-2.16-2.16c-.49-.49-.48-.5-.01-.97q.56-.55 1.11-1.12c.24-.24.44-.24.68 0l2.32 2.37 1.3-1.36c.35-.36.45-.37.8-.02 1.04 1.05 1.05.78.01 1.82zm11.86.67 1.36 1.3c.29.26.29.48 0 .74q-.33.3-.63.63-.3.32-.62 0l-1.41-1.44c-.34.64-.84.48-1.32.37-.74-.17-1.47-.37-2.3-.58L54.17 14l-1.29-1.25c-.46-.47-.46-.5-.01-.95.97-.95.74-.92 1.67-.01.28.28.54.57.9.95l1-1.09q.66-.64 1.3-1.3.34-.36.68.01.6.64 1.24 1.23c.29.27.25.48-.02.75q-1 .97-1.99 1.98zM45.85 26.3l-2.28 2.38a1 1 0 0 1-.3.16q-1.2.46-2.4.87c-.15.05-.4.05-.49-.04s-.07-.34-.01-.49l.92-2.2c.05-.1.1-.24.19-.32l2.76-2.73zm7.89 0 1.6-2.37c.63.63 1.26 1.3 1.95 1.9a4.6 4.6 0 0 1 1.37 2.01c.17.5.41.96.6 1.46.04.1.02.3-.05.37a.4.4 0 0 1-.37.1l-2.64-.97-.2-.14z" style="fill:#ddd"/><path d="M69.19 29.38h-6l7.89-18.75h8.82l1.32 18.74h-6.03l-.12-2.96h-4.71Zm5.13-13-2.1 5.26h2.4v-5.25Zm21.78 7.63-.48 5.04q-1.92.78-4.86.77-3.78 0-5.42-1.46-1.63-1.48-1.63-4.53 0-1.29.42-3.81.9-5.16 3.1-7.5t6.98-2.34q1.1 0 2.53.22t2.09.55l-1.68 4.6a14 14 0 0 0-3.32-.43q-1.54 0-2.2.3t-.81 1.2l-1.38 7.86q1.08.25 2.22.25 2.43 0 4.44-.73m17.13-8.59h-4.14l-2.43 13.96h-5.7l2.43-13.95h-4.11l.87-4.8h13.95Zm-.27 13.96 3.3-18.75h5.7l-3.3 18.74Zm16.7-12.48-1.37 7.8h2.37q1.17 0 1.74-.29t.75-1.3l1.38-7.8h-2.4q-1.14 0-1.71.28t-.75 1.3m3.46-6.72q3.81 0 5.43 1.48 1.62 1.49 1.62 4.57 0 3.1-.98 6.47-.97 3.37-3.09 5.25-2.1 1.88-6.18 1.88-4.06 0-5.68-1.49t-1.62-4.57q0-1.47.42-3.89t1.1-4.17a10 10 0 0 1 1.87-3.05q2.25-2.48 7.1-2.48m18.45 19.2-3.06-6.66a1 1 0 0 1-.12-.59q0-.38.06-.86h-.24l-1.41 8.1h-5.7l3.3-18.74h5.37l3.06 6.65q.09.21.09.59t-.06.86h.24l1.44-8.1h5.7l-3.3 18.74Z" style="white-space:pre;fill:#fff"/></svg>