<svg xmlns="http://www.w3.org/2000/svg" viewBox="0 0 200 40"><path d="m65.2 29.2 3.3-18.75h7.98q3.87 0 5.5 1.37 1.64 1.35 1.64 4.42 0 1.56-.36 3.6-.9 5.04-3.08 7.2-2.17 2.16-7 2.16Zm10.5-13.95h-2.37l-1.6 9.15h2.38q1.17 0 1.74-.28.57-.3.75-1.3l1.05-5.98q.03-.18.03-.48 0-.69-.48-.9a4 4 0 0 0-1.5-.2m21.48 6.87h-5.7l-.4 2.28h7l-.84 4.8h-12.7l3.3-18.75h12.55l-1.56 4.8h-6.15l-.42 2.52h5.7Zm8.67 7.08H99.9l4.38-18.75h7.44l.54 9.54h.2l3.9-9.54h7.45L121.6 29.2h-5.97l1.26-9.09h-.21l-3.75 9.1h-4.35l-.63-9.1h-.15Zm26.4-12.48-1.38 7.8h2.37q1.17 0 1.74-.28.57-.3.75-1.3l1.38-7.8h-2.4q-1.14 0-1.71.28t-.75 1.3M135.7 10q3.81 0 5.43 1.49 1.62 1.48 1.62 4.57t-.98 6.47-3.09 5.25q-2.1 1.87-6.18 1.87-4.05 0-5.68-1.48-1.62-1.5-1.62-4.58 0-1.47.42-3.88t1.1-4.17a10 10 0 0 1 1.87-3.05q2.25-2.49 7.1-2.49m7.44 18.87 1.68-4.95q2.52.7 4.62.7t3.38-.19l.25-1.5-2.5-.24q-2.85-.26-4.03-1.29a3.6 3.6 0 0 1-1.19-2.88q0-.81.19-1.8.69-3.84 2.5-5.28 1.82-1.44 5.63-1.44t6.72.75l-1.56 4.8q-2.62-.45-4.2-.45-1.6 0-2.7.15l-.25 1.47 2.01.21q3.07.32 4.35 1.46a3.8 3.8 0 0 1 1.3 3.01q0 1.92-.84 3.96-.42 1.05-.92 1.76-.5.7-1.26 1.2t-1.4.75q-.62.26-1.58.37-1.41.21-3.46.21-3.7 0-6.75-.78" style="fill:#fff;white-space:pre"/><path d="M46.75 18.97q.16 0 .22-.15.16-.67.67-1.13.07-.06.07-.19a.2.2 0 0 0-.1-.14l-5.2-3.05 3.32-1.94a.4.4 0 0 0 .23-.37q-.01-.25-.23-.37l-1-.58a.4.4 0 0 0-.42 0l-4.47 2.6a.5.5 0 0 0-.22.36v5.14q0 .25.22.37l1 .57a.4.4 0 0 0 .22.06q.16 0 .3-.11.11-.14.12-.32v-3.8l5.18 3.03zm6.77 6.46-.23.06-3.32 1.92v-5.99c0-.13-.13-.26-.28-.2q-.64.19-1.3.02a.22.22 0 0 0-.27.2v5.95l-3.33-1.92a.4.4 0 0 0-.22-.05.44.44 0 0 0-.43.42V27q.01.25.23.38l4.47 2.56a.4.4 0 0 0 .22.06l.22-.06 4.48-2.57a.4.4 0 0 0 .22-.37v-1.16c-.04-.2-.24-.4-.46-.4m-1.67-13.38a1.03 1.03 0 1 0 0-2.05 1.03 1.03 0 0 0 0 2.05m2.84-.45a1.03 1.03 0 1 0 0 2.06 1.03 1.03 0 0 0 0-2.06m2.82 3.74a1.03 1.03 0 1 0 0-2.05 1.03 1.03 0 0 0 0 2.05m-2.82-.41a1.03 1.03 0 1 0 0 2.05 1.03 1.03 0 0 0 0-2.05m-2.84 3.72a1.03 1.03 0 1 0 0-2.06 1.03 1.03 0 0 0 0 2.05m-2.77 1.62a1.03 1.03 0 1 0 0-2.06 1.03 1.03 0 0 0 0 2.06m8.43-3.68a1.03 1.03 0 1 0 0 2.05 1.03 1.03 0 0 0 0-2.05m0 3.23a1.03 1.03 0 1 0 0 2.05 1.03 1.03 0 0 0 0-2.05" style="fill:#ccc"/></svg>