<svg xmlns="http://www.w3.org/2000/svg" viewBox="0 0 200 40"><path d="M74.47 29.11h-6l7.9-18.75h8.81l1.32 18.75h-6.03l-.11-2.97h-4.72Zm5.14-12.99-2.1 5.25h2.4v-5.25Zm8.88 13 3.3-18.76h7.97q3.87 0 5.51 1.37 1.64 1.36 1.64 4.42 0 1.56-.36 3.6-.9 5.04-3.08 7.2-2.17 2.16-7 2.16Zm10.5-13.96h-2.37l-1.6 9.15h2.38q1.16 0 1.73-.28.58-.3.76-1.3l1.05-5.98q.03-.18.03-.48 0-.69-.48-.9a4 4 0 0 0-1.5-.2m17.43-4.8-2.5 14.07h2.05q1.05 0 1.5-.28.44-.3.63-1.3l2.22-12.49h5.7l-1.86 10.53q-.45 2.55-1.04 4.11a8 8 0 0 1-1.64 2.64 5.6 5.6 0 0 1-2.59 1.5q-1.54.42-3.92.42-3.62 0-5.08-1.1-1.45-1.09-1.45-3.76 0-1.47.42-3.8l1.86-10.54Zm21.02 18.75h-11.4l3.3-18.75h5.7l-2.45 13.95h5.7Zm15.22-13.95h-4.15l-2.42 13.95h-5.7l2.43-13.95h-4.11l.86-4.8h13.96Z" style="white-space:pre;fill:#fff"/><path d="m57.5 23.43-1.33 1.26a.7.7 0 0 1-.63.31h-1.56v1.56c0 .52-.42.94-.94.94h-1.56v1.56c0 .52-.42.94-.94.94H47.4a.94.94 0 0 1-.93-.94v-3.12q0-.4.27-.67l6.3-6.3A6.9 6.9 0 0 1 59.6 10a6.87 6.87 0 1 1-2.1 13.43m3.66-6.55a1.56 1.56 0 1 0 0-3.13 1.56 1.56 0 0 0 0 3.13" style="fill:#ddd"/></svg>