<svg xmlns="http://www.w3.org/2000/svg" viewBox="0 0 200 40"><path d="M19.19 21.92h-1.8c.03-.25.09-.45.05-.63q-.1-.48-.27-.94c-.05-.14-.2-.29-.16-.4q.11-.28.34-.5c.12-.11.3-.16.46-.24-.66-.25-.7-.3-.88-1.09-.1.22-.17.44-.31.6-.14.14-.35.21-.54.32.37.17.64.44.71.88q-.03.03-.06.03c-.66-.2-1.13-.07-1.52.42-.44.55-.52 1.37-.12 1.93.2.26.15.45.02.67q-.56.92-1.16 1.86c-.54-.3-1.06-.42-1.6-.23q-.81.3-1.1 1.19a5.4 5.4 0 0 1-2.6-2.7q.64-.7.6-1.65a3 3 0 0 0-.57-1.67c-.57-.75-1.28-1.18-2.27-.86a.4.4 0 0 1-.25-.04l-.74-.4.41-1.06a15 15 0 0 1 3.2-4.83 10 10 0 0 1 1.6-1.2c.82-.52 1.68-.47 2.53-.01a8 8 0 0 1 2.3 1.97c1.86 2.22 3 4.78 3.56 7.6zM11.9 19.1a3.38 3.38 0 1 0-.04-6.75 3.38 3.38 0 0 0 .04 6.75" style="fill:#ccc"/><path d="M8.14 28.91a8 8 0 0 1-2.98-2.81q-.75-1.22-.7-2.68c.06-1.43.29-2.81.72-4.23l.52.28c-.56 1.14-.36 2.15.33 3.12q.1.17.08.35c-.1.57-.37.99-1.11 1.06.72.33 1.05.85 1.23 1.53.17-.7.48-1.25 1.24-1.46q-1.05-.1-1.19-1.18c.51.4 1.04.64 1.67.54q.53 1.1 1.37 1.94.73.73 1.66 1.14.26.09.38.36.41.89 1.38.99c.22.02.36.1.5.26q.6.73 1.57 1.16-1.72.74-3.54.59a2 2 0 0 0-1.3-1.53q-1.05-.4-1.83.57M6.8 26.53c.89.03 1.12.71 1.4 1.36.13-.95.13-.95.97-1.41-.74-.14-1.06-.66-1.25-1.33q-.14 1.04-1.12 1.38m12.42-3.85a5 5 0 0 1-1 4q-.9 1.2-2.15 1.97a.7.7 0 0 1-.48.09 3 3 0 0 1-1.8-1.15q.15-.08.26-.18.74-.73.44-1.7c-.07-.24-.01-.38.12-.57l1.29-2.03q.1-.15.29-.22c.1-.05.25-.02.33-.1.33-.28.67-.15 1.04-.12.55.05 1.1.01 1.66.01m-1.5 1.6c-.53.33-1.05.52-1.62.04.37.7.1 1.29-.3 1.93.88-.46.88-.46 1.8-.16-.43-.85-.43-.85.11-1.81m1.72-11.8c-.93.05-.85.9-1.12 1.4-.1-.33-.16-.69-.32-1-.18-.35-.56-.4-.91-.43.3-.2.65-.37.9-.63.24-.26.39-.61.6-.98.07.69.19 1.3.86 1.64M4.82 17.87c-.56-.3-1.1-.57-1.75-.3.49-.68.08-1.16-.3-1.67.6.42 1.2.87 1.92.17-.34.65-.23 1.22.13 1.8m1.51-7.98c.07.56.31.99.8 1.27-.24.13-.5.2-.67.37s-.26.42-.38.63c-.02-.25 0-.51-.06-.75-.06-.3-.33-.39-.6-.46.2-.14.43-.25.58-.42.15-.18.22-.42.33-.64m14.75 6.81c-.63-.67-.74-.71-1.44-.4.4-.5.21-.95.02-1.43.45.37.93.48 1.58.33-.5.52-.4 1-.16 1.5M4.13 12.62c-.27.31-.71.49-.58 1.02-.44-.28-.44-.28-1.18-.17.29-.38.46-.78.41-1.3.38.4.83.49 1.35.45m5.15 3.07 1.66-.83q.29-.13.38-.42l.56-1.4c.2.5.39.9.54 1.33.09.27.24.41.48.53.54.24 1.06.52 1.67.83-.58.15-1.07.3-1.57.39-.33.06-.5.2-.58.53q-.21.83-.57 1.66c-.14-.48-.34-.95-.44-1.44-.1-.5-.34-.74-.84-.8-.43-.07-.85-.21-1.27-.31z" style="fill:#ccc"/><path d="m35.57 24.3-.48 5.03q-1.92.78-4.86.78-3.78 0-5.41-1.47-1.65-1.47-1.64-4.53 0-1.3.42-3.8.9-5.17 3.1-7.5 2.22-2.35 6.98-2.35 1.11 0 2.54.23 1.42.22 2.08.55l-1.68 4.6a14 14 0 0 0-3.31-.43q-1.55 0-2.2.3-.67.3-.82 1.2l-1.38 7.86q1.08.24 2.22.24 2.43 0 4.44-.72m9.57-7.12-1.38 7.8h2.37q1.17 0 1.74-.28.57-.3.75-1.3L50 15.6h-2.4q-1.14 0-1.7.28-.58.28-.76 1.3m3.45-6.72q3.81 0 5.43 1.49 1.62 1.48 1.62 4.57T54.67 23t-3.1 5.25q-2.1 1.87-6.17 1.87-4.06 0-5.69-1.48-1.62-1.5-1.62-4.58 0-1.47.42-3.88T39.62 16a10 10 0 0 1 1.86-3.05q2.25-2.49 7.11-2.49m13.38 19.2h-5.94l4.38-18.75h7.44l.54 9.54h.21l3.9-9.54h7.44l-2.22 18.75h-5.97l1.26-9.09h-.2l-3.76 9.1H64.7l-.63-9.1h-.15Zm29.13-4.53h-3.72l-.78 4.53h-5.7l3.3-18.75h9q5.1 0 5.1 4.74a12.3 12.3 0 0 1-2.02 6.95 6.2 6.2 0 0 1-5.18 2.53m-2.07-9.42-.8 4.62h1.31q1.02 0 1.55-.22.52-.23.67-1.04.4-2.22.4-2.43 0-.57-.46-.75-.45-.18-1.35-.18Zm8.82 13.95 3.3-18.75h5.7l-3.3 18.75Zm20.64 0h-11.4l3.3-18.75h5.7l-2.46 13.95h5.7Zm4.14 0h-6l7.9-18.75h8.81l1.32 18.75h-6.03l-.12-2.97h-4.7Zm5.13-12.99-2.1 5.25h2.4v-5.25Zm22.86-.96h-4.14l-2.43 13.95h-5.7l2.43-13.95h-4.1l.86-4.8h13.95Zm-.27 13.95 3.3-18.75h5.7l-3.3 18.75Zm16.71-12.48-1.38 7.8h2.37q1.17 0 1.74-.28.57-.3.75-1.3l1.38-7.8h-2.4q-1.14 0-1.7.28-.58.28-.76 1.3m3.45-6.72q3.81 0 5.43 1.49 1.62 1.48 1.62 4.57T176.6 23t-3.1 5.25q-2.1 1.87-6.17 1.87-4.06 0-5.69-1.48-1.62-1.5-1.62-4.58 0-1.47.42-3.88t1.11-4.17a10 10 0 0 1 1.86-3.05q2.25-2.49 7.11-2.49m18.45 19.2L185.9 23a1 1 0 0 1-.12-.58q0-.38.06-.86h-.24l-1.4 8.1h-5.7l3.3-18.75h5.36l3.06 6.66q.1.21.1.59 0 .37-.07.85h.24l1.44-8.1h5.7l-3.3 18.75Z" style="fill:#fff;white-space:pre"/></svg>