<svg xmlns="http://www.w3.org/2000/svg" viewBox="0 0 200 40"><path d="M1790 2655c-19-22-8-150 17-206l21-46 406-101c394-98 497-130 543-174 49-46 48-52-36-518-43-239-77-436-76-438 2-2 68 39 149 89l146 92v41c0 23-9 263-20 533-15 381-23 499-34 521-16 31-90 103-125 121-12 7-219 30-459 51s-456 41-479 44c-29 4-45 1-53-9" style="fill:#ccc" transform="matrix(.00867 0 0 .00862 7.64 7.1)"/><path d="M936 2431c-4-6-206-739-276-1000l-11-43-42 6c-23 4-43 9-45 10-2 2 49 197 112 433 64 236 116 436 116 445 0 34-149 84-281 95-69 5-78 4-87-13-30-57-345-958-353-1009-10-68-12-239-3-272 4-14 44-47 107-88l100-65 89 1c127 2 130-1 216-203 11-25 31-53 44-61 12-8 76-29 140-47l117-33 79 23c79 23 80 23 118 4 33-16 46-33 81-103 23-46 46-88 51-93 15-15 314-80 339-73 13 3 53 33 91 67 81 74 119 98 153 98 23 0 65-24 145-83 40-30 319-76 352-58 26 14 99 124 147 221 35 71 42 108 160 765 122 684 123 690 103 707-59 52-417 120-466 90-7-5-63-235-128-533-64-288-117-525-119-527-5-6-85 19-85 26 0 4 47 244 105 532 58 289 104 534 103 545-4 24-81 57-218 91-128 32-320 57-351 46-23-9-31-40-149-543l-126-534-34 3c-19 1-39 7-44 12-6 6 35 209 108 537 134 604 133 537 5 578-138 43-348 70-363 46" style="fill:#ccc" transform="matrix(.00867 0 0 .00862 7.64 7.1)"/><path d="m36.68 29.43 3.3-18.75h9.24q2.16 0 3.14.75.97.75.97 2.3a6.5 6.5 0 0 1-1 3.76 4.2 4.2 0 0 1-2.45 1.83l-.03.18q2.7.51 2.7 3.57a7 7 0 0 1-1.47 4.53 5 5 0 0 1-4.14 1.83Zm9.24-7.47h-2.25l-.54 3.06h2.22q.75 0 1.14-.6.4-.6.4-1.53t-.97-.93m.84-7.17h-1.8l-.5 2.79h1.76q1.38 0 1.38-1.95 0-.84-.84-.84m19.9 7.56h-5.7l-.4 2.28h7l-.85 4.8H54.02l3.3-18.75h12.54l-1.56 4.8h-6.15L61.73 18h5.7Zm7.52 7.08h-6l7.9-18.75h8.81l1.32 18.75h-6.03l-.12-2.97h-4.7Zm5.13-13-2.1 5.26h2.4v-5.25Zm22.86-.95h-4.14L95.6 29.43h-5.7l2.43-13.95h-4.1l.86-4.8h13.95Zm8.04-4.92-.33 1.92-2.85 7.95h-2.85V13.5q0-1.08.3-2.76.12-.81 1.2-.81h3.6q.93 0 .93.63m12.42 11.79h-5.7l-.39 2.28h6.99l-.84 4.8H110l3.3-18.75h12.54l-1.56 4.8h-6.15l-.42 2.52h5.7Zm8.67 7.08h-5.94l4.38-18.75h7.44l.54 9.54h.2l3.9-9.54h7.45l-2.22 18.75h-5.97l1.26-9.1h-.21l-3.75 9.1h-4.35l-.63-9.1h-.15Zm33.5-18.75-2.48 14.07h2.04q1.05 0 1.5-.29t.63-1.3l2.22-12.48h5.7l-1.86 10.53q-.45 2.55-1.04 4.1a8 8 0 0 1-1.63 2.65 5.6 5.6 0 0 1-2.6 1.5q-1.54.42-3.91.42-3.63 0-5.09-1.1-1.45-1.1-1.45-3.76 0-1.47.42-3.81l1.86-10.53Zm19.84 14.22h-3.72l-.78 4.53h-5.7l3.3-18.75h9q5.1 0 5.1 4.74a12.3 12.3 0 0 1-2.03 6.94 6.2 6.2 0 0 1-5.17 2.54m-2.07-9.42-.81 4.62h1.32q1.02 0 1.54-.23.53-.23.68-1.03.39-2.23.39-2.43 0-.57-.45-.75t-1.35-.18Z" style="white-space:pre;fill:#fff"/></svg>