<svg xmlns="http://www.w3.org/2000/svg" viewBox="0 0 200 40"><path d="M56.29 23.16H52.6l-.77 4.51h-5.65L49.45 9h8.92q5.06 0 5.06 4.72 0 2.24-.62 4.04-.63 1.82-1.38 2.88-.77 1.05-2.1 1.8-1.32.72-3.04.72m-.74-9.38h-1.31l-.8 4.6h1.3a4 4 0 0 0 1.53-.22q.52-.23.67-1.03.4-2.21.4-2.42 0-.57-.46-.75a4 4 0 0 0-1.33-.18m13.09 13.9h-5.66L66.25 9h5.66zm19.21 0h-5.32l-3.04-6.64a1 1 0 0 1-.12-.59q0-.36.06-.84h-.24l-1.4 8.06h-5.65L75.42 9h5.32l3.04 6.63q.08.21.08.59 0 .37-.05.85h.23L85.47 9h5.65zm13.95 0H91.63L94.9 9h9.16q2.14 0 3.1.75.98.75.98 2.3 0 2.27-1 3.73a4 4 0 0 1-2.42 1.82l-.03.18q2.67.51 2.67 3.56a7 7 0 0 1-1.45 4.51 5 5 0 0 1-4.1 1.82m-1.01-7.45h-2.23l-.54 3.05h2.2q.75 0 1.14-.6t.38-1.52-.95-.93m.83-7.14h-1.78l-.5 2.78h1.75q1.36 0 1.36-1.94 0-.84-.83-.84m12.58 11.63-1.16 2.95h-5.94L114.92 9h8.74l1.31 18.67H119l-.11-2.96zm4.23-9.98h-.3l-2.08 5.23h2.38zm20.64 8.15-.83 4.78h-11.3L130.2 9h5.65l-2.44 13.9zm12.67 0-.83 4.78h-11.3L142.88 9h5.65l-2.44 13.9z" style="white-space:pre;fill:#fff"/><path d="M52.63 30.98a11 11 0 0 1-1.56-.41 275 275 0 0 1-10.45-3.19 7 7 0 0 1-1.9-.8 4.15 4.15 0 0 1 4.1-7.19c.4.2 1.07.64 2.37 1.57a303 303 0 0 1 8.45 6.38q1.05.84 1.23 1.73a1.5 1.5 0 0 1-.24 1.13c-.1.13-.34.38-.46.46q-.38.26-.86.32a3 3 0 0 1-.68 0m-11.28-6.41q.72-.2 1.02-.89a1.5 1.5 0 0 0-1.46-2.07 1.5 1.5 0 0 0-1.4 1.44 1.5 1.5 0 0 0 1.27 1.55zm76.29-3.59a4.6 4.6 0 0 1-2.82-7.73q.52-.55 1.18-.88a4.5 4.5 0 0 1 5.28.84 4.55 4.55 0 0 1-3.64 7.77m-1.99-2.84c-.05-.14-.1-.37-.13-.54a3.38 3.38 0 0 1 3.71-3.73 4 4 0 0 1 .66.16s-.17-.14-.28-.2a3 3 0 0 0-1.9-.4 3.05 3.05 0 0 0-2.17 4.64l.14.19z" style="fill:#ccc"/><path d="M160.87 18.98c-.22.03-.36.06-1.56.4a276 276 0 0 0-10.45 3.2c-1.2.4-1.5.53-1.9.8a4.2 4.2 0 0 0-1.82 2.8c-.03.2-.03.22-.03.66a3.8 3.8 0 0 0 .88 2.58 4.2 4.2 0 0 0 3.7 1.56q.73-.1 1.37-.41c.4-.2 1.07-.64 2.37-1.57 1.78-1.29 5.07-3.76 7.54-5.68l.46-.35.44-.35q1.07-.83 1.24-1.73a1.5 1.5 0 0 0-.24-1.13 2 2 0 0 0-.46-.46 2 2 0 0 0-.86-.32 4 4 0 0 0-.68 0m-11.28 6.41a1.5 1.5 0 0 1 .67 2.54c-.3.28-.73.44-1.11.41a1.5 1.5 0 1 1 .44-2.95" style="fill:#ccc" transform="matrix(-1 0 0 -1 308.24 49.96)"/></svg>