<svg xmlns="http://www.w3.org/2000/svg" viewBox="0 0 200 40"><path d="M50.86 14.52h-3.82l-.8 4.62H40.4L43.78 0h9.24q5.24 0 5.24 4.84 0 2.3-.65 4.14-.64 1.87-1.43 2.95a6.5 6.5 0 0 1-5.32 2.58M50.1 4.9h-1.35l-.83 4.72h1.35q1.05 0 1.58-.23.55-.23.7-1.06.4-2.27.4-2.48 0-.58-.46-.77-.45-.18-1.39-.18M61 0h5.86L64.3 14.36h2.09q1.08 0 1.54-.28.45-.3.65-1.34L70.86 0h5.85l-1.9 10.75q-.47 2.6-1.08 4.2a8 8 0 0 1-1.67 2.69 6 6 0 0 1-2.67 1.53q-1.59.43-4.02.43-3.72 0-5.22-1.12t-1.5-3.84q0-1.5.44-3.9zm30.6 14.24-.86 4.9H74.95l.68-3.83 9.28-10.23-.07-.18h-6.13l.34-4.9H94l-.67 3.83-9.21 10.23.03.18zm16.88 0-.86 4.9H91.84l.67-3.83 9.28-10.23-.06-.18H95.6l.34-4.9h14.94l-.68 3.83-9.21 10.23.03.18zm28.93-6.77-.8 4.44h-5.85l-.4 2.33h7.18l-.87 4.9h-13.03L127.02 0h12.88l-1.6 4.9h-6.32l-.43 2.57z" style="white-space:pre;fill:#fff"/><path d="M116.58 13.52h5.78v5.77h-5.78z" style="fill:#ccc" transform="rotate(5.1 119.47 16.4)"/><path d="M110.87 6.65h5.77v5.77h-5.78z" style="fill:#ccc" transform="rotate(5.1 113.75 9.54)"/><path d="M110.29 13.04h5.77v5.77h-5.78z" style="fill:#ccc" transform="rotate(5.1 113.17 15.92)"/><path d="M111.44.27h5.78v5.77h-5.78z" style="fill:#ccc" transform="rotate(5.1 114.33 3.15)"/><path d="m77.02 33.98.15-.81h-1.44l.81-4.59h6.87L81.64 38.6a21 21 0 0 1-7.35 1.35q-3.69 0-5.32-1.47-1.65-1.47-1.64-4.53 0-1.29.42-3.81.9-5.22 3.18-7.53t7.56-2.31q1.11 0 2.84.24t2.53.54l-1.65 4.59q-2.25-.42-4.12-.42a9 9 0 0 0-2.69.3q-.81.3-.96 1.2l-1.47 8.49h1.9q1.01 0 1.5-.23.5-.22.65-1.03m11.64 5.52h-6l7.9-18.75h8.81l1.32 18.75h-6.03l-.12-2.97h-4.7Zm5.13-12.99-2.1 5.25h2.4v-5.25Zm14.28 12.99h-5.94l4.38-18.75h7.44l.54 9.54h.21l3.9-9.54h7.44l-2.22 18.75h-5.97l1.26-9.09h-.2l-3.76 9.09h-4.35l-.63-9.09h-.15Zm31.56-7.08h-5.7l-.39 2.28h7l-.85 4.8H127l3.3-18.75h12.54l-1.56 4.8h-6.15l-.42 2.52h5.7Zm2.73 6.75 1.68-4.95q2.52.69 4.62.69t3.4-.18l.23-1.5-2.49-.24q-2.85-.27-4.03-1.29a3.6 3.6 0 0 1-1.19-2.88q0-.81.18-1.8.7-3.84 2.5-5.28 1.83-1.44 5.63-1.44 3.81 0 6.72.75l-1.56 4.8q-2.61-.45-4.2-.45t-2.7.15l-.24 1.47 2.01.21q3.07.33 4.35 1.45a3.8 3.8 0 0 1 1.3 3.02q0 1.92-.85 3.96-.42 1.05-.91 1.76-.5.69-1.26 1.2-.77.5-1.4.75-.63.24-1.59.37-1.41.21-3.45.21-3.72 0-6.75-.78" style="white-space:pre;fill:#fff"/></svg>