<svg xmlns="http://www.w3.org/2000/svg" viewBox="0 0 200 40"><path d="M29.7 21.66c-.72.07-1.34.15-1.95.17-.18 0-.36-.17-.55-.26.15-.12.3-.31.46-.33.89-.12 1.78-.18 2.66-.28q.65-.09.54.56-.14 1.3-.32 2.6c-.03.17-.24.32-.37.48-.08-.2-.23-.39-.22-.57.02-.54.1-1.08.18-1.74l-.4.31a15 15 0 0 1-9.33 4.18c-1.68.15-3.4-.03-5.1-.08-.19 0-.36-.21-.54-.32q.2-.23.44-.4.46-.31.97-.52c.2-.07.44-.02.66-.03l-.31.53q-.08.09-.24.18c3.8 1.06 10.94-1.3 13.42-4.48m-6.09-7.84c-.59.48-1.07.9-1.58 1.27-.14.1-.39.07-.59.1.07-.19.08-.45.21-.56q1.02-.87 2.05-1.71.46-.41.71.15c.4.82.84 1.62 1.23 2.44.06.14-.04.36-.07.54-.16-.09-.38-.14-.47-.28-.3-.5-.54-1.02-.86-1.64-.07.29-.08.48-.17.63-.06.11-.22.17-.33.26-.09-.13-.24-.26-.25-.4-.01-.21.06-.44.12-.8m9.37 5.34c-.38.4-.61.7-.9.93-.1.1-.32.05-.49.07.03-.17 0-.4.1-.5.23-.27.53-.5 1-.93-.39-.29-.72-.5-.99-.75-.1-.1-.08-.33-.12-.5.19.02.42-.02.54.08.28.23.5.53.87.92.28-.34.5-.64.76-.89.13-.1.36-.1.55-.14-.05.2-.03.45-.14.58-.23.25-.53.44-.9.73.42.38.73.62.97.91.1.1.05.33.07.5-.17-.03-.4 0-.5-.1-.28-.25-.52-.56-.82-.91m-17.22 1.9c-.36.4-.6.7-.89.97-.1.08-.3.03-.45.04 0-.16-.05-.37.03-.46.27-.3.59-.55.98-.91-.35-.3-.65-.5-.87-.77-.1-.13-.09-.38-.13-.58.19.04.42.04.54.14.26.23.47.51.8.89.32-.37.56-.68.84-.93.11-.1.33-.07.5-.1-.02.18.01.41-.09.54-.23.27-.53.49-.97.88.35.27.65.43.87.67.13.15.27.5.2.6-.28.32-.47-.02-.64-.2-.24-.2-.43-.45-.72-.78m8.69-10.2c.39.32.7.54.97.82.1.1.06.33.1.5-.18-.02-.4.02-.5-.08-.3-.25-.52-.57-.88-.99-.34.41-.55.72-.81.96-.12.1-.36.07-.54.1.03-.17 0-.4.1-.5.24-.28.54-.5.9-.83-.35-.32-.66-.56-.9-.85-.1-.12-.04-.36-.06-.54.16.04.38.02.49.12.27.24.5.52.86.91.3-.34.5-.64.77-.88.12-.1.35-.1.53-.13-.03.18 0 .41-.1.54-.22.27-.52.5-.93.85M10.7 28.03c.36.3.66.49.88.74.12.13.1.39.14.58-.2-.05-.44-.06-.58-.17-.25-.21-.44-.49-.75-.85-.33.37-.56.68-.85.92-.11.1-.35.06-.53.08.03-.17.01-.4.11-.5.25-.27.54-.5.9-.8-.36-.34-.65-.58-.9-.87-.1-.12-.08-.33-.11-.5.18.02.42-.02.54.08.28.23.5.53.87.93.3-.36.52-.68.8-.94.1-.1.33-.07.5-.1-.02.18.02.4-.07.5-.23.28-.53.5-.95.9m7.7-12.17c.69 0 1.27.54 1.29 1.23a1.3 1.3 0 0 1-1.27 1.33 1.3 1.3 0 0 1-1.29-1.3c0-.7.57-1.26 1.26-1.26m.75 1.4v-.27c-.24-.17-.46-.44-.72-.48-.4-.07-.67.22-.66.63 0 .4.27.7.67.6.25-.04.47-.3.7-.48m-8.88 6.04c-.01-.7.53-1.28 1.23-1.3a1.3 1.3 0 0 1 1.34 1.25c.01.7-.6 1.3-1.3 1.3a1.3 1.3 0 0 1-1.27-1.26m1.3.89c.3-.42.56-.65.6-.91.05-.39-.23-.66-.65-.65-.41.02-.68.3-.6.7.06.25.34.46.65.86" style="fill:#ccc"/><path d="M24.78 20.26c.7.01 1.24.58 1.24 1.27a1.28 1.28 0 1 1-2.56 0c0-.7.6-1.29 1.32-1.27m.01.37c-.31.39-.61.59-.67.85-.08.38.18.67.6.69s.7-.25.66-.64c-.04-.26-.31-.49-.59-.9m2.75 7.54c0 .71-.58 1.29-1.3 1.28a1.3 1.3 0 0 1-1.26-1.27c0-.7.56-1.27 1.25-1.28.73-.02 1.3.54 1.31 1.27m-.52.1V28c-.28-.16-.53-.42-.8-.45-.38-.05-.6.26-.59.64.02.41.3.67.69.6.25-.06.47-.34.7-.52m2.29-10.31a1.3 1.3 0 0 1-1.28 1.3 1.28 1.28 0 0 1 .03-2.56c.67 0 1.24.57 1.25 1.26m-1.06-.66c-.59.06-.85.25-.86.68 0 .4.24.61.62.63s.68-.21.65-.58c-.03-.28-.29-.53-.41-.73m-7.12 4.33c-.08.14-.12.27-.21.37q-1.23 1.32-2.5 2.6c-.11.11-.39.08-.59.11.06-.19.07-.43.2-.56q1.18-1.29 2.4-2.53.2-.18.47-.23c.05-.02.15.14.23.24m.54-.99c-.06-.35-.17-.55-.12-.69q.71-1.74 1.48-3.46c.06-.13.29-.19.43-.27.05.16.18.36.13.48q-.7 1.73-1.44 3.42c-.06.14-.22.24-.48.52" style="fill:#ccc"/><path d="M52.85 30.1h-6.27l-1.38-5.58h-1.23l-.96 5.58h-5.7l3.3-18.75h9q5.13 0 5.13 4.6 0 1.88-.57 3.6-1.05 3.23-3.3 4.31Zm-7.4-13.95-.67 3.75h1.32q1.02 0 1.55-.22t.72-1.3q.2-1.05.2-1.3 0-.6-.47-.76a5 5 0 0 0-1.52-.17Zm22.46 6.87h-5.7l-.39 2.28h6.99l-.84 4.8H55.28l3.3-18.75h12.54l-1.56 4.8h-6.15l-.42 2.52h5.7Zm15.03.12h-4.86l-1.2 6.96h-5.7l3.3-18.75h11.7l-1.6 4.8h-5.27l-.42 2.52h4.86Zm13.74 6.96h-11.4l3.3-18.75h5.7L91.82 25.3h5.7Zm14-7.08h-5.7l-.38 2.28h6.99l-.84 4.8h-12.7l3.3-18.75h12.55l-1.56 4.8h-6.15l-.42 2.52h5.7Zm16.18 1.71-.48 5.04q-1.92.78-4.86.78-3.78 0-5.42-1.47-1.63-1.47-1.63-4.53 0-1.3.42-3.8.9-5.17 3.1-7.5 2.2-2.35 6.98-2.35 1.1 0 2.53.23 1.43.22 2.09.55l-1.68 4.6a14 14 0 0 0-3.32-.43q-1.54 0-2.2.3t-.81 1.2l-1.38 7.86q1.08.24 2.22.24 2.43 0 4.44-.72m17.13-8.58h-4.14l-2.43 13.95h-5.7l2.43-13.95h-4.11l.87-4.8h13.95Zm-.28 13.95 3.3-18.75h5.7l-3.3 18.75Zm16.71-12.48-1.38 7.8h2.37q1.17 0 1.74-.28.57-.3.75-1.3l1.38-7.8h-2.4q-1.14 0-1.7.28-.58.28-.76 1.3m3.45-6.72q3.81 0 5.43 1.49 1.62 1.48 1.62 4.57t-.97 6.47-3.1 5.25q-2.1 1.87-6.17 1.87-4.06 0-5.69-1.48-1.62-1.5-1.62-4.58 0-1.47.42-3.88t1.11-4.17a10 10 0 0 1 1.86-3.05q2.25-2.49 7.11-2.49m18.45 19.2-3.06-6.66a1 1 0 0 1-.12-.58q0-.38.06-.86h-.24l-1.4 8.1h-5.7l3.3-18.75h5.36l3.06 6.66q.1.21.1.59 0 .37-.07.85h.24l1.44-8.1h5.7l-3.3 18.75Z" style="fill:#fff;white-space:pre"/></svg>