<svg xmlns="http://www.w3.org/2000/svg" viewBox="0 0 200 40"><path d="m63.37 18.25-.82 4.46h-4.9l-1.22 6.94h-5.76L54 10.95h11.82l-1.6 4.79h-5.34l-.42 2.5zm7.06 11.4h-5.76L68 10.95h5.76zm13.88-5.5.15-.81h-1.45l.81-4.58h6.95l-1.8 10q-3.69 1.34-7.42 1.34t-5.38-1.47-1.65-4.52q0-1.28.42-3.8.91-5.2 3.22-7.5 2.3-2.31 7.64-2.31 1.12 0 2.85.24 1.75.24 2.57.54l-1.67 4.58a23 23 0 0 0-4.17-.42q-1.89 0-2.7.3-.83.3-.98 1.2l-1.48 8.46h1.9q1.04 0 1.53-.22.51-.23.66-1.04m23.3 5.5h-5.75l1.15-6.61h-4.34l-1.15 6.6h-5.75l3.33-18.7h5.76l-1.19 6.62h4.34l1.18-6.61h5.76zm19.92-18.7-.88 4.79h-4.19l-2.45 13.9h-5.76l2.46-13.9h-4.15l.87-4.8zm4.6 18.7h-5.76l3.34-18.7h5.76zm19.58 0h-5.43L143.2 23a1 1 0 0 1-.12-.6q0-.36.06-.84h-.24l-1.42 8.08h-5.76l3.33-18.7h5.43l3.09 6.64q.09.21.09.59 0 .37-.06.85h.24l1.46-8.08h5.75zm14.15-5.5.15-.81h-1.45l.82-4.58h6.94l-1.79 10q-3.7 1.34-7.43 1.34t-5.38-1.47-1.65-4.52q0-1.28.43-3.8.9-5.2 3.21-7.5 2.3-2.31 7.64-2.31 1.12 0 2.86.24 1.75.24 2.56.54l-1.66 4.58q-2.28-.43-4.18-.42-1.89 0-2.7.3t-.97 1.2l-1.49 8.46h1.91q1.03 0 1.53-.22.5-.23.65-1.04" style="white-space:pre;fill:#fff"/><path d="M516 1238c-79-54-173-149-226-228-50-74-55-58 65-205 65-80 86-114 104-170 28-87 75-171 108-192 13-9 41-17 61-18 32-2 37-6 43-33 26-128 153-172 295-102 78 38 212 164 257 241 79 135 48 261-102 414-63 64-130 101-248 136-28 8-84 46-158 106-63 51-120 93-127 92-7 0-40-19-72-41m40-83c4-8-1-30-10-49s-16-39-16-45c0-17 51-13 71 5 34 31 76-11 45-45-9-10-16-29-16-43 0-22 3-25 27-20 15 3 34 11 41 19 19 19 54-2 50-30-2-18-10-22-38-23-99-2-103-6-102-90 1-47-8-59-38-49-20 6-29 50-11 57 5 2 12 17 15 34 7 30 6 31-21 26-15-2-35-11-44-19-32-28-73 15-44 47 8 9 15 29 15 43 0 32-19 35-60 11-32-20-60-13-60 14 0 29 19 40 59 35 53-7 78 9 83 52 2 19 1 41-3 47-5 7-3 18 3 25 14 18 47 16 54-2" style="fill:#ccc" transform="matrix(.01606 0 0 .01565 26.88 9.89)"/><path d="M543 1013c-13-2-23-12-23-21s-3-27-6-40c-6-22-5-23 32-16 22 3 40 7 41 8 0 0 4 18 8 39 8 40 5 41-52 30m-408-47C0 900 8 919 44 751c31-143 32-145 19-250-16-126-11-172 30-271C167 47 242-7 404 2c151 9 312 82 376 170 35 47 37 58 13 58-46 0-123 70-144 130-7 19-18 30-30 30-23 0-102-39-174-85l-50-32 4 44c2 31-2 50-13 62-16 17-15 19 16 25 35 7 88 51 88 73 0 8-11 35-24 61s-31 70-40 98c-14 45-21 52-54 62-34 11-39 10-59-13-13-15-23-34-23-44 0-41-52-52-67-15-4 11 6 27 33 49 46 39 40 52-26 57-38 3-46 7-48 25-2 16 4 26 20 34 26 11 53 47 43 57-3 3-27 9-53 12-42 4-47 8-47 30 0 30 35 40 55 15 12-15 40-21 40-8 0 3-7 14-15 23-14 16-14 21 6 54 28 47 16 46-96-8" style="fill:#ccc" transform="matrix(.01606 0 0 .01565 26.88 9.89)"/><path d="M265 804c-19-30-12-41 31-50 42-8 54 20 23 53-28 29-33 29-54-3" style="fill:#ccc" transform="matrix(.01606 0 0 .01565 26.88 9.89)"/></svg>