<svg xmlns="http://www.w3.org/2000/svg" viewBox="0 0 200 40"><path d="M37.59 24.99h-3.73l-.78 4.51h-5.71l3.3-18.7h9.02q5.12 0 5.12 4.73 0 2.25-.64 4.05a12 12 0 0 1-1.39 2.88q-.77 1.05-2.11 1.8-1.34.72-3.08.72m-.75-9.4h-1.32l-.82 4.6h1.33q1.03 0 1.54-.21.53-.23.68-1.04.4-2.22.4-2.42 0-.57-.46-.75-.45-.18-1.35-.18m20.02 9.13-.84 4.78H44.6l3.3-18.7h5.72l-2.47 13.92zm4.48 1.82-1.17 2.96h-6.01l7.9-18.7h8.84l1.33 18.7h-6.05l-.12-2.96zm4.27-10h-.3l-2.1 5.24h2.4zM89.1 10.8l-.87 4.79h-4.15L81.64 29.5h-5.72l2.44-13.91h-4.12l.87-4.79zm11.7 7.3-.81 4.46H95.1l-1.2 6.94h-5.72l3.3-18.7h11.73l-1.59 4.79h-5.3l-.41 2.51zm9.02-1.05-1.39 7.79h2.38q1.17 0 1.74-.28.57-.3.76-1.31l1.38-7.78h-2.4q-1.15 0-1.72.28-.57.3-.75 1.3m3.45-6.7q3.82 0 5.45 1.49 1.62 1.47 1.62 4.56 0 3.07-.98 6.45a10.7 10.7 0 0 1-3.1 5.23q-2.1 1.87-6.2 1.87-4.05 0-5.68-1.47-1.63-1.5-1.63-4.57 0-1.47.42-3.87.42-2.42 1.12-4.16a10 10 0 0 1 1.86-3.04q2.25-2.49 7.13-2.49m21.6 12.93 1.98 6.22h-6.29l-1.38-5.56h-1.23l-.97 5.56h-5.7l3.3-18.7h9.02q5.14 0 5.14 4.58 0 1.88-.57 3.6-1.05 3.22-3.3 4.3m-4.3-7.69h-1.15l-.66 3.74h1.32q1.02 0 1.55-.22t.72-1.29q.2-1.05.2-1.3 0-.6-.46-.77-.48-.16-1.53-.16m16.08 4.85-1.96 9.06h-5.95l4.4-18.7h7.45l.54 9.52h.2l3.92-9.52h7.45l-2.22 18.7h-5.98l1.26-9.06h-.21l-3.76 9.06h-4.36l-.63-9.06zm30.46-2.34-.79 4.34h-5.7l-.4 2.28h7l-.84 4.78h-12.72l3.31-18.7h12.57l-1.56 4.79h-6.17l-.42 2.51zm16.08 5.18 1.98 6.22h-6.28l-1.38-5.56h-1.24l-.96 5.56h-5.71l3.3-18.7h9.03q5.13 0 5.14 4.58 0 1.88-.57 3.6-1.05 3.22-3.31 4.3m-4.3-7.69h-1.14l-.66 3.74h1.32q1.03 0 1.54-.22.54-.22.72-1.29.2-1.05.2-1.3 0-.6-.46-.77-.47-.16-1.52-.16" style="white-space:pre;fill:#fff"/><path fill="currentColor" d="M0 1120V0h2240v2240H0zm300 920v-100H100v200h200zm1840 0v-100h-200v200h200zm-780-285v-155h-320v310h320zm0-485v-160h320V480h-170V320H710v160H560v480h320V480h480v480h-170v150h-150v320h320zM300 200V100H100v200h200zm1840 0V100h-200v200h200z" style="fill:#ccc" transform="matrix(.00897 0 0 .00893 2.94 10)"/></svg>