<svg xmlns="http://www.w3.org/2000/svg" viewBox="0 0 200 40"><path d="M24.93 11.24h1c4.38 0 8.78.06 13.17-.02A3.7 3.7 0 0 1 42.92 15q-.13 10.76 0 21.5a3.6 3.6 0 0 1-3.46 3.5c-4.98-.03-9.95 0-14.93-.01A3.44 3.44 0 0 1 21 36.42q-.02-3.33-.01-6.67v-.97h-2.65c-.3 0-.63.09-.86-.03-.3-.16-.7-.45-.75-.74-.1-.48.29-.76.79-.77h2.62l.86-.03v-.9l-.01-11.28c0-1.54.61-2.68 1.98-3.44a1 1 0 0 0 .39-.65q.04-3.69 0-7.38c0-1.16-.8-1.96-1.95-1.97q-7.46-.02-14.92 0c-1.09 0-1.83.74-1.96 1.81l-.01.32v21.35c0 1.39.78 2.14 2.18 2.17h3.5c.53 0 .98.15 1 .76 0 .6-.43.8-.97.79l-3.81-.01c-2.04 0-3.43-1.89-3.41-3.53Q3.12 14.4 3 3.58C2.98 1.98 4.24.04 6.39.03q7.53-.06 15.07 0c2.01.01 3.44 1.56 3.45 3.6q.03 3.33.01 6.66zm-2.38 14.39v10.55q-.01 2.27 2.21 2.25H39.2q2.19-.01 2.2-2.21v-21.2q0-2.22-2.27-2.22H24.85c-1.6 0-2.3.71-2.3 2.34z" style="fill:#ddd"/><path d="M14.74 8.99a7.6 7.6 0 0 1 3.7 1.58q.78.6.69 1.6c-.09.75-.14 1.52-.24 2.28-.15 1.2-1.08 1.78-2.22 1.42-.6-.19-1.2-.35-1.94-.56v6.29c0 .56-.16 1.05-.79 1.05-.64 0-.79-.48-.78-1.05l-.01-6.03c0-.03-.02-.05-.1-.21-.54.14-1.11.26-1.67.44-1.35.45-2.22-.07-2.4-1.49-.1-.68-.14-1.37-.23-2.05-.1-.76.15-1.4.8-1.76 1.12-.63 2.28-1.16 3.61-1.81V7.17c-.01-.54.15-.99.75-1 .66-.01.82.46.82 1.02zm-4.18 5.37 2.55-.63v-3.16q-.59.14-1.06.29c-1.62.58-1.77.83-1.59 2.5zm6.75 0q.13-1.07.22-2.08c.02-.18-.04-.45-.16-.55a5 5 0 0 0-2.6-1.12v3.1zm-3.43 12.55c.4.5.8.78.79 1.04 0 .28-.37.7-.66.78-.46.14-.86-.2-.8-.7.03-.3.34-.6.67-1.12m17.27-7.34v-1.82h-2.22c-.57 0-1.04-.18-1.02-.82.02-.6.47-.77 1-.75h2.21c.09-.6.02-1.37.87-1.34.76.02.76.67.77 1.34h2.22c.57 0 1.05.14 1.05.8 0 .64-.5.79-1.06.77H32.8v1.83h4.73c.59 0 .96.26.96.9v6.57c0 .7-.42.9-1.03.9H32.9q.59 1.79 2.26 2.21c.25.07.57 0 .77.14.29.2.66.48.7.78.08.5-.35.82-.81.72-.82-.16-1.61-.44-2.4-.7-.22-.07-.4-.24-.68-.43v4.04c0 1.1-.44 1.37-1.45.94q-.6-.24-1.16-.5c-.46-.2-.8-.49-.6-1.03.2-.58.66-.6 1.16-.42l.43.13v-2.85c-.82.26-1.67.58-2.54.81-.57.15-1.13.01-1.2-.67-.06-.65.43-.8 1-.86 1.35-.15 2.26-.88 2.76-2.3h-4.33c-1.2 0-1.37-.16-1.37-1.36v-5.87c0-.88.25-1.12 1.14-1.13q2.22-.05 4.56-.03m-4.1 1.6v5.16h4.06v-1.78q-.7.02-1.32 0c-.5-.03-.9-.27-.86-.82.01-.5.37-.74.85-.74h1.34v-1.82zm5.72 1.82h1.41c.52 0 .92.19.93.74.02.6-.4.82-.94.82h-1.38v1.78h4.07v-5.14h-4.09z" style="fill:#ddd"/><path d="M54.63 21.2h-6l7.89-18.75h8.82l1.32 18.75h-6.03l-.12-2.97H55.8Zm5.13-12.99-2.1 5.25h2.4V8.21Zm8.34 12.66 1.68-4.95q2.52.69 4.62.69t3.39-.18l.24-1.5-2.49-.24q-2.85-.27-4.04-1.29a3.6 3.6 0 0 1-1.18-2.88q0-.81.18-1.8.7-3.84 2.5-5.28Q74.83 2 78.63 2q3.81 0 6.72.75l-1.56 4.8q-2.61-.45-4.2-.45t-2.7.15l-.24 1.47 2.01.21q3.06.32 4.35 1.46a3.8 3.8 0 0 1 1.29 3.01q0 1.92-.84 3.96-.42 1.05-.91 1.75-.5.72-1.27 1.2-.75.5-1.39.76-.63.24-1.59.37-1.41.21-3.45.21-3.72 0-6.75-.78m17.55.33 3.3-18.75h5.7l-3.3 18.75Zm13.5 0h-6l7.89-18.75h8.82l1.32 18.75h-6.03l-.12-2.97h-4.71Zm5.13-12.99-2.1 5.25h2.4V8.21Zm22.86-.96H123l-2.43 13.95h-5.7l2.43-13.95h-4.11l.87-4.8H128Zm-.27 13.95 3.3-18.75h5.7l-3.3 18.75ZM149 15.83l-.48 5.04q-1.92.78-4.86.78-3.78 0-5.42-1.47-1.63-1.47-1.63-4.53 0-1.29.42-3.81.9-5.16 3.1-7.5T147.12 2q1.1 0 2.53.23 1.43.22 2.09.55l-1.68 4.59a14 14 0 0 0-3.32-.42q-1.54 0-2.2.3t-.81 1.2l-1.38 7.86q1.08.24 2.22.24 2.43 0 4.44-.72M45.72 38.22l2.62-14.88h7.33q1.71 0 2.49.59.77.6.77 1.83 0 1.81-.8 2.98a3.3 3.3 0 0 1-1.93 1.45l-.03.14q2.14.41 2.14 2.84 0 2.15-1.16 3.6a4 4 0 0 1-3.29 1.45Zm7.33-5.93h-1.78l-.43 2.43h1.76q.6 0 .9-.48t.31-1.21q0-.75-.76-.74m.67-5.7h-1.43l-.4 2.22h1.4q1.1 0 1.1-1.55 0-.66-.67-.66m11.69 1.72-1.1 6.2h1.89q.92 0 1.38-.23t.6-1.04l1.09-6.2h-1.9q-.91 0-1.36.24t-.6 1.03m2.74-5.33q3.02 0 4.3 1.18 1.3 1.18 1.3 3.63t-.78 5.13a8.6 8.6 0 0 1-2.45 4.16q-1.69 1.5-4.9 1.5-3.23 0-4.52-1.18-1.29-1.19-1.29-3.64 0-1.16.34-3.08.33-1.92.88-3.3a8 8 0 0 1 1.48-2.43q1.78-1.97 5.64-1.97m9.71 15.24H73.1l6.26-14.88h7l1.05 14.88h-4.79l-.1-2.36H78.8Zm4.07-10.31-1.66 4.16h1.9v-4.16Zm19.38 10.3h-4.97l-1.1-4.42h-.97l-.77 4.43h-4.52l2.62-14.88h7.14q4.08-.01 4.07 3.64 0 1.5-.45 2.86-.83 2.56-2.62 3.42Zm-5.88-11.07-.52 2.98h1.05q.81 0 1.22-.18.42-.18.57-1.02.16-.85.16-1.04 0-.47-.37-.6a4 4 0 0 0-1.2-.14Zm7.81 11.08 2.62-14.88h6.33q3.07 0 4.37 1.08 1.3 1.09 1.3 3.51 0 1.24-.28 2.86-.73 4-2.44 5.71-1.73 1.72-5.56 1.72Zm8.34-11.07h-1.89l-1.26 7.26h1.88q.93 0 1.38-.23t.6-1.03l.83-4.74q.03-.15.03-.38 0-.55-.38-.72a3 3 0 0 0-1.2-.16m19.88 6.69.11-.65h-1.14l.64-3.64h5.46l-1.4 7.95a17 17 0 0 1-5.84 1.07q-2.92 0-4.23-1.16-1.3-1.17-1.3-3.6 0-1.02.34-3.02.72-4.14 2.52-5.98 1.8-1.83 6-1.83a17 17 0 0 1 4.26.62l-1.3 3.64q-1.8-.33-3.28-.33-1.5 0-2.13.23-.64.24-.76.96l-1.17 6.74h1.5q.81 0 1.2-.18.4-.18.52-.82m9.23 4.38h-4.76l6.26-14.88h7l1.05 14.88h-4.78l-.1-2.36h-3.74Zm4.07-10.31-1.66 4.16h1.9v-4.16Zm11.34 10.3h-4.72l3.48-14.87h5.9l.43 7.57h.17l3.1-7.57h5.9l-1.76 14.88h-4.74l1-7.22h-.17l-2.97 7.22h-3.46l-.5-7.22h-.11Zm25.05-5.61h-4.53l-.3 1.8h5.54l-.67 3.82h-10.07l2.62-14.88h9.95l-1.24 3.8h-4.88l-.33 2h4.52Zm2.16 5.35 1.34-3.92q2 .54 3.66.54t2.7-.14l.18-1.19-1.97-.2q-2.27-.2-3.2-1.01a2.9 2.9 0 0 1-.95-2.29q0-.64.15-1.43.54-3.05 1.98-4.19 1.45-1.14 4.47-1.14t5.33.6l-1.24 3.8q-2.07-.35-3.33-.35t-2.14.11l-.2 1.17 1.6.17q2.43.26 3.46 1.15 1.02.9 1.02 2.4 0 1.52-.67 3.14a7 7 0 0 1-.72 1.4q-.4.55-1 .94-.6.4-1.11.6-.5.2-1.26.3-1.12.15-2.74.16-2.95 0-5.36-.62" style="white-space:pre;fill:#fff"/></svg>