<svg xmlns="http://www.w3.org/2000/svg" viewBox="0 0 200 40"><path d="M71.63 24.85H67.9l-.78 4.52h-5.7l3.3-18.74h9q5.1 0 5.1 4.73a12.3 12.3 0 0 1-2.03 6.95 6.2 6.2 0 0 1-5.17 2.54m-2.07-9.43-.81 4.63h1.32q1.03 0 1.54-.23.53-.23.68-1.04.39-2.21.39-2.43 0-.57-.45-.75t-1.35-.17ZM90 29.39H78.6l3.3-18.75h5.7l-2.45 13.94h5.7Zm4.14 0h-6l7.9-18.75h8.81l1.32 18.74h-6.03l-.12-2.96h-4.7Zm5.13-13-2.1 5.26h2.4V16.4Zm14.5-5.75.38 6.6h.21l2.76-6.6h6.3l-7.56 13.64-.87 5.1h-5.7l.87-5.1-2.7-13.64Zm20.1 11.67h-5.7l-.4 2.27h7l-.85 4.8h-12.69l3.3-18.74h12.54l-1.56 4.8h-6.15l-.42 2.52h5.7Zm18.8 7.07h-6.27l-1.38-5.57h-1.23l-.96 5.57h-5.7l3.3-18.74h9q5.13 0 5.13 4.58 0 1.9-.57 3.6-1.05 3.25-3.3 4.33Zm-7.4-13.94-.67 3.75h1.32q1.02 0 1.55-.23.52-.22.72-1.29.2-1.06.2-1.3 0-.6-.47-.77a5 5 0 0 0-1.52-.16Zm9.29 13.62 1.68-4.96q2.52.7 4.62.7t3.39-.18l.24-1.5-2.5-.25q-2.85-.27-4.03-1.28a3.6 3.6 0 0 1-1.18-2.88q0-.81.18-1.8.7-3.84 2.5-5.28 1.82-1.44 5.63-1.44t6.72.75l-1.56 4.8q-2.61-.46-4.2-.46t-2.7.16l-.24 1.47 2 .2q3.07.33 4.36 1.46a3.8 3.8 0 0 1 1.29 3.02q0 1.92-.84 3.96-.42 1.05-.92 1.75t-1.26 1.2-1.4.75q-.62.26-1.58.38-1.42.2-3.45.2-3.72 0-6.75-.77" style="white-space:pre;fill:#fff"/><path d="M36.75 20a5 5 0 1 0 0-10 5 5 0 0 0 0 10m3.43 1.43h-.37q-1.4.7-3.06.71-1.65-.02-3.06-.71h-.37a5.14 5.14 0 0 0-5.14 5.14v1.29c0 1.18.96 2.14 2.14 2.14h12.86c1.18 0 2.14-.96 2.14-2.14v-1.29c0-2.84-2.3-5.14-5.14-5.14M49.61 20a4.29 4.29 0 1 0 0-8.57 4.29 4.29 0 0 0 0 8.57m2.14 1.43h-.17a6 6 0 0 1-1.97.36 6 6 0 0 1-1.97-.36h-.17c-.91 0-1.75.26-2.49.69a6.5 6.5 0 0 1 1.77 4.45v1.72l-.02.28h7.88c1.18 0 2.14-.96 2.14-2.14a5 5 0 0 0-5-5" style="fill:#fff"/></svg>