<svg xmlns="http://www.w3.org/2000/svg" viewBox="0 0 200 40"><path d="M131.49 35v-3.28l-.71-.04H91.44c-.56 0-.8.11-.76.72q.07.97 0 1.93c-.02.5.13.7.67.69q1.97-.04 3.92-.02c1 .01 1.64.56 1.67 1.43.02.86-.7 1.52-1.65 1.53h-5.85c-1 0-1.64-.59-1.66-1.59q-.04-3.02 0-6.04c.01-1.08.58-1.57 1.71-1.57h42.99c1.5 0 1.9.4 1.9 1.88v5.65q0 1.67-1.66 1.67l-30.7.02c-.91.01-1.76-.73-1.73-1.51.02-.92.64-1.45 1.75-1.45h28.57c.27-.02.53-.02.88-.02m-14.76-22.65A10.3 10.3 0 0 1 127 2.02a10.33 10.33 0 0 1 10.38 10.23 10.37 10.37 0 0 1-10.32 10.4 10.34 10.34 0 0 1-10.32-10.3m10.33-6.42a6.36 6.36 0 0 0-6.4 6.36 6.4 6.4 0 0 0 6.42 6.45 6.45 6.45 0 0 0 6.38-6.41 6.4 6.4 0 0 0-6.4-6.4" style="fill:#ccc"/><path d="m26.56 24.89 3.3-18.75h9.24q2.15 0 3.13.75t.98 2.31a6.5 6.5 0 0 1-1.01 3.75 4.2 4.2 0 0 1-2.45 1.83l-.02.18q2.7.51 2.7 3.57a7 7 0 0 1-1.48 4.53 5 5 0 0 1-4.14 1.83Zm9.24-7.47h-2.25L33 20.48h2.22q.75 0 1.14-.6t.39-1.53-.96-.93m.84-7.17h-1.8l-.52 2.79h1.77q1.38 0 1.38-1.95 0-.84-.84-.84m22.8 14.64h-6.27l-1.39-5.58h-1.23l-.95 5.58h-5.7l3.3-18.75h9q5.12 0 5.13 4.59 0 1.89-.57 3.6-1.05 3.24-3.3 4.32Zm-7.41-13.95-.66 3.75h1.32q1.02 0 1.54-.22.53-.24.72-1.3.2-1.05.2-1.3 0-.6-.47-.76a5 5 0 0 0-1.52-.17Zm22.46 6.87h-5.7l-.39 2.28h7l-.85 4.8H61.86l3.3-18.75H77.7l-1.56 4.8H70l-.42 2.52h5.7ZM82 24.89h-6l7.9-18.75h8.81l1.32 18.75H88l-.12-2.97h-4.7Zm5.13-12.99-2.1 5.25h2.4V11.9Zm16.2 5.4.03-.57h-.24l-1.4 8.16h-5.7l3.3-18.75h5.7l-1.36 7.65h.24q.24-.96.54-1.44l3.78-6.21h6.15l-5.88 9.21 2.73 9.54h-6.15l-1.65-6.72a3 3 0 0 1-.09-.87m44.59-11.14-2.5 14.07h2.05q1.05 0 1.5-.28.44-.3.63-1.3l2.22-12.49h5.7l-1.87 10.53q-.45 2.55-1.03 4.11a8 8 0 0 1-1.63 2.64 5.6 5.6 0 0 1-2.6 1.5q-1.54.42-3.91.42-3.63 0-5.09-1.1-1.45-1.09-1.45-3.76 0-1.47.41-3.8l1.87-10.54Zm24.66 4.8h-4.15L166 24.91h-5.7l2.44-13.95h-4.12l.88-4.8h13.94Z" style="white-space:pre;fill:#fff"/></svg>