<svg xmlns="http://www.w3.org/2000/svg" viewBox="0 0 200 40"><path d="m4.5 29.65.31-1.9.09-.53 3.44-3.56 3.45-3.56-1.6-1.66-1.6-1.65-.36.36-.35.36-.36.12-1.16.41-.99.34 1.4-1.46 1.43-1.46-.48-.5a8 8 0 0 0-.62-.62q0-.02-.02-.02l-.01-.01q0-.02-.02-.02l-.01-.01q0-.02-.02-.02l-.01-.01q0-.02-.02-.02l-.01-.01q0-.02-.02-.02l-.01-.01q0-.02-.02-.02l-.01-.02-.02-.01-.01-.02-.02-.01-.01-.02-.02-.01-.01-.02-.02-.02H6.8q0-.03-.02-.02L6.77 14q0-.02-.02-.01l-.01-.02q0-.02-.02-.02l-.01-.01q0-.02-.02-.02l-.01-.01q0-.02-.02-.02l-.01-.01q0-.03-.02-.02l-.01-.01q0-.02-.02-.02l-.01-.02-.02-.01-.01-.02-.02-.01-.01-.02-.02-.01-.01-.02-.02-.01-.01-.02q0-.02-.02-.01l-.01-.02q0-.02-.02-.02l-.01-.01q0-.02-.02-.02l-.01-.01q0-.02-.02-.02l-.01-.01q0-.02-.02-.02l-.01-.01q0-.02-.02-.02l-.01-.01q0-.02-.02-.02l-.01-.02-.02-.01-.01-.02-.02-.01-.01-.02-.02-.01-.01-.02-.02-.01q-.02 0-.01-.01l-.39-.43-.4-.41h-.1c-.17 0-.43-.09-.57-.19q-.08-.06-.04 0 .03.04 0 0-.03 0-.02-.03-.02-.04-.05-.04l-.04-.02-.02-.03-.01-.03-.04-.03-.05-.03q-.03-.03-.01-.03h.01q0-.03-.02-.02l-.04-.03-.14-.28.03.06c.05.1.13.24.14.23L4.37 12a1 1 0 0 1-.17-.37 1 1 0 0 1-.02-.32c0-.17.01-.22.04-.32q.09-.26.27-.45l.07-.09q-.04.03 0-.02.08-.07.03-.02v.03q.04 0 .04-.06l.04-.03.04-.02-.04.03q-.08.06.07-.02c.16-.1.3-.14.52-.15.16 0 .21 0 .31.03q.2.06.34.16.08.04.05 0l.02.02q0 .05.05.05l.04.02.03.04-.04-.03-.04-.04.04.05q.03.04.05.03v.01l.02.02.05.04q.06.06 0 .01-.02-.03-.03-.01c0 .02.05.07.06.05l.03.02q.03.04 0 .01-.06-.03 0 .04c.1.15.18.42.18.6v.1l1.42 1.46 1.43 1.47 1.41-1.46 1.42-1.45-.28.83-.58 1.76q-.01.04-.07.09-.06.06-.05.07l-.02.01-.01.02-.02.01-.01.02-.02.01-.01.02-.02.01-.01.02-.02.01-.01.02q0 .02-.02.02l-.01.01q0 .02-.02.02l-.01.01q0 .02-.02.02l-.01.01q0 .02-.02.02l-.01.01q0 .02-.02.02l-.01.01q0 .02-.02.02l-.01.02-.02.01-.01.02-.02.01-.01.02-.02.01-.01.02-.02.01-.01.02-.02.01-.01.02q0 .02-.02.02l-.01.01q0 .02-.01.01l-.03.02c-.01.01.36.4 1.58 1.67l1.6 1.65 1.6-1.65 1.6-1.68q-.02 0-.01.01l-1.59 1.66-1.59 1.64-1.6-1.65-1.59-1.65 1.6 1.64 1.6 1.64 1.58-1.63 1.58-1.64-.35-.36-.33-.35h.02l-.1-.3-.38-1.16-.33-1q-.04-.15-.03-.17l.02.01v.02l1.41 1.44 1.4 1.44-1.4-1.44-1.4-1.44 1.4 1.45 1.4 1.45 1.41-1.46 1.42-1.47v-.1c0-.17.09-.45.18-.58q.05-.08.01-.06 0-.02.02-.02c0 .02.06-.03.06-.05l-.03.01q-.03.02.01-.03.1-.1.04-.02l.03-.02q.09-.09.03-.04l.02-.03.05-.06-.02.04q-.03.02-.01.03c.02 0 .06-.06.05-.07l.02-.03q.04-.03 0 .01-.03.04.05 0 .14-.1.34-.16c.1-.03.15-.03.31-.03.22.01.36.05.52.15q.14.09.09.02-.03-.03 0 0t.02.03c-.01 0 .02.05.04.05v-.03q-.01-.02.02 0 .07.08.01.04l.08.09q.17.2.26.45c.03.1.04.15.04.32s0 .22-.02.32a2 2 0 0 1-.18.4c.01.02.09-.11.14-.22l.04-.06c0 .03-.11.25-.15.28l-.04.03-.02.01q0 .03.01.01.02 0-.01.03-.03.04-.05.04l-.04.02-.01.03-.02.03q-.02.03-.04.02l-.05.04q0 .02-.09.09-.05.02.04-.04l.04-.04-.05.02c-.14.1-.4.19-.57.19h-.1l-1.42 1.47-1.41 1.46 1.39 1.44 1.4 1.44-1.39-1.44-1.38-1.44 1.4 1.44 1.36 1.44q0 .03.05.02v.03q-.03.06-.1 0h-.02q.1.02.1 0l-.4-.14-2.06-.72q-.13-.04-.02.02.05.02 0 .01l-.38-.37-.35-.35-1.58 1.63-1.58 1.64 3.44 3.55-3.46-3.55 1.6-1.64a64 64 0 0 1 1.61-1.64l-.02-.03-1.61 1.65-1.6 1.66 3.44 3.56 3.45 3.56.05.32.2 1.2.15.81-.01-.09.02.07c.02.12 0 .13-.09.12l-1.18-.2-1.1-.2-2.2-2.24 2.17 2.28-3.44-3.55-3.44-3.55-3.44 3.55v-.01l3.44-3.56.15.16.14.14q0-.02-.15-.16l-.15-.16-3.44 3.55-3.45 3.56-.54.1c-.3.04-.8.13-1.12.19zm.07-17.4-.03-.03q-.05-.02 0 0 .02.05.03.03m18.4-.02q.05-.04 0 0l-.02.02zm-18.51-.09-.03-.03q-.03-.02 0 .01.03.04.03.02m18.62-.02q.03-.03 0 0l-.03.02z" style="fill:#ccc"/><path d="m39.2 23.3 1.9 6.06h-6.01l-1.32-5.42h-1.18l-.92 5.42h-5.46l3.16-18.23H38q4.92 0 4.92 4.46 0 1.85-.55 3.5-1 3.15-3.16 4.2m-4.11-7.5H34l-.62 3.64h1.26a4 4 0 0 0 1.47-.21q.5-.23.7-1.26.19-1.05.19-1.27 0-.58-.44-.75-.45-.16-1.46-.16m15.49 1.42-1.32 7.6h2.27q1.12 0 1.66-.28.55-.28.72-1.28l1.33-7.58h-2.3q-1.1 0-1.64.27-.55.28-.72 1.27m3.3-6.53q3.66 0 5.2 1.45 1.56 1.44 1.56 4.44t-.94 6.3a10.5 10.5 0 0 1-2.96 5.1q-2.02 1.82-5.92 1.82t-5.44-1.44-1.55-4.45q0-1.43.4-3.78.4-2.36 1.06-4.05a10 10 0 0 1 1.78-2.97q2.16-2.42 6.81-2.42m19.37 14-.8 4.67H61.53l3.16-18.23h5.46L67.8 24.69zm13.37-6.44-.75 4.23h-5.46l-.37 2.21h6.7l-.81 4.67H73.77l3.16-18.23h12.02l-1.5 4.66h-5.89l-.4 2.46zm17.9 6.7h-3.56l-.75 4.41h-5.46l3.16-18.23h8.62q4.89 0 4.89 4.6 0 2.2-.6 3.95a11 11 0 0 1-1.34 2.82 6 6 0 0 1-4.96 2.46m-.72-9.16h-1.26l-.78 4.5h1.27a4 4 0 0 0 1.47-.22q.51-.21.65-1 .38-2.17.38-2.37 0-.55-.43-.73a4 4 0 0 0-1.3-.18m19.14 8.9-.8 4.67h-10.92l3.16-18.23h5.46l-2.36 13.56zm4.28 1.78-1.12 2.9h-5.74l7.56-18.24h8.44l1.27 18.23h-5.78l-.11-2.89zm4.09-9.74h-.3l-2 5.1h2.3zm7.55-5.6h6.04l.37 6.41h.2l2.65-6.41h6.03l-7.24 13.27-.83 4.96h-5.46l.83-4.96zm18.42 18.23h-5.46L155 11.13h5.46zm18.57 0h-5.14l-2.94-6.47a1 1 0 0 1-.11-.58q0-.36.06-.83h-.23l-1.35 7.88h-5.46l3.16-18.23h5.14l2.93 6.47q.09.2.09.58 0 .36-.06.82h.23l1.38-7.87h5.46zM189.27 24l.14-.78h-1.37l.77-4.47h6.58l-1.7 9.75a20 20 0 0 1-7.03 1.31q-3.54 0-5.1-1.43-1.57-1.43-1.57-4.4a25 25 0 0 1 .4-3.71q.87-5.08 3.05-7.33t7.24-2.24q1.06 0 2.71.23 1.66.23 2.43.53l-1.58 4.46a22 22 0 0 0-3.95-.4q-1.8 0-2.57.28-.78.3-.92 1.17l-1.4 8.26h1.8q.98 0 1.45-.21.48-.23.62-1.02" style="white-space:pre;fill:#fff"/></svg>