<svg xmlns="http://www.w3.org/2000/svg" viewBox="0 0 200 40"><path d="M77.76 39.58h-5.94l4.38-18.75h7.44l.54 9.54h.21l3.9-9.55h7.44l-2.22 18.76h-5.97l1.26-9.1h-.2l-3.76 9.1H80.5l-.63-9.1h-.15Zm27.51-18.75-2.49 14.07h2.04q1.05 0 1.5-.29t.63-1.3l2.22-12.49h5.7l-1.86 10.54q-.45 2.54-1.03 4.1a8 8 0 0 1-1.64 2.64 5.6 5.6 0 0 1-2.6 1.5q-1.54.42-3.9.42-3.64 0-5.1-1.09-1.44-1.09-1.45-3.77 0-1.46.42-3.8l1.86-10.53Zm9.1 18.42 1.67-4.95q2.52.69 4.62.69t3.4-.19l.23-1.5-2.49-.23q-2.85-.28-4.03-1.3a3.6 3.6 0 0 1-1.19-2.87q0-.81.18-1.8.7-3.86 2.5-5.28 1.83-1.45 5.63-1.45 3.81 0 6.72.75l-1.56 4.8q-2.61-.45-4.2-.45t-2.7.16l-.24 1.47 2.01.2q3.07.33 4.35 1.46a3.8 3.8 0 0 1 1.3 3.01q0 1.92-.85 3.97-.42 1.05-.91 1.75t-1.26 1.2-1.4.75-1.59.38q-1.41.2-3.45.2-3.72 0-6.75-.78m17.54.33 3.3-18.75h5.7l-3.3 18.75Zm22.14-5.37-.48 5.03q-1.92.78-4.86.78-3.78 0-5.41-1.47-1.64-1.46-1.64-4.52 0-1.3.42-3.82.9-5.16 3.1-7.5 2.22-2.33 6.98-2.34 1.11 0 2.54.23 1.42.22 2.08.55l-1.68 4.6a14 14 0 0 0-3.31-.43q-1.55 0-2.2.3-.67.3-.82 1.2l-1.38 7.87q1.08.23 2.22.23 2.43 0 4.44-.72" style="white-space:pre;fill:#fff"/><path d="m67.98 21.03-11.25 3.32c-.47.15-.78.58-.78 1.07v9.2a5 5 0 0 0-1.13-.14c-1.86 0-3.37 1-3.37 2.25 0 1.24 1.5 2.25 3.37 2.25 1.86 0 3.38-1.01 3.38-2.25V28.5l9-2.64v6.5a5 5 0 0 0-1.13-.14c-1.86 0-3.37 1-3.37 2.25 0 1.24 1.5 2.25 3.37 2.25 1.86 0 3.38-1.01 3.38-2.25V22.1c0-.76-.74-1.3-1.47-1.07" style="fill:#ccc"/><path d="m133.07 11.92.75-4.32h4.44l.84-4.65h4.08l-.84 4.64h4.47l-.75 4.32h-4.47l-.84 4.68h-4.08l.84-4.68Z" style="white-space:pre;fill:#ccc"/><path d="M43.22 19.18 46.52.43h7.98q3.87 0 5.5 1.36 1.65 1.36 1.64 4.43 0 1.56-.36 3.6-.9 5.03-3.08 7.2-2.17 2.15-7 2.16Zm10.5-13.95h-2.37l-1.6 9.15h2.38q1.17 0 1.74-.29t.75-1.3l1.05-5.97q.03-.18.03-.49 0-.68-.48-.9a4 4 0 0 0-1.5-.2m13.1 13.95h-6L68.73.43h8.82l1.32 18.75h-6.03l-.12-2.98H68Zm5.14-13-2.1 5.26h2.4V6.19Zm19.35 13-3.06-6.66a1 1 0 0 1-.12-.59q0-.38.06-.86h-.24l-1.41 8.1h-5.7L84.14.44h5.37l3.06 6.66q.09.2.09.58t-.06.86h.24l1.44-8.1h5.7l-3.3 18.75Zm22.08-5.37-.48 5.03q-1.92.79-4.86.79-3.78 0-5.42-1.47-1.63-1.48-1.63-4.53 0-1.3.42-3.82.9-5.15 3.1-7.5 2.2-2.33 6.98-2.33 1.1 0 2.53.22 1.43.23 2.09.55l-1.68 4.6a14 14 0 0 0-3.32-.42q-1.54 0-2.2.3t-.81 1.2l-1.38 7.86q1.08.24 2.22.24 2.43 0 4.44-.72m14.73-1.71h-5.7l-.4 2.28h7l-.84 4.8h-12.7l3.3-18.75h12.55l-1.56 4.8h-6.15l-.42 2.51h5.7Z" style="white-space:pre;fill:#fff"/></svg>