<svg xmlns="http://www.w3.org/2000/svg" viewBox="0 0 200 40"><path d="M60.36 25.7V10.74H40.94V30.1h8.87l.3 1.86-.55.02h-8.44c-1.43 0-2.08-.65-2.08-2.1V10.94c0-1.44.65-2.1 2.08-2.1h19.03q2.06.01 2.06 2.06.02 6.2 0 12.4c0 .3-.17.63-.37.86-.4.5-.88.93-1.48 1.55" style="fill:#ccc"/><path d="M57.23 31.18c1.13-1.25 2.21-2.53 3.39-3.71q2.33-2.34 4.8-4.56a8 8 0 0 1 1.85-1.18c.37-.18.87-.24 1.29-.2.73.1 1.02.8.61 1.42q-.33.5-.8.9a39 39 0 0 0-9.8 14.5l-.05.12c-.24.23-.47.6-.74.64-.22.03-.58-.28-.74-.52-.56-.86-1-1.81-1.6-2.62q-1.76-2.27-3.66-4.43c-.32-.38-.6-.7-.4-1.23.22-.5.63-.81 1.16-.75q1.06.12 2.07.47c.87.3 1.7.74 2.62 1.15m-8.34-10.07v-.8q.02-.88.9-1.09.46-.08.91-.2c.6-.18 1.04-.51 1.1-1.2q.08-.83-.63-1.22a1.5 1.5 0 0 0-1.7.1c-.3.22-.52.54-.78.83q-.77.84-1.67.5c-.6-.25-.96-.83-.85-1.58.06-.43.2-.88.43-1.24 1.7-2.62 6.4-2.46 7.96.25a3.96 3.96 0 0 1-2.28 5.92c-.32.1-.44.24-.47.6-.05.88-.65 1.4-1.48 1.39-.79-.02-1.35-.55-1.44-1.39-.03-.28 0-.58 0-.87m1.45 3.06a1.7 1.7 0 0 1 1.67 1.66 1.7 1.7 0 0 1-1.66 1.67 1.7 1.7 0 0 1-1.63-1.63 1.7 1.7 0 0 1 1.62-1.7" style="fill:#ccc"/><path d="m78.16 34.02.15-.81h-1.45l.82-4.6h6.88L82.8 38.65q-3.67 1.35-7.37 1.36-3.7 0-5.34-1.48-1.64-1.47-1.64-4.54 0-1.29.42-3.82.9-5.23 3.2-7.55 2.28-2.31 7.57-2.31 1.11 0 2.84.24t2.54.54l-1.65 4.6q-2.25-.42-4.14-.42t-2.69.3-.96 1.2l-1.47 8.51H76q1.01 0 1.51-.22.5-.23.65-1.04m11.67 5.54H83.8l7.91-18.8h8.84l1.33 18.8h-6.05l-.12-2.98H91Zm5.14-13.03-2.1 5.27h2.4v-5.27Zm14.31 13.03h-5.95l4.4-18.8h7.45l.54 9.56h.21l3.91-9.56h7.46l-2.22 18.8h-5.99l1.26-9.12h-.2l-3.77 9.12h-4.36l-.63-9.12h-.15Zm31.65-7.1h-5.72l-.4 2.28h7.02l-.84 4.82h-12.73l3.31-18.8h12.57l-1.56 4.81h-6.17L136 28.1h5.72Zm2.73 6.77 1.69-4.97q2.52.7 4.63.7t3.4-.19l.24-1.5-2.5-.24q-2.85-.27-4.04-1.3a3.6 3.6 0 0 1-1.2-2.88q0-.81.19-1.8.7-3.86 2.5-5.3 1.83-1.44 5.65-1.44 3.81 0 6.74.75l-1.57 4.81a26 26 0 0 0-4.2-.45q-1.6 0-2.72.15l-.24 1.47 2.02.21q3.06.34 4.36 1.46a3.8 3.8 0 0 1 1.3 3.03q0 1.92-.85 3.97-.42 1.05-.92 1.76-.5.7-1.26 1.2-.77.5-1.4.75-.63.26-1.6.38-1.4.2-3.45.2-3.73 0-6.77-.77" style="white-space:pre;fill:#fff"/><path d="M64.57 13.58q0-1.47.42-3.88t1.1-4.17a10 10 0 0 1 1.87-3.05Q70.2 0 75.06 0q3.79 0 5.42 1.52 1.65 1.5 1.64 4.51 0 3-.87 5.75a12 12 0 0 1-2.1 4.21L81 17.24l-2.1 3.45-5.28-1.05.2-1.14-2.54.7q-3.63-.01-5.18-1.46-1.54-1.46-1.54-4.16m5.67.93h2.37q1.17 0 1.74-.28.57-.3.75-1.3l1.38-7.8h-2.4q-1.14 0-1.71.28t-.75 1.3ZM91.63.44l-2.5 14.07h2.05q1.05 0 1.5-.28.44-.3.63-1.3L95.53.43h5.7l-1.86 10.53q-.45 2.55-1.04 4.11a8 8 0 0 1-1.63 2.64 5.6 5.6 0 0 1-2.6 1.5q-1.54.42-3.91.42-3.63 0-5.09-1.1-1.45-1.09-1.45-3.76 0-1.47.42-3.8L85.93.43Zm9.39 18.75 3.3-18.75h5.7l-3.3 18.75Zm22.86 0h-15.36l.66-3.75 9.03-10.02-.06-.18h-5.97l.33-4.8h14.55l-.66 3.75-8.97 10.02.03.18h7.26Z" style="white-space:pre;fill:#fff"/></svg>