<svg xmlns="http://www.w3.org/2000/svg" viewBox="0 0 200 40"><path d="M66.86 25.43h-3.72l-.78 4.53h-5.7l3.3-18.75h9q5.1 0 5.1 4.74a12.3 12.3 0 0 1-2.02 6.95 6.2 6.2 0 0 1-5.18 2.53m-2.07-9.42-.8 4.62h1.31q1.02 0 1.55-.22.52-.23.67-1.04.4-2.22.4-2.43 0-.57-.46-.75-.45-.18-1.35-.18Zm20.46 13.95h-11.4l3.3-18.75h5.7L80.4 25.16h5.7Zm4.14 0h-6l7.9-18.75h8.81l1.32 18.75H95.4L95.27 27h-4.7Zm5.13-12.99-2.1 5.25h2.4v-5.25Zm14.49-5.76.39 6.6h.21l2.76-6.6h6.3l-7.56 13.65-.87 5.1h-5.7l.87-5.1-2.7-13.65Zm20.1 11.67h-5.7l-.4 2.28h7l-.84 4.8h-12.7l3.3-18.75h12.55l-1.56 4.8h-6.15l-.42 2.52h5.7Zm18.8 7.08h-6.26l-1.38-5.58h-1.23l-.96 5.58h-5.7l3.3-18.75h9q5.13 0 5.13 4.6 0 1.88-.57 3.6-1.05 3.23-3.3 4.31Zm-7.4-13.95-.66 3.75h1.32q1.02 0 1.54-.22.53-.22.72-1.3.2-1.06.2-1.3 0-.6-.47-.76a5 5 0 0 0-1.51-.17Zm9.3 13.62 1.68-4.95q2.52.7 4.62.7t3.39-.19l.24-1.5-2.5-.24q-2.85-.26-4.03-1.29a3.6 3.6 0 0 1-1.18-2.88q0-.81.18-1.8.7-3.84 2.5-5.28 1.82-1.44 5.63-1.44t6.72.75l-1.56 4.8q-2.61-.45-4.2-.45t-2.7.15l-.24 1.47 2 .21q3.07.32 4.36 1.46a3.8 3.8 0 0 1 1.29 3.01q0 1.92-.84 3.96-.42 1.05-.92 1.76-.5.7-1.26 1.2-.75.5-1.4.75-.62.26-1.58.37-1.42.21-3.45.21-3.72 0-6.75-.78" style="white-space:pre;fill:#fff"/><path d="M38.74 13.18a3.26 3.26 0 1 0 0-6.5 3.26 3.26 0 0 0 0 6.5m2.24.93h-.25a4.6 4.6 0 0 1-3.98 0h-.24a3.35 3.35 0 0 0-3.35 3.35v.84c0 .77.63 1.4 1.4 1.4h8.37c.77 0 1.4-.63 1.4-1.4v-.84c0-1.85-1.5-3.35-3.35-3.35m6.14-.93a2.8 2.8 0 1 0 0-5.58 2.8 2.8 0 0 0 0 5.58m1.4.93h-.12q-.6.22-1.28.24-.68-.01-1.29-.24h-.1q-.9.02-1.63.45a4.3 4.3 0 0 1 1.16 2.9v1.12l-.02.18h5.13c.77 0 1.4-.62 1.4-1.4 0-1.8-1.46-3.25-3.26-3.25" style="fill:#fff"/><path d="M38.66 26.67a3.33 3.33 0 1 1 0 6.66 3.33 3.33 0 0 1 0-6.66m2.28-.96h-.25a4.7 4.7 0 0 0-4.07 0h-.25a3.43 3.43 0 0 1-3.43-3.42v-.86c0-.79.64-1.43 1.43-1.43h8.57c.79 0 1.43.64 1.43 1.43v.86a3.43 3.43 0 0 1-3.43 3.42m6.29.96a2.86 2.86 0 1 1 0 5.71 2.86 2.86 0 0 1 0-5.71m1.42-.96h-.11a4 4 0 0 0-1.31-.23 4 4 0 0 0-1.32.23h-.11q-.92-.02-1.66-.45a4.4 4.4 0 0 0 1.18-2.97v-1.15l-.02-.19h5.26c.79 0 1.42.64 1.42 1.43a3.33 3.33 0 0 1-3.33 3.33" style="fill:#fff" transform="matrix(-1 0 0 -1 84.93 53.33)"/></svg>