<svg xmlns="http://www.w3.org/2000/svg" viewBox="0 0 200 40"><path d="M68.52 39.6h-6l7.9-18.76h8.81l1.32 18.75h-6.03l-.12-2.97h-4.7Zm5.13-13-2.1 5.25h2.4V26.6ZM93 39.6l-3.06-6.67a1 1 0 0 1-.12-.58q0-.38.06-.86h-.24l-1.4 8.1h-5.7l3.3-18.75h5.36l3.06 6.66q.1.21.1.59 0 .37-.07.85h.24l1.44-8.1h5.7l-3.3 18.75Zm8.94 0 3.3-18.76h5.7l-3.3 18.75Zm14.64 0h-5.94l4.38-18.76h7.44l.54 9.54h.21l3.9-9.54h7.44l-2.22 18.75h-5.97l1.26-9.09h-.2l-3.76 9.1h-4.35l-.63-9.1h-.15Zm23.2 0h-6l7.88-18.76h8.82l1.32 18.75h-6.03l-.12-2.97h-4.7Zm5.12-13-2.1 5.25h2.4V26.6Zm20.28 13h-11.4l3.3-18.76h5.7l-2.46 13.95h5.7Zm.84-.34 1.68-4.95q2.52.7 4.62.7t3.4-.19l.23-1.5-2.49-.24q-2.85-.26-4.03-1.29a3.6 3.6 0 0 1-1.19-2.88q0-.81.18-1.8.7-3.84 2.5-5.28 1.83-1.44 5.63-1.44 3.81 0 6.72.75l-1.56 4.8q-2.61-.45-4.2-.45t-2.7.15l-.24 1.47 2.01.21q3.07.32 4.35 1.46a3.8 3.8 0 0 1 1.3 3.01q0 1.92-.85 3.96-.42 1.05-.91 1.76-.5.7-1.26 1.2-.77.5-1.4.75-.63.26-1.59.37-1.41.21-3.45.21-3.72 0-6.75-.78M16.73 18.87l1.68-4.95q2.52.69 4.62.69t3.39-.18l.24-1.5-2.5-.24q-2.85-.27-4.03-1.29a3.6 3.6 0 0 1-1.18-2.88q0-.81.18-1.8.7-3.84 2.5-5.28Q23.45 0 27.26 0t6.72.75l-1.56 4.8q-2.61-.45-4.2-.45t-2.7.15l-.24 1.47 2 .21q3.07.33 4.36 1.46a3.8 3.8 0 0 1 1.29 3.01q0 1.92-.84 3.96-.42 1.05-.92 1.75-.5.72-1.26 1.2-.75.5-1.4.76-.62.24-1.58.37-1.42.21-3.45.21-3.72 0-6.75-.78m27.99-4.2H41l-.78 4.53h-5.7L37.82.45h9q5.1 0 5.1 4.74a12.3 12.3 0 0 1-2.03 6.94 6.2 6.2 0 0 1-5.17 2.54m-2.07-9.42-.81 4.62h1.32q1.03 0 1.54-.22.53-.23.68-1.04.39-2.22.39-2.43 0-.57-.45-.75t-1.35-.18Zm16.53 1.47-1.38 7.8h2.37q1.17 0 1.74-.29t.75-1.3l1.38-7.8h-2.4q-1.14 0-1.71.29t-.75 1.3M62.63 0q3.81 0 5.43 1.49 1.62 1.48 1.62 4.57t-.98 6.47-3.09 5.24q-2.1 1.88-6.18 1.88-4.06 0-5.68-1.48-1.62-1.5-1.62-4.58 0-1.48.42-3.88.42-2.42 1.1-4.18a10 10 0 0 1 1.87-3.04Q57.77 0 62.62 0m23.52 19.2h-6.27l-1.38-5.58h-1.23l-.96 5.58h-5.7L73.9.45h9q5.13 0 5.13 4.59 0 1.89-.57 3.6-1.05 3.24-3.3 4.32Zm-7.4-13.95L78.08 9h1.32q1.03 0 1.54-.22.53-.22.72-1.3.2-1.05.2-1.3 0-.6-.47-.76a5 5 0 0 0-1.51-.17Zm24.87 0h-4.14L97.04 19.2h-5.7l2.43-13.95h-4.11l.87-4.8h13.95Zm-.57 13.62 1.68-4.95q2.52.69 4.62.69t3.39-.18l.24-1.5-2.5-.24q-2.85-.27-4.03-1.29a3.6 3.6 0 0 1-1.18-2.88q0-.81.18-1.8.7-3.84 2.5-5.28Q109.76 0 113.57 0t6.72.75l-1.56 4.8q-2.61-.45-4.2-.45t-2.7.15l-.24 1.47 2 .21q3.07.33 4.36 1.46a3.8 3.8 0 0 1 1.29 3.01q0 1.92-.84 3.96-.42 1.05-.92 1.75-.5.72-1.26 1.2-.75.5-1.4.76-.62.24-1.58.37-1.42.21-3.45.21-3.72 0-6.75-.78M34.62 25.4h3.18l-3.24 10h-4.04v-3.7h-.17l-1.33 3.68h-3.7v-10h3.19l-.3 5.59h.1l2.09-5.59h2.41v5.59h.1Zm2.54 10 1.76-10h3.04l-1.76 10Zm12.95-7.45H47.9l-1.3 7.44h-3.04l1.3-7.44h-2.2l.47-2.56h7.44Zm5.3 7.44.62-3.53h-2.3l-.6 3.53h-3.04l1.76-10h3.04l-.62 3.54h2.28l.63-3.54h3.04l-1.76 10Z" style="white-space:pre;fill:#fff"/></svg>