<svg xmlns="http://www.w3.org/2000/svg" viewBox="0 0 200 40"><path d="m55.2 18.45-.8 4.46h-4.8l-1.19 6.94h-5.63l3.26-18.7H57.6l-1.57 4.79H50.8l-.41 2.51zm5.98 8.44-1.15 2.96H54.1l7.8-18.7h8.7l1.31 18.7h-5.96l-.12-2.96zm4.21-10h-.3l-2.07 5.24h2.37zm15.94 6.14 4.48-11.88h5.95l-7.61 18.7H75.9l-1.1-18.7h6.26v11.88zM97.9 17.4l-1.36 7.78h2.34q1.15 0 1.72-.28.56-.28.74-1.3l1.36-7.78h-2.37q-1.12 0-1.69.28t-.74 1.3m3.4-6.7q3.77 0 5.37 1.49 1.6 1.47 1.6 4.56 0 3.07-.97 6.45a10.7 10.7 0 0 1-3.05 5.23q-2.08 1.87-6.1 1.87t-5.61-1.48-1.6-4.56q0-1.47.41-3.87.41-2.42 1.1-4.16a10 10 0 0 1 1.83-3.05q2.23-2.48 7.03-2.48m21.29 12.93 1.95 6.22h-6.2l-1.36-5.56h-1.21l-.95 5.56h-5.63l3.26-18.7h8.9q5.06 0 5.06 4.58 0 1.88-.56 3.59-1.04 3.23-3.26 4.3m-4.24-7.7h-1.13l-.65 3.75h1.3q1.02 0 1.52-.22.53-.23.72-1.29.2-1.07.2-1.3 0-.6-.46-.77-.46-.16-1.5-.16m13.99 13.92h-5.64l3.27-18.7h5.63zm19.2-18.7-.86 4.79h-4.09l-2.4 13.91h-5.63l2.4-13.91h-4.06l.86-4.8zm12.36 7.3-.77 4.34h-5.63l-.39 2.27h6.9l-.82 4.8h-12.54l3.26-18.71h12.39l-1.54 4.79h-6.08l-.41 2.51zm1.92 11.07 1.66-4.93q2.49.68 4.57.68 2.07 0 3.34-.18l.24-1.5-2.46-.23q-2.8-.27-3.99-1.29a3.6 3.6 0 0 1-1.16-2.87q0-.81.17-1.8.69-3.82 2.47-5.26 1.8-1.44 5.56-1.44 3.77 0 6.64.75l-1.54 4.79q-2.58-.45-4.15-.45-1.56 0-2.66.15l-.24 1.46 1.98.21q3.03.32 4.3 1.46a3.8 3.8 0 0 1 1.28 3q0 1.92-.83 3.95-.42 1.05-.91 1.76-.49.7-1.25 1.18-.75.51-1.37.75-.63.26-1.57.38-1.4.21-3.4.21-3.69 0-6.68-.78" style="white-space:pre;fill:#fff"/><path d="M27.52 9.7q-.33 0-.6.5l-2.21 4.54a3 3 0 0 1-1.94 1.42l-4.95.73c-.74.1-.9.62-.37 1.15l3.59 3.52c.53.53.86 1.56.73 2.3l-.84 4.99c-.1.53.1.85.48.85q.26 0 .49-.14l4.43-2.36c.33-.17.76-.25 1.2-.25s.86.08 1.19.25l4.43 2.36q.28.15.49.14c.37 0 .57-.32.48-.85l-.85-4.99c-.12-.74.21-1.77.74-2.3l3.59-3.52c.53-.53.37-1.05-.37-1.15l-4.96-.73a3 3 0 0 1-1.93-1.42l-2.22-4.53q-.26-.51-.6-.51" style="fill:#fff"/></svg>