<svg xmlns="http://www.w3.org/2000/svg" viewBox="0 0 200 40"><path d="M48.06 29.94a10.05 10.05 0 0 1-8.77-11.03 10.06 10.06 0 0 1 11.12-8.87 10.07 10.07 0 0 1 8.8 11.94 10.05 10.05 0 0 1-11.15 7.96m-.32-4.36c0-2.15 0-2.21-.26-2.7-.2-.38-.68-.86-1.06-1.05-.5-.26-.52-.26-2.7-.26h-1.96l.03.14a7.6 7.6 0 0 0 2.08 3.7 7.6 7.6 0 0 0 3.83 2.09c.03 0 .04-.4.04-1.92m3.96 1.7a7.4 7.4 0 0 0 3.07-1.86 7.5 7.5 0 0 0 2.08-3.7l.02-.15h-1.94c-2.16 0-2.17 0-2.68.26-.38.2-.9.7-1.1 1.09-.26.5-.26.51-.26 2.66v1.93l.15-.03c.08-.01.38-.1.66-.2m-1.83-5.54a1.9 1.9 0 0 0 1.22-1.25 2 2 0 0 0 0-.98 1.9 1.9 0 0 0-1.28-1.27 2 2 0 0 0-.98 0 1.9 1.9 0 0 0-1.29 1.27 2 2 0 0 0 0 .98 1.9 1.9 0 0 0 1.52 1.33c.13.03.62-.02.8-.08m-6.73-3.07a14 14 0 0 0 1.71-.38c.4-.12.71-.25 1.54-.62 1.43-.65 1.79-.74 2.93-.74 1.05 0 1.52.1 2.55.56l.97.42q1.7.75 3.67.86l.44.03-.03-.13A8 8 0 0 0 54 13.91a8 8 0 0 0-5.6-1.53 8 8 0 0 0-5.22 2.96 8 8 0 0 0-1.48 3.33l-.02.13.46-.03c.25-.01.7-.06 1-.1" style="fill:#ccc"/><path d="m77.01 22.93 2 6.22h-6.3l-1.4-5.56h-1.23l-.96 5.56h-5.73l3.32-18.7h9.04q5.15 0 5.15 4.58 0 1.88-.57 3.59-1.05 3.23-3.32 4.3m-4.3-7.7h-1.15l-.66 3.75h1.32q1.03 0 1.55-.22.53-.23.72-1.29.2-1.07.2-1.3 0-.6-.46-.77-.47-.16-1.53-.16M86.9 26.2l-1.18 2.96H79.7l7.92-18.7h8.86l1.33 18.7h-6.06l-.12-2.96zm4.28-10h-.3l-2.11 5.24h2.4zm21.57 7.6-.48 5.03q-1.93.78-4.88.78-3.8 0-5.45-1.47-1.63-1.46-1.63-4.51 0-1.3.42-3.8.9-5.16 3.11-7.49 2.22-2.33 7.01-2.33 1.12 0 2.55.23a8 8 0 0 1 2.1.55l-1.7 4.58q-1.77-.42-3.32-.42-1.56 0-2.22.3t-.81 1.2l-1.39 7.83q1.08.24 2.23.24 2.45 0 4.46-.71m7.6 5.36h-5.73l3.31-18.7h5.73zm19.46 0h-5.4l-3.07-6.64a1 1 0 0 1-.12-.59q0-.37.06-.85h-.24l-1.41 8.08h-5.73l3.31-18.7h5.4l3.07 6.64q.1.21.1.59 0 .37-.07.85h.24l1.45-8.08h5.72zm14.07-5.5.15-.81h-1.44l.81-4.58h6.9l-1.78 10q-3.67 1.35-7.38 1.34-3.7 0-5.35-1.47-1.65-1.46-1.64-4.51 0-1.3.42-3.8.9-5.21 3.2-7.52 2.28-2.3 7.59-2.3 1.11 0 2.84.24 1.74.24 2.55.54l-1.65 4.58q-2.27-.42-4.15-.42-1.87 0-2.7.3-.81.3-.96 1.2l-1.47 8.46h1.9q1.02 0 1.51-.22.5-.23.65-1.04" style="white-space:pre;fill:#fff"/></svg>