<svg xmlns="http://www.w3.org/2000/svg" viewBox="0 0 200 40"><path d="M32.08 20.01c0 3.89-.05 7.77.03 11.65A3.5 3.5 0 0 1 28.77 35q-11.5-.03-23-.01a3.46 3.46 0 0 1-3.64-3.64V8.65c0-1.77 1.06-3.17 2.68-3.54q.45-.1.9-.08c7.63-.01 15.26.02 22.89-.03 1.76-.01 3.58 1.52 3.52 3.55-.12 3.8-.04 7.63-.04 11.46m-28.46 0v11.35c0 1.4.77 2.2 2.18 2.21h22.7c1.4 0 2.19-.81 2.19-2.21V8.66c0-1.41-.78-2.21-2.19-2.21H5.8c-1.41 0-2.18.8-2.18 2.2z" style="fill:#ccc"/><path d="M9.72 10.15v.91c0 .78-.52 1.13-1.24.8-.12-.04-.22-.28-.22-.43-.03-.84 0-1.7-.02-2.55-.01-.62.43-.46.77-.47.32 0 .73-.1.7.46zm19.05-.01c0 .4-.03.81 0 1.22.05.57-.3.57-.7.55-.35-.02-.81.14-.8-.51q.03-1.26 0-2.5c0-.67.49-.46.83-.48.35-.03.71-.05.67.5-.03.4 0 .81 0 1.22M13.7 9.77c0-.2.03-.42 0-.6-.11-.66.2-.78.79-.78.53 0 .73.16.7.7q-.06.78-.01 1.58c.03.68-.46.5-.83.53-.37.02-.7.01-.65-.52.03-.3 0-.6 0-.91M7.02 9.5v.23c-.01.73-.66 1.11-1.3.76-.07-.04-.15-.14-.16-.22q-.02-.78 0-1.58c.01-.1.2-.24.33-.26 1-.19 1.13-.06 1.13 1.06m19.04 0v.12c0 .94-.25 1.21-1.15.9-.77-.27-.18-1.06-.33-1.6-.07-.27.03-.48.4-.5 1.06-.07 1.08-.07 1.08 1.08m-5.46-.01v.24c0 .76-.62 1.2-1.21.75-.29-.22-.23-.93-.26-1.43-.01-.2.1-.55.23-.58.32-.08.69-.05 1.02-.01.08 0 .19.2.2.3q.03.37.01.73zm-2.73 5.1c.16.66-.2.72-.74.74-.62.03-.74-.22-.75-.78 0-.61.23-.73.79-.74.6 0 .84.18.7.78m10.88 4.8c.17.7-.29.67-.77.7-.67.05-.68-.3-.71-.81-.04-.68.31-.68.82-.7.66-.05.76.28.66.81M17.14 29.47c.62-.14.76.15.77.72.01.59-.17.77-.76.77-.58 0-.78-.17-.77-.76.02-.57.14-.87.76-.73m10.94-7.46c.71-.17.67.27.7.77.06.66-.29.68-.8.7-.65.04-.7-.29-.72-.8-.03-.67.29-.77.82-.67m-7.4-.78c-.1.63-.02 1.2-.27 1.46-.18.2-.9.15-1.16-.06-.2-.16-.23-.96-.05-1.09.32-.24.86-.2 1.48-.3m3.92-3.32c-.2-.7.24-.68.74-.7.63-.05.72.23.74.78.02.64-.28.71-.8.73-.62.01-.82-.23-.69-.81m.65-4.69c-.68.17-.65-.27-.68-.76-.06-.67.3-.67.8-.7.63-.04.7.27.72.8.03.67-.3.75-.84.66m-11.62 8.93c.1-.6.05-1.15.3-1.44.15-.2.94-.17 1.1.03.2.26.25 1 .05 1.17-.28.24-.84.16-1.45.24m7.07-10.18c-.1.42-.09.96-.35 1.2-.19.19-.9.13-1.1-.08s-.22-.97-.04-1.1c.34-.23.87-.19 1.32-.26zm-.79 7.36c-.63.15-.8-.12-.8-.7s.18-.77.76-.77.79.16.76.76c-.02.54-.09.9-.72.7m4.58 2.85c.1-.63.04-1.2.3-1.46.18-.2.9-.14 1.16.07.2.17.21.97.04 1.1-.34.24-.87.19-1.5.29m-10.07-2.84c-.65.19-.7-.19-.72-.71-.03-.6.19-.75.76-.76.6 0 .75.21.74.78 0 .58-.17.85-.78.7M9.7 24.14c.16.68-.27.67-.76.7-.66.04-.68-.3-.71-.81-.04-.66.3-.68.8-.7.67-.04.77.29.68.81m14.86 1.21c-.14-.54.17-.69.73-.66.75.03.73.02.77.8.04.63-.24.74-.79.71-.7-.04-.7-.02-.7-.85m-4.7.08c.62-.17.72.15.74.7.02.6-.18.76-.75.76s-.78-.17-.77-.76c0-.58.16-.86.78-.7m-13.65 5.5c-.68.16-.68-.25-.71-.76-.04-.62.23-.71.78-.73.63-.02.71.26.73.8.01.6-.22.8-.8.69M9.7 16.61c.18.67-.2.73-.73.75-.55.01-.74-.17-.74-.73 0-.58.15-.8.75-.77.55.03.9.11.72.75m18.36-.71c.64-.18.7.2.73.72.03.63-.24.73-.78.74-.6.02-.74-.2-.75-.77 0-.6.21-.82.8-.69m-10.95 2.09c-.68.17-.68-.24-.72-.75-.05-.65.3-.68.8-.7.62-.03.7.25.72.78.02.66-.27.78-.8.67M6.27 19.34c-.62.17-.74-.14-.75-.7-.01-.58.16-.77.75-.77.57 0 .77.18.76.77-.02.55-.13.87-.76.7m8.13-2.69c-.67.18-.68-.23-.7-.74-.04-.61.18-.75.76-.76.62 0 .73.25.73.8 0 .58-.18.84-.79.7M7 22.03c.13.59-.13.78-.72.76-.5-.02-.8-.06-.76-.69.06-.77.03-.77.77-.8.53-.02.83.12.7.73m10.88 1.41c.18.68-.25.67-.75.7-.63.05-.72-.22-.74-.77-.02-.64.27-.72.8-.73.6-.02.82.2.7.8m-1.45-11.61c-.18-.67.2-.7.73-.73.6-.02.75.19.75.76.02.62-.23.74-.78.74-.57 0-.85-.16-.7-.77m-10.18 1.4c-.66.17-.7-.21-.73-.74-.04-.65.28-.7.8-.71.58-.02.7.22.71.75 0 .58-.18.84-.78.7m.03 12.2c.68-.18.72.2.75.73.02.57-.2.72-.74.72-.57 0-.79-.15-.77-.76.02-.57.15-.86.76-.69M9.7 13.9c.17.65-.2.7-.73.72-.6.02-.74-.2-.75-.76 0-.61.22-.75.78-.75.58 0 .84.19.7.79m7.4 13.6c-.7.19-.68-.26-.71-.75-.06-.67.32-.66.8-.7.65-.03.7.29.72.8.03.68-.3.76-.81.66m10.9 0c-.66.18-.71-.2-.73-.74-.03-.59.23-.7.75-.71.57-.01.78.14.78.75-.02.6-.2.84-.8.7m.75-13.61c.18.65-.2.7-.73.72-.59.03-.75-.17-.76-.75 0-.61.22-.76.78-.75.57 0 .86.15.7.78m-14.26-1.41c.69-.17.67.27.7.77.05.64-.28.69-.8.71-.66.03-.67-.3-.7-.8-.03-.66.27-.79.8-.68m13.59 17.69c.67-.18.68.22.72.73.04.64-.25.72-.78.74-.62.01-.73-.24-.74-.79-.02-.63.22-.8.8-.68M22.6 17.99c-.66.17-.73-.18-.75-.72-.03-.62.23-.72.77-.73.65-.02.7.28.7.8.02.57-.16.8-.72.65m.8-4.64c-.64-.12-1.18-.07-1.46-.32-.19-.16-.15-.9.05-1.1s.95-.24 1.1-.05c.25.28.2.82.32 1.47m-10.91-.7c-.6-.1-1.14-.03-1.43-.27-.19-.16-.18-.93.02-1.1.25-.22.99-.27 1.15-.08.25.28.18.84.26 1.45m7.4 3.29c-.61.14-.8-.1-.8-.7 0-.54.15-.74.73-.72.52.01.83.04.8.7-.04.53-.09.9-.74.72m-7.37 5.31c-.1.62-.06 1.16-.3 1.45-.15.18-.9.14-1.1-.06-.2-.22-.23-.96-.05-1.11.3-.25.84-.2 1.45-.28m4.62-12.82c.62-.14.75.14.77.71.02.64-.26.72-.8.72s-.74-.14-.73-.72c.02-.55.14-.87.76-.7m-4.64 9.4c-.09.61-.03 1.15-.27 1.45-.15.19-.94.16-1.1-.04-.2-.26-.24-.98-.05-1.16.27-.25.84-.16 1.43-.25m2.73 6.1c-.1.63-.02 1.2-.27 1.46-.18.2-.87.13-1.16-.06-.18-.12-.22-.91-.05-1.04.33-.25.85-.23 1.48-.36m10.05-9.39c.6-.14.8.1.79.7 0 .55-.15.75-.73.73-.51-.01-.84-.04-.8-.7.03-.54.08-.91.73-.73M11.73 25.43c.68-.19.7.21.72.73.02.55-.17.72-.71.72-.58 0-.78-.16-.76-.75.02-.55.11-.87.75-.7m-5.51-9.49c-.68.18-.66-.25-.7-.75-.05-.68.34-.64.81-.68.62-.04.67.26.7.75.02.63-.24.8-.8.68m3.47 4.11c.18.7-.27.65-.76.69-.6.04-.7-.22-.71-.73-.03-.62.22-.73.77-.73.6-.01.84.17.7.77m7.4.65c-.66.19-.68-.22-.71-.74-.05-.68.33-.65.82-.68.6-.04.68.22.7.74.02.62-.23.8-.8.68m8.16 9.5c-.66.2-.68-.2-.72-.72-.05-.69.33-.66.81-.69.59-.03.7.2.72.74.01.62-.23.8-.81.68M12.5 31.58h-1.55c.07-.5.01-1.02.23-1.35.12-.18.93-.18 1.05 0 .23.31.19.84.26 1.35m-.81-21.73c-.45.09-.74-.05-.7-.7.03-.48.05-.79.68-.76.52.03.84.05.78.71-.05.74 0 .74-.76.75m.73 5.45c.16.66-.24.64-.72.68-.65.05-.69-.26-.71-.78-.03-.63.27-.65.75-.68.65-.04.8.23.68.78m10.17-6.86c.63-.17.73.15.75.7.02.62-.22.72-.77.73-.55 0-.73-.16-.71-.72.01-.54.08-.89.73-.71" style="fill:#ccc"/><path d="m38.02 29.37 1.68-4.95q2.52.69 4.62.69t3.39-.18l.24-1.5-2.5-.24q-2.85-.27-4.03-1.29a3.6 3.6 0 0 1-1.18-2.88q0-.81.18-1.8.7-3.84 2.5-5.28 1.82-1.44 5.63-1.44t6.72.75l-1.56 4.8q-2.61-.45-4.2-.45t-2.7.15l-.24 1.47 2 .21q3.07.32 4.36 1.46a3.8 3.8 0 0 1 1.29 3.01q0 1.92-.84 3.96-.42 1.05-.92 1.75-.5.72-1.26 1.2-.75.5-1.4.76-.62.25-1.58.37-1.42.21-3.45.21-3.72 0-6.75-.78m17.54.33 3.3-18.75h5.7l-3.3 18.75Zm14.64 0h-5.94l4.38-18.75h7.44l.55 9.54h.2l3.9-9.54h7.44L85.96 29.7h-5.97l1.27-9.09h-.22l-3.75 9.09h-4.34l-.63-9.09h-.16Zm27.51-18.75-2.49 14.07h2.04q1.05 0 1.5-.29t.63-1.3l2.22-12.48h5.7l-1.86 10.53q-.45 2.55-1.03 4.11a8 8 0 0 1-1.64 2.64 5.6 5.6 0 0 1-2.6 1.5q-1.54.42-3.9.42-3.64 0-5.1-1.1-1.44-1.1-1.45-3.76 0-1.47.42-3.81l1.86-10.53Zm21.03 18.75h-11.4l3.3-18.75h5.7l-2.46 13.95h5.7Zm4.14 0h-6l7.9-18.75h8.81l1.32 18.75h-6.03l-.12-2.97h-4.7Zm5.13-12.99-2.1 5.25h2.4v-5.25Zm22.86-.96h-4.14L144.3 29.7h-5.7l2.43-13.95h-4.11l.87-4.8h13.95Zm-.27 13.95 3.3-18.75h5.7l-3.3 18.75Zm16.7-12.48-1.37 7.8h2.37q1.17 0 1.74-.29t.75-1.3l1.38-7.8h-2.4q-1.14 0-1.71.28-.57.3-.75 1.31m3.46-6.72q3.81 0 5.43 1.48 1.62 1.5 1.62 4.58 0 3.1-.98 6.47t-3.09 5.24q-2.1 1.88-6.18 1.88-4.05 0-5.68-1.48-1.62-1.5-1.62-4.58 0-1.46.42-3.89.42-2.41 1.1-4.16a10 10 0 0 1 1.87-3.05q2.25-2.49 7.1-2.49m18.45 19.2-3.06-6.66a1 1 0 0 1-.12-.59q0-.37.06-.85h-.24l-1.41 8.1h-5.7l3.3-18.75h5.37l3.06 6.66q.09.21.09.59 0 .37-.06.85h.24l1.44-8.1h5.7l-3.3 18.75Z" style="white-space:pre;fill:#fff"/></svg>