<svg xmlns="http://www.w3.org/2000/svg" preserveAspectRatio="none" viewBox="0 0 200 40"><path d="m52.02 12.93 1.86 5.84H48l-1.3-5.23h-1.15l-.9 5.23h-5.33l3.1-17.57h8.42q4.8 0 4.8 4.3 0 1.77-.53 3.37-.98 3.03-3.09 4.05M48.01 5.7h-1.07l-.62 3.5h1.24q.95 0 1.44-.2.5-.21.67-1.2.2-1 .19-1.23 0-.57-.43-.72-.45-.15-1.42-.15m18.57 4.15-.6 3.4h-4.45l-.31 1.77h5.46l-.66 3.75h-9.9l2.57-14.64h9.78l-1.21 3.75h-4.8l-.33 1.97zm14.35-5.72-.68 3.75h-3.23l-1.9 10.89h-4.45l1.9-10.9h-3.2l.68-3.74zm9.88 9.77 1.54 4.87h-4.89L86.4 14.4h-.97l-.75 4.36h-4.45L82.8 4.13h7.02q4 0 4.01 3.59 0 1.47-.45 2.8-.81 2.55-2.57 3.38m-3.35-6.02h-.89l-.51 2.93h1.03q.8 0 1.2-.18t.56-1q.16-.84.16-1.02 0-.47-.37-.6a4 4 0 0 0-1.18-.13m12.62 1.15L99 15.12h1.85q.9 0 1.36-.23.45-.23.59-1.02l1.07-6.08H102q-.88 0-1.33.22t-.58 1.02m2.69-5.24q2.97 0 4.24 1.16 1.26 1.15 1.26 3.57 0 2.4-.77 5.04a8.4 8.4 0 0 1-2.4 4.1q-1.64 1.46-4.82 1.46t-4.44-1.16-1.27-3.56q0-1.15.33-3.04t.87-3.26 1.45-2.37q1.75-1.95 5.55-1.94M44.17 35.65l-1.1 2.78h-5.62l7.4-17.55h8.25l1.23 17.55H48.7l-.11-2.78zm3.98-9.38h-.27l-1.97 4.91h2.25zm18.07 7.97-.38 3.93q-1.5.62-3.79.62-2.95 0-4.22-1.16-1.28-1.14-1.28-3.53 0-1 .33-2.97.7-4.04 2.42-5.85 1.72-1.83 5.45-1.83.86 0 1.97.18a6 6 0 0 1 1.63.43l-1.3 3.58q-1.4-.33-2.6-.33t-1.72.23q-.51.24-.63.94l-1.08 6.13a10 10 0 0 0 5.2-.37m13.88 4.2h-4.44l.88-5.19h-3.35l-.89 5.18h-4.44l2.57-14.63h4.45l-.91 5.17h3.34l.92-5.17h4.45zm7.23 0h-4.45l2.58-14.64h4.45zm13.23-8.93-.6 3.4H95.5l-.31 1.78h5.45l-.65 3.74h-9.9l2.57-14.63h9.78l-1.21 3.74h-4.8l-.33 1.97zm8.3 3.58 3.55-9.3h4.7l-6.01 14.64h-6.51l-.87-14.63h4.94v9.3zm17.73-3.58-.6 3.4h-4.45l-.31 1.78h5.45l-.65 3.74h-9.9l2.57-14.63h9.78l-1.21 3.74h-4.8l-.33 1.97zm7.68 1.82-1.53 7.1h-4.63l3.42-14.63h5.8l.42 7.44h.17l3.04-7.44h5.81l-1.74 14.63h-4.66l.99-7.1h-.16l-2.93 7.1h-3.4l-.49-7.1zm23.71-1.82-.6 3.4h-4.45l-.31 1.78h5.46l-.66 3.74h-9.9l2.57-14.63h9.78l-1.21 3.74h-4.8l-.33 1.97zm14.3 8.92h-4.19l-2.38-5.2a1 1 0 0 1-.1-.45q0-.3.05-.67h-.19l-1.1 6.32h-4.45l2.58-14.63h4.19l2.39 5.2q.06.16.06.45t-.04.67h.18l1.13-6.32h4.44zm15.38-14.63-.67 3.74h-3.24l-1.9 10.9h-4.44l1.9-10.9h-3.21l.68-3.74zm-1.12 14.37 1.3-3.86q1.98.53 3.61.53 1.65 0 2.65-.14l.19-1.17-1.95-.18q-2.22-.2-3.15-1a2.8 2.8 0 0 1-.92-2.25q0-.65.14-1.4.54-3 1.96-4.13 1.4-1.12 4.39-1.12 2.97 0 5.24.58l-1.22 3.75a17 17 0 0 0-5.38-.23l-.19 1.14 1.56.16q2.4.27 3.4 1.14 1 .88 1 2.36 0 1.5-.65 3.09-.33.81-.71 1.36-.39.55-.98.94-.6.38-1.09.59t-1.25.29q-1.1.17-2.68.17-2.91 0-5.27-.62" style="white-space:pre;fill:#fff"/><path d="M31.11 9h-5.86V6.75c0-.75-.6-1.35-1.35-1.35H8.57c-.75 0-1.36.6-1.36 1.35V9H1.35C.6 9 0 9.6 0 10.36v3.15c0 2.02 1.27 4.08 3.49 5.68a13 13 0 0 0 6.2 2.35 12.5 12.5 0 0 0 3.84 4.15v4.05h-2.7c-2 0-3.62 1.17-3.62 3.16v.68c0 .37.3.67.68.67h16.68c.38 0 .68-.3.68-.67v-.68c0-1.99-1.62-3.16-3.6-3.16h-2.71V25.7s2.07-1.21 3.83-4.15a13 13 0 0 0 6.2-2.35c2.22-1.6 3.5-3.67 3.5-5.68v-3.15c0-.75-.61-1.36-1.36-1.36M5.6 16.26c-1.38-.99-2-2.1-2-2.75v-.9h3.62c.06 1.84.33 3.45.73 4.86a9 9 0 0 1-2.35-1.2m23.26-2.75c0 .91-1 2.04-2 2.75q-1.06.77-2.35 1.2c.4-1.4.67-3.01.72-4.85h3.63z" style="fill:#fff"/></svg>