<svg xmlns="http://www.w3.org/2000/svg" viewBox="0 0 200 40"><path d="M52.94 29.94a10.05 10.05 0 0 1-8.77-11.03 10.06 10.06 0 0 1 11.12-8.87 10.07 10.07 0 0 1 8.8 11.94 10.05 10.05 0 0 1-11.15 7.96m-.32-4.36c0-2.15 0-2.21-.26-2.7-.2-.38-.68-.86-1.06-1.05-.5-.26-.52-.26-2.7-.26h-1.96l.03.14a7.6 7.6 0 0 0 2.08 3.7 7.6 7.6 0 0 0 3.83 2.09c.03 0 .04-.4.04-1.92m3.96 1.7a7.4 7.4 0 0 0 3.07-1.86 7.5 7.5 0 0 0 2.08-3.7l.02-.15h-1.94c-2.16 0-2.17 0-2.68.26-.38.2-.9.7-1.1 1.09-.26.5-.26.51-.26 2.66v1.93l.15-.03c.08-.01.38-.1.66-.2m-1.83-5.54a1.9 1.9 0 0 0 1.22-1.25 2 2 0 0 0 0-.98 1.9 1.9 0 0 0-1.28-1.27 2 2 0 0 0-.98 0 1.9 1.9 0 0 0-1.29 1.27 2 2 0 0 0 0 .98 1.9 1.9 0 0 0 1.52 1.33c.13.03.62-.02.8-.08m-6.73-3.07a14 14 0 0 0 1.71-.38c.4-.12.72-.25 1.54-.62 1.43-.65 1.79-.74 2.93-.74 1.05 0 1.52.1 2.55.56l.97.42q1.7.75 3.67.86l.44.03-.02-.13a8 8 0 0 0-2.92-4.76 8 8 0 0 0-5.6-1.53 8 8 0 0 0-5.22 2.96 8 8 0 0 0-1.48 3.33l-.02.13.46-.03c.25-.01.7-.06 1-.1m39.3-8.04h5.97L87.2 29.37h-7.56v-6.9h-.33l-2.49 6.9H69.9V10.64h5.97l-.54 10.46h.18l3.9-10.46h4.53V21.1h.18zm15 18.74 1.14-6.62h-4.29l-1.14 6.63h-5.7l3.3-18.75h5.7l-1.17 6.62h4.29l1.17-6.62h5.7l-3.3 18.74zm22.14-7.07h-5.7l-.39 2.27h6.99l-.84 4.8h-12.69l3.3-18.74h12.54l-1.56 4.8h-6.15l-.42 2.52h5.7zm15.9 0h-5.7l-.39 2.27h6.99l-.84 4.8h-12.69l3.3-18.74h12.54l-1.56 4.8h-6.15l-.42 2.52h5.7zm14.67 7.07h-11.4l3.3-18.74h5.7l-2.46 13.94h5.7z" style="fill:#fff"/></svg>