<svg xmlns="http://www.w3.org/2000/svg" viewBox="0 0 200 40"><path d="m28.25 20.34.59-1.2c.21-.43.52-.78 1.04-.56q.7.32.4 1.12c-.29.84-.51 1.7-.8 2.54q-.3.95-1.27.59l-3.88-1.38c-.19-.06-.49-.03-.63.08-.52.4-.99.84-1.59 1.36l1.83.55q.45.14.94.24c.6.14.96.5 1.2 1.07.7 1.6 1.47 3.15 2.18 4.74.14.33.33.47.68.44q.64-.02 1.29-.02.64-.01.78.61c.07.45-.12.77-.58.84-.86.14-1.72.29-2.59.35-.24.01-.56-.2-.75-.4q-1.71-1.79-3.33-3.65c-.38-.44-.77-.44-1.28-.4q-1.91.1-3.82.11c-.51 0-.67-.26-.58-.79.33-1.92.6-3.84.92-5.76.05-.3.23-.66.46-.85 1.02-.83 2.1-1.6 3.13-2.41q.6-.47 1.22-.05l3.84 2.47zM15.26 17.7q.81 1.06 1.6 2.13c.1.15.18.45.1.57q-1.36 2.24-2.76 4.43-.01.03-.22.1c-.6-.72-1.28-1.45-1.86-2.23a10 10 0 0 1-1.85-3.86q-.1-.45-.13-.9c-.07-.6.27-.89.83-.98a7 7 0 0 0 4.52-2.92c.15-.2.16-.53.14-.8q-.12-2.12-.28-4.25c0-.16-.05-.33-.03-.48.05-.44.29-.74.73-.78.46-.04.72.27.8.69.27 1.57.43 3.17.82 4.72.3 1.24 0 2.13-.93 2.94-.53.47-.96 1.05-1.48 1.62" style="fill:#ddd"/><path d="M10.66 15.62c-1.45 0-2.91-1.04-3.28-2.34-.32-1.1.13-1.97 1.22-2.34 1.7-.57 4.02 1 4.16 2.73a1.86 1.86 0 0 1-2.1 1.95m3.36-3.25L5.82.13c1.14-.24 1.25-.2 1.84.68q3.04 4.54 6.11 9.07c.54.78.21 1.63.46 2.42zm8.81 27.62c-.38 0-.65.03-.9-.02-.13-.02-.33-.16-.36-.29q-1.02-4.05-2-8.12l-.64-2.55.48-.07c.48-.06.73.05.86.63.66 2.89 1.39 5.77 2.1 8.65zm-5.55-17.04-.58 3.86c-.5-.3-.9-.5-1.27-.76-.1-.07-.15-.34-.1-.44q.72-1.2 1.47-2.36c.07-.1.22-.14.48-.3" style="fill:#ddd"/><path d="M38.8 29.15h-6l7.89-18.75h8.82l1.32 18.75H44.8l-.12-2.97h-4.71Zm5.13-12.99-2.1 5.25h2.4v-5.25Zm8.88 12.99 3.3-18.75h7.98q3.87 0 5.5 1.37 1.64 1.36 1.64 4.42 0 1.56-.36 3.6-.9 5.04-3.08 7.2-2.17 2.16-7 2.16Zm10.5-13.95h-2.37l-1.59 9.15h2.37q1.17 0 1.74-.29.57-.27.75-1.3l1.05-5.97q.03-.18.03-.48 0-.69-.48-.9a4 4 0 0 0-1.5-.21m21.54-4.8h6.03l-7.71 18.75h-8.34L73.72 10.4h6.33v11.91h.27Zm17.4 11.67h-5.7l-.4 2.28h7l-.84 4.8H89.6l3.3-18.75h12.55l-1.56 4.8h-6.15l-.42 2.52h5.7Zm13.74 7.08-3.06-6.66a1 1 0 0 1-.12-.58q0-.38.06-.86h-.24l-1.41 8.1h-5.7l3.3-18.75h5.37l3.06 6.66q.09.21.09.59 0 .37-.06.85h.24l1.44-8.1h5.7l-3.3 18.75Zm24.2-13.95h-4.13l-2.43 13.95h-5.7l2.43-13.95h-4.11l.87-4.8h13.95Zm8.56-4.8-2.5 14.07h2.05q1.05 0 1.5-.29t.63-1.3l2.22-12.48h5.7l-1.86 10.53q-.45 2.55-1.04 4.11a8 8 0 0 1-1.63 2.64 5.6 5.6 0 0 1-2.6 1.5q-1.54.42-3.91.42-3.63 0-5.09-1.1-1.45-1.1-1.45-3.76 0-1.47.42-3.81l1.86-10.53Zm25.17 18.75h-6.27l-1.38-5.58h-1.23l-.96 5.58h-5.7l3.3-18.75h9q5.13 0 5.13 4.59 0 1.89-.57 3.6-1.05 3.24-3.3 4.32ZM166.5 15.2l-.66 3.75h1.32q1.03 0 1.54-.22.53-.24.72-1.3.2-1.06.2-1.3 0-.6-.47-.76a5 5 0 0 0-1.51-.17Zm22.47 6.87h-5.7l-.4 2.28h7l-.84 4.8h-12.7l3.3-18.75h12.55l-1.56 4.8h-6.15l-.42 2.52h5.7Z" style="white-space:pre;fill:#fff"/></svg>