<svg xmlns="http://www.w3.org/2000/svg" viewBox="0 0 200 40"><path d="m46.54 29.24 1.68-4.94q2.52.7 4.62.7t3.39-.19l.24-1.5-2.5-.23q-2.85-.27-4.03-1.29a3.6 3.6 0 0 1-1.18-2.87q0-.81.18-1.8.7-3.82 2.5-5.26 1.82-1.44 5.63-1.44t6.72.75l-1.56 4.79q-2.61-.45-4.2-.45t-2.7.15l-.24 1.46 2 .21q3.07.32 4.36 1.46a3.8 3.8 0 0 1 1.29 3q0 1.92-.84 3.95-.42 1.05-.92 1.76a4 4 0 0 1-1.26 1.18q-.75.5-1.4.75-.62.26-1.58.38-1.42.2-3.45.2-3.72 0-6.75-.77m33.69-18.37-.87 4.79h-4.14l-2.43 13.91h-5.7l2.43-13.91H65.4l.87-4.8zm12.66 12.48 1.98 6.22H88.6L87.22 24h-1.23l-.96 5.57h-5.7l3.3-18.7h9q5.13 0 5.13 4.58 0 1.88-.57 3.59-1.05 3.23-3.3 4.3m-4.3-7.7h-1.13l-.66 3.75h1.32q1.03 0 1.54-.22.53-.24.72-1.29.2-1.07.2-1.3 0-.6-.46-.77-.47-.16-1.52-.16m14.14 10.96-1.17 2.96h-6l7.89-18.7h8.82l1.32 18.7h-6.03l-.12-2.96zm4.26-10h-.3l-2.1 5.24h2.4zm23.43-5.74-.87 4.79h-4.14l-2.43 13.91h-5.7l2.43-13.91h-4.11l.87-4.8zm12.5 7.3-.77 4.34h-5.7l-.4 2.27h7l-.84 4.8h-12.7l3.3-18.71h12.55l-1.56 4.79h-6.15l-.42 2.5zm12.7 5.9.15-.81h-1.44l.8-4.58h6.88l-1.77 10q-3.67 1.34-7.35 1.34-3.7 0-5.33-1.47t-1.63-4.52q0-1.28.42-3.8.9-5.2 3.18-7.5 2.28-2.31 7.56-2.31 1.1 0 2.83.24t2.54.54l-1.65 4.58q-2.25-.42-4.13-.42t-2.68.3-.96 1.2l-1.47 8.46h1.89q1.02 0 1.5-.22.51-.23.66-1.04m8.04-13.2h6.3l.39 6.58h.2l2.77-6.58h6.3l-7.56 13.61-.87 5.1h-5.7l.87-5.1z" style="white-space:pre;fill:#fff"/><path d="M30.09 17.8q-1.18.32-2.35.69c-.4.14-.62.03-.82-.31-.25-.4-.54-.77-.77-1.18-.14-.23-.2-.5-.33-.82-.79.26-1.25-.35-1.73-.93q-.6-.72-1.26-1.4a.5.5 0 0 0-.4-.12c-.68.2-1.26.03-1.64-.54-.42-.6-.38-1.49.09-2.05.4-.48 1.03-.64 1.57-.4.6.26 1.09 1 .89 1.65-.2.6.08.91.43 1.28q.6.65 1.2 1.34c.18.22.38.28.66.31.9.12 1.55-.18 2.11-.88.41-.5.96-.9 1.47-1.36l-.76-.86c-.31-.36-.3-.54.04-.9a4.22 4.22 0 0 1 6.43.3 5.7 5.7 0 0 1 1.25 3.68h1.66c.09 0 .2-.11.27-.2q.85-.92 1.66-1.86c.1-.12.1-.33.1-.5 0-.2-.08-.4-.07-.6.05-.94.8-1.62 1.63-1.5s1.4 1.05 1.2 1.94c-.2.95-1 1.42-1.9 1.15-.1-.03-.3.03-.39.12q-.9.98-1.78 1.98a.9.9 0 0 1-.76.35q-.77-.02-1.6-.01v3.67h3.63l.09-.2c.33-.7.92-1.04 1.57-.92.66.14 1.17.8 1.17 1.55.01.77-.47 1.44-1.13 1.6-.65.15-1.24-.18-1.6-.86-.06-.12-.21-.26-.32-.26q-1.67-.02-3.44-.02v3.7c.54 0 1.04.03 1.55 0 .39-.03.65.12.9.4q.93 1.07 1.88 2.12c.89-.29 1.47-.14 1.88.47s.37 1.49-.1 2.05c-.4.48-1.03.64-1.58.4-.6-.26-1.07-1-.87-1.65.18-.6-.09-.91-.43-1.28q-.62-.6-1.14-1.27c-.27-.36-.59-.43-1.02-.32 0 .4-.16.79.37 1.07.2.1.34.5.37.77.06.55.02 1.11.02 1.67q0 .57-.57.55H26.8c-.46 0-.58-.14-.59-.62v-1.5c0-.45.2-.76.58-1.05.2-.16.2-.56.31-.94-.67 0-1.2 0-1.73.02-.11 0-.23.11-.31.2q-.86.91-1.67 1.87c-.09.1-.1.3-.1.45 0 .14.07.29.08.43.08.88-.58 1.68-1.4 1.7-.83.03-1.5-.72-1.47-1.66.03-.91.77-1.7 1.56-1.49.63.17.85-.14 1.16-.5q.7-.8 1.45-1.58c.16-.17.44-.29.67-.3l2.58-.02.1-.04c.15-1.2-.22-2.45.4-3.64h-2.07l-2.58-.01c-.34-.01-.57.03-.74.41-.22.5-.66.77-1.23.75-.55 0-.93-.3-1.19-.76a1.7 1.7 0 0 1-.07-1.52c.24-.54.64-.88 1.24-.9s1.06.27 1.3.8c.13.31.3.36.59.36 1.66 0 3.32-.03 4.98.01q.9.01 1.21-.73c.19-.4.25-.85.37-1.28zm-3.28-1.25q.29.4.51.78c.14.25.3.3.57.22q1.15-.37 2.3-.69.35-.08.68 0c1.4.36 1.8.1 2-1.35v-.09c.14-.12.27-.33.4-.32.13 0 .32.2.36.35a2.1 2.1 0 0 1-1.69 2.44c-.31.04-.65-.04-1.02-.07.1 1.28-.5 2.21-1.48 3-.3.22-.52.67-.56 1.05-.07.83-.02 1.68-.02 2.53h6.5c0-3.28.07-6.52-.03-9.77a3.9 3.9 0 0 0-2.86-3.66c-1.16-.33-2.62.06-3.25.87l.52.59c.46.5.46.62-.02 1.12zm.99 9.64h5.13c.12 0 .27-.04.34.01.15.11.34.28.35.42s-.2.31-.34.43c-.07.05-.22 0-.34 0q-2.76 0-5.51.02c-.15 0-.4.13-.42.22-.04.4-.01.8-.01 1.22h10.22q-.02-.55 0-1.07c.02-.32-.11-.4-.4-.39q-.79.02-1.58 0c-.3.01-.53-.1-.53-.43s.22-.44.53-.43h1.16c.1-.89.1-.89-.71-.89h-7.4c-.43-.01-.57.14-.5.54zm14.07-13.93c.02-.4-.25-.74-.6-.76-.37-.02-.69.3-.7.7-.02.38.26.73.62.76.36.01.67-.3.68-.7m0 8.06c0-.4-.27-.73-.64-.74-.36 0-.66.32-.66.72-.01.4.28.73.64.73.37 0 .66-.3.66-.71m-19.94-8.83c-.36 0-.65.33-.65.73s.3.73.65.73.66-.33.66-.73-.3-.73-.66-.73M41.2 29.12c.37.01.66-.3.68-.7 0-.4-.27-.74-.63-.75-.37-.01-.67.3-.68.7s.28.74.63.75m-18.71-8.8c0-.4-.3-.73-.66-.73s-.66.33-.65.73c0 .4.3.72.66.72.35 0 .65-.34.65-.73m-.57 7.35c-.36.01-.65.34-.64.74s.31.72.67.71c.36 0 .65-.35.64-.74 0-.4-.32-.72-.67-.71" style="fill:#ccc"/></svg>