<svg xmlns="http://www.w3.org/2000/svg" viewBox="0 0 200 40"><path d="m60.68 24.56-.83 4.8H48.5l3.28-18.71h5.67L55 24.56zm5.97 4.8h-5.67l3.28-18.71h5.67zm13.66-5.51.15-.81h-1.43l.8-4.58h6.84l-1.76 10q-3.65 1.34-7.31 1.34-3.68 0-5.3-1.47-1.62-1.46-1.62-4.51 0-1.3.41-3.8.9-5.21 3.17-7.52 2.25-2.3 7.51-2.3a21 21 0 0 1 2.82.24q1.72.24 2.52.54l-1.64 4.58q-2.24-.42-4.1-.42a8 8 0 0 0-2.67.3q-.81.3-.95 1.2l-1.47 8.46h1.88q1.02 0 1.5-.22.5-.23.65-1.04m22.94 5.5h-5.67l1.14-6.61h-4.27l-1.13 6.61h-5.67l3.28-18.7h5.67l-1.16 6.61h4.26l1.17-6.61h5.66zm19.6-18.7-.86 4.79h-4.12l-2.42 13.91h-5.66l2.41-13.91h-4.09l.87-4.8zm9.25 13.2.15-.81h-1.43l.8-4.58h6.83l-1.76 10q-3.63 1.34-7.3 1.34-3.68 0-5.3-1.47-1.63-1.46-1.63-4.51 0-1.3.42-3.8.9-5.21 3.16-7.52 2.28-2.3 7.52-2.3 1.11 0 2.82.24 1.72.24 2.52.54l-1.64 4.58a22 22 0 0 0-4.1-.42 8 8 0 0 0-2.67.3q-.81.3-.96 1.2l-1.46 8.46h1.88q1.02 0 1.5-.22.5-.23.65-1.04m10.2-13.2h5.67l-2.48 14.03h2.03q1.05 0 1.5-.28t.62-1.3l2.2-12.45h5.68l-1.85 10.5a24 24 0 0 1-1.04 4.1 7.5 7.5 0 0 1-1.62 2.64 5.6 5.6 0 0 1-2.58 1.5q-1.54.4-3.9.41-3.6 0-5.05-1.1-1.45-1.08-1.44-3.75 0-1.46.41-3.8zm31 18.7h-5.34l-3.05-6.64a1 1 0 0 1-.11-.6q0-.36.05-.84h-.23l-1.4 8.08h-5.67l3.28-18.7h5.34l3.04 6.64q.09.21.09.6 0 .36-.06.84h.24l1.43-8.08h5.67z" style="white-space:pre;fill:#fff"/><path d="M28.51 30.39c-.27-.09-.6-.22-.68-.3-.3-.24-.23-1.96.12-3.2.62-2.24 1.75-4.07 3.9-6.28 1.66-1.74 1.86-2.18 1.43-3.13-.26-.54-1.12-1.24-1.53-1.24-.13 0-.36-.1-.52-.22a1.5 1.5 0 0 0-.8-.22c-.69 0-.9-.18-1.59-1.39-.67-1.15-.68-1.33-.3-2.33l.28-.73.77-.08c.64-.07 1.04-.23 2.07-.92a6 6 0 0 1 1.6-.83 2 2 0 0 1 .81.3c.42.25.73.29 2.96.29 2.27 0 2.52.02 2.91.29.38.27.44.29.85.08.36-.2.43-.2.5-.01.06.17.15.19.46.04q.38-.16.52-.01c.12.12.26.12.53 0 .28-.12.38-.12.46.03.1.14.2.16.44.01.25-.11.38-.13.53 0 .14.13.27.12.5 0 .28-.14.36-.11.55.13.2.31.26.31 8.5.31h8.27l1.7-.66c1.58-.62 1.71-.65 2.1-.45 1 .53 3 3.7 2.9 4.59-.05.36-.1.4-.88.43-.67.03-.86.1-1.04.38l-.22.34-5.94.09-5.95.1-.36.42-.38.44-5.54.38c-3.05.2-5.63.41-5.75.45-.14.05-.17.25-.11.82.05.41.15.82.24.9.22.23.17.77-.09.99a4 4 0 0 1-1.56.27l-1.31.08-1.87 3.36c-1.79 3.18-1.9 3.4-1.9 4.17 0 .48-.07.9-.17.98-.34.26-4.7 1.31-5.8 1.4-.6.05-1.33 0-1.6-.07" style="fill:#fff" transform="rotate(-24.64 48.2 20)"/></svg>