<svg xmlns="http://www.w3.org/2000/svg" viewBox="0 0 200 40"><path d="m59.11 29.4 1.68-4.95q2.52.7 4.61.7t3.4-.19l.23-1.5-2.49-.23q-2.85-.27-4.03-1.3a3.6 3.6 0 0 1-1.18-2.86q0-.81.18-1.8.69-3.82 2.5-5.26 1.8-1.44 5.62-1.44 3.81 0 6.71.75l-1.56 4.78a26 26 0 0 0-4.2-.45q-1.58 0-2.69.15l-.24 1.47 2.01.21q3.06.32 4.35 1.46a3.8 3.8 0 0 1 1.28 3q0 1.92-.84 3.95-.41 1.05-.91 1.75t-1.26 1.2-1.4.74q-.62.26-1.58.38-1.41.2-3.45.2-3.7 0-6.74-.77m27.96-4.2h-3.71l-.78 4.52h-5.7l3.3-18.7h9q5.09 0 5.09 4.72 0 2.25-.63 4.06a12 12 0 0 1-1.4 2.88q-.75 1.05-2.1 1.8-1.33.72-3.07.72m-.75-9.4h-1.31l-.81 4.61h1.31q1.03 0 1.54-.22.53-.23.68-1.03.4-2.22.4-2.43 0-.57-.46-.75-.45-.18-1.35-.18m15.2 1.47-1.38 7.78h2.37q1.17 0 1.74-.28t.75-1.3l1.37-7.78h-2.4a4 4 0 0 0-1.7.28q-.57.28-.75 1.3m3.45-6.7q3.8 0 5.42 1.48t1.62 4.56-.98 6.46a10.7 10.7 0 0 1-3.09 5.22q-2.1 1.88-6.17 1.88-4.05 0-5.68-1.48-1.61-1.48-1.61-4.57 0-1.46.41-3.87.43-2.41 1.11-4.16a10 10 0 0 1 1.86-3.04q2.25-2.48 7.1-2.48m21.52 12.93 1.97 6.22h-6.26l-1.38-5.57h-1.23l-.96 5.57h-5.7l3.3-18.7h9q5.12 0 5.12 4.58 0 1.88-.57 3.59-1.05 3.23-3.3 4.3m-4.3-7.7h-1.13l-.66 3.75h1.32q1.03 0 1.54-.22.53-.24.72-1.3.2-1.05.2-1.3 0-.6-.46-.77a5 5 0 0 0-1.52-.16M146.77 11l-.87 4.79h-4.14l-2.43 13.9h-5.7l2.44-13.9h-4.11l.87-4.8zm-1.44 18.37 1.68-4.94q2.5.7 4.61.7 2.1 0 3.39-.19l.24-1.5-2.49-.23q-2.84-.27-4.04-1.3a3.6 3.6 0 0 1-1.17-2.86q0-.81.18-1.8.68-3.82 2.5-5.26 1.8-1.44 5.62-1.44 3.8 0 6.71.75L161 16.08q-2.6-.45-4.2-.45-1.57 0-2.7.15l-.23 1.47 2 .21q3.07.32 4.35 1.46a3.8 3.8 0 0 1 1.3 3q0 1.92-.85 3.95-.42 1.05-.92 1.75a4 4 0 0 1-1.25 1.2q-.76.48-1.4.74-.62.26-1.58.38-1.41.2-3.45.2-3.72 0-6.74-.77" style="white-space:pre;fill:#fff"/><path d="M47.42 9.83c5.55 0 10.03 4.48 10.04 10.04.01 5.42-4.5 9.95-9.95 9.96a10.03 10.03 0 0 1-10.08-10.12c0-5.37 4.56-9.88 10-9.88m.23 5.5c0 .4-.02.69.01.96.02.15.1.34.2.42q1.34 1 2.72 1.97c.1.07.27.1.38.06q.78-.21 1.54-.48c.13-.05.28-.21.3-.33q.14-1.5.23-3.03c0-.13-.07-.3-.17-.38q-.84-.7-1.71-1.33a.6.6 0 0 0-.48-.05c-.69.26-1.34.61-2.04.84-.76.25-1.24.6-.98 1.35m-.45.15q-.02-.36.01-.7c.03-.27-.06-.4-.31-.5l-2.73-1.15a.6.6 0 0 0-.45.04q-.86.61-1.7 1.28a.6.6 0 0 0-.17.42l.24 3.03c.02.22.12.3.33.37q.69.2 1.38.46c.23.08.39.04.58-.1.65-.49 1.28-1 1.98-1.42.67-.42 1.06-.9.84-1.73m8.01 5.91-.12-.21q-1.01-1.2-2.05-2.4c-.06-.08-.25-.12-.36-.09q-.79.21-1.54.47a.6.6 0 0 0-.31.3q-.54 1.59-1.04 3.18c-.04.13 0 .32.06.43q.45.68.95 1.3c.08.1.27.16.38.14.72-.15 1.43-.4 2.15-.49.82-.1 1.3-.46 1.44-1.3.08-.44.28-.86.44-1.33M42.03 18.6l-.23.22-1.97 2.26a.6.6 0 0 0-.1.48q.3.97.63 1.9c.06.14.22.3.36.34l2.91.71c.21.05.33.03.46-.16l.89-1.25a.6.6 0 0 0 .08-.46q-.49-1.58-1.01-3.14c-.03-.1-.07-.24-.15-.27zm2.25 6.23q.86 1.43 1.72 2.78a.6.6 0 0 0 .42.25q1.02.04 2.05 0c.13 0 .3-.1.38-.2l1.6-2.62c.05-.1.04-.3-.03-.4q-.45-.68-.95-1.31a.6.6 0 0 0-.38-.19h-3.32a.6.6 0 0 0-.39.18q-.56.75-1.1 1.51m11.1-10.34a9.7 9.7 0 0 0-4.95-3.73c.15.4.3.7.4 1.02q.25.89 1.03 1.38c.45.3.85.66 1.28.98q.19.16.41.2c.58.06 1.15.1 1.83.15m-15.74-.11c1.1.06 2.14-.05 2.94-.91q.21-.23.5-.38c.88-.5.9-1.45 1.34-2.26-1.58.32-4 2.14-4.78 3.55M57 20.34c-1.66.87-2.56 3.68-1.82 5.11A9.6 9.6 0 0 0 57 20.34m-19.07 0a9 9 0 0 0 1.75 5.07c.42-1.16.4-1.4-.37-3.71-.23-.68-.93-.9-1.38-1.36m12.02 8.7c-1.02-1.12-4.41-.92-5.1-.01q2.54.7 5.1.02" style="fill:#ccc"/></svg>