<svg xmlns="http://www.w3.org/2000/svg" viewBox="0 0 200 40"><path d="M47.6 29.38h-6l7.89-18.75h8.82l1.32 18.74H53.6l-.12-2.96h-4.71zm5.13-13-2.1 5.26h2.4v-5.25zm20.27 13H61.6l3.3-18.75h5.7l-2.45 13.94h5.7zm12.78 0h-11.4l3.3-18.75h5.7l-2.46 13.94h5.7zm17.58-5.52.15-.81h-1.44l.81-4.6h6.87l-1.77 10.03a21 21 0 0 1-7.35 1.34q-3.69 0-5.32-1.46-1.64-1.48-1.64-4.53 0-1.29.42-3.81.9-5.23 3.18-7.53 2.28-2.31 7.56-2.31 1.11 0 2.84.23 1.73.25 2.53.54l-1.65 4.6q-2.25-.43-4.12-.43a9 9 0 0 0-2.69.3q-.81.3-.96 1.2l-1.47 8.5h1.9q1.01 0 1.5-.23.5-.23.65-1.04M115 29.38h-6l7.9-18.75h8.81l1.32 18.74H121l-.12-2.96h-4.7zm5.13-13-2.1 5.26h2.4v-5.25zm14.28 13h-5.94l4.38-18.75h7.44l.54 9.53h.21l3.9-9.53h7.44l-2.22 18.74h-5.97l1.26-9.09h-.2l-3.76 9.1h-4.35l-.63-9.1h-.15zm31.56-7.08h-5.7l-.39 2.27h6.99l-.84 4.8h-12.69l3.3-18.74h12.54l-1.56 4.8h-6.15l-.42 2.52h5.7zm2.73 6.75 1.68-4.96q2.52.7 4.62.7t3.39-.18l.24-1.5-2.49-.25q-2.85-.27-4.03-1.28a3.6 3.6 0 0 1-1.19-2.88q0-.81.18-1.8.7-3.84 2.5-5.28 1.82-1.44 5.63-1.44t6.72.75l-1.56 4.8q-2.61-.46-4.2-.46t-2.7.16l-.24 1.47 2.01.2q3.06.33 4.35 1.46a3.8 3.8 0 0 1 1.29 3.02q0 1.92-.84 3.96-.43 1.05-.91 1.75-.5.7-1.27 1.2-.75.5-1.39.75-.63.26-1.59.38-1.41.2-3.45.2-3.72 0-6.75-.77" style="white-space:pre;fill:#fff"/><path d="M35 11.75V14c0 2.07-4.7 3.75-10.5 3.75S14 16.07 14 14v-2.25C14 9.68 18.7 8 24.5 8S35 9.68 35 11.75m-2.57 6.31A9 9 0 0 0 35 16.72v4.78c0 2.07-4.7 3.75-10.5 3.75S14 23.57 14 21.5v-4.78c.7.56 1.6 1 2.57 1.34 2.1.75 4.9 1.19 7.93 1.19s5.83-.44 7.93-1.19M14 24.22c.7.56 1.6 1 2.57 1.34 2.1.75 4.9 1.19 7.93 1.19s5.83-.44 7.93-1.19A9 9 0 0 0 35 24.22v4.03C35 30.32 30.3 32 24.5 32S14 30.32 14 28.25z" style="fill:#fff;transform-box:fill-box;transform-origin:50% 50%"/></svg>