<svg xmlns="http://www.w3.org/2000/svg" viewBox="0 0 200 40"><path d="M58.86 1.59c.24-.41.43-.79.67-1.13.41-.6 1.03-.62 1.4 0q1.62 2.76 3.2 5.55c.35.63.01 1.18-.73 1.19q-3.17.03-6.34 0c-.77 0-1.06-.55-.71-1.25.18-.37.4-.73.67-1.19-.6-.18-1.14-.38-1.69-.52A16.37 16.37 0 0 0 35.3 17.13a16.33 16.33 0 1 0 31.05-3.56 3 3 0 0 1-.25-1.6c.09-.73.82-1.28 1.58-1.31q1.25-.05 1.77 1.08 1.5 3.23 1.77 6.78c.74 10.04-6 19.03-15.79 21.06A19.77 19.77 0 0 1 32.56 26.6c-2.6-7.77-1-14.86 4.82-20.64C43.18.21 50.22-1.17 58.01 1.3c.26.07.5.17.85.3" style="fill:#fff"/><path d="M48.75 16.28v-4.9c0-.9.44-1.42 1.15-1.42.7.01 1.12.52 1.12 1.42q.02 4.36-.01 8.7c0 .53.18.8.62 1.06q4.76 2.66 9.5 5.37.25.13.48.28c.6.4.78 1 .46 1.57-.31.55-.94.75-1.58.42q-1.04-.56-2.06-1.16-4.36-2.49-8.74-4.95c-.69-.38-.97-.86-.95-1.65.04-1.57.01-3.16.01-4.74" style="fill:#fff"/><path d="M88.57 19.27 85.5 12.6a1 1 0 0 1-.12-.59q0-.37.06-.85h-.24l-1.41 8.1h-5.7L81.4.52h5.37l3.06 6.66q.09.2.09.58t-.06.86h.24l1.44-8.1h5.7l-3.3 18.75Zm21.8-7.08h-5.7l-.38 2.28h6.99l-.84 4.8h-12.7l3.3-18.75h12.55l-1.56 4.8h-6.15l-.42 2.52h5.7ZM126.35.52h6.03l-7.71 18.75h-8.34L115.2.52h6.33v11.9h.27Zm17.4 11.67h-5.7l-.4 2.28h7l-.84 4.8h-12.7L134.4.52h12.55l-1.56 4.8h-6.15l-.42 2.52h5.7Zm18.8 7.08h-6.26l-1.38-5.58h-1.23l-.96 5.58H147L150.3.52h9q5.13 0 5.13 4.59 0 1.89-.57 3.6-1.05 3.24-3.3 4.32Zm-7.4-13.95-.66 3.75h1.32q1.02 0 1.54-.23.53-.22.72-1.29.2-1.05.2-1.3 0-.6-.47-.77a5 5 0 0 0-1.51-.16ZM84.7 35.16H81l-.78 4.53h-5.7l3.3-18.75h9q5.1 0 5.1 4.74a12.3 12.3 0 0 1-2.03 6.94 6.2 6.2 0 0 1-5.17 2.54m-2.06-9.42-.81 4.62h1.32q1.03 0 1.54-.23.53-.23.68-1.03.39-2.23.39-2.43 0-.57-.45-.75t-1.35-.18Zm20.46 13.95H91.7L95 20.94h5.7l-2.46 13.95h5.7Zm4.14 0h-6l7.89-18.75h8.82l1.32 18.75h-6.03l-.12-2.97h-4.71Zm5.13-13-2.1 5.26h2.4V26.7Zm14.49-5.75.39 6.6h.2l2.77-6.6h6.3l-7.56 13.65-.87 5.1h-5.7l.87-5.1-2.7-13.65Zm20.1 11.67h-5.7l-.4 2.28h7l-.84 4.8h-12.7l3.3-18.75h12.55l-1.56 4.8h-6.15l-.42 2.52h5.7Zm3.27 7.08 3.3-18.75h7.98q3.87 0 5.5 1.36 1.64 1.37 1.64 4.43 0 1.56-.36 3.6-.9 5.04-3.08 7.2-2.17 2.16-7 2.16Zm10.5-13.95h-2.37l-1.6 9.15h2.38q1.17 0 1.74-.29t.75-1.3l1.05-5.97q.03-.18.03-.48 0-.69-.48-.9a4 4 0 0 0-1.5-.21" style="white-space:pre;fill:#fff"/></svg>