<svg xmlns="http://www.w3.org/2000/svg" viewBox="0 0 200 40"><path d="m49.56 29.22 1.68-4.95q2.52.7 4.62.7t3.39-.19l.24-1.5-2.5-.24q-2.85-.26-4.03-1.29a3.6 3.6 0 0 1-1.18-2.88q0-.81.18-1.8.7-3.84 2.5-5.28 1.82-1.44 5.63-1.44t6.72.75l-1.56 4.8q-2.61-.45-4.2-.45t-2.7.15l-.24 1.47 2 .21q3.07.32 4.36 1.46a3.8 3.8 0 0 1 1.29 3.01q0 1.92-.84 3.96-.42 1.05-.92 1.76-.5.7-1.26 1.2-.75.5-1.4.75-.62.26-1.58.37-1.42.21-3.45.21-3.72 0-6.75-.78m27.78.33 1.14-6.63h-4.3l-1.13 6.63h-5.7l3.3-18.75h5.7l-1.17 6.63h4.29l1.17-6.63h5.7l-3.3 18.75Zm16.98-12.48-1.38 7.8h2.37q1.17 0 1.74-.28.57-.3.75-1.3l1.38-7.8h-2.4q-1.14 0-1.71.28t-.75 1.3m3.45-6.72q3.81 0 5.43 1.49 1.62 1.48 1.62 4.57t-.98 6.47-3.09 5.25Q98.65 30 94.57 30q-4.05 0-5.68-1.48-1.62-1.5-1.62-4.58 0-1.47.42-3.88t1.1-4.17a10 10 0 0 1 1.87-3.05q2.25-2.49 7.1-2.49m15.45 6.72-1.38 7.8h2.37q1.17 0 1.74-.28.57-.3.75-1.3l1.38-7.8h-2.4q-1.14 0-1.71.28t-.75 1.3m3.45-6.72q3.81 0 5.43 1.49 1.62 1.48 1.62 4.57t-.98 6.47-3.09 5.25q-2.1 1.87-6.18 1.87-4.05 0-5.68-1.48-1.62-1.5-1.62-4.58 0-1.47.42-3.88t1.1-4.17a10 10 0 0 1 1.87-3.05q2.25-2.49 7.1-2.49m23 5.25h-4.13l-2.43 13.95h-5.7l2.43-13.95h-4.11l.87-4.8h13.95Zm12.6 6.87h-5.7l-.38 2.28h6.99l-.84 4.8h-12.7l3.3-18.75h12.55l-1.56 4.8h-6.15l-.42 2.52h5.7Zm18.82 7.08h-6.27l-1.38-5.58h-1.23l-.96 5.58h-5.7l3.3-18.75h9q5.13 0 5.13 4.6 0 1.87-.57 3.6-1.05 3.23-3.3 4.31Zm-7.41-13.95-.66 3.75h1.32q1.02 0 1.54-.22.53-.22.72-1.3.2-1.05.2-1.3 0-.6-.47-.76a5 5 0 0 0-1.51-.17Z" style="white-space:pre;fill:#fff"/><path d="M37.02 10a10 10 0 1 0 0 20 10 10 0 0 0 0-20m0 17.42a7.42 7.42 0 1 1 0-14.83 7.42 7.42 0 0 1 0 14.83m0-12.58a5.16 5.16 0 1 0 0 10.32 5.16 5.16 0 0 0 0-10.32m0 7.74a2.58 2.58 0 1 1 .01-5.17 2.58 2.58 0 0 1 0 5.17" style="fill:#ccc"/></svg>