<svg xmlns="http://www.w3.org/2000/svg" viewBox="0 0 200 40"><path d="M39.87 43.16H23.79c-.68.01-.87-.2-.78-.85.22-1.42.56-2.73 1.9-3.54.12-.07.2-.3.19-.46-.03-.58-.14-1.17-.14-1.74l-.02-23.8c0-.96 0-.96.98-.96l28.04-.02c.73 0 .9.23.9.93l-.02 25.35c0 .45.08.76.46 1.08 1.09.93 1.35 2.23 1.42 3.58.03.47-.34.42-.65.42l-5.8.03H39.86zM25.49 12.43v26.19h28.74v-26.2zm30.87 30.13c-.4-.98-.67-1.82-1.06-2.6-.27-.53-.78-.77-1.43-.72s-1.32.01-1.98.01l-26.04.01c-.35 0-.79.1-1.04.3-.9.76-1.14 1.83-1.22 3z" style="fill:#ccc" transform="translate(11.1 -7.4)"/><path d="M30.16 33.11c1.3 0 2.33 1.04 2.33 2.33a2.37 2.37 0 0 1-2.34 2.34 2.35 2.35 0 0 1-2.33-2.35 2.3 2.3 0 0 1 2.34-2.32m15.37 2.33a2.36 2.36 0 0 1-2.34 2.34 2.36 2.36 0 0 1-2.33-2.36c0-1.3 1.04-2.31 2.34-2.31s2.34 1.04 2.33 2.33m4.43-10.49a2.3 2.3 0 0 1-2.34-2.32c0-1.3 1.01-2.34 2.3-2.35a2.37 2.37 0 0 1 2.36 2.32 2.35 2.35 0 0 1-2.32 2.35m0 6.4a2.3 2.3 0 0 1-2.34-2.3c0-1.3 1.01-2.35 2.3-2.36A2.37 2.37 0 0 1 52.3 29a2.35 2.35 0 0 1-2.33 2.34m-15.5 4.12a2.3 2.3 0 0 1 2.3-2.35c1.3 0 2.35 1 2.36 2.3a2.4 2.4 0 0 1-2.3 2.37 2.34 2.34 0 0 1-2.36-2.32m13.15 0c0-1.31 1-2.34 2.3-2.35 1.3 0 2.35 1.02 2.37 2.3a2.4 2.4 0 0 1-2.32 2.37 2.35 2.35 0 0 1-2.35-2.32m-2.09-12.81a2.33 2.33 0 1 1-4.67-.07 2.33 2.33 0 0 1 4.67.07m-2.35 1.73c.96.01 1.76-.77 1.78-1.73a1.8 1.8 0 0 0-1.7-1.8 1.77 1.77 0 1 0-.08 3.53m-13.04.57a2.33 2.33 0 0 1-2.32-2.34 2.34 2.34 0 0 1 2.34-2.33 2.35 2.35 0 0 1 2.32 2.35 2.34 2.34 0 0 1-2.34 2.32m1.78-2.37a1.8 1.8 0 0 0-1.78-1.73 1.77 1.77 0 1 0 .06 3.53 1.8 1.8 0 0 0 1.72-1.8m18.01-8.86a2.36 2.36 0 0 1 2.36 2.32 2.4 2.4 0 0 1-2.34 2.35 2.3 2.3 0 0 1-2.33-2.34c0-1.3 1-2.33 2.31-2.33m-1.75 2.33c0 .96.8 1.77 1.75 1.77s1.76-.8 1.78-1.75a1.77 1.77 0 1 0-3.53-.02m-4.99-2.33c1.3 0 2.33 1.02 2.34 2.32a2.36 2.36 0 0 1-2.33 2.35 2.35 2.35 0 0 1-2.34-2.34 2.3 2.3 0 0 1 2.33-2.33m0 .56c-.98.01-1.75.79-1.75 1.76 0 .96.79 1.77 1.74 1.79A1.8 1.8 0 0 0 44.96 16a1.76 1.76 0 0 0-1.78-1.73m-15.36 1.77c0-1.3 1.04-2.32 2.33-2.32a2.33 2.33 0 1 1 0 4.66 2.34 2.34 0 0 1-2.33-2.34m.57.03c.01.96.81 1.75 1.76 1.75.98 0 1.8-.85 1.77-1.83a1.77 1.77 0 0 0-3.53.08m8.38 8.88a2.3 2.3 0 0 1-2.3-2.36 2.3 2.3 0 0 1 2.34-2.31 2.37 2.37 0 0 1 2.32 2.36 2.36 2.36 0 0 1-2.36 2.3m0-.57c.96 0 1.77-.78 1.8-1.73 0-.98-.82-1.81-1.8-1.8-.97 0-1.74.8-1.74 1.77s.78 1.75 1.74 1.76m-2.3-8.33a2.3 2.3 0 0 1 2.32-2.32 2.34 2.34 0 0 1 2.34 2.32 2.4 2.4 0 0 1-2.34 2.35 2.34 2.34 0 0 1-2.32-2.35m.56-.03c-.02.97.75 1.77 1.7 1.81.96.04 1.83-.8 1.83-1.78 0-.96-.79-1.74-1.76-1.75A1.75 1.75 0 0 0 35.03 16m-4.87 15.36a2.3 2.3 0 0 1-2.34-2.33 2.34 2.34 0 0 1 2.33-2.34 2.35 2.35 0 0 1 2.34 2.33 2.35 2.35 0 0 1-2.33 2.34m1.76-2.31a1.76 1.76 0 1 0-3.54-.06 1.76 1.76 0 0 0 3.54.06m2.55 0a2.33 2.33 0 1 1 2.34 2.3 2.3 2.3 0 0 1-2.34-2.3m2.33 1.73c.97 0 1.76-.79 1.76-1.75a1.8 1.8 0 0 0-1.75-1.78 1.76 1.76 0 1 0-.01 3.53m8.73-1.75a2.33 2.33 0 1 1-4.67 0 2.33 2.33 0 0 1 4.67 0m-.57 0c0-.96-.78-1.76-1.74-1.78-.99 0-1.8.8-1.78 1.8 0 .97.79 1.73 1.77 1.73.97 0 1.75-.78 1.75-1.75M31.46 41.2q1.63-.01 3.25.01c.17 0 .33.16.5.26-.16.1-.33.28-.48.28q-3.26.03-6.51 0c-.18 0-.36-.2-.53-.3.17-.08.34-.23.52-.23q1.62-.03 3.25-.02m-5.91.68-.91-.4.88-.28h.07l.87.3z" style="fill:#ccc" transform="translate(11.1 -7.4)"/><path d="M70.8 19.38 74.1.63h9.23q2.16 0 3.14.75.97.75.97 2.3a6.5 6.5 0 0 1-1 3.76 4.2 4.2 0 0 1-2.45 1.83l-.03.18q2.7.51 2.7 3.57a7 7 0 0 1-1.47 4.53 5 5 0 0 1-4.14 1.83Zm9.23-7.47h-2.25l-.54 3.06h2.22q.75 0 1.14-.6.4-.6.4-1.53t-.97-.93m.84-7.17h-1.8l-.5 2.79h1.76q1.38 0 1.38-1.95 0-.84-.84-.84M95.6 6.9l-1.38 7.8h2.37q1.17 0 1.74-.29t.75-1.3l1.38-7.8h-2.4q-1.14 0-1.7.28-.58.3-.76 1.3M99.05.18q3.81 0 5.43 1.48 1.62 1.5 1.62 4.58t-.97 6.46-3.1 5.25q-2.1 1.88-6.17 1.88-4.06 0-5.69-1.49-1.62-1.48-1.62-4.57 0-1.47.42-3.89.42-2.4 1.11-4.17a10 10 0 0 1 1.86-3.04Q94.2.17 99.05.17m12.24 19.2h-6L113.2.63h8.8l1.32 18.75h-6.03l-.12-2.97h-4.7Zm5.13-13-2.1 5.26h2.4V6.39Zm24.42 13h-6.27l-1.38-5.58h-1.23l-.96 5.58h-5.7L128.6.63h9q5.13 0 5.13 4.59 0 1.89-.57 3.6-1.05 3.24-3.3 4.32Zm-7.41-13.95-.66 3.75h1.32q1.03 0 1.54-.23.54-.22.72-1.29.2-1.05.2-1.3 0-.6-.47-.77a5 5 0 0 0-1.51-.16Zm9.84 13.95 3.3-18.75h7.98q3.87 0 5.5 1.36 1.64 1.37 1.64 4.43 0 1.56-.36 3.6-.9 5.04-3.08 7.2-2.17 2.16-7 2.16Zm10.5-13.95h-2.37l-1.59 9.15h2.37q1.17 0 1.74-.29t.75-1.3l1.05-5.97q.03-.18.03-.48 0-.69-.48-.9a4 4 0 0 0-1.5-.21M83.33 33.85l.15-.8h-1.44l.8-4.6h6.88l-1.77 10.02a21 21 0 0 1-7.35 1.35q-3.7 0-5.33-1.47t-1.63-4.53q0-1.3.42-3.8.9-5.23 3.18-7.54t7.56-2.3q1.1 0 2.83.23t2.54.54l-1.65 4.6q-2.25-.43-4.13-.43a9 9 0 0 0-2.68.3q-.81.3-.96 1.2l-1.47 8.5h1.89q1.02 0 1.51-.23.5-.23.65-1.04m11.64 5.52h-6l7.89-18.75h8.82L107 39.37h-6.03l-.12-2.97h-4.71Zm5.13-12.99L98 31.63h2.4v-5.25Zm14.28 13h-5.94l4.38-18.76h7.44l.54 9.54h.2l3.9-9.54h7.45l-2.22 18.75h-5.97l1.26-9.09h-.21l-3.75 9.1h-4.35l-.63-9.1h-.15Zm31.56-7.09h-5.7l-.4 2.28h7l-.84 4.8h-12.7l3.3-18.75h12.55l-1.56 4.8h-6.15l-.42 2.52h5.7Zm2.72 6.75 1.69-4.95q2.52.7 4.62.7t3.38-.19l.25-1.5-2.5-.24q-2.85-.26-4.03-1.29a3.6 3.6 0 0 1-1.19-2.88q0-.81.19-1.8.69-3.84 2.5-5.28 1.82-1.44 5.63-1.44t6.72.75l-1.56 4.8q-2.63-.45-4.2-.45-1.6 0-2.7.15l-.25 1.47 2.01.21q3.07.32 4.35 1.46a3.8 3.8 0 0 1 1.3 3.01q0 1.92-.84 3.96-.42 1.05-.92 1.76-.5.7-1.26 1.2t-1.4.75q-.62.26-1.58.37-1.41.21-3.46.21-3.7 0-6.75-.78" style="white-space:pre;fill:#fff"/></svg>