<svg xmlns="http://www.w3.org/2000/svg" viewBox="0 0 200 40"><g fill="currentColor"><path d="M7.39.08a6 6 0 0 0-5.9 4.82H.44a.12.12 0 0 0-.1.2l1.6 2.14a.12.12 0 0 0 .2 0L3.75 5.1a.12.12 0 0 0-.1-.2h-.79a4.69 4.69 0 1 1 .64 3.8.1.1 0 0 0-.1-.05H2.13a.12.12 0 0 0-.1.18A6.01 6.01 0 1 0 7.38.08" style="fill:#fff" transform="matrix(1.66729 0 0 1.66353 5.35 9.86)"/><path d="M6.99 2.69q-.17.02-.18.18v3.92q0 .1.09.15l2.79 1.64c.08.05.2.03.24-.06l.27-.46a.2.2 0 0 0-.06-.25L7.7 6.36v-3.5q-.02-.16-.18-.17z" style="fill:#fff" transform="matrix(1.66729 0 0 1.66353 5.35 9.86)"/></g><path d="m45.89 24.36-.84 4.8H33.76l3.27-18.71h5.65l-2.44 13.91zm4.42 1.83-1.16 2.96h-5.94l7.81-18.7h8.74l1.3 18.7H55.1l-.11-2.96zm4.22-10h-.3l-2.08 5.24h2.38zm7.96 12.63 1.67-4.93q2.5.68 4.57.68t3.36-.18l.24-1.5-2.47-.23q-2.82-.27-4-1.29a3.6 3.6 0 0 1-1.17-2.87q0-.81.18-1.8.68-3.82 2.47-5.26Q69.15 10 72.93 10t6.66.75l-1.55 4.79q-2.57-.45-4.16-.45-1.58 0-2.67.15l-.24 1.46 2 .21q3.02.32 4.3 1.46a3.8 3.8 0 0 1 1.28 3q0 1.92-.84 3.95-.41 1.05-.9 1.76-.5.7-1.25 1.18-.76.5-1.38.75-.62.26-1.58.38-1.4.21-3.41.21-3.69 0-6.69-.78m33.37-18.37L95 15.24h-4.1l-2.41 13.91h-5.65l2.41-13.91h-4.07l.86-4.8zM111 24.63h-3.69l-.77 4.52h-5.64l3.27-18.7h8.9q5.06 0 5.06 4.73 0 2.24-.62 4.05a12 12 0 0 1-1.38 2.88q-.75 1.05-2.09 1.8-1.33.72-3.04.72m-.74-9.4h-1.31l-.8 4.61h1.3q1.02 0 1.53-.21.52-.23.67-1.04.39-2.22.39-2.43 0-.56-.45-.74t-1.33-.18m19.78 9.13-.83 4.8h-11.29l3.27-18.71h5.64l-2.43 13.91zm4.43 1.83-1.16 2.96h-5.94l7.81-18.7h8.74l1.3 18.7h-5.97l-.11-2.96zm4.22-10h-.3l-2.08 5.24h2.38zm7.81-5.74h6.24l.39 6.58h.2l2.74-6.58h6.24l-7.49 13.61-.86 5.1h-5.65l.87-5.1zm26.92 7.3-.77 4.34H167l-.38 2.27h6.92l-.83 4.8h-12.57l3.27-18.71h12.42l-1.55 4.79h-6.09l-.41 2.51zm10.37 11.4h-7.9l3.26-18.7h7.9q3.84 0 5.45 1.37 1.63 1.35 1.63 4.4 0 1.56-.36 3.6-.9 5.02-3.05 7.18-2.14 2.15-6.93 2.15m2.5-13.91h-2.35l-1.58 9.12h2.35q1.16 0 1.72-.28t.75-1.3l1.04-5.96q.03-.18.03-.48 0-.68-.48-.9a4 4 0 0 0-1.49-.2" style="white-space:pre;fill:#fff"/></svg>