<svg xmlns="http://www.w3.org/2000/svg" viewBox="0 0 200 40"><path d="M39.9 19.1V6.77q0-.3.02-.58a1.3 1.3 0 0 1 1.06-1.14q.26-.04.52-.04h14.45c.72.07 1.2.55 1.27 1.27q.02.3.01.58V19.1l.58.2a6 6 0 0 1 4.09 5.62q.02 3.35 0 6.7A3.3 3.3 0 0 1 58.75 35a3.35 3.35 0 0 1-3.47-2.98q-.05-.43-.05-.86v-1.37a216 216 0 0 0-13.28-.06q-.03.2-.04.43v1.56A3.33 3.33 0 0 1 38.73 35a3.37 3.37 0 0 1-3.44-2.95 7 7 0 0 1-.05-.8c0-1.97.04-3.94 0-5.9a6.1 6.1 0 0 1 4.41-6.13zm8.7 1.23h-7.35a4.6 4.6 0 0 0-4.66 4.39c-.08 2.3-.04 4.62-.01 6.93a2 2 0 0 0 2.03 2.02c1.11-.03 1.94-.9 1.96-2.1v-1.73q.03-1.49 1.5-1.51h13c.97 0 1.48.54 1.5 1.52 0 .62-.03 1.23 0 1.85a2 2 0 0 0 2.5 1.9c.9-.22 1.49-1.02 1.5-2.07v-6.3a4.7 4.7 0 0 0-4.93-4.9zm-.74-7.36v-6.6h-6.59v6.6zm-6.59 1.39c-.12.98-.07 4.2.06 4.6h6.52v-4.6zm14.57 4.6c.12-.83.08-6.2-.05-6.58h-6.53v6.57zm.03-12.6h-6.6v4.59h6.6z" style="fill:#ccc"/><path d="M42.58 21.69a2.65 2.65 0 0 1 2.65 2.7 2.67 2.67 0 1 1-2.65-2.7m-.02 3.99c.73 0 1.33-.58 1.34-1.3a1.34 1.34 0 0 0-1.3-1.36c-.73-.03-1.37.6-1.37 1.33 0 .72.6 1.32 1.33 1.33m9.36-1.32a2.66 2.66 0 1 1 2.64 2.66 2.66 2.66 0 0 1-2.64-2.66m3.98-.03a1.34 1.34 0 0 0-1.33-1.31c-.72 0-1.33.6-1.33 1.32a1.33 1.33 0 1 0 2.66-.02M44.63 8.77c.28-.32.5-.6.74-.83.33-.33.7-.34.98-.08.3.28.28.65-.05 1.02q-.17.19-.36.37l-.41.43q.35.34.67.7.2.18.3.4a.6.6 0 0 1-.23.76q-.43.28-.8-.04-.44-.4-.9-.86-.44.44-.86.81c-.38.34-.86.26-1.07-.15-.15-.3-.06-.56.15-.8l.4-.4.42-.43-.6-.61q-.2-.18-.35-.39c-.17-.29-.1-.61.15-.83.24-.2.58-.22.85.01.3.25.58.54.97.92m7.92 8.89a1.99 1.99 0 1 1 .05-3.99 2 2 0 0 1 1.97 2.02 2 2 0 0 1-2.02 1.97m.67-2c0-.35-.3-.65-.66-.65s-.65.3-.65.66.31.67.66.66c.34 0 .65-.31.65-.66" style="fill:#ccc"/><path d="m78.43 23.11-.48 5.04q-1.92.78-4.86.78-3.78 0-5.42-1.47-1.63-1.47-1.63-4.53 0-1.3.42-3.8.9-5.17 3.1-7.5 2.2-2.35 6.98-2.35 1.1 0 2.53.23 1.43.22 2.09.55l-1.68 4.6a14 14 0 0 0-3.31-.43q-1.55 0-2.21.3t-.81 1.2l-1.38 7.86q1.08.24 2.22.24 2.43 0 4.44-.72m6.36 5.37h-6l7.89-18.75h8.82l1.32 18.75h-6.03l-.12-2.97h-4.71Zm5.13-12.99-2.1 5.25h2.4V15.5Zm8.34 12.66 1.68-4.95q2.52.7 4.62.7t3.39-.19l.24-1.5-2.5-.24q-2.85-.26-4.03-1.29a3.6 3.6 0 0 1-1.18-2.88q0-.81.18-1.8.7-3.84 2.5-5.28 1.82-1.44 5.63-1.44t6.72.75l-1.56 4.8q-2.61-.45-4.2-.45t-2.7.15L106.8 16l2 .21q3.07.32 4.36 1.46a3.8 3.8 0 0 1 1.29 3.01q0 1.92-.84 3.96-.42 1.05-.92 1.76-.5.7-1.26 1.2-.75.5-1.4.75-.62.26-1.58.37-1.42.21-3.45.21-3.72 0-6.75-.78m26.37-18.42-2.5 14.07h2.05q1.05 0 1.5-.28.44-.3.63-1.3l2.22-12.49h5.7l-1.86 10.53q-.45 2.55-1.04 4.11a8 8 0 0 1-1.63 2.64 5.6 5.6 0 0 1-2.6 1.5q-1.54.42-3.91.42-3.63 0-5.09-1.1-1.45-1.09-1.45-3.76 0-1.47.42-3.8l1.86-10.54Zm13.89 18.75h-6l7.89-18.75h8.82l1.32 18.75h-6.03l-.12-2.97h-4.71Zm5.13-12.99-2.1 5.25h2.4V15.5Zm20.28 13h-11.4l3.3-18.76h5.7l-2.46 13.95h5.7Z" style="white-space:pre;fill:#fff"/></svg>