<svg xmlns="http://www.w3.org/2000/svg" viewBox="0 0 200 40"><path d="M33.76 22.12h-5.7l-.39 2.28h7l-.85 4.8H21.13l3.3-18.75h12.54l-1.56 4.8h-6.15l-.42 2.52h5.7Zm3.27 7.08 3.3-18.75h7.98q3.88 0 5.5 1.37 1.65 1.36 1.64 4.42 0 1.56-.36 3.6-.9 5.04-3.07 7.2-2.18 2.16-7 2.16Zm10.5-13.95h-2.37l-1.59 9.15h2.37q1.17 0 1.74-.29t.75-1.3l1.05-5.97q.03-.18.03-.48 0-.69-.48-.9a4 4 0 0 0-1.5-.21m17.43-4.8-2.49 14.07h2.04q1.05 0 1.5-.29t.63-1.3l2.22-12.48h5.7L72.7 20.98q-.45 2.55-1.03 4.11a8 8 0 0 1-1.64 2.64 5.6 5.6 0 0 1-2.6 1.5q-1.54.42-3.9.42-3.64 0-5.1-1.1t-1.45-3.76q0-1.47.42-3.81l1.86-10.53ZM87.5 23.83l-.48 5.04q-1.92.78-4.86.78-3.78 0-5.41-1.47t-1.64-4.53q0-1.29.42-3.81.9-5.16 3.1-7.5Q80.85 10 85.6 10q1.11 0 2.54.22 1.42.23 2.08.56l-1.68 4.59a14 14 0 0 0-3.31-.42q-1.55 0-2.2.3-.67.3-.82 1.2l-1.38 7.86q1.08.24 2.22.24 2.43 0 4.44-.72m6.36 5.37h-6l7.89-18.75h8.82l1.32 18.75h-6.03l-.12-2.97h-4.71Zm5.13-12.99-2.1 5.25h2.4v-5.25Zm22.86-.96h-4.14l-2.43 13.95h-5.7L112 15.25h-4.11l.87-4.8h13.95Zm-.27 13.95 3.3-18.75h5.7l-3.3 18.75Zm16.7-12.48-1.37 7.8h2.37q1.17 0 1.74-.29t.75-1.3l1.38-7.8h-2.4q-1.14 0-1.71.28-.57.3-.75 1.31m3.46-6.72q3.81 0 5.43 1.48 1.62 1.5 1.62 4.58 0 3.1-.98 6.47t-3.09 5.24q-2.1 1.88-6.18 1.88-4.05 0-5.68-1.48-1.62-1.5-1.62-4.58 0-1.46.42-3.89.42-2.41 1.1-4.16a10 10 0 0 1 1.87-3.05q2.25-2.49 7.1-2.49m18.45 19.2-3.06-6.66a1 1 0 0 1-.12-.59q0-.37.06-.85h-.24l-1.41 8.1h-5.7l3.3-18.75h5.37l3.06 6.66q.09.21.09.59 0 .37-.06.85h.24l1.44-8.1h5.7l-3.3 18.75Zm13.44 0h-6l7.89-18.75h8.82l1.32 18.75h-6.03l-.12-2.97h-4.71Zm5.13-12.99-2.1 5.25h2.4v-5.25Zm20.28 12.99h-11.4l3.3-18.75h5.7l-2.46 13.95h5.7Z" style="fill:#fff;white-space:pre"/><path d="M17.63 24.06V10.94a.94.94 0 0 0-.93-.94H3.88a3.75 3.75 0 0 0-3.75 3.75v12.5A3.75 3.75 0 0 0 3.88 30H16.7c.52 0 .93-.42.93-.94v-.62q-.01-.46-.34-.73a9 9 0 0 1 0-2.92 1 1 0 0 0 .34-.73m-12.5-8.83c0-.12.1-.23.24-.23h8.28q.21.02.23.23v.79c0 .12-.1.23-.23.23H5.37a.24.24 0 0 1-.24-.23zm0 2.5c0-.12.1-.23.24-.23h8.28q.21.02.23.23v.79c0 .12-.1.23-.23.23H5.37a.24.24 0 0 1-.24-.23zm9.9 9.77H3.88a1.25 1.25 0 1 1 0-2.5h11.15a14 14 0 0 0 0 2.5" style="fill:#ccc"/></svg>