<svg xmlns="http://www.w3.org/2000/svg" viewBox="0 0 200 40"><path d="M15.92 32c-.3-.1-.62-.18-.9-.34l-9.84-5.67c-1-.58-1.23-1.45-.65-2.45l8.45-14.62c.54-.93 1.44-1.18 2.38-.63q4.95 2.84 9.88 5.7c.96.55 1.19 1.42.64 2.37l-8.47 14.66c-.33.57-.79.91-1.49.98M5.67 24.54q.27.18.47.29l9.33 5.39c.4.24.59.2.83-.22q4.05-7.06 8.16-14.11c.23-.4.16-.56-.22-.78L14.86 9.7c-.38-.22-.53-.16-.74.2q-2.77 4.83-5.56 9.63c-.96 1.65-1.9 3.3-2.9 5" style="fill:#ccc"/><path d="m9.18 29.62-.46.03H3.58q-1.9 0-1.89-1.9V11.09Q1.67 9.2 3.55 9.22h8.01c-.3.52-.53.98-.83 1.39-.08.1-.36.1-.55.1q-3.21.02-6.42 0c-.45 0-.58.13-.58.58v16.36c0 .37.1.55.5.5h.83c2.46 0 2.46 0 4.52 1.29z" style="fill:#ccc"/><path d="M18.4 19.25c1.34 1.28 1 2.78.33 3.55-.9 1.04-2.16 1.12-3.68.16q.13.8.2 1.5c.03.18-.03.39-.05.58-.2-.03-.42-.01-.58-.1q-1.77-1-3.52-2.03c-.16-.1-.25-.3-.38-.45.15-.1.28-.25.44-.32q.64-.27 1.38-.55l-.48-.26a2.45 2.45 0 0 1 1.6-4.56c.23.03.42.08.6-.21a2.46 2.46 0 0 1 4.28 2.41z" style="fill:#ccc"/><path d="m41.83 23.83-.48 5.04q-1.92.78-4.86.78-3.78 0-5.41-1.47t-1.64-4.53q0-1.29.42-3.81.9-5.16 3.1-7.5T39.95 10q1.11 0 2.54.22 1.42.23 2.08.56l-1.68 4.59a14 14 0 0 0-3.31-.42q-1.55 0-2.2.3-.67.3-.82 1.2l-1.38 7.86q1.08.24 2.22.24 2.43 0 4.44-.72m6.36 5.37h-6l7.9-18.75h8.81l1.32 18.75H54.2l-.12-2.97h-4.7Zm5.13-12.99-2.1 5.25h2.4v-5.25ZM77.74 29.2h-6.27l-1.38-5.58h-1.23l-.96 5.58h-5.7l3.3-18.75h9q5.13 0 5.13 4.59 0 1.89-.57 3.6-1.05 3.24-3.3 4.32Zm-7.4-13.95L69.66 19H71q1.02 0 1.55-.23.53-.21.72-1.28.2-1.07.2-1.31 0-.6-.47-.77a5 5 0 0 0-1.52-.16Zm9.83 13.95 3.3-18.75h7.98q3.87 0 5.5 1.37 1.64 1.36 1.64 4.42 0 1.56-.36 3.6-.9 5.04-3.08 7.2-2.17 2.16-7 2.16Zm10.5-13.95H88.3l-1.59 9.15h2.37q1.17 0 1.74-.29t.75-1.3l1.05-5.97q.03-.18.03-.48 0-.69-.48-.9a4 4 0 0 0-1.5-.21m25.05 8.43.15-.81h-1.44l.81-4.59h6.87l-1.77 10.02a21 21 0 0 1-7.35 1.35q-3.69 0-5.32-1.47t-1.64-4.53q0-1.29.42-3.81.9-5.22 3.18-7.53t7.56-2.31q1.11 0 2.84.24t2.53.54l-1.65 4.59q-2.25-.42-4.12-.42a9 9 0 0 0-2.69.3q-.81.3-.96 1.2l-1.47 8.49h1.89q1.02 0 1.52-.23.5-.21.64-1.03m11.64 5.52h-6l7.89-18.75h8.82l1.32 18.75h-6.03l-.12-2.97h-4.71Zm5.13-12.99-2.1 5.25h2.4v-5.25Zm14.28 12.99h-5.94l4.38-18.75h7.44l.54 9.54h.2l3.9-9.54h7.45l-2.22 18.75h-5.97l1.26-9.09h-.21l-3.75 9.09h-4.35l-.63-9.09h-.15Zm31.56-7.08h-5.7l-.4 2.28h7l-.84 4.8h-12.7l3.3-18.75h12.55l-1.56 4.8h-6.15l-.42 2.52h5.7Zm2.73 6.75 1.68-4.95q2.52.69 4.62.69t3.39-.18l.24-1.5-2.5-.24q-2.85-.27-4.03-1.29a3.6 3.6 0 0 1-1.18-2.88q0-.81.18-1.8.7-3.84 2.5-5.28Q187.78 10 191.6 10t6.72.75l-1.56 4.8q-2.61-.45-4.2-.45t-2.7.15l-.24 1.47 2 .21q3.07.32 4.36 1.46a3.8 3.8 0 0 1 1.29 3.01q0 1.92-.84 3.96-.42 1.05-.92 1.75-.5.72-1.26 1.2-.75.5-1.4.76-.62.25-1.58.37-1.42.21-3.45.21-3.72 0-6.75-.78" style="fill:#fff;white-space:pre"/></svg>