<svg xmlns="http://www.w3.org/2000/svg" viewBox="0 0 200 40"><path d="M46.72 16.77a3.34 3.34 0 0 1 0-6.67 3.37 3.37 0 0 1 3.36 3.36 3.36 3.36 0 0 1-3.36 3.31m-9.34-4.48V9.96l3.81 2.97-3.8 3.28v-2.33c-1.5.05-2.93.13-4.26.74-1 .46-1.38 1.37-1.48 2.38-.1.98-.11 1.97-.16 3h-1.51c-.01-1.3-.1-2.64.24-3.95.33-1.24.98-2.28 2.18-2.82q1-.44 2.07-.65c.8-.15 1.6-.19 2.41-.27zm3.57 15.34v2.32L37.15 27l3.78-3.26v2.36q1.37-.14 2.65-.3.55-.11 1.1-.28a2.5 2.5 0 0 0 1.9-2.08c.14-.77.16-1.57.22-2.36.03-.38 0-.76 0-1.17h1.57c.01 1.71.14 3.43-.67 5.03a4.2 4.2 0 0 1-3.08 2.23c-1.05.21-2.12.3-3.18.44l-.49.03m-8.45.21a1.8 1.8 0 0 1-1.76-1.8 1.8 1.8 0 0 1 1.8-1.76 1.8 1.8 0 0 1 1.77 1.8 1.8 1.8 0 0 1-1.8 1.76" style="fill:#ccc"/><path d="M66.82 10.85h6.03L65.14 29.6H56.8l-1.11-18.75h6.33v11.9h.26Zm8.42 18.75h-6l7.9-18.75h8.81l1.32 18.75h-6.03l-.12-2.97h-4.7Zm5.13-13-2.1 5.26h2.4V16.6Zm24.42 13h-6.27l-1.38-5.58h-1.23l-.96 5.58h-5.7l3.3-18.75h9q5.13 0 5.13 4.59 0 1.89-.57 3.6-1.05 3.24-3.3 4.32Zm-7.4-13.95-.67 3.75h1.32q1.02 0 1.55-.23.53-.22.72-1.29.2-1.05.2-1.3 0-.6-.47-.77a5 5 0 0 0-1.52-.16Zm9.6 13.95 3.3-18.75h5.7l-3.3 18.75Zm16.7-12.48-1.38 7.8h2.37q1.17 0 1.74-.29t.75-1.3l1.38-7.8h-2.4q-1.14 0-1.7.28-.58.3-.76 1.3m3.45-6.72q3.81 0 5.43 1.48 1.62 1.5 1.62 4.58t-.97 6.46-3.1 5.25q-2.1 1.88-6.17 1.88-4.06 0-5.69-1.49-1.62-1.48-1.62-4.57 0-1.47.42-3.89.42-2.4 1.11-4.17a10 10 0 0 1 1.86-3.04q2.25-2.5 7.11-2.5m16.56.45-2.49 14.07h2.04q1.05 0 1.5-.29t.63-1.3l2.22-12.48h5.7l-1.86 10.53q-.45 2.55-1.03 4.1a8 8 0 0 1-1.64 2.65 5.6 5.6 0 0 1-2.6 1.5q-1.54.42-3.9.42-3.64 0-5.1-1.1-1.44-1.1-1.45-3.76 0-1.47.42-3.81L138 10.85Zm9.1 18.42 1.67-4.95q2.52.69 4.62.69t3.4-.18l.23-1.5-2.49-.24q-2.85-.27-4.03-1.3a3.6 3.6 0 0 1-1.19-2.87q0-.81.18-1.8.7-3.84 2.5-5.28 1.83-1.44 5.63-1.44 3.81 0 6.72.75l-1.56 4.8q-2.61-.45-4.2-.45t-2.7.15l-.24 1.47 2.01.2q3.07.34 4.35 1.46a3.8 3.8 0 0 1 1.3 3.02q0 1.92-.85 3.96-.42 1.05-.91 1.75t-1.26 1.2-1.4.75-1.59.38q-1.41.2-3.45.2-3.72 0-6.75-.77" style="white-space:pre;fill:#fff"/></svg>