<svg xmlns="http://www.w3.org/2000/svg" viewBox="0 0 200 40"><path d="M74.12 1.25h6.03L72.45 20H64.1L63 1.25h6.32v11.91h.27Zm17.4 11.67h-5.7l-.39 2.28h7l-.85 4.8H78.9l3.3-18.75h12.54l-1.56 4.8h-6.15l-.42 2.52h5.7ZM110.33 20h-6.27l-1.38-5.58h-1.23L100.5 20h-5.7l3.3-18.75h9q5.13 0 5.13 4.59 0 1.89-.57 3.6-1.05 3.24-3.3 4.32Zm-7.4-13.95-.67 3.75h1.32q1.02 0 1.55-.23.53-.22.72-1.28.2-1.07.2-1.31 0-.6-.47-.77a5 5 0 0 0-1.52-.16Zm24.86 0h-4.14L121.22 20h-5.7l2.43-13.95h-4.1l.86-4.8h13.95ZM127.52 20l3.3-18.75h5.7L133.22 20Zm22.14-5.37-.48 5.04q-1.92.78-4.86.78-3.78 0-5.41-1.47t-1.64-4.53q0-1.29.42-3.81.9-5.16 3.1-7.5T147.77.8q1.1 0 2.53.22 1.43.23 2.09.56l-1.68 4.59a14 14 0 0 0-3.31-.42q-1.55 0-2.21.3t-.81 1.2L143 15.11q1.08.24 2.22.24 2.43 0 4.44-.72m6.36 5.37h-6l7.89-18.75h8.82L168.05 20h-6.03l-.12-2.97h-4.71Zm5.13-12.99-2.1 5.25h2.4V7.01ZM181.43 20h-11.4l3.3-18.75h5.7l-2.46 13.95h5.7ZM66.01 39.59h-6l7.89-18.75h8.82l1.32 18.75h-6.03l-.12-2.97h-4.71Zm5.13-13-2.1 5.26h2.4V26.6Zm24.42 13h-6.27L87.91 34h-1.23l-.96 5.58h-5.7l3.3-18.75h9q5.13 0 5.13 4.59 0 1.89-.57 3.6-1.05 3.24-3.3 4.32Zm-7.41-13.95-.66 3.75h1.32q1.02 0 1.55-.23.51-.22.72-1.29.2-1.05.19-1.3 0-.6-.46-.77a5 5 0 0 0-1.52-.16Zm22.74 8.58-.48 5.04q-1.92.78-4.86.78-3.78 0-5.41-1.47-1.64-1.48-1.64-4.53 0-1.29.42-3.81.9-5.16 3.1-7.5 2.22-2.34 6.98-2.34 1.1 0 2.53.22 1.43.23 2.09.56l-1.68 4.59a14 14 0 0 0-3.31-.42q-1.55 0-2.21.3t-.81 1.2l-1.38 7.86q1.08.24 2.22.24 2.43 0 4.44-.72m6.36 5.37h-6l7.89-18.75h8.82l1.32 18.75h-6.03l-.12-2.97h-4.71Zm5.13-13-2.1 5.26h2.4V26.6Zm8.88 13 3.3-18.75h7.98q3.87 0 5.5 1.36 1.65 1.37 1.64 4.43 0 1.56-.36 3.6-.9 5.04-3.08 7.2-2.17 2.16-7 2.16Zm10.5-13.95h-2.37l-1.6 9.15h2.38q1.17 0 1.74-.29t.75-1.3l1.05-5.97q.03-.18.03-.48 0-.69-.48-.9a4 4 0 0 0-1.5-.21m21.48 6.87h-5.7l-.4 2.28h7l-.84 4.8h-12.7l3.3-18.75h12.55l-1.56 4.8h-6.15l-.42 2.52h5.7Z" style="white-space:pre;fill:#fff"/><path d="M43.98 16.25V20h3.75v-3.75zm-15 0V20h3.75v-3.75zm0 15h7.5V35h-7.5zm18.75 0V35h-7.5v-3.75zm0-22.5V5h3.75v3.75zm-18.75 0h3.75v3.75h11.25V8.75h3.75v3.75h3.75v3.75h3.75V20h3.75v11.25h-3.75v-7.5h-3.75v7.5h-3.75V27.5H28.98v3.75h-3.75v-7.5h-3.75v7.5h-3.75V20h3.75v-3.75h3.75V12.5h3.75zM25.23 5h3.75v3.75h-3.75z" style="fill-rule:evenodd;stroke-width:0;stroke-miterlimit:4;fill:#fff"/></svg>