<svg xmlns="http://www.w3.org/2000/svg" viewBox="0 0 200 40"><path d="m50.08 4.65.57-.38q.67-.42 1.46-.26l10.03 2.01 5.4 1.13.62.15c1.13.32 1.65 1.13 1.42 2.3l-1.4 7.13-1.97 9.86q-.05.29-.06.7l1.3.74a25 25 0 0 1 1.5.91q.63.41.65 1.22l.08 6.97-.03.48c-.11 1.21-.44 1.28-1.36 1.44-1.57.28-3.16.47-4.74.68-.61.08-1.23.1-1.83.22q-.74.15-1.39-.18l-4.11-2.14q-.74-.4-.74-1.23c-.02-.64-.01-1.28-.01-2.05-.29.15-.47.23-.62.34l-1.9 1.35c-.42.29-.86.45-1.41.42-1.2-.04-2.4.02-3.6.02q-.38 0-.73-.02a1.4 1.4 0 0 1-1.34-.82q-1.13-2.07-2.29-4.12l-.36-.6-3.33 1.02c-.71.22-1.39.16-1.9-.42a3 3 0 0 1-.51-.89q-1.51-4.25-2.95-8.52-2.17-6.42-4.31-12.86-.28-.84-.51-1.68c-.23-.9.13-1.72.94-2.17q.43-.21.89-.35L46.17.16c.58-.2 1.13-.24 1.7.01.62.28.94.78 1.15 1.37zm-.45 3.36q-.05-.2-.14-.42l-1.75-5.14c-.14-.4-.28-.81-.77-1q-.3.08-.65.2-4.1 1.35-8.19 2.73Q35 5.44 31.87 6.55c-.32.11-.68.2-.75.65l.21.66L37.4 26.1q.64 1.93 1.33 3.84c.2.56.4.68.97.51q1.36-.42 2.75-.88l-.47-1.08c.13-.71.6-1.04 1.04-1.39l2.46-1.9c.36-.29.68-.57.78-1.07l1.96-9.37zm2.13-2.6c-.45.17-.57.5-.64.84q-.33 1.44-.63 2.89l-2.7 13.3c-.06.34-.1.7-.19 1.2.66-.53 1.21-.9 1.91-.9 1.75 0 3.5-.18 5.31.07l-.35-.48a9 9 0 0 1-1.67-2.98 3.7 3.7 0 0 1 0-2.28 2.55 2.55 0 0 1 4.37-.7l.44.59q.32-.2.64-.36a2.6 2.6 0 0 1 2.84.3c.87.75 1.13 1.72.78 2.81a4.4 4.4 0 0 1-1.3 1.9 14 14 0 0 1-4.37 2.57l-.53-.45-.09.07 1.91 3.46 2.57-.4c-.14-1.54 1.05-1.86 1.98-2.42a4 4 0 0 1 1.35 1.93h1.24l.1-.18 1.63-7.98 1.66-8.3c.06-.3.07-.62.11-.98q-.43-.2-.77-.3-1.92-.43-3.83-.83-5.9-1.18-11.77-2.39m9.62 25.6c-.33 2.72.06 5.37-.1 8.03.92.14 6.59-.62 7.48-1.02.03-.31.1-.65.1-1l.03-6.32c0-.27-.01-.54-.32-.71-2.38.27-4.78.56-7.19 1.02m-6.8-7.26c-2.12 1.53-4.15 2.9-6.01 4.44.6 1.58 3.42 6.68 3.97 7.18l2.9-2.1v-5.23l1.16-.77c-.66-1.14-1.32-2.28-2.02-3.52M43.5 27.7c1.44 0 2.71.02 3.98-.01.24 0 .5-.18.7-.33l4.74-3.41c.13-.1.25-.23.46-.41h-3.63c-.46-.02-.82.13-1.18.4l-3.15 2.32c-.6.45-1.18.9-1.92 1.44m24.22 1.6.01-.2q-1.44-.75-2.87-1.56a2.7 2.7 0 0 0-1.77-.26l-3.17.44-2.73.4.46.3 2.45 1.36c.54.32 1.09.37 1.69.27q.98-.14 1.98-.26zm-10.94 1.1c-.52.54-.46.9.19 1.27.37-.57.34-.8-.2-1.28m2.73 2.6c.43-.6.37-.94-.19-1.26-.47.51-.44.75.19 1.27m-15.23-3.2c-.1.17-.23.32-.2.43q.16.6.77.78c.36-.53.29-.7-.58-1.22m14.02 4.84c.32-.71.29-.81-.29-1.25-.48.57-.41.89.3 1.25m-1.54.47c-.5.53-.44.84.2 1.25.4-.55.35-.87-.2-1.25m-6.48-.3q-.1-.67-.65-.84c-.12-.04-.29.07-.45.13.37.88.44.92 1.1.72m9.4 2.8c.16-.47.2-.9-.32-1.23q-.49.27-.31.78c.1.28.2.57.63.44" style="fill:#ccc"/><path d="m40.57 16.9.98-5.45c.49.21 2.83 2.28 4.14 3.65-.18 1.77-.57 3.55-.92 5.45-.24-.16-.45-.26-.62-.4zm-5.07-5.6.58.48.7.65-.36 1.6-1.21-1.07q0-.29.02-.46zm.55-1.2-.71-.67-.43.13-.38.17c-.2.33.06.75-.34.98-.12-.42-.2-2.34-.08-2.76.02-.11.14-.2.22-.3a5.4 5.4 0 0 1 1.72 2.45m-.78-.96-.82-1.03-.14.06.14 1.24zm17.69 2.65q.25-.1.47-.14c.33-.05.65-.03.85.29.21.32.3.68.07 1.04-.39.65-1 1.02-1.68 1.26-.14.05-.41-.07-.55-.2a3 3 0 0 1-.88-1.39q-.24-.8.32-1.2.5-.34 1.16.14zm1.2-.97-.4-1.02-.8-.21-.73.82-.12-.08q.03-.16.1-.32.53-.93 1.08-1.85c.13-.23.27-.47.66-.32q.28 1.45.37 2.93zM53.04 9.2c.3.19.3.19.76.15.04-.36.01-.7-.2-1.1zm9.95 27.52c.55.15.72.43.65.87-.04.26-.15.48-.42.5-.18.02-.4-.09-.56-.2-.22-.16-.24-.42-.12-.64.1-.2.3-.36.45-.53m4.33-3.9c-.41-.12-.68-.32-.67-.73s.27-.61.64-.67c.73.47.74.81.03 1.4m-2.12 1.16c.75.53.72.96-.06 1.4q-.53-.1-.56-.64-.02-.58.62-.76m-12.02-1.66.7.66-.5.75q-.78-.09-.83-.71c-.03-.38.23-.56.63-.7m-2.88-4c.26-.04.51-.16.68-.09.19.08.36.3.44.5.13.3-.04.63-.3.73s-.59-.04-.74-.3l-.08-.23c-.02-.14 0-.3 0-.61m4.04-1.29q-.62-.13-.69-.7c-.03-.27.01-.34.45-.69.35.07.64.2.7.61q.11.56-.46.78M48 25.9c.2-.41.53-.57 1.07-.66-.31.5-.67.61-1.07.65m14.75 1.86c.46-.22.8-.24 1.23.02-.44.19-.78.27-1.23-.02m-2.13.25c.5-.2.85-.16 1.22-.1-.32.37-.36.37-1.22.1m2.48.79h-1.16c.42-.46.79-.2 1.13-.24zm-3.3.16c.51-.2.87-.19 1.33 0-.46.28-.81.24-1.33 0m6.57.11c-.7.26-.7.26-1.2.05.5-.21.5-.21 1.2-.05m-4.07.52c-.5.24-.82.28-1.23-.02.41-.18.75-.18 1.23.02m-2.44-1.31c-.48.26-.48.26-1 .04.46-.18.46-.18 1-.04m5.26.23h-1.13c.47-.34.47-.34 1.13 0m-.92.95h-1.02c.39-.37.42-.38 1.01 0" style="fill:#ccc"/><path d="M86.12 25.95 85.64 31q-1.92.78-4.86.78-3.78 0-5.42-1.47-1.62-1.47-1.63-4.53 0-1.3.42-3.8.9-5.17 3.1-7.5 2.2-2.35 6.98-2.35 1.1 0 2.53.23 1.43.22 2.09.55l-1.68 4.6a14 14 0 0 0-3.31-.43q-1.55 0-2.21.3t-.81 1.2l-1.38 7.86q1.08.24 2.22.24 2.43 0 4.44-.72m6.36 5.37h-6l7.89-18.75h8.82l1.32 18.75h-6.03l-.12-2.97h-4.71Zm5.13-12.99-2.1 5.25h2.4v-5.25ZM105.95 31l1.68-4.95q2.52.7 4.62.7t3.39-.19l.24-1.5-2.49-.24q-2.86-.26-4.03-1.29a3.6 3.6 0 0 1-1.19-2.88q0-.81.18-1.8.7-3.84 2.5-5.28 1.83-1.44 5.63-1.44 3.81 0 6.72.75l-1.56 4.8q-2.61-.45-4.2-.45t-2.7.15l-.24 1.47 2.01.21q3.06.32 4.35 1.46a3.8 3.8 0 0 1 1.29 3.01q0 1.92-.84 3.96-.42 1.05-.92 1.76-.5.7-1.25 1.2-.77.5-1.4.75-.63.26-1.59.37-1.41.21-3.45.21-3.72 0-6.75-.78m17.55.33 3.3-18.75h5.7l-3.3 18.75Zm19.7 0-3.05-6.66a1 1 0 0 1-.12-.58q0-.38.06-.86h-.24l-1.41 8.1h-5.7l3.3-18.75h5.37l3.06 6.66q.09.21.09.59 0 .37-.06.85h.24l1.44-8.1h5.7l-3.3 18.75Zm16.66-12.48-1.38 7.8h2.37q1.17 0 1.74-.28.57-.3.75-1.3l1.38-7.8h-2.4q-1.14 0-1.71.28t-.75 1.3m3.45-6.72q3.81 0 5.43 1.49 1.62 1.48 1.62 4.57t-.98 6.47-3.09 5.25q-2.1 1.87-6.18 1.87-4.05 0-5.68-1.48-1.62-1.5-1.62-4.58 0-1.47.42-3.88t1.1-4.17a10 10 0 0 1 1.87-3.05q2.25-2.49 7.1-2.49" style="fill:#fff;white-space:pre"/></svg>