<svg xmlns="http://www.w3.org/2000/svg" viewBox="0 0 200 40"><path d="M58.13 23.09v3.6q-.01.14-.09.27l-2.1 4.13c-.48.93-.29 1.62.6 2.17q.5.3 1 .63c.1.07.2.2.2.3q.03.88.02 1.92l-4.83-3.02 2.79-5.47q-.14-.07-.27-.18c-.68-.6-1.35-1.23-2.05-1.8a1.9 1.9 0 0 0-2.57.15c-.69.7-.73 1.81-.1 2.57l.16.15.3-.96.08-.01 1.43 3.4-.07.04q-.11-.05-.2-.13-1-.85-1.97-1.74a2.65 2.65 0 0 1 3.49-3.97q1.03.9 2.08 1.85l2.01-3.93zM66.54 31l1.44-3.45h.07l.31.94c1.05-.91.68-2.68-.64-3.16a1.8 1.8 0 0 0-1.9.33l-2.38 2.1 2.71 5.33-4.76 2.98c0-.53.04-.99 0-1.44q-.1-.71.55-1c.25-.1.47-.28.7-.43.74-.48.96-1.21.56-2l-2.03-4q-.16-.33-.18-.71v-3.33l.08-.03 2.02 3.95.26-.2c.66-.58 1.31-1.2 2-1.76a2.62 2.62 0 0 1 4.16 1.07c.39 1.03.21 2-.58 2.8-.7.69-1.48 1.32-2.23 1.97zm-5.96 5.65H58.5v-1.34l-.02-4.49q0-1.33.03-2.66 0-.28.13-.52.2-.41.2-.88-.02-.68 0-1.42h1.4l.05.29v1.15q-.03.44.19.84.12.22.12.48v8.3zm3.55-1.5.63-.4 1.51 1.35.45.4q.28.3.72.23c.81-.11 1.43.55 1.28 1.33-.1.57-.64.98-1.2.93-.6-.05-1.1-.53-1.04-1.1.05-.53-.18-.83-.55-1.14-.6-.5-1.17-1.03-1.8-1.6m3.95 2.7c0-.27-.2-.48-.46-.48a.5.5 0 0 0-.5.49c0 .24.23.47.48.47.26 0 .47-.21.48-.48m-13.64-3.03.7.45-.35.2-1.73 1.54c-.2.18-.3.37-.28.66q.03.27-.04.54a1.14 1.14 0 0 1-2.21-.47c.05-.59.53-1.08 1.12-1 .52.06.84-.17 1.18-.48q.78-.72 1.61-1.44m-2.3 3.03a.5.5 0 0 0-.47-.47.46.46 0 0 0-.48.46c-.01.28.21.5.48.5a.5.5 0 0 0 .48-.49m8.13-13.21h-1.43a7 7 0 0 1 .5-3.43q.08-.11.2-.21c.07.07.17.13.2.21q.47 1.03.52 2.15zm-1.74 13.31v-.66h2.03v.66z" style="fill:#ccc"/><path d="m31.15 19.2 1.14-6.63h-4.3l-1.13 6.63h-5.7L24.46.45h5.7l-1.17 6.63h4.29L34.45.45h5.7l-3.3 18.75z" style="white-space:pre;fill:#fff"/><path d="m142.64 12 .75-4.32h4.44l.83-4.65h4.09l-.84 4.65h4.47l-.75 4.32h-4.47l-.84 4.68h-4.08l.83-4.68z" style="white-space:pre;fill:#ccc"/><path d="m132.37 13.68.15-.81h-1.44l.8-4.59h6.88l-1.77 10.02a21 21 0 0 1-7.35 1.35q-3.7 0-5.33-1.47t-1.63-4.53q0-1.29.42-3.81.9-5.22 3.18-7.53T133.84 0q1.1 0 2.83.24t2.54.54l-1.65 4.59q-2.25-.42-4.13-.42a9 9 0 0 0-2.68.3q-.81.3-.96 1.2l-1.47 8.49h1.89q1.02 0 1.51-.22.5-.24.65-1.04m-19.38 5.52-3.06-6.66a1 1 0 0 1-.12-.58q0-.38.06-.86h-.24l-1.41 8.1h-5.7l3.3-18.75h5.37l3.06 6.66q.09.21.09.59 0 .37-.06.85h.24l1.44-8.1h5.7l-3.3 18.75zm-19.71 0L96.58.45h5.7l-3.3 18.75zm.27-13.95H89.4L86.98 19.2h-5.7L83.7 5.25h-4.1l.87-4.8h13.95zM69.34 19.2l-3.06-6.66a1 1 0 0 1-.12-.58q0-.38.06-.86h-.24l-1.41 8.1h-5.7L62.17.45h5.37l3.06 6.66q.09.21.09.59 0 .37-.06.85h.24L72.3.45H78L74.7 19.2zM49.24.45l-2.5 14.07h2.05q1.05 0 1.5-.29t.63-1.3L53.14.45h5.7l-1.86 10.53q-.45 2.55-1.04 4.11a8 8 0 0 1-1.63 2.64 5.6 5.6 0 0 1-2.6 1.5q-1.54.42-3.91.42-3.63 0-5.09-1.1-1.45-1.1-1.45-3.76 0-1.47.42-3.81L43.54.45zm35.83 31.79H80.2L79 39.2h-5.7l3.3-18.75h11.7l-1.6 4.8h-5.27l-.42 2.52h4.86Zm2.1 6.96 3.3-18.75h5.7l-3.3 18.75Zm8.7-.33 1.67-4.95q2.52.69 4.62.69t3.4-.18l.23-1.5-2.49-.24q-2.85-.27-4.03-1.29a3.6 3.6 0 0 1-1.19-2.88q0-.81.18-1.8.7-3.84 2.5-5.28Q102.6 20 106.4 20q3.81 0 6.72.75l-1.56 4.8q-2.61-.45-4.2-.45t-2.7.15l-.24 1.47 2.01.21q3.07.32 4.35 1.46a3.8 3.8 0 0 1 1.3 3.01q0 1.92-.85 3.96-.42 1.05-.91 1.76-.5.7-1.26 1.2-.77.5-1.4.74-.63.26-1.59.38-1.41.21-3.45.21-3.72 0-6.75-.78m27.77.33 1.14-6.63h-4.29l-1.14 6.63h-5.7l3.3-18.75h5.7l-1.17 6.63h4.3l1.16-6.63h5.7l-3.3 18.75Zm9.27 0 3.3-18.75h5.7l-3.3 18.75Zm19.71 0-3.06-6.66a1 1 0 0 1-.12-.59q0-.37.06-.85h-.24l-1.4 8.1h-5.7l3.3-18.75h5.36l3.06 6.66q.1.21.1.59 0 .37-.07.85h.24l1.44-8.1h5.7L158 39.2ZM172 33.68l.15-.81h-1.44l.81-4.59h6.87l-1.77 10.02a21 21 0 0 1-7.35 1.35q-3.69 0-5.32-1.47t-1.64-4.53q0-1.29.42-3.81.9-5.22 3.18-7.53t7.56-2.31q1.11 0 2.84.24t2.53.54l-1.65 4.59q-2.25-.42-4.12-.42a9 9 0 0 0-2.69.3q-.81.3-.96 1.2l-1.47 8.49h1.9q1.01 0 1.5-.22.5-.23.65-1.04" style="white-space:pre;fill:#fff"/></svg>