<svg xmlns="http://www.w3.org/2000/svg" viewBox="1.6 1.53 150.7 74.55"><path fill-rule="evenodd" d="M133.33 1.53h16.23l.87 6.5-5.16 3.16 6.83 6.3.2 4.56h-23.32v-4.5h12.8l-5.9-6.83 8.72-5.23h-13.75l-.2-1.81zM72.8 10.52h8.44v30.5l-8.44 6.84zm-62.01 0h8.64v30.63L10.8 48zM1.6 1.6c.74.8.74 1.68.74 2.68v64.3c0 .4.07 2.4-.34 3.95L28.48 52.2c-.6-.6-1.07-1.14-1.14-2.34V4.62L23.52 1.6zm104.78 0 4.36 16.22 5.03-16.22h10.93c-.94.87-.94 1.48-.94 2.95v64.16c0 3.28 0 5.56.8 7.37l-9.52-7.57c.67-.34.87-.88.87-2.08V29.69l-7.57 27.62-7.78-37v37.2c-2.68-2.14-5.36-4.36-8.04-6.5.74-.6.74-1.61.74-2.75V5.02c0-2.28-.54-3.42-1.28-3.42zm-65.56 8.92h9.25v37.8l-9.25-7.1zM35.46 1.6 31.7 4.28v44.18l13.41 10.8 13.2-10.66V4.28L54.98 1.6zm31.57 0-2.48 2.55v44.44l12.88 10.06L90.3 48.33V4.55L87.15 1.6z" clip-rule="evenodd" style="fill:#fff"/></svg>