<?xml version="1.0" encoding="UTF-8" standalone="no"?><svg fill="none" viewBox="0 0 333 102" version="1.1" id="svg8" xmlns="http://www.w3.org/2000/svg" xmlns:svg="http://www.w3.org/2000/svg"><path fill="currentColor" d="M186.51 101.16V65.84h-3.72l-14.12 11.88-8.02-9.39 17.4-14.96h23.07v47.78zm24.43 0c0-1.87-.15-3.8-.15-5.67 0-3.87-.06-7.73.58-11.53 1.28-7.96 8.16-8.96 15.05-9.54L244.47 73c2.3-.22 4.8-.22 7.02-1 2.08-.72 2.08-1.94 2.08-3.94 0-1.37 0-2.87-1.22-3.73-1.79-1.37-9.53-1-11.6-1-4.38 0-9.1-.22-13.48.5-3.3.5-2.93 2.86-2.93 5.73v1.58h-14.12V69.2c0-3.94.07-9.39 3.01-12.47 3.3-3.44 10.6-3.59 14.98-3.8 3.08-.15 6.16-.15 9.23-.15h1.37l11.82.07c4.59 0 10.47.07 13.9 3.58 2.66 2.72 2.66 8.17 2.66 11.69 0 3.58-.07 7.38-2.09 10.53-2.65 4.23-10.17 4.8-14.62 5.09l-10.25.65q-4.08.22-8.16.57c-1.22.07-4.3.28-5.45.71-2.3.87-2.3 2.44-2.3 4.52h43.63v10.97zm117.41-2.36c-4.73 3.43-16.11 2.93-21.78 2.93h-6.52c-5.87 0-15.54.43-20.56-2.94-3.37-2.3-3.65-6.88-3.65-10.6 0-3.15.28-6.52 2.58-8.89 1.72-1.79 4.37-2.15 6.74-2.58a17 17 0 0 1-3.3-.43c-4.8-1.29-5.45-6.02-5.45-10.32 0-6.95 2.08-11.04 9.32-12.19 5.95-.93 12.18-1 18.2-1q4.93 0 9.88.22c4.23.21 10.25.36 13.83 2.8 3.3 2.21 3.8 6.73 3.8 10.38 0 2.8-.36 6.02-2.22 8.17-1.72 2-4.01 2.22-6.52 2.37 2.59.43 4.8.72 6.74 2.58 2.5 2.37 2.58 6.52 2.58 9.75-.02 3.58-.52 7.52-3.67 9.74m-11.1-15.56c-1.07-1.07-5.02-1-6.39-1-2.58-.07-5.15-.15-7.73-.15-2.37 0-10.75-.22-12.33.93-1.07.79-1.07 2.59-1.07 3.8 0 1.07.07 2.3.94 3.09 1.64 1.43 10.46 1.07 12.53 1.07q3.76-.01 7.53-.15c1.78 0 6.08.22 7.02-1.87.35-.78.35-1.86.35-2.72 0-1-.07-2.28-.86-3m-6.38-19.55c-2.87-.07-5.66-.15-8.52-.15-2.94 0-6.02-.07-8.96.36-2.43.36-3.08 1.65-3.08 4.02 0 2.5.87 3.37 3.3 3.65 5.09.5 10.53.29 15.61.29 1.65 0 6.45 0 7.6-1.15.72-.72.72-2.08.72-3.02-.01-4.15-3.37-3.93-6.67-4" id="path1" style="fill:#ffffff"/><path fill="currentColor" fill-rule="evenodd" d="M.5 52.79h149.96v5.04H.5z" clip-rule="evenodd" style="fill:#ffffff" id="path2"/><path fill="currentColor" fill-rule="evenodd" d="M.5 63.78h149.96v5.04H.5z" clip-rule="evenodd" style="fill:#ffffff" id="path3"/><path fill="currentColor" fill-rule="evenodd" d="M.5 74.76h149.96v5.03H.5z" clip-rule="evenodd" style="fill:#ffffff" id="path4"/><path fill="currentColor" fill-rule="evenodd" d="M.5 85.73h149.96v5.04H.5z" clip-rule="evenodd" style="fill:#ffffff" id="path5"/><path fill="currentColor" fill-rule="evenodd" d="M.5 96.71h149.96v5.04H.5z" clip-rule="evenodd" style="fill:#ffffff" id="path6"/><path fill="currentColor" d="M292.65 13.65h-6.15v17.66h6.43v-9.23c0-2.4 1.47-3.62 4.15-3.62s3.35.8 3.48 3.08h6.03c0-6.02-.8-8.3-7.23-8.3-3.88 0-5.22.8-6.7 3.75zm29.58 14.18c-6.16 0-7.1-.53-7.1-3.61H332c-.27-8.57-.27-10.57-11.65-10.57-9.64 0-11.8 1.73-11.8 9.36 0 7.1 2.82 8.84 10.59 8.98 8.7 0 12.85-.4 12.85-6.16h-6.3c-.25 1.34-.78 2-3.46 2M315 20.48c.27-1.88.8-2.55 5.09-2.55 4.69 0 5.35.27 5.62 2.55zm-239.28.66h6.42c-.53-6.03-2.28-7.5-11.24-7.5-10.18 0-12.45 1.61-12.45 9.1 0 7.5 2.14 9.25 11.64 9.25 10.05 0 12.05-1.34 12.05-7.64h-6.42c0 1.75-.67 2.55-5.63 2.55-4.28 0-5.22-1.07-5.22-4.55 0-3.35.93-3.35 6.03-3.35 3.75 0 4.41.4 4.82 2.14m149.21 1.07c0-7.23-2.14-8.7-12.45-8.7-11.12 0-12.45 1.88-12.45 9.38s1.88 9.1 12.45 9.1c11.24 0 12.45-1.88 12.45-9.78m-18.34.4c0-3.61.8-4 5.5-4 5.22 0 6.15.12 6.15 4 0 3.63-.68 4.3-5.62 4.3-5.37 0-6.03-.54-6.03-4.3m76.02-.4c0-7.23-2.01-8.7-12.32-8.7-10.97 0-12.31 1.74-12.31 9.25 0 7.63 1.87 9.24 12.31 9.24 11.25-.01 12.32-1.89 12.32-9.79m-18.2.4c0-3.61.8-4 5.48-4 5.22 0 6.15.12 6.15 4 0 3.63-.66 4.3-5.62 4.3-5.34 0-6.02-.54-6.02-4.3m-153.77-.4c0-7.23-2.01-8.7-12.32-8.7-11.11 0-12.45 1.74-12.45 9.25 0 7.63 1.88 9.24 12.45 9.24 11.25-.01 12.32-1.89 12.32-9.79m-18.07.4c0-3.61.8-4 5.36-4 5.22 0 6.15.12 6.15 4 0 3.63-.67 4.3-5.62 4.3-5.22 0-5.89-.54-5.89-4.3m154.7-16.45v10.3c-1.46-2-2.8-3.07-8.15-3.07-8.57 0-10.17 2.28-10.17 9.24 0 7.1 2.28 9.1 10.57 9.1 5.23 0 6.84-1.33 8.03-3.6v3.21H254V6.16zm-4.68 12.3c3.61 0 4.82.54 4.82 3.35 0 4.28-.27 4.68-5.35 4.68-5.1 0-6.43-.13-6.43-3.74 0-4.15 1.6-4.29 6.96-4.29m-121.78-4.8h-6.02V31.3h6.43v-9.1c0-2.68 1.34-3.6 4.95-3.6 3.35 0 4.29 1.2 4.29 4.54v8.16h6.56v-9.37c0-2.54 2-3.34 5.09-3.34 2.94 0 4.28.8 4.28 3.34v9.37h6.42V20.87c0-5.21-3.2-7.63-9.1-7.63-5.08 0-6.96 1.87-7.63 3.89-1.34-2.28-3.21-3.9-8.3-3.9-4.82 0-6.16 1.62-6.96 4.56zm43.23 0H158V31.3h6.43v-9.1c0-2.68 1.6-3.6 4.82-3.6 3.35 0 4.28 1.06 4.28 4.54v8.16h6.56v-9.37c0-2.54 1.88-3.34 4.96-3.34 2.94 0 4.41.93 4.41 3.34v9.37h6.43V20.87c0-5.21-3.22-7.63-9.1-7.63-5.1 0-6.84 1.74-7.64 3.89-1.34-2.28-3.21-3.9-8.3-3.9-4.68 0-5.89 1.62-6.82 4.56zM29.39 33.58a12.2 12.2 0 0 1-18.12-10.62 12.18 12.18 0 0 1 18.12-10.63V.78Q26.53 0 23.44 0a22.95 22.95 0 1 0 5.95 45.13z" id="path7" style="fill:#ffffff"/><path fill="currentColor" d="M39.02 12.94h-9.64v9.18h10.84l9.18-9.18zM49.4 32.97l-9.18-9.18H29.38v9.19z" id="path8" style="fill:#ffffff"/></svg>