<svg xmlns="http://www.w3.org/2000/svg" viewBox="0 0 264 39"><path d="M25.16 11.12h16.1l-7.05 7.42h-9.05zm-.01 16.76h16.1l-7.05-7.42h-9.06zM24.81.77v9.34a10 10 0 0 0-5.5-1.53q-2.88 0-5.35 1.47-2.46 1.45-3.89 4a11 11 0 0 0-1.42 5.4 10.74 10.74 0 0 0 16.16 9.34v9.4q-2.67.81-5.5.81-5.16 0-9.63-2.63a19.5 19.5 0 0 1-7.07-7.15Q0 24.72 0 19.46q0-3.9 1.51-7.5A19.5 19.5 0 0 1 11.87 1.5Q15.35 0 19.32 0q2.75 0 5.49.77M67.66 20.9c-.08 2.32-.36 3.32-1.26 4.23-1.31 1.34-3 1.7-8.4 1.7-4.2 0-5.97-.3-7.33-1.3-1.34-.93-1.77-2.43-1.77-6.1 0-3.33.4-4.8 1.62-5.8 1.3-1.08 3.1-1.4 7.74-1.4 4.56 0 6.56.35 7.87 1.43 1.1.88 1.47 1.97 1.55 4.57h-5.2c-.18-1.57-1.2-2.1-4.21-2.1-3.57 0-4.24.55-4.24 3.45 0 1.82.3 2.52 1.22 2.9.6.27 1.71.41 3.07.41 3.02 0 3.9-.4 4.12-1.99zm18.74-7.38c1.39 1.02 1.78 2.28 1.78 5.77 0 3.8-.35 5.1-1.6 6.15-1.3 1.09-3.03 1.38-8.1 1.38-5.13 0-6.85-.3-8.14-1.38-1.29-1.05-1.61-2.34-1.61-6.36 0-3.25.4-4.56 1.78-5.56 1.26-.94 3.27-1.26 7.95-1.26 4.69 0 6.67.32 7.94 1.26m-12.54 6.12c0 1.85.25 2.46 1.17 2.84q.96.45 3.45.44c3.89 0 4.56-.5 4.56-3.43 0-1.87-.3-2.54-1.25-2.92a10 10 0 0 0-3.3-.42c-3.93 0-4.63.53-4.63 3.5m20.19-7.04v2.08h.26c.76-1.67 2.5-2.43 5.54-2.43 3.32 0 5.14.85 6.24 2.9.88-2.08 2.56-2.9 5.91-2.9 2.84 0 4.54.53 5.73 1.79 1.18 1.22 1.45 2.37 1.45 5.94v6.48h-5.13v-6.48c-.04-2.31-.1-2.57-.6-3.07-.5-.53-1.39-.77-2.88-.77-1.55 0-2.52.27-3.05.88-.6.65-.75 1.47-.75 3.72v5.72h-5.14v-6.48c0-2.16-.06-2.55-.55-3.07-.47-.53-1.37-.77-2.84-.77-1.56 0-2.56.27-3.13.85-.6.59-.76 1.47-.76 3.75v5.72h-5.13V12.6zm31.16 0v2.08h.25c.76-1.67 2.5-2.43 5.54-2.43 3.31 0 5.13.85 6.24 2.9.88-2.08 2.56-2.9 5.93-2.9 2.84 0 4.52.53 5.7 1.79 1.19 1.22 1.46 2.37 1.46 5.94v6.48h-5.14v-6.48c-.02-2.31-.08-2.57-.57-3.07-.53-.53-1.39-.77-2.9-.77-1.54 0-2.5.27-3.05.88-.6.65-.76 1.47-.76 3.72v5.72h-5.13v-6.48c0-2.16-.06-2.55-.55-3.07-.47-.53-1.37-.77-2.84-.77q-2.3-.01-3.13.85c-.6.59-.76 1.47-.76 3.75v5.72h-5.13V12.6zm43.89.91c1.4 1.02 1.76 2.28 1.76 5.77 0 3.8-.35 5.1-1.6 6.15-1.3 1.09-3 1.38-8.1 1.38-5.13 0-6.82-.3-8.13-1.38-1.27-1.05-1.6-2.34-1.6-6.36 0-3.25.41-4.56 1.78-5.56 1.27-.94 3.27-1.26 7.94-1.26 4.7 0 6.66.32 7.95 1.26m-12.53 6.12c0 1.85.22 2.46 1.16 2.84q.97.45 3.44.44c3.9 0 4.56-.5 4.56-3.43 0-1.87-.29-2.54-1.25-2.92a10 10 0 0 0-3.31-.42c-3.9 0-4.6.53-4.6 3.5m34.76 6.82h-4.82v-1.82h-.27c-.98 1.67-2.35 2.17-6.07 2.17-3.7 0-5.48-.38-6.67-1.46-1.13-1.06-1.47-2.47-1.47-5.92 0-3.52.55-5.19 2-6.15 1.25-.83 2.66-1.06 6.2-1.06 3.6 0 4.78.47 5.76 2.23h.2V6.93h5.14zm-14.17-7.1c0 3.05.57 3.52 4.44 3.52 1.88 0 3.27-.23 3.86-.64.58-.39.78-1.12.78-2.73 0-2.86-.68-3.4-4.34-3.4-4.04 0-4.74.48-4.74 3.26m32.76-5.86c1.4 1.02 1.78 2.28 1.78 5.77 0 3.8-.34 5.1-1.6 6.15-1.3 1.09-3.02 1.38-8.1 1.38-5.12 0-6.82-.3-8.13-1.38-1.29-1.05-1.6-2.34-1.6-6.36 0-3.25.41-4.56 1.76-5.56 1.3-.94 3.3-1.26 7.96-1.26 4.7 0 6.66.32 7.93 1.26m-12.51 6.12c0 1.85.22 2.46 1.16 2.84q.94.45 3.44.44c3.88 0 4.56-.5 4.56-3.43 0-1.87-.29-2.54-1.25-2.92a10 10 0 0 0-3.31-.42c-3.9 0-4.6.53-4.6 3.5m20.19-7.04v2.08h.26c.94-1.76 2.4-2.43 5.27-2.43 4.14 0 5.53 1.4 5.53 5.57v.93h-4.83c0-2.05-.6-2.6-2.7-2.6-1.16 0-2.13.35-2.62 1-.49.66-.63 1.43-.63 3.57v5.74h-5.13V12.6zm30.36 9.44c-.39 3.83-2.27 4.77-9.61 4.77-3.97 0-5.85-.35-7.1-1.29-1.35-1.02-1.74-2.4-1.74-5.95 0-3.72.4-5.1 1.84-6.12 1.35-.94 3.05-1.23 7.53-1.23 4.62 0 6.26.3 7.5 1.32 1.21 1.02 1.69 2.57 1.69 5.71 0 .18 0 .82-.03 1.4h-13.41c0 1.41.16 1.88.65 2.26.55.41 1.62.6 3.48.6 3.27 0 3.88-.24 4.09-1.47zm-5.05-4.23c-.04-1.08-.1-1.34-.4-1.67-.48-.5-1.52-.7-3.55-.7-3.45 0-4.27.44-4.33 2.38z" style="fill-opacity:1;fill:#fff"/><path d="M254.52 23.65v-8.47l1.31-.37v8.84zm6.5.17q-.8 0-1.45-.34a2.5 2.5 0 0 1-1.03-1 3 3 0 0 1-.37-1.5q0-.62.18-1.2.2-.6.79-1.71t1.92-3.3l1.11.65a55 55 0 0 0-1.97 3.17q.2-.16.5-.27.31-.1.72-.1a2.5 2.5 0 0 1 2.26 1.34q.32.6.32 1.33 0 .9-.38 1.58-.37.66-1.06 1-.68.36-1.55.35m.08-1.14q.73 0 1.15-.47t.42-1.2q0-.78-.44-1.23-.43-.45-1.1-.45-.75 0-1.19.46-.44.45-.44 1.24 0 .72.46 1.18.45.47 1.14.47" style="fill:#fff;white-space:pre"/></svg>