<?xml version="1.0" encoding="UTF-8" standalone="no"?><svg fill="none" viewBox="0 0 267 131" version="1.1" id="svg6" xmlns="http://www.w3.org/2000/svg" xmlns:svg="http://www.w3.org/2000/svg"><path fill="currentColor" d="M131.83 75.18h34.56l-15.13 15.18h-19.43zm-.04 34.27h34.56l-15.13-15.18h-19.43zM0 53.82l10.85 76.7h26.84l10.85-76.76H32.43l-8.16 59.98-8.16-59.98H.13c-.06 0-.06.12-.1.15zm178.93 27.64h13.7c0-12.63.01-15.56 3.36-15.56.5-.06 2.38.07 2.38.07 3.29-.07 2.85 3.25 2.93 18.06.22 5.66-3.23 6.88-9.13 9.76-7.96 4.7-13.47 6.92-13.2 14.04l-.13 21.5h36.6v-11.57h-22.46l-.34-7.07c0-1.98 1.27-2.38 11.11-8.2 13.15-7.76 11.28-7.45 11.33-21.04-.3-23.2 1.73-25.92-18.08-25.92-18.44 0-17.77 2.7-18.07 25.73zm68.95-27.39c-20.95 0-18.34 4.42-18.34 36.98v1.7c0 32.56-2.61 36.98 18.34 36.98 20.91 0 18.3-4.42 18.3-36.99v-1.69c0-32.57 2.61-36.98-18.3-36.98m.02 10.85c5.98.02 5.98 2.73 6.07 27.3-.09 24.63-.09 27.28-6.18 27.31-6.12-.04-6.13-2.6-5.9-27.3-.04-24.49.02-27.32 6-27.3m-116.17 64.58a41 41 0 0 1-10.09 1.24c-19.96-.52-37.85-15.03-40.15-34.69q-.23-1.95-.24-3.9c.63-22.82 20.18-38.3 40.4-38.43q5.04 0 10.1 1.17l-.02 18.05a22 22 0 0 0-10.09-2.28c-11.85.07-22.17 9.18-22.3 21.48.42 12.3 12.28 21.13 22.3 21.34 3.63.07 7-.74 10.1-2.2zm-74.25 1.02h15.74l.23-76.77h-16.1v76.61c0 .16 0 .16.13.16M17.81.37a17.81 17.81 0 1 0 5.42 34.78v-8.91a10 10 0 0 1-5.04 1.35c-5.42 0-9.8-4.23-9.8-9.41s4.41-9.42 9.8-9.42c1.86 0 3.59.51 5.04 1.36v-8.9a18 18 0 0 0-5.42-.85M30.72 17.6H23.4v-6.2h13.28zm0 1.26H23.4v6.2h13.28z" id="path1" style="fill:#ffffff"/><path fill="currentColor" fill-rule="evenodd" d="M30.35 7.07a2.01 2.01 0 1 1-2.84-2.85 2.01 2.01 0 0 1 2.84 2.85m-2.6-2.61a1.67 1.67 0 0 0 1.18 2.86 1.68 1.68 0 1 0-1.19-2.86" clip-rule="evenodd" id="path2" style="fill:#ffffff"/><path fill="currentColor" fill-rule="evenodd" d="M29.86 6.48q0 .08.06.1l.03.01v.13h-.43l-.02-.02-.02-.06V6.6l-.02-.17-.02-.36q0-.18-.13-.24l-.24-.04h-.61v.92h-.39V4.48h1.04q.25 0 .43.08.33.15.33.55 0 .2-.09.34l-.17.16q.09.05.14.11.06.1.08.3v.3zm-.48-1.1q.1-.06.1-.25 0-.2-.14-.26l-.22-.04h-.66v.63h.62q.2 0 .3-.07" clip-rule="evenodd" id="path3" style="fill:#ffffff"/><path fill="currentColor" d="M65.89 27.35q3.22-.02 5.27-1.73 2.07-1.74 2.12-4.88-.05-3.18-2.12-4.93a7.8 7.8 0 0 0-5.27-1.73q-3.23.02-5.27 1.73c-1.39 1.12-2.08 2.8-2.12 4.93q.05 3.18 2.12 4.88a8 8 0 0 0 5.27 1.73m0-3.07q-1.5-.05-2.2-1.08-.72-1.03-.65-2.5 0-1.49.64-2.51.66-1.03 2.2-1.09 1.5.06 2.21 1.09.72 1.02.65 2.5a4.7 4.7 0 0 1-.65 2.51q-.7 1.04-2.2 1.08m9.16 2.77h4.41v-5.36c0-1.34.22-2.38.65-3.03a2 2 0 0 1 1.82-.95c.6 0 1.08.26 1.34.73q.41.72.43 1.82v6.83h4.41v-5.36c0-1.34.22-2.38.65-3.03a2 2 0 0 1 1.81-.95c.6 0 1.08.26 1.34.74.26.47.44 1.08.44 1.81v6.83h4.4v-7.47a7.4 7.4 0 0 0-.86-4.07c-.6-.95-1.81-1.47-3.63-1.47q-1.36-.01-2.55.56a4.7 4.7 0 0 0-1.95 1.86 4 4 0 0 0-1.55-1.86 5.6 5.6 0 0 0-5.14.04 4.5 4.5 0 0 0-1.9 2h-.05v-2.34H75.1zm24.08 0h4.41v-5.36c0-1.34.22-2.38.65-3.03a2 2 0 0 1 1.82-.95c.6 0 1.08.26 1.34.73q.41.72.43 1.82v6.83h4.4v-5.36c0-1.34.23-2.38.66-3.03a2 2 0 0 1 1.81-.95c.6 0 1.08.26 1.34.74.26.47.44 1.08.44 1.81v6.83h4.4v-7.47a7.4 7.4 0 0 0-.86-4.07c-.6-.95-1.81-1.47-3.63-1.47q-1.37-.01-2.55.56a4.7 4.7 0 0 0-1.95 1.86 4 4 0 0 0-1.55-1.86 5.6 5.6 0 0 0-5.14.04 4.5 4.5 0 0 0-1.9 2h-.05v-2.34h-4.02zm30.83.3q3.22-.02 5.27-1.73 2.07-1.74 2.12-4.88-.05-3.18-2.12-4.93a7.8 7.8 0 0 0-5.27-1.73q-3.22.02-5.28 1.73c-1.38 1.12-2.07 2.8-2.12 4.93q.06 3.18 2.12 4.88a8 8 0 0 0 5.28 1.73m0-3.07q-1.5-.05-2.2-1.08-.72-1.03-.66-2.5 0-1.49.65-2.51.66-1.03 2.2-1.09 1.5.06 2.21 1.09.72 1.02.65 2.5a4.7 4.7 0 0 1-.65 2.51c-.47.7-1.16 1.04-2.2 1.08m22.87-15.52h-4.41v7.22h-.05a4.6 4.6 0 0 0-1.94-1.51 6 6 0 0 0-2.42-.43q-2.66.1-4.02 2.03a7.5 7.5 0 0 0-1.39 4.36c0 1.95.52 3.55 1.47 4.85q1.48 1.95 4.33 2.03 1.55-.01 2.72-.74a4 4 0 0 0 1.64-1.81h.05v2.29h4.06zm-9.77 11.8q-.02-1.3.69-2.2a2.52 2.52 0 0 1 3.93 0q.73.89.74 2.38c0 .95-.3 1.73-.78 2.33q-.72.9-1.9.9-1.24-.02-1.95-.94a4 4 0 0 1-.73-2.47m18.8 6.79q3.22-.02 5.28-1.73 2.06-1.74 2.12-4.88-.06-3.18-2.12-4.93a7.8 7.8 0 0 0-5.28-1.73c-2.16 0-3.89.6-5.27 1.73q-2.07 1.75-2.12 4.93.05 3.18 2.12 4.88a8 8 0 0 0 5.27 1.73m0-3.07q-1.5-.05-2.2-1.08c-.44-.7-.7-1.51-.65-2.5q0-1.49.65-2.51.64-1.03 2.2-1.09 1.5.06 2.2 1.09c.44.69.7 1.5.66 2.5 0 .95-.22 1.82-.65 2.51q-.66 1.04-2.2 1.08m18.5-10.08a4 4 0 0 0-.74-.08q-.39-.05-.78-.04-1.44.01-2.29.73a5.5 5.5 0 0 0-1.47 1.9h-.04v-2.33h-4.02V27.1h4.4v-5.36q0-1.89.83-2.94a2.9 2.9 0 0 1 2.38-1.04h.73q.37 0 .73.13zm13.79 7.79v-.82a8 8 0 0 0-1.43-4.97c-1-1.39-2.64-2.08-4.97-2.16-2.03 0-3.63.6-4.89 1.72-1.25 1.17-1.9 2.77-1.9 4.89q.05 3.19 2.12 4.89a8 8 0 0 0 5.27 1.77q1.24 0 2.42-.18c.78-.13 1.56-.34 2.25-.6v-3.11c-.65.34-1.34.6-1.99.73q-.99.24-1.9.22a5 5 0 0 1-2.6-.56q-.96-.59-1.16-1.86zm-8.87-2.5a3.2 3.2 0 0 1 .65-1.87q.6-.77 1.77-.77c.87 0 1.52.25 1.86.77q.58.77.56 1.86zM49.12 27.18a9 9 0 0 1-4.59-2.73 8 8 0 0 1-2.12-4.7c-.64-4.24 1.17-8.14 4.67-9.82 1.78-.87 4.15-1.3 6.53-1.3 1.47 0 2.77.26 3.98.48l-.39 3.8s-.3-.09-1.17-.3a10 10 0 0 0-2.46-.3 7 7 0 0 0-4.28 1.25c-2.47 1.9-2.47 6.87.08 8.95 1.56 1.3 4.37 1.73 6.88 1.08l1.17-.3.34 3.84c-.73.18-2.29.48-4.2.48-2.5 0-3.28-.09-4.44-.43" id="path4" style="fill:#ffffff"/><path fill="currentColor" fill-rule="evenodd" d="M197.5 16.3a1.38 1.38 0 1 1-1.95-1.96 1.38 1.38 0 0 1 1.95 1.96m-1.8-1.8a1.15 1.15 0 0 0 0 1.63 1.16 1.16 0 1 0 0-1.63" clip-rule="evenodd" id="path5" style="fill:#ffffff"/><path fill="currentColor" fill-rule="evenodd" d="M197.16 15.9q.02.04.05.06h.02v.1h-.3l-.01-.02-.02-.04v-.02l-.01-.12-.01-.25q0-.12-.1-.16l-.16-.02h-.42v.63h-.27v-1.54h.72q.18 0 .3.05.22.1.22.38 0 .14-.06.23l-.11.11.09.08q.05.07.05.2l.01.2zm-.32-.76q.06-.05.06-.17 0-.15-.1-.19l-.14-.03h-.46v.44h.43q.14 0 .2-.05" clip-rule="evenodd" id="path6" style="fill:#ffffff"/></svg>