<svg xmlns="http://www.w3.org/2000/svg" viewBox="0 0 264 38"><path d="M24.84 10.84h15.89l-6.96 7.23h-8.94zm-.02 16.33h15.9l-6.97-7.24h-8.93zM24.49.75v9.1q-2.43-1.5-5.42-1.5-2.85 0-5.29 1.44-2.43 1.43-3.83 3.9-1.4 2.45-1.4 5.27 0 2.84 1.4 5.27 1.4 2.4 3.85 3.84 2.44 1.42 5.27 1.42 2.96 0 5.42-1.43v9.15q-2.64.8-5.42.79-5.1 0-9.51-2.56A19.1 19.1 0 0 1 0 18.96q0-3.8 1.5-7.3a19 19 0 0 1 10.22-10.2A19 19 0 0 1 19.07 0q2.7 0 5.42.75m42.3 19.61c-.08 2.26-.36 3.23-1.25 4.12-1.3 1.31-2.95 1.66-8.28 1.66-4.16 0-5.9-.3-7.25-1.26-1.31-.91-1.74-2.37-1.74-5.94 0-3.26.4-4.69 1.6-5.65 1.29-1.06 3.06-1.37 7.64-1.37 4.5 0 6.47.34 7.77 1.4 1.09.85 1.45 1.91 1.53 4.45h-5.15c-.17-1.54-1.17-2.06-4.15-2.06-3.52 0-4.18.54-4.18 3.37 0 1.77.3 2.46 1.2 2.83.6.26 1.7.4 3.04.4 2.98 0 3.84-.4 4.07-1.95zm18.49-7.19c1.37 1 1.76 2.23 1.76 5.62 0 3.72-.35 4.98-1.58 6-1.29 1.06-2.98 1.35-8 1.35-5.06 0-6.75-.3-8.03-1.35-1.27-1.02-1.6-2.28-1.6-6.2 0-3.16.41-4.45 1.77-5.42 1.25-.91 3.22-1.23 7.85-1.23s6.58.32 7.83 1.23m-12.37 5.97c0 1.8.24 2.4 1.15 2.77q.94.43 3.4.43c3.84 0 4.51-.5 4.51-3.35 0-1.82-.3-2.48-1.23-2.85-.65-.26-1.84-.4-3.27-.4-3.88 0-4.56.51-4.56 3.4m19.92-6.85v2.02h.26c.75-1.62 2.47-2.37 5.47-2.37 3.27 0 5.07.83 6.16 2.83.87-2.03 2.53-2.83 5.84-2.83 2.8 0 4.48.52 5.65 1.74 1.17 1.2 1.43 2.32 1.43 5.8v6.31h-5.07v-6.31c-.04-2.25-.1-2.51-.58-3-.5-.51-1.37-.74-2.85-.74-1.53 0-2.48.26-3 .86-.6.63-.75 1.42-.75 3.62v5.57h-5.07v-6.31c0-2.11-.06-2.48-.54-3-.47-.51-1.36-.74-2.81-.74-1.54 0-2.53.26-3.09.83-.58.57-.75 1.43-.75 3.65v5.57h-5.06v-13.5zm30.77 0v2.02h.24c.74-1.62 2.46-2.37 5.47-2.37 3.27 0 5.07.83 6.16 2.83.87-2.03 2.52-2.83 5.85-2.83 2.8 0 4.46.52 5.63 1.74 1.17 1.2 1.44 2.32 1.44 5.8v6.31h-5.07v-6.31c-.02-2.25-.08-2.51-.57-3-.52-.51-1.37-.74-2.86-.74-1.52 0-2.47.26-3.01.86-.59.63-.75 1.42-.75 3.62v5.57h-5.06v-6.31c0-2.11-.07-2.48-.55-3-.47-.51-1.35-.74-2.8-.74q-2.26-.01-3.1.83c-.58.57-.74 1.43-.74 3.65v5.57h-5.07v-13.5zm43.32.88c1.37 1 1.73 2.23 1.73 5.62 0 3.72-.34 4.98-1.57 6-1.3 1.06-2.97 1.35-8 1.35-5.06 0-6.74-.3-8.03-1.35-1.25-1.02-1.57-2.28-1.57-6.2 0-3.16.4-4.45 1.75-5.42 1.25-.91 3.23-1.23 7.84-1.23 4.64 0 6.58.32 7.85 1.23m-12.38 5.97c0 1.8.22 2.4 1.15 2.77q.96.43 3.4.43c3.85 0 4.5-.5 4.5-3.35 0-1.82-.29-2.48-1.24-2.85a10 10 0 0 0-3.26-.4c-3.86 0-4.55.51-4.55 3.4m34.32 6.65h-4.76v-1.77h-.27c-.96 1.63-2.32 2.12-5.99 2.12-3.66 0-5.41-.38-6.58-1.43-1.11-1.03-1.45-2.4-1.45-5.77 0-3.43.54-5.05 1.97-6 1.23-.8 2.63-1.02 6.12-1.02 3.55 0 4.72.45 5.7 2.17h.2V6.75h5.06zm-13.99-6.9c0 2.96.57 3.41 4.38 3.41 1.86 0 3.23-.22 3.82-.62.56-.38.76-1.1.76-2.66 0-2.8-.66-3.3-4.28-3.3-4 0-4.68.45-4.68 3.16m32.34-5.71c1.37 1 1.76 2.23 1.76 5.62 0 3.72-.34 4.98-1.58 6-1.29 1.06-2.98 1.35-8 1.35-5.06 0-6.73-.3-8.03-1.35-1.27-1.02-1.57-2.28-1.57-6.2 0-3.16.4-4.45 1.74-5.42 1.27-.91 3.25-1.23 7.85-1.23 4.64 0 6.58.32 7.83 1.23m-12.35 5.97c0 1.8.22 2.4 1.15 2.77q.91.43 3.39.43c3.83 0 4.5-.5 4.5-3.35 0-1.82-.28-2.48-1.23-2.85a10 10 0 0 0-3.27-.4c-3.86 0-4.54.51-4.54 3.4m19.92-6.85v2.02h.26c.93-1.71 2.37-2.37 5.21-2.37 4.08 0 5.45 1.38 5.45 5.43v.91h-4.76c0-2-.59-2.54-2.66-2.54-1.16 0-2.1.34-2.59.97-.48.66-.62 1.4-.62 3.48v5.6H210v-13.5zm29.98 9.19c-.38 3.74-2.24 4.66-9.49 4.66-3.92 0-5.77-.35-7-1.26-1.34-1-1.72-2.35-1.72-5.8 0-3.63.38-4.97 1.82-5.96 1.33-.92 3-1.2 7.42-1.2 4.57 0 6.18.28 7.41 1.28 1.2 1 1.66 2.51 1.66 5.57 0 .17 0 .8-.02 1.36H231.6c0 1.38.16 1.83.64 2.2.55.4 1.6.58 3.44.58 3.22 0 3.83-.23 4.03-1.43zm-4.99-4.11c-.04-1.06-.1-1.31-.4-1.63-.47-.49-1.5-.69-3.5-.69-3.4 0-4.21.43-4.27 2.32z" style="fill-opacity:1;fill:#fff"/><path d="M253.42 23.24q-.78 0-1.42-.34a2.5 2.5 0 0 1-1.02-.97 3 3 0 0 1-.37-1.47q0-.6.18-1.17t.78-1.66 1.9-3.22l1.1.64a52 52 0 0 0-1.95 3.1q.18-.17.49-.28.3-.1.7-.1.77 0 1.35.36.57.36.9.96.3.6.3 1.29 0 .89-.37 1.54t-1.05.98-1.52.34m.08-1.12q.72 0 1.13-.45.42-.45.42-1.18 0-.75-.43-1.18-.43-.45-1.09-.44-.72 0-1.17.44-.45.45-.44 1.2a1.56 1.56 0 0 0 1.58 1.61m8 .95v-2.1h-3.84l2.41-6.56 1.19.45-1.82 4.92h2.06l.07-1.9h1.26v1.9H264v1.2h-1.17v2.09z" style="fill:#fff;white-space:pre"/></svg>