<?xml version="1.0" encoding="UTF-8" standalone="no"?><svg viewBox="0 0 919 429.6" version="1.1" id="svg2" xmlns="http://www.w3.org/2000/svg" xmlns:svg="http://www.w3.org/2000/svg"><path fill="currentColor" fill-opacity=".99" d="M284.77 129.29h19.18V51.03c0-5.1-.38-12.29-1.33-21.58.38 1.57 1.33 7.54 3.23 17.54L322 129.3h10.26l16.9-82.3c.75-3.33 1.7-9.12 3.22-17.55-1.14 10.89-1.52 18.08-1.52 21.59v78.26h19.37V5.41h-27.91L329.4 74.19a98 98 0 0 0-1.9 18.43c0-6.67-.57-12.99-1.71-18.6L312.3 5.4h-27.54zm106.34 0h20.7V78.93h14.24c16.52 0 27.72-13.51 27.72-37.73 0-25.27-9.87-35.8-32.28-35.8h-30.38zm20.7-68.08V23.3h7.4c10.45 0 13.49 4.38 13.49 18.24 0 14.4-2.47 19.66-12.73 19.66zm54.87-55.8v92.12c0 22.64 11.4 34.4 31.9 34.4 20.13 0 31.71-11.94 31.71-33.87V5.4h-21.07v95.98c0 7.55-4.18 11.76-10.45 11.76s-11-4.22-11-11.76V5.41zm71.78 17.9h21.46v105.98h20.7V23.3h21.64V5.4h-63.8zm73.1 105.98h53.93v-18.6h-33.23V73.67h23.93v-17.9h-23.93V23.3h33.23V5.4h-53.92zm90.39-52.12h9.88l12.72 52.12H746l-15.19-57.55c9.69-6.32 13.1-15.8 13.1-30.54 0-25.44-9.87-35.8-32.27-35.8h-30.39v123.9h20.7zm0-53.87h7.4c10.07 0 13.49 4.04 13.49 17.2 0 13.69-2.66 18.78-12.72 18.78h-8.17zm52.4 74.58c.96 21.76 14.06 34.22 34.19 34.22 18.42 0 32.09-12.64 32.09-30.89 0-17.2-8.93-26.5-23.17-39.3-11.77-10.53-20.7-18.08-20.7-29.3 0-7.03 4.56-11.41 11.02-11.41 7.6 0 10.63 4.74 11.4 15.44l20.12-2.63C817.78 14.7 805.44 3.3 788.35 3.3c-17.47 0-32.1 13.16-32.1 31.06 0 16.32 10.64 26.5 25.64 40.36 11.01 10.17 18.61 16.5 18.61 26.85 0 7.19-5.13 11.93-12.72 11.93-8.74 0-12.91-5.97-13.67-18.43zm-672.07-.35c0 22.64 10.82 34.4 31.71 34.4 20.13 0 31.9-11.94 31.9-33.87V85.07h-21.27v16.85c0 8.6-3.6 12.98-10.63 12.98s-10.63-4.39-10.63-12.98V32.78c0-8.6 3.6-12.81 10.63-12.81s10.63 4.21 10.63 12.8v13.7h21.27V34.53c0-20-12.34-31.76-31.14-31.76-20.5 0-32.47 11.94-32.47 31.24zm534.14 330.55V392h31.75l52.5-73.51-52.5-67.84h-29.58V214.6h110.72v34.07h-20.6l32.06 39.75 29.11-39.75h-19.51V214.6h95.54v36.06h-29.88l-51.1 70.14 56.36 71.21h30.97v36.07H737.98v-34.69h21.53l-33.76-43.74-32.05 43.74h22.14v34.69zm-219.93 0V392h28.8V250.66h-28.8V214.6h90.28l79.43 133.2v-97.15h-28.03V214.6h96.63v36.06h-30.2v178.95h-48l-92.92-158.23v120.63h27.1v36.07zm-153.36 0V392h30.2v-57.7l-58.38-83.65h-26.32V214.6H296.4v36.06h-21.2l31.59 52.18 32.05-52.18H316.7V214.6h94.92v36.06h-26.48l-55.74 83.65V392h30.04v36.07zm-204.02 0V392h30.81V250.66H39.11V214.6h118.3v36.06h-31.43v141.35h63.64v-66h41.97v102.07z" id="path1" style="fill:#ffffff"/><path fill="currentColor" d="M260 128.44c-25.52-54.72-46.7-99.69-47.06-99.91-.36-.23-14.89 30.06-32.27 67.31l-31.61 67.72-74.53.26-74.53.26v-10l70.53-.26 70.53-.26 35.84-76.78L212.74 0l46.76 100.28a57111 57111 0 0 0 46.92 100.48c.08.12 5.54-11.36 12.14-25.5l11.99-25.7 294.22-.25 294.23-.25v10l-290.2.25-290.2.25-7.05 15.02c-13.63 29.04-17.33 37.1-20.52 44.75-1.77 4.25-3.54 7.93-3.93 8.17s-21.6-44.33-47.1-99.06" id="path2" style="fill:#ffffff"/></svg>