<svg xmlns="http://www.w3.org/2000/svg" viewBox="0 0 553.06 116.79"><path d="M65.54 2.27c-7.66.42-14.96 3.56-21.4 7.59-13.7 8.9-23.24 22.74-31.04 36.82A87 87 0 0 0 2.54 84.56c-.18 5.47.23 11.53 4.08 15.82 3.74 4.46 9.03 7.93 14.9 8.57 5.37-.25 10.56-2.1 15.48-4.19 9-3.95 16.65-10.5 22.62-18.26 4.18-5.25 7.85-10.9 12.51-15.76.9-1 2.31-2.9.73-3.94-2.45-1.57-5.54-.72-8.26-.92-4.55-.16-9.33 1.34-12.26 4.97-4.85 5.66-9.45 12.3-16.69 14.96-2.92 1.03-6.96 1.7-9.16-1.1-2.34-3.3-2.09-7.59-2.18-11.42-.18-6.08 1.76-11.93 4.32-17.38 3.61-8.18 7.87-16.3 14.48-22.48 3.96-3.9 8.24-8.22 13.97-9.18 2.1-.4 4.07.93 4.96 2.73 1.75 2.41 2.66 5.33 4.34 7.79 1.05.65 2.31-.53 3.43-.6 4.94-1.57 10.2-2.48 14.73-5.1 1.77-.97 2.03-3.23 1.32-4.95a64 64 0 0 0-7.81-15.94C75.26 4.2 70.3 2.14 65.54 2.27m57.33 40.93c-6.35.1-12.22 3.12-17.47 6.43-9.58 6.54-17.36 15.92-21.56 26.77-1.46 4.38-2.57 9.65-.12 13.9 1.51 2.58 4.67 3.3 7.45 3.1 5.49-.01 10.56-2.44 15.54-4.43.97-.07.56 1.45.93 2.03a3.83 3.83 0 0 0 5.31 2.58c2.4-.79 4.99-1.77 6.7-3.7 2.05-4.28 2-9.29 4.31-13.43 3.21-6.55 8.1-12.09 11.5-18.51a8.1 8.1 0 0 0-1.38-9.12c-2.61-3.27-6.48-5.83-10.8-5.62zm-5.91 14.26c1.2-.15 2.07.96 1.72 2.12-.51 5.06-3.8 9.3-6.97 13.07-3.23 3.38-6.65 7.32-11.42 8.43-1.92.57-3.45-1.37-3.08-3.16.7-4.74 3.78-8.66 6.76-12.23 3.41-3.68 7.6-7.12 12.6-8.21zm63.72-13.61c-6.29.12-11.9 3.53-16.64 7.39.3-2.02 2.22-5.02-.05-6.5-2.89-.72-6.2-.3-8.85 1.1-4.43 3.23-6.28 8.75-8.84 13.38-4.23 9.08-9.1 17.95-12.12 27.52-.33 1.52-.78 3.48.13 4.77 5.23.08 10.19-2.7 14.01-6.08 1.94-1.67 3.49-3.8 3.81-6.39a49.5 49.5 0 0 1 11.4-18.08c3.22-2.73 7-5.3 11.28-5.9 2.53-.1 2.39 3.11 2 4.8-2.33 8.14-7.18 15.36-9.55 23.53-.62 2.73-2.22 6.2-.33 8.74 1.83 1.62 4.28-.47 6.07-1.15 3.27-1.72 6.97-3.73 7.97-7.58 2.38-7.15 4.68-14.32 7.64-21.26 1.68-4.76 3.61-10.94-.02-15.3-1.9-2.33-5.02-3.1-7.91-2.99m57.25-.51c-6.7.46-13.06 3.7-17.98 8.2.67-2.1 2.47-4.52 1.45-6.75-2.31-2.27-5.82-.36-8.39.36-5.67 2.23-7.84 8.56-10.49 13.51-4.17 9.3-8.89 18.45-11.74 28.27-.3 1.45-1.07 4.38 1.1 4.68 3.96-.52 7.6-2.6 11-4.64 4.97-3.68 5.84-10.34 8.96-15.35 4.1-7.78 10.72-14.88 19.38-17.25 1.94.05 2.7 2.77 2.34 4.4-2.82 9.58-8.6 18.13-10.83 27.92-.18 1.97-.84 5 1.23 6.19 2.68-.3 4.98-2.17 7.4-3.27 3.81-1.82 6.34-5.47 7.22-9.53 1.96-7.4 5.33-14.27 7.68-21.52 1.46-4.37 1.26-9.86-2.52-13.02a7.6 7.6 0 0 0-5.81-2.2m51.06.68c-13.8.3-26.3 9.18-33.6 20.51-3.49 5.57-6.23 12.02-5.53 18.73.46 5.05 5.08 9.67 10.3 9.46 9.62-.04 18.74-4.62 26.04-10.63 6.22-5.48 12.6-11.46 15.72-19.33 1.52-4.73 1.94-10.63-1.67-14.55-2.36-3.09-6.25-4.45-10.06-4.2zm-2.17 10.27c2.9.13 3.16 3.8 2.69 5.93-1.7 7.83-7.07 14.66-13.73 18.97-3.36 1.76-7.67 3.44-11.27 1.59-2.38-2.61-.93-6.5.17-9.35 3.47-7.8 9.92-14.84 18.6-16.6 1.16-.28 2.34-.55 3.54-.54m63.9-10.58c-6.28.16-11.92 3.5-16.63 7.41.4-1.99 2.2-5.01-.17-6.39-3.96-.93-8.62.21-11.29 3.44-3.8 4.48-5.69 10.23-8.43 15.36-3.67 8.1-7.83 16.08-10.38 24.63-.6 1.47.08 3.74 1.99 3.47a25 25 0 0 0 14.08-7.73c2.26-2.67 2.07-6.54 4.1-9.37 4.37-7.61 9.78-15.52 18.13-19.11 1.55-.74 4.6-1.38 5.03.86.12 4.85-2.57 9.25-4.36 13.59-2.86 6.44-6.35 12.97-6.85 20.12.2 1.57 1.6 3.57 3.38 2.55 4.05-1.9 8.94-3.58 11.14-7.8 2.49-6.2 3.97-12.8 6.76-18.92 2.22-5.52 5.22-12.08 2.19-17.9-1.7-3.02-5.36-4.33-8.69-4.21M421.88 2.9c-11.49.1-22.72 3.32-33.42 7.26-4.64 2.08-9.84 3.79-13.35 7.63-1.22 1.34.17 3.02 1.72 2.95 2.74.6 5.78.24 8.36 1.23-1.7 5.23-4.67 10.08-6.83 15.19-7.63 16.93-14.93 34.13-19.87 52.07-1.25 3.77-.51 8.91-4.36 11.3-2.45 1.36-5.91 1.66-7.51 4.25-.84 2.64 2.5 3.6 4.46 3.95 7.7 1.59 15.62.53 23.4.38 13.68-.94 27.17-4.38 39.81-9.62 6.7-2.96 11.82-9.76 12.33-17.13.33-6.56-3.27-12.64-8.17-16.76-3.26-3.39-7.87-4.82-11.45-7.71 5.3-3.48 11.23-6.16 16.3-10.08 8.29-6.16 16.54-13.18 21.18-22.59 1.65-3.94 1.8-8.64.31-12.65-3.25-5.33-9.1-9.1-15.41-9.4-2.5-.26-5-.29-7.5-.28m-4.26 12.4c3.6-.05 8.37.32 9.95 4.21 1.08 2.68.52 5.72.1 8.44-2.86 8.24-10.76 13.1-17.82 17.43-5.87 3.2-12.11 6.57-18.78 7.23-2.61.16-2.57-3.02-1.99-4.8a107 107 0 0 1 9.28-22.3c2.6-4.82 7.01-8.99 12.63-9.72a39 39 0 0 1 6.63-.49m-26.94 50.37c5.7.68 11.28 3 15.66 6.75 3.52 3.09 5.34 8.75 2.32 12.79-2.32 3.44-6.75 4.5-10.32 6.02-6 1.97-12.33 3.65-18.68 3.45-1.13-.04-2.85-.36-2.35-1.92.97-7.52 3-14.94 5.5-22.1a7.66 7.66 0 0 1 7.87-5m82.29-22.63c-9.52.95-17.89 6.56-24.95 12.68-8.3 7.62-14.62 18.1-15.6 29.48-.57 4.36 3.62 7.48 7.57 7.9 6.06 1 11.8-2.08 17.15-4.21.94 1.9 1.52 5.3 4.34 4.96 3.1-.5 6.43-1.81 8.38-4.36 1.69-3.79 1.76-8.1 3.48-11.9 2.96-7.93 10.9-13.19 12.62-21.7 1.05-3.6-1.4-6.84-4.06-8.98-2.53-2.02-5.56-3.95-8.93-3.87m-5.7 14.23c2.24.23 1.54 3.11 1.02 4.54-2.73 6.95-7.72 12.97-13.7 17.4-2.06 1.2-5.26 2.96-7.32.97-1.06-3.2 1.17-6.38 2.72-9.04 3.93-5.67 8.99-11.11 15.57-13.62a5 5 0 0 1 1.71-.25m52.03-26.43c-4.37.4-8.39 2.79-11.75 5.5-5.3 6.18-8.7 13.71-12.41 20.9a743 743 0 0 0-12.3 27.96c-.72 2.33-2.51 5.72-.16 7.66 2.38.57 4.55-1.52 6.7-2.24 3.86-1.83 8.44-3.85 9.62-8.4 4.22-12.86 10.06-25.12 16.2-37.17 1.91-4.03 5.08-7.59 6.03-12 .06-1.12-.64-2.4-1.92-2.21m28.11 1.08a14.8 14.8 0 0 0-12.8 6.73c-6.64 9.77-11.11 20.79-16.3 31.35-2.82 6.5-6.42 12.8-7.94 19.78-.52 1.73 1 4.12 2.96 3.14 4.3-1.51 8.96-3.16 12.15-6.57 2.91-4.62 4-10.13 6.4-15 5.2-12.28 10.69-24.42 17.72-35.77.86-1.03 1.72-3.52-.42-3.56q-.88-.11-1.77-.1" opacity=".98" style="fill:#fff"/></svg>