<svg xmlns="http://www.w3.org/2000/svg" viewBox="25.44 25.02 1063.22 415.37"><path d="M302.63 350.7c-13.92 15.65-26.1 15.26-26.6 15.25l-.05.01-.1-.01-16.89-.38a81 81 0 0 0 11.84-10.97q.18-.27.43-.54c30.18-43.9 20.16-73.44 11.5-87.18q-.62-.97-1.36-1.86l6.4 2.1c13.28 3.54 23.76 12.77 28.21 24.79 4.32 11.48 5.46 31.08-13.38 58.78m-68.03 72.45c-5.42.83-12.02 1.71-18.5 2.43 13.23-15.09 18.72-37.8 20.23-49.4l33.17.83c-1.74 12.67-8.58 42.14-34.9 46.14m-51.93 6.04c-13.2-1.03-48-4.5-68.75-6.67l-15.5-1.5c-7.38-.66-14.54-8.36-19.5-15.45 20.43 1.5 68.3 4.24 77.72 4.13 13-.4 27.96-6.8 31.33-18.55 2.23-7.6 2.36-8.6 2.73-13 .25-2.37.51-6.04 1.52-13.57 2.52-18.33 11.93-21.91 13.56-22.39 3.49-.2 17.91-1.86 30.36-14.6.14-.2.24-.4.44-.56 11.62-15.09 6.57-38.65 6.44-39.67-.06-.18-2-12.58-12.16-19.44-6.4-4.42-14.26-5.62-23.42-3.77a36 36 0 0 0-8.7 3.05 42 42 0 0 1 27.47-15.7 48 48 0 0 1 19.67 1.43c.47.22.88.45 1.38.59l5.82 1.98a46.3 46.3 0 0 1 20.07 17.23c7.24 11.42 15.3 36.22-11.09 74.82-14.74 16.63-27.82 17.4-30.08 17.46l-.52-.06c-.32 0-.52.1-.83.1q-.08-.01-.14.05a5.7 5.7 0 0 0-4.63 4.07s0 .06-.05.09c0 .22-.05.43-.05.63-.05.19-.05.3-.05.45-.35 6.73-5.19 37.02-21.7 51.53a27.6 27.6 0 0 1-11.79 6.44c-.91.08-1.37.08-1.48.16q-.89.11-1.7.49-3.16.38-6.37.23M48.75 341.06c-12.16-2.01-12.02-16.89-12.02-17.44l6.88-139.07c0-.69.48-13.29 12.61-17.22a4 4 0 0 0 1.67-.92c10.34-7.87 12.39-15.86 14.74-33.65.9-12 9.08-17.53 9.4-17.7 40.15-21.8 117.44-63.63 120.2-65.03 2.9-1.43 7.34-2.7 10.33-1.34 1.8.86 3.18 2.86 4.04 5.84.74 15.53 4.04 59.6 4.34 64.39-.1 2.19-1.8 21.68-19.82 26.18-5.44 1.43-9.76 1.14-12.64-.91-4.49-3.04-5.13-9.37-5.13-9.4-.03-.26-.03-.4-.12-.6l-2.33-11.83a14.2 14.2 0 0 0-6.73-9.67c-7.88-4.75-19.33-1.8-20.65-1.47q-.52.16-.97.42c-.37.15-33.23 16.57-46.4 22.9-15.72 7.48-14.3 29.75-14.25 30.68l-.86 155.66c0 1.47.2 13.83 7.64 21.1a17.6 17.6 0 0 0 12.89 4.78c15.23-.34 47.86-2.62 49.2-2.67.41-.07.7-.09 1.05-.15.99-.31 24.45-6.58 26.15-26.14a616 616 0 0 1 2.36-21.53c.06-.43 3.76-17.93 19.35-21.21 6.06-1.2 10.96-.6 14.58 1.94 6.17 4.2 7.57 12.35 7.57 12.4.09.57 4.15 19.69-4.06 30.69-10.55 10.58-22.35 10.92-22.84 10.92-.32 0-.64.08-.92.14-.8.16-19.2 3.61-23 31.95a281 281 0 0 0-1.57 14.14c-.31 3.64-.31 3.87-2.38 10.85-1.68 5.98-12.06 10.23-20.74 10.37-9.9.22-69.1-3.22-83.28-4.53-5.54-.55-7.75-13.56-7.75-20.73.67-3.24 2.64-15.23-3.29-23.9-2.98-4.41-7.58-7.24-13.25-8.24m194.8-302.4c4.7 2.17 12.83 8.03 15.33 21.75 1.03 21.52 4.47 63.14 4.52 63.5.07 1.56 1.7 40.94-44.32 55.94-6.26 2.07-11.92 2.16-17.04.4-1.35-.66-2.16-1.03-2.16-1.03-.32-.17-.57-.23-.93-.34l-.46-.21c-11.19-6.18-17.02-20.65-19.3-27.64q1.26 1.2 2.69 2.22c5.82 4.08 13.23 5 22.07 2.66 21.62-5.53 27.97-26.54 28.32-36.91v-.48c-.04-.57-3.68-49.99-4.42-65.19q.01-.64-.14-1.1c-1.65-6.04-4.42-9.55-7.23-11.72l4.99-2.64c4.85-2.46 11.99-2.3 18.09.8m56.18 57.35c.94 19.1 3.87 55.47 3.87 55.81.1 1.34 1.48 35.88-38.97 49.28-6 2-20.09-.92-23.47-2.74-.1-.06-8.57-3.94-17.74-8.24 53.63-18.01 51.27-66.53 51.27-66.97-.05-.58-3.3-39.9-4.43-61.59l16.86 15.58c5.6 4.68 10.97 9.73 12.61 18.87M138.8 310.37l-.53-137.19 31.88 12.77 3.71 120.8zm37.11-134.15-28.48-11.37 21.5-8.82c1.78 5.06 4.93 12.5 9.86 19.31zM159.38 333c-4.5.31-34.2 2.25-48.08 2.62a6 6 0 0 1-4.72-1.65c-3.5-3.3-4.27-10.66-4.27-12.97l.81-156.09c0-.62-.7-16.19 7.98-20.35a3001 3001 0 0 0 45.9-22.69c2.79-.65 8.53-1.33 11.25.34.62.37 1.23.95 1.54 2.34l2.31 11.55c.05 1.03.53 3.76 1.86 6.98a5.2 5.2 0 0 0-3.62.23l-39.98 16.36c-.4.25-.87.52-1.3.82a1 1 0 0 0-.24.23c-.35.31-.66.62-.98 1.05v.03c-.22.29-.37.63-.59.94-.03.2-.03.32-.09.34-.04.12-.04.24-.1.37q-.14.67-.14 1.4c0 .06-.05.06-.05.06v.06l.65 151.58c0 1.6.7 3.05 1.92 4.16a6 6 0 0 0 4.36 1.4l42.76-4.42c-1.53 10.1-14.63 14.54-17.18 15.31m167.19-45.03c-5.76-15.33-18.96-27.14-35.55-31.56.3.1-23.26-7.8-34.45-11.53a59.5 59.5 0 0 0-31.95-4.37c-17.86 2.43-32.13 12.77-40.63 28.76l-2.47-83.1 5.62-1.82c1.8 1.5 3.71 2.8 5.74 4 1.5.9 3.1 1.53 4.7 2.18l38.51 17.87c5.44 2.9 22.74 6.35 32.09 3.16 48.94-16.02 46.76-60.04 46.71-60.47 0-.52-3.02-37.28-3.85-56.17-.03-.18-.03-.5-.09-.67-2.21-12.28-9.11-19.45-16.27-25.42.13.27-37.85-35.02-37.85-35.02-.32-.2-.6-.34-1.02-.55a37 37 0 0 0-7.2-4.63c-9.4-4.6-20.27-4.8-28.45-.63 0 0-131.82 70.96-143.92 77.52-.83.48-13.57 8.67-14.78 26.16-2.34 16.47-3.87 20.72-9.92 25.45-18.65 6.93-19.25 26.2-19.25 27.13 0-.23-6.84 138.94-6.84 138.94-.24 8.74 3.85 25.93 21.41 28.91 2.61.44 4.48 1.47 5.76 3.37 3.16 4.64 2.15 13.03 1.49 15.83q-.1.62-.11 1.14c-.06 2.54 0 20.76 9.3 28.89 1.59 3.37 14.78 29.03 34.03 30.8l15.48 1.52c20.8 2.1 55.64 5.64 69.01 6.62q6.6.47 12.52-.98c7.04-.74 28.24-3.13 41.94-5.12 35.18-5.31 42.98-43.78 44.68-57.51 6.61-1.26 18.38-5.3 30.35-18.93.25-.23.35-.43.46-.57 21.84-31.7 20.13-55.1 14.8-69.2m668.56-52.81h69.51v-14.7c0-4.42.26-8.07-3-11.1l-9.22-8.01c-3-2.83-7.71-3.15-11.54-3.15h-20.38c-4.42 0-8.16 0-12.14 2.84l-8.35 6.1c-2.9 2.21-4.88 4.02-4.88 10.96zm19.89 74.08c-9.92 0-13.96 0-21.48-6.53l-10.24-9c-9.5-8.46-12.28-14.01-12.28-26.99v-46.4c0-12.74 1.72-20.35 11.7-28.77l8.54-7.22c11.36-9.8 16.85-10.02 26.66-10.02h21.9c11.82 0 17.4 1.17 26.55 8.74l9.77 7.78c11.1 8.69 12.52 18.02 12.52 31.26v19.37c0 13.63-2.22 17.74-16.53 17.74h-77v8.02c0 2.27 1.63 5.15 3.47 6.98l6.04 6.48c3.28 3.48 7.96 4.57 15.86 4.57h51.63c8.13 0 16.53 1.74 16.53 11.9 0 10.6-9.44 12.09-16.53 12.09zm-135.5-105.01V192.1c0-8.54 1.5-17.79 12.24-17.79 8.58 0 11.79 6.73 11.79 14.48v17c0 4-1.01 6.06-2.8 9.8l-35.8 78.66c-2.29 4.97-6.47 14.99-12.57 14.99H836.9c-6 0-10.29-10.02-12.48-14.99l-35.8-78.65c-1.86-3.75-2.73-5.8-2.73-9.8v-17c0-7.76 3.27-14.49 11.61-14.49 10.83 0 12.3 9.25 12.3 17.79v12.13l34.86 79.93zm-240.56 44.6c-6.46 0-16.11 1.77-16.11 10.57v16.02c0 8.16 9.8 9.83 15.67 9.83h26.46l26.53-13.96v-5.1c0-13.33-3.75-17.36-16.98-17.36zm.26-50.63c-6.99 0-16.5-1.45-16.5-11.81s8.43-12.08 16.5-12.08h33c12.57 0 21.56 1.17 31.1 10.71 9.27 9.24 10.47 16.48 10.82 28.56l2.45 81.67c.23 7-3.24 13.99-11.2 13.99-6.27 0-12.6-5.32-12.41-12.1l-16.41 8.56c-6.84 3.54-7.07 3.54-14.83 3.54h-23.06c-10.73 0-18.51-1.28-27.24-8.5-10.04-8.26-12.5-17-12.5-29.58v-10.48c0-11.55 2.8-18.8 11.7-26.8 8.4-7.31 17.55-9.05 28.04-9.05h51.6v-5.48c0-18-4-21.15-21.3-21.15zm-224.94 31.95c0-14.8 2.7-22.02 14.24-31.63l17.7-14.78c11.37-9.2 17.16-9.43 31.12-9.43h38.1c7.99 0 16.57 1.71 16.57 12.08 0 10.36-9.53 11.81-16.58 11.81h-42.35c-4.75 0-9.5 2.6-13.82 6.03l-14.49 12.45c-3.77 2.95-6.49 5.4-6.49 10.17v29.8c0 4.7 2.72 7.32 6.49 10.22l14.49 12.28c4.31 3.54 9.07 6.1 13.82 6.1h42.35c7.05 0 16.58 1.43 16.58 11.9 0 10.41-8.58 12.09-16.58 12.09h-38.1c-13.95 0-19.74-.24-31.1-9.45l-17.71-14.85c-11.54-9.52-14.24-16.7-14.24-31.53z" style="fill:#fff"/></svg>