<svg xmlns="http://www.w3.org/2000/svg" viewBox="0 0 600 87"><path d="M110.65 86.53c-49.21-3-88.03-13.94-103.4-29.2-7.08-6.97-8.85-13.16-5.86-19.9C8.25 22.04 36.1 9.66 78.58 3.02 97.16.16 142.5-.95 162.85.93c30.3 2.88 61.82 10.84 77.19 19.46 7.08 3.98 16.03 11.06 16.03 12.83 0 .55-7.52 1-17.58 1-15.93 0-17.8-.22-20.35-2.21C197.9 16.08 127.13 9.45 78.47 18.85 47.5 24.82 30.58 35.55 34.79 46.6c3.43 9.18 21 17.14 48.77 22.12 16.03 2.88 56.84 3.98 75.42 2.1 25.54-2.65 47.44-8.4 57.94-15.48l4.98-3.43h17.14c9.3 0 17.03.44 17.03 1 0 2.2-10.4 10.28-18.47 14.26-14.37 7.19-30.74 11.94-53.41 15.6-22.67 3.64-51.53 5.2-73.54 3.76m154.27-41.81V5.46h52.86c77.52 0 101.74 2 127.18 10.51 17.91 6.08 27.97 12.94 31.62 21.79 7.75 18.46-14.6 35.05-56.84 42.24-19.13 3.2-36.5 3.98-95.88 3.98h-58.94zm143.32 22.34c19.35-3.54 32.96-9.62 36.5-16.37 5.75-11.16-5.54-21.23-29.09-26.43-15.7-3.42-33.62-4.42-79.07-4.42h-42.9v49.99l52.3-.56c42.13-.33 54.19-.77 62.26-2.2m166.32-8.52V33.1H600v50.87h-25.44zm-81.83-11.06c0-7.2.33-9.96 1.44-9.96 2.98-.1 58.28 9.4 58.28 9.96 0 .55-55.3 10.06-58.28 9.95-1.1 0-1.44-2.77-1.44-9.95" style="fill:#fff"/><path d="M117.29 54.12c-7.97-1.43-14.27-4.09-17.15-7.19-2.2-2.32-2.43-3.1-1.32-5.41 1.55-3.43 7.52-6.53 15.81-8.4 8.18-1.89 29.64-.9 36.5 1.54 9.84 3.54 12.71 9.51 6.85 13.71-7.19 5.09-28.09 8.08-40.7 5.75m26.98-5.64c7.19-1.55 11.17-4.42 9.18-6.85-.78-.89-3.76-2.33-6.64-3.1-6.85-2-29.08-1.88-34.94.22-4.98 1.77-7.41 4.65-5.42 6.64 3.65 3.65 26.54 5.53 37.82 3.1m430.3-34.18V5.46H600v17.7h-25.44z" style="fill:#fff"/></svg>