<svg xmlns="http://www.w3.org/2000/svg" viewBox="0 0 44.41 27.84"><path d="M100.26 128.64H84.48c-8.34-.67-10.87 20.3-11.06 23.74a23 23 0 0 0 .15 5.02c.67 2.43 2.5 4.37 4.28 4.52 1.5.12 2.96-.02 3.7.04h18.74v-6.27H84.3c-1.87 0-4.2-2.17-3.62-4.38l4.08-16.34h15.47z" style="display:inline;opacity:.98;fill-opacity:1;stroke-width:1.28599;stroke-linejoin:bevel;stroke-miterlimit:4;stroke-dasharray:none;stroke-opacity:.964435;fill:#fff" transform="translate(-47.94 -83.63)scale(.65858)"/><path d="M73.98 45.98c-14.07-.14-18.59 42.15-18.3 58.34l-.12 9.08s-.31 3.21 3.49 3.17l50.55-.03c7.72-.91 12.83-6.1 12.4-20.29V74.57c-6.7-24.24-34.56-28.03-34.56-28.03l-13.13-.55zm16.18 21.37c3.58 0 6.87 2.1 9.2 4.71 3.04 3.43 5.22 7.8 5.54 12.41-.23 2.05-.14 4.16-.73 6.16-1.06 3.45-3.72 6.9-7.53 7.33-5.55.25-11.1.4-16.66.61 1.06-5.24 3.58-32.1 9.46-31.19z" style="display:inline;opacity:.98;fill-opacity:1;stroke-width:5.14595;stroke-linejoin:bevel;stroke-miterlimit:4;stroke-dasharray:none;stroke-opacity:1;fill:#fff" transform="translate(-1.67 -1.28)scale(.16458)"/><path d="M146.22 54.7c-13.1 0-23.66 12.4-23.66 27.82v5.77c0 15.4 10.55 27.81 23.66 27.81s23.65-12.4 23.65-27.81v-5.77c0-15.41-10.55-27.82-23.65-27.82m-.17 23.21c2.65 0 4.78 3.51 4.78 7.87v3.67c0 4.36-2.13 7.88-4.78 7.88s-4.8-3.52-4.8-7.88v-3.67c0-4.36 2.14-7.87 4.8-7.87" style="display:inline;opacity:.98;fill-opacity:1;stroke-width:5.14595;stroke-linejoin:bevel;stroke-miterlimit:4;stroke-dasharray:none;stroke-opacity:.964435;fill:#fff" transform="translate(-1.67 -1.28)scale(.16458)"/><path d="M187.02 56.5a13.93 13.93 0 0 0-13.96 13.97v31.35a13.93 13.93 0 0 0 13.96 13.96h16.06a13.93 13.93 0 0 0 13.96-13.96V70.47a13.93 13.93 0 0 0-13.96-13.96zM188.3 77h7.19l.1 4.05c.11 3.75.05 7.5.06 11.25h3.68v4.51H188.3V81.04Z" style="display:inline;fill-opacity:1;stroke-width:5.14595;stroke-linejoin:bevel;stroke-miterlimit:4;stroke-dasharray:none;stroke-opacity:.964435;fill:#fff" transform="translate(-1.67 -1.28)scale(.16458)"/><path d="M131.3 139c4.8-.06 4.88 5.84 1 5.68h-1.8c-.47-.04-.3.05-.05.24 1.77 1.39 4.5 3.69 4.58 5 .23 2.67-.04 3.04-2 4.07-2 .6-4.08.26-5.27.06-4.15-1.38-4.22-6.03-.16-5.6l1.4.07.92.91h.4c-1.97-1.85-4.03-3.69-5.61-5.62-.82-3.7 2.04-4.9 4.06-4.83-3-.01 1.98.01 2.52.02" style="display:inline;opacity:.98;fill-opacity:1;stroke-width:1.28599;stroke-linejoin:bevel;stroke-miterlimit:4;stroke-dasharray:none;stroke-opacity:.964435;fill:#fff" transform="translate(-47.94 -83.63)scale(.65858)"/><path d="m130.16 153.32-2.97 15 9.8.04c2.14.18 2.22-5.22-.37-4.8l-3.42.08 2.65-10.31z" style="display:inline;opacity:.98;fill-opacity:1;stroke-width:1.28599;stroke-linejoin:bevel;stroke-miterlimit:4;stroke-dasharray:none;stroke-opacity:.964435;fill:#fff" transform="translate(-47.94 -83.63)scale(.65858)"/><path d="m198.74 112.52-15.28.08-10.77 60.7h52.09c30.82-27.78-12.5-61.27-26.04-60.78m1.62 22.13 5.17.17q9.13 4.33 9.19 13.4l-.05 6.23-16.8-.1z" style="display:inline;opacity:.98;fill-opacity:1;stroke-width:5.14595;stroke-linejoin:bevel;stroke-miterlimit:4;stroke-dasharray:none;stroke-opacity:.964435;fill:#fff" transform="translate(-1.67 -1.28)scale(.16458)"/><path d="M108.79 153.29c-1.77-.01-3.63-.17-3.85 2.5l.03 3 5.62 5-1.13-.03c-1.6-1.64-2.82-1.02-4-.24-2.3 1.83-.75 4.1 2.36 4.85 1.13.27 2.82.3 4.18.14 2.33-.79 2.78-1.68 3.01-2.58l.16-2.35-4.9-4.76-.02-.7.66.77 2.72-.06a2.95 2.95 0 0 0-1.66-5.52z" style="display:inline;opacity:.98;fill-opacity:1;stroke-width:1.28599;stroke-linejoin:bevel;stroke-miterlimit:4;stroke-dasharray:none;stroke-opacity:.964435;fill:#fff" transform="translate(-47.94 -83.63)scale(.65858)"/></svg>