<svg xmlns="http://www.w3.org/2000/svg" viewBox="0 0 3839 1750.3"><path d="M2378.3 436.9c-353.4-418.3-872.2-561.1-1158.6-319.1S987.6 895.1 1341 1313.4s872.2 561.1 1158.6 319.1c286.4-242.1 232.1-777.3-121.3-1195.6m114 1139.7c-264.1 223.2-752.5 79.6-1090.8-320.7s-398.4-905.8-134.2-1129 752.5-79.6 1090.8 320.7c338.3 400.4 398.4 905.8 134.2 1129m296.1-1062.1v685.8h231.4V514.5h160.8V283.1h-552.9v231.4z" class="st0" style="fill:#fff;stroke-width:1.23457" transform="matrix(.81 0 0 .81 362.88 266.12)"/><path d="M2401.2 283.1h-350.7v917.2h350.7c111.7 0 202.2-90.5 202.2-202.2V485.3c0-111.7-90.5-202.2-202.2-202.2M2372 968.9h-90V514.6h90zm-567.7-685.8h-249c-83.9 0-152 68.1-152 152v613.3c0 83.9 68 152 152 152h249c83.9 0 152-68 152-152v-191h-231.4v111.4h-90V514.6h90V626h231.4V435.1c0-83.9-68-152-152-152m1873 917.2L3839 283.1h-235l-74.7 637.1-74.6-637.1h-235l161.7 917.2zM215.5 741.7c0-134.1 109.1-243.1 243.1-243.1 43 0 83.5 11.3 118.6 31V298.7a459 459 0 0 0-118.6-15.6C205.3 283.1 0 488.5 0 741.7s205.3 458.6 458.6 458.6c41 0 80.7-5.5 118.6-15.6V953.9c-35.1 19.7-75.5 31-118.6 31-134.1 0-243.1-109.1-243.1-243.2M793.4 725l183.4-183.4H577.2V725zM577.2 941.9h399.6L793.4 758.4H577.2z" class="st0" style="fill:#fff;stroke-width:1.23457" transform="matrix(.81 0 0 .81 362.88 266.12)"/></svg>