<svg xmlns="http://www.w3.org/2000/svg" viewBox="0 0 213.5 29"><path d="M153.74 12.73H148c.31 1.02.4 1.45.4 2.24q0 .6-.06 1.21l-.6 6.15h-1.13c-.64 0-.82-.23-.82-1.02l.03-.58 1.05-11.05c.05-.79.1-1.22.13-1.41.05-.28.21-.6.4-.79q.38-.4.86-.39h3.44c.69 0 1.53.08 1.79.2q.25.16.7.5l.67-7h-9.12l-1.29.03q-.71.13-1.26.94c-.6.82-.9 1.96-1.08 3.69l-1.7 18.14q-.14 1.37-.14 2.39c0 2.11.69 3.05 2.24 3.05h7.38c.74 0 1.6-.7 2.05-1.72.5-1.06.58-1.5.81-4.15zm10.4 16.3.61-6.35h-5.02l.42-4.5h5.05l.58-6.39h-5.02l.44-4.78h5.08l.55-6.23h-6.84c-1.5 0-2.02.24-2.65 1.41-.66 1.06-1.08 2.7-1.26 4.59l-1.55 16.45q-.08.73-.08 1.45c0 2.94.97 4.35 2.94 4.35zm1.85 0h5.12l1.86-19.47q.18-2.17 1.21-2.16c.53 0 .87.51.87 1.22q0 .31-.08.86l-1.84 19.55h5.15L180.5 5.6c.05-.78.13-1.64.13-2.04 0-1.68-.81-2.78-2.05-2.78h-2.1a2.4 2.4 0 0 0-1.87.98 8 8 0 0 0-1.2 2.67 35 35 0 0 0 .07-1.89c0-.54-.02-.9-.13-1.76h-5.28a21 21 0 0 1 .1 5.1zm14.08 0h5.1L187.85.78h-5.15zM201.9.78h-5.1l-1.91 20.03c-.13 1.52-.16 1.64-.55 2-.21.15-.43.27-.66.27-.58 0-.95-.43-.95-1.14q0-.26.1-.94l1.9-20.22h-5.15l-2.29 24.6c-.05.56-.1 1.14-.1 1.5 0 1.6.47 2.15 1.89 2.15h8.04c1.74 0 2.2-.7 2.5-3.64zm-1.15 28.25h7.22c1.13 0 1.68-.31 2.29-1.13.66-.94.73-1.34.97-3.69l.9-9.4q.06-.61.05-1.22 0-2.46-2-2.46h-2.63l.42-4.12h4.92l.57-6.23H207c-1.52 0-1.81.12-2.57.78-.95.98-1.24 1.85-1.53 5.06l-.6 6.2q-.09.98-.08 1.99c0 2.43.63 3.45 2.1 3.45h2.31l-.4 4.35h-4.85zM7.65 28.3l.63-6.74H6.33c-.5 0-.79-.4-.79-1.14q0-.1.03-.27l1.1-11.91q.13-1.41 1.08-1.41H9.7l.63-6.78H5.47C4.01.04 3.8.16 3.15 1.06a9 9 0 0 0-1.42 4.27L.05 23.04q-.04.46-.05.98c0 1.3.26 2.55.68 3.25.45.86.84 1.02 2.13 1.02zm6.17 0h1.31c2.84 0 3.63-.35 4.94-2.08a10 10 0 0 0 1.45-3.01c.34-1.22.66-3.1.87-5.33l.68-7.17c.32-3.3.37-3.84.37-4.67 0-2.11-.42-3.95-1.13-4.82C21.7.47 20.57.04 19.05.04h-2.5Q12.81.02 11.72 3.4c-.53 1.6-.87 3.68-1.21 7.29l-.68 7.17a54 54 0 0 0-.21 3.52c0 4.35 1.57 6.9 4.2 6.9M16.8 21c-.16.63-.6 1.14-1.05 1.14-.53 0-.87-.51-.87-1.22q0-.4.1-1.21l1.14-12.15c.13-1.45.44-1.96 1.2-1.96.56 0 .85.36.85 1.18q0 .35-.06.78l-1.15 12.15-.16 1.3m6.38 7.3h5.13l1.89-19.8q.16-2.01 1.18-2.03.97-.02.95 1.48l-.03.55-1.9 19.79h5.12l1.87-19.9c.13-1.22.58-2 1.23-2 .56 0 .87.47.87 1.29l-.02.63-1.95 19.98h5.1l2.23-23.51q.11-1.21.1-2.08c0-1.72-.65-2.7-1.8-2.7L40.7.04c-.71.04-1.37.47-1.73 1.13q-.3.54-.6 1.42-.15.4-.4 1.17c0-1.76-.05-2.2-.32-2.78a1.5 1.5 0 0 0-1.31-.94h-3.08c-.92 0-1.47.66-2.3 2.94l-.5 1.3a18 18 0 0 0 0-4.23L25.24.03c.16 1.65.21 2.2.21 3.06q-.01.83-.1 2.07zm21.26 0h5.13l1.89-19.8q.16-2.01 1.18-2.03.97-.02.95 1.48l-.03.55-1.9 19.79h5.13l1.87-19.9c.13-1.22.57-2 1.23-2 .55 0 .87.47.87 1.29l-.03.63-1.94 19.98h5.1L66.1 4.78q.11-1.21.1-2.08c0-1.72-.65-2.7-1.8-2.7l-2.45.04c-.71.04-1.37.47-1.74 1.13q-.3.54-.6 1.42c-.08.27-.24.66-.4 1.17 0-1.76-.05-2.2-.31-2.78a1.5 1.5 0 0 0-1.3-.94h-3.08c-.92 0-1.47.66-2.31 2.94l-.5 1.3a18 18 0 0 0 0-4.23L46.5.03c.15 1.65.2 2.2.2 3.06q-.01.83-.1 2.07zm21.26 0h5.07l.6-6.2h2.03l-.58 6.2h5.1L80.2 4.16q.05-.71.06-1.37c0-1.68-.77-2.74-2-2.74h-7.6c-.68 0-1.31.35-1.78.98-.56.7-.77 1.49-.92 3.13zm7-20.41c.1-1.25.5-1.92 1.13-1.92.66 0 .92.4.92 1.46l-.02.46-.8 8.2h-1.99zm7 20.38h5.12l1.86-19.47q.17-2.17 1.21-2.16c.53 0 .87.51.87 1.22q0 .31-.08.86l-1.84 19.55h5.15l2.2-23.43c.06-.79.14-1.65.14-2.04 0-1.68-.82-2.78-2.05-2.78h-2.1c-.71 0-1.37.35-1.87.98a8 8 0 0 0-1.2 2.66c.05-.94.07-1.4.07-1.88 0-.55-.03-.9-.13-1.76h-5.28a22 22 0 0 1 .1 5.1zm14.08 0h9.38c1.84 0 3-1.96 3.33-5.52l1.63-17.17q.08-1.01.08-1.84c0-2.27-.92-3.72-2.42-3.72H96.4zm7.17-22.02h.9q.87.02.89 1.57 0 .3-.03.58l-1.05 11.21c-.16 1.8-.45 2.31-1.26 2.31h-.92zm16.95 22.02.6-6.35h-5.02l.42-4.5h5.05l.58-6.39h-5.02l.44-4.78h5.08l.55-6.23h-6.83c-1.5 0-2.03.23-2.66 1.4a11 11 0 0 0-1.26 4.6l-1.55 16.45q-.08.72-.08 1.45c0 2.94.97 4.35 2.94 4.35zm1.83 0h5.1l1-10.58h.76c.74 0 1.03.35 1.03 1.41v.31l-.55 5.88c-.03.32-.03.59-.03.9 0 .98.03 1.34.26 2.08h5.47a6 6 0 0 1-.34-3.3l.57-6.1q.05-.73.06-1.38c0-2.07-.76-3.13-2.66-3.56 1.24-.31 1.76-.59 2.24-1.21a7.6 7.6 0 0 0 1.2-3.93l.4-4.03c.03-.24.03-.55.03-.82q0-1.78-.64-2.78c-.55-.9-1.1-1.14-2.62-1.14h-8.65zm7.23-22.14h.5c.87 0 1.23.4 1.23 1.33 0 .67-.13 2-.31 2.7-.16.8-.55 1.06-1.31 1.06h-.58z" style="stroke:none;fill:#fff"/></svg>