<svg xmlns="http://www.w3.org/2000/svg" viewBox="3 136.91 270 82.35"><title>3DO Logo</title><path d="M30.1 204.47c-6.31-7.23-9.4-16.96-9.4-27.44.01-7 1.37-14.4 4.12-21.8a5.62 5.62 0 1 1 10.54 3.9 52 52 0 0 0-3.41 17.9c0 8.33 2.43 15.29 6.6 20.04 4.2 4.73 10.09 7.65 18.64 7.7q4.19.02 9.18-1.07a5.62 5.62 0 1 1 2.42 10.97q-6.08 1.34-11.6 1.34H57c-11.19 0-20.66-4.34-26.9-11.54m38.88-19.84a31.87 31.87 0 0 1 63.73 0 31.87 31.87 0 0 1-63.73 0m11.24 0a20.66 20.66 0 0 0 20.63 20.63 20.66 20.66 0 0 0 20.62-20.63A20.66 20.66 0 0 0 100.85 164a20.66 20.66 0 0 0-20.63 20.63m77.37 29.12a21 21 0 0 1-5.08-4.13c-3.01-3.27-5.63-7.45-8.3-12.42-5.3-9.92-10.68-23.08-16.95-37.55a5.62 5.62 0 0 1 10.31-4.47c4.14 9.57 7.87 18.48 11.33 26.05 3.45 7.56 6.68 13.8 9.54 17.85 1.9 2.7 3.65 4.34 4.65 4.87.5.28.76.33.94.34l.05-.02q.23-.07.83-.48a18 18 0 0 0 3.19-3.17c2.5-3.05 5.38-7.72 8.17-12.97 5.62-10.55 11.02-23.44 14.88-32.05a5.62 5.62 0 0 1 10.25 4.6c-2.47 5.5-5.7 13.07-9.29 20.76-3.6 7.7-7.55 15.53-11.68 21.8-2.8 4.18-5.56 7.7-9.02 10.2a12.7 12.7 0 0 1-7.3 2.57h-.03c-2.36 0-4.6-.71-6.5-1.78m46.79-8.02c-5.38-6.16-7.42-14-7.42-21.46.01-8.9 4.04-16.56 9.32-22.02 5.35-5.45 11.93-9.06 18.74-9.48l1.44-.03c4.44 0 9.2.95 13.68 2.8 4.46 1.88 8.74 4.65 11.73 8.88a17.6 17.6 0 0 1 3.26 10.17c0 3.31-.54 6.43-1.88 9.21a18 18 0 0 1-5.75 6.8c-4.77 3.45-10.53 5.35-17.93 7.93a5.62 5.62 0 1 1-3.66-10.62c5.51-1.9 9.78-3.43 12.59-4.92 2.85-1.52 3.96-2.69 4.61-4.03a10 10 0 0 0 .78-4.37c-.01-1.4-.4-2.5-1.23-3.73a13 13 0 0 0-3.97-3.5 25 25 0 0 0-12.23-3.39q-.45 0-.86.03c-2.85.06-7.64 2.26-11.24 6.06-3.67 3.8-6.18 8.83-6.16 14.2 0 5.47 1.52 10.55 4.63 14.07 3.13 3.5 7.9 6.1 16.54 6.16q2.7 0 5.89-.4a5.62 5.62 0 0 1 1.42 11.15 58 58 0 0 1-7.31.49h-.24c-10.9 0-19.44-3.85-24.75-10" style="fill-opacity:1;fill:#fff"/><circle cx="93.59" cy="146.41" r="6.41" style="fill-opacity:1;fill:#fff"/><circle cx="109.31" cy="146.41" r="6.41" style="fill-opacity:1;fill:#fff"/></svg>