<?xml version="1.0" encoding="UTF-8" standalone="no"?><svg data-name="Warstwa 1" viewBox="0 0 264 47" version="1.1" id="svg1" xmlns="http://www.w3.org/2000/svg" xmlns:svg="http://www.w3.org/2000/svg"><title id="title1">Sharp_X1_logo</title><path fill="currentColor" d="M264 27.32c-.35 2.61-.65 5.24-1.06 7.85a60 60 0 0 1-1.11 5.03 5.34 5.34 0 0 1-4.75 4.32c-5.22.72-10.46 1.63-15.68 2.06-10.41.8-20.88.3-31.17-1.51-.43-.08-.86-.21-1.29-.25-3.82-.29-5.85-2.36-6.67-6.12a70 70 0 0 1 .12-30.86c.75-3.26 2.51-5.07 5.88-5.66C218.12.45 228-.5 237.96.17c6.35.42 12.65 1.43 18.98 2.2a5.3 5.3 0 0 1 4.92 4.61c.7 3.63 1.23 7.29 1.84 10.94l.27 1.68Zm-33.34.45h12.66v-8.64h-12.57v-5.08h12.57V4.6h-22.03v37.75h9.38ZM47.6 41.38v-13.2H37.25V41.3h-8.87V7.02h8.8v13.11h10.4V7.01h8.93v30.37l.27.06q.32-.6.62-1.23 6.45-14.06 12.88-28.13a1.7 1.7 0 0 1 1.84-1.2c4.45.05 8.9 0 13.45 0v34.41H76.8V28.11c-2.21 0-4.27-.04-6.32.05-.32 0-.71.56-.89.95-1.73 3.7-3.45 7.4-5.11 11.19-.2.72-.9 1.2-1.65 1.11-5-.06-10.02-.03-15.22-.03m29.08-27.25h-.24l-2.72 5.98h2.96Zm32.25 10.56V6.99h8.87v34.39c-2.82 0-5.62.03-8.42-.04-.34 0-.76-.52-1-.88q-4.94-7.68-9.84-15.37c-.25-.4-.52-.79-.98-1.45V41.3H88.7V6.93c2.8 0 5.6-.04 8.4.03.35 0 .75.53 1 .9l9.84 15.37c.24.38.52.78 1 1.46m40.69 16.69c-2.82 0-5.54.04-8.27-.04-.39 0-.87-.5-1.12-.9q-4.98-7.71-9.92-15.47c-.23-.36-.48-.69-.95-1.36v17.68h-8.78V6.93q4.16 0 8.37.03c.34 0 .75.53 1 .9l9.83 15.36 1.03 1.54V7h8.81Zm3.1-.09V7.02h19.03v7.73h-10.12v5.46h10.12v7.88H161.6v5.4h10.13v7.8ZM26.17 20.88c-2.47-4.46-6.16-6.34-10.27-5.4a8.93 8.93 0 0 0-1.1 17.06c4.25 1.55 7.78.06 11.5-5v11.28c.1.66-.29 1.3-.92 1.51-6.77 2.85-13.16 2.26-18.83-2.43C.9 33.2-1.22 26.79.7 19.58c1.88-7.1 6.7-11.44 13.9-12.96 3.61-.75 7.37-.28 10.68 1.35.5.26.86.73.97 1.29.08 3.62.04 7.24.04 10.86q-.03.37-.11.76M183.7 33.51h10.24v7.78H174.9V6.97h8.8Z" id="path1" style="fill:#ffffff"/></svg>