<svg xmlns="http://www.w3.org/2000/svg" viewBox="0 0 343.64 70.47"><path d="M273.13 70.47h28.18L343.64 0h-28.17zM110.59 19.23v38.4h23.04c7.16-1.18 11.26-5.2 12.82-11.53V30.75c-1.56-6.33-5.66-10.35-12.82-11.52zm9 7.7h10.22c3.21.57 6.25 1.57 7.7 6.4l-.02 10.24c-1.46 4.82-4.5 5.83-7.7 6.4h-10.22zM12 57.63V28.2H.46v-8.95h35.86l-3.85 8.95h-8.96v29.43zm28.16-38.38L26.1 57.62h11.54l4.45-14.05 4.48 6.4h7.68l2.56 7.65h11.63l-14.2-38.37zm7 10.21 4.52 11.55h-8.96zM69.6 57.63V19.25h14.1L97.8 47.4V19.25h8.96v38.38h-14.1L78.58 29.5v28.14z" style="fill:#fff"/><path d="m156.68 39.74-15.36-20.5h11.52l8.35 12.78 8.31-12.78h12.79l-15.4 20.44.02 17.95H156.7zm79.47 30.73h28.17L306.65 0h-28.17zm-36.99 0h28.17L269.66 0h-28.17z" style="fill:#fff"/></svg>