<svg xmlns="http://www.w3.org/2000/svg" viewBox="0 0 264 78"><path d="M295.2 91.2V116h-70.4c-8.05 0-7.6 8 0 8h46.4c36.15 0 36.14 53.6 0 53.6h-72.8v-24H268c8.33 0 7.76-8 0-8h-43.2c-37.15 0-37.02-54.4 0-54.4zm161.6 0h82.4c14.79 0 27.97 11.49 28 27.2v59.2h-29.6v-51.2c0-8.54-5.08-10.27-11.2-10.4h-40v61.6h-29.6zm-77.6 24.1c-7.86.04-11.2 4.98-11.2 11.1v16c0 6.65 5.71 11.2 11.2 11.2H412c3.9 0 10.4-2.63 10.4-11.2v-16c0-5.38-3.27-11.34-10.4-11.3zM368 91.2h55.2c17.53 0 28.8 11.94 28.8 26.4v32c0 22.69-19.6 28-28.8 28H368c-20.73 0-29.6-16.69-29.6-28v-32c0-18.42 16.49-26.4 29.6-26.4m-64.8 0h29.6v86.4h-29.6zm-142.4 0h29.6v86.4h-29.6zm-134.4 0h32.8l32 56 37.6-56H156l-51.2 86.4H77.9zM290.4 0H384v21.6h-64.8v8H384v21.6h-64.8c0 7.94 5.84 11.2 12 11.2H384v23.2h-68c-15.24 0-25.71-12.64-25.68-26.4zm-75.2 0H244v51.2c0 7.35 5.54 11.28 12 11.2h31.2v23.2h-44.8c-12.72 0-27.2-5.72-27.2-26.4zm265.6 0H416c-18.64 0-26.36 17.15-26.4 26.4v32c0 20.75 17.07 28.12 26.4 28h64.8v-24h-49.6c-3.53 0-12-2.61-12-10.4V35.2c0-8 6.03-11.2 12-11.2h49.6zm46.4 24.1c-7.86.04-11.2 4.98-11.2 11.1v16c0 6.65 5.71 11.2 11.2 11.2H560c3.9 0 10.4-2.63 10.4-11.2v-16c0-5.38-3.27-11.34-10.4-11.3zM516 0h55.2C588.72 0 600 11.94 600 26.4v32c0 22.69-19.6 28-28.8 28H516c-20.73 0-29.6-16.68-29.6-28v-32C486.4 7.98 502.89 0 516 0M136.8 24.1c-7.87.04-11.2 4.98-11.2 11.1v16c0 6.65 5.71 11.2 11.2 11.2h32.8c3.89 0 10.4-2.63 10.4-11.2v-16c0-5.38-3.28-11.34-10.4-11.3zM125.6 0h55.2c17.52 0 28.8 11.94 28.8 26.4v32c0 22.69-19.6 28-28.8 28h-55.2c-20.73 0-28.8-16.68-28.8-28v-32C96.8 7.98 112.49 0 125.6 0M91.2 0H26.4C7.76 0 .04 17.15 0 26.4v32c0 20.75 17.07 28.12 26.4 28h64.8v-24H40.8c-3.53 0-12-2.61-12-10.4V35.2c0-8 6.02-11.2 12-11.2h50.4z" style="fill-opacity:1;fill:#fff" transform="scale(.44 .43918)"/></svg>