<svg xmlns="http://www.w3.org/2000/svg" viewBox="0 0 200 40"><path d="m42.39 24-.48 5.05q-1.92.78-4.86.77-3.78 0-5.41-1.46-1.65-1.48-1.64-4.53 0-1.29.42-3.81.9-5.16 3.1-7.5t6.98-2.34q1.12 0 2.53.22 1.43.22 2.09.55l-1.68 4.6a14 14 0 0 0-3.31-.43q-1.55 0-2.21.3t-.81 1.2l-1.38 7.86q1.08.25 2.22.25 2.43 0 4.44-.73m9.57-7.1-1.38 7.8h2.37q1.17 0 1.74-.29t.75-1.3l1.38-7.8h-2.4q-1.14 0-1.71.28t-.75 1.3m3.45-6.72q3.81 0 5.43 1.48 1.62 1.49 1.62 4.57 0 3.1-.98 6.47t-3.09 5.25-6.18 1.88-5.68-1.49-1.62-4.57q0-1.47.42-3.89t1.1-4.17a10 10 0 0 1 1.87-3.05q2.25-2.48 7.1-2.48m13.38 19.2h-5.94l4.38-18.75h7.44l.54 9.53h.2l3.9-9.53h7.45l-2.22 18.74h-5.97l1.26-9.09h-.21l-3.75 9.1h-4.35l-.63-9.1h-.15zm29.13-4.53H94.2l-.78 4.52h-5.7l3.3-18.74h9q5.1 0 5.1 4.73a12.3 12.3 0 0 1-2.03 6.95 6.2 6.2 0 0 1-5.17 2.54m-2.07-9.43-.81 4.63h1.32q1.03 0 1.54-.23.53-.23.68-1.04.39-2.21.39-2.43 0-.57-.45-.75t-1.35-.17zm20.46 13.96h-11.4l3.3-18.75h5.7l-2.46 13.94h5.7zm14-7.08h-5.7l-.38 2.27h6.99l-.84 4.8h-12.7l3.3-18.74h12.55l-1.56 4.8h-6.15l-.42 2.52h5.7zm18.3-6.87h-4.13l-2.43 13.95h-5.7l2.43-13.95h-4.11l.87-4.8h13.95zm12.6 6.87h-5.7l-.38 2.27h6.99l-.84 4.8h-12.7l3.3-18.74h12.55l-1.56 4.8h-6.15l-.42 2.52h5.7zm3.28 7.07 3.3-18.74h7.98q3.87 0 5.5 1.36 1.64 1.36 1.64 4.42 0 1.57-.36 3.6-.9 5.04-3.08 7.2-2.17 2.17-7 2.16zm10.5-13.94h-2.37l-1.6 9.15h2.38q1.17 0 1.74-.29t.75-1.3l1.05-5.97q.03-.19.03-.48 0-.69-.48-.9a4 4 0 0 0-1.5-.21" style="white-space:pre;fill:#fff;transform-box:fill-box;transform-origin:50% 50%" transform="translate(8.55)"/><path d="M12.02 32a12 12 0 1 0 0-24 12 12 0 0 0 0 24m5.3-14.2-6 6c-.45.44-1.16.44-1.6 0l-3-3a1.13 1.13 0 0 1 1.59-1.59l2.2 2.2 5.21-5.2a1.12 1.12 0 0 1 1.59 1.59" style="fill:#fff;transform-box:fill-box;transform-origin:50% 50%" transform="translate(8.55)"/></svg>