<svg xmlns="http://www.w3.org/2000/svg" xml:space="preserve" viewBox="0 0 4689 1248"><g style="fill:none;fill-opacity:1;stroke:#fff;stroke-width:26.4;stroke-dasharray:none;stroke-opacity:1"><path d="m1252.49 646.83-403.6 587.9h212.6l50.9-78.4h204.3l10 78.4h207.6l-88.3-587.9zm-53.4 371.1 90.9-141.8 15.8 141.8zm733.8-366.9h-227.6l-156.8 583.7h195.2l45-166.8h48.4l65 166.8h210.1l-80.9-194.3c115.1-35.9 162.6-114.2 162.6-205.1 0-45.9-13.3-89.2-45.9-121.7-39.1-39.2-107.5-62.6-215.1-62.6zm-36.6 277.7h-70.9l30.9-114.2h69.2c27.5 0 46.7 5.8 57.5 16.7 8.3 8.3 12.5 19.2 12.5 30.9 0 36.6-34.2 66.6-99.2 66.6zm857.8 191-135.1-106.7c-31.7 39.2-68.4 60.9-113.4 60.9-51.7 0-91.7-35.9-91.7-100.1 0-80.1 56.7-160.1 144.3-160.1 44.2 0 78.4 23.3 90.9 70.9l174.3-75.9c-24.2-103.5-113.5-170.2-239.4-170.2-251.8 0-374.4 193.5-374.4 352.7 0 156.8 113.4 256 276.9 256 124.2 0 209.3-50.8 267.6-127.5zm361.1-472.9-403.6 587.9h212.6l50.9-78.4h204.3l10 78.4h207.6l-88.3-587.9zm-53.4 371.1 90.9-141.8 15.8 141.8zm941.5-291.8c-44.2-44.2-115.1-75-228.5-75h-206.8l-156.8 583.7h253.5c135.1 0 236-37.5 306-107.6 62.5-62.5 95.9-142.6 95.9-230.2.1-70.9-20-127.6-63.3-170.9zm-176.8 291c-30 30-80.9 47.5-140.1 47.5h-34.2l65-243.5h32.5c46.7 0 75.9 10.8 94.2 29.2 15 15 24.2 35.9 24.2 67.5.1 35.9-17.4 75.1-41.6 99.3zm818-206 43.4-160.1h-497.8l-156.8 583.7h502l42.5-160.1h-310.2l17.5-63.4h285.2l37.5-140.9h-285.1l15.8-59.2z" style="fill:none;fill-opacity:1;stroke:#fff;stroke-width:26.4;stroke-dasharray:none;stroke-opacity:1" transform="translate(-34 -20)"/><path d="m598.5 32.3 83.6 555.9h-175l-8.2-64.4-1.8-14H270l-4.7 7.3-46.1 71.1H45.6L427.2 32.3h171.3M336.2 403.4h153.9l-2-17.8-15.8-141.8-5-44.8-24.4 38L352 378.8l-15.8 24.6M612.3 16.3H418.8L15.2 604.2h212.6l50.9-78.4H483l10 78.4h207.6zM365.4 387.4l90.9-141.8 15.8 141.8zm733.8-350.9c96.9 0 165.4 19.5 203.8 57.9 13.9 13.9 24.5 30.7 31.4 50 6.5 18.1 9.8 38.5 9.8 60.5 0 44.1-11.8 82.3-35 113.7-25.5 34.4-64.7 60.1-116.4 76.2L1176 400l6.7 16.2 71.7 172.1h-175.2l-61.1-156.6-4-10.2h-71.4l-3.2 11.8-41.8 154.9h-162L883.9 36.5h215.3M970.8 314.2h91.8c34.1 0 63-7.8 83.4-22.6 20.5-14.9 31.8-36.2 31.8-60.1 0-16.1-6.1-31.1-17.2-42.2-14.2-14.2-37.3-21.4-68.9-21.4h-81.5l-3.2 11.8L976.2 294l-5.4 20.2m128.4-293.7H871.6L714.8 604.2H910l45-166.8h48.4l65 166.8h210.1l-80.9-194.3c115.1-35.9 162.6-114.2 162.6-205.1 0-45.9-13.3-89.2-45.9-121.7-39.1-39.2-107.5-62.6-215.1-62.6ZM991.7 298.2l30.9-114.2h69.2c27.5 0 46.7 5.8 57.5 16.7 8.3 8.3 12.5 19.2 12.5 30.9 0 36.7-34.2 66.7-99.2 66.7h-70.9zM1750.3 24c57.9 0 109.2 15 148.5 43.3 34.7 25 59.3 60 71.9 101.7L1825 232.4c-7.6-18.4-18.8-33.3-33.5-44.4-18.1-13.6-41.2-20.8-67-20.8-45.5 0-87.1 19.8-117.2 55.8-27.3 32.7-43 76.5-43 120.3 0 34.9 10.7 64.3 31 85.2 19.3 19.9 46.5 30.8 76.7 30.8 24.7 0 48-6 69.4-17.7 16.4-9 31.6-21.2 46.1-37.1l110.4 87.3c-27.1 32.4-58.6 57.9-93.8 75.7-43.7 22.1-94.6 33.3-151.3 33.3-38.6 0-74.6-5.7-106.9-17.1-31.6-11-59.2-27.2-82-48-47-42.8-71.9-103.3-71.9-175 0-38.4 7.6-78.7 22-116.6a339 339 0 0 1 66.6-108.7C1526.8 84.6 1611.1 24 1750.3 24m0-16c-251.8 0-374.4 193.5-374.4 352.7 0 156.8 113.4 256 276.9 256 124.2 0 209.3-50.9 267.7-127.6l-135.1-106.7c-31.7 39.2-68.4 60.9-113.4 60.9-51.7 0-91.7-35.9-91.7-100.1 0-80.1 56.7-160.1 144.3-160.1 44.2 0 78.4 23.3 90.9 70.9l174.3-75.9C1965.5 74.7 1876.2 8 1750.3 8Zm710.9 24.3 83.6 555.9h-175l-8.2-64.4-1.8-14h-227.1l-4.7 7.3-46.1 71.1h-173.6l381.6-555.9h171.3m-262.3 371.1h153.9l-2-17.8-15.8-141.8-5-44.8-24.4 38-90.9 141.8-15.8 24.6M2475 16.3h-193.5l-403.6 587.9h212.6l50.9-78.4h204.3l10 78.4h207.6zm-246.9 371.1 90.9-141.8 15.8 141.8zm713-350.9c51.9 0 97.3 6.7 134.9 20 32.8 11.6 60.5 28.5 82.3 50.3 39.5 39.5 58.7 91.7 58.7 159.6 0 41.5-7.8 81.3-23.3 118.3-15.4 37.1-38.3 70.9-67.9 100.5-33.6 33.6-74.8 59.2-122.7 76.3-49.5 17.6-107.4 26.6-172 26.6h-232.6l148.2-551.7h194.4m-143.4 413.7h55c63 0 118.2-19 151.4-52.2 28.2-28.2 46.4-71.6 46.4-110.5 0-33.6-9.4-59.4-28.9-78.9-22.8-22.8-57.3-33.9-105.5-33.9h-44.8l-3.2 11.9-65 243.5-5.4 20.1m143.4-429.6h-206.8l-156.8 583.7H2831c135.1 0 236-37.5 306-107.6 62.5-62.5 95.9-142.6 95.9-230.2 0-70.9-20-127.6-63.4-170.9-44.1-44.1-115-75-228.4-75zm-122.6 413.6 65-243.5h32.5c46.7 0 75.9 10.8 94.2 29.2 15 15 24.2 35.9 24.2 67.5 0 35.9-17.5 75-41.7 99.2-30 30-80.9 47.5-140.1 47.5h-34.1zM3833.3 36.5l-34.7 128.1h-306.1l-3.2 11.9-15.8 59.2-5.4 20.1h285.2l-29 108.9h-285.1l-3.2 11.7-17.5 63.4-5.6 20.3h310.4l-34 128.1h-468.8l148.2-551.7h464.6m20.9-16h-497.8l-156.8 583.7h502l42.5-160.1h-310.2l17.5-63.4h285.2l37.5-140.9H3489l15.8-59.2h306z" style="fill:none;fill-opacity:1;stroke:#fff;stroke-width:26.4;stroke-dasharray:none;stroke-opacity:1" transform="translate(799.69 610.53)"/></g><g aria-label="CONSOLE" style="font-size:833.836px;line-height:1.25;font-family:&quot;Gotham Ultra&quot;;-inkscape-font-specification:&quot;Gotham Ultra&quot;;text-align:center;letter-spacing:0;word-spacing:0;text-anchor:middle;stroke-width:4.3429;fill:#fefefe;fill-opacity:1"><path d="M281.34 608.97q-61.7 0-112.56-17.51-50.87-18.35-87.56-51.7-35.85-33.36-56.7-80.05Q4.51 412.18 4.51 352.98q0-60.04 22.51-122.58Q50.37 167.87 97.07 117q46.7-51.7 116.73-84.21Q284.68.27 378.9.27q47.53 0 86.72 12.5 40.03 11.68 70.88 34.2 30.85 21.67 51.7 53.36 20.84 31.68 30.01 70.04l-174.27 75.88q-9.17-35.86-33.35-53.37t-57.54-17.5q-32.52 0-59.2 14.17-26.68 13.34-45.86 35.85-18.34 22.52-29.18 51.7-10.01 28.35-10.01 58.37 0 48.36 25.85 74.21 26.68 25.85 65.87 25.85 34.19 0 61.7-15.84t51.7-45.03l135.09 106.73q-44.2 57.53-109.24 92.56t-158.43 35.02m635.39-172.61q30.85 0 55.03-13.34 25.01-14.17 42.53-35.85 17.5-21.68 26.68-49.2 10-27.52 10-55.03 0-23.35-7.5-43.36-6.67-20.01-20.01-35.02t-34.19-23.35q-20.01-8.34-45.86-8.34-30.85 0-55.87 14.18-24.18 13.34-41.69 35.02t-27.52 49.2q-9.17 27.51-9.17 55.03 0 23.34 6.67 43.36 7.5 20 20.85 35.02 13.34 15 33.35 23.34t46.7 8.34m-13.35 171.77q-64.2 0-117.57-20-53.36-20.86-91.72-55.88-38.35-35.85-60.03-84.21-20.85-48.37-20.85-104.23 0-67.54 25.85-129.25 26.68-62.54 72.54-110.06T820 29.45Q883.37 1.1 956.75 1.1q64.2 0 117.57 20.85 53.37 20 91.72 55.86 38.36 35.02 59.2 83.39 21.69 48.36 21.69 104.23 0 67.54-26.69 130.07-25.85 61.7-71.7 109.24-45.87 47.53-109.24 75.88-62.54 27.51-135.92 27.51M1372 12.77h182.6l132.59 278.5 75.04-278.5h193.45l-156.76 583.69H1625.5l-138.42-290.18-78.38 290.18h-193.45zm777.13 595.36q-87.55 0-160.93-28.35-73.37-29.18-126.74-77.54l111.73-133.42q50.03 42.53 100.06 62.54t96.73 20.01q19.18 0 30.85-6.67t11.67-19.18q0-6.67-3.33-11.67-2.5-5.84-12.5-10.84-10.01-5.84-29.2-13.34-19.17-8.34-50.86-20.01-40.85-15.01-70.87-30.02-30.02-15.85-50.03-35.02-19.18-19.18-29.19-42.53-9.17-24.18-9.17-56.7 0-42.53 18.35-79.21 19.17-37.53 53.36-65.04t82.55-43.36q48.36-16.68 108.4-16.68 78.38 0 145.09 23.35 67.54 23.34 115.07 64.2l-111.74 133.42q-33.35-26.69-77.54-45.86-44.2-19.18-90.9-19.18-19.17 0-30.84 5.83-11.68 5-11.68 17.51 0 6.68 3.34 11.68 3.33 4.17 13.34 9.17t28.35 12.5q18.34 6.68 48.36 17.52 37.52 14.17 67.54 29.18t50.87 35.02q21.68 19.18 32.52 45.03 11.67 25.02 11.67 58.37 0 44.2-18.34 82.55-17.52 38.36-51.7 66.7-33.36 27.52-82.55 44.2-49.2 15.84-111.74 15.84m622.05-171.77q30.85 0 55.03-13.34 25.01-14.17 42.52-35.85t26.69-49.2q10-27.52 10-55.03 0-23.35-7.5-43.36-6.67-20.01-20.01-35.02t-34.2-23.35q-20-8.34-45.85-8.34-30.85 0-55.87 14.18-24.18 13.34-41.7 35.02-17.5 21.68-27.5 49.2-9.18 27.51-9.18 55.03 0 23.34 6.67 43.36 7.5 20 20.85 35.02 13.34 15 33.35 23.34t46.7 8.34m-13.35 171.77q-64.2 0-117.57-20-53.36-20.86-91.72-55.88-38.36-35.85-60.04-84.21-20.84-48.37-20.84-104.23 0-67.54 25.85-129.25 26.68-62.54 72.54-110.06t108.4-75.05Q2737.82 1.1 2811.2 1.1q64.2 0 117.57 20.85 53.37 20 91.72 55.86 38.36 35.02 59.2 83.39 21.68 48.36 21.68 104.23 0 67.54-26.68 130.07-25.85 61.7-71.7 109.24-45.87 47.53-109.24 75.88-62.54 27.51-135.92 27.51m468.62-595.36h195.12L3309.83 429.7h266l-45.03 166.77h-461.11zm507.8 0h497.8l-43.36 160.1h-306.01l-15.85 59.2h285.18L4114.48 373h-285.17l-17.51 63.37h310.19l-42.53 160.1H3577.5z" style="fill:#fefefe;fill-opacity:1" transform="translate(-4.05)"/></g></svg>