<svg xmlns="http://www.w3.org/2000/svg" viewBox="179.92 14.62 1239.18 327.74"><path d="m1034.31 227.5-26.03 44.63a.5.5 0 0 1-.4.23l-20.36.08a.46.46 0 0 1-.4-.7l36.76-63.98a.5.5 0 0 0-.02-.5l-36.49-52.98c-.2-.3.01-.72.38-.72l21.05.04q.25 0 .39.19l25 35.23c.18.27.58.27.76 0l24.8-35.19a.5.5 0 0 1 .37-.2l21.52-.25c.37-.01.6.41.4.72l-36.69 53.35q-.15.24-.01.5l36.61 63.63c.18.3-.04.7-.4.7l-20.18.2a.5.5 0 0 1-.41-.23l-25.84-44.75a.46.46 0 0 0-.8 0m-81.06-74.03h17.53c.25 0 .45.2.45.46v118c0 .25-.2.46-.45.46h-17.53a.45.45 0 0 1-.46-.45V153.93c0-.25.2-.46.46-.46m-140.98 11.27c0 .6.72.93 1.18.52a72 72 0 0 1 21.8-13.44c.48-.2 1.03 0 1.3.45l8.83 15.14q1.25 2.13-1.13 2.78c-16 4.25-25.56 15.6-30.26 31.11q-1.77 5.87-1.79 15.75-.04 27.37.02 54.75c0 .38-.31.68-.69.68l-17.03-.12q-.62-.01-.62-.64l.13-117.38q0-.82.82-.84l16.76-.04q.63 0 .63.62zM866 262.5q-11.54-10.37-12.15-27.82-.03-.8.75-1l16.92-4.3q.84-.22.8.65c-.33 8.78 2.9 18.37 11.32 22.11 16.87 7.51 34.14-14.86 20.96-28.72-7.77-8.16-19.77-13.66-29.22-20.4-27.36-19.44-8.24-61.53 24.41-54.57q19.02 4.06 22.57 26.07.63 3.9-2.34 5.01-6.3 2.38-13.11 5.21c-.7.29-1.45-.22-1.44-.96.22-28.17-32.03-18.26-22.58.73 2.77 5.6 16.45 11.93 22.35 15.88q8.56 5.73 12.66 10.17c16.92 18.4 10.2 48.03-12.76 58.63-13.28 6.12-28.48 2.91-39.14-6.7m-91.58-53.14a65.72 65.72 0 1 1-131.44 0 65.72 65.72 0 0 1 131.44 0m-57.29-45.85c-45.85-8.59-73.94 48.38-39.9 80.2 18.97 17.75 52.72 14.88 68.17-6.04q19.2-25.99 2.15-53.8c-6.63-10.84-17.75-17.99-30.42-20.36m259.14-34.6a14.25 14.25 0 1 1-28.5 0 14.25 14.25 0 0 1 28.5 0m-460.2 114.3c15.32 9.82 30.62 12.85 48.61 11.22q25.72-2.34 45.25-20.01c.6-.55 1.5-.55 2.12-.02l12.17 10.8a.88.88 0 0 1-.04 1.36q-1.2.95-3.63 3-30.82 26.03-69.15 24.29a88 88 0 0 1-26.7-5.35c-29.04-10.7-53.47-35.94-60.25-66.88-2.42-11.07-4.7-21.72-2.68-33.66q1.42-8.4 2.78-14.16c7.1-30.32 32.13-56.4 61.45-66.53 34.71-12 71.73-2.16 98.57 22.59q.54.5 0 .97l-12.66 11.56q-.46.43-.96.04-11.17-8.7-17.58-12.14c-45.79-24.7-100.4 1.92-111.59 51.76-7.14 31.77 7.45 63.97 34.29 81.16m792.5-88.3 65.47-.16c.34 0 .63-.29.63-.63l.06-71.6c0-.34.29-.62.63-.62l43.11.1c.35 0 .63.29.63.64l-.12 191.6c0 .35-.28.64-.63.64l-43.01-.18a.63.63 0 0 1-.63-.63l.04-80.1a.63.63 0 0 0-.63-.63l-65.74.04a.63.63 0 0 0-.63.63v80.24c0 .34-.28.63-.62.63l-42.88-.13a.63.63 0 0 1-.63-.63l.05-191.39c0-.34.28-.62.63-.62l42.85-.17c.35 0 .63.28.63.63l.15 71.71c0 .35.28.63.63.63m-118.3-34.34-.03 153.88c0 .24-.2.43-.43.43l-43.34-.15a.4.4 0 0 1-.42-.43l-.07-153.83a.4.4 0 0 0-.43-.42l-54.1-.03a.4.4 0 0 1-.42-.42l.25-37.2c0-.24.19-.43.42-.43h153.48c.23 0 .42.19.42.42l-.08 37.27c0 .24-.19.43-.42.43l-54.41.05a.4.4 0 0 0-.43.43" style="fill:#fff"/><path d="M325.86 340.34c11.13-2 17.43-4.16 21.06-7.22 3.51-2.95 3.62-3.67.97-6.32-2.6-2.6-3.44-2.52-4.82.5-.62 1.38-1.57 2.5-2.1 2.5-1.09 0-.68-3.1.74-5.65 1.51-2.7-.13-6.43-8.6-19.54-9.72-15.06-22.25-36.8-24.53-42.58-2.27-5.74-2.16-12.88.28-17.42 1.43-2.68 1.63-3.8.75-4.16-.67-.27 1.12-.53 3.97-.57s5.4-.42 5.66-.83.75-10.43 1.1-22.25c.71-24.08 1.11-28 2.85-28 .66 0 10.58 6.07 22.04 13.5s21.2 13.5 21.65 13.5 8.8-12.42 18.53-27.6c14.66-22.85 17.47-27.81 16.34-28.84-.75-.68-10.46-7.02-21.6-14.08s-20.03-13.04-19.78-13.29c.24-.25 10.15 5.75 22.01 13.32s21.86 13.48 22.2 13.13c.83-.82 2.81.56-20.79-14.5-11.33-7.23-21.34-13.14-22.25-13.14-4.07 0-.25-2.47 20.1-12.98 11.96-6.18 22.14-11.6 22.6-12.03.72-.67-27.97-56.75-30.32-59.3-.42-.45-10.55 4.4-22.52 10.8-11.97 6.38-21.2 10.68-22 10.91-1.15.33-3.56 2.22-5.88 4.28-.68.6-.91 1.22-1.75 2.01a51 51 0 0 1-12.16 8.39c-5.96 3.08-9.32 4.3-15.78 6.81-2.25.88-2.5 1.34-2.71 3.23-.93 8.26-2.04 38.44-2.13 60.88l-.07 11.96s2.66.89 3.98 1.37c8.22 2.96 11.6 14.57 6.81 21.67-8.4 12.47-27.44 6.62-27.43-8.49 0-6.2 2.94-10.3 7.84-12.93a13 13 0 0 1 3.94-1.42l.25-33.08c-.1-12.76.6-26.17.88-38.7.05-2.15-.24-3.53-1.71-4.64-2.17-1.62-6.24-3.7-6.24-3.7a72 72 0 0 1-10.28-6.74c-2.64-2.08-5.36-4.36-7.65-7.48-.3-.42-.51-1.58-.71-2-.85-1.7-2.41-4.3-2.9-4.6-1.72-1.08-9.3-5.07-20.3-12.16-15.2-9.8-20.28-12.62-21.16-11.73-1.32 1.35-32.33 52.48-32.64 53.83-.11.49 9.02 6.91 20.3 14.27 11.27 7.36 20.62 14.03 20.78 14.81q.3 1.43-21.24 12.85c-11.85 6.27-21.53 11.86-21.52 12.41.05 2.31 28.8 56.02 30.14 56.29.8.15 10.59-4.46 21.76-10.25s20.97-10.54 21.78-10.54c1.26 0 1.36 3.4.74 24.86-.52 17.9-.41 25.04.39 25.54.61.38 3.31.95 6 1.27 4.34.51 5.16 1.02 7.52 4.65 3.8 5.87 3.7 13.95-.29 22.37-2.58 5.47-18.26 29.89-30.05 46.81-3.28 4.72-4.07 6.64-3.69 9 .72 4.38 1.13 5.84 2.07 7.35.68 1.09.44 1.14-1.21.25a6.3 6.3 0 0 1-2.69-3.1c-.83-2.61-3-2.55-4.9.15-2.04 2.93-.81 4.88 5.08 8.03 8.73 4.66 22.88 8.1 40.36 9.78 12.88 1.24 42.59.45 52.93-1.42m-1.23-126.4c.57-15.95.47-21.56-.42-22.29-1.61-1.34-2.1 3.35-2.82 27.15-.54 17.54-.44 19.35.94 17.98 1.23-1.23 1.69-5.72 2.3-22.84M405 98.04c-4.08-8.09-27.23-51.65-27.72-52.16-3.88-4.05 8.48 21.17 25.32 51.67 4.34 7.86 6.32 8.26 2.4.48m-99.5-19.95a76 76 0 0 0 12.3-7.24c.84-.63 2.2-1.09 2.89-1.38 2.31-.94 4.17-2.3 4.5-3.32.68-2.07.99-6.6 1.2-14.85s.51-19.27.68-24.5l.31-9.5-5.67-.61c-3.12-.34-18.02-.94-33.1-1.34l-27.43-.73-.64 5.34c-.35 2.94-.68 11.19-.73 18.34-.06 7.15-.68 15.63-.83 18.9-.2 4.1-.35 6.23.1 7.71.36 1.17.86 1.62 1.94 2.55.57.49 1.21.48 1.6.8 3.57 2.89 10.88 8.86 17.1 12.13 8.2 4.32 12.28 4.12 25.77-2.3m-51.68-16.7c-1.75-2.64-33.33-21.59-34.85-21.58-.87.01 2.69 2.75 7.91 6.1l18.5 11.89c8.28 5.34 10.69 6.99 8.44 3.6m76.55-11.27c1.5-27.85 1.52-33.32.1-33.32-1.57 0-2.12 5.7-3.07 31.5-.5 13.6-.4 14.79.97 12.82.97-1.38 1.7-5.4 2-11" style="color:#000;font-style:normal;font-variant:normal;font-weight:400;font-stretch:normal;font-size:medium;line-height:normal;font-family:Sans;text-indent:0;text-align:start;text-decoration:none;letter-spacing:normal;word-spacing:normal;text-transform:none;writing-mode:lr-tb;direction:ltr;baseline-shift:baseline;text-anchor:start;display:inline;overflow:visible;fill-opacity:1;stroke:none;stroke-width:2;marker:none;fill:#fff"/></svg>