<svg xmlns="http://www.w3.org/2000/svg" viewBox="0 0 1758.6 493"><path d="M206.19 350.24h1346.09a71.4 71.4 0 0 1 71.41 71.41 71.37 71.37 0 0 1-71.37 71.37H206.2a71.36 71.36 0 0 1-71.37-71.37c.04-39.43 31.97-71.4 71.37-71.4m209.33 103.94h18v-18.6h8.94c16.17 0 27.94-8.06 27.94-23.4V412c0-14.43-10.58-22.86-27.02-22.86h-27.86Zm18.05-32.75v-17.18H442c6.5 0 10.4 2.98 10.4 8.56v.19c0 5.13-3.9 8.47-10.3 8.47Zm72.29 32.75h49.51v-15.8H523.9v-49.25h-18Zm79.88-.05h18.97l4.63-11.59h25.05l4.72 11.6h19.33l-27.67-65.47h-17.36Zm28.9-25.6 7.34-18.51 7.24 18.5Zm86.63 25.6h18.1v-24.6l24.68-40.4H723.9l-13.47 23.68-13.37-23.68h-20.53l24.7 40.68Zm155.24 1.15c15.8 0 26.3-7.88 26.3-21.17v-.18c0-12.18-9.3-17-24.24-20.25-8.98-2.06-11.22-3.34-11.22-6.32v-.18c0-2.3 2.15-4.17 6.5-4.17 5.73 0 12.24 2.25 18.19 6.41l9.02-12.73c-7.05-5.68-15.7-8.66-26.75-8.66-15.57 0-25.15 8.7-25.15 20.8v.18c0 13.38 10.68 17.27 24.51 20.43 8.8 2.06 10.95 3.53 10.95 6.23v.19c0 2.79-2.61 4.44-7.42 4.44-7.51 0-14.66-2.66-21.07-7.79l-10.03 12c7.97 7.15 18.96 10.77 30.41 10.77m78.93-1.15h18.1v-24.6l24.68-40.4h-20.15l-13.47 23.68-13.38-23.68H910.7l24.7 40.68Zm98.44 1.15c15.8 0 26.29-7.88 26.29-21.17v-.18c0-12.18-9.3-17-24.23-20.25-8.98-2.06-11.23-3.34-11.23-6.32v-.18c0-2.3 2.16-4.17 6.51-4.17 5.72 0 12.23 2.25 18.18 6.41l9.03-12.73c-7.06-5.68-15.71-8.66-26.75-8.66-15.58 0-25.15 8.7-25.15 20.8v.18c0 13.38 10.67 17.27 24.5 20.43 8.8 2.06 10.95 3.53 10.95 6.23v.19c0 2.79-2.6 4.44-7.42 4.44-7.5 0-14.65-2.66-21.07-7.79l-10.03 12c8.02 7.15 18.96 10.77 30.42 10.77m76.95-1.1h18v-49.24h19.52v-15.8h-57.03v15.8h19.51Zm73.3 0h52.76v-15.35H1202v-10.3h31.2v-14.2H1202v-9.85h34.45v-15.35h-52.32Zm89.87-65.05v65h17.63v-37.15l16.54 25.29h.37l16.62-25.47v37.33h17.91v-65h-19.05l-15.53 25.15-15.53-25.15Z" class="st0" style="clip-rule:evenodd;fill-rule:evenodd;stroke-width:.458072;fill:#fff"/><path d="m310.9 79.15-83.14 88.18-54.88-37.79s18.05-17.31 1.56-29.91c-12.87-9.8-48.87 11.04-47.36 52 1.83 47.22 30.92 73.97 63.03 73.97 29.77 0 37.6-24.14 37.6-24.14h66.84v55.66l94-248.87h107.41l86.26 223.63s6.27 11.81 12.55 14.97c0 0 .37-146.72.37-150.84s-.55-8.66-3.12-11.59c-4.21-4.9-11.36-6.87-11.36-6.87V8.25h150.57c78.05 0 98.12 21.3 120.75 62.2C883.26 28.17 926.28.37 987.66.37c63.17 0 107.83 23.36 133.34 62.2C1156.64 19.83 1214 0 1266.48 0c64.5 0 118.37 31.33 146.27 79.93V8.25h145.07l15.3 38.98 11.36-38.98h149.79v67.7c-10.58 5.13-14.84 10.35-12.96 22.44l20.93 133.85c.87 4.35 2.38 8.89 6.14 12.23 4.35 3.9 10.21 3.16 10.21 3.16v77.19h-150.57V266.5h-86.3v58.45h-141.54v-37.98s-51.72 45.67-118.41 45.67c-85.3 0-142.33-62.98-142.33-62.98v55.1h-100.4c-89.33 0-166.01-49.1-187.45-138.56-10.17 9.7-54.92 41.82-108.6 53.91-4.18.92-6.28 2.52-6.28 7.1 0 8.3 17.68 11.22 17.68 11.22v66.33H183.88C81.9 324.82 0 254.73 0 165.77S63.86 1.16 169.72 1.16c101.2 0 141.18 78 141.18 78M168.17 31.2c-66.38 0-139.58 46.91-139.58 131.42 0 55.11 54.1 131.47 151.35 131.47h81.58v-63.67h-14.89s-9.2 24.41-52.54 24.41c-74.48 0-97.25-67.74-97.25-104.76 0-37 21.21-81.9 69.04-81.9 47.82 0 49.38 31.06 49.38 38.57 0 7.47-4.31 11.4-4.31 12.96q.01.91.5 1.33l7.43 6.1a6.37 6.37 0 0 0 8.65-.56l43.75-46.08S232.48 31.2 168.17 31.2m160.41 225.05s-1.97 6.33-7.88 12.24c-5.35 5.4-12.5 7.87-12.5 7.87v18.51h78.79v-18.5s-9.16-.97-11.78-7.52c-1.55-3.9-1.55-10.21 0-14.15 1.56-3.94 18.05-48.05 18.05-48.05h80.4s16.48 43.74 18.82 49.24c2.38 5.5 2.38 9.85-.78 15.34-3.16 5.55-9.43 4.72-9.43 4.72v18.92h98.44v-18.5s-9.44-3.17-13.33-7.88c-3.94-4.72-7.88-10.22-10.22-16.13l-81.58-214.2h-67.06ZM431.7 91.72l26.66 74.8h-51.77ZM612.04 59s7.42 4.3 10.58 7.47c3.11 3.16 2.75 11.03 2.75 11.03v185.07s-.78 4.72-4.72 8.65-9.44 5.13-9.44 5.13v18.51h90.98v-18.92s-4.36-1.19-8.25-5.9c-3.94-4.77-4.3-7.52-4.3-7.52v-40.9s44.15-12.1 77.64-27.58c29.04-13.38 62.75-32.25 62.75-85.8s-46.26-70.08-92.53-70.08H612.04Zm152.12 53.18c0 43.33-73.7 74.03-73.7 74.03V76.77s73.7-18.14 73.7 35.41M998.7 31.61c-66.38 0-139.58 46.9-139.58 131.42 0 55.15 54.1 131.51 151.35 131.51h81.58v-63.67h-14.89s-9.2 24.41-52.54 24.41c-74.48 0-97.24-67.75-97.24-104.76s21.2-81.9 69.03-81.9 49.38 31.06 49.38 38.57c0 7.47-4.31 11.4-4.31 12.96q.01.9.5 1.33l7.42 6.1a6.37 6.37 0 0 0 8.66-.56l43.75-46.08s-38.85-49.29-103.11-49.33m407.45 132.98c0-75.63-62.43-134.22-145.57-134.22S1115 89 1115 164.59c0 75.58 60.88 137.7 145.58 137.7s145.57-62.08 145.57-137.7m-145.53-93.31c32.16 0 76.09 23.63 76.09 94.5 0 70.86-39.26 94.5-76.09 94.5-36.87 0-75.3-18.92-75.3-94.5 0-75.63 43.1-94.5 75.3-94.5m183.32-32.94v18.32s11.09 2.84 13.15 6.14c1.97 3.12.18 10.03.18 10.03l-29.59 184.84s-.78 7.1-5.5 12.6-11.17 6.5-11.17 6.5v18.1h81.17v-16.91s-7.84 0-12.14-6.32c-3.12-4.58-2.34-12.97-2.34-12.97l20.39-140.17 40.4 118.92h49.38l40.77-126.8s22.35 143.29 23.13 149.61c.82 6.28-.37 8.66-3.12 12.6-2.7 3.94-10.94 5.13-10.94 5.13V295h93.72v-15.85s-7.47-3.57-9.03-7.88c-1.55-4.35-2.38-7.88-3.16-14.2-.78-6.28-25.88-177.14-26.66-183.46-.77-6.27-.77-9.48 2.75-13.79 2.93-3.57 9.44-6.32 9.44-6.32V38.16h-97.62l-36.05 104.76-33.71-104.58Z" class="st3" style="stroke-width:.458072;fill:#fff"/></svg>