<svg xmlns="http://www.w3.org/2000/svg" viewBox="0 0 1758.6 493"><path d="m310.9 79.15-83.14 88.18-54.88-37.79s18.05-17.31 1.56-29.91c-12.87-9.8-48.87 11.04-47.36 52 1.83 47.22 30.92 73.97 63.03 73.97 29.77 0 37.6-24.14 37.6-24.14h66.84v55.66l94-248.87h107.41l86.26 223.63s6.27 11.81 12.55 14.97c0 0 .37-146.72.37-150.84s-.55-8.66-3.12-11.59c-4.21-4.9-11.36-6.87-11.36-6.87V8.25h150.57c78.05 0 98.12 21.3 120.75 62.2C883.26 28.17 926.28.37 987.66.37c63.17 0 107.83 23.36 133.34 62.2C1156.64 19.83 1214 0 1266.48 0c64.5 0 118.37 31.33 146.27 79.93V8.25h145.07l15.3 38.98 11.36-38.98h149.79v67.7c-10.58 5.13-14.84 10.35-12.96 22.44l20.93 133.85c.87 4.35 2.38 8.89 6.14 12.23 4.35 3.9 10.21 3.16 10.21 3.16v77.19h-150.57V266.5h-86.3v58.45h-141.54v-37.98s-51.72 45.67-118.41 45.67c-85.3 0-142.33-62.98-142.33-62.98v55.1h-100.4c-89.33 0-166.01-49.1-187.45-138.56-10.17 9.7-54.92 41.82-108.6 53.91-4.18.92-6.28 2.52-6.28 7.1 0 8.3 17.68 11.22 17.68 11.22v66.33H183.88C81.9 324.82 0 254.73 0 165.77S63.86 1.16 169.72 1.16c101.2 0 141.18 78 141.18 78M168.17 31.2c-66.38 0-139.58 46.91-139.58 131.42 0 55.11 54.1 131.47 151.35 131.47h81.58v-63.67h-14.89s-9.2 24.41-52.54 24.41c-74.48 0-97.25-67.74-97.25-104.76 0-37 21.21-81.9 69.04-81.9 47.82 0 49.38 31.06 49.38 38.57 0 7.47-4.31 11.4-4.31 12.96q.01.91.5 1.33l7.43 6.1a6.37 6.37 0 0 0 8.65-.56l43.75-46.08S232.48 31.2 168.17 31.2m160.41 225.05s-1.97 6.33-7.88 12.24c-5.35 5.4-12.5 7.87-12.5 7.87v18.51h78.79v-18.5s-9.16-.97-11.78-7.52c-1.55-3.9-1.55-10.21 0-14.15 1.56-3.94 18.05-48.05 18.05-48.05h80.4s16.48 43.74 18.82 49.24c2.38 5.5 2.38 9.85-.78 15.34-3.16 5.55-9.43 4.72-9.43 4.72v18.92h98.44v-18.5s-9.44-3.17-13.33-7.88c-3.94-4.72-7.88-10.22-10.22-16.13l-81.58-214.2h-67.06ZM431.7 91.72l26.66 74.8h-51.77ZM612.04 59s7.42 4.3 10.58 7.47c3.11 3.16 2.75 11.03 2.75 11.03v185.07s-.78 4.72-4.72 8.65-9.44 5.13-9.44 5.13v18.51h90.98v-18.92s-4.36-1.19-8.25-5.9c-3.94-4.77-4.3-7.52-4.3-7.52v-40.9s44.15-12.1 77.64-27.58c29.04-13.38 62.75-32.25 62.75-85.8s-46.26-70.08-92.53-70.08H612.04Zm152.12 53.18c0 43.33-73.7 74.03-73.7 74.03V76.77s73.7-18.14 73.7 35.41M998.7 31.61c-66.38 0-139.58 46.9-139.58 131.42 0 55.15 54.1 131.51 151.35 131.51h81.58v-63.67h-14.89s-9.2 24.41-52.54 24.41c-74.48 0-97.24-67.75-97.24-104.76s21.2-81.9 69.03-81.9 49.38 31.06 49.38 38.57c0 7.47-4.31 11.4-4.31 12.96q.01.9.5 1.33l7.42 6.1a6.37 6.37 0 0 0 8.66-.56l43.75-46.08s-38.85-49.29-103.11-49.33m407.45 132.98c0-75.63-62.43-134.22-145.57-134.22S1115 89 1115 164.59c0 75.58 60.88 137.7 145.58 137.7s145.57-62.08 145.57-137.7m-145.53-93.31c32.16 0 76.09 23.63 76.09 94.5 0 70.86-39.26 94.5-76.09 94.5-36.87 0-75.3-18.92-75.3-94.5 0-75.63 43.1-94.5 75.3-94.5m183.32-32.94v18.32s11.09 2.84 13.15 6.14c1.97 3.12.18 10.03.18 10.03l-29.59 184.84s-.78 7.1-5.5 12.6-11.17 6.5-11.17 6.5v18.1h81.17v-16.91s-7.84 0-12.14-6.32c-3.12-4.58-2.34-12.97-2.34-12.97l20.39-140.17 40.4 118.92h49.38l40.77-126.8s22.35 143.29 23.13 149.61c.82 6.28-.37 8.66-3.12 12.6-2.7 3.94-10.94 5.13-10.94 5.13V295h93.72v-15.85s-7.47-3.57-9.03-7.88c-1.55-4.35-2.38-7.88-3.16-14.2-.78-6.28-25.88-177.14-26.66-183.46-.77-6.27-.77-9.48 2.75-13.79 2.93-3.57 9.44-6.32 9.44-6.32V38.16h-97.62l-36.05 104.76-33.71-104.58Z" class="st3" style="stroke-width:.458072;fill:#fff"/><path d="M357.23 412.77v.18c0 5.13-3.88 8.47-10.31 8.47h-8.56v-17.2h8.47c6.52 0 10.4 3 10.4 8.55m169.62-2.82 7.26 18.5H519.5zM1623.7 421.6a71.4 71.4 0 0 1-71.4 71.4H206.2a71.4 71.4 0 0 1-71.4-71.4 71.4 71.4 0 0 1 71.4-71.4h1346.1a71.4 71.4 0 0 1 71.4 71.4m-1248.43-9.67c0-14.38-10.6-22.84-27.01-22.84h-27.93v65.02h18.03v-18.6h8.93c16.18 0 27.98-8.08 27.98-23.39zm85 26.36h-31.5v-49.2h-17.99v64.97h49.48zm103.11 15.82-27.7-65.48H518.3l-27.61 65.48h18.96l4.62-11.6h25.07l4.71 11.6zm85.5-65.02h-20.15l-13.46 23.68-13.37-23.68h-20.53l24.7 40.7v24.32h18.12v-24.6zm138.74 44.76c0-12.16-9.3-17.01-24.23-20.25-9.02-2.08-11.24-3.38-11.24-6.34v-.18c0-2.31 2.17-4.16 6.52-4.16 5.78 0 12.25 2.26 18.22 6.43l9.02-12.72c-7.03-5.69-15.68-8.65-26.73-8.65-15.58 0-25.16 8.74-25.16 20.81v.19c0 13.36 10.69 17.29 24.51 20.44 8.83 2.08 10.96 3.56 10.96 6.24v.18c0 2.78-2.63 4.44-7.44 4.44-7.54 0-14.66-2.73-21.1-7.81l-10.03 11.97c8 7.17 18.96 10.78 30.43 10.78 15.77 0 26.27-7.9 26.27-21.18zm95.45-44.76H862.9l-13.45 23.68-13.37-23.68h-20.53l24.7 40.7v24.32h18.12v-24.6zm81.98 44.76c0-12.16-9.29-17.01-24.23-20.25-9.01-2.08-11.23-3.38-11.23-6.34v-.18c0-2.31 2.17-4.16 6.52-4.16 5.78 0 12.25 2.26 18.22 6.43l9.01-12.72c-7.02-5.69-15.67-8.65-26.73-8.65-15.58 0-25.15 8.74-25.15 20.81v.19c0 13.36 10.68 17.29 24.5 20.44 8.84 2.08 10.97 3.56 10.97 6.24v.18c0 2.78-2.64 4.44-7.45 4.44-7.54 0-14.66-2.73-21.09-7.81l-10.03 11.97c8 7.17 18.96 10.78 30.43 10.78 15.77 0 26.26-7.9 26.26-21.18zm88.14-44.76h-57.01v15.77h19.51v49.2h18.04v-49.2h19.46zm88.51 49.67h-34.9v-10.32h31.2v-14.2h-31.2v-9.84h34.49v-15.3h-52.35v64.96h52.76zm106.13-49.67h-19.05l-15.49 25.16-15.5-25.16h-19.1v64.97h17.67v-37.13l16.51 25.25h.37l16.65-25.44v37.37h17.94zm190.25 61.41q-1.24-.07-3.65-.27a14 14 0 0 1-3.33-.56 4.5 4.5 0 0 1-2.32-1.8 6 6 0 0 1-.6-2.87v-46.1c0-1.02.23-1.9.6-2.73a4.4 4.4 0 0 1 2.36-1.95q1.1-.46 3.24-.92 2.16-.5 3.7-.65v-3.56h-108.21v3.56q1.54.19 3.7.65 2.14.5 3.24.92c1.15.51 1.94 1.11 2.35 1.95q.62 1.18.6 2.72V445q.01 1.75-.6 2.88a4.5 4.5 0 0 1-2.3 1.8q-.9.35-3.34.56-2.42.2-3.65.27v3.56h108.2zm-62.66-54.29q.6 1.2.6 2.73v46.1h-.1q.02 1.75-.6 2.87a4.5 4.5 0 0 1-2.3 1.8q-.9.36-3.34.56h-.04q-3.62.29-7.17 0h-.05a14 14 0 0 1-3.33-.55 4.5 4.5 0 0 1-2.3-1.8 6 6 0 0 1-.6-2.87v-46.1q-.01-1.55.6-2.74a4.5 4.5 0 0 1 2.35-1.94q1.1-.46 3.24-.92h.04c2.4-.56 4.9-.56 7.36 0h.04q2.14.49 3.24.92c1.16.5 1.94 1.11 2.36 1.94m36.07 0q.6 1.2.6 2.73v46.1h-.1q.01 1.75-.6 2.87a4.5 4.5 0 0 1-2.3 1.8q-.9.36-3.33.56h-.05q-3.62.29-7.17 0h-.05a14 14 0 0 1-3.33-.55 4.5 4.5 0 0 1-2.3-1.8 6 6 0 0 1-.6-2.87v-46.1q-.01-1.55.6-2.74a4.5 4.5 0 0 1 2.35-1.94q1.1-.46 3.24-.92h.04c2.4-.56 4.9-.56 7.36 0h.04q2.14.49 3.24.92c1.16.5 1.94 1.11 2.36 1.94" class="st0" style="fill:#fff"/></svg>