<svg xmlns="http://www.w3.org/2000/svg" viewBox="0 0 3839 773.36"><path d="M644.94 535.91V502.8c0-58.76-47.8-106.56-106.56-106.56h-46.27a12.32 12.32 0 0 1 0-24.61h46.27c58.76 0 106.56-47.8 106.56-106.56s-47.8-106.56-106.56-106.56h-82.46c-58.76 0-106.57 47.8-106.57 106.56v270.85c0 8.73-7.1 15.84-15.84 15.84H226.72c-45.38 0-88.38-17.3-121.07-48.71-32.73-31.45-51.17-73.41-51.91-118.14a168.6 168.6 0 0 1 48.69-121.94 168.5 168.5 0 0 1 121.05-50.74h84.47v-53.72h-84.47c-60.4 0-116.99 23.72-159.35 66.79C21.79 268.34-.98 325.35.03 385.79c.99 59.15 25.28 114.54 68.4 155.98a227.4 227.4 0 0 0 158.29 63.7h106.79a69.64 69.64 0 0 0 69.56-69.56V265.06a52.9 52.9 0 0 1 52.84-52.84h82.46a52.9 52.9 0 0 1 52.84 52.84 52.9 52.9 0 0 1-52.84 52.84H492.1a66.1 66.1 0 0 0-66.03 66.03 66.1 66.1 0 0 0 66.03 66.02h46.27a52.9 52.9 0 0 1 52.84 52.84v33.11a69.64 69.64 0 0 0 69.56 69.56h24.64v-53.72h-24.64a15.84 15.84 0 0 1-15.83-15.83m903.88-307.86v311.39c0 6.78-5.52 12.3-12.3 12.3s-12.3-5.52-12.3-12.3V228.05a69.64 69.64 0 0 0-69.56-69.56h-112.82v53.72h112.82c8.73 0 15.84 7.1 15.84 15.84v311.39a66.1 66.1 0 0 0 66.03 66.03 66.1 66.1 0 0 0 66.03-66.03V228.05c0-8.73 7.1-15.84 15.84-15.84h116.71v-53.72H1618.4c-38.38 0-69.58 31.21-69.58 69.56m1324.51 377.42h53.72V158.49h-53.72zm-1098.11 0h53.72V158.49h-53.72zm661.57 0h53.72V158.49h-53.72zm-1050.63-64.22-17.89-49.97a71 71 0 0 0-66.68-46.95h-104.74c-6.78 0-12.3-5.52-12.3-12.3s5.52-12.3 12.3-12.3h51.91a66.2 66.2 0 0 0 54.05-28.05 66.2 66.2 0 0 0 8.19-60.34l-45.34-126.65c-11.02-30.78-39.27-50.67-71.97-50.67s-60.95 19.89-71.97 50.67l-121.06 338.09a13.55 13.55 0 0 1-12.74 8.97H815.96a52.9 52.9 0 0 1-52.85-52.85v-36.71c0-6.75 5.49-12.24 12.23-12.24h127.48a66.04 66.04 0 0 0 65.96-65.96v-.14a66.04 66.04 0 0 0-65.96-65.96H775.35a12.24 12.24 0 0 1-12.23-12.24v-40.6a52.9 52.9 0 0 1 52.85-52.85h152.86v-53.72H815.96c-58.76 0-106.57 47.81-106.57 106.57v40.6a66.04 66.04 0 0 0 65.96 65.96h127.48c6.75 0 12.23 5.49 12.23 12.24v.15c0 6.75-5.49 12.23-12.23 12.23H775.35a66.04 66.04 0 0 0-65.96 65.96v36.71c0 58.76 47.81 106.57 106.57 106.57h171.96a67.4 67.4 0 0 0 63.32-44.58L1172.3 222.8c5-13.97 17.64-15.06 21.39-15.06s16.39 1.09 21.39 15.06l45.34 126.64a12.1 12.1 0 0 1-1.53 11.31 12.1 12.1 0 0 1-10.13 5.26h-51.91a66.1 66.1 0 0 0-66.03 66.02 66.1 66.1 0 0 0 66.03 66.03h104.74c7.2 0 13.67 4.56 16.1 11.34l17.89 49.97a69.7 69.7 0 0 0 65.49 46.11h37.27v-53.72h-37.27a15.9 15.9 0 0 1-14.91-10.51M2447.16 0h-35.53a69 69 0 0 0-41.55 13.78 69 69 0 0 0-25.09 35.87L2149.97 702.5c-4.75 15.9-18.81 17.14-23.01 17.14s-18.26-1.24-23.01-17.14l-195-652.85a69 69 0 0 0-25.09-35.87A69 69 0 0 0 1842.3 0h-35.53v53.72h35.53c6.95 0 13.19 4.65 15.17 11.3l195.01 652.85c5.16 17.27 15.42 31.65 29.68 41.59a78 78 0 0 0 44.8 13.9 78 78 0 0 0 44.8-13.9c14.26-9.93 24.52-24.31 29.68-41.59l195.01-652.85a15.9 15.9 0 0 1 15.17-11.3h35.53zm258.06 355.12h-46.6a71.53 71.53 0 0 1-71.45-71.45 71.53 71.53 0 0 1 71.45-71.45h165.31V158.5h-165.31c-69.02 0-125.17 56.15-125.17 125.17s56.15 125.17 125.17 125.17h46.6a71.53 71.53 0 0 1 71.45 71.45 71.53 71.53 0 0 1-71.45 71.45h-165.88v53.72h165.88c69.02 0 125.17-56.15 125.17-125.17s-56.15-125.17-125.17-125.17m650.53-135.6a228.8 228.8 0 0 0-162.82-67.44 228.8 228.8 0 0 0-162.82 67.44 228.8 228.8 0 0 0-67.44 162.82 228.8 228.8 0 0 0 67.44 162.82 228.8 228.8 0 0 0 162.82 67.44 228.8 228.8 0 0 0 162.82-67.44 228.8 228.8 0 0 0 67.44-162.82 228.8 228.8 0 0 0-67.44-162.82m-162.82 337.72c-96.45 0-174.91-78.46-174.91-174.91s78.46-174.91 174.91-174.91 174.91 78.46 174.91 174.91-78.47 174.91-174.91 174.91m621.43-398.75a69.64 69.64 0 0 0-69.56 69.56v308.81a14.9 14.9 0 0 1-14.88 14.88c-6.27 0-11.9-3.97-14.01-9.87L3589.68 189.3c-11.01-30.74-41.15-48.31-73.33-42.72-32.17 5.58-54.63 32.29-54.63 64.94v324.39c0 8.73-7.1 15.84-15.84 15.84h-24.64v53.72h24.64a69.64 69.64 0 0 0 69.56-69.56V211.52c0-8.92 6.33-11.35 10.1-12.01s10.55-.5 13.56 7.9l126.24 352.58a68.8 68.8 0 0 0 64.59 45.48 68.7 68.7 0 0 0 68.6-68.6V228.05c0-8.73 7.1-15.84 15.84-15.84H3839v-53.72z" style="fill:#fff"/></svg>