<svg xmlns="http://www.w3.org/2000/svg" viewBox="0 0 200 40"><path d="m39.56 24-.48 5.05q-1.92.78-4.86.77-3.78 0-5.42-1.46-1.63-1.48-1.63-4.53 0-1.29.42-3.81.9-5.16 3.1-7.5t6.98-2.34q1.11 0 2.54.22 1.42.22 2.08.55l-1.68 4.6a14 14 0 0 0-3.31-.43 6 6 0 0 0-2.21.3q-.66.3-.81 1.2l-1.38 7.86q1.08.25 2.22.25 2.43 0 4.44-.73m9.57-7.1-1.38 7.8h2.37q1.17 0 1.74-.29t.75-1.3l1.38-7.8h-2.4q-1.14 0-1.71.28t-.75 1.3m3.45-6.72q3.81 0 5.43 1.48 1.62 1.5 1.62 4.57 0 3.1-.98 6.47-.97 3.38-3.1 5.25-2.1 1.88-6.17 1.88-4.05 0-5.68-1.48-1.62-1.5-1.62-4.59 0-1.47.42-3.87.42-2.42 1.1-4.18a10 10 0 0 1 1.87-3.05q2.25-2.48 7.1-2.48m20.22 14.4-.84 4.8h-11.4l3.3-18.75h5.7L67.1 24.57zm12.78 0-.84 4.8h-11.4l3.3-18.75h5.7l-2.46 13.94zm13.95-6.63-.78 4.35h-5.7l-.4 2.27h7l-.84 4.8H86.1l3.3-18.74h12.55l-1.56 4.8h-6.15l-.42 2.52zm15.4 6.06-.48 5.04q-1.92.78-4.86.77-3.78 0-5.42-1.46-1.63-1.48-1.63-4.53 0-1.29.42-3.81.9-5.16 3.1-7.5t6.98-2.34q1.1 0 2.54.22 1.42.22 2.08.55l-1.68 4.6a14 14 0 0 0-3.31-.43 6 6 0 0 0-2.21.3q-.66.3-.81 1.2l-1.38 7.86q1.08.25 2.22.25 2.43 0 4.44-.73m18-13.39-.87 4.8h-4.14l-2.43 13.96h-5.7l2.43-13.95h-4.11l.87-4.8zm4.56 18.76h-5.7l3.3-18.75h5.7zm11-12.48-1.37 7.8h2.37q1.17 0 1.74-.29t.75-1.3l1.38-7.8h-2.4q-1.14 0-1.71.28t-.75 1.3m3.46-6.72q3.81 0 5.43 1.48 1.62 1.5 1.62 4.57 0 3.1-.98 6.47-.97 3.38-3.1 5.25-2.1 1.88-6.17 1.88-4.05 0-5.68-1.48-1.62-1.5-1.62-4.59 0-1.47.42-3.87.42-2.42 1.1-4.18a10 10 0 0 1 1.87-3.05q2.25-2.48 7.1-2.48m23.82 19.2h-5.37l-3.06-6.66a1 1 0 0 1-.12-.6q0-.37.06-.85h-.24l-1.41 8.1h-5.7l3.3-18.74h5.37l3.06 6.65q.09.21.09.6 0 .37-.06.85h.24l1.44-8.1h5.7zm3.27-.33 1.68-4.96q2.52.7 4.62.7t3.39-.18l.24-1.5-2.5-.25q-2.85-.27-4.03-1.28a3.6 3.6 0 0 1-1.18-2.88q0-.81.18-1.8.69-3.84 2.5-5.28 1.82-1.44 5.63-1.44t6.72.75l-1.56 4.8q-2.61-.46-4.2-.46t-2.7.16l-.24 1.47 2 .2q3.07.33 4.36 1.47a3.8 3.8 0 0 1 1.29 3q0 1.93-.84 3.97-.42 1.05-.92 1.76a4 4 0 0 1-1.26 1.18q-.76.51-1.4.75-.62.27-1.58.38-1.42.21-3.45.21-3.72 0-6.75-.77" style="white-space:pre;fill:#fff"/><path d="M8.17 16.66c0-.62.5-1.12 1.1-1.12h4.45c.62 0 1.11.5 1.11 1.12v3.33c0 .61-.5 1.11-1.1 1.11H9.27a1.1 1.1 0 0 1-1.11-1.11zm5.55 5.55c1.23 0 2.22-1 2.22-2.22v-1.11h2.23c.61 0 1.1.5 1.1 1.1v3.34a1.1 1.1 0 0 1-1.1 1.11h-4.45c-.61 0-1.1-.5-1.1-1.1V22.2zm-8.89-6.96a2.22 2.22 0 1 1 3.04-3.04h11.7a2.21 2.21 0 0 1 4.15 1.11c0 .82-.45 1.54-1.1 1.93v9.48a2.22 2.22 0 1 1-3.04 3.04H7.87a2.22 2.22 0 1 1-3.04-3.04zm3.04-.82q-.3.52-.81.82v9.48q.51.3.8.81h11.72q.3-.5.81-.8v-9.5q-.52-.3-.81-.8z" style="fill:#fff"/></svg>