<svg xmlns="http://www.w3.org/2000/svg" viewBox="0 0 3839 1042.4"><path d="M3396.4 555.9c2.5-20.3 5.9-39.9 10.1-58.7 57.7 7.2 115.4 14.8 173 22.9 16.7 2.3 21.9 18.6 9.8 27 32-18.1 64.3-40.4 94.7-65.2-87.5-12.9-175.1-24.9-262.8-35.9 33.3-93.6 98-154.9 209.3-139.3 129.4 18.6 110.4 123.7 110.4 123.6 45.3-45.8 81.6-95.4 98-140.6 0 0-14.7 12.5-28.2 10.4-125.6-19.6-251.3-37.2-377.3-52.9l-49.1-6-48.2-5.7c-.2 1.9-.5 3.9-.7 5.8 5.7.7 11.2 2 16.2 4 17.3 6.7 21.4 27.9 7.9 39.6-29 25.2-76.4 87.8-87.2 184.1-39.1 364.2 181 519.5 392.5 567.5-227.6-76.1-294.3-267.8-268.4-480.6m-872.6-387.6c-17.3-.8-34.6-1.7-51.9-2.4l-.3 5.9c28.7 1.3 51.1 20.2 50 42.2l-7.5 153.1c-76.2-3.7-152.3-6.7-228.6-9 1.5-51.1 3.1-102.1 4.6-153.2.6-22 24.4-39.1 53.1-38.1.1-2 .1-3.9.2-5.9-17.3-.6-34.6-1.1-52-1.7-40.2-1.2-80.4-2.2-120.5-3-17.3-.3-34.7-.7-52-.9 0 2-.1 3.9-.1 5.9 28.7.4 51.6 18.7 51.2 40.7l-13.2 658.5c-.5 22-22.7 39.3-49.6 38.9 0 2-.1 3.9-.1 5.9 16.3.3 32.5.5 48.8.9 37.7.8 75.4 1.7 113.1 2.8 16.3.5 32.5 1 48.8 1.6.1-2 .1-3.9.2-5.9-26.9-.9-48.2-19.4-47.6-41.3l13.5-452.5c75.9 2.3 151.7 5.3 227.6 9L2489.3 872c-1.1 22-23.8 38.7-50.7 37.5l-.3 5.9c16.3.7 32.5 1.5 48.8 2.3 37.7 1.8 75.4 3.9 113 6.1 16.2 1 32.5 1.9 48.7 3 .1-2 .2-3.9.4-5.9-26.9-1.7-47.7-20.8-46.4-42.7l38.7-657.5c1.3-21.9 25.5-38.4 54.2-36.6.1-2 .2-3.9.4-5.9-17.3-1.1-34.6-2.1-51.9-3.2-40.1-2.6-80.3-4.8-120.4-6.7m752.5 60.2c-17.2-1.9-34.5-3.8-51.8-5.6l-45.6-4.8c-17.3-1.8-34.5-3.5-51.8-5.2l-.6 5.8c28.6 2.8 49.9 22.9 47.7 44.8-6.9 67.2-13.9 134.5-20.8 201.7-43.3-121.2-145.8-233.6-334.8-294.9-.3-.2-114.8 109.5-114.5 109.7 17.5-.2 32 2.1 43.6 6.8 17 6.4 20.8 16.1 19.9 29.6-13.3 189.8-26.5 379.7-39.8 569.5-1.5 21.9-24.6 38.2-51.5 36.4-.1 2-.3 3.9-.4 5.9l48.7 3.3c14.3 1 28.6 2 42.9 3.1 16.2 1.2 32.5 2.4 48.7 3.7.2-1.9.3-3.9.5-5.8-26.9-2.1-47.4-21.5-45.8-43.4 14.2-192.6 28.4-385.3 42.5-577.9 81.7 5.5 204.1 98.7 265 229.6 61.8 131 62.3 299.6-80.2 457.3 89.9-53.7 157.7-137.6 178.8-333.5 14.1-132.1 28.2-264.1 42.4-396.2 2.3-21.8 27.4-37.1 56-33.9.5-2.1.7-4.1.9-6" class="st97" style="fill:#fff"/><path d="M1878.2 143c-55.4.2-121.2 15.9-181.7 36-103.6 34.3-191.7 81.4-191.7 81.4 1.1 1.8 2.1 3.6 3.2 5.3 37.1-16.1 54.1-3.1 54.5 9.8l17.7 587.5c.6 22-20.7 40.4-47.6 41.3.1 2 .1 3.9.2 5.9a10670 10670 0 0 1 161.9-4.4l48.8-.9c0-2-.1-3.9-.1-5.9-26.9.4-49.1-16.9-49.6-38.9-3.5-174.6-7.1-349.2-10.6-523.8-.2-44.8 14.6-81.2 40-109 25.4-27.7 62.5-41.9 110.9-42.3 73.7-.5 123.1 70.9 123 70.9-27.6 39.7-54.9 79.5-82 119.3-50.1 30-99.7 60.4-149.1 91 77.2-24.7 155-48.7 233.1-71.9-.5-.3 150.5-133.5 158.1-140.9.4.4-80.4-110.9-239-110.4m-567.1 26.1q-160.2 8.1-320.4 20.4c.1 1.9.3 3.9.4 5.9 16.4-1.3 31.4 3.5 41.6 11.8 10.4 8.6 10.8 23.8 1.4 33.5-84.9 83.8-236.6 578.3 139.2 758-201.5-210.8-178-756.4 140-783.7 2.5 49.1 4.9 98.1 7.4 147.2l.3 5.7c-57.2 2.9-114.3 6.2-171.4 9.9-13.6 24.8-24.5 51.9-32.9 80.4 0 0 10.6-26.2 49.1-28.7 52.6-3.4 105.2-6.4 157.9-9l22.8 452.2c1.1 22-19.9 40.8-46.8 42.3l.3 5.9c16.2-.9 32.5-1.7 48.7-2.6q56.55-2.85 113.1-5.1c16.3-.7 32.5-1.3 48.8-1.9-.1-2-.1-3.9-.2-5.9-26.9 1-49.5-15.9-50.4-37.9l-18.3-452.4-2.1-52.6c-2.1-51-4.1-102.1-6.2-153.1-.9-21.9 21.6-40.7 50.3-41.8-.1-2-.1-3.9-.2-5.9-41.7 1.5-83.4 3.2-125.2 5.2-15.7.7-31.5 1.4-47.2 2.2M880.4 97.8C834.8 57.5 627.9-19.6 427.8 4.6 224.3 28.5 35.3 153.9 0 204.9l.9 5.8c37.3-5.9 71.1 12.4 75.5 40.6 37.6 246.1 75.2 492.3 112.7 738.4 4.3 28.4-7.8 39.6-42.7 45.1.4 2.5.8 5 1.2 7.6 92.9-14.6 185.8-28 278.9-40.3 0 0 44.4-25 114.8-65.6 255.2-147 365-442.3 352-617-4.5-57-24.9-119.6-56.9-198.4 11.3-9.4 26.9-15.9 44.5-17.4-.1-2-.3-3.9-.5-5.9M726.6 392.5c-2.4 158.6-105.2 387.8-359.7 540.2-20.1 12-36.3-5.7-39.3-26.7l-83.4-597.9c-10.7-76-7.7-210.5 191.4-235.3 256.9-30.1 292.7 208.3 291 319.7" class="st97" style="fill:#fff"/></svg>