<svg xmlns="http://www.w3.org/2000/svg" viewBox="0 0 200 40"><path d="m51.1 29.4 3.31-18.8h8q3.89 0 5.52 1.37 1.65 1.37 1.64 4.44 0 1.56-.36 3.6-.9 5.06-3.08 7.22T59.1 29.4Zm10.53-14h-2.38l-1.6 9.18h2.38q1.18 0 1.75-.29t.75-1.3l1.05-6q.03-.17.03-.47 0-.7-.48-.9a4 4 0 0 0-1.5-.22m21.53 6.9h-5.72l-.39 2.28h7.01l-.84 4.8H70.5l3.3-18.79h12.58l-1.57 4.81h-6.16l-.42 2.53h5.71Zm2.74 6.76 1.68-4.96q2.53.69 4.63.69t3.4-.18l.24-1.5-2.5-.25q-2.85-.26-4.04-1.3a3.6 3.6 0 0 1-1.19-2.88q0-.81.18-1.8.7-3.85 2.51-5.3 1.83-1.44 5.64-1.44 3.83 0 6.74.75l-1.56 4.81a21 21 0 0 0-6.92-.3l-.24 1.48 2.01.2q3.07.34 4.36 1.47a3.8 3.8 0 0 1 1.3 3.02q0 1.92-.84 3.97a9 9 0 0 1-.92 1.76q-.5.7-1.27 1.2a6.4 6.4 0 0 1-3 1.13q-1.4.21-3.45.21-3.72 0-6.76-.78m25.17-7.28.03-.57h-.24l-1.42 8.18h-5.71l3.3-18.8h5.72l-1.35 7.67h.24a5 5 0 0 1 .54-1.44l3.8-6.23h6.16l-5.9 9.24 2.74 9.56h-6.17l-1.65-6.74q-.1-.3-.1-.87m25.03-6.38h-4.16l-2.43 13.99h-5.72l2.44-13.99h-4.12l.87-4.8h13.99Zm7.45 1.48-1.38 7.82h2.38q1.17 0 1.74-.29t.75-1.3l1.39-7.83h-2.41q-1.14 0-1.71.29t-.76 1.3m3.46-6.74q3.82 0 5.45 1.49 1.62 1.5 1.62 4.59t-.98 6.48a11 11 0 0 1-3.1 5.26q-2.1 1.88-6.2 1.88-4.05 0-5.69-1.49-1.62-1.5-1.62-4.59 0-1.47.42-3.89t1.11-4.18a10 10 0 0 1 1.86-3.05q2.25-2.5 7.13-2.5m18.23 14.7h-3.73l-.78 4.55H155l3.31-18.8h9.03q5.1 0 5.1 4.75a12.4 12.4 0 0 1-2.02 6.97 6.2 6.2 0 0 1-5.19 2.54m-2.08-9.44-.8 4.64h1.32q1.02 0 1.54-.23.53-.23.68-1.04.4-2.23.4-2.43 0-.58-.46-.76-.45-.18-1.35-.18Z" style="fill:#fff;white-space:pre"/><path d="M44.04 12h-15c-.82 0-1.5.67-1.5 1.5v10c0 .83.68 1.5 1.5 1.5h6l-.5 1.5H32.3a.75.75 0 0 0-.75.75c0 .41.34.75.75.75h8.5a.75.75 0 0 0 0-1.5h-2.25l-.5-1.5h6c.83 0 1.5-.67 1.5-1.5v-10c0-.83-.67-1.5-1.5-1.5m-.5 9h-14v-7h14z" style="fill:#ddd"/></svg>