<svg xmlns="http://www.w3.org/2000/svg" viewBox="61.9 203 720.2 148.1"><path d="M727.3 203c15.8 0 29.4 6 39.2 17.3 9.6 10.9 15.3 27 15.6 47.5-.3 15.6-4.9 31.7-13.8 44.1-9.2 12.1-22.8 20.5-40.6 20.5-14.8 0-28.9-6.4-38.6-17.6-10.1-11.2-16.1-27.4-16.1-47 0-18.1 6-34.6 15.8-46.1s23.5-18.7 38.5-18.7m-2.3 15.8c-.6 0-1.2.1-1.7.3-7.5.3-14.4 5.2-19.3 12.7-5.2 7.8-8.3 18.4-8.3 30.8 0 1.8.1 3.7.3 5.5 1.4 20.7 10.4 36.9 21.6 44.4 2.3 1.2 4.6 2.2 6.9 3.2 2.2.7 4.6 1.1 6.9 1.1.6 0 1.2-.3 1.7-.3 8.6-.6 15.5-6.3 20.5-14.7s7.5-19 7.5-29.1c0-1.5-.1-3.1-.3-4.6-1.4-18.7-9.8-36-21.3-44.4a45 45 0 0 0-6.9-3.5c-2.5-.9-5-1.4-7.6-1.4m-619.7 8c-1.4 1.1-2.3 3.2-2.3 7.2v73.2c-.1 2.4.5 4.8 1.7 6.9.9 1.5 2.6 2.4 4.3 2.3h16.2c7.2 0 13.8-6.6 19-15.3 4.9-8.9 8.4-20.2 8.4-29.4-.1-11.1-2.8-21.9-8.1-31.7-5.2-8.6-12.4-14.4-21-14.4h-12.1c-2.6.1-4.6.4-6.1 1.2m-30.5-16.1h52.1c18.4 0 30.5 8.9 38 20.8 7.2 11.5 10.1 25.9 10.1 37.7 0 20.2-5.2 36.6-13.8 47.8-8.5 11-21.7 17.4-35.7 17.3H96.1c-5.5 0-11 1-16.1 2.9-1 .2-2 .6-2.9 1.1-4.6 2.3-8.6 5.8-10.7 11l-.3.3q0 .3-.3.3c0 .3 0 .3-.3.3-.5.6-1.2.9-2 .9v-.3q-.75 0-1.2-.6c-.4-.4-.5-.9-.3-1.4.7-3.8 1.8-7.6 3.2-11.2 1.1-2.6 2.4-5.1 4-7.5 2-3.5 4.6-5.5 6.6-7.5 3.8-3.2 6.6-5.8 6.6-14.7v-79.2c0-1.2 0-2.3-.3-3.5 0-.6-.3-1.4-.3-2.3-1.2-3.7-3.5-6.3-7.2-6.9h-.3q-.6 0-1.2-.3c-.3-.3-.3-.6-.6-.9-.3-.6-.6-1.1-.3-1.7v-.6l.3-.3c.6-.9 1.4-1.5 2.3-1.5m153.3 25.9c.4.7.9 1.4 1.4 2l1.7 1.7c3.1 3.1 7 5.3 11.2 6.6 2.9.9 5.9 1.5 8.9 1.7 3.7.2 7.5.1 11.2-.3h1.2c.8.3 1.4 1 1.7 1.7v.6c0 .5-.2 1-.6 1.4-.2.6-.8.9-1.4.9q-.3.3-.6.3c-4-.3-4.6 2.9-4.6 4.9v34c0 2.9.3 4.6 1.2 5.5s2.3 1.1 5.2 1.4h.3c1.4 0 3.2.3 3.2 2.6.1 1-.5 1.9-1.4 2.3-.5.2-1.1.3-1.7.3h-32.3c-1.3-.2-2.2-1.3-2-2.6 0-2.6 1.7-2.6 3.2-2.6h.3c2.3 0 3.8-.3 4.9-1.1s1.7-2.3 1.7-4.9v-34.8c0-4-1.4-4.6-2.6-5.2-.3 0-.3-.3-.6-.3-2.9-1.6-5.5-3.7-7.8-6-2-2.3-3.7-4.6-5.8-7.2-.9-1.1-.9-2.3-.3-2.9 0-.4.2-.9.6-1.1.3 0 .9-.3 1.1-.3 1.1.1 2 .6 2.7 1.4m269 32.3c0 .3-.3.3-.6.6.9.3 1.8.8 2.6 1.4l2.6 1.7c3.4 3.2 5.2 7.7 4.9 12.4 0 1.3-.2 2.5-.6 3.7-.6 1.4-.9 2.6-1.7 3.5-3.2 5.8-10.4 9.5-20.5 9.5h-38.3c-1.2-.1-2.1-1.1-2-2.3 0-.3.3-.6.3-.9s.3-.6.3-.9c.3-.3.6-.3.9-.6.6-.6 2-.6 2.6-.6 3.2 0 4.9-.3 5.8-.9.3-.3.6-1.7.6-4V256c0-4-1.4-4.6-2.6-5.5-.3 0-.3 0-.6-.3l-1.7-.9c-1.4-.7-2.7-1.4-4-2.3-.7-.4-1.3-1-1.7-1.7-.3-.3-.3-.6-.6-.9 0-.6.3-.9.6-1.4q.3-.3.3-.6h.9q0-.3.3-.3c.9.1 1.7.3 2.6.6 1.6.9 3.4 1.5 5.2 2q4.05 1.05 8.4 1.2h26.5c1.2 0 2.3 0 3.5.3s2 .6 3.2.9c5.2 2 8.4 6.3 8.6 11.2v.3m-32.6 18.9v10.4c-.1 1.3.1 2.6.6 3.8.3.9 1.1 1.4 2.9 1.4h7.5c2 0 3.8-1 4.9-2.6 1.2-1.6 1.8-3.5 1.7-5.5v-.3c0-3.8-1.4-7.8-4.3-9.2l-1.7-.9c-.7-.2-1.5-.3-2.3-.3h-5.2c-1-.1-2 .1-2.9.6-.8.7-1.2 1.7-1.2 2.6m.3-24.2c0 .3-.3.6-.3 1.1v8.9c0 .9 0 1.7.3 2 .6.4 1.3.7 2 .6h8.1c1.2-.1 2.2-.8 2.9-1.7.6-1 .9-2.2.9-3.5v-1.1c-.2-2.3-1.5-4.4-3.4-5.7-.6-.3-.9-.3-1.4-.6zm-103.4-6.9v.3l2.6 1.7c.9.6 1.8 1.2 2.6 2a61 61 0 0 1 11.2 11.5c.8 1 1.6 2.1 2.3 3.2.6 1.3 1.2 2.6 2 3.7 3.3 6.3 5 13.3 5.2 20.5v4c-.2 1.3-.3 2.7-.3 4-.9 7.1-2.9 14-6 20.5-3.3 7-7.9 13.4-13.5 18.7-4.9 4.9-10.7 8.6-15.5 11.8-.6.5-1.3.8-2 .9h-.9c-.3 0-.6-.3-.9-.6q0-.3-.3-.6v-.9c.3 0 .3-.3.3-.6.3-.5.7-1 1.1-1.4 4.4-4.1 8-8.8 10.9-14 3-4.8 5.3-10.1 6.9-15.6 1.2-4.2 2-8.4 2.6-12.7s.9-8.7.9-13v-1.4c.1-.5 0-1-.3-1.4 0-2.9-.2-5.8-.6-8.6-.6-2.9-.6-2.9-2.9-2.9h-16.4c-3.8 0-4.9 0-5.2 2.3v5.2c.2 1.6.3 3.3.3 4.9v1.5c0 5.8 0 8.4 4.6 8.4.3 0 .3 0 .6.3.6 0 .9.3 1.4.6.9.7 1.4 1.8 1.4 2.9s-.5 2-1.4 2.6c-.6.2-1.3.3-2 .3h-30.5c-1.7 0-3.5 0-3.5-2.9-.1-1 .3-2 1.1-2.6.7-.5 1.5-.7 2.3-.6 2.1 0 4.1-.6 5.8-1.7 1.4-.9 2.3-2.9 2.3-5.8v-5.2c0-1.4.3-2.6.3-3.7.1-1.2.2-2.3.6-3.5 1.2-6 3.8-11.6 7.5-16.4.6-.9 1.4-2 2-2.9s1.4-1.7 2.3-2.3c3.8-4.3 8.3-8 13.2-10.9.6-.3.9-.6 1.5-.9.5-.2 1.1-.3 1.7-.3.8-.2 1.6-.1 2.3.3.8.4 1.6.9 2.4 1.3m4.6 19-.3-.3c-.1-.4-.3-.8-.6-1.1-.2-.5-.5-1-.9-1.4a23 23 0 0 0-4.6-6c-.9-.6-1.4-1.1-2-1.4-.3-.3-.3-.3-.6-.3s-.3 0-.6.3c-.6.3-1.2.9-2 1.4-1.4 1.4-2.7 2.8-4 4.3-1.2 1.7-2 3.2-2.9 4.6-.3.6-.3 1.1-.6 1.7.3 0 .6-.3.9-.3h17.8q.45.3.9.3c0-.7-.2-1.2-.5-1.8m221.8 24.8h20.2c.5-.3 1-.7 1.4-1.1l6.9-6.3c.6-.7 1.4-1.2 2.3-1.4h.6q.45 0 .9.3c.6.5.9 1.3.6 2v.6q-.3 0-.3.3v.3L619 302q-.3.3-.3.6c-.2.5-.5 1-.9 1.4-.5.6-1.3.8-2 .6-.6-.3-1-.7-1.4-1.1l-2.3-2c-.9-.9-.9-1.2-1.7-1.2h-41.8c-1.4 0-2.6-.3-2.6-2.3 0-2.6 2.9-2.6 4.6-2.9 1.5.1 3-.2 4.3-.9.6-.9.9-2.3.9-4.9v-32.9c0-2.6-.6-4-1.4-4.6-1.5-.9-3.2-1.3-4.9-1.1h-.3c-1.4 0-3.2 0-3.2-2.9 0-2 .9-2.6 2-2.9h32c.7 0 1.4.1 2 .3.8.6 1.2 1.6 1.2 2.6 0 1.3-1 2.5-2.3 2.6-.7.2-1.5.3-2.3.3-2.6 0-4 .3-4.3.9-.6.6-.6 2.3-.6 4.9z" style="fill-rule:evenodd;clip-rule:evenodd;fill:#fff"/></svg>