<svg xmlns="http://www.w3.org/2000/svg" viewBox="0 0 189.39 93.69"><path fill="currentColor" fill-rule="evenodd" d="M164.53 110.39h19.67l1.06 6.4-6.26 3.1 8.3 6.2.24 4.5h-28.3v-4.43h15.53l-7.15-6.73 10.57-5.15h-16.67l-.24-1.78zm-73.42 8.84h10.25v30.03L91.1 156zm-75.2 0h10.48v30.17l-10.48 6.73Zm-11.14-8.78c.9.8.9 1.65.9 2.64v63.3c0 .4.07 2.38-.41 3.9l32.11-20c-.73-.6-1.3-1.13-1.38-2.31v-44.56l-4.64-2.97zm127.07 0 5.29 15.98 6.1-15.98h13.25c-1.14.86-1.14 1.46-1.14 2.9v63.17c0 3.24 0 5.48.98 7.26-3.82-2.44-7.64-4.94-11.55-7.45.81-.33 1.06-.86 1.06-2.05v-36.17l-9.19 27.2-9.43-36.44v36.63c-3.25-2.11-6.5-4.29-9.76-6.4.9-.6.9-1.59.9-2.7v-42.58c0-2.24-.65-3.37-1.55-3.37zm-79.5 8.78h11.21v37.23l-11.22-7zm-6.51-8.78-4.56 2.64v43.5l16.27 10.63 16.01-10.5V113.1l-4.06-2.64zm38.29 0-3 2.51v43.76l15.6 9.9 15.61-10.16v-43.1l-3.82-2.9z" clip-rule="evenodd" style="fill:#fff;stroke-width:1.09273" transform="translate(-1.49 -97.36)"/></svg>