<svg xmlns="http://www.w3.org/2000/svg" viewBox="0 0 264 116"><path d="M12.84-.37c3.83-4.96 9.92-7.67 16-8.46 2.45 0 4.9.1 7.35-.05 5.74.56 11.44 3 15.32 7.36 3.3 3.63 5.12 8.44 5.63 13.3-4.36.05-8.73.19-13.09.16a10.9 10.9 0 0 0-5.47-7.61 12.6 12.6 0 0 0-10.01-1 9.7 9.7 0 0 0-4.63 3.1c-1.54 1.96-1.33 4.96.2 6.86 1.57 1.93 4 2.85 6.29 3.6 5.47 1.64 11.2 2.34 16.58 4.35 3.72 1.38 7.36 3.5 9.64 6.86 2.6 3.86 3.14 8.78 2.52 13.3a19.2 19.2 0 0 1-6.89 12.2c-4.97 4.1-11.54 5.87-17.9 5.8-6.14-.09-12.43-1.7-17.42-5.4a19.5 19.5 0 0 1-7.17-10.1c-.64-1.97-.8-4.05-.91-6.1 4.28-.06 8.57.05 12.86-.01a13.5 13.5 0 0 0 7.43 8.17 14.8 14.8 0 0 0 11.33.17 9 9 0 0 0 4.37-3.45 5.8 5.8 0 0 0 .1-6.02c-1.1-1.76-3.03-2.74-4.89-3.49-3.52-1.35-7.25-2.04-10.9-2.97-4.74-1.2-9.6-2.56-13.62-5.46-2.85-2.03-5-5.04-5.88-8.45-1.45-5.65-.47-12.04 3.16-16.67" style="fill:#fff;stroke-width:1.25" transform="matrix(0 -.8 .8 0 34.16 62.82)"/><path d="M5.76 50.97c6.26-.04 12.51 0 18.77-.02 3.35 12.61 6.52 25.27 9.9 37.87 2.56-12.6 4.86-25.26 7.39-37.88 7.08.03 14.16 0 21.24.02q-.02 33.33 0 66.66c-4.26.01-8.53.03-12.8-.02-.25-12.33-.45-24.67-.83-37-2.48 12.35-5.09 24.67-7.6 37.02q-6.8.03-13.6 0c-3.05-11.74-6.04-23.5-9.15-35.22q-.13 1.62-.08 3.23v32H9.17c-1.13 0-2.28.07-3.4-.13z" style="fill:#fff;stroke-width:1.25" transform="rotate(-90 48.7 61.55)scale(.8)"/><path d="M140.02 9.86c9.55-7.32 21.9-10.27 33.82-9.81 5.5.27 10.96 1.28 16.27 2.76l.76.45C184.4 7.8 178.82 13.8 175.33 20.9c-6.58-.74-13.4.9-18.78 4.8-6.73 4.69-11.6 12.18-12.51 20.37-1.04 8.27-2.01 16.56-3.04 24.83-.3 2.3-.4 4.68-1.45 6.79-1.45 3.04-3.65 5.68-5.95 8.13-2.1 2.17-5.28 2.53-8.15 2.56-6.67-14.64-8.03-31.44-4.54-47.07 2.69-12.15 9-23.86 19.11-31.46" style="fill:#fff;stroke-width:1.25" transform="matrix(.8 0 0 .8 27.06 15.3)"/><path d="M190.22 7.89c9.84-6.35 22.1-7.72 33.55-6.54 10.13 1 20.5 4.66 27.5 12.3 5.76 6.11 8.47 14.46 9.06 22.7-7.29.13-14.58.07-21.87.03-.8-4.35-3.03-8.5-6.6-11.22-5.16-3.98-12.07-5.08-18.43-4.28-4.78.7-9.8 2.22-13.18 5.84-2.03 2.25-3.32 5.65-2 8.55q1.89 5.36 3.75 10.74c1.92 5.71 1.03 11.85.42 17.7-8.01-2.13-16.3-5.61-21.39-12.44-4.9-6.64-5.52-15.44-4.17-23.32a30 30 0 0 1 13.36-20.06M77.96 4.24q20.06-.54 40.13-1.01c6.62-.02 13.23.96 19.54 3 .03.91-.14 1.8-.96 2.33-5.5 4.78-9.6 10.85-13.32 17.02-7.71-.04-15.42.14-23.13.14.16 21.8.04 43.6.19 65.4q7.01.55 14.04.96 6.78-.03 13.58-.16c4.36-.14 7.86-3.27 10.45-6.48 3.45-4.48 6.11-9.78 6.56-15.47.58-6.96 1.24-13.9 1.87-20.85.26-2.95.85-5.9 2.01-8.64 2.54-6.2 7.74-11.1 13.84-13.8 8.68 14.59 9.96 32.64 5.95 48.88-2.9 11.59-9.77 22.4-19.9 29-9.9 6.6-22.1 8.96-33.87 8.46-12.33-.52-24.66-.85-36.98-1.5z" style="fill:#fff;stroke-width:1.25" transform="matrix(.8 0 0 .8 27.06 15.3)"/><path d="M206.72 26.48c4.81-2.25 10.28-2.21 15.46-1.61 5.33 9.64 8.48 20.51 8.55 31.55.26 12.28-3.1 24.47-8.86 35.29-5.8.68-11.88-.46-16.84-3.58-2.1-1.3-3.9-3.67-3.22-6.26 1.36-5.4 3.2-10.67 4.7-16.04.77-3.08.44-6.28.4-9.41a42 42 0 0 0-1.89-10.9c-1.3-4.45-3.23-8.8-3.42-13.5.12-2.79 2.8-4.51 5.11-5.54" style="fill:#fff;stroke-width:1.25" transform="matrix(.8 0 0 .8 27.06 15.3)"/><path d="M233.75 50.51c7.98 2.16 16.26 4.8 22.46 10.5 5.12 4.66 7.54 11.58 7.79 18.36v3.87c-.35 6.4-2.65 12.75-6.9 17.61-5.66 6.57-13.87 10.43-22.22 12.36-11.12 2.5-22.88 1.95-33.85-1.06-8.84-2.49-17.6-7.4-22.22-15.6-3.15-5.64-5.91-12.24-4.21-18.77 7.13-.09 14.26.05 21.4.1.79 4.86 2.8 9.82 6.88 12.86 5.06 3.82 11.7 4.4 17.85 4.46 5.59-.12 11.56-.7 16.3-3.93 4.1-2.7 5.72-8.58 3.4-12.94-1.67-3.05-4.78-4.9-7.74-6.52.19-7.1.72-14.2 1.05-21.3m-68.51 42.95c2.8-.43 5.73 0 8.58.05 3.7 8.4 10.8 14.7 18.43 19.57a58 58 0 0 1-17.41 2.92h-.33c-8.55-.09-17-1.96-24.96-5l-.04-.41c2.93-2.85 5.95-5.6 8.92-8.4 2.86-2.41 4.48-5.86 6.8-8.73" style="fill:#fff;stroke-width:1.25" transform="matrix(.8 0 0 .8 27.06 15.3)"/></svg>