<svg xmlns="http://www.w3.org/2000/svg" viewBox="0 0 3840 520"><path d="M3559.5 238.1c-5.2-91 51.4-143.3 140.5-143.3 80.5 0 135.3 33.8 135.3 104.3 0 84.8-82.9 111.4-145.2 149.5v.5h150v81h-287.2c-1.9-31.9 7.6-59.5 23.8-81.9 27.6-38.6 75.2-63.8 117.6-89.5 17.1-10.5 44.8-23.8 44.8-48.1 0-30-17.6-40.5-40-40.5-38.1 0-51 27.6-50 68.1h-89.6Zm-3107 205.6L408.4 520h-23.7l44.1-76.3zm90.2-156.4 102.7-177.8a59.3 59.3 0 0 1 51.4-29.7h218.1l11.8-20.5H697.3c-28.7 0-55.5 15.5-69.9 40.4l-38.8 67.1-1.2 2L519 287.3z" class="st1" style="fill:#fff"/><path d="M960.9 0H697.3C647.3 0 601 26.7 576 70l-38.8 67.1-1.2 2-85.5 148.1h53.2L615.9 93.1c16.7-29 47.9-47 81.4-47h237.1z" class="st1" style="fill:#fff"/><path d="M664.3 195.5h183.8l59.1-102.3H696.8c-16.5 0-31.7 8.8-39.9 23l-98.8 171.2h53.2zM521 443.7 476.9 520h-53.1l44-76.3zm-160.7 0L316.2 520h53.2l44-76.3z" class="st1" style="fill:#fff"/><path d="M135.3 195.5H261L243.9 225c-53.9 93.4 13.5 210.1 121.3 210.1h527.4l-49 84.9h53.2l35.7-61.9c8.2-14.2 8.2-31.8 0-46s-23.4-23-39.9-23H365.2c-34 0-64.4-17.6-81.4-47a93 93 0 0 1 0-94l17.1-29.6c8.2-14.2 8.2-31.8 0-46s-23.4-23-39.9-23H108.8z" class="st1" style="fill:#fff"/><path d="M81.6 102.3h177.9c34 0 64.4 17.6 81.4 47a93 93 0 0 1 0 94l-17.1 29.6a46.1 46.1 0 0 0 0 46c8.2 14.2 23.4 23 39.9 23h527.4c34 0 64.4 17.6 81.4 47 15 26 16.8 56.4 5.3 83.4L950.3 520h54l8.1-14c53.9-93.4-13.5-210.1-121.3-210.1H363.7l17.1-29.6c53.9-93.3-13.5-210-121.3-210h-1.3l-30.5 30.5-30.5-30.5H55zm124.1-54.6 21.9-22 22 22h23.2L227.6 2.5l-45.1 45.2z" class="st1" style="fill:#fff"/><path d="M70.2 149.5 0 123.9l40.7-25.6 10 17.3h208.8c29.2 0 55.3 15.1 69.9 40.4s14.6 55.4 0 80.7l-17.1 29.6a59.3 59.3 0 0 0 0 59.3 59.3 59.3 0 0 0 51.4 29.7h527.4c29.2 0 55.3 15.1 69.9 40.4s14.6 55.4 0 80.7L935.8 520h-23.7l31.9-55.2c10.6-18.4 10.6-41 0-59.4a59.3 59.3 0 0 0-51.4-29.7H365.2c-29.2 0-55.3-15.1-69.9-40.4s-14.6-55.4 0-80.7l17.1-29.6c10.6-18.4 10.6-41 0-59.3A59.3 59.3 0 0 0 261 136H62.7zM1276 90h-172v340h151.5c118.6 0 173.8-66.2 173.8-170.5 0-85.7-40-169.5-153.3-169.5m-26.2 252.9h-41V177.1h33.3c75.7 0 82.4 59.5 82.4 81 .1 31.9-9.5 84.8-74.7 84.8m470.5-70.5c34.8-12.9 51-50 51-85.2 0-64.3-51.4-97.2-111-97.2h-199.6v340h104.8V311.4h55.7c41.4 0 44.3 33.8 47.2 66.2 1.4 17.6 3.3 35.2 8.6 52.4h104.8c-9.5-15.7-10-56.2-11.4-72.9-3.9-42.3-21.5-73.8-50.1-84.7m-100-33.8h-54.8V171h49.1c40 0 51.9 12.4 51.9 33.8 0 30.4-26.7 33.8-46.2 33.8M1922.7 90l-125.3 340h105.3l15.2-48.6H2026l14.3 48.6h108.6L2025.1 90zm18.1 218.6 32.9-104.8h.9l30.5 104.8zm387.6 7.1h46.2c-5.2 25.2-30 37.6-54.3 37.6-63.8 0-76.7-55.7-76.7-87.6 0-23.3-2.4-99.1 69.5-99.1 24.8 0 45.7 17.6 49.5 42.4h100.5c-15.2-80-70-127.2-156.7-127.2-76.7 0-167.6 51.9-167.6 181.5 0 96.7 61.9 174.8 162.4 174.8 37.1 0 73.3-12.9 96.7-42.9l3.3 34.8h66.2V242.9h-139.1v72.8ZM2668 81.9c-103.3 0-172.4 74.3-172.4 178.1s69.1 178.1 172.4 178.1c103.4 0 172.4-74.3 172.4-178.1S2771.3 81.9 2668 81.9m0 271.5c-26.7 0-67.6-17.6-67.6-93.3s41-93.3 67.6-93.3c26.7 0 67.6 17.6 67.6 93.3s-40.9 93.3-67.6 93.3M3078.5 90v181.9h-1l-99-181.9h-107.2v340h99.1V244.3h1L3075.6 430h101.9V90zm198.1 119c.5-39.1 16.2-67.6 41.4-86.7 25.2-18.6 59.5-27.6 96.7-27.6 96.2 0 128.1 57.1 128.1 85.2 0 69.5-43.8 69.5-43.8 71v1c0 3.8 54.3 3.8 54.3 77.6 0 40.5-30.5 104.3-139.1 104.3-149.1 0-149.5-104.8-147.2-129.5h90.5c-.5 17.6 3.8 31 12.9 39.5 9 11 22.9 14.8 39.5 14.8 27.1 0 44.3-10 44.3-37.1 0-29.1-22.4-34.3-44.3-34.3-13.8 0-20.5 1.4-27.6 2.4v-64.8c7.1.5 14.8 1.9 27.6 1.9 20 0 45.2-4.3 45.2-30 0-21-23.8-29-43.3-29-25.7 0-46.7 13.8-45.7 41.4h-89.5Z" class="st1" style="fill:#fff"/></svg>