<svg xmlns="http://www.w3.org/2000/svg" viewBox="0 0 264 45"><path d="M133.46 21.02c0-2.62-.5-6-1.66-7.43l30.97.04c16.15 0 40.51 8.97 40.51 39.18 0 22.43-17.2 39.13-40.5 39.13-5.12 0-24.64-.06-31.57-.06a20.4 20.4 0 0 0 2.25-8.98zm11.61 63.24c7.46.97 14.34 1.27 20.56.38 6.02-.86 26.26-5.22 26.13-32.09-.11-25.46-15.84-31.28-27.96-32a80 80 0 0 0-18.73.96zm64.86-46.61 11.6-1.82v10.22c2.98-7.35 12.24-13.27 25.4-8.14l-3.09 8.07c-12.04-5.71-22.3-.7-22.3 12.67v27.6c0 1.31.28 3.96 1.07 5.66h-12.06c1.22-1.5 1.79-4.35 1.79-5.66v-39.8c0-2.9-.6-7.36-2.4-8.8m366.79 5.53v35.25c0 11.06 7.62 14.02 13.27 14.02 2.4.12 5.78-.44 8.14-.97l1.46-6.82a24 24 0 0 1-7.88 1.3c-3.55 0-6.1-2.35-6.1-6.03 0-3.3-.1-35.66 0-36.69h-.05c.47 0 7.83-.03 8.57 0 2.4.09 4.26.23 5.85.87l.01-6.43-14.39-.02.06-16.5-10.7 2.96c1.48 1.38 1.96 5.41 1.96 8.08v5.52l-6.81.03v5.43zm-46.21 37.27c4.6 3.28 11.8 6.2 17.1 6.2 7.33 0 12.59-3.57 12.59-10.29 0-12.4-28.29-10.35-28.29-26.08 0-10.65 9.52-14.65 18.59-14.65 2.91 0 9.57.63 13.8 2.27l-.04 7.27c-3.76-3.21-9.5-3.99-13.27-3.99-6 0-10.5 2.98-10.5 8.82 0 8.57 28.25 8.07 28.25 25.67 0 11.37-9.86 16.68-20.7 16.68a58 58 0 0 1-15.4-2.25zM359.81 43.3l.02-7.15-11.74 1.81c1.41 1.49 2.5 6.12 2.5 9.42v38.48c0 1.32-.56 4.5-1.78 6h12.8c-1.21-1.5-1.78-4.68-1.78-6V56.91c0-10.6 6.56-14.3 13.08-14.3 5.9 0 11.24 2.55 11.24 14.3v28.96c0 1.31-.56 4.5-1.78 6h12.42c-1.22-1.5-1.78-4.7-1.78-6V56.9c0-11.75 7.26-14.3 13.18-14.3 5.9 0 12.07 3.7 12.07 14.3v28.96c0 1.31-.56 4.5-1.78 6h11.96c-1.23-1.5-1.78-4.7-1.78-6V51.4c0-5.87-6-15.28-19.99-15.28-8.14 0-12.84 3.62-16.4 6.74-3.04-3.54-7.98-6.87-15.92-6.87-7.74 0-12.3 4.53-14.54 7.3m-27.69 18.06c-1.68 1.57-5.2 2.8-8.81 3.27-9.53 1.25-17.78 2.83-17.78 12.1 0 5.5 6 9.84 10.76 9.84 12.58 0 15.83-9.08 15.83-16.23zm-29.73-22.7c4.8-1.92 12.55-2.8 17.41-2.8 12.41 0 20.66 6.2 20.66 20.59V80.3c0 4.43.06 8.62 1.64 11.56h-9.97l-.36-6.28c-3.78 4.87-8.3 7.05-15.95 7.05-15.12 0-18.42-10.32-18.42-15.28 0-17.72 16.86-17.92 24.18-18.96 4.05-.58 9.26-1.72 10.05-5.52 1.29-6.28-3.2-10.99-12.37-10.99a32 32 0 0 0-16.86 4.8zm214.41 22.7c-1.68 1.57-5.19 2.8-8.81 3.27-9.52 1.25-17.77 2.83-17.77 12.1 0 5.5 6 9.84 10.75 9.84 12.57 0 15.83-9.08 15.83-16.23zm-29.72-22.7c4.8-1.92 12.55-2.8 17.41-2.8 12.4 0 20.65 6.2 20.65 20.59V80.3c0 4.43-.97 8.53 1.64 11.56h-9.97l-.37-6.28c-3.78 4.87-8.28 7.05-15.94 7.05-15.1 0-18.41-10.32-18.41-15.28 0-17.72 16.85-17.92 24.17-18.96 4.05-.58 9.27-1.72 10.04-5.52 1.3-6.28-3.19-10.99-12.37-10.99a32 32 0 0 0-16.86 4.8zm-10.62 7.32c-3.74-2.18-9.65-3.91-13.77-3.91-14.46 0-21.1 8.9-21.1 21.7 0 12.7 6.49 22.42 20.64 22.42 4.84 0 11.44-2.18 16.57-5.33l-2.09 9.34a50 50 0 0 1-15.42 2.29c-19.88 0-29.2-14.1-29.2-28.78 0-16.21 12.5-27.61 29.42-27.61 7.4 0 12.79 1.8 14.97 2.42zM253.9 64.44c0-1.34.19-2.61.34-3.85h38.47c0-13.23-6.62-24.57-22.28-24.57-16.27 0-25.92 12.72-25.92 28.94 0 14.66 10.75 27.77 29.16 27.77 5.81 0 10.68-1.43 15.94-3.27l1.84-9.38c-4.49 3.7-11.75 5.89-18.3 5.89-11.78 0-19.3-8.53-19.25-21.53m1.56-9.72c1.24-6.43 7.2-12.99 14.32-12.99 10.89 0 14.04 8.5 14.04 12.99 0 0-28.36.02-28.36 0M70.7 1.4c4.31.65 8.72 2.15 11.02 2.86 4.63 1.41 12.14 5.81 14.8 7.92 1.26 1 3.9 3.61 4.92 4.93 1 1.28 2.9 4.05 4.11 5.76a100 100 0 0 1 6.14 10.9c2.15 4.32 2.3 5.57 2.95 9.19l1.43 6.37c.14 1.1.25 5.14-2.13 5.7a5.2 5.2 0 0 1-5.6-2.12c-1.42-2.21-1.22-5.35-2.84-8.95-1.26-2.9-1.81-7.13-3.83-10.16l-1.58-2.68c-2.8-4.3-5.7-7.71-7.44-9.94a36 36 0 0 0-7.1-6.23 48 48 0 0 0-9.48-4.14c-.93-.3-4.91-1.48-7.38-1.8-3.37-.38-5.57-.91-8.77-1.14-3.94-.28-5.83-.63-10.94-.03-1.94.53-5 .73-7.77 1.79a69 69 0 0 0-8.37 4.16 65 65 0 0 0-11.53 8.6c-3.32 3.54-4.98 5.45-7.26 9.94-1.02 2.22-2.98 5.66-3.77 8.1-.54 2.46-1.57 7.06-1.4 9.29.08 4-.27 4.83.03 8.1.01 2.94.98 4.98 1.38 7.39.34 1.67 1.94 7.42 2.93 8.76 4.49 9.67 10.51 13.86 17.23 16.89 1.9.96 7.82 2.55 9.53 3 2.92.52 6.76.88 10.46.95 3.9.08 9.27-.45 12.52-1.65 3.52-1.3 7.6-3.14 7.56-3.09 1.63-.9 4.13-2.37 4.9-3.02 1.5-.96 2.41-1.33 3.3-2.26 1.29-1.12 2.06-1.77 3.04-3.16a63 63 0 0 1 2.23-3.05c.9-1.48 1.42-3.04 2.3-4.96 1.06-2.85.9-2.71 1.1-5.74.19-.87-.03-3.82-.18-4.32-.48-2.72-.31-5.12-.93-7.76a127 127 0 0 0-2.61-9.67c-1.02-3.86-3.98-7.43-6.2-9.98-1.38-1.59-5.65-5.32-11.58-7.66a51 51 0 0 0-6.14-1.51c-3.7-.39-4.31-.14-7.86.12a47 47 0 0 0-5.1 1.16c-3.04 1.07-4.16 1.75-7.28 3.65a19 19 0 0 0-4.02 2.88c-1.19 1.1-2.04 2.96-2.99 4.05a30 30 0 0 0-3.76 6.74 21 21 0 0 0-1.24 8.47c0 1.76.48 5 .67 5.7s.67 2.9.77 3.34 1.25 2.77 1.4 3.1a19 19 0 0 0 3.96 5.35c1.53 1.67 4.49 3.31 6.7 3.95 2 1.09 5.34 1.27 7.2 1.28.9-.06 3.24-.2 4.46-.5 2.47-.58 2.92-.6 5.46-1.7 2.28-1.06 3.83-1.44 5.42-2.62 0 0 2.18-1.7 3.17-2.96.52-.65 1.42-3.8 1.26-5.75-.07-2.67.32-4.18-.23-6.37a23 23 0 0 0-2.48-6.3c-1.02-1.59-3.21-3.13-5.7-4.37-1.4-.69-4.72-1.33-6.12-1.5-2.67-.31-4.9.9-6.25 2.28-1.18 1.35-3.5 4.14-2.58 7.02.84 2.61 1.86 5.4 5.77 5.19 2.69.55 5.8-.25 6.83.22 1.53.87 2.12 2.8 1.56 4.14-.39 2.59-2.87 2.9-5.51 3.1-2.37.4-8.38-.77-9.7-1.76-.9-.52-2.25-1.78-3.2-2.64-.7-.62-1.47-1.99-2-2.97a11 11 0 0 1-1.15-2.89c-.2-.93-.61-2.72-.46-4.5.11-1.21.43-1.73.75-3.49.64-2 1.43-3.52 2.72-5.25 1.66-1.7 3.78-3.7 5.84-4.64 1.82-.96 5.01-1.31 7.9-1.15 2.34.23 5.1.51 6.94 1.13 3.14 1.11 4.03 1.34 6.6 2.96a19 19 0 0 1 5.58 5.87c2.6 5.31 4.1 11.23 3.01 19.18-.09 1.35-.5 2.66-1.34 4.44a14 14 0 0 1-4.18 5.15c-.81.76-2.1 1.7-3.16 2.24-1.5.9-2.5 1.38-4.06 2.16a31 31 0 0 1-5.05 1.96c-2.25.89-3.99.92-6.82 1.35-2.8.7-10.44.2-15-1.8a29 29 0 0 1-9.23-6.42c-1.47-1.55-2.92-4.34-3.34-4.92-2.1-4.05-2.52-7.86-2.86-8.66-.46-1.09-.68-3.53-1-5.2-.34-1.87-.12-9.71 1.76-14.75 1.07-2 1.7-3.79 2.41-4.73 1.3-1.84 1.93-3 3.03-4.3 1.66-2 2.87-3.65 4.48-4.81 4.12-3.35 7.56-5.12 12.22-7.33 5.79-2.36 7.53-1.87 13-1.78 2.46.02 6.05.8 7.81 1.11 3.28.44 5.15 1.23 7.36 1.84 2.37.66 3.74 1.72 5.69 2.9a38 38 0 0 1 4.72 3.59c3.17 2.33 4.7 4.78 6.66 7.8.35.5 2.67 5.43 3.03 6.8.18.69.7 2.66 1.03 3.81.44 1.83.65 3.46 1.13 5.52a94 94 0 0 1 1.48 9.9c.54 3.22-.32 9.8-.82 11.81a34 34 0 0 1-6.99 12.79 38 38 0 0 1-5.44 5.12c-1.54 1.3-2.88 2.05-5.28 3.48a61 61 0 0 1-10.3 4.97c-1.85.6-4.2 1.38-6.72 1.9-4.89.45-9.91.88-15.4.23a85 85 0 0 1-14.22-3.2 74 74 0 0 1-6.71-2.9 39 39 0 0 1-4.66-3.18c-2.18-1.34-7.04-5.92-10.19-10.18-.68-1.33-3.16-5.28-3.7-7.01-1.42-2.93-2.42-6.48-3-8C1.8 64.68.77 62.4.36 58.86c.05-.84-.17-2.8-.36-3.89.28-2.43-.1-4.71.39-7.36.42-2.23.98-3.16 1.12-5.18.13-.86 1.24-3.45 1.54-4.61.9-1.9 1.12-3.47 2.29-5.6 1.68-3.3 3.44-7.12 6.15-10.45.77-1.03 2.96-3.5 3.7-4.36 1.78-1.77 2.81-2.05 4.81-3.82.2-.12 1.53-1.63 2.92-2.15 2.3-1.78 4.28-2.42 6.46-4.04 4.38-2.18 5.98-2.92 10.33-4.73 2.51-.9 6-1.39 7.27-1.88 2.4-.15 4.84-.91 7.36-.76 2.83-.02 5.69.18 8.53.43 1.93.12 4.43.21 7.83.95" style="fill-opacity:1;fill:#fff" transform="scale(.44 .43688)"/></svg>