<svg xmlns="http://www.w3.org/2000/svg" viewBox="0 0 264 66"><path d="M23.4 45.36q-7.42 0-12.67-3.06a20.4 20.4 0 0 1-8-8.32A25 25 0 0 1 0 22.33q0-6.15 2.52-11.26a19.4 19.4 0 0 1 7.32-8.09Q14.65 0 21.2 0q8.3 0 13.46 4.9 5.14 4.87 5.14 13.5 0 2.22-.35 4.27H8.12q.8 8.45 5.12 12.01 4.34 3.56 11.12 3.56 6.8 0 12.45-2.58l1.06 6.31q-7.5 3.38-14.48 3.38M8.82 17.16H31.6q0-4.7-2.65-7.38-2.63-2.66-7.94-2.66-5.12 0-8.03 2.53-2.92 2.54-4.15 7.52m43.12 28.2q-6 0-9.67-3.55-3.66-3.56-3.66-9.08 0-8.26 7.77-11.83 7.77-3.55 18.1-3.73 0-5.88-2.26-7.96-2.25-2.1-7.19-2.1-2.73 0-5.47.85a22 22 0 0 0-5.92 3.07l-1.14-6.5a21 21 0 0 1 6.53-3.28Q52.93 0 57.16 0q5.55 0 8.87 1.96 3.3 1.96 4.86 6.49Q72.43 13 72.43 20.9v8.9q0 3.55.3 5.38.31 1.83 1.38 2.8 1.06.98 3.26.98h.8l-1.24 6.4h-.62q-3.7 0-5.82-.7a7 7 0 0 1-3.22-2.05q-1.1-1.35-2.08-3.65-5.47 6.4-13.24 6.4m1.5-6.4q3.18 0 6.14-1.6a14.6 14.6 0 0 0 4.9-4.27v-10.4q-9.53.34-13.64 2.53-4.1 2.17-4.1 7.07 0 3.38 1.8 5.02 1.8 1.65 4.9 1.65m37.12 6.4q-5.12 0-8.96-1.2a22 22 0 0 1-5.87-2.62l.97-7.74q1.77 1.6 5.43 3.02 3.66 1.43 8.08 1.43 4.15 0 6.4-1.43a4.5 4.5 0 0 0 2.25-4q0-3.03-2.47-4.58a24 24 0 0 0-6.18-2.62 49 49 0 0 1-6.84-2.27 12 12 0 0 1-4.77-3.7q-1.98-2.48-1.99-6.57 0-5.6 3.98-9.34Q84.56 0 92.87 0q3.79 0 6.44.76 2.65.75 5.3 2.09l-.97 7.29a17 17 0 0 0-4.68-2.8 16 16 0 0 0-5.92-1.02q-3.88 0-6.13 1.46a4.9 4.9 0 0 0-2.25 4.4q0 1.96 1.06 3.16 1.05 1.2 3 2t6 2.05q5.02 1.5 8.7 4.27 3.66 2.75 3.66 8.72 0 5.33-3.75 9.16-3.76 3.82-12.76 3.82M112.15 66l9.98-23.48-18-41.63h8.82l13.5 32.38L138.65.89h8.83L120.98 66zm39.61-18.37V.93h16.95q7.41 0 11.7 3.58 4.25 3.57 4.25 10.57 0 4.86-2.05 7.98a14.6 14.6 0 0 1-5.83 4.96l10.46 19.61h-9.46l-8.94-17.34h-8.61v17.34zm8.47-24.48h6.23q9.33 0 9.33-7.6 0-3.67-2.12-5.57-2.11-1.9-6.88-1.9h-6.56zM191 47.63V.93h16.48q16.5 0 16.49 15.08 0 7.8-4.17 11.6-4.18 3.81-12.12 3.81h-8.21v16.21zm8.47-23.35h7.22q4.37 0 6.53-2 2.14-2 2.14-6.14t-2.19-6.11Q211 8.07 206.5 8.07h-7.02zm49.37 24.29q-7.28 0-12.54-3-5.27-3-8.05-8.5-2.78-5.52-2.78-12.85 0-7.2 3.06-12.72a21.5 21.5 0 0 1 8.59-8.5q5.5-3 12.58-3 3.57 0 6.95.73 3.38.74 5.83 2l-.93 8.14a28 28 0 0 0-11.85-2.66q-7.41 0-11.19 4.38-3.78 4.35-3.77 11.5 0 7.4 3.7 11.85 3.72 4.42 10.73 4.42 2.85 0 6.36-.73v-8.34h-6.36v-7.07H264v20.81a25 25 0 0 1-6.6 2.54q-4 1-8.56 1" style="white-space:pre;fill:#fff"/></svg>