<?xml version="1.0" encoding="UTF-8" standalone="no"?><svg style="shape-rendering:geometricPrecision;text-rendering:geometricPrecision;image-rendering:optimizeQuality;fill-rule:evenodd;clip-rule:evenodd" viewBox="0 0 373 161" version="1.1" id="svg4" xmlns="http://www.w3.org/2000/svg" xmlns:svg="http://www.w3.org/2000/svg"><path fill="currentColor" d="M352 .12q10.78-.49 21 1a27 27 0 0 0-7 5 32 32 0 0 0-11 7 46 46 0 0 0-2 19q10.28-.48 20 1a640 640 0 0 0-19.5 13q-.25 42-1.5 84a160 160 0 0 1-18 12q-3-63.98-2-129a157 157 0 0 1 20-13" style="opacity:1;fill:#ffffff" id="path1"/><path fill="currentColor" d="M323 18.12q1.5 65 1 130l-20 13q-1.5-64.98-1-130z" style="opacity:1;fill:#ffffff" id="path2"/><path fill="currentColor" d="M295 32.12v97h-50v-97zm-28 75h6v-53h-6z" style="opacity:1;fill:#ffffff" id="path3"/><path fill="currentColor" d="m182 124.12 4-2q1.5-45 1-90h21v93q1.95.36 3-1a7 7 0 0 1 4-2q1.5-45 1-90h21q.5 49-1 98l-48 31q-1.03-8.5-2-17-.9.19-1 1l-26 16-2-115q-10.51-5.73-20-13 20.98-1.5 42-1v93q1.95.36 3-1m-54-56a125 125 0 0 1-18-11 5 5 0 0 1-1-4h-6q-1.5 26.98-1 54h7v-3a100 100 0 0 1 20-13c1 12.3 1.33 24.66 1 37H81v-96h49q.97 18.57-2 36m-53-37v26H44q-.67 3.76 2 6 1.26.5 1 2a99 99 0 0 0 28 2v25H43q-.35 1.95 1 3-.1 2.3 2 3t2 3q13.23 1.5 27 1v26H38a2654 2654 0 0 0-38-59 56 56 0 0 1 21-2q.52-2.97-2-4h-1a339 339 0 0 0-16-26 13.6 13.6 0 0 1-2-6z" style="opacity:1;fill:#ffffff" id="path4"/></svg>