<?xml version="1.0" encoding="UTF-8" standalone="no"?><svg preserveAspectRatio="xMidYMid" viewBox="0 0 507.86 94.51" version="1.1" id="svg2" xmlns="http://www.w3.org/2000/svg" xmlns:svg="http://www.w3.org/2000/svg"><path d="M36.12 93.26c-15.9-4.1-28.8-16.1-33.8-31.45-3.6-11.1-2.9-23.95 1.9-34.3 1-2.1 3.8-6.95 4.35-7.5.15-.15.9-1.1 1.7-2.2a45 45 0 0 1 8.65-8.4c2.95-2.15 9.9-5.95 12.15-6.6 3.7-1.1 5.05-1.4 8.25-2.1 6.1-1.25 13.55-.8 20.75 1.25.95.25 2.3.65 3 .85 2.25.65 9.2 4.45 12.25 6.7 8.4 6.15 15.05 16 17.8 26.25 1.45 5.45 1.85 16.1.75 21-1.25 5.75-1.6 6.85-3.15 10.6-4.75 11.3-15.25 20.95-26.85 24.75-5.7 1.85-9.4 2.4-16.3 2.4-5.45-.05-7.65-.3-11.45-1.25m22.45-21c1.4-.7 2.5-1.5 2.5-1.8s-1.95-3.6-4.3-7.3l-4.25-6.75 1.75-1.65c.95-.85 1.85-2.1 2-2.8.1-.65.35-1.8.55-2.55l.25-1.4h8.8c7.35 0 8.8-.1 9-.75.5-1.3-.7-8.05-2.05-11.35-.7-1.75-2.25-4.5-3.5-6.15-2.15-2.9-7-7.25-8-7.25-.25 0-2.5 3.75-4.95 8.3-3.55 6.6-4.6 8.2-5.25 7.9-2.75-1.15-4.45-1.25-6.35-.45-2.35.95-1.65 1.7-7.55-8.4-2.35-4.05-4.5-7.5-4.7-7.6-.7-.45-6.2 4.1-8.3 6.8-3.6 4.65-6.1 11.7-6.15 17.1v1.85h19.5l.25 1.4c.2.75.45 1.9.55 2.55.15.7 1.05 2 2 2.85l1.7 1.65-4.5 7.15c-2.45 3.9-4.5 7.35-4.5 7.7 0 .75 3.35 2.1 7.25 2.95 6.2 1.35 13.1.6 18.25-2m-14.25-.05c-4.2-1.05-6.25-1.8-6-2.2.2-.3 4.1-.5 9.4-.5 8.15.05 9 .1 8.1.8-.55.4-1.75.95-2.75 1.2-2.3.6-7.5 1-8.75.7m-.15-20.95a4.76 4.76 0 0 1 1.05-8.05c3.45-1.65 6.85.6 6.85 4.5 0 1.85-.25 2.4-1.55 3.5-2 1.7-4.4 1.7-6.35.05m-23.25-5.6c-1.1-1.1.35-7.15 2.8-11.8 1.7-3.25 6.5-8.35 7.8-8.35.45 0 1.35.85 1.9 1.85l1.05 1.85-2.7 2.7c-2.9 2.9-5.55 7.65-6.05 10.85-.15 1.1-.5 2.3-.8 2.65-.5.65-3.45.85-4 .25m48.95.15c-.85.35-.9.2-1.8-3.55-.85-3.6-3.2-7.75-6-10.5-2.15-2.15-2.35-2.5-1.9-3.55.3-.65.85-1.2 1.15-1.2.5 0 4.35 3.85 7.85 7.85 1.5 1.7 3.1 10.65 1.95 10.65-.25 0-.8.15-1.25.3" style="fill:#ffffff" id="path1"/><path fill="currentColor" d="M105.92 72.16c-.2-.15-.35-.95-.35-1.8 0-2.05 7.85-37.75 8.7-39.65a3 3 0 0 1 2.3-1.9c.9-.15 10.9-.3 22.3-.3 18.1 0 20.75.1 21.4.8.45.4.8.95.8 1.2 0 .7-4.5 21.1-5.1 23a5.4 5.4 0 0 1-1.3 2.4c-.6.45-4.65.6-16.4.6h-15.65l-.5 1.85c-.3 1-.4 2-.25 2.25.15.2 7.35.4 16 .4h15.7v2.4c0 3.15-1.25 7.7-2.35 8.45-.65.5-6 .65-22.9.65-12.15 0-22.25-.15-22.4-.35m37.55-27.75c.25-.35.65-1.4.85-2.3l.35-1.6-9.45.1-9.4.15-.15 2.15-.15 2.1h8.7c6.4 0 8.85-.15 9.25-.6m16.45 27.75c-.2-.15-.35-.85-.35-1.5 0-1.65 8.3-39.4 8.95-40.55.3-.55 1.25-1.1 2.15-1.3s8.05-.3 15.85-.3c7.8.05 14.35-.1 14.55-.35.2-.2.65-1.5.95-2.9.35-1.35.85-2.75 1.15-3.1.35-.45 2.35-.65 6.7-.65 6.1 0 6.2 0 6.5 1.2.15.7-1.25 8.25-3.3 17.85-5.35 24.95-6.45 29.55-7.25 30.8l-.75 1.15h-22.45c-12.3 0-22.55-.15-22.7-.35m36.5-20.9c1.15-5.2 2.1-9.8 2.15-10.1 0-.5-2.15-.65-9.25-.65-5.1 0-9.25.1-9.25.25 0 .65-4 18.4-4.25 18.8-.8 1.25.65 1.45 9.4 1.35l9.05-.15zm19 20.9c-.2-.15-.35-.75-.35-1.25 0-.9 6.7-32.4 8.1-37.95.95-3.95 1.2-4.1 7.05-4.35 6.05-.25 7.35.15 7.35 2.4 0 .8-1.35 7.55-3 14.9-1.65 7.4-3 13.85-3 14.3 0 .7 1 .8 9 .8 8.9 0 9.05 0 9.5-1.1.25-.65 1.7-7.1 3.3-14.4 1.55-7.3 3.1-13.95 3.45-14.8.75-1.8 2.2-2.2 8.15-2.2 4.35 0 5.6.55 5.6 2.35 0 .7-1.4 7.6-3.1 15.25-2.7 12.3-3 14.05-2.4 15.15.55 1.05.55 1.85-.25 5.35-.55 2.25-1.35 4.5-1.85 5-.85.85-2.5.9-24.05.9-12.75 0-23.35-.15-23.5-.35m56.8-.45c-.4-1.05 9.7-47.6 10.65-49.1.7-1.1.95-1.15 6.85-1l6.1.15.15 1.9c.1 1.1-.5 4.95-1.35 8.6a107 107 0 0 0-1.55 7.45c0 .65.7.8 4 .8h3.95l5.05-5.7c2.8-3.15 5.55-5.85 6.15-6 1.45-.4 11.3-.4 13.3 0 .85.2 1.55.5 1.55.75 0 .2-1.9 2.6-4.25 5.3-2.3 2.7-4.25 5.05-4.25 5.25s1.4.4 3.15.5l3.1.15-.1 2.5c-.1 3.85-5.45 27.2-6.45 28.35-.8.85-1.5.9-6.9.8l-6.05-.15-.15-1.4c-.1-.75.65-5 1.6-9.5 1-4.45 1.8-8.4 1.8-8.75 0-.95-17.95-.85-18.3.1-.15.35-1.1 4.5-2.15 9.2-1.2 5.45-2.2 8.95-2.8 9.6-.8.9-1.5 1-6.85 1-5 0-6-.1-6.25-.8m55.6-.15c-.35-1.15 8.05-39.85 9-41.35.4-.6 1.4-1.2 2.3-1.4.85-.15 10.75-.3 22-.3 19.5 0 20.5.05 21.4.95.95.95.95 1.05-.45 7.65-2.95 13.85-3.9 17.45-4.75 18.4s-1.55 1-16.6 1h-15.65l-.5 1.3c-.3.7-.5 1.7-.5 2.25 0 .9.6.95 15.85 1.05 15.4.15 15.9.2 16.1 1.15.3 1.75-1 7.7-2.05 9l-.95 1.25h-22.45c-21.65 0-22.45-.05-22.75-.95m38.15-27.4c.25-.5.6-1.5.8-2.3l.3-1.35-9.35.1-9.35.15-.4 1.5c-.75 2.75-.65 2.75 8.8 2.75 7.85 0 8.8-.1 9.2-.85m17.95 28c-1-.95.4-9.1 1.95-11.5l.7-1.15h16.55c12.75 0 16.55-.15 16.7-.6.1-.35.3-1.3.35-2.15l.15-1.5-12.7-.25c-11.1-.2-12.75-.35-13.2-1.1-.4-.6-.2-2.3.6-6.25 1.25-5.85 2.05-7.85 3.3-8.35.45-.15 6.4-.3 13.25-.3 13.6 0 13 .15 13-3.05v-1.45l-16.05-.1c-14.15-.15-16.15-.25-16.6-.95-.7-1.1 1-9.15 2.25-10.75l.95-1.2h23.95c23.2 0 24 .05 24.5.95.55 1.1.4 1.75-6 31-3.45 15.75-4.05 17.9-5.2 18.65-.7.5-48 .5-48.45.05m58.5 0c-.2-.15-.35-1.05-.35-2 0-2.45 5.95-28.7 6.8-30l.7-1.15h33l.25-1.1c.75-3.45 2.3-3.15-15.55-3.3-13.6-.1-16.2-.25-16.7-.85-.85-1 .8-9.35 2.15-11.05l.9-1.2h23.95c17.6 0 24.05.15 24.3.6.65 1.05.25 3.55-2.55 16.4-3 13.9-3.45 15.3-4.8 16-.5.3-7.5.5-16.55.5-11.55 0-15.85.15-16.3.6-.35.35-.6 1.35-.6 2.25v1.65h15.9c8.75 0 16.15.2 16.6.5 1.3.8-.9 11-2.65 12.1-.75.45-48.05.55-48.5.05" id="path2" style="fill:#ffffff"/></svg>