<svg xmlns="http://www.w3.org/2000/svg" viewBox="0 0 590.55 107.32"><path fill="currentColor" d="m246.1 53.18-29.5-.12-.09-.74c-.12-1 .41-7.56.83-10.26.2-1.2.41-2.7.5-3.3a84 84 0 0 1 3.14-12.46 55 55 0 0 1 4.8-10.59 34 34 0 0 1 6-7.94 23 23 0 0 1 8.78-5.83c3.62-1.05 6.74-1.4 10.15-.32 3.84 1.25 6.07 2.65 9.48 5.98q6.86 6.7 11.2 19.32c1.74 5.07 3.14 12.09 3.83 19.17.3 3.03.5 5.89.46 6.36l-.08.85z" style="fill:#fff;fill-opacity:1;stroke-width:.970907"/><path fill="currentColor" d="M273.1 104.83a69 69 0 0 0-3.7-2.38 228 228 0 0 0-6.11-3.43c-1.26-.66-9.27-4.4-9.43-4.4-.06 0-.68-.23-1.38-.52s-1.4-.55-1.58-.58c-.17-.04-.82-.28-1.44-.55s-2.02-.78-3.1-1.15a598.7 557.47 0 0 1-3.28-1.1 225 225 0 0 0-12.46-3.5 177 177 0 0 0-9.32-1.9c-4.8-.78-6.32-1.06-6.52-1.22-.13-.1-.15-.59-.05-1.08l.18-.9 1.36.17c2.1.25 7.2 1.07 9.1 1.46.94.2 3.18.64 4.99.99 5.18 1 5.85 1.14 6.69 1.39.43.12 1.43.33 2.23.45s2.03.38 2.75.56l1.32.34.08-.85c.04-.46.02-.9-.05-.96a14 14 0 0 0-2.18-.37c-13.6-2.27-26.46-13.4-26.53-26.36l.08-1.57h62.7l-.04 2.57c-.07 4.34-1.69 8.58-5.08 13.31-1.29 1.8-5.88 5.95-8.05 7.29-3.85 2.36-9.34 4.36-12.85 4.68-2.81.26-2.7.18-2.7 1.97 0 1.51.02 1.57.72 1.71 2.11.43 12.09 3.75 16.07 5.35 4.89 1.97 6.1 2.5 11.15 4.83 5.82 2.7 7.52 3.62 7.4 3.98-.12.32-7.71 3.3-8.4 3.3-.2 0-1.35-.69-2.56-1.53" style="fill:#fff;fill-opacity:1;stroke-width:.996826;stroke:none;stroke-opacity:1;opacity:1"/><g aria-label="electron" style="font-size:73.8105px;line-height:1.25;font-family:&quot;DejaVu Serif&quot;;-inkscape-font-specification:&quot;DejaVu Serif&quot;;text-align:center;letter-spacing:0;word-spacing:0;text-anchor:middle;fill:#fff;fill-opacity:1;stroke-width:1.84526"><path d="M323.25 62.48h-28.58v.29q0 7.75 2.92 11.71 2.92 3.93 8.61 3.93 4.36 0 7.14-2.27 2.8-2.3 3.92-6.81h5.34q-1.59 6.3-5.88 9.48-4.25 3.17-11.2 3.17-8.4 0-13.52-5.52-5.08-5.55-5.08-14.7 0-9.08 5-14.63 5.02-5.55 13.16-5.55 8.69 0 13.34 5.37 4.65 5.33 4.83 15.53m-7.82-3.82q-.22-6.7-2.85-10.09-2.6-3.42-7.5-3.42-4.57 0-7.2 3.42-2.64 3.42-3.21 10.1zm26.63 18.45h6.27v3.82h-19.28v-3.82h6.38V28.68h-6.38v-3.82h13.01zm48.47-14.63h-28.58v.29q0 7.75 2.92 11.71 2.92 3.93 8.62 3.93 4.36 0 7.13-2.27 2.81-2.3 3.93-6.81h5.34q-1.59 6.3-5.88 9.48-4.25 3.17-11.2 3.17-8.4 0-13.52-5.52-5.08-5.55-5.08-14.7 0-9.08 5-14.63 5.02-5.55 13.16-5.55 8.69 0 13.34 5.37 4.64 5.33 4.82 15.53m-7.82-3.82q-.21-6.7-2.84-10.09-2.6-3.42-7.5-3.42-4.58 0-7.2 3.42-2.64 3.42-3.22 10.1zm49.45 10.78q-1.4 6.12-5.4 9.33t-10.35 3.2q-8.36 0-13.44-5.5-5.08-5.56-5.08-14.71 0-9.19 5.08-14.67 5.08-5.51 13.44-5.51 3.64 0 7.25.86 3.6.83 7.24 2.56v9.8h-3.86q-.75-5.04-3.31-7.35-2.53-2.3-7.25-2.3-5.37 0-8.1 4.18-2.74 4.14-2.74 12.43t2.7 12.47q2.74 4.18 8.14 4.18 4.3 0 6.85-2.23 2.56-2.24 3.5-6.74zm11.35-22.96h-5.83v-3.86h5.83V30.73h6.67v11.9h12.47v3.85h-12.47V70.8q0 4.86.94 6.23t3.46 1.37q2.6 0 3.78-1.51 1.2-1.55 1.26-4.98h5.01q-.28 5.23-2.84 7.64-2.56 2.42-7.79 2.42-5.73 0-8.1-2.52-2.39-2.56-2.39-8.65zm56.99-3.93v9.59h-3.83q-.18-2.85-1.58-4.26t-4.11-1.4q-4.9 0-7.53 3.39-2.6 3.38-2.6 9.73v17.5h7.68v3.82h-20.3V77.1h5.99V46.4h-6.34v-3.79h12.97v6.81q1.95-4 5.01-5.9 3.06-1.95 7.46-1.95 1.62 0 3.39.25 1.8.25 3.78.72m22.21 35.87q5.33 0 8.03-4.22 2.74-4.21 2.74-12.43t-2.74-12.4q-2.7-4.21-8.04-4.21t-8.07 4.21q-2.7 4.18-2.7 12.4t2.74 12.43 8.03 4.22m0 3.57q-8.37 0-13.45-5.52-5.08-5.55-5.08-14.7t5.05-14.67q5.08-5.51 13.47-5.51t13.45 5.51q5.08 5.52 5.08 14.67t-5.08 14.7q-5.05 5.52-13.45 5.52m25.28-1.05v-3.82h5.98V46.48h-6.34v-3.86h12.97v6.81q1.84-3.89 4.76-5.87 2.96-1.98 6.85-1.98 6.34 0 9.33 3.64t3 11.35v20.54h5.9v3.82h-18.3v-3.82h5.73V58.66q0-7.03-1.73-9.62-1.73-2.63-6.1-2.63-4.6 0-7.02 3.39-2.42 3.35-2.42 9.8v17.5h5.77v3.82z" style="fill:#fff;fill-opacity:1" transform="translate(0 -3.62)"/></g><g aria-label="acorn" style="font-size:73.8105px;line-height:1.25;font-family:&quot;DejaVu Serif&quot;;-inkscape-font-specification:&quot;DejaVu Serif&quot;;text-align:center;letter-spacing:0;word-spacing:0;text-anchor:middle;fill:#fff;fill-opacity:1;stroke-width:1.84526"><path d="M25.83 68.9v-8.11H17.3q-4.94 0-7.35 2.12-2.42 2.13-2.42 6.53 0 4 2.46 6.34t6.63 2.34q4.14 0 6.66-2.56 2.56-2.55 2.56-6.66M32.46 57v20.11h5.91v3.82H25.83V76.8q-2.2 2.67-5.08 3.93t-6.74 1.26q-6.38 0-10.13-3.39Q.14 75.2.14 69.44q0-5.95 4.28-9.23 4.3-3.28 12.11-3.28h9.3V54.3q0-4.36-2.66-6.74-2.64-2.41-7.43-2.41-3.96 0-6.3 1.8-2.35 1.8-2.92 5.33H3.09v-7.75q3.46-1.47 6.7-2.2 3.28-.75 6.38-.75 7.97 0 12.11 3.96 4.18 3.93 4.18 11.46m45.96 12.44Q77 75.56 73 78.77t-10.34 3.2q-8.37 0-13.45-5.5-5.08-5.56-5.08-14.71 0-9.19 5.08-14.67 5.08-5.51 13.45-5.51 3.64 0 7.24.86 3.6.83 7.24 2.56v9.8H73.3q-.76-5.04-3.32-7.35-2.52-2.3-7.24-2.3-5.37 0-8.11 4.18-2.74 4.14-2.74 12.43t2.7 12.47q2.74 4.18 8.15 4.18 4.29 0 6.85-2.23 2.55-2.24 3.5-6.74zM104 78.41q5.34 0 8.04-4.22 2.74-4.21 2.74-12.43t-2.74-12.4q-2.7-4.21-8.04-4.21t-8.07 4.21q-2.7 4.18-2.7 12.4t2.74 12.43 8.03 4.22m0 3.57q-8.36 0-13.44-5.52-5.08-5.55-5.08-14.7t5.05-14.67q5.08-5.51 13.47-5.51t13.45 5.51q5.08 5.52 5.08 14.67t-5.08 14.7q-5.05 5.52-13.45 5.52m57.52-39.43v9.59h-3.82q-.18-2.85-1.58-4.26t-4.11-1.4q-4.9 0-7.53 3.39-2.6 3.38-2.6 9.73v17.5h7.68v3.82h-20.3V77.1h6V46.4h-6.35v-3.79h12.97v6.81q1.95-4 5.01-5.9 3.07-1.95 7.46-1.95 1.62 0 3.39.25 1.8.25 3.78.72m3.03 38.39v-3.82h5.98V46.48h-6.34v-3.86h12.98v6.81q1.83-3.89 4.75-5.87 2.96-1.98 6.85-1.98 6.34 0 9.34 3.64t2.99 11.35v20.54h5.9v3.82h-18.3v-3.82h5.73V58.66q0-7.03-1.73-9.62-1.73-2.63-6.1-2.63-4.6 0-7.02 3.39-2.41 3.35-2.41 9.8v17.5h5.76v3.82z" style="fill:#fff;fill-opacity:1" transform="translate(0 -3.62)"/></g></svg>