<svg xmlns="http://www.w3.org/2000/svg" xml:space="preserve" viewBox="-1 -1 504 116.14"><g style="fill:#fff;fill-opacity:1"><path d="M40.54 78.18v7.86H-.03V28.1h39.42v7.86H11.58v16.8H37.2v7.7H11.58v17.7z" style="font-weight:700;font-size:97.196px;line-height:1.25;font-family:Akrobat;-inkscape-font-specification:&quot;Akrobat Bold&quot;;text-align:center;letter-spacing:0;word-spacing:0;baseline-shift:baseline;text-anchor:middle;stroke:#fff;stroke-width:1.83622;stroke-linecap:butt;stroke-linejoin:miter;stroke-miterlimit:4;stroke-dasharray:none;stroke-opacity:1;stop-color:#000;fill:#fff;fill-opacity:1" transform="scale(.99694 1.00005)"/><path d="M115.93 28.1v57.94h-11.37l.03-22.52c.14-8.11.31-14.2.4-18.73l.01-.71c-1.53 3.09-4.12 8.66-7.8 15.72l-7 13.16H78.7l-7-13.16C68 52.74 65.54 47.35 64 44.26l.02.58c.19 8.18.15 14.2.3 18.6v22.6H52.95V28.1H64.8l13.56 23.5a194 194 0 0 1 5.86 11.5h.46a194 194 0 0 1 5.86-11.5l13.57-23.5Z" style="font-weight:700;font-size:97.196px;line-height:1.25;font-family:Akrobat;-inkscape-font-specification:&quot;Akrobat Bold&quot;;text-align:center;letter-spacing:0;word-spacing:0;baseline-shift:baseline;text-anchor:middle;stroke:#fff;stroke-width:1.83622;stroke-linecap:butt;stroke-linejoin:round;stroke-miterlimit:4;stroke-dasharray:none;stroke-opacity:1;stop-color:#000;fill:#fff;fill-opacity:1" transform="scale(.99694 1.00005)"/><path d="M154.2 86.86q-10.8 0-17.23-4.8-6.32-4.88-6.32-13.65v-40.3h11.83v40.3q0 5.13 3.1 7.78 3.11 2.56 8.63 2.56 5.63 0 8.73-2.56 3.1-2.65 3.1-7.78v-40.3h11.73v40.3q0 8.77-6.32 13.65-6.32 4.8-17.24 4.8zm76.67-8.76v7.94h-38.28V28.1h11.61v49.98zm42.84-3.73h-21.26l-3.68 11.67H236.6l20.23-57.93h12.52l20.23 57.93H277.5zm-2.41-7.78-5.06-15.56q-1.72-5.8-2.99-12.41h-.34q-1.5 7.86-3 12.41l-4.93 15.56zm62.18-30.54H316.7v49.99h-11.84V36.05h-16.67v-7.94h45.29zm32.18 51.06q-11.5 0-18.05-5.13-6.55-5.21-6.55-14.31V46.48q0-9.1 6.55-14.23 6.55-5.22 18.05-5.22t18.04 5.22q6.55 5.13 6.55 14.23v21.19q0 9.1-6.55 14.31-6.55 5.13-18.04 5.13zm0-8.19q6.2 0 9.42-2.9t3.22-8.35V46.48q0-5.46-3.22-8.36t-9.42-2.9-9.43 2.9-3.22 8.36v21.19q0 5.46 3.22 8.35 3.22 2.9 9.43 2.9zm57.24-13.9h-7.25v21.02h-11.6V28.1h20.8q11.49 0 17.81 4.8 6.32 4.71 6.32 13.32 0 6.7-3.8 11.26-3.78 4.55-10.68 6.37l17.47 22.18H439.1Zm-7.25-7.95h8.97q6.09 0 9.2-2.73 3.2-2.73 3.2-7.94 0-5.13-3.1-7.7-3.1-2.65-9.19-2.65h-9.08zm64.48 30.04q-10.8 0-17.13-4.55t-6.43-12.41h11.84q.11 4.38 3.1 6.62 3.1 2.23 8.62 2.23 5.63 0 8.5-2.15 3-2.15 3-5.8 0-3.47-3.57-5.87-3.56-2.48-10.8-5.54-6.33-2.82-10.12-4.97-3.8-2.15-6.55-5.38-2.64-3.22-2.64-7.61 0-4.14 2.64-7.45 2.76-3.4 7.7-5.3 5.06-1.9 11.72-1.9 10.23 0 16.2 4.39 5.99 4.38 6.22 11.83h-11.84q-.12-4.05-2.88-6.12t-7.58-2.07-7.59 1.82-2.76 4.97q0 2.4 1.84 4.22t4.49 3.22q2.75 1.33 7.7 3.48 6.43 2.73 10.34 4.88 3.9 2.15 6.67 5.55 2.75 3.3 2.75 7.94 0 4.39-2.75 8.03t-8.16 5.8q-5.3 2.14-12.53 2.14z" style="font-weight:700;font-size:97.196px;line-height:1.25;font-family:Akrobat;-inkscape-font-specification:&quot;Akrobat Bold&quot;;text-align:center;letter-spacing:0;word-spacing:0;baseline-shift:baseline;text-anchor:middle;stroke:#fff;stroke-width:1.83622;stroke-linecap:butt;stroke-linejoin:miter;stroke-miterlimit:4;stroke-dasharray:none;stroke-opacity:1;stop-color:#000;fill:#fff;fill-opacity:1" transform="scale(.99694 1.00005)"/></g></svg>