<?xml version="1.0" encoding="UTF-8" standalone="no"?><svg fill="none" viewBox="0 0 648 751" version="1.1" id="svg2" xmlns="http://www.w3.org/2000/svg" xmlns:svg="http://www.w3.org/2000/svg"><path fill="currentColor" fill-rule="evenodd" d="m 647.17,58.79 v 518.24 q 0,7.29 -0.63,13.55 c -0.98,9.38 -1.16,18.46 -9.88,28.8 -0.85,1.02 -9.75,7.64 -9.75,7.64 -4.8,2.35 -8.06,4.08 -13.46,6.25 l -260.8,109.27 c -13.53,6.2 -19.2,8.62 -29.03,8.43 h -0.08 c -9.83,0.2 -15.5,-2.23 -29.03,-8.43 L 33.71,633.27 c -5.4,-2.17 -8.66,-3.9 -13.45,-6.25 0,0 -8.9,-6.62 -9.75,-7.64 -8.72,-10.34 -8.9,-19.42 -9.88,-28.8 Q -0.01,584.31 0,577.02 V 58.8 C 0,15.84 15.84,0 58.77,0 H 588.4 c 42.92,0 58.77,15.84 58.77,58.79 M 553.04,519.7 v -2.87 l -0.12,-1.31 -0.12,-1.2 -0.24,-1.2 -0.23,-1.19 -0.24,-1.08 -0.36,-1.07 -0.36,-1.08 -0.47,-0.95 -0.6,-1.08 -0.6,-0.96 -0.7,-1.07 -0.72,-0.96 -0.84,-0.83 -0.83,-0.96 -0.95,-0.84 -0.95,-0.83 -0.95,-0.6 -0.96,-0.72 -0.95,-0.6 -1.06,-0.6 -1.08,-0.6 -1.19,-0.59 -1.19,-0.48 -1.19,-0.6 -1.31,-0.47 -1.07,-0.35 -1.07,-0.36 -1.2,-0.36 -1.06,-0.36 -1.19,-0.36 -1.19,-0.36 -1.2,-0.24 -1.3,-0.35 -1.2,-0.36 -1.3,-0.24 -1.3,-0.36 -1.31,-0.36 -1.32,-0.36 -1.19,-0.24 -1.07,-0.36 -1.07,-0.24 -0.95,-0.35 -0.95,-0.24 -1.43,-0.48 -1.31,-0.48 -1.2,-0.48 -0.94,-0.6 -1.08,-0.6 -0.83,-0.83 -0.47,-0.72 -0.6,-1.31 -0.12,-1.55 v -0.24 l 0.13,-1.2 0.47,-1.08 0.71,-1.07 1.07,-0.96 0.84,-0.48 0.95,-0.47 1.07,-0.24 1.2,-0.24 1.3,-0.24 h 2.62 l 1.06,0.12 1.2,0.12 1.19,0.12 1.19,0.24 1.18,0.24 1.2,0.24 1.19,0.35 1.19,0.36 1.3,0.36 0.96,0.48 1.07,0.36 0.95,0.47 1.08,0.48 0.94,0.48 1.07,0.48 0.96,0.6 1.07,0.48 0.95,0.71 0.95,0.6 1.07,0.6 0.96,0.71 0.71,-0.95 0.6,-0.96 0.7,-0.95 0.72,-0.96 0.71,-1.08 0.6,-0.95 0.72,-0.96 0.71,-0.95 0.6,-0.96 0.7,-0.96 0.72,-0.95 0.6,-0.96 0.71,-1.08 0.72,-0.95 0.71,-0.96 0.6,-0.95 0.7,-0.96 -0.94,-0.72 -0.95,-0.72 -0.96,-0.71 -0.95,-0.6 -1.07,-0.72 -0.95,-0.6 -1.07,-0.6 -1.08,-0.59 -0.95,-0.48 -1.06,-0.6 -1.2,-0.47 -1.07,-0.48 -1.07,-0.48 -1.07,-0.36 -1.19,-0.48 -1.07,-0.24 -1.07,-0.36 -1.2,-0.35 -1.06,-0.24 -1.2,-0.24 -1.18,-0.24 -1.08,-0.24 -1.18,-0.24 -1.31,-0.12 -1.19,-0.24 -1.32,-0.12 h -1.18 l -1.31,-0.12 -1.3,-0.12 h -5.13 l -1.19,0.12 -1.18,0.12 -1.2,0.12 -1.19,0.12 -1.07,0.24 -1.19,0.24 -1.07,0.24 -1.07,0.24 -0.95,0.24 -1.08,0.36 -1.18,0.47 -1.2,0.36 -1.07,0.48 -1.07,0.6 -1.07,0.48 -1.07,0.6 -0.95,0.6 -0.95,0.7 -0.96,0.73 -0.83,0.6 -0.95,0.83 -0.83,0.96 -0.84,0.83 -0.83,0.96 -0.72,0.96 -0.7,0.95 -0.6,1.08 -0.6,1.08 -0.47,1.07 -0.48,1.08 -0.47,1.07 -0.24,1.08 -0.36,1.07 -0.24,1.08 -0.24,1.07 -0.12,1.2 -0.12,1.08 -0.12,1.2 v 2.74 l 0.12,1.32 0.12,1.2 0.12,1.19 0.24,1.07 0.24,1.2 0.36,0.95 0.35,1.08 0.36,0.96 0.48,0.83 0.6,1.07 0.59,0.96 0.6,0.83 0.7,0.84 0.72,0.84 0.83,0.84 0.84,0.83 0.83,0.72 0.95,0.6 0.95,0.71 1.07,0.6 0.96,0.6 1.19,0.6 1.07,0.6 1.2,0.47 1.18,0.48 1.19,0.48 1.3,0.48 1.08,0.36 1.07,0.35 1.07,0.36 1.19,0.24 1.07,0.36 1.2,0.36 1.18,0.24 1.2,0.36 1.18,0.24 1.31,0.36 1.2,0.23 1.3,0.36 1.2,0.24 1.18,0.36 1.07,0.24 1.08,0.36 0.94,0.24 0.83,0.24 1.43,0.6 1.2,0.47 1.07,0.48 0.94,0.48 0.96,0.72 0.83,0.71 0.6,0.84 0.48,1.2 0.12,1.43 v 0.24 l -0.12,1.2 -0.36,1.07 -0.48,0.96 -0.7,0.83 -0.97,0.72 -0.83,0.48 -0.95,0.36 -1.07,0.24 -1.07,0.24 -1.2,0.23 -1.3,0.12 h -2.62 l -1.3,-0.12 h -1.2 l -1.19,-0.23 -1.3,-0.12 -1.2,-0.24 -1.18,-0.24 -1.2,-0.24 -1.07,-0.36 -1.19,-0.36 -1.19,-0.36 -1.07,-0.48 -1.07,-0.35 -1.07,-0.48 -1.07,-0.48 -1.07,-0.48 -0.95,-0.6 -1.08,-0.47 -0.95,-0.6 -1.07,-0.72 -0.95,-0.6 -1.07,-0.71 -0.96,-0.72 -1.07,-0.72 -0.95,-0.72 -0.71,0.96 -0.83,0.84 -0.72,0.95 -0.83,0.96 -0.72,0.84 -0.7,0.95 -0.84,0.96 -0.71,0.84 -0.84,0.95 -0.71,0.84 -0.84,0.96 -0.7,0.95 -0.73,0.84 -0.83,0.95 -0.71,0.96 -0.83,0.84 -0.72,0.95 0.95,0.84 0.84,0.72 0.95,0.71 0.95,0.72 1.9,1.44 0.96,0.6 0.95,0.6 1.07,0.59 0.95,0.6 1.07,0.6 1.08,0.47 1.06,0.6 1.07,0.47 1.08,0.48 1.19,0.48 1.07,0.36 1.19,0.35 1.07,0.48 1.19,0.36 1.19,0.36 1.07,0.24 1.2,0.36 1.18,0.24 1.19,0.24 1.19,0.24 1.2,0.23 1.18,0.12 1.19,0.24 1.3,0.12 1.2,0.12 1.2,0.12 h 1.3 l 1.19,0.12 h 5 l 1.18,-0.12 1.31,-0.12 1.2,-0.12 1.07,-0.12 1.18,-0.12 1.2,-0.24 1.07,-0.23 1.07,-0.24 1.19,-0.24 1.07,-0.36 1.2,-0.36 1.18,-0.36 1.19,-0.48 1.2,-0.48 1.06,-0.6 1.07,-0.47 1.08,-0.6 0.94,-0.72 0.95,-0.59 0.96,-0.71 0.83,-0.72 0.96,-0.84 0.7,-0.71 0.84,-0.84 0.71,-0.84 0.6,-0.95 0.71,-0.96 0.6,-0.96 0.6,-0.95 0.47,-1.08 0.48,-0.96 0.47,-1.07 0.36,-1.2 0.24,-1.07 0.35,-1.2 0.24,-1.2 0.12,-1.3 0.12,-1.2 z m -82.39,25.22 V 525.2 H 424 v -14.82 h 41.41 V 491.86 H 424 v -14.23 h 46.06 v -19.72 h -68.79 v 87 z m -86.95,0 V 457.9 h -24.4 l -0.59,0.95 -0.6,1.08 -0.7,0.95 -0.6,1.07 -0.6,0.96 -0.6,1.08 -0.7,0.95 -0.6,1.07 -0.6,0.96 -0.6,0.96 -0.7,1.06 -0.6,0.96 -0.6,1.08 -0.6,0.95 -0.7,1.07 -0.6,0.96 -0.6,0.95 -0.6,1.07 -0.59,0.96 -0.7,1.07 -0.6,0.96 -0.6,1.07 -0.6,0.96 -0.71,1.07 -0.6,0.95 -0.59,0.96 -0.6,1.07 -0.7,0.96 -0.6,1.08 -0.6,0.95 -0.6,1.07 -0.7,0.96 -0.6,1.07 -0.6,0.95 -0.59,-0.95 -0.6,-1.07 -0.71,-0.96 -0.6,-1.07 -0.6,-0.95 -0.58,-1.08 -0.6,-0.96 -0.72,-1.07 -0.59,-0.96 -0.6,-0.95 -0.59,-1.07 -0.6,-0.96 -0.71,-1.07 -0.6,-0.96 -0.6,-1.07 -0.58,-0.96 -0.6,-1.07 -0.72,-0.95 -0.59,-0.96 -0.6,-1.07 -0.6,-0.95 -0.7,-1.08 -0.6,-0.96 -0.59,-1.06 -0.6,-0.96 -0.6,-0.96 -0.7,-1.07 -0.6,-0.95 -0.6,-1.08 -0.6,-0.96 -0.6,-1.07 -0.7,-0.95 -0.6,-1.08 -0.59,-0.95 h -24.4 v 87 h 22.62 v -51.2 l 0.7,0.95 0.6,1.09 0.71,0.95 0.6,1.08 0.72,0.95 0.59,1.08 0.72,0.96 0.59,1.08 0.72,0.95 0.6,1.08 0.7,0.96 0.6,1.08 0.71,0.96 0.6,1.07 0.7,0.96 0.6,1.08 0.72,0.96 0.71,1.07 0.6,0.96 0.71,1.08 0.6,0.96 0.72,1.07 0.59,0.96 0.71,1.08 0.6,0.96 0.71,1.07 0.6,0.96 0.7,1.08 0.6,0.96 0.72,1.08 0.6,0.95 0.7,1.08 0.6,0.96 0.72,1.08 h 0.47 l 0.6,-0.96 0.71,-1.08 0.6,-0.96 0.72,-0.95 0.59,-1.08 0.71,-0.96 0.6,-0.96 0.6,-1.07 0.7,-0.96 0.6,-0.96 0.72,-0.96 0.59,-1.08 0.71,-0.95 0.6,-0.96 0.6,-1.08 0.7,-0.96 0.6,-0.96 0.72,-1.07 0.59,-0.96 0.71,-0.96 0.6,-1.08 0.6,-0.95 0.71,-0.96 0.6,-1.08 0.7,-0.96 0.6,-0.95 0.72,-0.96 0.6,-1.08 0.58,-0.96 0.72,-0.96 0.6,-1.07 0.7,-0.96 0.6,-0.95 0.72,-1.09 0.6,-0.95 v 51.45 z M 244.9,510.14 h -20.1 l 0.46,-1.08 0.36,-1.08 0.48,-1.2 0.48,-1.07 0.35,-1.08 0.48,-1.08 0.47,-1.2 0.48,-1.08 0.35,-1.08 0.48,-1.07 0.48,-1.08 0.35,-1.2 0.48,-1.07 0.48,-1.09 0.36,-1.07 0.47,-1.08 0.48,-1.2 0.47,-1.08 0.36,-1.07 0.48,-1.09 0.47,-1.2 0.36,-1.07 0.47,-1.08 0.48,1.08 0.36,1.08 0.47,1.2 0.48,1.08 0.36,1.07 0.47,1.08 0.48,1.2 0.35,1.08 0.48,1.07 0.48,1.09 0.35,1.07 0.48,1.2 0.36,1.08 0.47,1.07 0.48,1.08 0.36,1.08 0.48,1.2 0.47,1.08 0.36,1.08 0.47,1.07 0.47,1.2 0.36,1.08 z m 38.08,34.78 -0.48,-1.08 -0.47,-1.08 -0.47,-1.07 -0.36,-1.2 -0.48,-1.07 -0.48,-1.07 -0.47,-1.08 -0.96,-2.15 -0.47,-1.2 -0.48,-1.07 -0.36,-1.08 -0.47,-1.07 -0.95,-2.15 -0.48,-1.2 -0.47,-1.07 -0.48,-1.08 -0.48,-1.08 -0.35,-1.07 -0.48,-1.08 -0.48,-1.2 -0.47,-1.07 -0.47,-1.07 -0.48,-1.08 -0.48,-1.08 -0.47,-1.07 -0.36,-1.2 -0.48,-1.07 -0.47,-1.08 -0.48,-1.08 -0.48,-1.07 -0.47,-1.08 -0.47,-1.2 -0.48,-1.07 -0.36,-1.07 -0.47,-1.08 -0.48,-1.07 -0.48,-1.08 -0.48,-1.2 -0.47,-1.07 -0.95,-2.15 -0.36,-1.08 -0.47,-1.08 -0.48,-1.06 -0.47,-1.2 -0.48,-1.08 -0.48,-1.07 -0.48,-1.08 -0.47,-1.07 -0.36,-1.08 -0.48,-1.2 -0.47,-1.07 -1.43,-3.23 -0.47,-1.07 -0.48,-1.2 -0.36,-1.07 -0.47,-1.08 -0.48,-1.08 -0.48,-1.07 -0.47,-1.08 -0.47,-1.2 -0.96,-2.15 -0.35,-1.07 -0.48,-1.08 -0.48,-1.07 -0.47,-1.2 -0.48,-1.07 -0.48,-1.08 -0.48,-1.08 -0.47,-1.07 -0.36,-1.08 -0.47,-1.2 -0.48,-1.07 -0.95,-2.15 h -22.02 l -0.47,1.08 -0.48,1.07 -0.47,1.08 -0.36,1.2 -0.47,1.07 -0.48,1.07 -0.48,1.08 -0.47,1.08 -0.48,1.07 -0.48,1.2 -0.48,1.07 -0.35,1.08 -0.96,2.15 -0.47,1.08 -0.47,1.2 -0.48,1.07 -0.47,1.07 -0.48,1.08 -0.36,1.08 -0.48,1.07 -0.47,1.2 -0.48,1.07 -0.48,1.08 -0.47,1.07 -0.47,1.08 -0.48,1.07 -0.36,1.2 -0.47,1.08 -0.48,1.07 -0.48,1.08 -0.47,1.07 -0.48,1.08 -0.48,1.2 -0.47,1.06 -0.36,1.08 -0.47,1.08 -0.48,1.07 -0.47,1.08 -0.48,1.07 -0.48,1.2 -0.47,1.08 -0.48,1.07 -0.36,1.08 -0.48,1.07 -0.47,1.08 -0.47,1.2 -0.48,1.07 -0.47,1.07 -0.96,2.16 -0.36,1.07 -0.47,1.2 -0.48,1.07 -0.48,1.08 -0.47,1.08 -0.48,1.07 -0.47,1.08 -0.48,1.2 -0.35,1.07 -0.48,1.07 -0.48,1.08 -0.47,1.08 -0.48,1.07 -0.48,1.2 -0.47,1.07 -0.48,1.08 -0.35,1.07 -0.48,1.08 -0.47,1.08 -0.48,1.2 -0.48,1.07 -0.47,1.07 -0.48,1.08 -0.48,1.07 -0.36,1.07 -0.47,1.2 -0.48,1.07 -0.47,1.08 -0.48,1.08 h 24.04 l 0.48,-1.08 0.36,-1.08 0.47,-1.07 0.47,-1.2 0.36,-1.07 0.48,-1.07 0.47,-1.08 0.36,-1.07 0.48,-1.08 0.48,-1.07 0.35,-1.08 0.48,-1.2 0.48,-1.07 0.35,-1.08 0.47,-1.07 h 34.16 l 0.48,1.07 0.35,1.08 0.48,1.07 0.47,1.2 0.36,1.08 0.96,2.15 0.35,1.07 0.48,1.08 0.48,1.07 0.35,1.07 0.48,1.2 0.47,1.07 0.36,1.08 0.47,1.08 z M 178.37,533.09 V 494.25 H 139.1 v 17.44 h 17.37 v 10.88 l -0.95,0.6 -0.83,0.48 -1.07,0.47 -0.96,0.48 -1.07,0.48 -1.07,0.24 -1.19,0.36 -1.2,0.24 -1.18,0.24 -1.19,0.12 -1.3,0.11 -1.32,0.12 h -2.74 l -1.3,-0.12 -1.2,-0.11 -1.18,-0.24 -1.2,-0.24 -1.18,-0.36 -1.2,-0.36 -1.07,-0.48 -1.07,-0.48 -1.07,-0.47 -0.95,-0.6 -0.95,-0.6 -0.95,-0.72 -0.96,-0.71 -0.82,-0.72 -0.72,-0.84 -0.83,-0.83 -0.72,-0.84 -0.71,-0.96 -0.6,-0.95 -0.6,-0.96 -0.59,-1.08 -0.47,-1.07 -0.48,-1.2 -0.35,-0.95 -0.36,-1.08 -0.24,-1.07 -0.24,-1.08 -0.24,-1.08 -0.12,-1.2 -0.12,-1.07 -0.11,-1.2 v -2.74 l 0.11,-1.2 0.12,-1.2 0.24,-1.3 0.24,-1.08 0.24,-1.2 0.36,-1.19 0.47,-1.07 0.36,-1.08 0.47,-1.08 0.6,-0.95 0.6,-1.08 0.59,-0.95 0.6,-0.84 0.7,-0.96 0.84,-0.83 0.72,-0.84 0.82,-0.72 0.84,-0.72 0.83,-0.71 0.96,-0.6 0.95,-0.6 0.95,-0.6 1.07,-0.47 1.07,-0.48 1.07,-0.36 1.08,-0.36 1.06,-0.24 1.2,-0.24 1.07,-0.12 1.19,-0.12 h 2.5 l 1.3,0.12 1.32,0.12 1.18,0.12 1.2,0.24 1.18,0.24 1.08,0.24 1.06,0.36 1.07,0.36 0.96,0.36 0.95,0.47 0.95,0.48 1.07,0.6 0.95,0.6 0.96,0.6 0.95,0.6 0.95,0.71 0.95,0.6 0.95,0.83 0.96,0.72 0.71,-0.95 0.84,-0.84 0.7,-0.96 0.84,-0.95 0.71,-0.96 0.72,-0.84 0.83,-0.95 0.72,-0.96 0.83,-0.96 0.71,-0.83 0.71,-0.96 0.84,-0.96 0.71,-0.83 0.72,-0.96 0.83,-0.96 0.72,-0.95 0.83,-0.84 0.71,-0.95 -0.95,-0.72 -0.95,-0.84 -0.95,-0.72 -0.96,-0.71 -0.95,-0.6 -0.95,-0.72 -1.07,-0.6 -0.95,-0.6 -1.07,-0.59 -0.96,-0.6 -1.06,-0.48 -1.07,-0.6 -1.08,-0.47 -1.07,-0.48 -1.07,-0.48 -1.07,-0.36 -0.95,-0.36 -1.07,-0.23 -1.08,-0.36 -1.07,-0.24 -1.06,-0.24 -1.08,-0.24 -1.19,-0.24 -1.19,-0.24 -1.07,-0.12 -1.31,-0.24 -1.19,-0.12 h -1.19 l -1.3,-0.12 -1.32,-0.12 h -5.11 l -1.2,0.12 -1.19,0.12 -1.18,0.12 -1.2,0.12 -1.19,0.24 -1.19,0.12 -1.18,0.24 -1.07,0.36 -1.2,0.24 -1.07,0.36 -1.06,0.24 -1.08,0.47 -1.2,0.36 -0.94,0.36 -1.19,0.6 -1.07,0.48 -1.07,0.47 -1.07,0.6 -1.08,0.6 -1.07,0.6 -0.94,0.6 -0.96,0.6 -0.95,0.71 -0.96,0.6 -0.95,0.71 -0.83,0.72 -0.95,0.84 -0.83,0.72 -0.84,0.83 -0.83,0.84 -0.72,0.84 -0.83,0.83 -0.71,0.84 -0.71,0.96 -0.72,0.95 -0.71,0.96 -0.6,0.95 -0.6,0.96 -0.59,0.96 -0.6,0.95 -0.6,1.08 -0.46,1.08 -0.96,2.15 -0.47,1.07 -0.48,1.2 -0.36,1.07 -0.36,1.2 -0.35,1.08 -0.24,1.2 -0.36,1.19 -0.23,1.07 -0.12,1.2 -0.24,1.19 -0.12,1.31 -0.11,1.2 v 1.2 l -0.12,1.3 v 3.95 l 0.12,1.2 0.1,1.2 0.13,1.19 0.12,1.07 0.24,1.2 0.12,1.07 0.23,1.2 0.36,1.08 0.24,1.2 0.35,1.07 0.24,1.07 0.48,1.08 0.36,0.96 0.47,1.07 0.96,2.15 0.47,1.08 0.6,0.95 0.6,1.08 0.59,0.96 0.6,0.95 0.7,0.96 0.6,0.96 0.72,0.83 0.7,0.96 0.72,0.83 0.83,0.84 0.84,0.84 0.83,0.72 0.84,0.83 0.83,0.72 0.83,0.72 0.95,0.71 0.95,0.72 0.96,0.72 0.95,0.6 0.95,0.6 1.07,0.6 0.95,0.58 1.08,0.6 1.07,0.48 1.07,0.48 1.07,0.47 1.19,0.48 1.07,0.36 1.07,0.48 1.07,0.36 1.2,0.24 1.06,0.36 1.2,0.23 1.06,0.24 1.2,0.24 1.18,0.24 1.2,0.12 1.19,0.12 1.18,0.12 1.31,0.12 1.19,0.12 h 5.12 l 1.3,-0.12 1.2,-0.12 1.3,-0.12 1.2,-0.12 1.3,-0.12 1.2,-0.12 1.19,-0.24 1.19,-0.24 1.07,-0.23 1.2,-0.24 1.06,-0.36 1.19,-0.36 1.07,-0.36 1.07,-0.36 1.07,-0.36 1.07,-0.48 1.2,-0.47 1.07,-0.48 1.18,-0.48 1.07,-0.6 1.08,-0.47 1.07,-0.6 1.07,-0.6 1.07,-0.59 0.95,-0.6 0.96,-0.6 0.95,-0.71 0.95,-0.6 0.95,-0.72 0.83,-0.6 0.96,-0.71 z M 508.7,269.68 v 65 c 0,11.51 -5.33,16.86 -16.37,16.86 h -8.2 c -11.46,0 -16.78,-5.35 -16.78,-16.87 V 152.86 c 0,-11.52 5.32,-16.87 16.78,-16.87 h 7.37 c 11.06,0 16.38,5.35 16.38,16.87 v 56.35 h 42.98 V 150.4 c 0,-35.78 -17.2,-53.06 -52.8,-53.06 h -21.3 c -35.6,0 -53.2,17.68 -53.2,53.47 v 185.93 c 0,35.79 17.6,53.47 53.2,53.47 h 21.7 c 35.62,0 53.22,-17.68 53.22,-53.47 V 269.69 Z M 356.6,387.73 h 43.8 V 99.8 h -43.8 z m -63.56,-160 c 0,11.51 -5.32,16.86 -16.37,16.86 H 258.66 V 138.46 h 18.01 c 11.05,0 16.37,5.35 16.37,16.86 z M 283.63,99.8 h -68.76 v 287.93 h 43.8 V 283.25 h 24.97 c 35.6,0 53.2,-17.68 53.2,-53.47 v -76.5 c 0,-35.8 -17.6,-53.48 -53.2,-53.48 M 139.27,261.04 h 51.58 v -39.9 H 139.27 V 139.7 H 192.9 V 99.8 H 95.49 v 287.94 h 98.24 v -39.9 h -54.45 z m 182.3,429.25 127.97,-42.2 H 198.81 Z" clip-path="url(#a)" clip-rule="evenodd" style="fill:#ffffff;stroke-width:4.004" transform="matrix(0.77976411,0,0,0.77976411,75.795,90.33125)" id="path1"/><defs id="defs2"><clipPath id="a"><path fill="currentColor" d="M0 0h647.17v750.98H0z" id="path2"/></clipPath></defs><script id="script2"/></svg>