<svg xmlns="http://www.w3.org/2000/svg" viewBox="0 0 700 394"><g fill="currentColor" style="fill:#fff"><path d="M52.43 310.8q-12.85-.95-25.68-1.81-5.8-.39-12.82-4.68-1.69-1.04-2.76-2.63c-.98-1.45-2.52-2.57-3.23-4.17-1-2.24-2.7-4.67-2.97-7.09l-.68-6.01q-.26-2.25.33-5.05 1.97-9.39 3.74-15.84 25.35-92.86 53.83-196.49c.6-2.18 2.09-4.13 3.27-6.12 1.51-2.54 4.28-4.48 6.39-6.54 2.58-2.51 5.74-4.16 8.78-5.99q14.46-8.7 31.81-7.75.52.03 1-.16.81-.31 1.56.13.5.3 1.02.02.98-.55 1.97-.02.52.29 1.05 0 .96-.52 1.94 0 .52.28 1.06 0 .93-.48 1.86-.05.56.25 1.13.04l.44-.15q.33-.12.67-.05 1.54.34 3.03.22 1.32-.11 2.69-.12 25.07-.05 50.14-.2l2-.01q76.12-.19 152.25-.31.73 0 1-.23 26-.01 52-.09h1q27.12.08 54.25-.03 75.29-.31 148.5-.46l1.75-.01 50.75-.28c7.59-.03 15.2-.12 22.84-.14 3.72-.02 6.32 1.47 9.6 2.48q1.87.59 3.27 1.98c1.96 1.97 4.61 3.38 6.09 5.78.9 1.45 2.25 2.6 2.8 4.2q1.32 3.79 2.8 7.86.82 2.27.43 5.17-.72 5.29-2.07 10.32-29.34 109.41-58.8 220.18c-.76 2.86-1.54 6.48-4.48 7.89q-4.52 2.16-8.64 4.3a2 2-14.5 0 0-1.1 1.86q.08 4.47-.06 9-.11 3.52-1.5 5.92-1.43 2.48-3.37 5t-5.06 4.52q-3.89 2.48-6.73 3.27-3.17.88-6.39 1.94a11.5 11.38 35.5 0 1-3.6.58l-58.16.03q-.3 0-.55.16-.16.1-.32.1-109.74-.01-204.5.21l-2.25.01q-126.82.07-254.62.32-2.24 0-4.07-.86c-1.79-.85-3.65-1.03-5.34-2.04q-3.51-2.11-7.06-5.13a1.57 1.55 14.7 0 1-.5-.84c-.28-1.34-1.17-2.33-1.31-3.64q-.99-9.25.11-17.85.07-.6-.53-.65m6.26-5.65q-1.67 9.66-.84 18.76.05.56.4 1 1.07 1.34 1.95 2.82c1.85 3.16 8.65 6.48 12.05 6.49q97.61.29 186.81-.54 9.89-.09 19.99.03 39.47.48 78.78.59c7.38.02 15.08.37 22.68.19 20.14-.48 40.32-.22 60.48-.37q18.62-.14 64.76.69 10.46.19 19.97-.01 32.52-.69 64.87-.7 3.49 0 6.19-1.12c8.49-3.49 14.67-7.72 15.38-17.73q.35-4.92.33-9.75 4.67-1.55 9.05-3.46c4.94-2.14 6.34-7.43 7.57-12.13q18.59-71.14 37.6-144.51c6.08-23.46 12.65-46.8 19.12-70.16q1.89-6.82.99-11.73-.64-3.45-3.91-8.56-1.5-2.32-3.62-3.64-2.21-1.37-4.43-3.01-2.26-1.67-5.21-2.2-4.46-.81-7.88-.81-53.65-.05-107.36-.03c-2.07 0-4.11.25-6.16.25q-34.68-.15-45.75.11-26.46.63-50 .98-47.11.69-92.34 1.19-19.45.21-38.91.47-29.36.38-62.23.11-13.47-.11-37.01.01-45.85.23-98.45.07c-7.81-.02-15.58-.35-23.52-.11q-3.94.11-6.71 1.34-6.44 2.84-13.52 7.49-5.49 3.61-9.86 9.88-1.95 2.8-3.74 8.61-1.38 4.52-2.65 9.14-19.71 72.05-45.66 169.98-2.21 8.33-4.66 18.1c-1.22 4.87-3.2 18.05.78 21.75 3.7 3.43 6.46 6.86 11.62 8.53q2.56.83 7.82 1 12.44.39 25.23.99" style="fill:#fff" transform="translate(2.34 37.56)"/><path d="m565.7 134.42 14.27-53.61q.27-1.01 1.28-1.27l41.48-10.59a.63.62-88.6 0 1 .75.79l-17.12 56.81a.7.7 0 0 0 .67.89l15.75-.36q1.16-.03.68 1.03-.6 1.3-1 2.71-4 13.92-8.02 27.75a.9.89-80.4 0 1-.89.64l-14.75-.68a1.21 1.2-81.9 0 0-1.23.93l-19.55 83.8a1.63 1.63 0 0 0 1.73 2l15.45-1.42q.96-.09.72.85l-7.58 29.23a1.46 1.46 0 0 1-1.43 1.1q-15.87-.08-30.65.03-5.31.04-9.73-1.05-4.61-1.13-8.57-3.46-1.64-.97-3.11-3.27-1.05-1.65-1.35-3.38-1.53-8.82-.07-14.16 12.3-44.94 25.05-90.88.06-.21-.15-.21l-4.83.1a.3.3 0 0 0-.29.22l-33.37 118.07q-.3 1.06-1.4 1.04l-67.69-.98a1.42 1.38 63 0 1-.85-.29l-8.06-6q-.58-.43-.76-1.13c-1.13-4.35-2.97-7.93-2.84-12.69q.21-7.98 1.58-13.18l29.78-113.51a.67.66-82.6 0 1 .64-.5l38.84.53q1.29.02.96 1.27l-29.37 110.3q-.52 1.95-.47 3.26.07 1.87.72 3.23a1.9 1.9 0 0 0 3.42.01 133 133 0 0 0 8.43-22.75q13.31-48.1 26.66-95.72.15-.51.68-.51l40.61.29q.8.01.59.78l-1.06 3.78q-.25.86.64.78 1.62-.16 3.23.28 1.24.34 1.58-.9m2.89 18.27a.22.22 0 0 1 .22.27q-11.55 43.06-23.08 86.4-.89 3.32-1.47 6.77c-.81 4.74-3.3 15.01 1.31 18.5q1.85 1.4 3.98 1.94c4.39 1.11 8.46 2.34 13.1 2.58q9.95.53 19.85-1.24.63-.11.85-.71l4.42-11.96a.5.5 0 0 0-.44-.67q-5.84-.31-11.61-.69-2.27-.15-4.38-1.02-.49-.2-.73-.67-2.02-3.94-1.26-6.87 11.05-42.9 22.29-86.86 1.04-4.08 2.23-8.37a.89.87-79.5 0 1 .91-.64l15.2 1.33q.57.06.7-.51l2.39-10.72q.14-.64-.52-.66l-15.29-.59a.63.62-80.8 0 1-.57-.8l15.68-54.94q.22-.75-.53-.51l-24.52 8a1.45 1.43-1.3 0 0-.93.96l-14.07 48.1q-.16.57-.75.54l-12.51-.5q-.58-.02-.69.55l-2.4 12.71q-.1.54.45.53zm-92.47 116.82q19.16.27 38.2.66a.6.6 0 0 0 .59-.43l37.47-131.22a.4.4 0 0 0-.38-.5l-25.73-.34q-.66-.01-.82.63-12.16 46.85-24.56 93.09-2.06 7.68-6.65 19.81-.56 1.47-1.59 2.2c-2.64 1.88-9.5 1.07-13.29.59-3.75-.46-5.61-4.09-5.47-7.55q.07-1.74.39-2.95 12.91-48.29 25.49-96.26 1.06-4.06 2.03-8.2.11-.45-.36-.47l-23.9-.95q-.58-.03-.73.54-14.84 55.01-28.02 104.77-2.59 9.8.38 17.54 1.51 3.94 5.93 7.22 1.85 1.38 4.84 1.47 8.06.24 16.18.35M335.6 72.08l-54.72 204.08a.5.5 0 0 1-.47.36l-40.62.29a.5.5 0 0 1-.47-.62l54.39-204.03a.5.5 0 0 1 .47-.36l40.95-.33a.5.5 0 0 1 .47.61m-9.22 8.99a.63.63 0 0 0-.62-.8l-23.97.34a.6.6 0 0 0-.6.47l-50.08 189.18a.63.63 0 0 0 .62.79l22.01-.33a.6.6 0 0 0 .6-.47zm-154.84 73.09-7.28 35.38a.6.6 0 0 1-.57.46l-46.17.04a.6.6 0 0 0-.56.43l-22.9 86.29a.6.6 0 0 1-.58.43l-43.98-.92a.58.58 0 0 1-.55-.73l53.11-202.86a.6.6 0 0 1 .56-.43l94.91-.01a.58.58 0 0 1 .56.73l-10.47 39.14a.6.6 0 0 1-.57.43l-47.21-.55a.6.6 0 0 0-.57.44l-10.09 40.45a.58.58 0 0 0 .56.72l41.23-.14a.58.58 0 0 1 .57.7m-52.33 7.33 15.27-55.83q.14-.48.64-.48l48.01.3q.64 0 .8-.62l5.88-23.39a.35.35 6.6 0 0-.34-.42l-80.76-.31q-.58 0-.73.56L57.44 270.5a.61.6 8.3 0 0 .57.76l32.03.82q.69.01.86-.65l22.47-86.66q.13-.5.64-.5l45.93-.46q.54-.01.66-.54l4.62-21.13q.13-.57-.46-.51-.15.01-.29.08-.19.09-.42.1-22.14.03-44.6-.01-.32 0-.24-.31m167.95 114.56 53.8-203.39a.6.6 0 0 1 .57-.43l39.48.45a.58.58 0 0 1 .56.73l-52.32 202.61a.6.6 0 0 1-.56.43l-40.96.32a.58.58 0 0 1-.57-.72m11.99-5.56a.37.37 0 0 0 .37.46l24.13-.61a.4.4 0 0 0 .35-.28l48.32-188.27a.37.37 0 0 0-.35-.46l-24.19-.57a.4.4 0 0 0-.36.28zm140.37-139.66q-.32.67.27 1.11c4.48 3.33 9.62 6.56 13.1 10.94q1.54 1.93 1.8 4.68.52 5.5-.21 9.56-1.47 8.31-2.83 17.02-1.43 9.19-3.53 16.75c-3.46 12.42-6.16 25.57-10.1 37.79q-2.82 8.74-5.95 17.89c-1.33 3.91-4.53 8.02-7.05 11.84q-1.89 2.86-4.73 4.83-7.62 5.27-14.64 8.47c-4.13 1.89-8.44 2.57-12.91 3.54q-2.4.52-5.17.47-9.86-.19-19.31-1.76-.96-.16-2.42 1.04-6.2 5.08-12.09 9.97-1.25 1.04-.7-.49l4.28-11.8a1 1 0 0 0-.28-1.09q-3.17-2.8-6.44-5.33-2.35-1.82-3.84-4.3c-1.18-1.96-3.01-3.89-3.17-6.29q-.43-6.41-.3-11.49.13-5.23 1.85-11.47 8.54-31.03 17.42-63.81c1.38-5.12 3.29-9.7 5.02-14.71q1.33-3.83 3.38-6.22 8.64-10 17.47-14.53 3.8-1.95 12.18-4.91 3.52-1.24 6.42-1.36 3.71-.15 7.35-.42c5.07-.38 10.27.32 15.33.81a2.73 2.71 27.8 0 0 2-.61l14.73-12.2q1.49-1.23.64.5zm-33.24 76.87q1.26 0 .54 1.03-20.77 30.07-42.33 60.64-.03.05.01.08l.21.16q.05.05.1-.01l63.93-72.45q1.09-1.24-.55-1.27l-35.48-.74a.62.62 0 0 1-.5-.96l38.95-59.54q.32-.49-.19-.21-.25.14-.42.36-2.88 3.75-6.52 8.08-28.23 33.58-53.6 64.45a.36.36 0 0 0 .28.59zm-42.46 3.32q-.88.01-.31-.66l62.67-73.67a.43.43 0 0 0-.31-.71q-5.98-.2-11.3-.57c-2.84-.2-5.58.34-8.4.56-4.07.33-9.74 1.98-12.67 4.1q-4.16 3-8.66 6.14-2.96 2.06-5.3 5.24c-4.43 6-7.03 12.93-9.03 19.95q-8.63 30.18-17.22 60.38-3.25 11.42-1.85 23.71.41 3.56 2.44 5.27 3.41 2.86 7.32 5.82a.96.96 0 0 0 1.37-.21l38.74-55.4a.42.42 0 0 0-.35-.66zm72.56-17.94q.52.04.18.44l-64.14 74.44a.4.4 0 0 0 .15.65c2.13.9 4.36 1.97 6.79 1.78q7.99-.62 14.94-1.85c3.37-.6 6.63-2.33 9.81-3.66 4.5-1.87 9.48-4.7 13.04-7.99q5.59-5.15 8.23-14.29 6.94-23.99 14.89-47.51 1.84-5.44 2.6-10.87 2.36-16.88 4.21-32.96a1.76 1.68-55.8 0 0-.16-.96q-1.14-2.32-2.18-4.72c-1.82-4.18-6.23-7.2-10.16-9.35q-.45-.25-.74.18l-36.32 55.16a.31.31 0 0 0 .25.48q17.47.32 33.96.81 2.24.06 4.65.22m-241.05 80.84q-3.75 1.16-7.21 2.39-3.63 1.29-7.36 1.5-8.18.46-17.04-.34-2.46-.22-4.81-1.62c-4.27-2.52-6.55-5.44-9.18-9.43q-.23-.36-.18-.79 1.81-14.26 3.48-29.17c.79-7.04 3.28-13.49 5.27-20.15q1.08-3.61 2.68-6.84c1.52-3.06 2.68-6.42 4.74-9.13 2.47-3.21 4.48-6.73 7.9-9.17q6.7-4.76 13.05-7.22 2.24-.86-.15-1.14l-16-1.86a.7.7-79.4 0 1-.58-.86q3.69-14.27 6.64-25.82c.87-3.41 3.68-7.5 6.3-10.15q6.76-6.86 15.44-11.3 4.1-2.09 9.75-2.74 15.55-1.78 31.78.09 10.05 1.16 14.33 4.01 7.91 5.26 8.68 15.1c.85 10.77-.85 20.56-3.78 31.66q-5.3 20.09-10.66 40.79-6.86 26.52-15.55 54.73a.62.61 8.2 0 1-.59.44l-36.38-.18a.76.76 0 0 1-.68-1.09l.57-1.18q.38-.79-.46-.53m14.89-16.14q.59-.43.38.27l-3.42 11.62a.78.78 0 0 0 .76 1l20.61-.2a1.03 1.02 5.6 0 0 .99-.81q2.22-10.5 5.34-22.15 9.65-35.98 19.31-72.26.58-2.17.75-4.3.73-8.89 1.12-17.85.2-4.45-1.83-8.54-1.08-2.16-3.15-3.5-2.95-1.91-5.43-2.04-8.47-.44-17.74-.72c-6.41-.2-13.84.13-19.46 1.16-7.07 1.3-12.79 6.11-17.81 11.51-2.57 2.77-5.17 6.76-6.26 10.24q-1.95 6.24-3.57 12.82-.16.65.5.68l21.88 1q.5.02.6-.47 1.19-5.63 2.35-11.78.35-1.89 1.71-3.56 3.23-3.99 5.99-5.23 6.2-2.78 14.16-1.73 1.25.16 2.4 1.19.36.33.48.81c.51 2.12 1.17 4.23 1.05 6.44-.5 9.02-3.23 17.99-5.01 26.93q-.15.77-.93.77-13.4-.01-25.52.75-5.95.38-10.59 2.2-4.95 1.94-9.61 5.38c-2.52 1.87-4.28 4.61-6.3 7q-2.19 2.57-3.43 5.82c-1.86 4.9-4.13 9.64-5.54 14.63-1.22 4.33-2.54 8.78-3.17 13.07q-1.47 10.09-3.11 20.72c-.39 2.48.36 4.66.67 7.1.35 2.74 3.22 4.07 5.62 4.27q5.18.44 10.67 1.28 3.91.6 7.98-.1 5.77-.99 10.63-2.59 3.04-1.01 6.07-3.39 4.82-3.78 9.86-7.44m3.14-92.19q-.47.96-.66 1.9-1.37 6.94-2.75 14.3a.58.58 0 0 0 .56.68l9.19.16q.61.01.72-.59l4.24-22.6a.84.84 0 0 0-.93-.99q-7.37.96-10.37 7.14" style="fill:#fff" transform="translate(2.34 37.56)"/><path d="M194.93 212.93c1.21-3.58 4.77-5.37 8.26-6.55q9.13-3.06 18.71-2.57a.36.36 0 0 1 .33.44l-8.72 36.47q-.33 1.37-1.08 2.55-1.31 2.03-2.76 4.16c-1.93 2.82-4.98 5.01-7.5 7.27-1.91 1.72-5.83 2.64-8.45 2.41q-3.71-.34-7.44-.96a1.64 1.6-13.4 0 1-1-.6c-3.03-3.92-1.8-7.98-.46-12.14q4.43-13.73 10.11-30.48m18.32-.58q.28-.88.5-1.71a.5.5 0 0 0-.53-.62c-4.36.41-7.41.49-11.11 3.43q-1.57 1.25-2.32 3.7l-8.81 29.11a2.1 2.09 11.9 0 0 1.76 2.69q4.1.49 8.01-3.2 3.22-3.02 4.25-6.51 3.97-13.57 8.25-26.89m19.8 89.28c-1.11-.51-2.04.08-2.41 1.19q-2.51 7.57-4.87 15.17-.77 2.48.56 4.25.38.5.81.04 2.25-2.45 3.09-6.29a.57.57 0 0 1 .75-.41q1.71.63 3.84.57a.49.48 3 0 1 .5.55c-.36 2.49-1.16 8.23-3.74 9.55-1.75.89-3.37 1.78-5.42 1.42-1.19-.22-2.3.3-3.47-.06q-3.02-.9-3.83-3.59a1.75 1.73 46.5 0 1 .02-1.03l7.18-22.06c.71-2.2 2.04-5.01 4.54-5.51q3.94-.79 7.67.25.42.12.56.54c.47 1.39 1.05 2.75.54 4.24q-1.01 2.99-1.82 5.83-.21.75-1 .71l-2.7-.12q-1.11-.05-.92-1.15l.56-3.24a.78.77-72.7 0 0-.44-.85M483 308.56q-.11 2.97.72.12l3.89-13.35q.07-.25.34-.23l5.47.44q.2.02.13.2l-11.74 32.24q-.27.75-.99.41-.54-.27-1.12-.12-.7.17-.74-.54l-.72-13.09a.21.21 0 0 0-.41-.06l-3.72 11.25q-.38 1.17-1.61 1.12l-1.51-.06q-1.19-.05-.84-1.18l9.11-30a.7.7 16 0 1 .84-.46q1.41.4 2.7.21.66-.1.63.56zm-339.75 14.27 2.97-.37q.61-.07.76-.67l1.05-4.37a2.31 2.3-64.2 0 0-.81-2.34l-4.51-3.59q-.51-.4-.61-1.04c-.2-1.2-.56-2.28-.15-3.49q1.27-3.76 2.15-7.81.25-1.17 1.23-1.71c2.21-1.25 12.89-4.96 11.7 1.2q-.67 3.45-1.59 6.65-.05.2-.26.2l-3.53-.03q-.14 0-.13-.14l.3-4.01q.05-.61-.56-.67c-3.46-.33-3.75 4.79-3.5 7.18a2 2 0 0 0 1.05 1.55l3.05 1.62a3.22 3.21-69.5 0 1 1.62 3.57q-.79 3.32-1.69 6.75c-.7 2.67-2.45 4.04-4.3 5.82-3.5 3.35-11.26-.88-9.7-5.9q.45-1.45.78-2.86.08-.32.41-.29l3.73.39q.21.02.19.23l-.28 3.54a.56.55-1.7 0 0 .63.59m49.44-10.63q-.05 2.39.68.11l5.14-15.96a1.12 1.11-76.9 0 1 1.21-.76l2.96.41q.79.11.53.86l-10.56 30.53q-.21.61-.86.61h-2.58a.54.54 0 0 1-.54-.55l.41-14.89q.05-1.6-.53-.11l-5.91 15.4q-.17.44-.64.42l-2.85-.06q-.88-.02-.6-.85l10.66-31.6q.29-.87 1.14-.53.87.36 1.85.41.82.04.8.85zm15.02 10.27a1.51 1.5-1 0 0 .89-.91l8.85-25.34a.55.53-81.9 0 1 .45-.35l5.79-.5a.16.16 0 0 1 .16.21q-4.65 12.66-9.4 25.05c-2.16 5.63-4.25 8.95-10.83 7.37-2.35-.57-4.74-3.22-3.85-5.84q4.66-13.81 8.63-26a.54.54 0 0 1 .51-.37l4.82-.05a.14.14 0 0 1 .13.18q-4.02 11.93-7.99 23.48-.45 1.29.23 2.77.35.77 1.61.3m288.09 1.04c3.6-.8 3.35-3.58 4.33-6.39q.22-.64-.45-.64l-.38-.01q-1.26-.01-.83-1.19l1.17-3.21q.3-.82 1.17-.76l6.29.41q.86.06.56.86-1.62 4.43-3.46 9.06c-1.09 2.72-2.86 3.71-5 5.35-2.3 1.78-6.7-.23-8.58-1.66a1.57 1.56 16.9 0 1-.61-1.13q-.14-1.97.51-3.91l6.77-20.29c1.71-5.13 7.91-5.42 12.19-3.65a1.49 1.43-1.2 0 1 .74.68q1.04 2.04.51 3.81-.78 2.61-1.49 5.76a1.25 1.25 0 0 1-1.49.94l-2.55-.59q-1.45-.32-.86-1.69.86-2.01.01-3.11a2.01 1.9-54.5 0 0-3.37.66q-2.87 7.91-5.47 16.02-.6 1.88-.53 4.03.02.82.82.65m96.96-15.06 2.61.15a.5.5 0 0 1 .44.65l-1.62 4.88a.5.5 0 0 1-.53.33l-3.2-.43a.5.5 0 0 0-.53.32l-3.02 8.17a.5.5 0 0 0 .45.66l3.79.08a.5.5 0 0 1 .45.66l-1.51 3.98a.5.5 0 0 1-.49.32l-8.79-.56a.5.5 0 0 1-.44-.63l9.31-31.08a.5.5 0 0 1 .45-.35l10.09-.36a.5.5 0 0 1 .49.63l-1.77 5.55a.5.5 0 0 1-.5.34l-3.92-.21a.5.5 0 0 0-.5.35l-1.7 5.93a.5.5 0 0 0 .44.62m-328.59-.92q.82-.02 1.67.29.71.26.55 1l-.93 4.27a.96.96 0 0 1-1.05.76l-2.96-.31q-.58-.06-.78.48l-3.18 8.48a.56.56 0 0 0 .51.76l2.72.06q.95.02.63.91l-.69 1.94q-.38 1.06-1.51 1.01l-7.24-.33q-.92-.04-.63-.91l9.86-29.77q.22-.66.91-.66h8.03q1.11 0 .84 1.08l-1.26 5.13q-.17.69-.87.56l-2.96-.54a.7.7 0 0 0-.76.46l-1.44 4.63q-.23.72.54.7m69.78 14.25a790 790 0 0 0 7.82-22.95c.86-2.69 5.52-3.32 8.11-3.29 4.31.05 6.03 3.42 4.77 7.24q-4.01 12.2-7.65 23.4-.6 1.81-2.51 1.74c-2.79-.1-12.31-1.11-10.54-6.14m15.47-19.45a1.77 1.77 0 0 0-1.17-2.22l-.07-.02a1.77 1.77 0 0 0-2.22 1.17l-5.86 18.95a1.77 1.77 0 0 0 1.17 2.22l.07.02a1.77 1.77 0 0 0 2.22-1.17zm67 20.59 3.12.3a.65.65 0 0 1 .55.85l-1.07 3.22q-.13.39-.54.36l-7.93-.65a.54.54 0 0 1-.47-.69l9.38-30.37q.13-.44.58-.3 1.87.57 4.99.35.27-.02.18.24l-9.06 26.29a.3.3 0 0 0 .27.4m15.62-1.36-1.86-.34a.91.9-67.7 0 0-.9.38l-3.83 5.63a1.22 1.21 22 0 1-1.22.51q-1.01-.18-2.05-.16-.58.02-.35-.51l13.43-31.31q.11-.26.4-.24l7.41.63q.27.02.2.28l-8.1 31.88q-.19.76-.95.55-1-.26-2.07-.18a.63.63 0 0 1-.66-.75l1.06-5.64q.11-.62-.51-.73m3.67-18.25L431 315.97a.27.27 0 0 0 .29.36q1.16-.15 2.15.17a.38.37-73.6 0 0 .48-.27l3.13-12.82q.21-.86-.62-.55l-.43.16a.5.5 0 0 0-.29.29m16.81 2.49q-.12 1.19.53.19l6.5-9.96a.99.96 19.7 0 1 .95-.43l3.99.57q.13.02.06.13-4.61 6.8-9.1 13.27-2.39 3.43-3.91 7.58-2.11 5.76-4.01 10.62-.09.22-.31.19l-3.48-.38q-.26-.03-.19-.28 1.8-5.79 3.73-11.54 1.07-3.17 1.07-6.61 0-6.93.19-13.29.02-.44.46-.4l4.04.37q.42.04.38.46zm21.97-9.86-10.9 30.35a.3.3 0 0 1-.32.21l-3.61-.17a.32.32 0 0 1-.29-.42l9.37-29.66a.3.3 0 0 1 .27-.22l5.15-.52a.32.32 0 0 1 .33.43m59.46 5.79q-2.01-.18-2.58 1.14-3.92 9.08-7.21 17.52-.56 1.43.34 2.57a2 1.99 57.3 0 0 2.48.55q3.06-1.56 3.1-5.81a.7.69 87.1 0 0-.77-.7q-.31.04-.6-.09-.53-.22-.38-.78l1.05-3.85q.3-1.09 1.42-.94 2.7.37 5.74.28 1.32-.04.86 1.19-1.95 5.25-4.05 10.21c-1.16 2.74-3.59 5.64-6.92 5.07q-2.32-.39-4.49-1.06a2.6 2.6-80.2 0 1-1.83-2.61c.24-5.82 2.41-11.61 3.73-17.22 1.08-4.56 4.32-11.44 9.75-11.58 2.92-.07 8-.38 7.26 4.2q-.58 3.55-2.85 8.17-.13.27-.44.22l-4.17-.63q-.13-.02-.1-.15l1.26-4.86q.2-.77-.6-.84M81.13 322.12q.24-.66-.46-.71l-2.84-.22q-.83-.06-1.14.72l-1.52 3.82a.94.94-74.4 0 1-1 .57q-1.73-.27-3.31.2-.43.12-.25-.29l13.13-29.82q.33-.76 1.16-.7l5.97.37q.53.04.41.56l-6.59 28.44q-.15.62-.77.74l-2.89.53q-.57.11-.57-.47.02-1.91.67-3.74m5.47-19.24a.35.35 0 0 0-.26-.44l-.99-.23a.35.35 0 0 0-.4.21l-5.76 13.41a.35.35 0 0 0 .3.48l2.93.15a.35.35 0 0 0 .36-.26zm20.32 14.74-2.82 8.4q-.26.8-1.1.74l-2.28-.14q-.84-.05-.57-.85l9.89-29.43q.22-.65.91-.62l8.58.35a1.6 1.6 0 0 1 1.45 1.19q.54 2.25-.34 4.61-1.93 5.16-3.98 10.14c-1.45 3.53-4.91 5.26-8.78 4.97q-.73-.06-.96.64m9.04-15.24a.97.97 0 0 0-.61-1.22l-.94-.3a.97.97 0 0 0-1.22.61l-2.85 8.69a.97.97 0 0 0 .61 1.22l.94.3a.97.97 0 0 0 1.22-.61zm47.79-.63-2.09-.47q-.67-.16-.5-.82l1.02-4.08q.17-.71.9-.69l11.61.37q1.04.03.7 1.01l-1.3 3.72q-.43 1.25-1.71.95-.82-.18-1.59.06-.48.16-.63.64l-7.85 24.11q-.14.43-.59.4l-4.88-.34a.3.3 0 0 1-.27-.4l7.76-23.43q.27-.83-.58-1.03m81.54 19.77 2.31.16a.5.5 0 0 1 .45.57l-.69 4.12a.5.5 0 0 1-.55.4l-8.05-1.02a.5.5 0 0 1-.41-.63l8.78-29.04a.5.5 0 0 1 .48-.35l4.79.03a.5.5 0 0 1 .46.64l-8 24.48a.5.5 0 0 0 .43.64m53.22-9.29q1.67 2.06 1.05 4.37-1.4 5.24-2.77 10.46-.2.75-.98.65l-3.54-.46q-.74-.1-.51-.81 1.87-5.64 3.1-11.6a.7.7 0 0 0-.67-.84l-.51-.02a1.5 1.5 0 0 0-1.46 1.03l-3.76 11.3q-.07.18-.26.18l-4.56-.02q-.14 0-.1-.13l10.21-30.15a.7.7 0 0 1 .75-.48q3.51.37 7.14.53 3.96.18 3.69 4.15-.18 2.73-1.28 6.69c-.73 2.62-2.93 3.77-5.31 4.43q-.66.19-.23.72m-1.33-10.75-2.21 7.1a.7.7 0 0 0 .46.88l.2.06a2.57 2.37-72.7 0 0 3.03-1.75l1.1-3.53a2.57 2.37-72.7 0 0-1.5-3.16l-.2-.06a.7.7 0 0 0-.88.46m32.64 11.34q.77 1.09 1.09 2.36.13.55-.03 1.08l-3.22 10.87q-.18.61-.81.55l-3.14-.29a.56.56 0 0 1-.49-.7l2.97-11.22a1.34 1.34 0 0 0-.6-1.49q-.4-.24-.81-.29-1.63-.16-2.16 1.39l-3.73 10.83a.58.57-77.5 0 1-.59.38l-4.36-.42q-.26-.02-.19-.28l8.87-29.05a.7.7 7.1 0 1 .63-.48l10.06-.36q.72-.03.91.67c1.04 4.07 1.32 9.66-1.14 13.17-.8 1.14-2.05 1.51-3.12 2.32q-.54.41-.14.96m.4-8.29a1.4 1.4 0 0 0-.07-.91l-.92-2.09a1.4 1.4 0 0 0-2.64.23l-1.57 6.36a1.4 1.4 0 0 0 1.9 1.62l1.56-.64a1.4 1.4 0 0 0 .82-.95zm234.1 9.74q.09-3.13-.84-.14l-4.03 13.01q-.08.26-.34.26l-4.01.04q-.34.01-.23-.31 5.33-16.19 10.26-30.87a.38.37-79.6 0 1 .37-.26l5.52.01q.26 0 .22.25l-1.9 12.92q-.23 1.51.52.18l7.12-12.79a.97.96 12.1 0 1 .77-.49l5.29-.34q1.34-.09.93 1.19l-9.87 31.06q-.31.99-1.33.76l-2.28-.5a1.05 1.05 0 0 1-.8-1.27l2.87-11.83q.84-3.45-.97-.4l-6.68 11.23q-.95 1.61-.9-.26zm-203.83 7.76 2.3.1q.69.03.45.68-.52 1.43-.44 3.03.04.85-.8.74l-8.04-1.02q-.64-.08-.44-.69l9.28-28.03q.28-.84 1.16-.84h3.95q.67 0 .45.63l-8.43 24.59q-.26.78.56.81m13.54.09 3.48.22q.65.04.51.68l-.88 3.91a1 1 0 0 1-1.04.77l-9.67-.82a.56.56 0 0 1-.48-.73l9.79-29.64a.8.8 0 0 1 .74-.52l9.61.14q.33 0 .23.32l-1.37 4.49q-.08.28-.37.25l-3.19-.31q-.93-.09-1.23.8l-1.84 5.41q-.3.89.65.91 1.62.02 3.14.48.64.2.29.77-1.29 2.03-1.73 4.27-.14.7-.84.71l-2.84.03q-.74.01-1.01.69l-2.53 6.25q-.35.86.58.92m27.53-4.62-3.38 9.33q-.29.81-1.15.73l-3.5-.33q-.65-.06-.46-.69l9.26-29.98q.18-.57.78-.57 3.37-.01 6.88.04c3.12.05 4.88 1.19 3.66 4.63q-1.86 5.28-3.8 10.92-1.15 3.32-3.68 5.42-.39.32-.88.21-1.51-.34-3.1-.2-.47.05-.63.49m4.66-17.43-3.75 11.76a.2.2 0 0 0 .13.26l.8.26a4.79 2.37-72.3 0 0 3.72-3.85l.96-3.02a4.79 2.37-72.3 0 0-.8-5.29l-.8-.25a.2.2 0 0 0-.26.13m140.13 21.03-2.68-.19a.3.3 0 0 0-.31.17l-3.27 5.72a.3.3 0 0 1-.29.17l-3.86-.04a.33.33 0 0 1-.3-.47l13.87-30.22a.3.3 0 0 1 .3-.19l8.29-.1a.33.33 0 0 1 .33.42l-7.88 31.23a.33.33 0 0 1-.34.25l-4.33-.19a.33.33 0 0 1-.31-.39l1.08-5.79a.33.33 0 0 0-.3-.38m5.89-18.11a.28.28 0 0 0-.29-.35l-.68.03a.3.3 0 0 0-.25.18l-5.3 12.99a.28.28 0 0 0 .21.38l2.55.44a.3.3 0 0 0 .31-.21zm-433.92 19.3c2.34-7.85 5.1-15.45 7.9-23.21 1.05-2.93 7.24-2.92 9.74-2.9 4.28.05 3.5 5.46 2.58 8.06q-3.41 9.6-6.7 18.68-1.54 4.24-5.62 5.65-.53.18-1.06.02c-3.19-.93-8.11-2.07-6.84-6.3m15.08-19.89a1.5 1.5 0 0 0-.86-1.92l-.04-.02a1.5 1.5 0 0 0-1.92.86l-7.7 20.04a1.5 1.5 0 0 0 .86 1.92l.04.02a1.5 1.5 0 0 0 1.92-.86zm142.1 19.7-3.54-.74a.3.3 0 0 0-.35.2l-2.21 6.34a.3.3 0 0 1-.33.2l-4.47-.73a.3.3 0 0 1-.22-.42l13.57-30.48a.3.3 0 0 1 .28-.18l7.73.16a.3.3 0 0 1 .28.37l-7.24 30.7a.3.3 0 0 1-.32.23l-3.5-.33a.3.3 0 0 1-.27-.35l.83-4.62a.3.3 0 0 0-.24-.35m-1.42-6.28 3.15 1.02a.2.2 0 0 0 .27-.13l.06-.18a13.42 1.5-72 0 0 2.72-13.23l-.71-.23a13.42 1.5-72 0 0-5.57 12.3l-.06.18a.2.2 0 0 0 .14.27" style="fill:#fff" transform="translate(2.34 37.56)"/></g></svg>