<svg xmlns="http://www.w3.org/2000/svg" viewBox="0 0 700 394"><g fill="currentColor" style="fill:#fff;fill-opacity:1"><path d="M5.57 293.36q-14.63-.95-29.23-1.81-6.6-.39-14.6-4.68-1.91-1.04-3.13-2.63c-1.12-1.45-2.87-2.57-3.68-4.17-1.14-2.24-3.07-4.67-3.38-7.09q-.36-2.89-.77-6.01-.3-2.25.37-5.05 2.24-9.39 4.26-15.84 28.85-92.86 61.26-196.49c.69-2.18 2.38-4.13 3.73-6.12 1.71-2.54 4.87-4.48 7.27-6.54 2.93-2.51 6.53-4.16 9.99-5.99q16.46-8.7 36.2-7.75.6.03 1.14-.16.92-.31 1.78.13.57.3 1.16.02 1.11-.55 2.24-.02.6.29 1.2 0 1.09-.52 2.2 0 .6.28 1.2 0 1.07-.48 2.13-.05.63.25 1.28.04l.5-.15q.38-.12.77-.05 1.75.34 3.44.22 1.5-.11 3.07-.12 28.53-.05 57.06-.2l2.28-.01q86.63-.19 173.27-.31.83 0 1.14-.23 29.6-.01 59.18-.09h1.14q30.87.08 61.74-.03 85.7-.31 169.01-.46l2-.01 57.75-.28c8.64-.03 17.3-.12 26-.14 4.23-.02 7.19 1.47 10.92 2.48q2.13.59 3.72 1.98c2.23 1.97 5.25 3.38 6.94 5.78 1.02 1.45 2.56 2.6 3.18 4.2q1.5 3.79 3.19 7.86.93 2.27.49 5.17-.82 5.29-2.36 10.32-33.39 109.41-66.92 220.18c-.86 2.86-1.75 6.48-5.1 7.89q-5.14 2.16-9.83 4.3a2.04 2.33 89.5 0 0-1.25 1.86q.09 4.47-.07 9-.13 3.52-1.7 5.92-1.64 2.48-3.84 5t-5.76 4.52q-4.43 2.48-7.66 3.27-3.6.88-7.27 1.94a13.04 11.42 2.13 0 1-4.1.58l-66.2.03q-.34 0-.62.16-.18.1-.36.1-124.9-.01-232.75.21l-2.56.01q-144.33.07-289.78.32-2.55 0-4.63-.86c-2.04-.85-4.16-1.03-6.08-2.04q-4-2.11-8.04-5.13a1.79 1.55 1.28 0 1-.57-.84c-.31-1.34-1.33-2.33-1.49-3.64q-1.12-9.25.13-17.85.08-.6-.6-.65m7.12-5.65q-1.9 9.66-.96 18.76.06.56.46 1 1.22 1.34 2.22 2.82c2.1 3.16 9.84 6.48 13.71 6.49q111.1.29 212.61-.54 11.26-.09 22.75.03 44.92.48 89.66.59c8.4.02 17.17.37 25.82.19 22.92-.48 45.88-.22 68.83-.37q21.19-.14 73.7.69 11.9.19 22.73-.01 37.01-.69 73.83-.7 3.97 0 7.04-1.12c9.67-3.49 16.7-7.72 17.5-17.73q.4-4.92.38-9.75 5.32-1.55 10.3-3.46c5.63-2.14 7.22-7.43 8.62-12.13q21.16-71.14 42.8-144.51c6.91-23.46 14.39-46.8 21.75-70.16q2.15-6.82 1.13-11.73-.73-3.45-4.45-8.56-1.7-2.32-4.12-3.64-2.52-1.37-5.04-3.01-2.58-1.67-5.93-2.2-5.08-.81-8.97-.81-61.06-.05-122.19-.03c-2.35 0-4.68.25-7 .25q-39.48-.15-52.08.11-30.11.63-56.9.98-53.62.69-105.1 1.19-22.13.21-44.28.47-33.41.38-70.82.11-15.33-.11-42.12.01-52.19.23-112.05.07c-8.89-.02-17.73-.35-26.77-.11q-4.48.11-7.64 1.34-7.33 2.84-15.38 7.49-6.25 3.61-11.22 9.88-2.22 2.8-4.26 8.61-1.57 4.52-3.02 9.14-22.43 72.05-51.96 169.98-2.52 8.33-5.3 18.1c-1.4 4.87-3.65 18.05.88 21.75 4.21 3.43 7.35 6.86 13.23 8.53q2.9.83 8.9 1 14.15.39 28.71.99" style="fill:#fff;fill-opacity:1;stroke-width:1.06682" transform="translate(51.52 97.23)scale(.87244)"/><path d="m512.18 116.98 14.27-53.61q.27-1.01 1.28-1.27l41.48-10.59a.62.63 1.4 0 1 .75.79l-17.12 56.81a.7.7 0 0 0 .67.89l15.75-.36q1.16-.03.68 1.03-.6 1.3-1 2.71-4 13.92-8.02 27.75a.89.9 9.6 0 1-.9.64l-14.74-.68a1.2 1.21 8.1 0 0-1.23.93l-19.55 83.8a1.63 1.63 0 0 0 1.73 2l15.45-1.42q.96-.09.72.85l-7.58 29.23a1.46 1.46 0 0 1-1.43 1.1q-15.87-.08-30.65.03-5.31.04-9.73-1.05-4.61-1.13-8.57-3.46-1.64-.97-3.11-3.27-1.05-1.65-1.35-3.38-1.53-8.82-.07-14.16 12.3-44.94 25.05-90.88.06-.21-.15-.21l-4.83.1a.3.3 0 0 0-.3.22l-33.36 118.07q-.3 1.06-1.4 1.04l-67.7-.98a1.42 1.38 63 0 1-.84-.29l-8.06-6q-.58-.43-.76-1.13c-1.13-4.35-2.97-7.93-2.84-12.69q.2-7.98 1.58-13.18l29.78-113.51a.66.67 7.4 0 1 .64-.5l38.84.53q1.29.02.96 1.27l-29.37 110.3q-.52 1.95-.47 3.26.07 1.87.72 3.23a1.9 1.9 0 0 0 3.42.01 133 133 0 0 0 8.43-22.75q13.3-48.1 26.66-95.72.15-.51.68-.51l40.6.29q.8.01.6.78l-1.06 3.78q-.25.86.64.78 1.62-.16 3.23.28 1.24.34 1.58-.9m2.89 18.27a.22.22 0 0 1 .22.27q-11.55 43.06-23.08 86.4-.9 3.32-1.47 6.77c-.81 4.74-3.3 15.01 1.3 18.5q1.86 1.4 3.99 1.94c4.39 1.11 8.46 2.34 13.1 2.58q9.95.53 19.85-1.24.63-.11.85-.71l4.42-11.96a.5.5 0 0 0-.44-.67q-5.84-.31-11.61-.69-2.27-.15-4.38-1.02-.5-.2-.73-.67-2.02-3.94-1.26-6.87 11.05-42.9 22.29-86.86 1.04-4.08 2.23-8.37a.87.89 10.5 0 1 .9-.64l15.2 1.33q.58.06.7-.51l2.4-10.72q.14-.64-.52-.66l-15.3-.59a.62.63 9.2 0 1-.56-.8l15.68-54.94q.22-.75-.53-.51l-24.52 8a1.43 1.45 88.7 0 0-.93.96l-14.07 48.1q-.16.57-.75.54l-12.51-.5q-.58-.02-.7.55l-2.4 12.71q-.1.54.46.53zM422.6 252.07q19.16.27 38.2.66a.6.6 0 0 0 .59-.43l37.47-131.22a.4.4 0 0 0-.38-.5l-25.73-.34q-.66-.01-.82.63-12.16 46.85-24.56 93.09-2.06 7.68-6.65 19.81-.56 1.47-1.6 2.2c-2.63 1.88-9.5 1.07-13.28.59-3.75-.46-5.61-4.09-5.47-7.55q.07-1.74.39-2.95 12.9-48.29 25.49-96.26 1.06-4.06 2.03-8.2.1-.45-.36-.47l-23.9-.95q-.58-.03-.73.54-14.84 55.01-28.02 104.77-2.6 9.8.38 17.54 1.5 3.94 5.93 7.22 1.85 1.38 4.84 1.47 8.06.24 16.18.35M282.08 54.64l-54.72 204.08a.5.5 0 0 1-.47.36l-40.62.29a.5.5 0 0 1-.47-.62l54.39-204.03a.5.5 0 0 1 .47-.36l40.95-.33a.5.5 0 0 1 .47.61m-9.22 8.99a.63.63 0 0 0-.62-.8l-23.97.34a.6.6 0 0 0-.6.47l-50.08 189.18a.63.63 0 0 0 .62.79l22-.33a.6.6 0 0 0 .6-.47zm-154.84 73.09-7.28 35.38a.6.6 0 0 1-.57.46L64 172.6a.6.6 0 0 0-.56.43l-22.9 86.29a.6.6 0 0 1-.58.43l-43.98-.92a.58.58 0 0 1-.55-.73l53.1-202.86a.6.6 0 0 1 .57-.43l94.9-.01a.58.58 0 0 1 .57.73L134.1 94.67a.6.6 0 0 1-.57.43l-47.21-.55a.6.6 0 0 0-.57.44l-10.1 40.45a.58.58 0 0 0 .57.72l41.23-.14a.58.58 0 0 1 .57.7m-52.33 7.33 15.27-55.83q.14-.48.64-.48l48 .3q.65 0 .8-.62l5.89-23.39a.35.35 6.6 0 0-.34-.42l-80.76-.31q-.58 0-.73.56L3.92 253.06a.61.6 8.3 0 0 .57.76l32.03.82q.69.01.86-.65l22.47-86.66q.13-.5.64-.5l45.93-.46q.54-.01.66-.54l4.62-21.13q.13-.57-.46-.51-.15.01-.3.08-.18.09-.41.1-22.14.03-44.6-.01-.32 0-.24-.31m167.95 114.56 53.8-203.39a.6.6 0 0 1 .57-.43l39.48.45a.58.58 0 0 1 .56.73l-52.32 202.61a.6.6 0 0 1-.56.43l-40.96.32a.58.58 0 0 1-.57-.72m11.99-5.56a.37.37 0 0 0 .37.46l24.13-.61a.4.4 0 0 0 .35-.28L318.8 64.35a.37.37 0 0 0-.35-.46l-24.2-.57a.4.4 0 0 0-.35.28zM386 113.39q-.32.67.27 1.11c4.48 3.33 9.62 6.56 13.1 10.94q1.54 1.93 1.8 4.68.52 5.5-.21 9.56-1.47 8.31-2.83 17.02-1.43 9.19-3.53 16.75c-3.46 12.42-6.16 25.57-10.1 37.79q-2.82 8.74-5.95 17.89c-1.33 3.91-4.53 8.02-7.05 11.84q-1.9 2.86-4.73 4.83-7.62 5.27-14.64 8.47c-4.13 1.89-8.44 2.57-12.91 3.54q-2.4.52-5.17.47-9.86-.19-19.31-1.76-.96-.16-2.42 1.04-6.2 5.08-12.1 9.97-1.24 1.04-.7-.49l4.29-11.8a1 1 0 0 0-.28-1.09q-3.17-2.8-6.44-5.33-2.35-1.82-3.84-4.3c-1.18-1.96-3.01-3.89-3.17-6.29q-.43-6.41-.3-11.49.13-5.23 1.85-11.47 8.54-31.03 17.42-63.81c1.38-5.12 3.29-9.7 5.02-14.71q1.33-3.83 3.38-6.22 8.64-10 17.47-14.53 3.8-1.95 12.18-4.91 3.52-1.24 6.42-1.36 3.7-.15 7.35-.42c5.07-.38 10.27.32 15.33.81a2.73 2.71 27.8 0 0 2-.61l14.73-12.2q1.49-1.23.64.5zm-33.24 76.87q1.26 0 .54 1.03-20.77 30.07-42.33 60.64-.03.05 0 .08l.22.16q.05.05.1-.01l63.93-72.45q1.09-1.24-.55-1.27l-35.48-.74a.62.62 0 0 1-.5-.96l38.95-59.54q.32-.49-.2-.21-.24.14-.41.36-2.88 3.75-6.52 8.08-28.23 33.58-53.6 64.45a.36.36 0 0 0 .28.59zm-42.46 3.32q-.88.01-.31-.66l62.67-73.67a.43.43 0 0 0-.31-.71q-5.98-.2-11.3-.57c-2.84-.2-5.58.34-8.4.56-4.07.33-9.74 1.98-12.67 4.1q-4.16 3-8.66 6.14-2.96 2.06-5.3 5.24c-4.43 6-7.03 12.93-9.03 19.95q-8.63 30.18-17.22 60.38-3.25 11.42-1.85 23.71.4 3.56 2.44 5.27 3.4 2.86 7.32 5.82a.96.96 0 0 0 1.37-.21l38.74-55.4a.42.42 0 0 0-.35-.66zm72.56-17.94q.52.04.18.44l-64.14 74.44a.4.4 0 0 0 .15.65c2.13.9 4.36 1.97 6.79 1.78q7.99-.62 14.94-1.85c3.37-.6 6.63-2.33 9.8-3.66 4.5-1.87 9.49-4.7 13.05-7.99q5.59-5.15 8.23-14.29 6.94-23.99 14.89-47.51 1.84-5.44 2.6-10.87 2.36-16.88 4.2-32.96a1.68 1.76 34.2 0 0-.15-.96q-1.14-2.32-2.18-4.72c-1.82-4.18-6.23-7.2-10.16-9.35q-.45-.25-.74.18L344 174.13a.31.31 0 0 0 .25.48q17.47.32 33.96.81 2.24.06 4.65.22M141.8 256.48q-3.74 1.16-7.2 2.39-3.63 1.29-7.36 1.5-8.18.46-17.04-.34-2.46-.22-4.81-1.62c-4.27-2.52-6.55-5.44-9.18-9.43q-.23-.36-.18-.79 1.8-14.26 3.48-29.17c.79-7.04 3.28-13.49 5.27-20.15q1.08-3.61 2.68-6.84c1.52-3.06 2.68-6.42 4.74-9.13 2.47-3.21 4.48-6.73 7.9-9.17q6.7-4.76 13.05-7.22 2.24-.86-.15-1.14l-16-1.86a.68.68 10.6 0 1-.58-.86q3.69-14.27 6.64-25.82c.87-3.41 3.68-7.5 6.3-10.15q6.76-6.86 15.44-11.3 4.1-2.09 9.75-2.74 15.55-1.78 31.78.09 10.05 1.16 14.33 4.01 7.9 5.26 8.68 15.1c.85 10.77-.85 20.56-3.78 31.66q-5.3 20.09-10.66 40.79-6.86 26.52-15.55 54.73a.62.61 8.2 0 1-.6.44l-36.37-.18a.76.76 0 0 1-.68-1.09l.57-1.18q.38-.79-.46-.53m14.9-16.14q.59-.43.38.27l-3.42 11.62a.78.78 0 0 0 .76 1l20.6-.2a1.03 1.02 5.6 0 0 1-.81q2.22-10.5 5.34-22.15 9.65-35.98 19.3-72.26.59-2.17.76-4.3.73-8.89 1.12-17.85.2-4.45-1.83-8.54-1.08-2.16-3.15-3.5-2.95-1.91-5.43-2.04-8.47-.44-17.74-.72c-6.41-.2-13.84.13-19.46 1.16-7.07 1.3-12.8 6.11-17.81 11.51-2.57 2.77-5.17 6.76-6.26 10.24q-1.95 6.24-3.57 12.82-.16.65.5.68l21.88 1q.5.02.6-.47 1.19-5.63 2.35-11.78.35-1.89 1.7-3.56 3.24-3.99 6-5.23 6.2-2.78 14.16-1.73 1.25.16 2.4 1.19.36.33.48.81c.5 2.12 1.17 4.23 1.05 6.44-.5 9.02-3.23 17.99-5.01 26.93q-.15.77-.93.77-13.4-.01-25.52.75-5.95.38-10.6 2.2-4.94 1.94-9.6 5.38c-2.52 1.87-4.28 4.61-6.3 7q-2.2 2.57-3.43 5.82c-1.86 4.9-4.13 9.64-5.54 14.63-1.22 4.33-2.54 8.78-3.17 13.07q-1.47 10.09-3.11 20.72c-.4 2.48.36 4.66.67 7.1.35 2.74 3.22 4.07 5.62 4.27q5.18.44 10.67 1.28 3.9.6 7.98-.1 5.77-.99 10.63-2.59 3.04-1.01 6.07-3.39 4.82-3.78 9.86-7.44m3.14-92.19q-.47.96-.66 1.9-1.37 6.94-2.75 14.3a.58.58 0 0 0 .56.68l9.19.16q.6.01.72-.59l4.24-22.6a.84.84 0 0 0-.93-.99q-7.37.96-10.37 7.14" style="fill:#fff;fill-opacity:1" transform="translate(51.52 97.23)scale(.87244)"/><path d="M141.4 195.49c1.22-3.58 4.78-5.37 8.27-6.55q9.13-3.06 18.7-2.57a.36.36 0 0 1 .34.44l-8.72 36.47q-.33 1.37-1.08 2.55-1.31 2.03-2.76 4.16c-1.93 2.82-4.98 5.01-7.5 7.27-1.91 1.72-5.83 2.64-8.45 2.41q-3.71-.34-7.44-.96a1.6 1.64 76.6 0 1-1-.6c-3.03-3.92-1.8-7.98-.46-12.14q4.43-13.73 10.1-30.48m18.33-.58q.28-.88.5-1.71a.5.5 0 0 0-.53-.62c-4.36.41-7.41.49-11.11 3.43q-1.57 1.25-2.32 3.7l-8.81 29.11a2.1 2.09 11.9 0 0 1.76 2.69q4.1.49 8-3.2 3.23-3.02 4.26-6.51 3.97-13.57 8.25-26.89m58.77 89.28c-1.11-.51-2.04.08-2.41 1.19q-2.51 7.57-4.87 15.17-.77 2.48.56 4.25.38.5.8.04 2.26-2.45 3.1-6.29a.57.57 0 0 1 .75-.41q1.7.63 3.84.57a.49.48 3 0 1 .5.55c-.36 2.49-1.16 8.23-3.74 9.55-1.75.89-3.37 1.78-5.42 1.42-1.2-.22-2.3.3-3.47-.06q-3.02-.9-3.83-3.59a1.75 1.73 46.5 0 1 .02-1.03l7.18-22.06c.7-2.2 2.04-5.01 4.54-5.51q3.94-.79 7.67.25.42.12.56.54c.47 1.39 1.05 2.75.54 4.24q-1.01 2.99-1.82 5.83-.21.75-1 .71l-2.7-.12q-1.11-.05-.92-1.15l.56-3.24a.77.78 17.3 0 0-.44-.85m249.95 6.93q-.11 2.97.72.12l3.89-13.35q.07-.25.34-.23l5.47.44q.2.02.13.2l-11.74 32.24q-.27.75-1 .41-.53-.27-1.11-.12-.7.17-.74-.54l-.72-13.09a.21.21 0 0 0-.41-.06l-3.72 11.25q-.38 1.17-1.61 1.12l-1.51-.06q-1.2-.05-.84-1.18l9.1-30a.7.7 16 0 1 .85-.46q1.4.4 2.7.21.66-.1.63.56zM128.7 305.39l2.97-.37q.6-.07.76-.67l1.05-4.37a2.3 2.31 25.8 0 0-.81-2.34l-4.51-3.59q-.51-.4-.61-1.04c-.2-1.2-.56-2.28-.15-3.49q1.27-3.76 2.15-7.81.25-1.17 1.23-1.71c2.2-1.25 12.89-4.96 11.7 1.2q-.67 3.45-1.6 6.65-.04.2-.25.2l-3.53-.03q-.14 0-.13-.14l.3-4.01q.05-.61-.56-.67c-3.46-.33-3.75 4.79-3.5 7.18a2 2 0 0 0 1.05 1.55l3.05 1.62a3.21 3.22 20.5 0 1 1.62 3.57q-.8 3.32-1.7 6.75c-.7 2.67-2.44 4.04-4.3 5.82-3.5 3.35-11.25-.88-9.7-5.9q.46-1.45.79-2.86.08-.32.4-.29l3.74.39q.2.02.19.23l-.28 3.54a.55.56 88.3 0 0 .63.59m49.44-10.63q-.05 2.39.68.11l5.14-15.96a1.11 1.12 13.1 0 1 1.2-.76l2.97.41q.79.11.53.86l-10.56 30.53q-.21.61-.86.61h-2.58a.54.54 0 0 1-.54-.55l.4-14.89q.06-1.6-.52-.11l-5.91 15.4q-.17.44-.64.42l-2.85-.06q-.88-.02-.6-.85l10.66-31.6q.29-.87 1.14-.53.87.36 1.85.41.82.04.8.85zm15.02 10.27a1.5 1.51 89 0 0 .89-.91l8.85-25.34a.53.55 8.1 0 1 .45-.35l5.79-.5a.16.16 0 0 1 .16.21q-4.65 12.66-9.4 25.05c-2.16 5.63-4.25 8.95-10.83 7.37-2.35-.57-4.74-3.22-3.85-5.84q4.66-13.81 8.63-26a.5.5 0 0 1 .5-.37l4.83-.05a.14.14 0 0 1 .13.18q-4.02 11.93-8 23.48-.44 1.29.24 2.77.35.77 1.6.3m288.1 1.04c3.6-.8 3.35-3.58 4.33-6.39q.22-.64-.45-.64l-.38-.01q-1.26-.01-.83-1.19l1.17-3.21q.3-.82 1.17-.76l6.29.41q.86.06.56.86-1.62 4.43-3.46 9.06c-1.1 2.72-2.86 3.71-5 5.35-2.3 1.78-6.7-.23-8.58-1.66a1.57 1.56 16.9 0 1-.61-1.13q-.14-1.97.5-3.91l6.78-20.29c1.7-5.13 7.9-5.42 12.19-3.65a1.43 1.49 88.8 0 1 .74.68q1.04 2.04.5 3.81-.77 2.61-1.48 5.76a1.25 1.25 0 0 1-1.5.94l-2.54-.59q-1.45-.32-.86-1.69.86-2.01 0-3.11a1.9 2.01 35.5 0 0-3.36.66q-2.87 7.91-5.47 16.02-.6 1.88-.53 4.03.02.82.82.65m96.95-15.06 2.62.15a.5.5 0 0 1 .44.65l-1.62 4.88a.5.5 0 0 1-.53.33l-3.2-.43a.5.5 0 0 0-.53.32l-3.02 8.17a.5.5 0 0 0 .45.66l3.79.08a.5.5 0 0 1 .45.66l-1.51 3.98a.5.5 0 0 1-.5.32l-8.78-.56a.5.5 0 0 1-.44-.63l9.3-31.08a.5.5 0 0 1 .46-.35l10.09-.36a.5.5 0 0 1 .49.63l-1.77 5.55a.5.5 0 0 1-.5.34l-3.92-.21a.5.5 0 0 0-.5.35l-1.7 5.93a.5.5 0 0 0 .44.62m-328.59-.92q.82-.02 1.67.29.7.26.55 1l-.93 4.27a.96.96 0 0 1-1.05.76l-2.96-.31q-.58-.06-.78.48l-3.18 8.48a.56.56 0 0 0 .5.76l2.73.06q.95.02.63.91l-.7 1.94q-.37 1.06-1.5 1.01l-7.24-.33q-.92-.04-.63-.91l9.86-29.77q.22-.66.9-.66h8.04q1.1 0 .84 1.08l-1.26 5.13q-.17.69-.87.56l-2.96-.54a.7.7 0 0 0-.76.46l-1.44 4.63q-.23.72.54.7m69.78 14.25a790 790 0 0 0 7.82-22.95c.86-2.69 5.52-3.32 8.1-3.29 4.32.05 6.04 3.42 4.78 7.24q-4.01 12.2-7.65 23.4-.6 1.81-2.51 1.74c-2.8-.1-12.31-1.11-10.54-6.14m15.47-19.45a1.77 1.77 0 0 0-1.17-2.22l-.07-.02a1.77 1.77 0 0 0-2.22 1.17l-5.87 18.95a1.77 1.77 0 0 0 1.17 2.21l.08.03a1.77 1.77 0 0 0 2.21-1.17zm67 20.59 3.12.3a.65.65 0 0 1 .55.85l-1.07 3.22q-.13.39-.54.36l-7.93-.65a.54.54 0 0 1-.47-.69l9.38-30.37q.13-.44.58-.3 1.87.57 4.99.35.27-.02.18.24l-9.06 26.29a.3.3 0 0 0 .27.4m15.62-1.36-1.86-.34a.9.91 22.3 0 0-.9.38l-3.83 5.63a1.22 1.21 22 0 1-1.22.51q-1.01-.18-2.05-.16-.58.02-.35-.51l13.43-31.31q.1-.26.4-.24l7.4.63q.28.02.2.28l-8.1 31.88q-.18.76-.94.55-1-.26-2.07-.18a.63.63 0 0 1-.66-.75l1.06-5.64q.1-.62-.51-.73m3.67-18.25-4.71 12.66a.27.27 0 0 0 .29.36q1.16-.15 2.15.17a.37.38 16.4 0 0 .48-.27l3.13-12.82q.2-.86-.62-.55l-.43.16a.5.5 0 0 0-.3.29m16.82 2.49q-.12 1.19.53.19l6.5-9.96a.99.96 19.7 0 1 .95-.43l3.99.57q.13.02.06.13-4.61 6.8-9.1 13.27-2.4 3.43-3.91 7.58-2.11 5.76-4.01 10.62-.1.22-.31.19l-3.48-.38q-.26-.03-.2-.28 1.8-5.79 3.74-11.54 1.07-3.17 1.07-6.61 0-6.93.19-13.29.02-.44.46-.4l4.04.37q.42.04.38.46zm21.97-9.86-10.9 30.35a.3.3 0 0 1-.32.21l-3.61-.17a.32.32 0 0 1-.3-.42l9.38-29.66a.3.3 0 0 1 .27-.22l5.15-.52a.32.32 0 0 1 .33.43m59.46 5.79q-2.01-.18-2.58 1.14-3.92 9.08-7.21 17.52-.56 1.43.34 2.57a2 1.99 57.3 0 0 2.48.55q3.06-1.56 3.1-5.81a.7.69 87.1 0 0-.77-.7q-.31.04-.6-.09-.53-.22-.38-.78l1.05-3.85q.3-1.09 1.42-.94 2.7.37 5.74.28 1.32-.04.86 1.19-1.95 5.25-4.05 10.21c-1.16 2.74-3.6 5.64-6.92 5.07q-2.32-.39-4.5-1.06a2.6 2.6 9.8 0 1-1.82-2.61c.24-5.82 2.4-11.61 3.73-17.22 1.08-4.56 4.32-11.44 9.75-11.58 2.92-.07 8-.38 7.26 4.2q-.58 3.55-2.85 8.17-.13.27-.44.22l-4.17-.63q-.13-.02-.1-.15l1.26-4.86q.2-.77-.6-.84M66.58 304.68q.24-.66-.46-.71l-2.84-.22q-.83-.06-1.14.72l-1.52 3.82a.9.9 15.6 0 1-1 .57q-1.73-.27-3.31.2-.43.12-.25-.29l13.13-29.82q.33-.76 1.16-.7l5.97.37q.53.04.4.56l-6.58 28.44q-.15.62-.77.74l-2.9.53q-.56.11-.56-.47.02-1.91.67-3.74m5.47-19.24a.35.35 0 0 0-.26-.44l-1-.23a.35.35 0 0 0-.4.21l-5.75 13.41a.35.35 0 0 0 .3.48l2.93.15a.35.35 0 0 0 .36-.26zm20.32 14.74-2.82 8.4q-.26.8-1.1.74l-2.28-.14q-.84-.05-.57-.85l9.89-29.43q.22-.65.9-.62l8.59.35a1.6 1.6 0 0 1 1.45 1.19q.54 2.25-.34 4.61-1.93 5.16-3.98 10.14c-1.45 3.53-4.91 5.26-8.78 4.97q-.73-.06-.96.64m9.04-15.24a.97.97 0 0 0-.62-1.22l-.93-.3a.97.97 0 0 0-1.22.61l-2.86 8.68a.97.97 0 0 0 .62 1.23l.93.3a.97.97 0 0 0 1.23-.61zm47.79-.63-2.1-.47q-.66-.16-.5-.82l1.03-4.08q.17-.71.9-.69l11.6.37q1.05.03.7 1.01l-1.3 3.72q-.42 1.25-1.7.95-.82-.18-1.6.06-.47.16-.62.64l-7.85 24.11q-.14.43-.6.4l-4.87-.34a.3.3 0 0 1-.27-.4l7.76-23.43q.27-.83-.58-1.03m81.54 19.77 2.3.16a.5.5 0 0 1 .46.57l-.7 4.12a.5.5 0 0 1-.54.4l-8.05-1.02a.5.5 0 0 1-.41-.63l8.78-29.04a.5.5 0 0 1 .48-.35l4.79.03a.5.5 0 0 1 .46.64l-8 24.48a.5.5 0 0 0 .43.64m53.22-9.29q1.67 2.06 1.05 4.37-1.4 5.24-2.77 10.46-.2.75-.98.65l-3.54-.46q-.74-.1-.51-.81 1.87-5.64 3.1-11.6a.7.7 0 0 0-.67-.84l-.51-.02a1.5 1.5 0 0 0-1.46 1.03l-3.76 11.3q-.07.18-.26.18l-4.56-.02q-.14 0-.1-.13l10.2-30.15a.7.7 0 0 1 .76-.48q3.5.37 7.14.53 3.96.18 3.69 4.15-.18 2.73-1.28 6.69c-.73 2.62-2.93 3.77-5.31 4.43q-.66.19-.23.72m-1.33-10.75-2.21 7.1a.7.7 0 0 0 .46.88l.2.06a2.37 2.57 17.3 0 0 3.03-1.75l1.1-3.53a2.37 2.57 17.3 0 0-1.5-3.16l-.2-.06a.7.7 0 0 0-.88.46m32.64 11.34q.77 1.09 1.09 2.36.13.55-.03 1.08l-3.22 10.87q-.18.61-.81.55l-3.14-.29a.56.56 0 0 1-.5-.7l2.98-11.22a1.34 1.34 0 0 0-.6-1.49q-.4-.24-.81-.29-1.63-.16-2.16 1.39l-3.73 10.83a.57.58 12.5 0 1-.6.38l-4.35-.42q-.26-.02-.2-.28l8.88-29.05a.7.7 7.1 0 1 .63-.48l10.06-.36q.72-.03.9.67c1.05 4.07 1.33 9.66-1.13 13.17-.8 1.14-2.05 1.51-3.12 2.32q-.54.41-.14.96m.4-8.29a1.4 1.4 0 0 0-.07-.91l-.92-2.09a1.4 1.4 0 0 0-2.64.23l-1.57 6.36a1.4 1.4 0 0 0 1.9 1.62l1.56-.64a1.4 1.4 0 0 0 .82-.95zm234.1 9.74q.09-3.13-.84-.14l-4.03 13.01q-.08.26-.34.26l-4.01.04q-.34.01-.23-.31 5.33-16.19 10.26-30.87a.37.38 10.4 0 1 .37-.26l5.52.01q.26 0 .22.25l-1.9 12.92q-.23 1.51.52.18l7.12-12.79a.97.96 12.1 0 1 .77-.49l5.29-.34q1.34-.09.93 1.19l-9.87 31.06q-.31.99-1.33.76l-2.28-.5a1.05 1.05 0 0 1-.8-1.27l2.87-11.83q.84-3.45-.97-.4l-6.68 11.23q-.95 1.61-.9-.26zm-203.83 7.76 2.3.1q.69.03.45.68-.52 1.43-.44 3.03.04.85-.8.74l-8.04-1.02q-.64-.08-.44-.69l9.28-28.03q.28-.84 1.16-.84h3.95q.67 0 .45.63l-8.43 24.59q-.26.78.56.81m13.54.09 3.48.22q.65.04.5.68l-.87 3.91a1 1 0 0 1-1.04.77l-9.67-.82a.56.56 0 0 1-.48-.73l9.79-29.64a.8.8 0 0 1 .74-.52l9.6.14q.34 0 .24.32l-1.37 4.49q-.08.28-.37.25l-3.2-.31q-.92-.09-1.22.8l-1.84 5.41q-.3.89.65.91 1.62.02 3.14.48.64.2.29.77-1.3 2.03-1.73 4.27-.14.7-.84.71l-2.84.03q-.74.01-1.01.69l-2.53 6.25q-.35.86.58.92m27.52-4.62-3.37 9.33q-.3.81-1.15.73l-3.5-.33q-.65-.06-.46-.69l9.26-29.98q.18-.57.78-.57 3.37-.01 6.88.04c3.12.05 4.88 1.19 3.66 4.63q-1.86 5.28-3.8 10.92-1.15 3.32-3.68 5.42-.4.32-.88.21-1.51-.34-3.1-.2-.47.05-.63.49m4.67-17.43-3.75 11.76a.2.2 0 0 0 .13.26l.8.26a2.37 4.79 17.7 0 0 3.72-3.85l.96-3.02a2.37 4.79 17.7 0 0-.8-5.29l-.8-.25a.2.2 0 0 0-.26.13m140.12 21.03-2.68-.19a.3.3 0 0 0-.31.17l-3.27 5.72a.3.3 0 0 1-.3.17l-3.85-.04a.33.33 0 0 1-.3-.47l13.87-30.22a.3.3 0 0 1 .3-.19l8.29-.1a.33.33 0 0 1 .33.42L536 310.16a.33.33 0 0 1-.34.25l-4.33-.19a.33.33 0 0 1-.31-.39l1.08-5.79a.33.33 0 0 0-.3-.38m5.89-18.11a.28.28 0 0 0-.3-.35l-.67.03a.3.3 0 0 0-.25.18l-5.3 12.99a.3.3 0 0 0 .2.38l2.56.44a.3.3 0 0 0 .3-.21zm-433.92 19.3c2.34-7.85 5.1-15.45 7.9-23.21 1.05-2.93 7.24-2.92 9.74-2.9 4.28.05 3.5 5.46 2.58 8.06q-3.41 9.6-6.7 18.68-1.54 4.24-5.62 5.65-.53.18-1.06.02c-3.2-.93-8.11-2.07-6.84-6.3m15.07-19.89a1.5 1.5 0 0 0-.85-1.92l-.04-.02a1.5 1.5 0 0 0-1.93.86l-7.69 20.04a1.5 1.5 0 0 0 .86 1.92l.04.02a1.5 1.5 0 0 0 1.92-.86zm142.11 19.7-3.54-.74a.3.3 0 0 0-.35.2l-2.21 6.34a.3.3 0 0 1-.33.2l-4.47-.73a.3.3 0 0 1-.22-.42l13.57-30.48a.3.3 0 0 1 .28-.18l7.73.16a.3.3 0 0 1 .28.37l-7.24 30.7a.3.3 0 0 1-.32.23l-3.5-.33a.3.3 0 0 1-.27-.35l.83-4.62a.3.3 0 0 0-.24-.35m-1.42-6.28 3.15 1.02a.2.2 0 0 0 .27-.13l.06-.18a1.5 13.42 18 0 0 2.72-13.23l-.71-.23a1.5 13.42 18 0 0-5.57 12.3l-.06.18a.2.2 0 0 0 .14.27" style="fill:#fff;fill-opacity:1" transform="translate(51.52 97.23)scale(.87244)"/></g><path fill="currentColor" d="M578.84 255.6q3.79 1.34 6.45 1.44 8.28.33 19.5-.47c6.85-.5 14.42-2.1 20.7-4.44q3.49-1.28 7.91-4.43c1.72-1.23 2.64-3.01 4.3-4.28q.56-.44.4.27c-1.25 5.25-1.95 10.44-3.13 15.71q-.87 3.89-1.88 7.63-.8 2.87-3.08 5.7c-1.09 1.36-3.33 1.96-4.9 1.96q-18 0-35.23 1.25-4.75.35-9.34 1.04c-6.89 1.05-14.08 1.8-20.83 3.44q-5.6 1.36-10.9 2.72c-2.93.75-5.67.86-8.58.21a.33.33 0 0 1-.21-.5q3.97-6.2 7.94-12.7 3.72-6.11 8.07-11.75 11.98-15.5 22.9-29.7 3.3-4.3 6.84-9.14 3.6-4.9 6.01-9.56 5.57-10.69 6.78-21.7c1.03-9.45-5.89-15.23-14.66-16.14q-6.47-.66-11.87-.1-2.3.25-4.46 1.38-5.19 2.72-10.31 5-1.14.52-2.36.35a.7.7 0 0 1-.44-1.18q6.1-6.78 13.71-11.92a41 41 0 0 1 13.12-5.53c4.15-.98 8.2-2.19 12.5-2.59 7.14-.67 13.4-.84 20.24 1.49a21 21 0 0 1 8.07 5.16c1.64 1.77 3.85 3.36 4.54 5.75 1.24 4.35 2.53 9.29 1.98 13.58-.24 1.83-.3 3.62-.9 5.4q-2.75 7.97-6.42 14.18-1.78 3-3.99 6.24-1.98 2.93-4.54 5.78-17.42 19.44-34.08 39.92-.3.38.15.53" style="fill:#fff;fill-opacity:1;stroke-width:.83461"/></svg>