<svg xmlns="http://www.w3.org/2000/svg" viewBox="0 0 264 27"><path d="M0 0h31.86v11.1h-20.7v13.47h20.7v11.46h-20.7v23.93H0zm68.08 59.96H57.23v-9.33H36.21l-6.23 9.33H17.2L59.26 0h8.83zM57.23 39.3V21.8L44.4 39.3zM72.34 0h12.58l17.75 40.31L120.55 0h12.71v59.96h-11.2V29.73l-13.85 30.23H96.88L83.54 29.73v30.23h-11.2zm269.81 0h12.59l17.75 40.31L390.36 0h12.71v59.96h-11.2V29.73l-13.85 30.23H366.7l-13.35-30.23v30.23h-11.2zM136.79 0h11.6v59.96h-11.6zm14.79 0h11.6v49.04h15.1v10.92h-26.7zm13.82 0h12.88l12.19 24.57L202.3 0h12.76l-19.21 38.14v21.82h-11.24V38.14zm112.68 16.54a30.45 30.45 0 1 0 .11 28.06l-13.8.1a19.09 19.09 0 1 1-.14-28.2z" style="fill:#fff" transform="scale(.44 .43872)"/><path d="M308.21 61.28a30.6 30.6 0 1 1 0-61.22 30.6 30.6 0 0 1 0 61.22m19.49-30.6a19.37 19.37 0 1 0-38.74 0 19.37 19.37 0 0 0 38.74 0M426.96 0a19.73 19.73 0 0 1 0 39.34l-8.77-.04v20.66h-11.24V0zm-8.77 11.54v16.27l8.77-.01a8.26 8.26 0 0 0 0-16.25zm150.42 49.2H557.5V.52l15.46-.03 8.76.01a19.73 19.73 0 0 1 5.31 38.15L600 60.75h-12.18l-18.18-31.07h-1.03zm13.1-32.45a8.27 8.27 0 0 0 0-16.25h-13.1V28.3zm-121.97 6.36v8.77a8.27 8.27 0 0 0 16.25 0l.01-8.77.03-34.13h11.52v34.13l-.01 8.77a19.73 19.73 0 0 1-39.34 0l.05-8.77-.03-34.13h11.56zm39.3 26.09h11.37V11.87h10.18V.52h-31.38v11.35h9.83zm55.52 0h-31.21V.52h31.21v11.02h-20.03v14.3h20.03v11.25h-20.03v12.53h20.03z" style="fill:#fff" transform="scale(.44 .43872)"/></svg>