<svg xmlns="http://www.w3.org/2000/svg" viewBox="0 0 3839 458.2"><path d="M686.9 117h169.3v44.5H735.8v47.3h106.1v44.5H735.8v86.1h-48.9zm202.6 0h48.9v222.3h-48.9zm96.5 0h45.1l104.2 136.9V117h48.3v222.3H1142L1034.3 198v141.3H986zm319.2-1.6h45.1l95.3 223.9h-51.1l-20.3-49.9h-94l-20.3 49.9H1210zm51.4 130.9-29.5-72.1-29.5 72.1zM1471.9 117h48.9v177.8h110.8v44.5h-159.7zm276 0h103.2c25.4 0 45.4 7 58.1 19.7 10.2 10.2 15.2 22.5 15.2 37.8v.6c0 25.1-13.3 39.1-29.2 48 25.7 9.8 41.6 24.8 41.6 54.6v.6c0 40.6-33 61-83.2 61h-105.8V117Zm92.7 89.9c21.6 0 35.2-7 35.2-23.5v-.6c0-14.6-11.4-22.9-32.1-22.9h-48.3v47zm13 89.5c21.6 0 34.6-7.6 34.6-24.1v-.6c0-14.9-11.1-24.1-36.2-24.1h-56.5v48.9h58.1Zm112.1-52.4V117h48.9v125.8c0 36.2 18.1 54.9 48 54.9s48-18.1 48-53.4V117h48.9v125.4c0 67.3-37.8 100.4-97.5 100.4-59.8 0-96.3-33.3-96.3-98.8m235.6-127H2303c28.3 0 50.2 7.9 64.8 22.5 12.4 12.4 19.1 29.9 19.1 50.8v.6c0 35.9-19.4 58.4-47.6 68.9l54.3 79.4h-57.2l-47.6-71.1h-38.4v71.1h-48.9V117Zm98.5 108c23.8 0 37.5-12.7 37.5-31.4v-.6c0-21-14.6-31.8-38.4-31.8h-48.6V225zM2423 117h45.1l104.2 136.9V117h48.3v222.3H2579L2471.3 198v141.3H2423zm406.5-1.6h45.1l95.3 223.9h-51.1l-20.3-49.9h-94l-20.3 49.9h-49.9zm51.4 130.9-29.5-72.1-29.5 72.1zM2996.2 117h48.9v177.8h110.8v44.5h-159.7zm188.6 0h90.8c53 0 85.1 31.4 85.1 76.9v.6c0 51.4-40 78.1-89.9 78.1h-37.2v66.7h-48.9V117Zm87.7 112.1c24.5 0 38.7-14.6 38.7-33.7v-.6c0-21.9-15.2-33.7-39.7-33.7h-37.8v68zM3389 117h48.9v88h90.2v-88h48.9v222.3h-48.9v-89.2h-90.2v89.2H3389zm309.6-1.6h45.1l95.3 223.9h-51.1l-20.3-49.9h-94l-20.3 49.9h-49.9zm51.5 130.9-29.5-72.1-29.5 72.1zM433.7 0H0v58.4l352.8 124.1H554v-62.3C554 53.8 500.1 0 433.7 0m-97 193-152-53.4v218.2L117.1 382v76.2h268.6V330h-49zm16.1 120.8H554V198.7H352.8z" class="st0" style="fill:#fff"/></svg>