<svg xmlns="http://www.w3.org/2000/svg" viewBox="0 0 3839 513.2"><path d="M485.8 0H0v65.4l395.2 139h225.3v-69.8C620.5 60.3 560.2 0 485.8 0M377.1 216.2l-170.2-59.9v244.4l-75.7 27.1v85.4H432V369.6h-54.9zm18.1 135.3h225.3v-129H395.2zm428.9-170.7v53h118.8v49.8H824.1V380h-54.8V131h189.6v49.8zM996.3 380V131h54.8v249zm282.7 0-120.6-158.3V380h-54.1V131h50.5l116.7 153.3V131h54.1v249zm282.8 0-22.8-55.8h-105.3L1411 380h-55.8l106.7-250.8h50.5L1619.1 380zm-75.4-184.9-33.1 80.7h66.2zM1648.6 380V131h54.8v199.2h124.1V380zm427.6 0h-118.4V131h115.6c50.9 0 82.2 25.3 82.2 64.4v.7c0 28.1-14.9 43.8-32.7 53.7 28.8 11 46.6 27.7 46.6 61.2v.7c-.2 45.6-37.1 68.3-93.3 68.3m24.9-175.3c0-16.4-12.8-25.6-35.9-25.6h-54.1v52.6h50.5c24.2 0 39.5-7.8 39.5-26.3zm13.8 99.6c0-16.7-12.4-27-40.6-27H2011V332h65.1c24.2 0 38.8-8.5 38.8-27zm194.6 79.6c-66.9 0-107.8-37.3-107.8-110.6V131h54.8v140.9c0 40.5 20.3 61.5 53.7 61.5s53.7-20.3 53.7-59.8V131h54.8v140.5c0 75.5-42.3 112.4-109.2 112.4m307.3-3.9-53.4-79.7h-43V380h-54.8V131h113.8c58.7 0 93.9 30.9 93.9 82.2v.7c0 40.2-21.7 65.4-53.4 77.2l60.8 88.9zm1.1-163.9c0-23.5-16.4-35.6-43-35.6h-54.4V252h55.5c26.7 0 42-14.2 42-35.2v-.7ZM2888.6 380 2768 221.7V380h-54.1V131h50.5l116.7 153.3V131h54.1v249zm369.9 0-120.6-158.3V380h-54.1V131h50.5L3251 284.4V131h54.1v249zm97.5 0V131h187.8v48.7h-133.4v50.5h117.4V279h-117.4v52.3h135.2V380zm350.3 4.3c-76.8 0-132-57.3-132-128.1v-.7c0-70.8 55.8-128.8 132.7-128.8 76.8 0 132 57.3 132 128.1v.7c0 70.8-55.8 128.8-132.7 128.8m75.4-128.8c0-42.7-31.3-78.3-75.4-78.3s-74.7 34.9-74.7 77.5v.7c0 42.7 31.3 78.3 75.4 78.3s74.7-34.9 74.7-77.5z" class="st89" style="fill:#fff"/></svg>