<svg xmlns="http://www.w3.org/2000/svg" viewBox="0 0 264 47"><g transform="scale(.44 .44064)"><path d="M170.92 37.23a14 14 0 0 1 3.96 3.96 14 14 0 0 1 1.72 5.67V93.6q0 4.26-1.57 6.64a15 15 0 0 1-3.5 3.8 13 13 0 0 1-5.06 2.23h-31.53V35.2h28.48q4.88.21 7.5 2.03m2.24 9.43a12 12 0 0 0-1.32-4.06 8.5 8.5 0 0 0-2.54-2.78q-1.72-1.27-4.66-1.07l-26.45.1v64.16h26.86q2.12-.4 3.85-1.41a10 10 0 0 0 2.73-2.44 8 8 0 0 0 1.53-4.46zm-14.9 4.1a7 7 0 0 1 1.41 1.88q.5 1.12.61 2.53v29.4a10 10 0 0 1-.45 3.9 4.5 4.5 0 0 1-1.37 1.98q-.92.81-2.03.9h-6.08l-.2-41.65h5.47q1.73.2 2.63 1.06m-1.22 4.41a3.4 3.4 0 0 0-.6-1.32q-.92-1.11-3.15-.6v34.87q.9.3 1.72.2.71-.1 1.27-.6.55-.51.76-1.94zm43.7-19.67v70.56h-19.67V35.5zm-3.45 4.06H184.3v62.65h12.97zm29.29 19.06v-2.94q.1-2.02-.9-2.43-.42-.21-1.12 0-.82 0-1.17.35-.36.36-.45.86-.21.5 0 1.22v3.85l15.6 10.14a16 16 0 0 1 4.51 3.44 10.5 10.5 0 0 1 2.89 7.3v15.5a10 10 0 0 1-1.72 5.43 11 11 0 0 1-3.45 3.2 17 17 0 0 1-4.96 1.92h-20.48q-3.85-.09-6.03-1.92a12 12 0 0 1-3.2-3.85 16 16 0 0 1-1.51-5.48V72.1l18.45 11.25v3.96q0 .9.25 1.36t.66.66q.4.3 1.01.3 1.52-.1 1.73-1.21.1-.4-.1-1.11v-4.67l-13.49-8.1a18 18 0 0 1-5.32-4.11 20 20 0 0 1-2.58-3.9 10 10 0 0 1-.91-4.06V45.85q.2-3.85 1.82-5.98a10.6 10.6 0 0 1 3.65-3.14 14 14 0 0 1 5.17-1.32h18.14q4.65.2 7.2 1.73a12 12 0 0 1 3.85 3.44 13 13 0 0 1 1.82 4.97v25.84zm-1.62-8.82q1.62.2 2.49.76.86.57 1.36 1.27.51.81.71 1.82v2.94l13.18 7.9-.2-17.32a6.5 6.5 0 0 0-1.17-4.31 10 10 0 0 0-6.94-4H214.7a6.6 6.6 0 0 0-3.65 1.26 9 9 0 0 0-2.02 2.18 10 10 0 0 0-1.12 3.04v16.42q-.1 2.03.81 3.55.92 1.53 2.03 2.63 1.22 1.32 2.94 2.34l16.62 10.74v6.59q0 1.92-.8 2.99a5 5 0 0 1-1.83 1.57 8 8 0 0 1-2.64.81 7 7 0 0 1-2.94-.86 5 5 0 0 1-1.52-1.47q-.6-.9-.8-2.13v-3.24l-11.87-7.1-.2 16.63q.1 2.94 1.27 4.5a9 9 0 0 0 2.58 2.4 9 9 0 0 0 3.75 1.1h19.77q2.93-.1 4.4-1.31a8 8 0 0 0 2.18-2.64q.81-1.72.82-3.85v-15.1a4 4 0 0 0-.61-2.44 11 11 0 0 0-1.62-2.13 26 26 0 0 0-2.44-2.13l-18.04-11.65v-7.5q.1-1.73.96-2.54a6 6 0 0 1 1.78-1.21 9 9 0 0 1 2.43-.5m64.48 12.26-7.3 8.4 7.3 8.93v26.66h-18.75V86.39l-2.64-2.43v22.3h-18.95V35.4h18.95v22.3l2.64-3.15V35.41h18.75zm-3.25-22.6h-11.75l-.1 16.92-9.53 9.73-.41-27.06h-11.86v63.04h11.76V75.95l9.22 8.72v17.53h12.47V79.8l-8-9.32 8.2-9.53zm58.29 19.15v-2.94q.1-2.02-.91-2.43-.41-.21-1.12 0-.81 0-1.17.35-.34.36-.45.86-.21.5 0 1.22v3.85l15.6 10.14a16 16 0 0 1 4.52 3.44 12 12 0 0 1 2.18 3.45q.7 1.83.7 3.85v15.5a10 10 0 0 1-1.72 5.43 11 11 0 0 1-3.44 3.2 17 17 0 0 1-4.97 1.92h-20.47q-3.85-.09-6.04-1.92a12 12 0 0 1-3.19-3.85 16 16 0 0 1-1.52-5.48V72.1l18.45 11.25v3.96q0 .9.25 1.36.26.46.66.66.4.3 1.01.3 1.53-.1 1.73-1.21.1-.4-.1-1.11v-4.67l-13.48-8.1a18 18 0 0 1-5.33-4.11 20 20 0 0 1-2.58-3.9 10 10 0 0 1-.91-4.06V45.85q.2-3.85 1.82-5.98a10.6 10.6 0 0 1 3.65-3.14 14 14 0 0 1 5.17-1.32h18.14q4.67.2 7.2 1.73a12 12 0 0 1 3.86 3.44 13 13 0 0 1 1.82 4.97v25.84zm-1.62-8.82q1.61.2 2.48.76t1.37 1.27q.5.81.7 1.82v2.94l13.18 7.9-.2-17.32a6.5 6.5 0 0 0-1.16-4.31 10 10 0 0 0-6.95-4H332.6a6.7 6.7 0 0 0-3.65 1.26 9 9 0 0 0-2.03 2.18 10 10 0 0 0-1.11 3.04v16.42q-.1 2.03.8 3.55.92 1.53 2.03 2.63 1.23 1.32 2.94 2.34l16.63 10.74v6.59q0 1.92-.81 2.99a5 5 0 0 1-1.83 1.57q-1.11.6-2.63.81a7 7 0 0 1-2.94-.86 5 5 0 0 1-1.52-1.47q-.62-.9-.81-2.13v-3.24l-11.87-7.1-.2 16.63q.11 2.94 1.27 4.5a9 9 0 0 0 2.58 2.4 9 9 0 0 0 3.75 1.1h19.77q2.94-.1 4.41-1.31a8 8 0 0 0 2.18-2.64 9 9 0 0 0 .81-3.85v-15.1a4 4 0 0 0-.6-2.44 11 11 0 0 0-1.63-2.13 26 26 0 0 0-2.43-2.13l-18.04-11.65v-7.5q.09-1.73.96-2.54a6 6 0 0 1 1.77-1.21 9 9 0 0 1 2.44-.5m66.69-14.2v60.21q-.1 3.55-1.47 5.63a11 11 0 0 1-3.09 3.19 13 13 0 0 1-4.46 1.72h-29.9V89.13h19.05v-3.35H376.7q-3.75-.2-5.68-1.82a9 9 0 0 1-2.73-3.65 13 13 0 0 1-1.02-5.17V35.61h19.47v32.33h3.34V35.61zm-3.34 3.75h-12.27v27.68q-.1 1.31-.7 2.32-.52.91-1.58 1.63-1.06.7-3.09.8a6 6 0 0 1-2.64-.3 4.5 4.5 0 0 1-1.82-1.41q-.81-1.02-.91-3.25V39.36h-11.86v35.99q.1 2.03.91 3.65.7 1.41 2.18 2.58 1.47 1.17 4.3 1.17h15.11V88a5.5 5.5 0 0 1-.91 2.33 6 6 0 0 1-1.83 1.53q-1.22.7-3.24.7h-13.58v10.04h25.85a7 7 0 0 0 3.04-1.01 7 7 0 0 0 2.07-2.13q.97-1.42.97-3.85zm29.09 19.26v-2.94q.1-2.02-.91-2.43-.41-.21-1.12 0-.81 0-1.17.35-.35.36-.45.86-.21.5 0 1.22v3.85l15.6 10.14a16 16 0 0 1 4.52 3.44 12 12 0 0 1 2.18 3.45q.7 1.83.7 3.85v15.5a10 10 0 0 1-1.72 5.43 11 11 0 0 1-3.44 3.2 17 17 0 0 1-4.97 1.92h-20.47q-3.86-.09-6.03-1.92a12 12 0 0 1-3.2-3.85 16 16 0 0 1-1.52-5.48V72.1l18.45 11.25v3.96q0 .9.25 1.36t.66.66q.4.3 1.02.3 1.5-.1 1.72-1.21.1-.4-.1-1.11v-4.67l-13.48-8.1a18 18 0 0 1-5.33-4.11 20 20 0 0 1-2.58-3.9 10 10 0 0 1-.91-4.06V45.85q.2-3.85 1.82-5.98a10.6 10.6 0 0 1 3.65-3.14 14 14 0 0 1 5.17-1.32h18.14q4.67.2 7.2 1.73a12 12 0 0 1 3.85 3.44 13 13 0 0 1 1.83 4.97v25.84zm-1.62-8.82q1.61.2 2.48.76t1.37 1.27q.5.81.7 1.82v2.94l13.19 7.9-.2-17.32a6.5 6.5 0 0 0-1.17-4.31 10 10 0 0 0-6.95-4h-19.66a6.6 6.6 0 0 0-3.65 1.26 9 9 0 0 0-2.03 2.18 10 10 0 0 0-1.11 3.04v16.42a6 6 0 0 0 .81 3.55q.9 1.53 2.02 2.63 1.23 1.32 2.95 2.34l16.62 10.74v6.59q0 1.92-.81 2.99a5 5 0 0 1-1.83 1.57q-1.11.6-2.63.81a7 7 0 0 1-2.94-.86 5 5 0 0 1-1.52-1.47q-.61-.9-.82-2.13v-3.24l-11.86-7.1-.2 16.63q.11 2.94 1.27 4.5a9 9 0 0 0 2.59 2.4q1.61.9 3.75 1.1h19.76q2.94-.1 4.4-1.31a8 8 0 0 0 2.2-2.64q.8-1.72.8-3.85v-15.1a4 4 0 0 0-.6-2.44 11 11 0 0 0-1.63-2.13 25 25 0 0 0-2.43-2.13l-18.04-11.65v-7.5q.09-1.73.96-2.54a6 6 0 0 1 1.77-1.21 9 9 0 0 1 2.44-.5m61.52-13.99v18.44h-8.72v52H466v-52h-8.31V35.41zm-3.95 3.64h-29.9v10.75h8.51v52.4h12.37v-52.1h9.02zm27.07 14.6v8.2h12.97v18.46h-13.38v7.8h13.38v18.05l-32.94-.2V35.4h33.34v18.65zm-3.96 11.96V50.3h13.38V39.56h-25.64v64.06h25.64V92.37h-13.58v-15.4h13.78V66.02zM596.24 38a10 10 0 0 1 2.84 3.5q1.02 2.11.91 4.65v60.51h-19.26V55.78q-.1-1.1-.8-1.42-.42-.1-.82-.1-.6 0-.97.3a3 3 0 0 0-.55.61q-.3.41-.3.82v50.47h-19.06V56.1q0-1.12-.81-1.73-.4-.3-.81-.4-.72 0-1.12.3t-.6.71q-.3.4-.3 1.01v50.18h-18.46V35.5h23.62a10 10 0 0 1 3.9.35q1.68.57 2.89 1.37 1.32.91 2.43 2.13a5 5 0 0 1 1.52-1.77q.92-.66 1.83-1.07 1.01-.4 2.13-.7h15.91q3.86.5 5.88 2.17m.2 7.65a7 7 0 0 0-.8-3.05 6 6 0 0 0-2.09-2.08q-1.47-.95-4.1-.96h-13.89q-1.62.1-3.04.81-1.22.61-2.48 1.83a8 8 0 0 0-1.98 3.24 15 15 0 0 0-1.92-3.34 13 13 0 0 0-2.74-2.23 7.4 7.4 0 0 0-4.26-.91l-18.95.2v63.45h11.25V55.58q-.1-1.43.5-2.53.51-1.02 1.68-1.83 1.16-.81 3.5-.81 1.2 0 2.33.6.8.5 1.57 1.78.75 1.27.76 3.7v46.12h11.96V55.58q0-1.22.6-2.33a5 5 0 0 1 1.63-1.67q1.11-.77 3.35-.77 1.2-.09 2.32.3.91.42 1.68 1.43.75 1 .76 3.24v46.83h12.36zM135.15 0h12.41v4.33h-8.06v5.24h8.06v4.47h-8.06v9.33h-4.35zm26.53 23.37h-4.23v-3.64h-8.2l-2.42 3.64h-4.98L158.24 0h3.44zm-4.23-8.06V8.5l-5 6.82zM163.34 0h4.9l6.92 15.71L182.12 0h4.96v23.37h-4.37V11.58l-5.39 11.79h-4.42l-5.2-11.79v11.79h-4.36zm105.13 0h4.9l6.92 15.71L287.25 0h4.96v23.37h-4.37V11.58l-5.39 11.79h-4.42l-5.2-11.79v11.79h-4.36zm-80.02 0h4.52v23.37h-4.52zm5.76 0h4.52v19.11h5.89v4.26h-10.41zm5.39 0h5.02l4.74 9.57L213.97 0h4.98l-7.49 14.86v8.51h-4.38v-8.51zm43.9 6.45a11.87 11.87 0 1 0 .05 10.93l-5.38.04a7.42 7.42 0 0 1-12.48-5.47 7.44 7.44 0 0 1 12.42-5.52z" style="fill-opacity:1;fill:#fff"/><path d="M255.24 23.88a11.93 11.93 0 1 1 0-23.85 11.93 11.93 0 0 1 0 23.85m7.6-11.93a7.55 7.55 0 1 0-15.1 0 7.55 7.55 0 0 0 15.1 0M301.51 0a7.69 7.69 0 0 1 0 15.33l-3.41-.02v8.06h-4.39V0zm-3.41 4.5v6.33h3.41a3.22 3.22 0 0 0 0-6.33zm58.6 19.17h-4.33V.2h9.44a7.69 7.69 0 0 1 2.07 14.86l5.06 8.6h-4.75l-7.08-12.1h-.4zm5.11-12.65a3.22 3.22 0 0 0 0-6.33h-5.1v6.34zm-47.53 2.48v3.42a3.22 3.22 0 0 0 6.34 0V13.5l.01-13.3h4.5v13.3l-.01 3.42a7.69 7.69 0 0 1-15.33 0l.02-3.42L309.8.2h4.5zm15.32 10.17h4.43V4.62H338V.2h-12.23v4.42h3.83zm21.63 0h-12.16V.2h12.16v4.3h-7.8v5.57h7.8v4.38h-7.8v4.88h7.8zM3.16 94.52c0-4.8 2.78-8.94 6.82-10.91V77.1a19.46 19.46 0 0 1 0-34V13.7C9.98 6.26 16 .23 23.45.23h72.29c7.44 0 13.47 6.03 13.47 13.47v29.4a19.46 19.46 0 0 1 0 34v6.5a12.14 12.14 0 0 1-5.32 23.06H69.13V104a9.5 9.5 0 0 0-9.47-9.48V89.2a14.8 14.8 0 0 1 14.56 12.14h29.67a6.82 6.82 0 0 0 1.93-13.36l-1.1-.32-.83-1.64V74.93l.72-1.53.9-.4a14.14 14.14 0 0 0 .07-25.78l-.19-.09-1.5-.99V13.7c0-4.5-3.65-8.14-8.15-8.14H23.45a8.16 8.16 0 0 0-8.15 8.14v32.45l-1.2.8-.3.2-.2.08A14.14 14.14 0 0 0 13.68 73h.01l.9.4.72 1.54v11.08l-.83 1.64-1.1.32a6.83 6.83 0 0 0 1.93 13.36h29.67A14.8 14.8 0 0 1 59.54 89.2h.1v5.32h-.1a9.5 9.5 0 0 0-9.48 9.48v2.66H15.3c-6.7 0-12.14-5.43-12.14-12.14" style="fill-opacity:1;fill:#fff"/><path d="M17.57 40.53a20.01 20.01 0 1 1 40.03 0 20.02 20.02 0 0 1-40.03 0m3.33 0A16.7 16.7 0 0 0 37.59 57.2a16.7 16.7 0 0 0 16.68-16.69A16.7 16.7 0 0 0 37.6 23.85a16.7 16.7 0 0 0-16.7 16.67" style="fill-opacity:1;fill:#fff"/><circle cx="22.25" cy="54.79" r="1.55" style="fill-opacity:1;fill:#fff" transform="translate(-16.24 -123.8)scale(3.0003)"/><path d="M61.6 40.53a20.01 20.01 0 1 1 40.02 0 20.01 20.01 0 1 1-40.02 0m20 16.68a16.7 16.7 0 0 0 16.7-16.68 16.7 16.7 0 0 0-16.7-16.69 16.7 16.7 0 0 0-16.68 16.69A16.7 16.7 0 0 0 81.6 57.2" style="fill-opacity:1;fill:#fff"/><circle cx="28.3" cy="54.79" r="1.55" style="fill-opacity:1;fill:#fff" transform="translate(-16.24 -123.8)scale(3.0003)"/></g></svg>