<svg xmlns="http://www.w3.org/2000/svg" xmlns:xlink="http://www.w3.org/1999/xlink" xml:space="preserve" viewBox="0 0 808.2 161.14"><title>Final Fantasy wordmark</title><g style="fill:#fff" transform="matrix(1.0718 0 0 1.06 -33.88 183.72)"><defs><path id="a" d="M784.1 8.89v3.64c-4.07-1.01-5.7 5.2-3.96 18.46l4.92 37.65 4.44-37.2c.5-4.22.73-7.48.88-9.3q.76-8.66-3.83-9.6V8.89h19.27v3.96c-3.26.2-4.55 1.66-4.9 4.27L789.86 99.2v45.18q-.3 7.62 4.59 8.22v3.98h-22v-4.29q4.26-.29 4.27-7.91V93.7l-8-67.34c-.91-7.77-4.13-13.02-6.9-14.1l-.33-3.36zm-82.83 95.2 16.5-8.54c-2.03 31.75-1.48 48.4 1.67 50.05q4.75 2.43 5.35-2.44a124 124 0 0 0 0-36.94q-.91-9.44-3.65-13.44Q704 66.25 701.59 53.12l-.32-30.2q3.37-15.89 18.32-15.88 16.81.31 17.73 21.38l.91 19.53-15.28 9.76q.3-18.32 0-34.19 0-7.62-3.52-7.78-3.5-.15-3.49 7.18l.29 30.52q15.59 24.99 21.1 38.44 5.47 13.44 3.95 38.46-1.5 27.76-19.87 27.45-17.69-.88-20.15-24.48v-29.2zm-46.39 53.1v-2.14q3.67-3.67 2.45-26.24h-7.64q-1.85 22.58 2.14 26.24v2.14h-19.87v-2.14q2.45-.3 4.12-1.97 1.68-1.69 10.24-146.3h15.88q11.3 144.65 12.54 146.3a5 5 0 0 0 3.66 1.97v2.14zm-4.75-41.51h5.97l-3.05-49.42zm-83.8-109.9h42.76V59.8h-5.19q-1.52-32.66-8.55-38.77v125.1q0 7.34 6.73 9.17v2.13h-28.42v-2.13q7.3-1.83 6.72-9.48V21.03q-7.66 5.82-9.78 38.77h-4.27zm-66.55 11.3q.9-5.49-4.9-6.72V6.4h21.69l11.92 85.13V15.85q0-4.55-3.68-5.18V6.4h18.64v3.96q-3.97.94-3.66 12.8v133.7h-14.37l-14.68-95.8v85.76q-.9 6.68 4.6 6.4v3.65h-20.78l.3-3.37q5.2-.58 4.91-7V17.1zm-51.6 140.1v-2.14q3.67-3.67 2.45-26.24H443q-1.84 22.58 2.14 26.24v2.14h-19.87v-2.14q2.45-.3 4.12-1.97 1.67-1.68 10.25-146.3h15.88q11.29 144.65 12.54 146.3a5 5 0 0 0 3.65 1.97v2.14zm-4.74-41.51h5.97l-3.06-49.42zm-82.3-100.1q.01-4.87-5.5-4.87V6.74h46.76v50.05h-4.28q-2.15-23.83-6.72-32.52-4.6-8.68-13.74-8.98v51.87q8.24 2.74 8.55-22.9l4.28.32v62.55h-4.28q0-24.73-8.55-26.54v65c0 5.88 1.4 8.12 4.28 6.7l.3 4.57h-25.67l-.31-4.58q5.2 1.84 4.9-6.4V15.58zm-95.5 3.67q-.3-7.92-6.1-8.23V6.43h27.8v4.27q-6.1.61-6.1 8.54l.08 128.3q11.54-.77 17.94-52.02h3.99v61.63h-44.02v-4.27c4.07-.42 6.2-2.83 6.41-7.32V19.26zm-51.8 137.9V155q3.67-3.66 2.45-26.24h-7.64q-1.85 22.58 2.14 26.24v2.14h-19.87V155q2.45-.3 4.12-1.97 1.68-1.68 10.25-146.3h15.88q11.29 144.65 12.54 146.3a5 5 0 0 0 3.65 1.97v2.14zm-4.75-41.51h5.97l-3.05-49.42zm-83.73-98.56c.6-3.67-1.04-5.88-4.9-6.72V6.4h21.7l11.92 85.13V15.84q0-4.55-3.68-5.18V6.4h18.64v3.96q-3.96.94-3.65 12.8v133.7h-14.37l-14.68-95.8v85.76q-.9 6.68 4.59 6.4v3.65h-20.78l.3-3.37q5.2-.58 4.91-6.99V17.1Zm-50.92-6.4V6.38h23.52l-.28 4.27q-4.3.63-4.28 6.1v127.6q.13 9 4.88 8.54v4.26H74.45v-4.26q4.27.61 4.27-8.54V16.76q0-5.47-4.27-6.1zm-63.12 4.86q0-4.87-5.5-4.86V6.7h46.75v50.05h-4.28q-2.15-23.83-6.72-32.52-4.59-8.68-13.74-8.99v51.87q8.24 2.74 8.55-22.89l4.28.32v62.55h-4.28q0-24.73-8.55-26.54v64.99q-.02 8.84 4.27 6.7l.32 4.58H6.74l-.32-4.58q5.21 1.82 4.9-6.4z"/></defs><use xlink:href="#a" width="811.63" height="163.6" style="fill:#fff" transform="translate(2.72 -179.1)"/></g></svg>