<?xml version="1.0" encoding="UTF-8" standalone="no"?><svg viewBox="0 0 1078.9 618.7" version="1.1" id="svg2" xmlns="http://www.w3.org/2000/svg" xmlns:svg="http://www.w3.org/2000/svg"><path d="m 288.66398,517.4033 v -49.9178 l 8.56223,-0.85622 c 41.09871,-4.10987 60.76615,-12.99747 87.1207,-39.35201 30.73841,-30.73841 51.32201,-69.26845 85.40825,-159.86541 22.56148,-59.95274 41.25282,-96.34222 70.55278,-137.32105 25.55826,-35.764439 66.07473,-64.747589 111.44599,-79.72293 22.34742,-7.380643 52.76046,-12.791972 71.87136,-12.791972 h 7.33783 v 99.912672 l -8.56223,0.75347 c -22.66422,1.96931 -41.03877,7.60326 -58.77971,17.98925 -23.59751,13.81944 -52.58922,49.29276 -68.88314,84.31228 -5.65964,12.14981 -8.77629,11.21652 37.37413,11.21652 h 40.55073 v 101.35969 l -62.21317,0.32536 -62.20461,0.32537 -6.84978,15.12946 c -17.53545,38.76122 -37.99062,75.27057 -58.0348,103.56874 -38.53004,54.37872 -89.94623,83.94411 -161.74053,92.98582 -8.02281,1.01891 -18.71704,1.84944 -23.76875,1.84944 l -9.18728,0.008 z" style="fill:#ffffff;fill-opacity:1;stroke:none;stroke-width:1.33785" id="path1"/><path d="m 120.48465,334.94217 -5.05171,-12.75772 H 90.277099 l -4.777724,12.75772 H 68.426287 l 27.270704,-64.99589 h 15.240779 l 26.98815,65.00445 z m -17.44127,-47.64881 -8.27111,22.31317 h 16.35386 z m 100.98296,14.96678 q 0,8.5451 -3.16803,14.7356 a 29.967807,29.967807 0 0 1 -8.35674,10.19761 35.105145,35.105145 0 0 1 -11.70457,5.87369 47.092268,47.092268 0 0 1 -13.22008,1.88369 h -24.23967 v -65.00445 h 23.50332 q 6.88403,0 13.58826,1.60114 a 34.248922,34.248922 0 0 1 11.93575,5.32571 27.399138,27.399138 0 0 1 8.45092,9.96643 q 3.21084,6.24187 3.21084,15.42058 m -16.3453,0 q 0,-5.50552 -1.79807,-9.1359 a 15.412015,15.412015 0 0 0 -4.76916,-5.77951 18.836907,18.836907 0 0 0 -6.78985,-3.0824 33.392699,33.392699 0 0 0 -7.85157,-0.91616 h -7.80019 v 38.0163 h 7.43202 q 4.22118,0 8.13412,-0.96753 a 18.836907,18.836907 0 0 0 6.87547,-3.16802 q 2.99678,-2.2005 4.77772,-5.87369 1.79807,-3.6732 1.79807,-9.09309 m 94.48421,-0.0856 q 0,7.706 -2.66285,14.09343 a 32.108364,32.108364 0 0 1 -7.39777,10.9254 32.964587,32.964587 0 0 1 -11.24221,7.02103 39.38626,39.38626 0 0 1 -14.1448,2.48305 q -7.62039,0 -14.09343,-2.48305 a 33.392699,33.392699 0 0 1 -11.1994,-7.02103 32.108364,32.108364 0 0 1 -7.38921,-10.9254 35.961368,35.961368 0 0 1 -2.66285,-14.102 q 0,-7.80019 2.65429,-14.08487 a 30.82403,30.82403 0 0 1 7.39777,-10.70278 32.536476,32.536476 0 0 1 11.1994,-6.78985 40.242483,40.242483 0 0 1 14.09343,-2.39743 q 7.62038,0 14.1448,2.39743 a 32.536476,32.536476 0 0 1 11.25077,6.78985 30.82403,30.82403 0 0 1 7.38921,10.70278 35.961368,35.961368 0 0 1 2.65429,14.08487 m -16.7991,0 q 0,-4.22974 -1.38708,-7.89437 a 17.638195,17.638195 0 0 0 -9.68388,-10.42024 18.836907,18.836907 0 0 0 -7.57757,-1.52407 q -4.11844,0 -7.5262,1.51551 a 17.980684,17.980684 0 0 0 -5.87369,4.13556 17.980684,17.980684 0 0 0 -3.8102,6.29324 23.118022,23.118022 0 0 0 -1.3357,7.88581 q 0,4.41811 1.37851,8.13412 a 18.836907,18.836907 0 0 0 3.8102,6.37886 q 2.44023,2.65429 5.83088,4.17837 a 17.980684,17.980684 0 0 0 7.53476,1.51552 q 4.11843,0 7.5262,-1.51552 a 17.980684,17.980684 0 0 0 9.72669,-10.55723 23.118022,23.118022 0 0 0 1.38708,-8.13412 m 77.8478,13.86225 q 0,5.32571 -2.11487,8.94753 a 16.781972,16.781972 0 0 1 -5.5997,5.83088 24.830468,24.830468 0 0 1 -7.94575,3.16803 42.811152,42.811152 0 0 1 -9.1359,0.96753 h -25.89218 v -65.01302 h 25.89218 q 3.76739,0 7.70601,0.78773 3.96431,0.7706 7.17515,2.65429 a 15.412015,15.412015 0 0 1 5.22296,5.10309 q 2.02925,3.21084 2.02925,8.16837 0,5.41133 -2.93685,8.95609 a 16.268238,16.268238 0 0 1 -7.71456,5.09453 v 0.1798 q 2.75703,0.46237 5.18871,1.70389 2.44023,1.23296 4.22118,3.16802 a 14.555792,14.555792 0 0 1 2.84266,4.49518 q 1.06171,2.56866 1.06171,5.78806 m -17.80944,-27.2707 q 0,-3.30502 -2.52585,-4.82054 -2.52586,-1.51551 -7.48339,-1.51551 h -7.71457 v 13.39989 h 8.45092 q 4.40099,0 6.83266,-1.78951 2.44023,-1.79807 2.44023,-5.27433 m 2.10631,25.798 q 0,-4.03281 -3.03103,-5.5997 -3.02246,-1.55833 -8.08274,-1.55833 h -8.72492 v 14.8726 h 8.8191 q 1.84088,0 3.81019,-0.3168 1.96932,-0.32537 3.57902,-1.14734 a 6.8497844,6.8497844 0 0 0 2.62004,-2.34605 6.8497844,6.8497844 0 0 0 1.01034,-3.90438 m 26.08056,20.37811 V 269.92059 H 397.293 v 13.32283 h -28.54648 v 12.20975 h 26.98816 v 12.57791 h -26.98816 v 13.49408 h 30.20755 v 13.40845 z M 727.94066,283.2948 v 13.4427 h 25.22433 v 12.98034 h -25.22433 v 25.31852 H 712.37452 V 269.8521 h 42.90534 v 13.4427 z m 37.45119,51.74156 V 269.8521 h 15.84013 v 51.459 h 25.21577 v 13.72526 z m 92.61765,0 -5.06884,-12.80054 h -25.21577 l -4.78629,12.80054 h -17.12446 l 27.34777,-65.18426 h 15.27502 l 27.07377,65.18426 z m -17.49264,-47.77725 -8.28824,22.36455 h 16.38811 z m 74.8339,-0.46236 a 14.213303,14.213303 0 0 0 -5.29146,-4.10131 14.898281,14.898281 0 0 0 -9.48695,-1.24152 8.5622305,8.5622305 0 0 0 -2.89404,1.06172 q -1.28433,0.77916 -2.16624,2.02068 a 5.3942052,5.3942052 0 0 0 -0.88191,3.18515 5.1373383,5.1373383 0 0 0 0.69354,2.75704 5.9935613,5.9935613 0 0 0 2.02925,1.93506 q 1.33571,0.82198 3.16802,1.51552 1.84944,0.69354 4.15268,1.42989 3.31359,1.09597 6.90116,2.44024 a 25.686691,25.686691 0 0 1 6.54155,3.5362 18.836907,18.836907 0 0 1 4.88047,5.47983 q 1.9265,3.27077 1.9265,8.15124 0,5.60826 -2.07206,9.71813 a 19.350641,19.350641 0 0 1 -5.56545,6.76416 23.974245,23.974245 0 0 1 -8.01425,3.95575 q -4.50373,1.28434 -9.29858,1.28434 -6.98678,0 -13.52832,-2.43168 a 28.683472,28.683472 0 0 1 -10.86547,-6.95253 l 10.30892,-10.49729 a 18.836907,18.836907 0 0 0 6.31037,4.93184 17.124461,17.124461 0 0 0 7.7745,1.96932 q 1.75526,0 3.40777,-0.36818 a 8.5622305,8.5622305 0 0 0 2.90259,-1.19871 5.9935613,5.9935613 0 0 0 1.96932,-2.2005 q 0.74491,-1.38708 0.74491,-3.31358 0,-1.84944 -0.91616,-3.13378 -0.92472,-1.28433 -2.6286,-2.34605 a 21.405576,21.405576 0 0 0 -4.22974,-1.93506 q -2.54299,-0.88191 -5.76239,-1.88369 a 54.798275,54.798275 0 0 1 -6.11343,-2.39743 20.549353,20.549353 0 0 1 -5.34283,-3.54476 16.268238,16.268238 0 0 1 -3.77594,-5.24865 q -1.4299,-3.0824 -1.4299,-7.50051 0,-5.43702 2.20906,-9.29858 a 19.179396,19.179396 0 0 1 5.80519,-6.35318 24.830468,24.830468 0 0 1 8.09987,-3.63895 q 4.50374,-1.1559 9.11878,-1.14733 5.52264,0 11.27646,2.02924 5.74525,2.02069 10.07774,5.97644 z m 61.12576,48.23961 v -27.25358 h -25.4127 v 27.25358 H 935.31788 V 269.8521 h 15.74594 v 24.67634 h 25.4127 V 269.8521 h 15.73738 v 65.18426 z" style="fill:#ffffff;stroke-width:1.33785" id="path2"/></svg>