<svg xmlns="http://www.w3.org/2000/svg" viewBox="0 0 400 190.48"><g fill="currentColor" stroke-width="2.16" style="fill:#fff;fill-opacity:1"><path d="M90.5 65.2H102c2.19 0 4.23 1.63 4.34 3.8h.1v-8.9H90.5l-.01-15.62h15.38c2.2 0 4.23 1.63 4.35 3.79h.1l-.02-8.9H78.02v.1c2.17.13 3.8 2.49 3.8 4.7v40.9c0 2.2-1.63 4.57-3.8 4.7v.1H94.3v-.1c-2.18-.13-3.82-2.5-3.82-4.7zm33.33 11.09c0 5.25 4.27 9.79 9.54 9.79s9.55-4.6 9.55-9.85V44.16c0-2.2-1.64-4.56-3.82-4.68v-.1l16.3-.02v.12c-2.17.12-3.82 2.48-3.82 4.68v31.16c0 10.03-8.11 15.87-18.17 15.87-10.08 0-18.27-5.84-18.27-15.87l.02-31.16c0-2.2-1.65-4.56-3.81-4.68v-.12h16.28v.12c-2.17.13-3.81 2.5-3.81 4.68zM257 47.54c-2.73-4.51-8.96-3.97-8.96-3.97-10.2 0-9.71 7.95-9.71 7.95s-.7 4 4.42 6.71l10.2 5.54c9.83 5.4 8.66 13.07 8.66 13.07s.45 14.32-20.13 14.32c0 0-5.98.2-9.36-1.1l-2.9-9.29h.1c3.14 4.62 12.25 5.3 12.25 5.3 11.56-.53 11.64-8.56 11.64-8.56s.52-3.46-4-5.96L239.06 66c-10.59-5.78-9.38-13.58-9.38-13.58s-.25-14.1 17.96-14.1c0 0 8.17.22 9.47 1.53v7.68Zm-79.4-25.73a10 10 0 0 0 7.08 2.92 10 10 0 0 0 10.02-10 10 10 0 0 0-10.03-9.98s-7.72-.73-11.19 9.12l.01-7.4c2.59-3.37 6.59-5.82 11.19-5.82a14.1 14.1 0 0 1 14.14 14.09 14.12 14.12 0 0 1-24.14 9.96l-4.86-5.45a7.3 7.3 0 0 0-5.18-2.13 7.31 7.31 0 1 0 0 14.61s5.42.73 8.84-5.97l.01 5.92a11.5 11.5 0 0 1-8.85 4.15 11.44 11.44 0 0 1-11.46-11.42 11.43 11.43 0 0 1 19.55-8.05zm2.6 22.25c0-2.21-1.63-4.47-3.8-4.59v-.1h16.26v.1c-2.16.13-3.8 2.4-3.8 4.58v41c0 2.2 1.64 4.58 3.8 4.7v.1H176.4v-.1c2.17-.12 3.8-2.5 3.8-4.7zm-10.2.1c0-2.2 1.63-4.56 3.8-4.68v-.1h-16.3v.1c2.18.12 3.8 2.48 3.8 4.68l.02 51.26s-.18 9.05-7.3 14.26l.03.1c1.4-.23 15.95-2.99 15.95-17.4z" style="fill:#fff;fill-opacity:1;stroke-width:2.70901" transform="matrix(.79924 0 0 .7984 46.02 28.65)"/><path d="M192.59 48.46h.1c2.2-3.93 5.6-3.98 5.6-3.98h8.82v40.6c0 2.2-1.63 4.55-3.8 4.68v.1h16.3v-.1c-2.19-.13-3.83-2.5-3.83-4.68l.01-40.6 7.37-.02a4.1 4.1 0 0 1 4.08 4h.09l2.7-9.1h-34.72zm81.17 27.83c0 5.25 4.27 9.79 9.54 9.79s9.55-4.6 9.55-9.85V44.16c0-2.2-1.64-4.56-3.8-4.68v-.1l16.28-.02v.12c-2.16.12-3.8 2.48-3.8 4.68v31.16c0 10.03-8.12 15.87-18.2 15.87-10.05 0-18.25-5.84-18.25-15.87l.01-31.16c0-2.2-1.64-4.56-3.81-4.68v-.12h16.3v.12c-2.2.13-3.83 2.5-3.83 4.68z" style="fill:#fff;fill-opacity:1;stroke-width:2.70901" transform="matrix(.79924 0 0 .7984 46.02 28.65)"/></g><g stroke-width=".78" style="fill:#fff;fill-opacity:1"><path d="M47.49 169.5v12.95H2.84v-12.94h10.2v-50.48H4.11V103.5h91.85v32.36H76.83v-16.83H37.28v19.42h28.07v15.53H37.28v15.53zm65.06-1.29v-50.47h-8.93V103.5h34l21.66 45.17 22.6-45.17h36.55v14.24h-8.93v50.46l7.66.03v14.22h-40.82v-14.23l7.65-.02-.05-30.33-22.07 44.58h-10.62l-23.33-45.68c-.15 10.04-.02 21.39-.06 31.43l7.65.03v14.22h-31.89v-14.23zm114.82-32.35h39.54v14.23h-39.55zm90.74-12.88c-4.86.73-7.03 5.79-6.74 10.3l-15.12-.01V104.8h88.03v17.69c-8.34 2.44-14.35 8.2-19.4 15.7-8.16 13.13-11.45 28.9-11.22 44.25-9.85 0-19.7.05-29.53-.03 1.68-11.18 4.15-22.36 8.74-32.72 3.57-6.71 9.9-14.9 16.91-20.33 3.03-2.37 5.64-4.5 9.52-6.35z" style="fill:#fff;fill-opacity:1;stroke-width:.973941" transform="matrix(.79924 0 0 .7984 46.02 28.65)"/></g><path fill="none" stroke="currentColor" stroke-width="3.76" d="M284.2 99.57h112.54v87.66H284.2Z" opacity=".98" style="stroke:#fff;stroke-opacity:1" transform="matrix(.79924 0 0 .7984 46.02 28.65)"/></svg>