<svg xmlns="http://www.w3.org/2000/svg" viewBox="0 0 3840 1260"><path d="M1400.6 933.8c10.6-115 107.3-205 225.1-205s214.4 90 225.1 205h79.3c-10.8-158.7-142.9-284.1-304.3-284.1s-293.5 125.4-304.3 284.1zm225 247.1c-119.6 0-217.5-93-225.5-210.6h-79.2c8.1 161.3 141.4 289.6 304.7 289.6s296.7-128.3 304.7-289.6h-79.2c-7.9 117.7-105.8 210.6-225.5 210.6m-585.9-210.6h79.1v269.8h-79.1zm308.2-300.4H813.8V749h225.9v184.8h79.1V749h229.1zm1380.7 300.4h79.1v269.8h-79.1zm433.6 190.8h-19.4l-84.9-190.7h-86.5l109.2 245.3a41.1 41.1 0 0 0 37.6 24.4h122.9V970.3H3162v190.8zm0-491.2h79.1v263.9h-79.1zM2935 694.4a41.1 41.1 0 0 0-37.6-24.4h-168.8v263.9h79.1V749h65.2l82.3 184.8h86.5zm-402.5 239.4h81l58.5-263.9h-81zm-392.5 231h-14.5l-43.1-194.5h-81l59.8 269.8h143l59.8-269.8h-80.9zm341.3 0h-14.4l-43.1-194.5h-81l59.8 269.8h143l59.8-269.8h-81zm-124.1-494.9h-107.5l-58.5 263.9h80.9l31.3-141 31.3 141h81zm-341.4 0h-81l58.5 263.9h81zM3418.3 922h223.1c21.4 0 39.8 4.3 55.5 11.8h114.4c-31.1-52.4-87.3-90.5-168.8-90.8h-224.2c-62.7 0-62.7-94 0-94h388.6v-79.1h-388.6c-168 0-168 252.1 0 252.1m409.9 48.3h-88.6c47.9 69.8 15.2 190.7-98.2 190.7h-347.3v79.1h347.3c164.7 0 227-153.6 186.8-269.8M1372.1 340.92h62.52c11.9 0 22.96 8.5 23.39 19.98h.42v-47.2h-86.32v-82.5h83.35c11.9 0 22.96 8.5 23.38 19.99h.43v-47.2h-174.78v.42c11.91.85 20.42 13.19 20.42 24.67V445.1c0 11.48-8.93 24.24-20.42 24.67v.42h88.03v-.42c-11.9-.85-20.84-13.19-20.84-24.67zm180.62 58.56c0 27.64 22.96 51.88 51.45 51.88s51.88-24.24 51.88-51.88V230.24c0-11.49-8.93-24.24-20.84-24.67v-.42h88.46c-11.91.85-20.84 13.18-20.84 24.66v164.57c0 53.16-43.8 83.77-98.23 83.77s-99.08-31.04-99.08-83.77V229.81c0-11.48-8.93-24.24-20.42-24.66v-.43h88.03v.43c-11.9.85-20.41 13.18-20.41 24.66zm721.28-152c-14.88-23.81-48.47-20.84-48.47-20.84-55.28 0-52.73 42.1-52.73 42.1s-3.83 21.27 23.81 35.3l55.28 29.34c53.16 28.5 46.78 68.89 46.78 68.89s2.55 75.7-108.86 75.7c0 0-32.32.84-50.6-5.96l-15.74-48.9h.43c17 24.24 66.33 28.06 66.33 28.06 62.51-2.55 62.94-45.07 62.94-45.07s2.98-18.29-21.69-31.47l-54.86-29.34c-57.4-30.62-50.6-71.87-50.6-71.87s-1.7-74.42 96.96-74.42c0 0 44.22 1.28 51.45 8.08v40.4zM1843.58 111.7a55.5 55.5 0 0 0 38.27 15.3c30.2 0 54.43-23.8 54.43-52.73 0-28.91-24.24-52.73-54.43-52.73 0 0-41.67-3.82-60.81 48.06V30.47c14.03-17.86 35.72-30.61 60.38-30.61 42.53 0 76.55 33.17 76.55 74.41 0 41.25-34.45 74.42-76.55 74.42-21.26 0-40.4-8.5-54-21.69l-26.37-28.91c-7.23-6.8-17-11.48-28.06-11.48-22.12 0-39.55 17.43-39.55 38.7 0 21.26 17.86 38.7 39.55 38.7 0 0 29.34 3.82 48.05-31.48V164c-11.48 13.18-28.5 22.11-48.05 22.11-34.45 0-62.09-27.21-62.09-60.38s27.64-60.39 62.09-60.39c17 0 32.74 6.8 43.8 17.86zm14.22 117.7c0-11.48-8.94-23.39-20.84-24.24v-.42h88.02v.42c-11.48.85-20.41 12.76-20.41 24.24v216.45c0 11.48 8.93 24.24 20.41 24.67v.42h-88.02v-.42c11.9-.85 20.83-13.19 20.83-24.67zm-55.13.23c0-11.48 8.93-24.24 20.42-24.66v-.43h-88.03v.43c11.9.85 20.41 13.18 20.41 24.66v270.88s-.85 47.63-39.55 75.27v.43c7.66-1.28 86.33-15.74 86.33-91.86z" class="st0" style="fill-opacity:1;fill:#fff"/><path d="M1924.92 252.42h.42c11.9-20.83 30.2-20.83 30.2-20.83h47.62V445.9c0 11.48-8.93 24.24-20.84 24.66v.43h88.46v-.43c-11.91-.85-20.84-13.18-20.84-24.66V231.6h39.97a21.8 21.8 0 0 1 22.12 21.26h.42l14.46-48.05h-187.96zm439.78 147.06c0 27.64 22.96 51.88 51.88 51.88 28.49 0 51.88-24.24 51.88-51.88V230.24c0-11.49-8.93-24.24-20.41-24.67v-.42h88.02c-11.9.85-20.41 13.18-20.41 24.66v164.57c0 53.16-43.8 83.77-98.66 83.77-54.43 0-98.65-31.04-98.65-83.77V229.81c0-11.48-8.93-24.24-20.84-24.66v-.43h88.02v.43c-11.9.85-20.83 13.18-20.83 24.66zM31.3 1016.7h85.9v184.9H31.3zm590.4-10.3h85.9v203.3h-85.9zm-57.6 158.9-59.8 74.8-118-251.8 82.8-25.7z" class="st0" style="fill-opacity:1;fill:#fff"/><path d="M74.3 1080.7h140.5v54H74.3zm301.3-83.4h54v204.3h-54zM0 962.6h319.9v54H0z" class="st0" style="fill-opacity:1;fill:#fff"/><path d="M344.3 1016.7h101.1l23.7-54.1H344.3zm277.4-54.1h117.2v54H621.7zM0 1186.1h148.6v54H0zm590.3 0h148.6v54H590.3zm-246 0H461v54H344.3zm-93.7-202.4h69.3v87.3h-69.3z" class="st0" style="fill-opacity:1;fill:#fff"/><path d="m614.9 962.6-116.8 235.6 39.5 41.9 137.6-277.5z" class="st0" style="fill-opacity:1;fill:#fff"/><path d="M504.3 1192.8h33.3v47.3h-33.3z" class="st0" style="fill-opacity:1;fill:#fff"/></svg>