<?xml version="1.0" encoding="UTF-8" standalone="no"?><svg viewBox="0 0 980.45 148.01" version="1.1" id="svg1" xmlns="http://www.w3.org/2000/svg" xmlns:svg="http://www.w3.org/2000/svg"><g class="currentLayer" transform="matrix(2.506 0 0 2.5255 -11 -15.79)" id="g1" style="fill:#ffffff"><title id="title1">Layer 1</title><path fill="currentColor" fill-rule="evenodd" d="M215.78 8.58c-15.38 3.5-27.42 16.74-23.19 25.5 3.1 6.4 13.93 6.18 19.89-.42 6.2-6.85 5.8-18.25-.63-18.25-2.29 0-2.28-1.08 0-2.04 5.34-2.23 23.03-2.74 25.05-.73.7.7.36 1.09-2.37 2.63-5.87 3.3-15.62 13.86-17.99 19.44-1.17 2.78-2.22 3.27-8.84 4.12-1.65.22-3.85 1.78-3.85 2.75 0 1.28 2.47 1.46 6.08.46 3.08-.85 3.6-.32 2.28 2.29-5.3 10.35-14.28 16.64-21.38 14.93-5.7-1.36-6.02-4.12-.59-5.04 6.32-1.07 4.67-9.78-1.85-9.78-11.44 0-12.76 13.46-1.71 17.53 12.77 4.71 31.57-3.85 38.85-17.7 2.31-4.4 2.54-4.55 8.97-5.97 8.6-1.9 11.93-4.17 10.86-7.42-1.26-3.8.94-7.26 5.45-8.6 1.92-.58 1.34-4.17-1.1-6.87-2.22-2.45-2.13-2.72.96-3.09 1.01-.12 1.54-.59 1.67-1.5.21-1.53-3.04-1.88-6.94-.77-1.57.46-2.77.31-5.63-.66-4.78-1.64-18.33-2.1-23.99-.81M43.92 10.4c-19.35 4.2-33.33 21.43-22.8 28.1 8.8 5.59 20.68-.47 21.94-11.16.75-6.3-.67-9.04-4.91-9.53-3.64-.41-3.6-1.2.12-2.61 4.2-1.58 11.24-1.05 18.62 1.4 9.94 3.3 16.27 2.85 19.69-1.4 2.61-3.24 1.06-4.57-3.83-3.27-2.14.57-3.83.44-11.03-.89-9.47-1.74-12.29-1.84-17.8-.64m322.73.83c-8.52 2.72-18.45 14.34-27.46 32.12-1.65 3.26-2.2 3.9-3.19 3.64-.87-.23-1.87.43-3.77 2.5-2.82 3.07-4.06 2.88-1.98-.3l1.9-2.93c.32-.52 1.16-1.75 1.85-2.72a37 37 0 0 0 4.03-7.82c.4-1.3.38-1.31-6.88-1.27-8.79.04-9.59.35-15.62 5.98-4.76 4.45-4.77 4.45-5.18-.58-.32-3.98-1.6-5.48-4.68-5.48-3.43 0-3.33-.87 1.03-9.45 4.16-8.2 4.2-8.33 1.97-8.46-5.35-.31-7.83 1.35-10.78 7.22a153 153 0 0 1-3.76 6.84c-8.41 14.46-12.06 20.95-12.62 22.43-.55 1.45-.77 1.59-1.56.93q-.93-.76-1.33-.15c-.48.74-4.47 1.55-5 1.02-.2-.2.7-2.51 2.02-5.13 3.82-7.61 3.8-12.92-.08-13.77-1.97-.43-7.35 1.07-9 2.5-1.33 1.17-2.14.57-2.6-1.93-1.03-5.47-9-1.95-10.57 4.67q-.4 1.66.22 1.3c.85-.53.77 1.07-.1 1.94-.39.39-.5.7-.26.7s-.8 2.34-2.3 5.18c-2.82 5.29-4.74 10.12-4.23 10.63.49.5 9.87-.52 9.87-1.06 0-.28 1.2-3.06 2.67-6.18s2.67-5.88 2.67-6.13c0-1.06 7.53-8.54 8.19-8.13 1.13.7.86 1.64-2.56 8.6-5 10.17-4.38 12.5 3.27 12.5 3.32 0 4.32-.26 6.72-1.78l2.81-1.79 1.92 2.04c4.15 4.4 16.13 2.74 21.43-2.97 1.65-1.78 2.07-1.62 3 1.14 1.27 3.82 6.95 4.9 9.87 1.86l1.3-1.35 1.33 1.43c2.7 2.9 7.4 1.43 12.79-4.04a41 41 0 0 1 3.43-3.3l.15 3.81c.27 8.1 5.36 8.57 12.8 1.17 5.08-5.05 5.4-5.08 5.4-.56 0 7.68 5.99 7.38 13.52-.67 5.59-5.98 4.03-9.39-1.65-3.6-2.83 2.89-3.58 2.94-3.58.26 0-3.3 2-5.98 7.2-9.7 15.8-11.29 28.85-28.92 23.52-31.77-2.82-1.52-12.71 1.36-15.26 4.44-1.08 1.3-1.83.62-1.83-1.64 0-3.59-2.66-4.23-9.05-2.19m5.33 3.38c.65 1.95-20.3 25.7-21.84 24.75-1.67-1.03 12.64-20.1 18-23.98 2.41-1.75 3.44-1.96 3.84-.77m18.04.56c-.59 3.2-20.57 25.13-22.06 24.21-.9-.56 3.18-7.44 8.27-13.9 6.62-8.4 14.52-14.31 13.79-10.3m-147 .92c2.47 4.62-2.18 13.55-9.5 18.25-5.11 3.28-5.27 2.2-1.02-6.7 4.46-9.35 9.02-14.35 10.51-11.55M100.1 18.83c-.84 1.21-3.22 5.14-5.27 8.73-12.7 22.18-12.24 21.17-12.4 26.66-.2 7.05 2.03 9.01 7.36 6.48 2.84-1.35 3.91-2.79 4.24-5.7.24-2.16.16-2.41-.5-1.65-.43.5-1.31.9-1.96.89-2.07-.03-1.1-2.44 5.61-13.94l6.4-10.97 3.32-.17c3.92-.21 5.47-3.68 1.65-3.68-2.52 0-2.55-.39-.34-4.15 2.75-4.7 2.72-4.74-2.27-4.72-4.29 0-4.3.01-5.84 2.22M55.3 20.7c-2.28 1.4-7.64 8.4-10.69 13.97-2.38 4.36-2.7 4.6-9.47 7.1-4.96 1.82-8.08 3.76-8.36 5.2-.32 1.7 1.84 1.22 7.4-1.65 6.26-3.22 7.05-2.86 4.16 1.88-5.17 8.49-13.09 12.87-20.64 11.44-6.84-1.3-7.68-3.9-1.68-5.25 6.23-1.4 5.49-7.34-1.02-8.16-9.38-1.18-12.42 9.66-4.04 14.4 12.6 7.14 34.7-.82 41.27-14.86 1.48-3.17 2.07-3.9 3.2-3.9 2.2 0 2.14.56-.94 7.13-3.18 6.78-3.58 9.4-1.74 11.25 1.6 1.6 6.06 1.6 9.03 0 2.2-1.17 2.2-1.17 2.83 0 2.14 4 11.97-.6 15.84-7.4 3.2-5.63.87-7.12-3-1.92-3.7 4.96-2.44 1.09 1.98-6.12 5.02-8.16 5.64-9.83 3.4-9.23-.74.2-2.58.36-4.1.36l-2.77.01-3.73 6.26c-4.01 6.73-8.74 13-9.7 12.85-1.96-.31.53-7.2 5.27-14.6 2.82-4.41 2.78-4.5-1.8-4.5-3.72 0-4.03.1-5.88 2.07-1.09 1.15-2.13 1.81-2.33 1.48s-.87-.6-1.48-.6c-2.44 0-1.62-5.1 2.09-12.94 2.76-5.86 1.77-7.23-3.1-4.27m144.65 2.12c-1.48 2.25-1.88 8.58-.54 8.58 2.49 0 7.86-3.7 8.54-5.88 1.33-4.3 4.8-6.6 3.83-2.53-1.77 7.36-9.52 13.7-13.79 11.29-4.24-2.4-4.33-5.55-.28-10.85 2.1-2.75 3.98-3.27 2.24-.61M37.7 26.4c-2.67 7.83-10.89 12.95-14.69 9.15-2.6-2.6-2.03-6.71 1.43-10.5q2.62-2.9 1.27 2.22c-.7 2.66-.58 6.5.18 6.5 1.74 0 7.74-4.41 8.36-6.15 1.95-5.38 5.27-6.56 3.45-1.22m210.38-1.03c-1.35 1.5-1.29 5.56.1 6.82a4.67 4.67 0 0 0 7.81-3.56c0-4.01-5.26-6.18-7.9-3.26m-138.62 9.56c-2.77.54-2.23-.13-5.78 7.09-1.66 3.36-3.7 7.02-4.55 8.13s-1.37 2.19-1.16 2.4c.2.2.15.66-.12 1.01-3.12 4.15 4.66 8.74 10.07 5.94 1.72-.89 1.88-.87 3.2.38 2.94 2.75 8.72.29 13.72-5.85 3.58-4.4 3.49-10.02-.1-6.05-2.58 2.85-1.72.06 1.79-5.78 4.9-8.17 4.91-8.1-.48-7.57-2.36.23-4.3.47-4.33.52-.43 1.23-9.08 14.44-10.63 16.25-5.19 6.03-3.8-1.34 2.1-11.15 3.84-6.39 3.59-6.74-3.73-5.32m22.41 3.18c-3.98 3.9-5.03 6.32-2.74 6.32.63 0 1.32-.27 1.52-.6s.62-.45.92-.27c.3.19-1.32 4.06-3.6 8.6s-4.14 8.4-4.14 8.56 1.85.3 4.11.3h4.12l3.7-7.16c5.24-10.13 10.76-15.18 11.29-10.31.26 2.46 2.82 2.82 4.28.6 1.98-3.03 2-.81 0 2.49-6.48 10.77-2.6 17.28 8.41 14.1 5.97-1.71 15.17-12.55 11.48-13.52-1.17-.3-1.17-.36.3-2.52 7.01-10.33-5.39-14.09-15.17-4.6-1.51 1.47-2.91 2.4-3.1 2.09-.2-.32.03-.91.51-1.32 4-3.31-1.7-6.4-7.19-3.89-3.54 1.62-3.96 1.55-5.2-.94-1.5-3.05-5.06-2.28-9.5 2.07m226.91 1.6a88 88 0 0 0-4.06 9.71c-.31.87-.57.97-1.1.45-1.27-1.27-2.85-.72-5.76 2-3.09 2.89-3.96 2.76-3.34-.51.62-3.3 2.52-5.58 8.7-10.46 6.66-5.27 7.75-5.5 5.56-1.19m-114.47-1.97c-1.33.25-3 2.89-7.53 11.8-2.25 4.45-2.9 9.3-1.42 10.78.98.98 6.2.94 6.2-.05 0-1.01 5.1-12.1 7.97-17.37 1.27-2.3 2.3-4.5 2.3-4.89 0-.67-4.59-.84-7.52-.27m57.74 2.92c-.32 2.86-3.36 7.8-7.17 11.66-3.77 3.82-3.9 1.98-.33-4.96 4.88-9.52 8.14-12.43 7.5-6.7m-133.42-1.32c.52 1.36-1.32 4.24-4.22 6.62-4.96 4.06-4.16.06 1.1-5.53 2-2.12 2.64-2.34 3.12-1.09m158.82.01c.56 1.45-9.4 15.5-10.5 14.82-1.76-1.09 1.05-6.99 5.74-12.06 3.48-3.74 4.22-4.17 4.76-2.75m-161.6 12.09c-3.1 3.57-7.9 5.8-8.6 4-.6-1.54.9-3.2 3.76-4.17a34 34 0 0 0 4.3-1.78c2.33-1.3 2.58-.42.53 1.95" class="selected" id="path1" style="fill:#ffffff"/></g></svg>