<svg xmlns="http://www.w3.org/2000/svg" xml:space="preserve" id="Layer_1" x="0" y="0" viewBox="0 0 3839 555.6"><style id="style1" type="text/css">.st2{fill:#fff}</style><g id="g6" style="fill:#fff"><path id="path1" d="M352.1 252.3h284.1l-15 77.7c-43.7 5.4-65.5 14-71 42.8l-34 177.4H413.7l-14-49.8c-47.6 35.8-94.4 55.2-167 55.2C97.6 555.6 0 491.9 0 333.9 0 130.1 182.5 0 342.5 0c46.8 0 88.6 9.1 130.7 34l10.3-25.9h66.3l18.9 174.8-76.5 26.5c-8.6-53.7-60.4-118-134.6-118-114 0-165.6 155.3-165.6 263.5 0 54.3 24.5 104.6 83 104.6 49.2 0 101.6-38.7 106.6-93.7 1.7-18.6-5.5-32.7-44.5-35.8z" class="st2" style="fill:#fff"/><path id="path2" d="m2673.9 177.3 97.8-161.6h464.6l31.8 168.6-77.4 27.4c-18.2-67.7-52.5-110.1-112.9-115.5L3022 387.6c-4.1 21-9.4 41.6-9.4 50.1 0 25.7 21.1 26.9 61.6 31.5l-14.6 76.2h-323.1l14.6-76.2c48-2.3 76.5-17.1 81.5-45.1l62.9-328c-51.1 10.6-105.4 28.4-157.5 107.7z" class="st2" style="fill:#fff"/><path id="path3" d="m3203.8 545.5 14.1-76.2c48-2.3 65.8-17.1 71-45.1 11.7-63.6 48.6-254.1 48.6-254.1s8.2-46 8.2-49.4c0-10.1-4.2-25.6-48.1-28.8l14.1-76.2h487.4l39.9 162s-53.6 27-71.8 33.2C3739.1 139.3 3682.3 99 3607.5 99c-60.4 0-71.1-2.9-79.4 43.8l-14.7 76.6c80.2-.8 72.6-.1 94.9-74h76.3L3638.9 385H3564c.8-9.3 1.7-17.6 1.7-27 0-45.9-3.8-48.7-69.1-50.3l-20.9 109.4c-1.7 7-1.3 15.6-1.3 23.3 0 21 32.3 21.1 47.3 21.1 85.4 0 166.6-39 238.2-129.3l64.8 33.1-123.6 180.1h-497.3z" class="st2" style="fill:#fff"/><path id="path4" d="m964.3 151.4-82.5 141.3h109.5zm-20.8 317.9c53.8 0 72.9-7.8 72.9-27.2 0-14-3.6-37.1-10.6-73.1H837.3c-22.3 37.3-39.7 68.5-39.7 77.8 0 17.1 5.4 22.6 53.4 22.6l-14.6 76.2H602.6l14.6-76.2c52.1-5.4 69.6-9.3 117.5-88.7L953.9 15.8h175.7l86.5 410.7c5.8 24.1 19.8 35.8 62.9 42.8l-14.5 76.2H928.9z" class="st2" style="fill:#fff"/><path id="path5" d="m2392.3 151.4-82.5 141.3h109.5zm-20.8 317.9c53.8 0 72.9-7.8 72.9-27.2 0-14-3.6-37.1-10.6-73.1h-168.6c-22.3 37.3-39.7 68.5-39.7 77.8 0 17.1 5.4 22.6 53.4 22.6l-14.6 76.2h-233.8l14.6-76.2c52.1-5.4 69.6-9.3 117.5-88.7l219.2-364.8h175.7l86.5 410.7c5.8 24.1 19.8 35.8 62.9 42.8l-14.5 76.2h-335.5z" class="st2" style="fill:#fff"/><path id="path6" d="m1819 15.8-115.2 222.8-13.6-222.8h-292l-14.7 76.6c33.8 6.9 45.7 13.9 45.7 30.8 0 7-1.7 17.1-5.1 31.1l-49.5 258.3c-10.3 47.5-28.3 52.9-70.3 56.8l-14.6 76.2h210.2l14.6-76.2c-32.5-4.7-50.2-9-50.2-29.3 0-10.9 3.4-29.8 6-40.7l52.7-274.7 33.9 420.8h86.5l205.5-409.3-54.2 282.5c-8.6 38.1-21.1 45.1-69.1 50.6l-14.6 76.2h287.6l14.6-76.2c-29.1-4.7-43.6-10.1-43.6-25.7 0-10.1 2.8-21.8 5.4-35l52.7-274.6c4.3-21.8 17.7-42 67.3-42l14.6-76.2z" class="st2" style="fill:#fff"/></g></svg>