<svg xmlns="http://www.w3.org/2000/svg" viewBox="0 0 264 31"><path d="M225.74 59.59c-5.06 6.86-10.07 8.82-12.26 9.87a21 21 0 0 1-8.4 1.88q-12.21 0-19.05-7.94c-4.57-5.3-6.85-12.74-6.85-22.4q0-17.1 8.66-29.07Q196.5 0 210.84 0q10.85 0 17.8 6.13 6.95 6.11 6.95 19.17h-14.01q0-6.25-2.76-8.78-2.75-2.5-7.91-2.5-8.44 0-13.08 8.23-4.62 8.25-4.64 18.78.02 7.18 3 11.73 3.01 4.57 9.01 4.57 6.24-.01 9.72-3.55a21 21 0 0 0 5.11-9.06h-13.05l2.12-12.7h25.44l-2.15 12.3s-1.61 8.4-6.65 15.27m121-57.83-11.38 67.92H323.1l9.65-52.64-21.28 52.64h-10.05l-4.63-52.61-7.33 52.61h-12.4L288.4 1.76h17.39l3.89 47.83 19.55-47.95zm12.97 26.3h20.02l-2.08 13.17h-20.02l-2.58 14.46h22.6l-2.23 13.99H339.8l11.26-67.99h35.19l-2.15 14.09h-22.15zM253.03 1.64l-27.39 68.04H239l4.88-13.27h17.47l1.14 13.27h12.92l-7.74-68.04zm-4.91 43.16 9.92-27.06 2.3 27.06zm207.26 14.79c-5.06 6.86-10.06 8.82-12.25 9.87a21 21 0 0 1-8.4 1.88q-12.22 0-19.05-7.93-6.85-7.95-6.85-22.4 0-17.1 8.66-29.07 8.66-11.95 23-11.94 10.84 0 17.8 6.13 6.95 6.11 6.94 19.18h-14q0-6.26-2.76-8.78-2.75-2.5-7.92-2.51-8.43 0-13.07 8.24-4.63 8.25-4.64 18.77.01 7.18 3 11.73 3.01 4.58 9 4.57 6.25-.01 9.73-3.55a21 21 0 0 0 5.11-9.05h-13.05l2.11-12.7h25.45l-2.16 12.3s-1.61 8.38-6.65 15.26m26.15-31.51h19.99l-2.05 13.15h-20.02l-2.6 14.46h22.62l-2.24 14.02h-35.62l11.27-68.02h35.2l-2.16 14.09h-22.16zm44.25-26.41L498.4 69.7h13.37l4.86-13.27h17.49l1.14 13.27h12.9l-7.74-68.04zM520.9 44.8l9.9-27.06 2.33 27.06zm47.95-13.22 2.97-16.74h7.15q3.93 0 5.9 1.41 1.96 1.45 1.96 5.75 0 4.83-3.18 7.2-3.2 2.38-8.1 2.38zm-8.07-29.9L549.52 69.7h13.02l4.37-25.92h6.03L583 69.7h14.93L586.78 41a26.6 26.6 0 0 0 9.58-8.73A21.5 21.5 0 0 0 600 19.85q0-9.63-4.34-13.9T583.43 1.7zM10.87 27.82C22.37 8.54 38.18-3.48 46.2.9c8 4.4 5.19 23.6-6.33 42.86-11.49 19.28-27.3 31.3-35.3 26.91-8.03-4.4-5.2-23.6 6.3-42.86m51.41.01C73.77 8.54 89.58-3.48 97.6.9c8 4.4 5.18 23.6-6.33 42.86-11.5 19.28-27.31 31.3-35.31 26.91-8.02-4.4-5.19-23.6 6.3-42.86m51.42.01C125.18 8.54 141-3.48 149.01.9c8 4.42 5.19 23.62-6.32 42.87-11.5 19.28-27.31 31.3-35.32 26.9s-5.18-23.6 6.31-42.85" style="fill-opacity:1;fill:#fff" transform="scale(.44 .43304)"/></svg>