<svg xmlns="http://www.w3.org/2000/svg" id="Layer_1" x="0" y="0" viewBox="0 0 3840 1052.6"><style>.st0{fill:red}</style><path d="M1178.2 307.5h72.6v369.4h-72.6z" style="fill:#fff" transform="rotate(90 1214.55 492.17)"/><path d="M412.2 455.9h-91.4v450.6c0 40.4-33.1 73.5-73.5 73.5H39.8v72.6H271c78 0 141.3-63.2 141.3-141.3V455.9zm1165.6 428h-91.4V602c0-40.4-33.1-73.5-73.5-73.5h-207.6v-72.6h231.2c78 0 141.3 63.2 141.3 141.3zm-679.5 0h-91.4V602c0-40.4-33.1-73.5-73.5-73.5H525.8v-72.6H757c78 0 141.3 63.2 141.3 141.3z" style="fill:#fff"/><path d="M1838.5 529.3h72.6v281.2h-72.6z" style="fill:#fff" transform="rotate(90 1874.77 669.9)"/><path d="M898.3 706.2v-72.6H628.8c-69.1 0-125.2 56-125.2 125.2 0 69.1 56 125.2 125.2 125.2h269.5v-72.6H646.9c-28.7 0-51.9-23.2-51.9-51.9v-1.3c0-28.7 23.2-51.9 51.9-51.9h251.4zm347.9-250.3h91.4V884h-91.4zm-240.3 0h91.4V884h-91.4zm2692.8 0H3268V884h91.4V528.5h148.9V884h91.4V528.5h75.4c40.4 0 73.5 33.1 73.5 73.5v282h91.4V597.1c0-78-63.2-141.2-141.3-141.2M207.5 528.5h204.7v-72.6H174.7C60.6 455.9 0 558.2 0 669.9s60.6 214 174.7 214h237.5v-72.6H207.5c-17.6 0-104.9-8.7-104.9-141.4s87.3-141.4 104.9-141.4m1668.6 0h139.2v-72.6h-172.1c-114.1 0-174.7 102.3-174.7 214s60.6 214 174.7 214h172.1v-72.6h-139.2c-17.6 0-104.9-8.7-104.9-141.4s87.3-141.4 104.9-141.4m632.2 0h139.2v-72.6h-172.1c-114.1 0-174.7 102.3-174.7 214s60.6 214 174.7 214h172.1v-72.6h-139.2c-17.6 0-104.9-8.7-104.9-141.4s87.3-141.4 104.9-141.4m444.8-76.1c-137.6 0-225 80.5-225 225s87.4 225 225 225 225-80.4 225-225c-.1-144.5-87.5-225-225-225m0 381.1c-86 0-127.7-58.2-127.7-156 0-97.9 41.7-156 127.7-156s127.7 58.2 127.7 156c-.1 97.8-41.7 156-127.7 156" style="fill:#fff"/><circle cx="2151.1" cy="864.1" r="63.9" class="st0" style="fill:#fff"/><path d="M2198.3 821a63.6 63.6 0 0 1 16.7 43 63.89 63.89 0 0 1-119.3 31.8" style="fill:#fff"/><path d="M2282.6 774.5c-12.1-21-77.8 6.7-147.5 59.8S2013 945.6 2033 963.2c24.8 21.9 88.9-8.9 155.3-59 57.5-43.4 103.3-114 94.3-129.7m-106 118.7c-57.6 43.5-117.6 69.1-132 58.1-18-13.6 32-64.1 92.5-110.1s117.1-74.6 125.8-58.7c6.5 11.8-36.4 73-86.3 110.7" style="fill:#fff"/><path d="M2095.7 895.9a63.9 63.9 0 0 1 55.4-95.7c18.7 0 35.5 8 47.2 20.9" style="fill:#fff"/><path d="M1238.2 0h101.7v353.6h-101.7zM958.9 86.7h74.3v266.9h101.7V86.7h74.3V0H958.9zM1518.7 0c-101.3 0-155.2 88.4-155.2 176.8s54 176.8 155.2 176.8c0-14.5 0 0 0 0h182.8V133.4h-179.4v86.7h77.7v46.8H1548c-120.1 0-120.1-180.2 0-180.2h153.5V0zs0 14.5 0 0m1302 148.5c-28.2-15-62.1 6.4-62.1 38.3v6.6c0 12.6 6.3 23.9 15.7 32.2 14 12.4 8.7 41.2-15.7 41.2H2297V233c0-14-8-26.1-19.6-32 25.7-20.8 41.8-55.9 41.8-90.9 0-55-39.3-110.1-93.8-110.1h-213.2v239.5h101.7V86.7h76.2c12.7 0 24 9.5 24.7 22.1.7 13.5-10 24.6-23.3 24.6H2142v86.7h28.6a24.8 24.8 0 0 1 24.8 24.8v108.7h563.3c73.4 0 122.6-55 122.6-110.1-.2-37.4-23-74.9-60.6-95" class="st0" style="fill:#fff"/><path d="M1175.8 93.5c-18.4 0-33.4 15-33.4 33.4s15 33.4 33.4 33.4 33.4-15 33.4-33.4c0-18.5-15-33.4-33.4-33.4m-183.5 0c-18.4 0-33.4 15-33.4 33.4s15 33.4 33.4 33.4 33.4-15 33.4-33.4c0-18.5-14.9-33.4-33.4-33.4m848.3 150c0-12.9 10.5-23.4 23.4-23.4h129.5v-86.7H1864c-12.9 0-23.4-10.5-23.4-23.4s10.5-23.4 23.4-23.4h129.5V0h-178.9c-50.4 0-91.2 40.9-91.2 91.2v13c0 40.1 31.4 72.5 41.3 72.5-9.9 0-41.3 32.5-41.3 72.5v13c0 50.4 40.8 91.2 91.2 91.2H2114v-86.7h-249.9a23.1 23.1 0 0 1-23.5-23.2" class="st0" style="fill:#fff"/></svg>