<?xml version="1.0" encoding="UTF-8" standalone="no"?><svg viewBox="8.3 308.6 777.4 41.2" version="1.1" id="svg1" xmlns="http://www.w3.org/2000/svg" xmlns:svg="http://www.w3.org/2000/svg"><path fill="currentColor" stroke="currentColor" stroke-width=".09" d="M343.6 308.6h7.7v36.7h-7.7zm87.9 0h7.7c-.1 1.7-.1 3.4-.1 5q4.8.15 9.6 0v6.7c-3.2 0-6.4-.1-9.6 0 .2 5.3-.2 10.7.4 16l2.2 2.2c2.3.2 4.7.3 7 .4v6.5c-3.6-.2-7.2.3-10.8-.4-3.7-.8-6.4-4.2-6.4-8 0-9.5.1-19 0-28.4Zm269.4 0h7.8c-.1 1.7-.1 3.4-.2 5.1h9.9v6.6h-9.8v15.2c1 1 1.9 2 2.9 3.1 2.3.1 4.6.2 6.9.2v6.6c-3.6-.1-7.1.1-10.6-.2-2.7-.6-4.9-2.5-6.1-4.9-.9-3.4-.9-6.9-.8-10.3zM8.3 321.9c-.1-3.5 2.5-7 6-7.8 1.5-.5 3.1-.4 4.7-.4h28.5v6.5H23c-1.4 0-2.9 0-4.3.4-1.2.9-2.1 2-3.1 3 .1 3.9 0 7.8 0 11.7.9 1 1.8 2.1 2.6 3.1 4.6.7 9.2.4 13.8.5 3.1-.1 6.4.3 9.3-.9v-4.9c-1.3-.5-2.8-1-4.3-.9H19.3v-5.3c8.1.3 16.3-.8 24.3.7 4.5 1.9 4.1 7.3 3.9 11.5 0 2.3-1.8 4-3.2 5.6-6.7 1.1-13.5.4-20.3.6-3.8-.1-7.9.6-11.5-1a8.3 8.3 0 0 1-4.2-7.3zm46-1.6v-6.6c9.5.1 19.1 0 28.7 0 1.9 0 3.7.2 5.5.9 2.3 1 3.5 3.3 4.8 5.4.1 6.3.1 12.7 0 19-1.1 1.9-2.2 4-4.2 5.1-2.4 1.5-5.4 1.2-8.1 1.2-6.7-.1-13.4.1-20 0-2.8 0-5.7-1.7-6.6-4.4-.3-2.9-.2-5.9-.1-8.9.2-1.9 1.6-3.4 3.2-4.3 2.4-.8 5-.8 7.5-.8h17.5v5.3c-7.3.1-14.7-.3-22 .3v6.1c7.5.4 15.1.5 22.7-.1.7-.8 1.5-1.5 2.2-2.3.5-4.5.4-9.1.1-13.6-1.6-1.2-3.3-2.7-5.4-2.4-8.6 0-17.2 0-25.8.1Zm44.6 8.7c0-5.1-.2-10.2.3-15.3 9.3.4 18.7-.9 27.8.9 2.7-.3 5.3-1.1 8-.9 4.6.2 9.2-.4 13.7.4 3.3.4 5.1 3.3 6.6 5.9.1 8.4 0 16.9 0 25.3h-7.6c-.1-7.5.3-15-.3-22.5-.7-.8-1.5-1.5-2.2-2.3-3.9-.4-7.9-.4-11.8 0-.9 1.3-2.2 2.6-2.3 4.4-.4 6.8.2 13.6-.3 20.5-2.5-.1-5-.1-7.5-.1.1-7.3 0-14.6.1-21.9-1.4-1.2-2.5-3-4.5-3.1-4.1-.2-8.2 0-12.4-.1.1 8.4 0 16.7.1 25.1-2.5 0-4.9 0-7.4.1-.5-5.5-.3-10.9-.3-16.4Zm66.6-14.4c3-1.2 6.3-.9 9.5-.9 6 0 12-.1 18 0 2.7-.1 5.2 1.5 6.4 3.9.8 3.5.8 7.3 0 10.8-1.2 2.9-4.5 3.8-7.4 3.8-6.8.1-13.6 0-20.4 0 0-1.7-.1-3.3-.1-5 7.3-.8 14.7.1 22-.6.1-2.1.1-4.1 0-6.1-7.7-.4-15.4-.5-23.1.1v.5c-.9 1.2-2 2.4-2 4-.3 3.7-.1 7.5.1 11.3 1.6 1.2 3.2 2.6 5.4 2.4 8.6.1 17.3 0 25.9 0q.15 3.3 0 6.6c-10.3-.2-20.5 0-30.8-.1-4.3 0-8.1-3.8-8.2-8.1-.2-5.7 0-11.5-.1-17.2 1.3-2.1 2.5-4.4 4.8-5.4Zm49.8 6.3c.3-4.2 4.5-7.4 8.6-7.2 7.7-.1 15.4 0 23.1 0 2 1.3 4.5 2.7 4.6 5.3.1 4 .2 8-.1 12-.8 2.7-3.6 4.8-6.4 4.6-5.9.1-11.7-.1-17.5.1v-5.3c5.9-.1 11.8.3 17.6-.2.5-3.2.2-6.5.2-9.7-6.8-.4-13.7-.6-20.4.1-.8 1.1-1.6 2.1-2.4 3.2-.1 7.2-.1 14.4 0 21.5-2.4 0-4.9 0-7.3.1.1-8.2-.1-16.3 0-24.5Zm42.1 0c.3-4.2 4.5-7.2 8.5-7.2 8.5-.1 17 .1 25.4-.1 2.3.7 4.7 1.6 6.1 3.7 1.7 2.2 1.2 5.1 1.3 7.7-.1 5.3.3 10.7-.4 15.9-1.3 1.2-2.4 2.5-3.9 3.5-2.6 1.2-5.6.9-8.4 1-6.7-.1-13.4 0-20-.1-3.2 0-6.5-1.5-7.8-4.6-1.2-2-.8-4.5-.9-6.7.1-4.4-.1-8.7.1-13.1m8.1.8c.1.4.2 1.3.2 1.7h-1.1q.15 6 0 12c1.4 1.2 2.5 3.4 4.6 3.3 4.3.3 8.5.1 12.8.1 2.1 0 4.3.2 6.4-.4 1.1-.8 2-1.9 3-2.8v-12.2c-1-1-1.9-2-3.1-2.8-3-.7-6.2-.3-9.3-.4-4.5.2-9.3-.8-13.5 1.5Zm43.3-7.2c2.4-.5 4.8-.9 7.2-.8h22.4c0 2.2 0 4.4-.1 6.6-7.9 0-15.9-.3-23.8.2-1 1.3-2.2 2.6-2.7 4.2-.1 2.8.1 5.6 0 8.4-.3 2.3 1.5 3.8 2.7 5.5 8 .7 16-.3 23.9.6 0 2.1 0 4.1-.1 6.1H314c-3 .1-6.5-.9-8.1-3.6-2.1-2.8-1.2-6.5-1.4-9.7.2-4.4-.5-8.8.6-13.1.1-.2.1-.7.1-1 1.2-1.1 2.4-2.3 3.6-3.4Zm56.6 16.9c3.4-5.9 6.7-11.9 10.3-17.8 3.6.1 7.1.1 10.6.1-.8 1.3-1.6 2.7-2.4 4.1-3.2 5.4-6.2 10.9-9.5 16.3 2.7 3.7 5.5 7.4 8.1 11.2-3.5 0-7 0-10.5.1-2-2.8-4-5.5-6-8.3h-9.7c0-1.9 0-3.9-.1-5.8 3.1.1 6.1.1 9.2.1Zm21.1-11.4c.8-3.8 4.6-6.4 8.5-6.3q11.55-.15 23.1 0c3.2-.1 6.6 1.9 7.2 5.2.4 3.1.4 6.2-.4 9.2 0 .2-.1.7-.2 1-1.8 1.8-4 3.2-6.7 3.1-6.9.1-13.9 0-20.8.1-.1-1.9-.1-3.7 0-5.5 5.9 0 11.9.1 17.8 0 1.5.1 3-.4 4.3-1 0-1.1.1-3.3.1-4.4-2.2-1.6-4.9-1.1-7.4-1.2-4.6.1-9.3-.1-13.9.2-2.1-.1-3.1 2-4.5 3.2.1 3.9 0 7.8 0 11.7.9 1 1.9 2.1 2.8 3.2 9.6.7 19.4.1 29.1.3v6.5c-10.2 0-20.4.1-30.6 0-2.9.1-5.5-1.5-7.5-3.5-1.5-3.4-1-7.2-1.1-10.8.1-3.6-.1-7.3.2-11Zm82.9-5.5c2.4-1.1 5-.8 7.6-.9 7.1.1 14.2 0 21.3.1v6.6c-7.8.1-15.7-.3-23.6.2-.7.7-1.5 1.4-2.3 2.1-.4 3.8-.6 7.7-.3 11.5 0 1.8 1.4 3.1 2.3 4.5 8 .4 15.9.1 23.9.2v6.5c-8.4 0-16.9.1-25.3 0-4.2 0-8.3-3.1-8.5-7.4-.1-5.3-.1-10.6 0-16a7.9 7.9 0 0 1 4.9-7.4Zm34.2 3.8c1.5-3.2 5.1-4.8 8.4-4.6h23c4.6-.4 9.2 3.5 9.3 8.2.1 5.7 0 11.4 0 17.1-1.2 2-2.4 4.4-4.7 5.4-2.3 1.2-5.1.9-7.6 1-7-.1-14 0-21.1-.1-3.1.1-5.7-2-7.6-4.3-1.2-4.9-.6-10-.7-15 0-2.6-.3-5.3 1-7.7m9.2 2.2-2.3 2.3c-.4 4.5-.4 9 0 13.4l2.3 2.3q10.65.75 21.3 0c.8-.8 1.5-1.6 2.3-2.4.4-4.5.3-9.2 0-13.8l-1 .4.1-1.2h-1.1l.2-.9c-7.3-.5-14.5-.5-21.8-.1Zm36.1 8.5c0-5.1-.3-10.3.3-15.4 9.3.5 18.7-.8 27.8 1 6.6-1.4 13.4-.9 20.1-.9 4.3.1 8.1 3.9 8.2 8.2.1 7.8 0 15.6.1 23.4h-7.7c-.1-7.6.2-15.3-.3-22.9l-.5.1c-.9-.8-1.6-2-2.9-2.1-3.5-.3-7.1-.1-10.5.1-1 1.3-2.4 2.5-2.4 4.4-.3 6.8.3 13.7-.3 20.5-2.5-.1-5-.1-7.4 0 .1-7.3 0-14.6 0-21.9-1.4-1.2-2.4-3.2-4.5-3.1-4.1-.3-8.3-.1-12.5-.1.1 8.3 0 16.7.1 25-2.4 0-4.8 0-7.3.1-.6-5.4-.3-10.9-.3-16.4Zm61.4-7.9c.2-4.3 4.5-7.6 8.6-7.4 8.1-.1 16.1 0 24.1 0 3.5-.3 6.9 1.8 8.4 4.9 1.3 3.7.7 7.6.8 11.4 0 3.5.4 7-.8 10.4-1.3 2.7-4.2 4.9-7.3 4.9-7.5.1-15 0-22.5 0 .1-2.1.1-4.3.1-6.5 6.1-.1 12.3.1 18.4-.1 1.8 0 2.9-1.5 4.3-2.4.1-4.1.4-8.2 0-12.2-.5-1.3-1.3-2.4-2-3.6-6.8-.4-13.6-.3-20.4-.1-2-.1-3 2-4.4 3.2.2 8.7-.1 17.5.2 26.2-2.6-.1-5.2-.1-7.8-.1.2-9.6-.3-19.1.3-28.6Zm46.3-7.4h7.8c0 7.4-.2 14.9.1 22.4l2.4 2.4c6.2.5 12.5.3 18.7.1 1.2-1.7 3-3.3 2.7-5.5q.15-9.75 0-19.5c2.5.1 4.9.1 7.4 0-.4 9.1.4 18.3-.4 27.3-2.1 2-4.2 4.4-7.2 4.4-7.7.1-15.5.1-23.2 0-4.3 0-8.2-3.9-8.2-8.2-.2-7.8 0-15.6-.1-23.4Zm71.2.8q3.6-.9 7.2-.9c7 .1 14 0 21.1.1 2.5-.1 4.4 1.7 6.2 3.3.5 3.6.9 7.3 0 10.9-.9 2.6-3.6 4.3-6.3 4.3-7.2.2-14.4 0-21.6.1v-5.5H751c1.8 0 3.7.2 5.2-.8.2-1.7.2-3.6.2-5.4-7.5-.6-15.1-.3-22.6-.1-.8.7-1.6 1.5-2.3 2.2-.4 4.5-.4 9.1 0 13.6l2.2 2.2c9.7.5 19.4.2 29 .2.1 2.2.1 4.5.1 6.7-9.6-.1-19.2 0-28.8 0-2.1 0-4.2-.4-6.2-.8-1.7-1.6-3.6-3.2-4.1-5.6-.4-3-.2-6-.2-9 .1-4-.4-8.2.8-12.1 1.2-1.1 2.4-2.3 3.5-3.4Zm45.1 0c4.2-1.2 8.5-.8 12.8-.9v6.7c-2.3 0-4.6 0-6.9.2l-2.3 2.3c-.5 7.5-.2 15-.2 22.5-2.6.1-5.2.1-7.8.1V329c0-3.7-.2-7.4.8-11 1.2-1.1 2.4-2.3 3.6-3.5Z" id="path1" style="fill:#ffffff"/></svg>