<svg xmlns="http://www.w3.org/2000/svg" viewBox="0 0 264 29"><path d="M22.5 8.68a10 10 0 0 0-8.16-4.29c-5.52 0-10 4.53-10 10.1 0 5.59 4.48 10.11 10 10.11a10 10 0 0 0 9.06-5.83h-8.82v-4.6h14.1v.33q0 2.23-.63 4.27A14.4 14.4 0 0 1 14.35 29C6.41 29 0 22.5 0 14.5S6.42 0 14.34 0c5.87 0 10.92 3.57 13.14 8.68zM43.9.29 25.76 27.88h5.61l3.87-5.9h8.64v5.9h4.68V.29zm-5.55 16.97 5.54-8.43v8.43zM85.17.29 72.67 19.3V.29H68L49.87 27.88h5.62l12.5-19.05v19.06h4.68v-.04l12.5-19.02v19.06h4.67V.29zm22.65 4.72V.3h-14.2v27.6l4.67-.02h9.53v-4.72h-9.53v-6.43h9.53V12h-9.53V5.01zm29.75 13.79 3.75-8.53h-4.58l-2.42 5.5-3.6-3.35c1.66-1.34 3.1-3.03 3.1-5.85 0-1.51-.6-2.94-1.66-4.03a6.7 6.7 0 0 0-4.72-1.93c-3.08 0-6.28 2.23-6.28 5.96 0 2.6 1.42 4.28 2.83 5.53-2.6 1.86-4.88 3.85-4.88 7.94 0 2.32.84 4.44 2.34 5.97a8.3 8.3 0 0 0 6 2.38c4.42 0 6.62-2.16 8.3-5.52l5.44 5.08 2.85-3.1zM125.8 5.5c.4-.41 1.03-.66 1.65-.66.66 0 1.33.27 1.76.7q.43.44.43 1.03c0 1.19-.56 1.84-2.1 2.99-1.35-1.1-2.18-1.85-2.18-2.99q0-.63.44-1.08m6.65 14.56c-1.44 3.26-2.47 4.1-5 4.1-1.24 0-2.28-.4-3.02-1.14a4 4 0 0 1-1.11-2.97c0-2.23 1.13-3.1 3.91-5.06l.05-.03 5.26 4.91zM197.4.97l-18.12 27.59h5.6l3.88-5.9h8.64v5.9h4.67V.97zm-5.54 16.97 5.54-8.43v8.43zm-32.7 10.63 12.5-19.03v19.03h4.67L194.45.98h-5.61l-12.51 19.04V.97h-4.68V1l-12.49 19.02V.97h-4.67v27.6zM259.33.97v11.1h-8.44V.98h-4.68v27.6h4.68V16.8h8.44v11.75H264V.96zm-40.17 0H203.9v4.72h5.3v22.87h4.67V5.7h5.28z" style="fill-opacity:1;fill-rule:nonzero;stroke:none;fill:#fff"/><path d="M239.6 21.13a9.7 9.7 0 0 1-7.28 3.28 9.86 9.86 0 0 1-9.8-9.91 9.86 9.86 0 0 1 9.8-9.91 9.7 9.7 0 0 1 7.2 3.28H245A14.4 14.4 0 0 0 232.32.02 14.4 14.4 0 0 0 218 14.5c0 8 6.41 14.48 14.32 14.48 5.55 0 10.35-3.2 12.74-7.85z" style="fill-opacity:1;fill-rule:nonzero;stroke:none;fill:#fff"/></svg>