<?xml version="1.0" encoding="UTF-8" standalone="no"?><svg viewBox="0 0 2386 374" version="1.1" id="svg2" xmlns="http://www.w3.org/2000/svg" xmlns:svg="http://www.w3.org/2000/svg"><path fill="currentColor" stroke="currentColor" stroke-width=".09" d="M282.4 0h8.2c12.1.7 24.3 1.3 36.1 4.4 20 4.6 39.8 13.7 53.8 29.1C394.4 48 402.4 67.4 405.7 87c.5 3.6 1 7.2 1.6 10.7-32.1 12.1-64.2 24.1-96.3 36.1-.6-11.4-3-23-8.9-32.9-4.1-6.4-9.3-12.4-16.1-16-11.9-6.4-25.8-7.3-39-6.2-19.6 2.2-38.3 10.4-54 22.2-9.1 6.4-17.1 14.3-24.7 22.4-10 11.3-18.5 23.9-26 37-10.5 19.7-18.4 41.2-20.1 63.6-1 10.6-.7 21.5 2.2 31.8 3.4 13.2 11.9 25 23.1 32.8 12.3 8.5 28 9.5 42.5 8.6 6.4 0 12.7-1.5 19-2.9 13.1-3.7 25.7-9.5 36.3-18 7.7-6.6 14.8-14 20.1-22.8 3.5-5.1 6-10.8 8.8-16.4H202c8.2-23.8 16.4-47.5 24.8-71.3 53.9.1 107.8 0 161.8 0 18.1-51.9 36-103.8 54.2-155.7 39.1.1 78.1 0 117.2 0 13.7 0 27.5-.3 41.2.7 16.2 1.7 33 4.3 47.4 12.7 5.7 3 10.2 7.9 14 13 5.2 7 7.6 15.7 8.3 24.3 6.8-5.8 13.4-12 20.8-17 16.8-11.9 35.4-21.5 55.3-26.9 20.7-5.7 42.8-7.2 64-3.5 15.8 3.4 31.4 10.2 42.4 22.3C859 42.4 864 49.7 866.9 58c1.9 5.2 3 10.6 3.7 16.1 7.2-20.7 14.5-41.4 21.6-62.1H1010c11.3-.1 22.7.2 34 2 11.5 2.1 23.2 5.3 33.3 11.6 1.5-4.3 3-8.7 4.4-13.1h91.3c-31 90.7-62 181.5-93 272.3 27-.1 54 0 81-.1 3.7 0 7.4.3 11-.1 2.2-1.7 3.5-4.3 5.2-6.5 57.8-79.5 115.7-158.9 173.5-238.4 6.6-9.1 13.3-18.1 19.7-27.2 33.1.1 66.3-.1 99.4 0l.1-1.4c.4 2.6 1 5.2 1.2 7.9 4 92.7 8.2 185.3 12.3 278 .6 12.2.9 24.5 1.8 36.7 15-44.5 29.7-89.2 44.6-133.8.6-1.9 1.5-3.8 1.7-5.9-.6-3.5-2.1-6.8-3.2-10.2-17.7-52.4-35.3-104.7-53-157.1-1.4-4-2.5-8.1-4.3-11.9-.1-1.2-.1-2.5-.1-3.7l.3 1.4c34.2-.1 68.3 0 102.5 0 1.2 4.9 2.9 9.7 4.4 14.5 8.5 26.8 17.1 53.6 25.6 80.4 18-17.9 35.6-36.2 53.4-54.3 13.3-13.6 26.7-26.9 39.9-40.6 14-.1 28 .2 42-.3 22.7.2 45.3-.2 68 .3h103c7.7.1 15.3-.5 23 0h108c17.6-.2 35.4.2 52.4 4.9 10.5 2.8 20.7 7.1 29.1 14 7.7 6.6 14.2 15 17.2 24.8 3.2 9.2 3.7 19 3.5 28.6 4.9-8.1 11.4-15 17.4-22.3 6.5-6.5 13.1-13 20.4-18.6 5.3-4.8 11.6-8.3 17.6-12.2 19.3-11.8 41-19.7 63.4-22.7 19.3-2.9 38.9-1.5 58 2.2 9.7 2.4 19.4 4.8 28.9 8.1 11.3 4.4 22.3 9.7 32.3 16.7-20.2 23.6-40.7 46.9-60.8 70.5-15.3-18.3-41.2-26.8-64.4-21.6-12.5 3.3-24.7 9.9-32.4 20.7-3 5.2-5.3 11.2-4.9 17.3 2 9.3 10.5 15.1 18.6 18.7 16 6.8 33.1 10.8 48.7 18.5 10.9 5.9 22.3 12 29.6 22.4 5.7 7.3 9.2 16.3 9.6 25.6 1.7 14.9-2.3 29.7-7.7 43.6-2.6 6.3-4.7 12.7-8 18.7-7.3 14.6-15.5 28.7-25.6 41.5-18.3 21.2-42.2 37.5-68.2 47.9-11.8 5.1-24.4 7.9-37 10.8-6.2 1.4-12.7 1.8-18.9 3.4h-39.9c-13.7-2.1-27.4-4.8-40.5-9.6-3-1.2-6-3-9.4-2.9-33.2 0-66.5-.1-99.7.1-9.3-35.2-18.7-70.4-28-105.6-2.6-9.9-5-19.8-7.9-29.5-2.2 4.3-3.6 9-5.2 13.5-12.5 34.7-25 69.3-37.4 103.9-2.1 5.9-4.3 11.7-6.2 17.7-22.9-.2-45.7 0-68.6-.1-8.3-.2-16.7.5-25 0-61.1 0-122.3-.1-183.4.1.6-1.7 1.3-3.3 1.9-5 27.9-77.5 55.7-155 83.5-232.6 1.1-3 2.2-6.1 3.2-9.2-26 25.8-51.8 51.8-77.8 77.6a7.7 7.7 0 0 0-2.3 3.6c-18.4 55.2-36.6 110.5-55.2 165.6-24-.1-47.9-.1-71.9-.1q-9 .45-18 0h-83.8c-.7-20.1-1.7-40.3-2.4-60.5H1259c-14.4 19.4-28.8 38.6-43.1 58-1 1.2-2 2.9-3.9 2.5h-42c-20.7.4-41.3.4-62 0-48.5.1-96.9-.1-145.4.1 15-43 29.4-86.1 44.2-129.1-6.8 2.5-13.4 5.3-20.4 7-19.6 5.4-40.2 6.1-60.4 6h-32.3c-13.1 37.6-26.3 75.1-39.4 112.6-.7 1-.6 3.2-2.2 2.9-26 .1-51.9 0-77.9 0-.3.5-.8 1.5-1.1 2H523c4.8-3.9 9.6-7.7 14.3-11.6-21.3 5.5-43.4 6.9-65.3 7.6-50.3 0-100.5.1-150.8-.1 11.1-31.4 22.1-63 33-94.6-5.9 7.7-11.5 15.7-18.3 22.7-9.2 10.4-19.6 19.7-29.9 29.1-21.5 17.7-45.4 33.1-71.9 42.1-20 7.2-40.9 11.6-62.1 13.3-25.6 1.3-52 0-76.3-9.3-12.4-4.5-24-11.2-34.1-19.8C47.7 331.2 38 315.6 32 299c-7.7-22.4-8.2-46.7-4.6-70 2.2-16.9 7.3-33.2 13.4-49.1 2.4-6.2 4.6-12.5 7.6-18.5 3-6.3 5.7-12.8 9.2-18.8 3.5-5.9 6.7-11.9 10.4-17.6 4.8-7.2 9.1-14.6 14.8-21.1 11.7-15.2 25.2-29 39.6-41.6 6-4.6 11.4-9.9 17.8-14.1 5.5-3.7 10.9-7.8 16.8-11.1 5.8-3.3 11.3-7 17.4-9.7 6.8-3.2 13.5-6.8 20.6-9.3C215.6 10 237 4 259 1.7 266.8.4 274.6.6 282.4 0m-36.5 12.9c-6.4 1.8-13 2.6-19.3 4.6-4.9 1.5-9.8 3.1-14.7 4.4-6.9 2.8-14 5.2-20.9 8.2-5.3 2.7-10.8 5.1-16.2 7.7-8.7 5.2-17.7 10-25.9 16-7.3 4.6-13.5 10.5-20.2 15.8-5.4 5-11 9.8-16.1 15-5.4 5.3-10.3 11.1-15.4 16.7-5.2 6.8-11.1 13.1-15.6 20.4-4.2 6.5-8.5 12.9-12.2 19.7-12.5 21.1-21.1 44.2-28.5 67.5-.8 4.7-2.3 9.2-3 14-.6 4.7-1.4 9.3-2 14-.3 4-.5 8.1-1 12-.4 6.7-.3 13.4.6 20 .1 5.9 1.7 11.5 2.4 17.2 1.1 3.3 2.1 6.6 3.1 9.9 3.5 8.4 7.3 16.9 12.8 24.2 7.3 10.3 17.5 18.1 28 25 8 4.4 16.4 8.1 25.1 10.8 2.4.6 4.7 1.3 7 2.1 3.3.5 6.7 1.1 10 2l6 .6c28.8 3.5 58.3 1.2 86.2-6.6 13.8-4.1 27.4-9.2 40.2-15.9 5-3 10.4-5.4 15.2-8.8 5.5-3.8 11.2-7.3 16.5-11.5 4.8-3.8 10-7.2 14.4-11.5 3-3 6.2-5.7 9.4-8.6 11.5-10.9 22.4-22.4 31.7-35.3 2.3-3.2 4.4-6.7 7.6-9.2 2.9-1.1 5.9-1.1 8.8 0 1.4 1.2 2.6 2.4 3.8 3.8.4 2 1.3 4 .7 6.1-1.9 7.2-4.6 14.1-7 21.1-7.5 21.7-15.2 43.2-22.5 65 47 0 94.1-.1 141.1 0 11-.5 22-1.2 33-2.4 7.4-1.2 14.9-1.7 22.1-3.8 4.1-1.2 9-1.5 12.5 1.3 2.6 2.1 3.3 5.7 3.2 8.9 70.4-.1 140.8 0 211.2 0 3.4-.1 6.7.2 10.1-.2 2.6-.6 5.1-1.9 7.9-1.8 23.4-.1 46.8 0 70.3-.1l.4-.4c6.4-18.3 12.8-36.6 19.2-54.8 2.3-6.7 4.7-13.4 7-20 4-11.3 7.9-22.7 12-34 1.3-3.9 5.4-5.6 9.2-6.1 18.6-.5 37.3.4 55.9-.6 7.4-.1 14.8-1.4 22.1-2.2 10-1.7 19.7-5 29.1-8.7 3.1-1.1 6.7-1.8 9.7-.1 4.6 2 5.6 7.9 4.5 12.3-1 3.5-2.3 6.8-3.4 10.3-.4 1-.7 1.9-1.1 2.9L998 287.9c-.4 1-.7 1.9-1.1 2.9L984 328.9c-.4 1-.7 1.9-1.1 2.9-2.2 6.7-4.5 13.4-6.9 20 44.7-.2 89.3 0 134-.1 2 0 4 .1 5.9.5 14 .2 28.1 0 42.1.1 3.7.1 7.3-.6 11-.6 13.4.1 26.8 0 40.2.1 14-18.6 27.8-37.3 41.7-55.9 2.5-3.6 7-4.7 11.1-4.7 40.3.1 80.7 0 121 .1 4.2.2 9.3 1.3 11.2 5.6 2 4.8 1.3 10.1 1.6 15.1.6 8.3.9 16.7 1 25 .4 4.9.7 9.8.7 14.8 22.8-.1 45.7 0 68.5 0 3.3-.1 6.6-.1 9.9.3 5 .5 10.1 0 15.1-.3 21.4 0 42.8-.1 64.1 0 6.5-18.8 12.6-37.7 19-56.6 7.9-24 16-48 24-72 1.6-5.1 3.3-10.1 4.9-15.1 1.8-5.4 3.6-10.7 5.4-16.1 1.4-4.4 5-7.4 8.1-10.5 23.9-23.8 47.8-47.6 71.6-71.4 2.3-2.2 4.9-4.3 8.1-4.8 4-.5 8.6 1.7 9.8 5.7 1.7 3.6 0 7.4-1 10.8-15.7 43.7-31.3 87.4-47.1 131-4.6 13-9.3 26-14 39-7.2 20-14.2 40.1-21.6 60 56.9 0 113.8-.1 170.7 0q7.5.9 15 0c23.7-.1 47.4 0 71.1 0 1.7-6.4 4.4-12.4 6.4-18.6 13.1-36.2 26-72.5 39.1-108.7 1.9-6 9.9-8.6 15.2-5.3 2.8 1.4 3.9 4.6 4.6 7.4 1.6 5.8 3.1 11.7 4.6 17.5 1.4 5 2.7 10 4 15 .3 1.3.6 2.7 1 4 1.4 5 2.7 10 4 15 1.4 5 2.7 10 4 15 .3 1.3.6 2.7 1 4 1.4 5 2.7 10 4 15 1.4 5 2.6 10 4 15 .3 1.4.6 2.7 1 4 1.4 5 2.7 10 4 15 .5 1.9.9 3.8 1.3 5.6 28.2.1 56.5 0 84.7.1 4 0 8-.3 12 .5 3.5.6 6.8 2.2 10 3.7 4.3 1.4 8.6 2.6 12.9 4 3 .6 6 1.2 9 2.1 7 1 14 2.4 21.1 2.2 10.3-.1 20.7 0 31-.1 9.8-1.3 19.5-2.8 29.1-5.2 1.3-.3 2.7-.7 4.1-1 2.2-.7 4.5-1.4 6.8-2 9.4-2.7 18.3-6.6 27-11 11.4-5.4 22-12.4 31.8-20.2 4.2-4.1 9-7.6 13.1-11.9 8.3-8.3 15-18.1 20.8-28.2 4.9-7.7 8.9-15.9 12.9-24.1 4.4-11 9.3-21.9 11.4-33.7 1.1-7.6.9-15.4.1-23-.4-2.5-1.3-4.8-2-7.2-1.9-3.3-3.6-6.8-6.1-9.7-4.1-5.6-10.2-9.2-15.8-13.2-4-2-7.9-4.3-11.9-6.3-9.2-4-18.6-7.5-28.2-10.6-1-.3-2-.6-2.9-.9-8.8-3.1-17.8-6.1-25.4-11.7-8.5-5.7-14.8-15.9-13.5-26.4 1.4-7.9 4-16 9.6-22 4.1-4.5 8.8-8.6 14.2-11.8 15.9-9.5 35.7-13.3 53.8-8.1 8.5 1.4 16.3 5.2 23.8 9.4 3.2 1.9 5.8 4.8 9.2 6.5 3.2-2.8 5.5-6.4 8.5-9.5l38.4-44.4c-5.2-2.5-10.2-5.3-15.5-7.4-6.1-3-12.8-4.5-19.2-6.7-6.6-1.4-13.1-3.7-19.8-4.4-5.8-.7-11.5-2-17.3-1.9-5.1.1-10.1-1.2-15.1-.5-4.6.6-9.4.4-14 .9-5.7 1-11.4 1.7-17 2.9-2.3.8-4.7 1.5-7 2-5.6 1.4-10.8 3.7-16.1 5.7-6.7 2.4-12.7 6.1-19 9.2-7.2 4.8-14.8 9-21.2 14.8-5.4 3.9-9.7 9-14.6 13.4-5 4.4-8.8 9.9-13.2 14.8-3.8 4.1-5.9 9.9-10.9 12.9-2.9 1.1-6 1-8.8 0a27 27 0 0 1-3.8-3.8c-1.9-7.6.1-15.6-1.8-23.2-2.1-14.7-12.3-27.3-25.3-33.9-18.2-9.4-39.1-10.6-59.2-10.6h-106c-4.3 0-8.6.2-12.9-.3-4-.5-8.1.2-12.1.3h-113c-1.3 0-2.6-.1-3.9-.4-21-.2-42.1 0-63.1-.1-11.9 1-23.9.4-35.9.5-8.8 8.8-17.6 17.7-26.2 26.7-19.1 19.6-38.5 38.8-57.5 58.5-3 3-5.7 6.6-9.6 8.4a9.9 9.9 0 0 1-11-1.6c-1.5-1.5-2-3.5-2.6-5.4-5.7-17.9-11.5-35.9-17.2-53.8-.4-1.1-.7-2.1-1-3.1-1.4-4.3-2.8-8.6-4.1-12.9-.7-2-1.3-4-1.9-6.1-.4-1-.7-2-1-3.1-.8-2.4-1.5-5-2.3-7.4-27.6-.4-55.2-.1-82.8-.2 3.9 12.1 8.1 24 12 36 .4 1 .7 2 1.1 2.9.3 1 .6 2 1 3 .3 1 .6 2 1 3l24.9 74.1c.4 1 .7 1.9 1.1 2.9.3 1 .6 2 1 3 .3 1 .6 2 1 3 .3 1 .6 2 1 3 .3 1 .7 2 1 3 .3.9.7 1.9 1 2.9.7 2 1.3 4 2 6 .3 1 .7 2 1 3 2.3 6.7 4.6 13.5 6.9 20.2 1.1 3.3 1.8 6.7.5 10-15.3 46.3-30.8 92.6-46.2 138.8-.5 2.5-2.3 4.2-4.3 5.7-2.9 1.1-5.9 1.1-8.9 0-3.5-2.4-5.3-6.5-5.7-10.6-.2-6.7-.9-13.4-1-20.1.1-9.3-1.2-18.6-1.1-28-.5-8-1-16-1-24-.6-7.3-.9-14.7-1-22-.6-7.7-.9-15.3-1-23-.6-7.3-.9-14.7-1-22-.6-7.7-.9-15.3-1-23-.6-7.3-.9-14.7-1-22-.6-7.3-.9-14.7-1-22-.6-7.7-.9-15.3-1-23-.6-7.3-.9-14.7-1-22-.6-7.7-.9-15.3-1-23-.6-7.3-.9-14.7-1-22-.3-4.6-.7-9.2-.7-13.8-28.8.1-57.6 0-86.4.1-.8 1.1-1.6 2.3-2.4 3.5-62.8 86.2-125.5 172.4-188.2 258.6-2.5 3.2-4.5 7.2-8.3 8.8-2.3.9-4.8 1.3-7.2 1.3h-86c-3.4 0-7-.6-9.5-3-1.8-1.8-2.5-4.2-2.9-6.6.2-2.6 1.1-5.2 1.9-7.6l7.5-22.2c.4-1 .7-1.9 1.1-2.9 4.3-12.7 8.6-25.4 13-38.1.3-1 .6-1.9 1-2.9 4.3-12.7 8.6-25.4 13-38.1 4.3-12.6 8.6-25.3 12.9-38 .4-1 .7-1.9 1.1-2.9 4.6-13.7 9.3-27.4 14-41 4.3-12.7 8.6-25.4 13-38.1.3-1 .6-1.9 1-2.9 3.2-9.3 6.2-18.7 9.6-28H1097c-2.9.1-5.7-.1-8.5.2-.7 1.4-1.1 2.9-1.5 4.4-.8 2.4-1.9 4.9-4.1 6.3-3.5 2.2-8.3 2.3-11.8 0-5.3-3.2-11.2-5.3-17.1-7.2-9.7-2.9-19.9-3.5-30-4.2-41.7 0-83.4.1-125.1 0-4.2 12.8-8.9 25.5-13.3 38.3-2.4 6.6-4.3 13.4-7.2 19.8-.6 1.7-2.2 2.7-3.5 3.9-2.9 1.1-5.9 1-8.8 0-1.4-1.2-2.6-2.4-3.8-3.8-.4-2-.9-4-1.3-6s-.6-4-.9-6c-3.5-12.7-10.8-24.6-21.5-32.6-8.2-6-17.8-9.8-27.5-12.4-7.6-1.3-15.3-1.7-23.1-2.1-6 .5-12.1.5-18.1 1.1-5.7.9-11.4 1.7-17 3-6.3 2-12.8 3.5-18.8 6.3-4.5 2.1-9.3 3.8-13.7 6.2-7 4-14.2 7.5-20.6 12.4-9 5.7-16.5 13.4-24.9 19.8-2.9 1.2-5.9 1.1-8.8.1-1.4-1.2-2.6-2.4-3.8-3.8-1.1-4.3-1.3-8.7-2.2-13-1.6-4.7-3.7-9.3-7.1-13-5.9-8.1-15.8-11.9-25-14.9-12.4-3.4-25.2-4.7-38-5.3H458c-2.9.1-5.9-.1-8.8.2-6.1 18.8-12.8 37.3-19.3 55.9-1.2 3.8-2.5 7.5-3.9 11.2-2.9 8.7-5.9 17.4-9 26-.6 2-1.3 4-2 5.9a1599 1599 0 0 1-7 20.1c-3 8.6-6 17.3-9 25.9-.8 2.7-1.9 5.3-3.6 7.6-3 2.2-6.7 3-10.4 3H241c-2.5 0-5.1-.1-7.6.1-.9 1.2-.9 2.8-1.4 4.2-4.3 12.4-8.7 24.8-13 37.2-1.2 3.4-2.4 6.9-3.6 10.3 18.5-.1 37.1 0 55.6-.1 3.6.1 7.7.7 10.1 3.7 2.7 3 3 7.4 1.5 11-6.8 14.2-15.3 28-27.4 38.3-11.8 11.2-26.9 18.1-42.3 22.9-4.7 1-9.4 1.9-14.1 2.9-4.9 1.1-9.9.5-14.9 1.1-6.9-.1-14-.3-20.8-2.1-8.5-1.6-16.8-5-23.6-10.4-3.7-3-7.6-5.8-10.3-9.8-6-6.9-10.8-15.1-13.2-24-2.6-8.3-4.1-17.1-3.7-25.8-.2-7.7.3-15.3 1.7-22.9 2.9-15.8 7.5-31.3 14.6-45.7 5.2-12.3 12.8-23.4 20.4-34.3 5.4-7.2 10.7-14.6 17.4-20.7A148 148 0 0 1 205.1 82c10.8-6 22.9-9.6 35-11.9 16-3.2 32.8-1.3 47.8 5 7.5 3.6 14.3 8.9 18.9 15.9 5.9 7.2 9.1 16.1 11.3 25.1.3 1.5.6 3 .8 4.5 10.7-4.1 21.6-8 32.3-12.1 2.7-.9 5.4-2 8-3 5.4-2 10.7-3.9 16-6 7.2-2.4 14-5.7 21.3-7.5-.1-3.5-.7-6.8-1.4-10.1-1.4-6.2-3.8-12.1-5.9-18-2.4-4.6-4.5-9.3-7.5-13.5-2.4-4.2-6-7.4-8.9-11.2-8-8.4-18.1-14.6-28.6-19.4-4.7-1.6-9.4-3.2-14-4.9l-4.1-.9c-1.3-.3-2.7-.7-4-1.1-16.2-2.8-32.7-3.9-49.1-2.6-9.1-.1-18.1 1.8-27.1 2.6Z" id="path1" style="fill:#ffffff"/><path fill="currentColor" stroke="currentColor" stroke-width=".09" d="M512.2 71.2c3.9-2.1 8.5-1.7 12.8-1.7 4.3.1 8.6.8 13 .8 6.7 0 13.4 1.1 19.9 2.7 4.9 1.3 9.4 3.7 13.5 6.7 3.6 2.7 5.9 6.7 8.2 10.5.5 1.9 1 3.9 1.4 5.9 1.7 6.3-.7 12.6-2 18.8-1.9 6.5-5 12.5-9.2 17.9-5.8 7.8-14 13.4-22.9 17.1-8.9 3.4-18.4 5.8-27.9 6-7.7.6-15.3 1-23 .8-2.2 0-4.4-.5-6.4-1.3-4.2-2.3-6.5-7.8-4.6-12.3 7.5-21.6 15.1-43.2 22.5-64.9 1-2.6 2-5.7 4.7-7m5.1 8c-7.8 22.6-15.6 45.2-23.6 67.8 4.8 0 9.6.1 14.4-.1 8.6-.6 17.4-.5 25.8-2.7 4.5-1.3 9-2.7 13.1-5 12.7-6 21.7-18.6 24.2-32.3.8-4.2 1.2-8.7-.4-12.7a21.8 21.8 0 0 0-10-9.9c-5.4-3-11.7-3.6-17.8-4.1-8.5-.4-17.1-1-25.7-1Zm1459.4.5c1.3-4.1 5-7 9.3-7.3 9.4-.6 18.7.4 28.1 1.2 9.6 1.4 19.6 3.7 27.3 9.9 5.5 4 8.6 10.3 10.7 16.6.5 2.6 1.1 5.3 1.4 7.9.3 5.5-1.1 10.8-2.4 16.1-2.9 8.7-6.5 17.5-12 25-2.8 2.9-4.9 6.4-8.1 9-6.7 5.5-14 10.5-22.3 13.4-13.9 5.3-28.9 7.1-43.7 7.2-4.8 0-9.9.7-14.4-1.3-4.2-2.3-6.5-7.8-4.6-12.2 3.6-10.4 7.4-20.7 11.1-31 6.4-18.2 13.1-36.4 19.6-54.5m9.3 2.3c-10.5 29-20.9 58-31.3 87 12.8 0 25.7.2 38.2-2.7 15.8-3.1 31-11.8 40.1-25.3 4.1-6.5 7-13.7 9.4-21.1 2.7-8.9 1.7-19.4-4.5-26.7-5.7-5.8-13.8-8.4-21.7-9.6-10-1.2-20.1-1.7-30.2-1.6ZM751 76.9c3-.5 6-.6 9-1 2.3.3 4.6.5 6.9 1 10.5 2.7 20.2 11.2 22.1 22.2 3.1 9.4 1.7 19.5-1 28.9-6.4 20.2-18.8 37.8-32.3 53.9-6.9 7.7-14.2 15-21.6 22.2-5.9 5.2-11.8 10.2-17.7 15.2-21.2 17.2-42.5 34.2-63.7 51.4-2.5 2.1-5.2 4-7.9 5.9-2.8 1.2-5.8 1.1-8.7.1-1.4-1.2-2.6-2.4-3.8-3.8-.3-1.6-.9-3.1-.9-4.8.8-4.3 3-8.2 4.3-12.3 1.6-5.2 3.3-10.3 4.3-15.6 1.6-10.3 2.3-21.1-1-31.2-1.8-5.8-5.5-10.8-10-14.9-5.5-4.5-12.2-7.2-18.9-9.2-5.2-1.5-10.7-1.9-16-3.3-2.3-1.7-4.9-3.5-5.5-6.6-1.6-5.1 2-10.4 6.7-12.4 6.9-3.1 13.5-6.5 19.9-10.4 3.3-2.3 6.4-4.9 9.6-7.4 4-3.6 7.1-8.2 11.6-11.4 2.9-1.6 6.3-1.9 9.6-1.9 17.1.1 34.2-.1 51.3.1 2.3-7.4 5.8-14.2 9.3-21 3.4-5.2 6.5-10.6 11.2-14.8A58.2 58.2 0 0 1 751 76.9M727 100c-2.1 2.2-4.4 4.3-6.3 6.7-7.5 10.3-13.1 22-16.1 34.5-20.9.2-41.8-.1-62.7.1-5.1 4.1-8.8 9.7-14.2 13.5-4.7 4.1-10.2 7.2-15.6 10.4-4.8 2.7-10.1 4.4-14.7 7.4 8.6 1.5 17.3 3.2 25.3 6.7 6.6 3 13.2 6.7 17.5 12.6 9.2 10.6 11.5 25.5 10.5 39.2-.7 12.4-4.8 24.3-8.9 35.9 20.4-16.3 40.7-32.8 61.1-49.2 8.4-6.8 16.8-13.7 24.8-21.1 7.3-7 14.3-14.4 21.3-21.7 10.1-12.3 19.7-25.3 26.1-40 2.8-6 5.1-12.3 5.7-18.9.7-7.9.3-16.7-5-23-3.9-4-9.1-7.4-14.9-7.5-12.6-.1-25.1 5.4-33.9 14.4Zm215.6-21.4c2.7-2.6 6.8-3 10.4-3.1 8.7.1 17.4-.1 26 .7a85 85 0 0 1 15.9 1.7c5.1 1.1 10.3 2.5 14.6 5.6 4.6 3.6 8.4 8.5 9.9 14.2 1.4 4.7 2.7 9.6 2.1 14.6-.7 5.3-1.9 10.6-3.5 15.7-3.1 10.3-7.3 20.5-13.8 29.2-4.4 6.5-10.9 11.2-17.5 15.4-5.1 3.3-11 4.8-16.8 6.4-14.7 3.7-29.9 2.5-44.9 2.7-3.9 0-8.4.6-11.6-2.1-3.5-3-3.9-8.3-2.2-12.4 8.9-26 17.8-52.1 26.9-78 1.4-3.6 1.9-7.7 4.5-10.6m6.8 6.6c-1.6 5.3-3.6 10.5-5.3 15.8-8.3 23.7-16.4 47.6-24.7 71.3 7.2-.1 14.4.1 21.6-.3 10.3 0 20.9-.1 30.8-3.4 8-2.1 15.1-7.1 21-12.8 7.7-8.2 12.2-18.6 15.7-29.2 1.9-6 3.7-12.3 3.4-18.7-.4-6.5-3.1-13.3-8.7-17.1-6.4-3.8-14-4.3-21.2-4.8-10.8-.9-21.7-.7-32.6-.8Zm839.1-2.7c2-1.3 4.2-2.3 6.6-2.6 25.3-.3 50.6 0 75.9-.1 7.6 0 15.3-.2 22.9.1 3.7.5 8 2.3 9 6.3 1.4 2.9.3 6.1-.6 9-5.9 16.7-12 33.4-17.9 50.1-1.2 3.1-1.9 6.5-4.2 8.9-2.7 2.6-6.6 3.3-10.2 3.3h-87c-3.3-.1-6.7.3-9.9-.6-3.4-.5-6.5-2.9-7.6-6.3-.5-2.2-.4-4.5.2-6.7 6.7-18.9 13.7-37.7 20.3-56.7.7-1.6 1.6-3.1 2.5-4.7m6.8 7c-1.9 6.5-4.6 12.8-6.7 19.2-4.8 13-9.3 26.1-14.2 39.1 33-.2 66 .1 99-.1 6.9-19.4 13.8-38.8 20.8-58.2zm-416.7 23c4-2 9.3-1.9 12.8 1.1 1.4 1.9 2.4 4.1 2.7 6.5.3 4.6.1 9.3.1 13.9v84c0 4.6.2 9.3-.1 13.9-.3 2.4-1.3 4.6-2.7 6.5a14 14 0 0 1-6.5 2.7c-23.6.4-47.3 0-70.9.2-3.4.1-6.7-.5-10-1.1a9.9 9.9 0 0 1-5.7-9.1c.3-3.9 3-6.8 5.1-9.8 23.4-34.3 46.8-68.5 70.1-102.8 1.5-2.1 2.7-4.7 5.1-6m3.8 10c-24.8 36.3-49.5 72.8-74.5 109.1 25.6-.1 51.1-.2 76.7 0-.3-37.3 0-74.6-.1-111.9-.6.7-1.6 2.1-2.1 2.8Zm729.6 27.2c2.3-.9 4.8 0 7.2.6 1.2 1.1 2.3 2.3 3.5 3.5.8 3 1.5 6.1 1.2 9.2-.4 3.7.9 7.4.9 11.1 1.6 5 3.7 10 7.2 13.9 6.8 8 16.3 13.2 26 16.8 11.1 4.9 22.7 7.9 34 12.2 12.4 3.7 25.2 9.1 33.5 19.5 4.6 6.6 7.8 15.2 5.5 23.3-1.1 5.7-3.5 11-6 16.1-3.8 5.8-8.2 11.2-13.4 15.7-17.6 14-41.6 18.9-63.5 14.3-5.1-.9-10.1-2.1-15-3.9-7.4-2.6-14.1-7-20.2-11.9-5.6-3.9-10.5-8.7-15.6-13.3-9.8 11.7-20.2 22.9-30.2 34.3-3.8 5-12.5 5-16.1-.1-1.7-2.9-2.6-6.2-3.9-9.2-10.3-26.4-20.6-52.7-31-79-1.5-3.6-1.1-8.1 1.7-11 1.7-1.7 4-2.4 6.3-2.9 1.6-.3 3.3-.6 5-.9 19.2-4.3 37.2-13.8 52-26.8 4.7-3.7 8.6-8.1 12.8-12.3 4.4-4.3 8.3-9.1 11.8-14.2 1.5-2.3 3.5-4.4 6.3-5m-32.9 45.4c-15.9 12-34.6 20.2-54.2 23.3 2 6 4.5 11.9 6.8 17.8 9.1 23.1 18.1 46.3 27.2 69.4 13.1-14.3 25.9-29 38.7-43.6 3.8 3.7 6.8 8.2 10.7 11.7 7.7 7.2 16.1 14 25.8 18.4 14.4 5.8 30.6 7.3 45.8 4.2 11.6-2.9 23-8.3 30.8-17.4 2.9-3.6 6-7.2 7.7-11.5 2.9-6 5.1-13.1 2.5-19.5-2.2-6.1-7.5-10.5-12.9-13.9-7-4.5-15.2-6.5-23-9.3-10.2-3.9-20.8-6.6-30.8-11-13.6-5.2-27.3-13.3-34.4-26.5-4.5-8.6-6-18.6-5.3-28.3-9.6 14-21.8 26.2-35.4 36.2Zm-1249-24.8c2.9-1.1 5.9-1 8.8 0 1.4 1.2 2.6 2.4 3.8 3.8.3 2 1.4 4.1.6 6.1-1.3 4.9-2.9 9.8-4.7 14.6-11 31.8-22.2 63.6-33.3 95.4-1 3-3.2 5.9-6.3 7-3.2 1-6.6 1.1-10 1.1-29.6-.2-59.3.2-88.9-.2-2.4-.3-4.6-1.3-6.5-2.7-3.2-3.8-3.4-10 0-13.8 27.7-19.9 55.4-39.9 82.9-60.1 7.8-6.1 15.7-12.2 22.9-19.1 7.3-6 13.9-12.8 20-20 3.6-4 6.6-8.6 10.7-12.1m-46.7 58c-24 17.7-48.2 35.1-72.4 52.6-3.7 2.6-7.3 5.5-11.2 7.8 4.7-.4 9.5-.2 14.2-.2h81c1.2.1 1.2-1.7 1.7-2.5 12.1-35.1 24.6-70.1 36.6-105.3-14.1 18.3-31.7 33.4-49.9 47.6Zm-322.8-15.8c1.5-4.1 5.1-7.3 9.5-7.6 7.6-.3 15.3-.1 22.9-.1 11.7 0 23.6-.4 35 2.6 10 2 20.5 6.1 26.7 14.7 3.8 4.8 4.9 10.9 5.4 16.9-.3 5.1-1.6 10.1-3 15-3.4 9.4-8.3 18.6-16 25.1-4.6 4.4-10.3 7.3-16 10.1-6.3 3.3-13.4 4.9-20.3 6.3-11.5 2.5-23.1 3.5-34.8 3.2-8.6.5-17.3.8-25.9.4-3-.5-6.2-1.5-8-4.1-1.6-2.6-2.3-5.9-1-8.8 4.6-13.4 9.3-26.7 13.9-40.1.7-2 1.4-4 2.1-5.9 1.6-4.7 3.2-9.5 4.9-14.2 1.5-4.5 3-9 4.6-13.5m9.4 2c-8.6 25-17.3 50-26 75 17-.2 34.1.2 51.1-1.8 8.9-1.7 18.1-3 26.3-7.3 4.7-2.4 9.5-4.9 13.5-8.5 3.5-2.9 6-6.7 8.4-10.5 3.5-6.7 6.6-13.9 7.1-21.5.2-4.6-1-9.6-4.3-13-4-4.9-9.9-7.5-15.9-9.3-6.9-1.8-14-3.1-21.2-3-13-.2-26-.1-39-.1Zm1267.4 8.5c1.4-4.3 5-7.8 9.7-8.1 4.6-.3 9.3-.1 13.9-.1h73c4.6 0 9.2-.3 13.8.6 3.1.6 5.8 3.1 6.7 6.2.6 3.1.4 6.4-.7 9.3-2.4 6.3-4.6 12.6-6.9 18.9-4.3 12.1-8.7 24.1-12.9 36.2-.8 2-1.6 4.2-3.4 5.6-2.6 2.2-6.2 2.9-9.6 2.9h-84c-4.3 0-8.6.2-12.9-.3-4.8-.8-8.5-5.1-8.3-9.9.5-3.6 2-7 3.2-10.4 6.1-17 12.2-34 18.4-50.9m9.6 1.5c-7.5 20-14.4 40.3-21.9 60.3 33.1-.2 66.2.1 99.2-.1 7.1-20.1 14.4-40.2 21.6-60.2-33 .1-65.9 0-98.9 0Z" id="path2" style="fill:#ffffff"/></svg>