<svg xmlns="http://www.w3.org/2000/svg" viewBox="0 0 264 73"><path d="M286.97.48H300l-18.37 28.58-2.98 22.29h-11.77l3.45-25.44L258.56.48h12.71l6.28 14.45Zm-137.2 30.77h15.54l1.57-11.3H151.5l1.1-8.16h17.9l1.72-11.3h-29.67l-7.06 50.86h29.5l1.58-11.3h-17.9Zm-90.42-5.02 3.93-10.52 1.25 10.52zm-4.24 10.04H65.8l1.88 15.07h19.31l8.95-27.63 4.4 27.63h10.2l11.3-29.2 1.89 29.2h11.3L131.88.48h-13.5l-10.52 26.85L103.78.47h-12.1l-13.8 41.76L72.68.48H57.62l-16.8 42.23 2.2-16.48h-20.4L21.2 36.27h8.95l-.63 3.46c-1.57.94-5.18 1.1-6.6 1.1-1.4 0-11.92-.95-11.45-12.25S27 6.76 44.9 12.57l1.73-10.83C34.7-2.34 3.36-.06.16 27.95-1.72 44.44 13.35 52.28 23.4 52.13c5.8.31 12.4-1.88 14.75-3.14l-.78 2.35H49.3z" style="fill:#fff" transform="scale(.88 .87552)"/><path d="M245.84.01c-8.16-.31-19.94 4.4-23.86 23.4-3.92 18.99 6.6 26.68 16.33 27.94 9.73 1.25 23.39-4.87 25.9-23.08S257.77.5 245.84.01m-1.25 10.84c3.3 0 10.36 2.2 8.63 15.38s-9.89 14.76-12.87 14.44c-2.99-.31-9.1-2.35-7.38-14.44 1.73-12.09 8.16-15.54 11.62-15.38" style="fill:#fff" transform="scale(.88 .87552)"/><path d="M196.23 19.95h6.6c4.86 0 5.8-3.14 5.96-4.4.16-1.25-1.25-3.76-3.76-3.76h-7.7zm-2.82 20.1h8.95a5.74 5.74 0 0 0 6.12-5.03c.16-1.26-1.26-3.77-3.77-3.77h-10.05zm-13.18 11.3L187.29.49h21.66c5.19 0 12.72 5.96 11.78 13.97-.94 8-3.46 8.47-5.18 9.73 2.67 2.35 5.33 6.12 4.24 13.18-1.1 7.07-6.91 13.98-17.11 13.98z" style="fill:#fff" transform="scale(.88 .87552)"/><path d="M61.9 56.92h-6.66l-15.7 26.43h18.69v-5.86H50.6l7.62-13.66 11.04 19.55h8.5v-.06h13.3c11.5 0 17.27-4.44 17.27-13.23q0-2.27-.59-4.26l10.61 17.49h5.1l15.26-26.37h-8.08l-9.53 17.27-10.06-17.27h-8.7l2.41 3.95q-4.2-3.97-12.12-3.95H75.16v21.92zm20.78 5.98H92.7c5.22 0 7.87 2.28 7.87 6.84 0 2.75-.83 4.76-2.4 5.8-1.52 1.08-4.39 1.6-8.4 1.6h-7.06V62.9zm67.29-5.98h-6.69l-15.64 26.43h7.9v-.07h10.8V77.4h-7.56l7.5-13.6 11.03 19.56h8.6v-.07h4.38V67.34l19.96 15.94h5.18V56.92h-6.91v15.75l-20.14-15.75h-5.15v21.92Zm49.41 1.48q-1.63 1.44-1.64 5.15v13.07q.02 3.79 1.6 5.21 1.52 1.45 5.59 1.45h15.5c2.7 0 4.63-.49 5.65-1.45 1.02-.95 1.6-2.68 1.6-5.2v-3.68l-7.61-.12v4.07h-14.74V63.05h14.74v3.61h7.62v-3.11c0-2.6-.59-4.32-1.6-5.15-1.03-1.02-2.81-1.52-5.65-1.52h-15.51c-2.69.04-4.54.5-5.55 1.52m38.45 8.3v-3.8h20.57v-5.98h-28.19v26.36h28.53v-6.1h-20.9v-4.69h12.05v-5.8Z" style="fill-opacity:1;fill:#fff" transform="scale(.88 .87552)"/></svg>