<svg xmlns="http://www.w3.org/2000/svg" viewBox="0 0 2674 374"><path fill="currentColor" stroke="currentColor" stroke-width=".09" d="M283.5 0h11C305 1.1 315.7 1.5 326 4.3c15.6 3.5 30.7 9.6 43.5 19.2 13.9 10.5 24.4 25.3 30.3 41.6 4.1 10.4 6 21.6 7.5 32.6-32.1 12.1-64.2 24.1-96.3 36.1-.6-11.4-3-23-8.9-32.9-4.1-6.4-9.3-12.4-16.1-15.9-13.1-7.1-28.6-7.7-43-5.8-25.8 4-49.1 18.2-67.3 36.5-13.7 13.1-24.4 28.9-33.8 45.3-4.3 8.2-8 16.7-11.4 25.4-6.3 17.7-9.8 36.6-8.6 55.5 1 9.7 3.2 19.4 8.3 27.9 5.7 9.6 14 17.8 24.2 22.6 10.5 4.5 22.2 5.5 33.6 4.8 15.1-.3 30-4.8 43.3-11.9 7.3-3.6 14-8.5 19.7-14.3 10.3-9.4 17.4-21.5 23.2-34H202c8.2-23.8 16.4-47.6 24.8-71.3 53.9.1 107.8.1 161.8 0 18.1-51.9 36.1-103.9 54.2-155.8 42.8.2 85.5.1 128.2.1 9.9-.1 19.7 0 29.5.6 17.7 1.9 36 4.7 51.2 14.7C661 32.1 668 42.4 670 53.9c2.6 12.7.4 25.8-3.1 38.2-2.2 8.1-5.4 16-8.9 23.7 5.9-7.1 11.4-14.4 17.9-20.9 5.5-6.1 11.2-12.2 17.4-17.6 6.5-6.3 13.7-11.7 20.6-17.4 5.4-4.5 11.4-8 17.1-12 5.9-4.1 12.4-7.5 18.6-11.3 6.3-3.9 13.2-6.8 19.8-10.2 6.1-3.2 12.6-5.3 19-7.9 6.5-2.7 13.3-4.7 20-7 8.8-3.1 18-4.8 27-6.9 9.2-1.4 18.3-3.4 27.6-3.4 21.5-1.2 43.3.4 63.9 7 9.7 2.3 18.8 6.5 28.1 10-8.6 25.9-17.4 51.6-26.1 77.5 2.5-3.7 5-7.5 8-10.8 4.9-5.7 9.4-11.9 15-17 16.9-17.7 37.1-32.4 59.5-42.5 24.4-11.4 51.8-16 78.6-13.4 15.4 1.6 30.5 6.8 43 16 8.2 5.9 14.1 14.4 18.9 23.1 3.6 7.4 6.1 15.4 6.6 23.7 7-21 14.6-41.8 21.7-62.8H1305c13.4.2 27 1.1 40 5 7 2.1 14.1 4.6 20.3 8.6 1.5-4.3 3-8.7 4.4-13.1h91.3c-31 90.7-62 181.5-93 272.3 30-.1 60 0 90 0 1.2 0 2.6-.1 3.2-1.3 61.3-84.1 122.6-168.3 183.8-252.5 4.5-6.2 9.1-12.3 13.4-18.5h83.6c5.3 0 10.6.2 16-.2.2 1.5.4 2.9.8 4.3.4 4.5.5 9 .7 13.5 4.6 101.4 9 202.8 13.6 304.3 15.3-46.2 30.7-92.3 46-138.4.5-1.3.5-2.7 0-4-18.8-55.3-37.4-110.7-56.1-166.1-1.3-3.7-2.3-7.6-4.2-11.1 0-1.2.1-2.5.1-3.8l.1 1.5h102.7c1.4 5.6 3.4 11.1 5.1 16.6 8.2 26.2 16.7 52.3 24.9 78.5 16.3-16.7 32.8-33.2 48.9-50 14.8-15 29.7-29.9 44.4-45.1h30c21-.5 42-.1 63-.3 6.7-.1 13.3.4 20 .3h105c13.3-.4 26.7.2 40 0h97c19.4.1 39.2 2.4 57 10.5 14.5 6.7 26.8 19.3 31.2 34.9 2.8 8.7 3.1 17.9 3 27 4.8-8.2 11.3-15.1 17.4-22.4 10.4-10.3 21.2-20.5 33.8-28.2 27.3-17.8 59.9-27.5 92.6-26.9 10.7.4 21.4 1.6 31.9 3.5 10.1 2.5 20.2 5 30 8.4 11.3 4.4 22.3 9.7 32.3 16.7-20.2 23.6-40.7 46.9-60.9 70.5-14.8-17.9-39.9-26.4-62.6-22-11.4 2.7-22.4 8-30.5 16.7-4.8 4.7-7.4 11.3-8.4 17.9-.9 4.7 1.6 9.1 4.4 12.7 3.9 4.6 9.3 7.7 14.8 10.2 15.6 6.4 32.1 10.4 47.3 17.7 8.4 4.6 17.2 9.1 24.3 15.7 8.4 8.4 14.9 19.5 15.5 31.6 1.9 15-2 30-7.3 43.9-3 7.5-5.7 15.1-9.7 22.2-3.8 7.9-8.5 15.4-13 22.9-9.4 15.5-22.2 28.7-36.5 39.6a187 187 0 0 1-65.5 31.7l-14.4 3.3c-6.4 1.5-13 1.9-19.4 3.4h-38.4c-16.1-2.2-32.1-5.4-47-11.9-2.6-.9-5.3-.6-7.9-.6-31.9.1-63.8-.1-95.8.1-8.9-34-17.9-67.9-26.9-101.9-3-11-5.7-22.2-8.8-33.2-2.2 4.1-3.5 8.5-5.1 12.8-12.3 34.2-24.5 68.3-36.8 102.4-2.3 6.6-4.9 13.1-7 19.9-25.8-.2-51.7-.1-77.6-.1-7.7.5-15.3-.1-23 0-58.8 0-117.6-.1-176.4.1 4-10.5 7.6-21 11.4-31.5q38.85-107.85 77.4-215.7c-26 26.3-52.3 52.3-78.5 78.5-2.3 2.5-2.7 6.1-3.8 9.2-17.7 53.1-35.3 106.3-53.2 159.4H1778q-9 .45-18 0c-27.9 0-55.9-.1-83.8 0-.7-20.1-1.6-40.3-2.4-60.5H1547c-15.1 20.2-30 40.5-45.2 60.5H1455c-8.7.4-17.3.2-26 .2-10 0-20 .2-30-.2-49.5 0-98.9-.1-148.4.1 2.1-5.4 3.8-10.9 5.7-16.3 12.9-37.6 25.6-75.2 38.5-112.8-7.8 2.9-15.6 6.1-23.8 7.8-7.9 2.4-16.2 3.1-24.4 4.1-21.6 1.8-43.2.9-64.9 1.1-13.1 37.6-26.3 75.1-39.4 112.7-.7.9-.6 3.1-2.2 2.8-26 .1-52 0-77.9 0-.3.5-.8 1.5-1 2H810.9c1.8-1.4 3.5-2.7 5.2-4-14.2 3.5-28.5 6.9-43.2 8.1-14.9 1.7-29.9 1.1-44.8-.9-12.4-1.2-24.5-4.8-36.2-9-7-2.2-13.4-5.9-19.9-9.2-5.1-3.2-10-6.6-14.8-10.2-4.1-3.6-8.4-6.9-12.3-10.7-8.1-8.5-15.8-17.5-21.2-28-3.6 3.9-6.8 8.3-10.8 11.7-4.3 3.7-8.2 7.9-12.9 11.1-4.2 2.9-8.1 6.1-12.4 8.7-6.7 3.7-13.3 7.8-20.5 10.6-7.3 3.4-14.9 5.8-22.5 8.3-23.9 6.9-48.8 8.9-73.6 9.5H321.2c11.2-31.9 22.2-63.7 33.4-95.5-14 20.6-31.9 38.1-50.7 54.3-12.8 10.1-26.1 19.8-40.6 27.5-6.7 3.9-13.9 6.7-21 9.9-22.8 8.9-46.9 14.6-71.3 16.3-18.7.9-37.7.5-56.1-3.6-19.1-4.2-37.7-12.3-52.7-25.1-10-7.8-17.9-18-23.8-29.2-10.3-19.1-13.7-41.1-13.1-62.6a204 204 0 0 1 8.1-49.7c2.1-6.4 4.1-13 6.6-19.3 2.7-6.9 5.1-14 8.4-20.6 3.1-6.3 5.7-12.8 9.2-18.8 3.5-5.8 6.7-11.9 10.4-17.6 4.8-7.2 9.1-14.6 14.8-21.1 11.7-15.2 25.2-29 39.6-41.6 6-4.6 11.4-9.9 17.8-14.1 5.6-3.7 11-7.8 16.8-11.1s11.3-7 17.4-9.7c6.8-3.2 13.5-6.8 20.7-9.3C215.6 10 237 4 259 1.7 267.1.4 275.3.6 283.5 0M255 17.1c-8 .8-15.8 2.5-23.6 4.3-4.3 1.2-8.5 2.8-12.9 3.9-2 .7-4 1.3-6 1.9-2.9 1.4-6 2.3-8.9 3.5-3.1 1.2-6.2 2.3-9.2 3.5-8.2 4.2-16.8 7.6-24.6 12.6-8.8 4.8-17.2 10.6-25.4 16.5-5.8 4.9-11.8 9.6-17.4 14.7-5 4.4-9.5 9.2-14.2 13.8-3.9 3.8-7.1 8.2-11 12-5.4 7-11.4 13.5-16 21.1-3.4 5.2-7 10.4-10 15.9-4.3 7.4-8.7 14.9-12.1 22.8-1.9 3.9-3.6 7.9-5.4 11.9-1.4 4-3.1 8-4.6 12.1-2.5 6.1-4.3 12.5-6.5 18.7-3.4 9.9-4.7 20.3-6.1 30.7.2 5-1.3 9.9-1.1 15 .1 5.3-.4 10.7.7 15.9.5 7.7 1.4 15.4 4.1 22.6.1.5.2 1.5.3 2 .9 2 1.8 4 2.6 5.9 5.1 12.5 12.7 24.1 23.3 32.5 5.2 4.7 11.2 8.5 17.4 11.8 14.1 7.5 29.7 12 45.6 13.3 4.3.2 8.6 1.2 13 1 10-.3 20.1.7 30-.9 14.4-1.2 28.6-4.2 42.5-8.4 1.3-.5 2.6-.9 4-1.4 5.3-1.9 10.8-3.5 15.9-6 2.7-1.2 5.4-2.4 8.2-3.5 4.2-1.9 8.2-4.4 12.3-6.6 7.4-3.8 14.1-8.8 21.1-13.4 6.9-5.3 14.2-10.2 20.3-16.5 7.4-6.2 14-13.3 20.9-20.1 3.8-4.5 8-8.7 11.6-13.5 4.1-4.9 7.5-10.3 11.5-15.3 3.5-3.3 8.8-5 13.5-3.6 5.5.6 9.9 5.5 10.7 10.9 1.2 4-.9 8-1.7 11.9-8.5 24.5-17 49-25.6 73.4H470c8 .2 16-.8 24-1 13.8-1.3 27.7-2.6 41.1-6.2 24.2-6.9 47.9-17.8 66-35.6 6.5-5.1 10.4-13.2 18.3-16.5 4.1-1.1 8.2.1 12.2 1 3.2 2.1 6.4 4.8 7.1 8.7l1.1-.1c-.1.5-.4 1.5-.5 1.9l1.1.2c.7 2.8 3.3 4.6 4.4 7.2l.7-.4c.7 4.1 6 5.5 7.3 9.5 1.7 1.9 3.5 3.7 5.3 5.5 1.2.2 2.2.9 2.9 1.9 1.7 1.7 3.5 3.4 5.3 5.1 2 .8 3.3 2.7 5.3 3.7 1.6 1.1 3.4 2.1 4.7 3.7l1.4-.6-.4 1.4 3.3 1.2c.1.2.3.8.4 1.1l1.5-.5.4 1.5 1.6-.5c.1.4.3 1.2.4 1.5l1.6-.5c.1.4.3 1.2.3 1.6l1.7-.7c.1.5.3 1.3.3 1.7l1.7-.7c.1.5.2 1.3.3 1.7l1.7-.7.2 1.2 3.1.9c4.5 1.5 9 3.1 13.5 4.6 1.4.6 2.9.7 4.4.7l-.1 1.1c1.4-.1 2.8-.2 4.1-.2l-.1 1c6.5.5 12.9 1.8 19.4 2.2 26 3 52.1-1.3 77.2-7.8 2.7-1 5.5.4 8.2.9.6.2 1.7.7 2.3.9l.1 1.1c.6-.2 1.6-.5 2.1-.6l-.8 1.5c12.6.3 25.3.1 37.9.1h188c3.1.1 6-.9 8.9-1.9 3.4.1 6.7.3 10.1.2 19.9-.1 39.9.1 59.8-.1 12-35.2 24.6-70.1 36.7-105.2 1.6-4.2 5-8 9.5-9 2.6-.7 5.3-1.4 8-1.4 13.7.1 27.3.1 41 .1 15.5-.5 31.1-1.3 46.1-5.6 7.4-2.2 14.4-6 22.1-7 4.1.3 8.5 1.4 11.2 4.7 2.9 2.8 3.4 7 4.1 10.9-.4 3.6-1.7 7-2.8 10.4-10.8 31.5-21.5 63-32.2 94.6-1 2.7-1.9 5.5-3.1 8.2 4.2-.4 8.4-.2 12.6-.2 37.7-.1 75.3 0 113 0 20.3.4 40.7.4 61-.1 12.2.1 24.5 0 36.7.1 13.4-18.2 26.9-36.3 40.4-54.4 3.3-4.3 8.7-5.9 13.9-6h115c4.3 0 8.7-.4 12.9.9 4.6.7 8.6 3.9 10.3 8.1 1.6 4.2 2 8.6 1.9 13 .7 12.8 1.1 25.6 1.6 38.4 21.8-.1 43.5 0 65.3 0 3.4 0 6.9-.3 10.3.7-4.8-2.7-7.3-7.9-8.1-13.1-1.3-11.3-1-22.6-1.8-33.9-3.9-90.9-8.2-181.7-12-272.5-26.1.1-52.3 0-78.4 0-63.2 86.6-126.1 173.4-189.3 260-2.8 3.8-5.2 8.3-9.7 10.3-3.2 1.1-6.6 2-10 2.1h-86c-5.2-.3-11-1.4-14.3-5.8-2.3-2.8-3-6.4-3.5-9.9 1.1-6.6 3.6-12.8 5.7-19.2 27.1-79.1 54.1-158.3 81.2-237.5-19.9 0-39.8.1-59.7 0-1.3 5.5-5.3 10.9-11.1 11.9-5.4 1.9-11.1-.3-15.6-3.2-8.2-3.9-17-6.9-26.1-7.8-9.5-1.1-19-1.6-28.6-1.5h-108.1c-6.1 17.2-12 34.5-18.1 51.7-1.5 5-5.3 9.8-10.8 10.7-3.1 1.2-6.3-.1-9.4-.3-3.4-1.6-6-4.5-7.8-7.7-.2-1.5-.4-2.9-.8-4.3-.7-3.3-1.1-6.7-2-10-1.1-3-2.2-6-3.5-8.9-2.6-4.2-4.9-8.7-8.4-12.3-7.9-8.8-19.1-13.6-30.2-17-13.4-2.8-27.3-2.8-40.9-1.4-5 .8-10 1.1-14.9 2.5-1.4.3-2.8.5-4.1 1.2-.6 0-1.9.1-2.5.1v.9c-4.3.4-8.3 2.2-12.3 3.9-2.3.9-4.6 2-6.9 3-4.3 1.5-8.2 3.8-12.1 6-3.1 1.9-6.5 3.4-9.6 5.4-7 4.9-14.3 9.6-20.4 15.6-5.2 3.8-9.4 8.7-14 13.1-5.5 5.2-10 11.4-15 17-4.7 5.3-7.2 12.7-13.8 16-1.8.2-3.6.5-5.3.9.5 2.2 1.5 4.5 1.2 6.9-.3 2-.9 3.8-1.4 5.8 18-.1 36 0 53.9-.1 0-.5-.2-1.6-.3-2.2.3 0 .8-.1 1-.1.8-3.5 2.7-6.5 4.2-9.7 2.8-6.5 7.2-12 11.1-17.9 4.7-4.8 9.1-9.8 14.7-13.5 3.7-3.2 8.3-4.9 12.4-7.4 2.4-.5 4.7-1.2 7-2 1.3-.3 2.6-.6 4-.9 4.1-1 8.3-1.7 12.5-1.6 3.3 0 6.5 1 9.8 1.5 3 1.2 6.1 2.2 8.7 4.2 3.2 2.3 6.8 4.4 9 7.7 2.8 3.6 5.1 7.6 6.2 12 .7 4.8 2.6 9.3 2.2 14.2.3 4.4-.6 8.8-1.2 13.2-1.6 6.9-4 13.6-7 20.1-6.8 15.2-17 28.5-27.4 41.4-2.4 2.9-5.3 5.4-7.7 8.3-9.8 11.3-21.4 20.7-32.7 30.4-48.3 38.9-96.7 78-145 117-2.6 2-5.2 4.1-8 5.9-3.9.7-7.8.7-11.6 0-2.7-1.5-4.9-3.6-7-5.7-.3-.5-.8-1.6-1-2.2-.4-2.2-1.3-4.3-1.2-6.5.7-4.2 2.4-8.2 3-12.5l.8-.1c.1-3.2 2.1-5.8 2.2-9h1.1c-.1-.7-.2-2.3-.2-3.1l1.2.2c-.1-.8-.2-2.4-.2-3.2l1.2.2c0-.8-.2-2.4-.2-3.2l1.2.3c0-.9-.2-2.5-.2-3.3l1.2.3c0-.9-.2-2.5-.3-3.3l1.3.3c0-.8-.2-2.5-.3-3.3l1.3.3c0-.8-.2-2.5-.3-3.3l1.4.3-.4-3.4 1.1.5c.5-2.1 1-4.1 1.2-6.2h1.2c0-.3-.1-1-.1-1.3-3.2 1.7-6.4 3.6-9.9 4.6-.1.2-.1.5-.2.7-2.7.5-5.3 1.7-8.1 2.3l.3.9c-.8 0-2.4-.2-3.2-.2l.2 1c-7.3 1.1-14.4 3.7-21.7 5-7 .9-14 2.3-21.1 2.2-5.3-.1-10.8.3-16.1-.8-8.7-.6-17.1-3.5-25.6-5.4v-1c-.7.1-2.3.2-3.1.3l.2-1.1a9 9 0 0 1-4.9-2.1l-1.1.3c0-.3-.1-.8-.2-1.1-3.5-1.2-6.5-3.6-9.7-5.5-1.9-1.1-2.9-3.8-5.4-3.7l.7-.8c-2.9-1.1-5.2-3.6-6.5-6.4-2.7-2.6-5.3-5.4-7-8.8-1-1.9-2.6-3.6-3-5.9h-1.2l.6-1.7c-.2-.1-.8-.2-1.1-.3-1.7-6.2-4.1-12.2-5-18.6-2.5-14-1.5-28.6 2.2-42.3 1-3.8 2.5-7.5 2.8-11.5l1 .2c-.1-.8-.2-2.4-.2-3.2l.9.3c.5-1.7 1.1-3.4 1.2-5.2l.9.1c.4-1.7.8-3.4 1.1-5.1h1.2c-.1-.4-.3-1.4-.5-1.8l1.5-.4-.5-1.6c.4-.1 1.2-.3 1.5-.4l-.5-1.6c.4-.1 1.2-.2 1.6-.3l-.6-1.8 1.5-.1c-.1-.5-.4-1.5-.5-2h1.6c-.2-.5-.5-1.5-.7-2l1.2.2c-.1-1.6.9-2.8 1.9-3.9 1-1.7 2.1-3.3 3.1-5 .5-1.1 1.2-2.1 1.9-3 .8-1.5 2.2-2.6 2.3-4.4l.7.3c.8-1.4 2.2-2.6 2.3-4.3l.7.5c1.1-2 2.2-4.1 3.9-5.7 6-6.3 12.3-12.2 18.3-18.5h1.2c1.1-1.2 2.3-2.3 3.4-3.5 1.6-1.6 3.6-2.7 5.6-3.8l-.4-.7c1.7-.1 3-1.6 4.5-2.3.9-.7 1.7-2 3.2-1.7l-.8-1.4 1.5.4c.5-.3 1.5-1 2-1.3l-.4-1.1 1.2.4c.5-.3 1.6-1 2.2-1.3l-.3-1.1c.5.2 1.5.5 2 .7l.1-1.6 1.7.5c.1-.3.2-.9.3-1.1 1.1-.4 2.1-.8 3.3-1.2l-.4-1.3c.5.2 1.5.5 2 .7l.1-1.6 1.7.5.4-1.6 1.7.7c.1-.3.1-.9.1-1.2 2-.3 3.9-.9 5.5-2.2.4.1 1.1.3 1.5.3v-1.1c1.7-.4 3.4-.9 5.1-1.3l-.1-.8c2.9.1 5.5-1.3 8.3-2 9.2-2.7 18.7-4.4 28.2-5.8 8.4-.6 16.7-.6 25.1 0 4.1.8 8.3 1.3 12.4 2.1 2.8.6 5.5 1.7 8.4 1.7l-.1.8c2.4.3 4.7 1.2 7.1 1.2l-.1.8c2.4.5 4.6 2 7.1 2.3l-.1 1.2c.5-.2 1.5-.5 2-.6 0 .4.2 1.2.2 1.5l1.7-.6c.1.5.2 1.3.3 1.7l1.9-.8-.4 1.3c1.8.7 3.6 1.6 5.1 2.9 1.4.8 2.7 2.2 4.4 2.3l-.4.6c1.7.5 2.4 2 3.1 3.4.1-.7.2-2.1.2-2.7 4.4-13.6 9-27.1 13.5-40.7.8-2.5 2.1-5 2.3-7.8h1.1c-.1-.8-.2-2.3-.3-3h1.3c-.1-.8-.2-2.3-.3-3h1c.3-3.8 2.3-7.2 3.3-10.9-2.9-1.5-6.1-2.9-9.4-2.9l.3-.8c-3-.2-5.6-1.4-8.5-2.1-9.9-3.1-20.4-4-30.8-5-13.4 0-26.9-.9-40.2 1.8-9.3.8-18.2 3.6-27.4 5.3l.2 1c-.8-.1-2.4-.2-3.2-.3l.2 1.3c-.8-.1-2.4-.2-3.2-.3l.2 1.3c-.8-.1-2.4-.2-3.2-.3l.2 1.3c-.8-.1-2.4-.2-3.2-.3l.1 1.1c-3.9.2-7.3 2.5-11.1 3.2l.1.8c-1.8.1-3.5.7-5.2 1.1l.3 1.1c-.8-.1-2.3-.2-3.1-.3v1c-1.8.4-3.4.9-5.1 1.3l.1.8c-1.9-.1-3.6.9-5.2 1.7-.5.3-1.5.8-2 1.1-.5.2-1.5.7-2 .9-1.5.7-2.9 1.5-4.2 2.3h-1.4l-.3 1.2c-.4 0-1.3-.2-1.7-.3l-.2.9c-1.5.5-2.9 1.3-4.3 2-1 .5-2 .9-3 1.4l.3 1.2c-.5-.2-1.5-.5-2-.7l-.1 1.2c-2.7.7-4.8 2.7-7.3 3.9-1.4.9-2.8 2.1-4.5 2.4-.1.3-.2.8-.2 1.1l-1-.3c-.6.3-1.7 1-2.2 1.3l.3 1.1-1.2-.4c-.6.3-1.6 1-2.1 1.3l.3 1.2-1.4-.6c-1.6 2-3.9 3.1-5.9 4.4-1 .7-1.9 1.6-3.1 1.9-.6.5-1.1 1-1.6 1.5-2.1.6-3.4 2.6-4.9 4-2 .8-3.4 2.3-4.8 3.7-1.5 1.6-3.5 2.6-5.1 3.9-.5 1.1-1.5 1.7-2.6 2-3.6 3.2-6.7 6.9-10.4 10-.8 1.4-2.3 1.8-3.4 2.7-.9 1.1-1.4 2.6-2.6 3.4-3.9 4.3-8.2 8.2-12.1 12.4-.9 2.5-3.4 4-5 6-.9 2.5-3.3 4-5 6-.4 1.8-2 2.9-3.4 3.9l.5 1.5-1.1-.3-2.4 3.9c-1.9 1.2-3.7 2.7-5.9 3.3-.1 2.3-.7 4.5-1.2 6.8-1 2.1-2 4.1-2.9 6.2-.3.1-.8.2-1.1.3l.3 1.2c-1.6 2.4-3.3 4.8-4.3 7.6l-.9.2c.1.3.1 1 .2 1.4-.9 1.3-1.7 2.7-2.3 4.2-1.3 3.1-3.5 5.9-3.9 9.2l-1.3-.1.8 2h-1.2c-1.4 4.3-2.2 9-4.9 12.8-1.1 2.3-3.1 4.1-5.2 5.5-3.8 1.7-8 2-12.1 1.6-.3-.3-.9-.9-1.2-1.3-3.2-.7-6.1-2.1-9.3-3-5.4-1.9-11.2-1.9-16.6-3.7-4.1-2-8.1-5.5-8.9-10.3-1.7-5.8.8-12.3 5.6-15.9 5.6-4.2 12.6-5.9 18.3-9.8 10.7-5.8 19.5-14.6 26.9-24.2 1.6-1.6 3.6-2.6 5.6-3.6.5-8 5.6-14.4 8.2-21.8 4.8-11.6 8.4-24.1 7.9-36.9.6-11.8-6.4-23.7-17.1-28.8-9.3-4.9-19.6-7.5-30-8.5-10.2-1.5-20.6-1.8-30.9-1.7H453.2c-16.6 48.4-33.6 96.7-50.4 145-1.3 3.7-3.9 6.9-7.3 8.7-4.6 1.7-9.6 2.6-14.5 2.1-47.9-.1-95.9 0-143.8-.1-4 10.9-7.7 21.8-11.4 32.8-.6 1.3-1 2.7-1.6 4-.4 1.5-.9 3-1.4 4.5H271c2.4-.1 4.8.6 7.2 1.1 5.1 1.3 9.1 5.8 10 11 1.5 4.6-.6 9.4-2.7 13.5-5.4 11.6-12.8 22.2-21.4 31.5-3.3 2.7-6.3 5.8-9.5 8.7-5.5 3.9-10.9 8.1-17.1 10.9-2.6 1.4-5.3 2.7-7.9 4.1-3.7 1.3-7.4 2.5-11.1 3.9-6 1.9-12.3 2.9-18.5 4.2-2.3.5-4.6 1.1-7 1.1-7 0-14.1.3-21.1-.1-7.3-1.3-14.5-2.6-21.5-5.1-8-3-14.7-8.5-21.2-14-2.4-2.4-4.2-5.2-6.4-7.7-4-4.7-6.7-10.2-9.4-15.6-3.8-11.1-6.9-22.7-6.4-34.5-.6-16.9 3.6-33.4 8.3-49.5.7-2.4 1.4-4.7 2.4-6.9.7-1.7 1.3-3.4 2-5 .9-2.4 1.9-4.8 3-7.1 6.3-14.7 15.3-28.1 24.7-41 4.6-5.5 8.6-11.4 13.8-16.3 10.1-10.9 21.8-20 34.3-27.9 5.9-3.2 11.7-6.6 18-9 1.6-.7 3.3-1.4 5-2.1 8.7-2.4 17.5-4.9 26.5-6.1 5.6-.2 11.3-1.2 16.9-.3 6-.1 11.7 1.7 17.4 2.9 3.2.6 6.1 1.9 9.1 3 7.4 3 13.8 8 19.1 13.8 2.4 2.9 4.6 6 6.8 9 2.5 3.3 3.6 7.3 5.5 10.9 1.2 3.3 2 6.7 2.7 10.2 1.3-.4 2.6-.9 3.9-1.3 2.7-1 5.4-2 8-3 2.7-1 5.4-2 8-3 16.3-6.1 32.6-12.1 48.8-18.4-.9-3.4-1.7-6.9-2.4-10.4-1.3-2.6-2.2-5.3-3-8-3.2-7.3-6.6-14.5-11.6-20.7-1.9-2.1-3.7-4.3-5.5-6.4-8.4-8.7-19.1-14.6-30.2-19.1-8-2.7-16-5.7-24.5-6.4-19.6-2.8-39.5-2.5-59 .2m2298.7 6.4c-4.2.7-8.3 1.3-12.4 2-16.5 3.6-32.3 10.4-46.8 19-5.6 3.7-11.6 6.9-16.5 11.5-5.7 4.3-10.5 9.6-15.8 14.2-2.5 2.2-4.5 4.9-6.6 7.4-3.5 4.2-7.4 8.2-10.2 12.9-2.6 4.1-6.4 8-11.4 8.9-6.6 1.9-14.5-1.8-16.8-8.4-1.8-5.1-1.1-10.6-1.2-16-.1-10.4-4-21.1-11.5-28.5-5.7-6.5-13.8-10.2-21.8-13.1-8.5-3.2-17.6-4.2-26.6-5.2-14.4-.8-28.7-.5-43.1-.6-31 0-62 .1-93 0-6.3-.6-12.7.2-19 0-36.7 0-73.3.1-110 0-7-.4-14-.2-21-.3-15 .1-30 0-45 .1-11.2.7-22.6-.2-33.8.4-13.1 13-26 26.2-38.9 39.5-14.9 15.4-30.1 30.5-45.1 45.9-3.2 3.4-6.5 7.1-11.2 8.2-7.2 2.6-16.4-1.6-18.4-9.2-8.9-28.2-18.1-56.3-26.9-84.6-23.8 0-47.6.2-71.5-.1 6.4 18.2 12.4 36.6 18.6 54.8 11.3 33.6 22.6 67.1 34 100.7 1.2 3.6 2.4 7.2 2.9 11-.5 3.8-1.7 7.4-2.9 11-14.9 44.7-29.7 89.4-44.6 134.1-.9 3.1-3.1 5.9-6 7.5 1.9-.2 3.8-.3 5.8-.3 17.4.1 34.9 0 52.4.1 17.1-52.1 34.6-104 51.8-156.1 1.7-5.4 6.1-9.2 10-13.1 24.3-24 48.4-48.2 72.7-72.3 5.4-5.6 14.9-6.8 21-1.7 3.6 2.7 5 7.3 5.3 11.6-.8 5.7-2.9 11.1-4.9 16.4-25.7 71.7-51.5 143.5-77.2 215.2 54.3-.1 108.6 0 162.9 0 7 .6 14-.2 21 0 20.3 0 40.6 0 61-.1 14.8-41 29.5-82.1 44.3-123.1 1.4-4.6 5.1-8.6 9.9-9.8 2.5-.6 5.2-1.7 7.9-.7 5.6.7 10.4 4.9 11.9 10.3 8.9 33.9 17.9 67.8 26.9 101.7 1.8 7.2 4 14.4 5.6 21.7 28.8-.2 57.6 0 86.5-.1 4.2-.1 8.4.9 12.4 2.2 13.7 6.1 28.7 9.3 43.6 10.5h26c3.2 0 6.5.2 9.8-.4 7.1-1.2 14.3-2 21.4-3.7 25.4-5.5 49.5-16.9 70.2-32.6 7-5.9 13.7-12.2 20-18.9 7.5-8.8 13.2-19 19.1-29 3.6-7.4 7.9-14.6 10.7-22.4 3.1-7.5 6.1-15.1 8-23.1 1-5.5 1.3-11.2 1.1-16.9-.3-4.4-.3-8.9-2.2-12.9-3.1-6.3-7.3-12.3-13.2-16.3-5-3.7-10.8-6.4-16.2-9.5-15.6-7.6-32.8-11.5-48.7-18.4-8.5-4.2-16.8-9.9-21.7-18.2-2.8-4.2-3.7-9.3-4.7-14.2-.3-4.2 1.1-8.4 2-12.5 2.2-9.4 8.1-17.8 15.6-23.8 13.1-11.5 30.6-17.2 47.8-18.1 6.2.3 12.3.8 18.3 2.5 11.5 2.3 22.6 6.9 31.8 14.3 13-15.1 26-30.1 39-45.1-13.1-6.9-27.5-11-41.8-14.2-4.7-.8-9.4-1.4-14-2-4.8-.8-9.6-.5-14.3-1-3.4-.3-6.7-.2-10 .1-4.1.4-8.3.2-12.3.8m-1540.2 78c-4.4 4-7.5 9.2-10.7 14.2-4.3 8.1-8.3 16.6-10.2 25.6-29.7-.1-59.5-.1-89.2 0 3.7-7.4 7-15 11-22.2-8.7-14-23.7-23-39.3-27-20.4-5.5-42-4-62.1 1.9-16.4 4.3-31.3 13.1-44.7 23.4-12.4 10.1-24.4 21.3-32.8 35-9 13.6-15.7 28.8-19.5 44.6-3.1 14.6-3.6 30.1 1.6 44.2 2.7 7.9 7.8 14.7 13.6 20.5 9 8.6 20.7 14 32.9 16.4 21.6 4.2 44.3 1.5 64.9-5.9 6.8-2.3 13.2-5.6 19.7-8.5 11.1-5.9 21.4-12.9 31.4-20.5-10 29.3-19.9 58.6-29.8 88 3.4-2.5 6.6-5.3 10-7.9 42-34 84.1-67.9 126.2-101.9 12.4-10.1 25-20.1 36.3-31.7 4.9-4.7 9.4-9.8 14.2-14.7 9.2-11.2 17.9-22.9 24.3-36 3.1-7 6.6-14.2 7.4-22 .9-8.1.6-17.3-4.9-23.9-3.9-4-9.1-7.4-14.9-7.5-13.4-.1-26.4 6.1-35.4 15.9m-385.8 53.3c-4 3.5-8.5 6.2-13.1 8.9-5.5 3.5-11.7 5.6-17.4 8.8 8.9 1.8 18 3.3 26.3 7.2 1.9-4.5 3.3-9.2 5.3-13.7 3.7-7.9 7.5-15.8 11.8-23.5-4.5 4-8 8.8-12.9 12.3Z"/><path fill="currentColor" stroke="currentColor" stroke-width=".09" d="M516.3 64.4c5.5-.9 11.1 0 16.6.3 4.6.5 9.2 0 13.8.8 4.9.6 9.9 1.7 14.7 3 8.9 2.7 16.7 8.6 21.4 16.6 2.4 3.4 2.8 7.6 3.7 11.5 1.1 4.4.2 8.9-.9 13.2-1 4.1-1.7 8.3-3.4 12.2-2.9 7.5-7.8 14.1-13.2 20-6.2 5.5-13.2 10.3-21 13.2-7.4 2.7-15 4.5-22.8 5.7-7.4.3-14.8 1.3-22.2 1.1-4-.1-8.1.4-12-.7-8.5-1.3-13.9-11.1-11.2-19 1.5-5.4 3.6-10.7 5.4-16 5.4-15.9 11.1-31.6 16.4-47.5 1.4-4.2 3-8.8 6.8-11.5 2.3-1.7 5.2-2.3 7.9-2.9m1 14.8c-7.8 22.6-15.6 45.2-23.6 67.8 9.8.2 19.5-.4 29.3-1 8.3-.8 16.6-2.9 24-6.8 14.8-7.1 24.6-23 24.9-39.3 0-6.9-5.2-12.7-11.1-15.6-5.4-3-11.7-3.6-17.7-4.1-8.6-.4-17.2-1-25.8-1Zm1755-11.8c1.8-.5 3.7-.4 5.7-.4 14.5-.1 29.3.8 43.1 5.6 5.7 1.9 10.5 5.5 14.9 9.4 4.3 4.8 7.8 10.6 9.2 17 1.1 4.9 2.4 10 1.5 15-2.2 13.5-7 26.7-15 37.9-3.1 3.5-5.6 7.6-9.4 10.4-6.6 5.3-13.5 10.4-21.3 13.4-15.9 6.1-33 8.7-50 8.3-5 .1-10.2.2-14.9-1.9-6.1-3.1-9.5-10.7-7.5-17.3.9-3.9 2.6-7.6 3.9-11.5l27.3-76.2c2.1-5.1 6.8-9.2 12.5-9.7M2274 82c-10.5 29-20.8 58-31.3 87 10.2.1 20.3 0 30.4-1.2 11.8-1.8 23.6-5.2 33.4-12.3a54 54 0 0 0 19.7-24.5c2.8-6.7 5.7-13.6 5.6-21 .2-6.1-2.1-12.1-5.9-16.8-5.7-5.8-13.8-8.4-21.7-9.6-10-1.2-20.1-1.7-30.2-1.6ZM1237.2 70.3c11.5-.8 23.2 0 34.8.7 7.2.4 14.2 2.1 21 4.1 8.4 2.7 14.8 9.8 18.5 17.5 2.2 7.2 4.6 14.8 3.1 22.4-3.2 16.3-8.3 32.7-18.5 46-3.4 5.3-8.4 9.2-13.5 12.7-4.7 3.6-9.8 6.7-15.6 8.3-8.4 2.8-17.2 4.4-26 5-11-.1-22 .6-33.1.3-3.9-.5-8-1.4-10.8-4.4-3.1-2.8-3.9-7-4.4-10.9.3-3.5 1.4-6.7 2.5-10 9.2-26.7 18.4-53.3 27.5-80 1.1-4.1 3.9-7.8 7.7-9.8 2.1-.9 4.5-1.4 6.8-1.9m.2 14.9c-3.5 11-7.6 21.8-11.2 32.8-6.3 18.1-12.4 36.3-18.8 54.3 11.5-.1 23.1-.1 34.6-.5 11.4-.8 23.2-3.4 32.3-10.5 8-5.4 13.5-13.7 17.5-22.3 3.5-8.3 6.7-16.9 7.9-25.9 1-8.1-1.5-17.5-8.5-22.3-6.4-3.8-14-4.3-21.2-4.8-10.9-.9-21.8-.7-32.6-.8Zm845.1-10.6c3.1-.5 6.3-.2 9.5-.2 29 0 58 0 87-.1 5.1.3 10.7 1.4 14.3 5.4 2.6 2.7 3.5 6.7 3.7 10.3-.7 5.6-3 10.7-4.8 16-5.5 15.3-11 30.5-16.4 45.8-1.6 4.6-5.2 8.6-10 9.8-2.6.7-5.1 1.4-7.8 1.4h-88c-5.2.2-10.6-.4-15.2-2.7-4.6-2.6-6.9-7.8-7.2-12.9.5-3.9 1.8-7.7 3.2-11.4 6.3-17.4 12.5-34.9 18.8-52.3 2.2-5.3 7.4-8.6 12.9-9.1m.8 14.9c-.9 3.2-2.1 6.3-3.2 9.5-6 16.2-11.7 32.6-17.7 48.8 33-.2 66 .1 99-.1 6.9-19.4 13.8-38.8 20.8-58.2-33 0-65.9.1-98.9 0Zm-410.9 16c3.6.4 7.4 1.3 10.2 3.9 3.8 3.3 4.9 8.7 5 13.6 0 35.3 0 70.7.1 106-.1 3-.7 6.1-1.7 8.9-1.7 3.8-5.2 6.8-9.2 7.7-3.5 1.1-7.2 1.1-10.8 1.1-22.7-.1-45.4 0-68-.1-4.4-.4-9.1-1.2-12.4-4.3-5.2-4.6-5.9-13.1-2.3-18.9 25.2-36.8 50.4-73.6 75.5-110.5 1.5-2.3 3.5-4.5 6.2-5.6 2.4-.9 4.8-1.5 7.4-1.8m-65.7 110.3c-3.7 5.2-7 10.7-11 15.8 25.7-.1 51.3-.2 76.9 0-.3-37.3 0-74.6-.1-111.9-22.1 31.9-43.8 64.1-65.8 96.1Zm787.7-69.5c6.5-4.1 16.1-2.5 20.3 4.1 3.5 5.9 2.3 13 3.1 19.5.2 4.8 2.6 9.1 5.1 13.1 6.6 9 17.2 13.7 27.3 17.7 8.7 3.8 17.9 6.2 26.8 9.5 6.9 2.7 14.2 4.5 20.9 7.6 10 5.2 20 12.4 24.4 23.2 2 5.6 3.6 11.8 2.3 17.8-1.2 5.2-2.2 10.5-4.7 15.3-2 5.2-5.9 9.4-9.1 13.9-11.7 13.9-29.2 21.7-47 24.1-9.9 1.7-20.1 1-29.9-1.1-8.7-1.8-17.4-4.1-25-8.8-4.5-2.3-8.3-5.7-12.4-8.6-3.8-2.7-7.2-5.9-10.7-9-9.1 10.3-18.2 20.6-27.4 30.9-6.7 7.4-20.9 5.8-25.1-3.6-10.4-26.1-20.5-52.3-30.9-78.5-1.7-4.4-3.8-8.8-4.5-13.6-.7-7 4-14.3 11.1-15.6 8.8-1.7 17.5-3.8 25.6-7.7 14.7-6 27.9-15.6 39-26.9 5.4-5.3 10.8-10.8 15.1-17.1 1.6-2.3 3.3-4.6 5.7-6.2m-26.7 48.4c-16.1 12.1-34.9 20.6-54.8 23.7 1.2 3.9 2.8 7.7 4.3 11.5 9.9 25.4 19.9 50.6 29.7 76 12.9-14.7 25.9-29.3 38.9-43.9 3.7 4.1 6.9 8.5 11.1 12.2 9.3 8.7 19.8 17 32.3 20.5 12.9 3.6 26.6 4.3 39.7 1.4 12.1-3.2 24.1-9.3 31.7-19.6 4.5-5.3 7.6-11.7 9.1-18.5 1.8-7.7-2.4-15.6-8.5-20.3-7.5-6.5-17.2-9.4-26.4-12.4-8.2-3.1-16.6-5.6-24.8-8.5-9.7-3.9-19.7-7.4-28-13.9-8.8-6.1-15.7-15.3-18-25.8-1.4-6-2.1-12.2-1.4-18.4-9.4 14-21.6 25.9-34.9 36Zm-1251.1-29.9c1.5-.1 2.9-.4 4.3-1 .8 0 2.4 0 3.3-.1 4.6 1.4 9.4 3.8 11.4 8.5.7 2.8 1.9 5.7 1 8.6-.9 3.8-1.9 7.5-3.3 11.2-11.7 33.7-23.5 67.3-35.2 101-1.5 3.5-4.1 6.8-7.6 8.6-4.3 1.7-8.9 2.2-13.5 2.2h-78c-4.7-.1-9.5.2-14.2-.6-1.1-.4-2.1-.7-3.2-1-2.8-1.7-5.1-4-6.7-6.8-.4-1.1-.7-2.2-1.1-3.2-.4-2.5-.4-4.9 0-7.4.4-1 .7-2.1 1-3.2 1.2-1.7 2.3-3.5 4-4.8 26.3-19 52.7-38 78.9-57.2 6.1-4.4 11.9-9.3 17.8-14 6.6-6.1 13.6-11.8 19.8-18.3 5.6-5.4 10.3-11.7 15.3-17.6 1.7-2 3.8-3.6 6-4.9m-11 33.8c-5.8 6.3-12.5 11.5-18.7 17.3-5.1 4.2-10.3 8.3-15.5 12.4-25.9 19.2-52.2 37.9-78.3 56.9-1.7 1.3-3.5 2.4-5.4 3.5 5.4-.4 10.9-.1 16.3-.2 26.6-.1 53.1.1 79.7-.1.2-.4.6-1.3.8-1.8 12.4-35.6 24.8-71.2 37.3-106.7-5 6.6-10.3 12.9-16.2 18.7Zm-635.1 1c12.7-.3 25.4-.2 38.1-.1 7.9 0 15.6 1.4 23.2 3.4 9.8 2 19.5 6.5 25.9 14.5 2.1 2.5 4.1 5.3 5.2 8.5 1.8 5.9 3.2 12.1 2 18.3-2 10.3-5.2 20.7-11.6 29.1-5.6 8.7-14.2 15-23.2 19.5-10.8 6-23.2 7.6-35.1 9.9-4.3.3-8.6 1-13 1.3-12.3-.1-24.6.9-37 .5-5.8-.4-12.1-3.1-14.6-8.8-.7-2.7-1.9-5.6-1-8.4 1.1-5.2 3.2-10 4.8-14.9 7-20.2 14-40.3 20.9-60.4 1.4-4.4 4.3-8.5 8.4-10.7 2.3-.9 4.6-1.4 7-1.7m-.5 14.9c-8.7 25-17.3 50-26 75 6 0 12 .1 18-.1 13.1-.3 26.4-.1 39.4-2.9 7.1-1.2 14.2-2.9 20.6-6.4 6.1-2.9 11.9-6.6 16.4-11.7 5.4-6.6 9.1-14.5 11.1-22.7 1.2-5.3 1.4-11.1-1.3-15.9-3.8-6.5-10.9-10.2-18-12.2-6.9-1.8-14-3.1-21.2-3-13-.2-26 0-39-.1Zm1564.5-4.9c2.8-.4 5.7-.2 8.5-.2h88c4.8.2 10.2 1.2 13.5 5 2.7 2.9 3.5 6.9 4 10.7-.4 4.1-1.9 8-3.2 11.9-6.2 17.3-12.4 34.5-18.6 51.8-1.5 4.6-5.2 8.5-9.9 9.8-2.6.7-5.1 1.4-7.8 1.4h-92c-3.4 0-6.7-.8-9.9-1.8-5.5-2.3-8.5-8.1-8.7-13.8.5-4 1.9-7.8 3.2-11.6 6.1-16.9 12.2-33.9 18.3-50.8 1.5-4.4 4.4-8.5 8.6-10.7 1.9-.8 4-1.3 6-1.7m.6 14.9c-7.6 20-14.5 40.3-22 60.3 33-.2 66.1.1 99.2-.1 7.2-20.1 14.4-40.2 21.6-60.2z"/></svg>