<svg xmlns="http://www.w3.org/2000/svg" viewBox="0 0 264 73"><path d="M144.4 67.58c-.49-1.47-1.76-2.86-1.76-2.86s-1.92-2.49-5.68-3.34c-3.22-.67-5.75.75-5.75.75s-2.3.92-4.03 2.83a14 14 0 0 0-3.55 6.51s-1.05 3.37.62 6.03l1.82 2.2a10.4 10.4 0 0 0 5.3 2.36s2.2.5 4.79-.18c2.25-.45 3.89-1.57 3.89-1.57s3.73-2.06 4.76-6.28zm-5.82 7s-1.49 2.61-4.77 2.3c-3.85-.39-4.3-3.77-4.3-3.77s-.53-2.49 1.84-4.66c2.4-2.02 4.9-1.7 4.9-1.7s1.69.15 2.56 2.93c1.1 3.55-.23 4.9-.23 4.9" style="fill-opacity:1;fill:#fff" transform="scale(.88 .8753)"/><path d="M156.84 74.63c-1.23-.27-3.2.24-3.2.24s-2.76 1-3.18 1c-.16-.24-.51-4.74-.41-6.54.06-3.17-.2-5.77-.2-5.77s-.14-3.06-1.78-4.87c-1.93-1.95-3.28-1.11-4.06-.65-1.85 1.67-.99 3.7-.99 3.7l.97 2.75s.46 1.17.4 3.08l.42 6.46c0 .87.7 6.68.7 6.68s.07 1.89 1.89 2.22c1.86.31 3.69-.61 4.46-.98.78-.36 1.8-.69 1.8-.69s.85-.19 1.7-.26c2-.19 2.71-.54 2.71-.54s.77-.12 1.29-.85a3.4 3.4 0 0 0-2.52-4.98m-32.59 2.87c-1.3-.39-2.8-.13-2.8-.13s-4.26.41-6.47-.06c-3.42-.6-3.3-4.29-3.3-4.29s-.12-2.44 1.94-5.75c2.55-4.09 5.36-4.82 5.36-4.82s.7-.26 1.36.09c.41 2.37 2.7 2.35 2.7 2.35s3.32.22 3.16-3.79c-.38-3.3-3.56-3.74-4.9-4.05-3.99-.72-6.58 1.42-6.58 1.42s-2.68 1.45-5.89 6.5c-2.18 3.13-2.44 5.6-2.44 5.6s-.27.58-.17 3.18c-.05 2.04.71 3.52.71 3.52s1.16 3.5 4.82 4.93c2.22.92 5.47.91 5.47.91s3.15-.04 5.56-.17c1.32.1 1.95-.6 1.95-.6s1.48-.96 1.33-2.64c0 0-.28-1.74-1.8-2.2" style="fill-opacity:1;fill:#fff" transform="scale(.88 .8753)"/><path d="M177.44 66.8c-2.56-4.19-7.07-4.82-7.07-4.82s-1.43-.48-4.5-.07a10.9 10.9 0 0 0-7.78 5.53s-2.07 3.25-1.25 7.2l2.52 4.97c1.86 1.74 2.62 1.74 2.74 1.85 2.46 1.1 5.31.47 5.31.47s3.6-.36 6.9-2.92a12 12 0 0 0 3.78-4.77l.35-3.81zm-7 8.55c-4.15 2.49-6.76-.23-6.76-.23s-1.16-.77-1.4-3.08c-.18-2.68 2.48-4.07 2.48-4.07s1.4-.86 3.17-.73c1.75.13 2.3.01 3.73 1.07 1.34 1.21 1.26 2.1 1.26 2.1s.48 3.02-2.49 4.94" style="fill-opacity:1;fill:#fff" transform="scale(.88 .8753)"/><path d="M178.09 74.24s.09 2.34-.28 2.91c-.5 1.07-.43 2.1-.43 2.1s-.33 3.17 3.33 3.7c2.51-.02 2.82-2.11 2.87-3 .14-.7.08-3.97.08-3.97l3.27 2.66s2.37 2 3.76 3.15c1.45 1.14 1.82 1.35 1.82 1.35s.3.36 1.42.23c.9.02 1.71-.79 1.71-.79s1.04-.76 1.3-2.1c.33-1.57-.9-2.35-.9-2.35s-4.54-3.66-7.61-6.18c2.06-1.13 3.05-1.9 3.05-1.9s2.88-1.9 3.49-4.82c.85-3.2-1.57-4.47-1.57-4.47s-1.5-1.08-2.78-1.65c-3.2-1.57-6.2-1.24-6.2-1.24s-4.24-.3-7 3.12c-1.28 1.65-.49 3.82-.49 3.82s.16.34.51 1.99c.71 3.3.65 7.44.65 7.44m5.56-6.5-.28-3.82s2.68-.06 3.8.13c2.2.33 2.07.95 2.07.95s-.07.78-1.74 1.54a16 16 0 0 1-3.85 1.2" style="fill-opacity:1;fill:#fff" transform="scale(.88 .8753)"/><path d="M286.97.48H300l-18.37 28.58-2.98 22.29h-11.77l3.45-25.44L258.56.48h12.71l6.28 14.45Zm-137.2 30.77h15.54l1.57-11.3H151.5l1.1-8.16h17.9l1.72-11.3h-29.67l-7.06 50.86h29.5l1.58-11.3h-17.9Zm-90.42-5.02 3.93-10.52 1.25 10.52zm-4.24 10.04H65.8l1.88 15.07h19.31l8.95-27.63 4.4 27.63h10.2l11.3-29.2 1.89 29.2h11.3L131.88.48h-13.5l-10.52 26.85L103.78.47h-12.1l-13.8 41.76L72.68.48H57.62l-16.8 42.23 2.2-16.48h-20.4L21.2 36.27h8.95l-.63 3.46c-1.57.94-5.18 1.1-6.6 1.1-1.4 0-11.92-.95-11.45-12.25S27 6.76 44.9 12.57l1.73-10.83C34.7-2.34 3.36-.06.16 27.95-1.72 44.44 13.35 52.28 23.4 52.13c5.8.31 12.4-1.88 14.75-3.14l-.78 2.35H49.3z" style="fill:#fff" transform="scale(.88 .8753)"/><path d="M245.84.01c-8.16-.31-19.94 4.4-23.86 23.4-3.92 18.99 6.6 26.68 16.33 27.94 9.73 1.25 23.39-4.87 25.9-23.08S257.77.5 245.84.01m-1.25 10.84c3.3 0 10.36 2.2 8.63 15.38s-9.89 14.76-12.87 14.44c-2.99-.31-9.1-2.35-7.38-14.44 1.73-12.09 8.16-15.54 11.62-15.38" style="fill:#fff" transform="scale(.88 .8753)"/><path d="M196.23 19.95h6.6c4.86 0 5.8-3.14 5.96-4.4.16-1.25-1.25-3.76-3.76-3.76h-7.7zm-2.82 20.1h8.95a5.74 5.74 0 0 0 6.12-5.03c.16-1.26-1.26-3.77-3.77-3.77h-10.05zm-13.18 11.3L187.29.49h21.66c5.19 0 12.72 5.96 11.78 13.97-.94 8-3.46 8.47-5.18 9.73 2.67 2.35 5.33 6.12 4.24 13.18-1.1 7.07-6.91 13.98-17.11 13.98z" style="fill:#fff" transform="scale(.88 .8753)"/></svg>