<?xml version="1.0" encoding="UTF-8" standalone="no"?><svg viewBox="0 0 264 46" version="1.1" id="svg3" xmlns="http://www.w3.org/2000/svg" xmlns:svg="http://www.w3.org/2000/svg"><g fill="currentColor" id="g3" style="fill:#ffffff"><path d="M252.53.43h11.46l-16.16 25.2-2.62 19.65h-10.36l3.03-22.43L227.52.43h11.2l5.52 12.74zM131.8 27.57h13.66l1.39-9.97H133.3l.97-7.2h15.74l1.53-9.97h-26.11l-6.22 44.85h25.97l1.38-9.97h-15.75zm-79.58-4.44 3.46-9.27 1.1 9.27zm-3.73 8.86h9.4l1.65 13.3h17L84.4 20.9l3.87 24.37h8.98l9.94-25.75 1.66 25.75h9.95L116.04.43h-11.88L94.91 24.1 91.3.43H80.68L68.52 37.25 63.96.43H50.7L35.92 37.67l1.93-14.54H19.9l-1.24 8.86h7.87l-.55 3.05c-1.38.82-4.56.96-5.8.96s-10.5-.83-10.09-10.8S23.76 5.97 39.5 11.1l1.53-9.56C30.53-2.07 2.95-.05.13 24.65c-1.65 14.54 11.6 21.46 20.45 21.32 5.11.28 10.91-1.66 12.98-2.77l-.69 2.08h10.5z" id="path1" style="fill:#ffffff"/><path d="M216.33.01c-7.18-.27-17.54 3.88-21 20.63-3.45 16.75 5.8 23.54 14.37 24.64s20.6-4.28 22.8-20.35C234.7 8.87 226.83.43 216.33.01m-1.1 9.56c2.9 0 9.12 1.93 7.6 13.56s-8.7 13.02-11.33 12.74-8.01-2.08-6.5-12.74c1.53-10.66 7.2-13.7 10.23-13.56" id="path2" style="fill:#ffffff"/><path d="M172.68 17.6h5.8c4.28 0 5.11-2.77 5.25-3.88s-1.1-3.32-3.32-3.32h-6.76zm-2.49 17.72h7.88a5.05 5.05 0 0 0 5.38-4.43c.14-1.11-1.1-3.33-3.31-3.33h-8.84zm-11.6 9.96L164.81.43h19.06c4.56 0 11.2 5.26 10.36 12.32s-3.04 7.48-4.56 8.58c2.35 2.08 4.7 5.4 3.73 11.63-.96 6.23-6.07 12.32-15.05 12.32z" id="path3" style="fill:#ffffff"/></g></svg>