<svg xmlns="http://www.w3.org/2000/svg" viewBox="0 0 264 56"><path d="M31.8 28.46v5.85H7.64v14.94h17.6v-4.14H15.1v-6.26h17.16v11.42c-.07 1.9-3.89 5.73-6.02 5.73H6.57C3.8 56 0 52.2 0 50.27v-16.5c0-3.22 2.1-5.31 4.82-5.31zm18.72 20.63v6.49H30.61l16.17-27.45h6.4l12.4 20.96V28.13h7.04l11.09 18.8 11.05-18.8h6.97v27.45h-6.97l-.04-13.95-8.08 13.95h-5.93L72.66 41.6l-.04 13.98H60.73L49.75 36.77l-7.28 12.32zm53.8-20.96v27.45h28.1v-6.49h-20.48v-4.72h11.85v-6.01h-11.85v-4.32h20.48v-5.91zm56.18 10.79h7v-5.94s.76-4.88-4.31-4.88h-22.1c-2.18 0-3.21 1.04-3.21 2.7v19.44c0 2.73 2.6 5.34 4.26 5.34h21.63s3.77.51 3.77-3.72v-8.08h-7.03v5.36h-15.63V34.58h15.07v4.34zm9.71-10.82h7.55v21.06h15.62V28.1h7.55v22.7s.48 4.86-6.46 4.86h-18.32s-5.94.54-5.94-4.86zm63.06 16.18v7.06c0 2.5-1.84 4.33-7.56 4.33h-22.09V28.1h25.88c2.39 0 3.77 1.38 3.77 3.78v7.55c0 .6-.82 1.63-2.69 1.63v.52c1.26 0 2.69 1.44 2.69 2.7m-7.01 4.35V45.4c0-.89-.21-1.1-.54-1.1h-14.54v4.86h14.01c.78 0 1.07-.29 1.07-.53m0-10.8V34.6c0-.89-.21-1.1-.54-1.1h-14.54v4.86h14.01c.78 0 1.07-.3 1.07-.53m9.68 17.84H264v-6.54h-21.05v-4.8h11.85v-5.97h-11.85v-4.32h20.51v-5.97h-27.52zM103.12.29v3.24h6.47v17.25h4.36V3.53h6.42V.29zM5.82.02V20.5h3.77V5.45l8.09 15.05h4.28V.02h-4.32v12.35L11.18.02zm64.67 0V20.5h3.78V5.45l8.08 15.05h4.28V.02h-4.31v12.35L75.85.02zm-26.41 0h4.3v20.49h-4.3zm97.57 7.55v.55h11.85v3.24h-11.85v4.32c0 .46 1.14 1.6 1.6 1.6h10.25v3.27h-11.85a3.84 3.84 0 0 1-3.79-3.8V3.8c0-2.36 1.41-3.77 3.76-3.77h11.88v3.24h-9.7c-1.03 0-2.15 1.12-2.15 1.65m82.5-1.12v12.99c0 .98-2.77 3.76-4.38 3.76h-11.83V.02h10.75c3.34 0 5.46 2.11 5.46 3.78m-3.82 11.89V4.9c0-.38-1.27-1.65-2.16-1.65h-6.45v14.58h6.47c.66 0 2.14-1.49 2.14-2.15m38.83-10.8v10.77c0 3.1-2.33 5.43-5.9 5.43h-5.46c-3.45 0-5.74-2.17-5.9-5.11V4.28c0-2.05 2.22-4.28 4.84-4.28h7.54c3.17 0 4.88 1.71 4.88 4.88m-4.34 10.27V5.42c0-.8-1.38-2.18-2.16-2.18h-4.27c-1.11 0-2.2 1.08-2.2 2.09v9.82c0 1.54.6 2.13 1.64 2.13h4.87c1.04 0 2.12-1.08 2.12-2.13M171.56.29v20.49h3.77V5.72l8.09 15.06h4.27V.29h-4.31v12.35L176.91.29z" style="fill:#fff"/></svg>