<svg xmlns="http://www.w3.org/2000/svg" viewBox="0 0 264 63"><path d="m212.4 429.33 14.82-8.58h72.9l13.17-18.87h53.1l13.33 18.87h74l14.89 8.65v20.12l-15.75 9.12h-224.7l-15.76-9.12Zm241.4 32.43 18.7-10.84V428l-17.93-10.37h-73.29l-13.18-18.87h-56.37l-13.25 18.87h-72.12l-17.86 10.3v23l18.8 10.83Z" style="fill-rule:evenodd;fill:#fff" transform="translate(-208.5 -398.76)"/><path d="M330.07 416.17c0 .99.8 1.77 1.77 1.76h7.23v-2.2h-6.8v-.62h5.36v-2.2h-7.55zm.01-7.27c0-.9.78-1.75 1.76-1.75h7.23v2.2h-6.8v.61h5.36v2.23h-7.56zm48.32 28.22h22.92v9.12l-8.19 5.54h-25.3l8.38-5.61h14.82v-3.43H368.1v-8.93l8.47-5.73h25.26l-8.35 5.61H378.4zm26.12-9.04h10.29v23.7h-10.29zm24.56 9.04H452v9.12l-8.19 5.54h-25.3l8.38-5.61h14.82v-3.43h-22.92v-8.93l8.45-5.73h25.27l-8.35 5.61h-15.08z" style="fill-rule:evenodd;fill:#fff" transform="translate(-208.5 -398.76)"/><path d="M345.81 446.17v-3.43h9.86l8.38-5.62h-18.24v-3.43h14.85l8.34-5.61h-24.52l-8.96 5.5v18.2h24.95l8.42-5.61zm-72.05 0v-3.43h9.87l8.38-5.62h-18.25v-3.43h14.86l8.34-5.61h-24.52l-8.97 5.5v18.2h24.95l8.42-5.61zm48.58-2.26-12.79-7.96v15.83h-10.29v-23.7h10.45l12.63 6.94v-6.94h10.29v23.7h-10.29zm-84.6-10.22v12.48h12.79v-3.43h-10.45l8.34-5.62h12.4v9.36l-7.87 5.3h-25.5v-17.93l8.54-5.77h27.91l-8.3 5.61zm93.84-29.49c-2.46 0-4.45 2-4.45 4.44v7.79c0 2.45 2 4.44 4.45 4.44h7.5v-2.19h-7.31c-1.3 0-2.44-1.22-2.44-2.51v-7.27a2.55 2.55 0 0 1 2.44-2.48h7.3v-2.22zm14.19 11.59v-6.44h7.14v-2.2h-7.55a1.8 1.8 0 0 0-1.76 1.76v7.26c0 .99.8 1.77 1.76 1.76h4.6v-5.05h-3.47v2.17h1.28v.74zm-20.76-11.61h-7.17a5.5 5.5 0 0 0-5.48 5.47 5.4 5.4 0 0 0 5.48 5.4h2.18v.74h-7.61v2.14h7.36a2.5 2.5 0 1 0 0-5h-1.9a3.25 3.25 0 1 1 0-6.51h7.15z" style="fill-rule:evenodd;fill:#fff" transform="translate(-208.5 -398.76)"/><path d="M325.01 409.29h-7.46v.73h2.24a5.43 5.43 0 1 1 0 10.85l-7.38-.02v-2.18h7.36a3.24 3.24 0 1 0 0-6.49h-1.9a2.51 2.51 0 0 1 0-5.02h7.15zm36.25-2.51c-.1-.2-.12-.26-.36-.26s-.3.13-.4.34l-4.54 14.01h2.39l2.57-7.77.85 2.63h-1.7v2.2h4.84z" style="fill-rule:evenodd;fill:#fff" transform="translate(-208.5 -398.76)"/><path d="M345.1 420.87a4.44 4.44 0 0 1-4.44-4.44v-7.78c0-2.46 2-4.45 4.45-4.45h7.8v2.22h-7.62a2.55 2.55 0 0 0-2.43 2.48v7.27c0 1.3 1.14 2.51 2.43 2.51h5.4v-6.53h-4.2v-2.18h6.43v10.4l4.58-14.17a3.6 3.6 0 0 1 6.83.1l4.75 14.57h-9v-2.19h5.84l-3.96-12.16c-.24-.67-.65-.75-1.06-.75-.44 0-.83.18-1.06.79l-4.66 14.31z" style="fill-rule:evenodd;fill:#fff" transform="translate(-208.5 -398.76)"/></svg>