<svg xmlns="http://www.w3.org/2000/svg" viewBox="0 0 264 44"><path d="M225.74 59.59c-5.06 6.86-10.07 8.82-12.26 9.87a21 21 0 0 1-8.4 1.88q-12.21 0-19.05-7.94c-4.57-5.3-6.85-12.74-6.85-22.4q0-17.1 8.66-29.07Q196.5 0 210.84 0q10.85 0 17.8 6.13 6.95 6.11 6.95 19.17h-14.01q0-6.25-2.76-8.78-2.75-2.5-7.91-2.5-8.44 0-13.08 8.23-4.62 8.25-4.64 18.78.02 7.18 3 11.73 3.01 4.57 9.01 4.57 6.24-.01 9.72-3.55a21 21 0 0 0 5.11-9.06h-13.05l2.12-12.7h25.44l-2.15 12.3s-1.61 8.4-6.65 15.27m121-57.83-11.38 67.92H323.1l9.65-52.64-21.28 52.64h-10.05l-4.63-52.61-7.33 52.61h-12.4L288.4 1.76h17.39l3.89 47.83 19.55-47.95zm12.97 26.3h20.02l-2.08 13.17h-20.02l-2.58 14.46h22.6l-2.23 13.99H339.8l11.26-67.99h35.19l-2.15 14.09h-22.15zM253.03 1.64l-27.39 68.04H239l4.88-13.27h17.47l1.14 13.27h12.92l-7.74-68.04zm-4.91 43.16 9.92-27.06 2.3 27.06zm207.26 14.79c-5.06 6.86-10.06 8.82-12.25 9.87a21 21 0 0 1-8.4 1.88q-12.22 0-19.05-7.93-6.85-7.95-6.85-22.4 0-17.1 8.66-29.07 8.66-11.95 23-11.94 10.84 0 17.8 6.13 6.95 6.11 6.94 19.18h-14q0-6.26-2.76-8.78-2.75-2.5-7.92-2.51-8.43 0-13.07 8.24-4.63 8.25-4.64 18.77.01 7.18 3 11.73 3.01 4.58 9 4.57 6.25-.01 9.73-3.55a21 21 0 0 0 5.11-9.05h-13.05l2.11-12.7h25.45l-2.16 12.3s-1.61 8.38-6.65 15.26m26.15-31.51h19.99l-2.05 13.15h-20.02l-2.6 14.46h22.62l-2.24 14.02h-35.62l11.27-68.02h35.2l-2.16 14.09h-22.16zm44.25-26.41L498.4 69.7h13.37l4.86-13.27h17.49l1.14 13.27h12.9l-7.74-68.04zM520.9 44.8l9.9-27.06 2.33 27.06zm47.95-13.22 2.97-16.74h7.15q3.93 0 5.9 1.41 1.96 1.45 1.96 5.75 0 4.83-3.18 7.2-3.2 2.38-8.1 2.38zm-8.07-29.9L549.52 69.7h13.02l4.37-25.92h6.03L583 69.7h14.93L586.78 41a26.6 26.6 0 0 0 9.58-8.73A21.5 21.5 0 0 0 600 19.85q0-9.63-4.34-13.9T583.43 1.7zM10.87 27.82C22.37 8.54 38.18-3.48 46.2.9c8 4.4 5.19 23.6-6.33 42.86-11.49 19.28-27.3 31.3-35.3 26.91-8.03-4.4-5.2-23.6 6.3-42.86m51.41.01C73.77 8.54 89.58-3.48 97.6.9c8 4.4 5.18 23.6-6.33 42.86-11.5 19.28-27.31 31.3-35.31 26.91-8.02-4.4-5.19-23.6 6.3-42.86m51.42.01C125.18 8.54 141-3.48 149.01.9c8 4.42 5.19 23.62-6.32 42.87-11.5 19.28-27.31 31.3-35.32 26.9s-5.18-23.6 6.31-42.85" style="fill-opacity:1;fill:#fff" transform="scale(.44 .43537)"/><path d="M83.6 43.82h-2.47v-2.7h-1.85v2.7h-2.46V36.2h2.46v2.7h1.85v-2.7h2.47zm3.35-1.2-.29 1.2h-2.6l2-7.62h3.8l2 7.62h-2.6l-.28-1.2zm1.08-4.08h-.14l-.5 2.13h1.13zm9.41 3.1.19 2.04q-.78.32-1.95.32t-1.88-.24a2.4 2.4 0 0 1-1.11-.77 3 3 0 0 1-.57-1.23 8 8 0 0 1-.16-1.75q0-1.03.16-1.74.16-.72.57-1.25.78-1 2.9-1a8 8 0 0 1 2.04.31l-.37 1.87a7 7 0 0 0-1.47-.17q-.66 0-.92.12t-.26.49v3.2q.48.09.97.09 1.05 0 1.86-.3M101 40.5h-.05v3.32H98.5V36.2h2.46v3.1h.05q.03-.36.13-.58l1.2-2.52H105l-1.84 3.74 1.9 3.88h-2.65l-1.27-2.73q-.1-.23-.13-.59m4.49 3.18.34-2q1.14.27 2.04.27t1.46-.07v-.61l-1.1-.1q-1.5-.13-2.07-.7-.56-.6-.56-1.73 0-1.55.68-2.14t2.32-.59 2.96.31l-.3 1.95q-1.15-.18-1.84-.18t-1.17.06v.6l.89.08q1.61.15 2.23.76.6.6.61 1.68 0 .76-.2 1.3-.23.53-.5.8-.3.28-.83.42-.52.15-.93.18a15 15 0 0 1-4.03-.29m11.44-2.79h-1.9v-1.75h1.9v-1.9h1.78v1.9h1.92v1.75h-1.92v1.9h-1.78zm13.84 2.93h-2.47v-2.7h-1.85v2.7H124V36.2h2.47v2.7h1.84v-2.7h2.47zm.86-3.8q0-2.09.79-3.05.78-.95 2.84-.95 2.07 0 2.85.95.79.96.79 3.04 0 1.04-.17 1.75-.17.7-.57 1.23-.41.52-1.12.77-.72.24-1.78.24t-1.77-.24a2.3 2.3 0 0 1-1.12-.77 3 3 0 0 1-.57-1.23 8 8 0 0 1-.17-1.75m2.65-1.28v3.17h1.02q.5 0 .73-.1.23-.13.23-.54V38.1h-1.03q-.5 0-.72.11-.24.12-.23.53m7.9 1.39-.15 3.69h-2.58l.47-7.62h3.22l.96 3.87h.08l.97-3.87h3.2l.48 7.62h-2.58l-.15-3.7h-.08l-.94 3.7h-1.88l-.95-3.7zm12.5-.96v1.77h-2.47v.93h3.02v1.95h-5.48V36.2h5.42l-.3 1.95h-2.66v1.02zm6.02 4.65h-4.42V36.2h4q1.1 0 1.57.42.48.43.48 1.25 0 .81-.3 1.26t-.8.58v.07q1.48.26 1.48 2.01 0 .91-.49 1.47t-1.52.56m-1-3.04h-.96v1.24h.95q.52 0 .52-.62t-.5-.62m-.18-2.91h-.78V39h.77q.47 0 .47-.56t-.46-.57m9.44 3.41 1.33 2.54h-2.71l-1.01-2.27h-.53v2.27h-2.47V36.2h3.89q2.64 0 2.64 2.67 0 1.83-1.14 2.41m-2.36-3.13h-.56v1.52h.56q.45 0 .65-.09t.2-.42v-.5q0-.33-.2-.42-.2-.1-.65-.1m9.48 1.02v1.77h-2.47v.93h3.02v1.95h-5.48V36.2h5.42l-.3 1.95h-2.66v1.02zm7.93 1.28.6-4.25h2.57l-1.21 7.62h-3.21l-.57-2.8h-.15l-.55 2.8h-3.22l-1.2-7.62h2.57l.58 4.25h.07l.89-4.25h1.88l.88 4.25z" style="fill:#fff;white-space:pre"/></svg>