<svg xmlns="http://www.w3.org/2000/svg" xml:space="preserve" id="Layer_1" x="0" y="0" viewBox="0 0 3840 715"><style id="style1" type="text/css">.st1{fill:#fff}</style><g id="g31" style="fill:#fff"><g id="g23" style="fill:#fff"><path id="rect1" d="M240.4 363.8h106.9v226.4H240.4z" class="st1" style="fill:#fff" transform="rotate(90 293.88 476.99)"/><g id="g4" style="fill:#fff"><path id="rect2" d="M671.4 398.3h106.9v310.1H671.4z" class="st1" style="fill:#fff"/><path id="path2" d="M778.3 398.3H671.4c0-46.5-69.7-46.5-69.7 0H494.8c-.1-189 283.5-189 283.5 0" class="st1" style="fill:#fff"/><path id="rect3" d="M494.7 398.3h106.9v310.1H494.7z" class="st1" style="fill:#fff"/><path id="rect4" d="M585.3 400.4h106.9v260.1H585.3z" class="st1" style="fill:#fff" transform="rotate(90 638.78 530.44)"/></g><g id="g6" style="fill:#fff"><path id="rect5" d="M2990.3 327.4h106.9v381h-106.9z" class="st1" style="fill:#fff"/><path id="rect6" d="M2990.3 187.7h106.9v244.6h-106.9z" class="st1" style="fill:#fff" transform="rotate(90 3043.73 310.01)"/></g><g id="g9" style="fill:#fff"><path id="rect7" d="M2417.1 398.3H2524v310.1h-106.9z" class="st1" style="fill:#fff"/><path id="path7" d="M2524 398.3h-106.9c0-46.5-69.7-46.5-69.7 0h-106.9c0-189 283.5-189 283.5 0" class="st1" style="fill:#fff"/><path id="rect8" d="M2240.5 398.3h106.9v310.1h-106.9z" class="st1" style="fill:#fff"/><path id="rect9" d="M2331.1 400.4H2438v260.1h-106.9z" class="st1" style="fill:#fff" transform="rotate(90 2384.54 530.44)"/></g><g id="g12" style="fill:#fff"><path id="rect10" d="M1008.1 393.7H1115v314.7h-106.9z" class="st1" style="fill:#fff"/><path id="rect11" d="M831.5 393.7h106.9v314.7H831.5z" class="st1" style="fill:#fff"/><path id="path11" d="M1061.6 398.3h-53.5c0-46.5-69.7-46.5-69.7 0H831.5c0-189 230.1-189 230.1 0" class="st1" style="fill:#fff"/><path id="path12" d="M1291.7 398.3h-106.9c0-46.5-69.7-46.5-69.7 0h-53.5c0-189 230.1-189 230.1 0" class="st1" style="fill:#fff"/><path id="rect12" d="M1184.8 393.7h106.9v314.7h-106.9z" class="st1" style="fill:#fff"/></g><g id="g15" style="fill:#fff"><path id="rect13" d="M1903.7 393.7h106.9v314.7h-106.9z" class="st1" style="fill:#fff"/><path id="rect14" d="M1727 393.7h106.9v314.7H1727z" class="st1" style="fill:#fff"/><path id="path14" d="M1957.2 398.3h-53.5c0-46.5-69.7-46.5-69.7 0h-106.9c-.1-189 230.1-189 230.1 0" class="st1" style="fill:#fff"/><path id="path15" d="M2187.3 398.3h-106.9c0-46.5-69.7-46.5-69.7 0h-53.5c0-189 230.1-189 230.1 0" class="st1" style="fill:#fff"/><path id="rect15" d="M2080.3 393.7h106.9v314.7h-106.9z" class="st1" style="fill:#fff"/></g><g id="g18" style="fill:#fff"><path id="rect16" d="M1419.3 386.1h106.9v192.8h-106.9z" class="st1" style="fill:#fff" transform="rotate(90 1472.7 482.47)"/><g id="g17" style="fill:#fff"><path id="rect17" d="M1419.3 213.6h106.9v192.8h-106.9z" class="st1" style="fill:#fff" transform="rotate(90 1472.7 309.99)"/><path id="path17" d="M1451.8 601.5v-345h-106.9v365.7a86.2 86.2 0 0 0 86.2 86.2h138V601.5z" class="st1" style="fill:#fff"/></g></g><g id="g22" style="fill:#fff"><g id="g20" style="fill:#fff"><path id="rect18" d="M3281 386.1h106.9v192.8H3281z" class="st1" style="fill:#fff" transform="rotate(90 3334.47 482.47)"/><g id="g19" style="fill:#fff"><path id="rect19" d="M3281 213.6h106.9v192.8H3281z" class="st1" style="fill:#fff" transform="rotate(90 3334.47 309.99)"/><path id="path19" d="M3313.6 601.5v-345h-106.9v365.7a86.2 86.2 0 0 0 86.2 86.2h138V601.5z" class="st1" style="fill:#fff"/></g></g><g id="g21" style="fill:#fff"><path id="rect20" d="M3484.1 413H3591v295.4h-106.9z" class="st1" style="fill:#fff"/><path id="polygon20" d="m3697.6 511.6-22.6 22.7-84-65.8 31.1 118.7L3749.9 715l75.6-75.6z" class="st1" style="fill:#fff"/><path id="path20" d="M3662 235c-98.3 0-178 79.7-178 178 0 73 44 135.7 106.9 163.1V468.5l30.8 117.7c13 3 26.4 4.7 40.2 4.7 98.3 0 178-79.7 178-178 .1-98.2-79.6-177.9-177.9-177.9m0 249.1c-39.2 0-71.1-31.8-71.1-71.1 0-39.2 31.8-71.1 71.1-71.1s71.1 31.8 71.1 71.1-31.8 71.1-71.1 71.1" class="st1" style="fill:#fff"/></g></g><path id="path22" d="M2880.8 256.6h-62.9a127.8 127.8 0 0 0-126.1 106.9l-32.9 198.3a47.6 47.6 0 0 1-46.9 39.8h-47.4v106.9h70c62.5 0 115.9-45.2 126.1-106.9l32.9-198.3a47.6 47.6 0 0 1 46.9-39.8h40.3z" class="st1" style="fill:#fff"/><path id="path23" d="m380.1 423.5-40.8 40.8c.2 2.6.4 5.1.4 7.7 0 64.3-52.1 116.4-116.4 116.4S106.9 536.3 106.9 472 159 355.7 223.3 355.7c37.7 0 71 18 92.3 45.7l76-76c-40.9-46.9-101.1-76.6-168.3-76.6C100 248.8 0 348.7 0 472.1s100 223.3 223.3 223.3 223.3-100 223.3-223.3c0-16.7-1.8-32.9-5.3-48.5h-61.2z" class="st1" style="fill:#fff"/></g><g id="g30" style="fill:#fff"><path id="path24" d="M1297.8 3.5h54.1v57.1h49.4V3.5h54.1v161.7h-54.1v-58h-49.4v58h-54.1z" class="st1" style="fill:#fff"/><path id="path25" d="M1537.6 2.3h53.6l68.2 162.9h-58.7l-8.6-21.7h-56.6l-8.3 21.7h-57.8zm41.1 102.8-14.8-39.3-14.8 39.3z" class="st1" style="fill:#fff"/><path id="path26" d="M1673.4 3.5h79c28.6 0 46.9 7.2 58.2 18.5 9.7 9.7 14.8 21.7 14.8 38.3v.5c0 23.6-12.2 40-31.9 49.4l37.7 55h-61.7L1739 119h-11.6v46.2h-54.1V3.5zm77.4 76.9c12.9 0 20.8-5.8 20.8-15.7v-.5c0-10.4-8.1-15.5-20.6-15.5h-23.6v31.6h23.4z" class="st1" style="fill:#fff"/><path id="path27" d="M1887.3 49.2h-47.6V3.5H1989v45.7h-47.6v116h-54.1z" class="st1" style="fill:#fff"/><path id="path28" d="M2007.2 92.6V3.5h55V92c0 20.1 10.4 28.6 24.9 28.6s24.9-7.9 24.9-27.5V3.5h55v88c0 55.2-32.1 76.9-80.4 76.9-48.2 0-79.4-22.2-79.4-75.8" class="st1" style="fill:#fff"/><path id="path29" d="M2191.5 3.5h50.6l57.5 71.4V3.5h53.6v161.7h-48.1L2245 90.6v74.6h-53.6V3.5z" class="st1" style="fill:#fff"/><path id="path30" d="M2375.4 84.8v-.5c0-48.3 38.1-84.3 89.2-84.3 27.7 0 50.1 9.2 67.7 24.5L2502 61c-10.6-9-22.4-14.1-35.8-14.1-21 0-36.3 16.2-36.3 38.1v.5c0 22.9 15.9 38.6 38.6 38.6 9.2 0 14.3-1.4 18.5-3.7v-16.2h-27.7V69.5h78.3v74.8c-17.6 14.3-42 24.3-71.4 24.3-50.4.1-90.8-33.7-90.8-83.8" class="st1" style="fill:#fff"/></g></g></svg>