<?xml version="1.0" encoding="UTF-8" standalone="no"?><svg viewBox="0 0 2503 529" version="1.1" id="svg1" xmlns="http://www.w3.org/2000/svg" xmlns:svg="http://www.w3.org/2000/svg"><path fill="currentColor" stroke="currentColor" stroke-width=".09" d="M203.1 7.7a272 272 0 0 1 96-5.5c51.4 6.2 100.7 28.1 139.8 61.9 28.4 24.4 51.7 54.7 67.5 88.7 19.8 41.8 27.9 89.1 23.7 135.2-3.3 37.6-14.9 74.5-33.8 107.3-1.5 2.5-2.7 5.3-4.3 7.8a260 260 0 0 1-40.1 49.8c-2.8 2.9-5.6 5.8-8.7 8.2-29.3 26.3-64.5 45.7-102.2 56.9a270 270 0 0 1-108.4 8.6c-46.7-5.8-91.8-24.4-129.1-53.2-26.8-20.8-49.8-46.6-66.9-76-1.3-2.3-3.5-3.8-4.5-6.3-.8-1.5-1.6-3.1-2.4-4.7-2.1-4.6-4.9-8.9-6.5-13.7l-.7-.1c-.1-2.5-1.6-4.5-2.3-6.9l-.7-.1c0-1.9-.9-3.6-1.8-5.3-1.2-3.7-2.3-7.5-4-11-.9-4.4-2.5-8.7-4.1-12.9-3.4-15-7-30-8.1-45.4-1.7-13.9-1.3-28-1-42 1-17.6 4-35.1 8.3-52.2 3.7-13.6 8.5-26.9 14.1-39.8 13-28.3 30.5-54.5 52.5-76.6 34.5-35.7 79.4-61.1 127.7-72.7M240 33.3c-54.3 5.8-106.2 31.2-144.1 70.6-36.1 37.1-59.3 86.6-64.1 138.2-2.2 23.6-1 47.7 4.2 70.9.7 4.1 1.8 8.1 3 12.1 5.4 20.1 13.8 39.5 24.6 57.4 2 3.5 4.5 6.8 6.7 10.3 1.7 2.6 3.8 5 5.4 7.8 3.8 3.9 6.7 8.4 10.3 12.4 2.4 2 4.2 4.5 6 7 5.4 5.4 10.7 10.7 16.2 16 2.5 1 4.1 3.3 6 5 2.5.9 4.1 3.3 6 5 1.6.6 2.8 1.8 4 3 1.6.7 2.8 1.8 4 2.9 1.1.6 2.1 1.3 3.2 2 1 .6 2 1.3 2.9 2 1 .6 2 1.3 3 2 6.1 3.6 11.9 7.6 18.3 10.6.5.2 1.5.8 2 1 1.3.7 2.6 1.3 4 2 1.3.7 2.6 1.3 4 2 2.2 1.2 4.4 2.5 6.9 3 2.3 1.1 4.5 2.4 7 3 3.5 1.8 7.3 2.7 11 4 1 .3 2 .7 3 1s2 .7 3 1c2.3.8 4.6 1.6 7 1.9 3.8 1.5 7.8 2.6 11.9 3q4.35 1.5 9 2.1c1.9.8 4 .8 6 .9 2.5 1.2 5.3.8 8 1 2.8 1.5 6 .6 9 1.2 1.8.4 3.7.7 5.6.7 8.3.1 16.7 0 25 .1 5.4.2 10.6-1.2 15.9-1.2 3.2-1 6.7-.3 9.7-1.6 5.9-.6 11.7-1.7 17.4-3.2 9.7-2.4 19.5-4.7 28.6-8.8 3.6-.9 6.8-2.4 10.2-3.7 2.9-1.1 5.5-3 8.5-3.7v-.7c3.1-.2 5.8-2.1 8.4-3.6 3.3-2.3 7.1-3.6 10.4-5.8 6.5-3.7 12.3-8.3 18.7-12.1 1.2-1.2 2.4-2.3 4-3 1.2-1.2 2.4-2.4 4-3 1.6-1.5 2.9-3.2 5-4 2.7-2.2 4.7-5.5 8-7 5.1-5 10.2-10.1 15.2-15.2 1.5-3.3 4.7-5.3 7-8 .9-2.5 3.3-4.1 5-6 .5-1.1 1.2-2.1 1.9-3.1.8-1.5 1.9-2.7 3-4 .7-1.5 1.9-2.7 3-4 .6-1 1.3-2.1 2-3 1.8-2.6 3.1-5.5 5-8 1.5-2.3 2.9-4.6 4-7.1 1.5-3.1 3.7-5.8 5-9 1.5-3.4 3.7-6.5 4.6-10.1 1.1-2.3 2.4-4.5 3-7 1.4-2.5 2.2-5.3 3-8 1.8-3.8 3.2-7.8 3.9-11.9.4-1.1.7-2.1 1.1-3.1 1.7-5.2 3.2-10.5 3.9-15.9 1.5-5.6 2.4-11.3 3-17 1.3-2.8.7-6 1-9 1.6-3.7.6-7.8.9-11.7-63.4-.5-126.9-.7-190.3-.7-4.5 0-9-.1-13.5.1.2 17.5.2 34.9 0 52.4 28.1 0 56.1.1 84.2-.2-.1.9-.2 1.8-.2 2.7-1.7 1.9-3 3.9-4.2 6.1-3.6 6.2-8.4 11.5-12.9 17.1-4.2 4.5-8.7 8.7-12.9 13.1-.9 1-2.1 1.8-3.3 2.4-3.9 3.4-8.2 6.4-12.8 8.8-.7.5-1.4 1.1-2.1 1.6-2.3.9-4.1 3-6.6 3.4l-.1.9h-1.5c-.6.2-1.8.8-2.4 1.1l-.1.6c-1.4.3-2.7.8-4 1.3-2.7 1.6-5.7 2.3-8.4 3.7-8.4 2.9-17.1 5.1-25.8 6.3-5.8 1.3-11.7.8-17.4 1.5-5 .7-10-.5-15-.5-5.8-.1-11.4-1.7-17.1-2.4-1.3-.5-2.7-.8-4.1-1-20.4-5.4-39.7-15.4-55.7-29.3-8-7.4-15.6-15.2-21.7-24.3a131.3 131.3 0 0 1-23.6-71.6c-.5-25.6 6.4-51.4 20.2-73 .5-1.1 1.5-1.7 2.4-2.3 1.5 4.1 4.5 7.4 6.9 10.9 1.2 1.9 3.4 2.7 4.9 4.2 2.7 2.6 6 4.3 9.3 6.1l2 .4c1 .4 2 .7 3 1.1 1.6.6 3.3.7 4.9.9.4.1 1.2.5 1.6.6 3.5 0 7.3.9 10.6-.7 1.6-.2 3.4 0 4.9-.9.6-.1 1.6-.3 2.1-.4.9-.6 1.9-1.2 2.8-1.7.6-.1 1.6-.2 2.2-.3 1.1-1.1 2.4-1.9 3.8-2.6 3.2-1.6 5.3-4.7 7.9-7 3.4-2.9 5.5-6.9 7.6-10.8.1-.5.2-1.5.3-2.1.5-.9 1.1-1.9 1.7-2.8l.3-4c1.3-2 .7-4.4.9-6.6-.1-2.2.3-4.5-.8-6.5-.2-1.4-.5-2.7-.9-4q-.45-1.5-1.2-3c0-.5-.2-1.6-.3-2.1-2.7-4-4.9-8.4-8.6-11.7-2-1.9-3.8-4.3-6.5-5.2.3-1.3.7-2.6 2.2-2.7 19.6-7.9 41-10.8 62-9.1 31.6 2.7 62.3 17 84.4 39.9 10.4 10.3 18.8 22.7 25.3 35.8 36.3 0 72.5-.3 108.8-.2-2.6-6.2-3.4-13.1-6.2-19.3-2.4-6.2-4.4-12.7-7.7-18.5-1.6-5.5-4.8-10.4-7.6-15.3-.4-.9-.9-1.7-1.3-2.6-7.1-12.6-15.3-24.5-24.7-35.5-2.6-2.1-4-5.3-6.5-7.6-6.1-6.1-12.2-12.4-18.5-18.4-4-3.3-8-6.8-12.2-9.8A228 228 0 0 0 356.1 49c-7.6-3.1-15.3-5.8-23.2-7.9-30-8.8-61.8-11.3-92.9-7.8Zm992.2 100.3c116-.1 231.9 0 347.8 0 2.6.1 5.3-.5 7.8.7 11.3 5.2 20.9 14.2 26.1 25.6 6 12.9 6.3 27.7 3.5 41.4-3.3 15.9-10.7 30.7-20.2 43.9-15.9 22.1-37.6 39.6-61.5 52.5-2.3 1.4-5.2.8-7.7.9h-179.9c5.6-18.8 11.1-37.6 16.8-56.4H1482c1.5.1 2.9-.3 4.1-1.3 7.8-6.1 15.5-13.8 17.8-23.8 1.9-8-.9-16.1-5.1-22.9H1339c-4.8 0-9.6-.1-14.4.1-1.8 5.7-3.9 11.2-5.8 16.8-20.8 59.7-41.6 119.5-62.5 179.3h-115.1c30.2-85.6 60.8-171.1 91-256.8Zm449.3.7c4.5-.2 9-.1 13.5-.1h320c2.9.1 6.2-.6 8.9 1.1 8.8 4.6 17.4 10.2 24.2 17.6 5.1 5.4 9.1 12 11.1 19.2 2.1 7.7 1.9 16 0 23.8-2.4 10.3-7.1 19.8-12.5 28.8-6.6 10.8-14.4 20.9-22.5 30.6 1.8 16.2 1.9 32.7-2 48.6-3.4 15-10.4 29.2-20.2 41.1-15.3 18.8-36.4 31.8-58 42.1-3 1.2-5.8 2.9-8.9 3.8-2.7.2-5.4.1-8.1.1h-334.1q11.85-30 24-60h284.3c4.5-4.1 7.6-9.4 9.5-15.1 3.5-10.6 4-21.8 4.3-32.9-85 0-170 .1-255 0 7.6-17.2 15.1-34.4 22.6-51.6l-.5-1.3c3.6-1.9 8-.3 11.9-.9h230c3.9.2 7.9-.3 11.9.3-2.3.4-4.6.3-6.9.3h-235c-3.7.2-7.8-.9-11 1.2 81-.2 162 0 243-.1 3.6-.1 7.2.3 10.8-.2 5.3-3.6 9.2-9.3 10.2-15.7.9-6.5-.4-13-.7-19.5-4.8-.2-9.5-.1-14.3-.1h-272.5c7.2-20.4 14.8-40.7 22-61.1Zm451.1 3.3c2.8-1.9 5.8-4 9.4-4h329c1.5 0 3 .2 4.2 1.1 8 5.2 15.3 11.5 20.7 19.4 2.9 4.2 5.1 8.9 7.1 13.7V205c-5.5 17-15.4 32.4-28 45a134 134 0 0 1-42.8 29.2c-3 1.2-5.9 2.7-9.2 2.6h-230c-3.4 0-6.7-.2-10.1.1-1.1 1-1.6 2.5-2.3 3.7-5 10.2-11 20-14.1 31-1.7 5.7-1.5 11.8.8 17.3 6.2.2 12.5.1 18.7.1h251c5.6 0 11.2-.1 16.8.2-5.3 17.6-10.3 35.4-15.3 53.1-.7 1.1-.6 3.6-2.5 3.1h-399.2c9.8-29 16.7-59.1 29.6-87.1 8.1-17.7 18.9-34.3 33-47.9 10.5-10.2 22.7-18.6 35.6-25.4 1.6-.8 3.2-1.7 5-1.6h242c5.3-5.6 10.1-12.5 10.6-20.4.4-4.9-2.5-9.7-6.9-11.8-3.2-.5-6.5-.1-9.7-.2h-266c2.6-12.3 4.4-24.8 8.4-36.7 2.8-8.2 7-16.4 14.2-21.7Zm-1305.4-2.2c2.5-.9 5.2-.6 7.8-.6 115.2 0 230.4-.1 345.6 0-8.2 20.1-16.8 40-25 60-92.2.1-184.4 0-276.6 0-5 0-9.9-.1-14.8.1-4.9 7.3-8.3 15.4-11.8 23.3-9.4 21.9-17.6 44.2-25.1 66.7-3.6 11.5-7.3 23-9.8 34.8-.7 3.3-1.1 6.7-.6 10.1h189.2c4.9-11.9 9.7-24 14.6-36 1.5-3.8 3.2-7.5 4.4-11.4h-62.2c.1-13.2 7-24.9 14.4-35.4h162.6c-9.6 27.1-18.7 54.6-32.2 80.1-6.9 13.3-15.3 26-25.6 37-10.8 11.4-24 20.7-38.7 26.4-2.7.9-5.6.4-8.4.5H749c-3.4-.1-6.9.5-10-1-10.8-4.2-21.3-10.9-26.5-21.6-5.7-11.7-4.3-25.3-1.3-37.5 5.9-23.4 17-45 23.3-68.3 1.1-3.8 1.5-7.9 2.8-11.7 9.8-25.9 20.3-52.2 37-74.6 13.3-18.3 31.6-33.1 52.9-40.9Z" id="path1" style="fill:#ffffff"/></svg>