<svg xmlns="http://www.w3.org/2000/svg" viewBox="0 0 3839 933.2"><path d="M1977.7 10v913.2H10V10zm10-10H0v933.2h1987.7zm1333.1 137c-18.3 0-33.2 59.3-33.2 132.5v394c0 73.1 14.9 132.5 33.2 132.5s33.2-59.3 33.2-132.5v-394c0-73.1-14.9-132.5-33.2-132.5m-269.9 0c-18.3 0-33.2 59.3-33.2 132.5v394c0 73.1 14.9 132.5 33.2 132.5s33.2-59.3 33.2-132.5v-394c0-73.1-14.9-132.5-33.2-132.5" class="st3" style="fill:#fff"/><path d="M1987.7 0v933.2H3839V0zm349.8 816.7h-6.9l-24.2-78.9h-.3c-14.3 51.1-25.6 81.9-53.5 81.9-63.2 0-114.4-158-114.4-353.1s51.2-353.1 114.4-353.1c18 0 33.1 11.7 45 34.3l22.1-31.6h6.9v215.2h-7c-16-99.1-45.5-194.4-67-194.4s-38.8 59.3-38.8 132.5v394.1c0 73.1 17.4 132.5 38.8 132.5 18.1 0 25.3-42.1 29.7-99.1V451.5l-34.1-23.9v-6.9h89.3zm322.5-.1h-119v-6.9l30.8-21.6-59.2-266.9-65.1 269.9 26.6 18.6v6.9h-86.2v-6.9l33-23 78.4-325.5-68.5-309-31.7-22.2v-6.9h119v6.9l-30.7 21.6 51.5 232.3 56.6-234.7-27.6-19.2v-6.9h86.3v6.9l-31.8 22.2-70.3 291.7 76.2 343.7 31.7 22.1zm229-207.9h-47.8v178.8l31.8 22.2v6.9h-118.9v-6.9l31.7-22.2V608.7h-106.5l102.8-485.6h68.8L2715 581.7h70.8V457l55.4-39v163.7h47.8zm161.9 210.9c-54.2 0-98-158-98-353.1s43.9-353.1 98-353.1 98 158 98 353.1-43.9 353.1-98 353.1m269.8 0c-54.2 0-98-158-98-353.1s43.9-353.1 98-353.1 98 158 98 353.1-43.8 353.1-98 353.1m269.8 0c-54.2 0-98-158-98-353.1s43.9-353.1 98-353.1c54 0 98 158 98 353.1s-43.8 353.1-98 353.1" class="st3" style="fill:#fff"/><path d="M3590.5 137c-18.3 0-33.2 59.3-33.2 132.5v394.1c0 73.1 14.9 132.5 33.2 132.5s33.2-59.4 33.2-132.6v-394c0-73.1-14.9-132.5-33.2-132.5M347.1 710.2h-96.8l-8-96.1H203l-7.3 96.1H99.6l61.2-485.5h125.9zM222.6 345.4 208.8 534h27.7zm450.7 364.8h-92.4V435l-36.4 275.2h-59.7l-38.6-276.7v276.7h-92.4V224.6h135.5l24.1 214.7 25.5-214.7h134.7v485.6zm151.3-318.9v-57.6c0-15.3-.7-20.4-2.1-24.1-2.9-5.1-7.3-8.8-12.4-8.8s-10.9 3.6-13.1 8.8c-1.5 4.4-2.1 8-2.1 24.1v35.6c0 16.1 4.4 21.8 23.3 32l43.7 24.1c57.6 32 65.5 45.1 65.5 110.6v78c0 42.3-2.9 56.1-14.6 71.4-16 21.8-33.5 26.2-109.2 26.2-60.5 0-77.1-3.6-93.2-21.8-9.4-10.2-13.8-21.8-16-40-1.5-9.4-1.5-20.4-1.5-53.2v-87.3h102v93.9c0 19.7 4.4 27.7 15.3 27.7 9.4 0 14.5-8 14.5-21.8v-66.3l-.7-10.2c-.7-18.2-2.9-21.8-20.4-31.3-6.5-3.6-11.7-5.8-12.4-6.5l-43.1-24.1c-47.3-27-55.3-42.3-55.3-102.6v-56.8c0-40 4.4-57.6 19.7-71.4 16-14.5 35-18.2 105.6-18.2 61.8 0 78.6 4.4 93.9 24.7 12.4 16.1 15.3 31.3 15.3 76.4v68.5zM1088 710.2H985.3v-407h-51.7v-78.6h204.6v78.6H1088zm165.8-485.6 36.4.7c71.4 1.5 88.8 20.4 88.8 93.9v50.9c0 67.7-10.2 91.1-45.9 100.5 17.4 5.8 27.7 13.8 35 27 9.4 16.7 10.9 29.9 10.9 86.7v125.9h-102V564.6c0-48 0-47.3-25.5-48h-4.4v193.7h-102.6V224.6zm.6 203.1c19.7 0 22.6-4.4 22.6-35.6v-52.4l-.7-13.1c0-17.4-4.4-22.6-18.2-22.6h-10.9v123.8c3.6-.1 5.9-.1 7.2-.1m375 282.5h-96.8l-8-96.1h-39.3l-7.3 96.1h-96.1l61.2-485.5H1569zm-124.5-364.8L1491.1 534h27.7zm230.7-120.8c88.1 0 100.5 2.1 117.2 21.8 15.3 17.4 18.9 36.4 18.9 103.4v239.6c0 59.7-2.1 75.8-13.8 93.2-13.8 20.4-34.2 27-84.4 27l-51.7.7h-85.9V224.6zm12.5 406.3c16 0 19.7-5.1 19.7-25.5V330.9c0-21.8-3.6-27-19.7-27-2.1 0-5.8.7-9.4.7v326.1c3.5.2 7.1.2 9.4.2" class="st3" style="fill:#fff"/><path d="M1227 933.2 1675.4 0h-11.1l-448.4 933.2zm-385.8 0L1303.3 0h-11.2L830 933.2z" class="st3" style="fill:#fff"/></svg>