<svg xmlns="http://www.w3.org/2000/svg" viewBox="0 0 1680 869.2"><path d="m1476.3 1327.81-.29-292.5-46.77 163.41-46.7-162.66-.29 222.04-152.49-114.38 11.56-8.66-.53-569.31 144.95.38 43.45 152.2 43.5-152.4 214.44.69-70.36 52.58-.13 814.43zM78.33 619.06l-71.2-53.33 401.3.55 45.93 35.08.04 533.5 12.17 8.82-388.15 291.25zm235.52 416.22-.16-307.9-10.75-8.78-83.45.4-.18 387.18zm152.4 82.78-.08-516.75 47.08-35.28 281.7-.02 46.97 35.43.18 597.96-133.23 100.2zM689.37 718.3l-71.04.5-11.1 8.52.16 308.1 93.32 70 .25-377.93zm164.81 481.66-.34-598.8 46.92-35.24 282.07.27 47.22 35.28-.33 515.56-241.33 182.45zm234.65-164.74-.03-308.03-11.87-9.07-70.93.23-11.4 8.78.7 377.33z" style="fill:#fff;fill-opacity:1;stroke:none" transform="translate(-7.13 -565.73)"/></svg>