<svg xmlns="http://www.w3.org/2000/svg" viewBox="0 0 400 388.5"><path d="M232.64 337.44c19.52 0 47.68-19.36 47.68-27.84V188c-14.72-14.56-29.28-23.36-47.68-23.36-41.12 0-52.8 60.48-52.8 87.68 0 42.56 11.36 85.12 52.8 85.12M211.2 110.88c32 0 52.48 9.12 69.12 19.68V90.4c0-21.28-29.6-24.96-39.84-24.96V25.6c21.76 0 83.04-4.32 93.6-24 10.56-.48 21.28-1.12 32-1.6v321.12c0 22.24 26.56 22.24 33.92 22.24v45.12H289.44V364.8c-26.72 14.56-48.96 23.68-82.88 23.68-17.7 0-34.73-4.58-50.08-12.72v12.72H0v-45.12c22.24 0 36.96-10.56 36.96-27.68V199.04c0-16-18.72-23.84-36.96-23.84v-40.64L84.32 124h40.64v32.31c23.63-28.47 55.63-45.43 86.24-45.43M76.32 7.52a47.1 47.1 0 0 1 47.04 47.04c0 25.76-21.12 46.88-47.04 46.88-25.76 0-46.88-21.12-46.88-46.88 0-25.92 21.12-47.04 46.88-47.04m12.32 252.15c0 50.73 28.32 95.05 67.84 116v-32.31c-13.92 0-31.52 0-31.52-18.72V156.48c-21.76 26.24-36.32 61.92-36.32 103.2" style="fill:#fff"/></svg>