<svg xmlns="http://www.w3.org/2000/svg" viewBox="0 0 148.21 17.76"><defs><path id="a" d="M27.8 54.52h332.48v65.21H27.8z"/></defs><g aria-label="I.K.E.M.E.N" style="font-size:10.5833px;line-height:1.25;font-family:&quot;Serpentine Sans ICG&quot;;-inkscape-font-specification:&quot;Serpentine Sans ICG&quot;;white-space:pre;shape-inside:url(#a);fill:#fff;fill-opacity:1;stroke:#f9f9f9;stroke-width:3;stroke-linejoin:round;stroke-miterlimit:4;stroke-dasharray:none;stroke-opacity:1;paint-order:stroke fill markers" transform="matrix(.5 0 0 .5 -14.55 -33.6)"><path d="M42.99 101.2h-12.4V68.7H43zm17.04 0H48.04v-8.53h11.99zm42.12 0H87.72l-7.26-13.76-2.95 3.3v10.47h-12.4V68.7h12.4v14.58L89.96 68.7h7.72l-8.99 9.6zm16.12 0h-11.99v-8.53h12zm33.23 0h-28.14V68.7h28.14v5.38h-15.74v7.62h14.42v5.39h-14.42v8.73h15.74zm16.38 0H155.9v-8.53h12zm49.39 0h-12.4V75.6h-.1l-9 25.6h-8.58l-8.73-25.6h-.1v25.6h-5.39V68.7h15.85l6.2 18.44h.1l6.6-18.44h15.55zm17.09 0h-12v-8.53h12zm33.23 0h-28.14V68.7h28.14v5.38h-15.75v7.62h14.43v5.39h-14.43v8.73h15.75zm16.38 0h-12v-8.53h12zm40.03 0h-16.05l-13.4-26.92h-.1v26.93h-5.4V68.7h16.21l13.2 26.51h.16V68.7h5.39z" style="font-size:50.8px;fill:#fff;fill-opacity:1;stroke:#f9f9f9;stroke-width:3;stroke-linejoin:round;stroke-miterlimit:4;stroke-dasharray:none;stroke-opacity:1;paint-order:stroke fill markers"/></g></svg>