<svg xmlns="http://www.w3.org/2000/svg" viewBox="0 0 264 30"><path d="m48.3 25.18 1.91-5.54q2.87.77 5.26.77 2.4 0 3.86-.2l.27-1.68-2.83-.27q-3.25-.3-4.6-1.44a4 4 0 0 1-1.34-3.23q0-.9.2-2.01.78-4.3 2.85-5.91t6.4-1.62 7.65.84l-1.78 5.38q-2.97-.5-4.78-.5-1.8 0-3.07.16l-.27 1.65 2.29.23q3.48.38 4.95 1.64a4.2 4.2 0 0 1 1.46 3.37q0 2.15-.95 4.43a10 10 0 0 1-1.05 1.97q-.56.79-1.43 1.34-.86.56-1.58.83-.73.3-1.81.43-1.6.23-3.93.23-4.23 0-7.68-.87m34.92-5.64-.55 5.64q-2.18.87-5.53.87-4.3 0-6.16-1.64-1.86-1.65-1.86-5.07 0-1.45.48-4.27 1.02-5.77 3.53-8.4 2.5-2.61 7.94-2.62 1.26 0 2.89.26 1.62.25 2.37.62l-1.91 5.14q-2.02-.48-3.77-.47a7 7 0 0 0-2.52.33q-.74.34-.92 1.35l-1.57 8.8q1.23.27 2.53.27 2.77 0 5.05-.81m17.82-.98 2.25 7h-7.13l-1.57-6.26h-1.4l-1.1 6.25h-6.48l3.75-21h10.25q5.83 0 5.83 5.15 0 2.1-.65 4.03-1.2 3.62-3.75 4.83m-4.88-8.63h-1.3l-.75 4.2h1.5q1.17 0 1.75-.25.6-.26.82-1.44a12 12 0 0 0 .23-1.47q0-.67-.52-.86a6 6 0 0 0-1.73-.18m25.16 2.82-.9 4.87h-6.48l-.44 2.56h7.95l-.95 5.37h-14.44l3.75-21h14.27l-1.77 5.38h-7l-.48 2.82zm18.09 0-.9 4.87h-6.48l-.44 2.56h7.95l-.95 5.37h-14.44l3.75-21h14.27l-1.77 5.38h-7l-.48 2.82zm20.85 12.8h-6.1l-3.49-7.46q-.13-.23-.13-.66 0-.4.06-.95h-.27l-1.6 9.07h-6.49l3.75-21h6.11l3.49 7.47q.1.23.1.66 0 .4-.07.95h.27l1.64-9.07h6.49zm3.72-.37 1.92-5.54q2.86.77 5.25.77t3.86-.2l.27-1.68-2.83-.27q-3.25-.3-4.6-1.44a4 4 0 0 1-1.34-3.23q0-.9.2-2.01.8-4.3 2.85-5.91 2.07-1.62 6.4-1.62t7.65.84l-1.77 5.38q-2.97-.5-4.78-.5-1.8 0-3.07.16l-.28 1.65 2.29.23q3.48.38 4.95 1.64a4.2 4.2 0 0 1 1.47 3.37q0 2.15-.96 4.43a10 10 0 0 1-1.05 1.97 5 5 0 0 1-1.43 1.34q-.86.56-1.58.83-.72.3-1.81.43-1.6.23-3.93.23a31 31 0 0 1-7.68-.87m38.1.37h-6.49l1.3-7.42h-4.88l-1.3 7.42h-6.48l3.75-21h6.49l-1.34 7.43h4.89l1.33-7.42h6.48zm12.83-13.97-1.57 8.73h2.7q1.34 0 1.98-.31.65-.32.85-1.47l1.57-8.73h-2.73q-1.3 0-1.94.31-.66.32-.86 1.47m3.93-7.53q4.33 0 6.18 1.67 1.84 1.65 1.84 5.12 0 3.46-1.11 7.24a12 12 0 0 1-3.52 5.87q-2.4 2.1-7.03 2.1-4.62 0-6.46-1.65-1.85-1.66-1.85-5.13 0-1.64.48-4.34.48-2.72 1.26-4.67a11 11 0 0 1 2.12-3.42q2.55-2.79 8.09-2.79m27.17.5-.99 5.38h-4.7l-2.78 15.62h-6.48l2.76-15.62h-4.67l.99-5.37zm-1.64 20.63 1.91-5.54q2.87.77 5.26.77 2.4 0 3.86-.2l.27-1.68-2.83-.27q-3.24-.3-4.6-1.44a4 4 0 0 1-1.34-3.23q0-.9.2-2.01.79-4.3 2.85-5.91t6.4-1.62 7.65.84l-1.77 5.38q-2.98-.5-4.78-.5t-3.08.16l-.27 1.65 2.29.23q3.48.38 4.95 1.64a4.2 4.2 0 0 1 1.47 3.37q0 2.15-.96 4.43a10 10 0 0 1-1.05 1.97 5 5 0 0 1-1.43 1.34q-.87.56-1.58.83-.72.3-1.81.43-1.6.23-3.93.23-4.23 0-7.68-.87" style="white-space:pre;fill:#fff"/><path d="M35.73 0H2.75A2.74 2.74 0 0 0 0 2.73v24.54C0 28.77 1.23 30 2.75 30h32.98a2.74 2.74 0 0 0 2.75-2.73V2.73c0-1.5-1.23-2.73-2.75-2.73M8.25 5.45a2.73 2.73 0 0 1 2.38 4.1A2.76 2.76 0 0 1 5.5 8.18c0-1.5 1.23-2.73 2.74-2.73m24.73 19.1H5.5v-2.73l5.5-5.46 2.74 2.73 11-10.9 8.24 8.17z" style="fill:#fff"/></svg>