<svg xmlns="http://www.w3.org/2000/svg" viewBox="0 0 3839 566.3"><path d="M0 27.8h144.4v528.8H0zm467.9 99v209.1L331.7 148c-43.2-59.6-137.5-29-137.5 44.6v364h71.7V303.3L438.3 541c31.8 44 101.2 21.4 101.2-32.8V126.8zm3299.5 0v209.1L3631.2 148c-43.2-59.6-137.5-29-137.5 44.6v364h71.7V303.3L3737.8 541c31.8 44 101.2 21.4 101.2-32.8V126.8zM2333.9 0h-74L2144 451.3l-90.1-324.5h-149.8l110.1 367.9c29.2 97.5 168.3 94.8 193.6-3.8z" class="st2" style="fill:#fff"/><path d="M792.6 484.8a20 20 0 0 1-20-20V218.6c0-11.1 9-20.1 20.1-20.1h82.2v-71.7H772.5v-99L516.2 198.5h91.9c11.1 0 20.1 9 20.1 20.1v245.9c0 50.9 41.3 92.1 92.1 92.1h154.4v-71.7zm568.7-20v-338H1217v337.6c0 50.9 41.3 92.1 92.1 92.1h154.4v-71.7h-82.2a20 20 0 0 1-20-20m271.4 20a20 20 0 0 1-20-20v-338h-144.3v337.6c0 50.9 41.3 92.1 92.1 92.1h154.4v-71.7zM1195 198.5v-71.7H984.3c-50.9 0-92.2 41.3-92.2 92.2v245.5c0 50.9 41.3 92.2 92.2 92.2H1195V485h-138.4c-11.1 0-20.1-9-20.1-20.1v-87.3H1168v-71.7h-131.5v-87.2c0-11.1 9-20.1 20.1-20.1zm533.1 36.1h144.4v321.9h-144.4zm0-107.8h144.4v71.7h-144.4zm1122 107.8h144.4v321.9h-144.4zm0-107.8h144.4v71.7h-144.4zm-530.5 107.8H2464v321.9h-144.4zm0-107.8H2464v71.7h-144.4zm924.8 1.6c-80 0-223.8 18.1-223.8 218.6s143.8 218.6 223.8 218.6 223.8-18.1 223.8-218.6-143.8-218.6-223.8-218.6m65.4 297c0 33.7-26.9 81.1-65.4 81.1s-65.4-47.3-65.4-81.1v-157c0-33.7 26.9-81.1 65.4-81.1s65.4 47.3 65.4 81.1zm-487.3-52.3c-.4-2.6-1-5-1.5-7.5-14.3-66.3-66.3-79.1-147.3-100.6 0 0-.4-.1-.9-.3l-18.6-5c-35.1-9.4-28.3-61.3 8.1-61.3h117l-.5-71.7h-138c-83.6 0-148.4 58.1-148.4 143.1 0 87.6 96.6 115.4 147.7 120.9 32.1 3.4 63.1 16.8 63.1 48.3 0 25.3-21.8 45.9-45.5 45.9h-165.3v70.9s186.3.9 188.9.8c80-3.9 143.6-69.2 143.6-148.4 0-13.2-.7-24.7-2.4-35.1" class="st2" style="fill:#fff"/></svg>