<svg xmlns="http://www.w3.org/2000/svg" viewBox="0 0 264 128"><path d="M264 98.6c-2.06 0-4 .04-5.94-.02-1.15-.03-1.75-.62-1.98-1.79-.13-.63-.1-1.28-.22-1.9q-.31-1.62-1.75-.87-.84.48-1.58 1.08-8.32 6.5-18.57 4c-5.45-1.34-9-5.8-9.4-11.56-.63-9.1 5.33-14.87 12.2-16.78 2.7-.75 5.56-.93 8.37-1.25 2.47-.3 4.97-.43 7.44-.66 1.38-.14 1.82-.62 1.7-1.97-.2-2.28-.26-4.61-.79-6.82-.85-3.62-3.43-5.45-7.04-5.82a34.6 34.6 0 0 0-15.78 2.14c-.4.15-.84.42-1.24.38-.36-.03-.86-.33-1-.65-.38-.85-.6-1.79-.87-2.69-.39-1.22-.13-1.9 1.04-2.34 6.36-2.37 12.84-4.17 19.72-3.5q3.27.28 6.4 1.32c5.08 1.75 7.46 5.72 8.74 10.79.61 2.4.5 4.73.52 7.1.05 10.11.02 20.23.02 30.35zm-14.46-23.95c-3.04.07-6.05.22-9 1.1-3.85 1.18-6.03 3.66-6.43 7.77-.5 5.14 2.58 8.98 7.65 9.37 2.63.2 5.04-.63 7.39-1.7 2.77-1.23 4.54-3.33 4.82-6.37.26-3 .22-6.01.27-9.02 0-.75-.5-1.15-1.27-1.15zm-81.25 3.58v17.89c0 2.08-.4 2.48-2.48 2.5H164c-2.16-.09-3.08-1-3.33-3.16-.07-.6-.31-1.18-.48-1.77-.62.28-1.33.45-1.85.85a24 24 0 0 1-11.62 5.1c-4.35.6-8.46-.16-12.2-2.53-2.68-1.7-3.94-4.4-4.59-7.37-1.5-7 .59-14.63 10.01-18.2a36 36 0 0 1 11.95-2.26l4.62-.1c1.33-.04 2.06-.5 2.34-1.67.76-3.24.58-6.39-1.12-9.33-1.54-2.66-4.05-3.6-6.91-3.96-4.73-.61-9.25.43-13.74 1.72q-1.2.35-2.4.78c-.84.29-1.26-.08-1.47-.88-.18-.68-.35-1.36-.6-2.03-.6-1.62-.3-2.44 1.36-2.95 2.8-.87 5.6-1.74 8.44-2.4 5.4-1.27 10.8-1.47 16.19.1 6.01 1.73 9.52 6.3 9.6 12.61.04 2.85 0 5.69 0 8.53v8.54zm-9.16 2.56h-.06v-4.56c-.02-1.28-.31-1.6-1.55-1.58-1.76.02-3.51-.02-5.25.13-2.1.18-4.24.35-6.29.85-4.33 1.05-6.37 3.34-6.89 7.54-.37 3.03.1 5.86 2.7 7.85a9.2 9.2 0 0 0 7.73 1.71c3.1-.65 5.72-2.35 8.25-4.14 1.15-.82 1.37-2.1 1.37-3.44zm39.66 8.43c1.32-3.97 2.81-7.89 3.94-11.9 1.84-6.58 3.5-13.2 5.1-19.82.55-2.3.7-4.68.96-7.04.19-1.66.34-1.9 2.02-1.91q3.34-.05 6.67.04c1.2.03 1.5.48 1.23 1.65-3 13.11-6.09 26.2-10.94 38.79-.95 2.45-1.99 4.87-3.04 7.3-.81 1.87-1.77 2.35-3.82 2.3q-3.68-.1-7.37 0c-1.72.03-2.28-.3-2.8-1.97L176.4 50.61q-.15-.49-.23-.99c-.11-.7.16-1.1.92-1.1h5.76c1.91.02 3.29.98 3.93 2.8 1.04 2.96 2.1 5.92 2.98 8.94 2.6 8.8 5.13 17.64 7.69 26.45.24.84.62 1.63.94 2.45zm-77.83-25.4c0 7.51.08 15.02-.04 22.53a93 93 0 0 1-.8 12.33c-1.12 7.5-5.05 13.16-11.81 16.82-2.76 1.5-6.3-.46-7.23-2.5-.35-.76-.41-1.36.48-1.87 5.66-3.25 8.42-8.4 9.1-14.73.29-2.64.32-5.33.33-8q.08-18.48.07-36.96c0-5.9-.1-11.77-.12-17.66-.02-3.07.62-3.7 3.69-3.59q1.92.05 3.82.27c1.44.18 2 .74 2.23 2.2q.16 1.1.13 2.22.02 14.46 0 28.94zM62.25.01c.12.15.3.28.34.44 1.17 4.6 1.49 9.2-.17 13.78a23 23 0 0 1-5.6 8.47c-4.1 4.03-8.23 8-12.3 12.06-1.36 1.36-2.58 2.86-3.82 4.33-3.9 4.58-4.66 9.65-2.1 15.1 1.27 2.69 2.82 5.24 4.22 7.86q.24.46.43.97l-.29.23q-.6-.7-1.21-1.37a66 66 0 0 1-9.28-12.13c-2.02-3.4-2.07-6.8.17-10.01a40 40 0 0 1 5.4-6.4c4-3.72 8.29-7.14 12.4-10.73a72 72 0 0 0 5.63-5.25c3.8-4.1 5.62-9.08 6.03-14.61.04-.53-.13-1.07-.17-1.6q-.02-.54 0-1.1zm0 0" style="fill:#fff;fill-opacity:1;fill-rule:nonzero;stroke:none;stroke-width:1.25" transform="matrix(.8 0 0 .8 30.78 13.73)"/><path d="M73.29 25.44c-3.7 2.78-7.31 5.27-10.68 8.08a39 39 0 0 0-5.64 6.03c-2.35 3.02-2.35 6.3-.3 9.56 1.26 2 2.56 3.98 3.72 6.03 1.23 2.17 2.14 4.48 1.76 7.06a7 7 0 0 1-.57 2.03c-1.58 3.11-4.04 5.4-6.87 7.32l-.23-.16q.24-.42.52-.85 3.3-4.84.14-9.78c-.72-1.14-1.6-2.18-2.39-3.27-1.78-2.45-3.32-5.03-3.9-8.05-.92-4.6.41-8.57 3.5-12a36 36 0 0 1 11.77-8.43c2.67-1.24 5.45-2.3 8.2-3.42.24-.1.54-.09.97-.15m15.91 85.23c.74.82.56 1.47-.02 1.9-1.38 1.01-2.74 2.12-4.27 2.84-3.77 1.76-7.83 2.7-11.91 3.43-8.62 1.54-17.33 2.04-26.06 2.3a295 295 0 0 1-27.48-.48c-5.19-.34-10.33-1-15.35-2.42q-1.65-.5-3.14-1.35c-1.1-.63-1.27-1.58-.49-2.58a8 8 0 0 1 2.07-1.9 23 23 0 0 1 10.04-2.89l-1 .45c-.94.46-1.9.88-2.8 1.39-.75.41-1.23 1.07-1.16 1.99s.7 1.42 1.47 1.62c2.47.66 4.93 1.42 7.44 1.82a161 161 0 0 0 34.08 1.34c7.4-.46 14.8-.9 22.19-1.54 4.7-.4 9.37-1.1 13.77-2.98 1.26-.55 2.33-1.26 2.61-2.94m-22.22-5.65c-3.45.86-6.87 1.9-10.36 2.55a59.5 59.5 0 0 1-25.95-.74 16 16 0 0 1-4.5-1.96c-1.98-1.23-1.9-2.94.02-4.28.76-.52 1.62-.9 2.63-1.45.09 2.57 1.7 3.2 3.6 3.4a97 97 0 0 0 25.69-.63c2.27-.37 4.08-.24 5.91 1.06.92.66 1.97 1.14 2.96 1.7zm1.64-14.03c-3.84.81-7.67 1.76-11.53 2.44-7.63 1.32-15.3.88-22.98.32-3.7-.27-7.37-.75-10.86-2.13-1.03-.41-2.02-.82-2.18-2.12s.46-2.3 1.53-2.97c.94-.58 1.94-1.06 2.98-1.63-.34 3.05.2 3.56 3.2 4.38 1.76.49 3.65.59 5.5.69 9.9.52 19.7-.47 29.47-2.04q1-.09 1.87.41c1.05.64 2 1.46 3 2.2zm4.06-16.09c-1.9 2.25-4.38 2.37-6.77 2.7-9.41 1.28-18.84 2.57-28.36 2.53-8.2-.04-16.39-.23-24.4-2.16a7 7 0 0 1-1.72-.58c-.35-.18-.84-.6-.82-.88.03-.42.35-1 .71-1.19 1.6-.87 3.2-1.77 4.91-2.37 2.83-.98 5.72-1.76 8.6-2.6q.45-.1 1.03.18l-1.84.86c-1.13.53-2.27 1.04-3.37 1.62-.78.4-1.37 1.02-1.21 2.02.16 1.01.99 1.17 1.79 1.36 4.52 1.11 9.14 1.06 13.75 1.18 10.98.32 21.87-.88 32.75-2.12zm-47.11 50.76c2.06 0 4.15-.13 6.2.02 10.04.69 20.07.84 30.1.06 8.58-.67 17.12-1.62 25.26-4.66 2.17-.81 4.23-1.92 6.34-2.9l.7-.32.2.24c-.76.67-1.45 1.43-2.27 2-3.9 2.72-8.32 4.13-12.91 5.05A159 159 0 0 1 46.11 128c-6.82-.09-13.6-.47-20.28-2.02q-.15-.04-.28-.1zm54.23-34.2 2.93-2.27c2.33-1.86 4.64-3.77 6.17-6.36a16 16 0 0 0 1.95-4.62c.95-4.6-1.83-8.26-6.54-8.92-.84-.11-1.68-.15-2.51-.23l-.04-.29c1.24-.16 2.46-.45 3.7-.48a10.5 10.5 0 0 1 8.16 3.6 8.1 8.1 0 0 1 1.01 9.28 16 16 0 0 1-2.55 3.49c-3 3-6.64 5.26-10.64 6.63-.5.17-1.03.27-1.55.4zm0 0" style="fill:#fff;fill-opacity:1;fill-rule:nonzero;stroke:none;stroke-width:1.25" transform="matrix(.8 0 0 .8 30.78 13.73)"/></svg>