<svg xmlns="http://www.w3.org/2000/svg" viewBox="0 0 600 197"><path d="m398.78 42.09 3.04.2c7.78.53 15.21 2.36 22.16 5.96a53 53 0 0 1 13.28 9.9 55 55 0 0 1 10.44 14.63 55 55 0 0 1 4.24 12.58 64 64 0 0 1 1.3 16.18c-.37 8.72-2.3 17.06-6.41 24.82a55 55 0 0 1-11.06 14.37 51.4 51.4 0 0 1-25.11 13.17 61 61 0 0 1-10.78 1.34c-.16 0-.32.06-.49.08h-4.27l-2.79-.2c-11.12-.8-21.28-4.24-30.08-11.24a55 55 0 0 1-16.1-20.37 55 55 0 0 1-3.99-12.86 65 65 0 0 1-1-15.2c.54-10.72 3.36-20.74 9.59-29.61 7.28-10.39 16.8-17.78 29.1-21.35a57 57 0 0 1 11.47-2.1q1.85-.13 3.7-.23.3-.02.6-.07zm-1.69 98.67a49 49 0 0 0 11.54-1.28A37.7 37.7 0 0 0 429 126.75c5.52-6.6 8.39-14.27 9.17-22.78q.4-4.36.13-8.74c-.2-3.17-.61-6.3-1.45-9.37-2.63-9.57-8-17.2-16.26-22.73-6.18-4.13-13.09-6.02-20.46-6.39-4.03-.2-8.03-.01-12 .7a37.6 37.6 0 0 0-18.44 8.8 39 39 0 0 0-11.2 16.47 46 46 0 0 0-2.52 15.11c-.06 4.01.22 8 1.1 11.92a39.4 39.4 0 0 0 9.73 18.65q6.57 7.05 15.67 10.14c4.77 1.63 9.7 2.18 14.61 2.23M600 152.78c-.42 1-.74 1.21-1.88 1.21h-11.2c-1.32 0-1.8-.49-1.8-1.8V45.25c0-1.37.48-1.85 1.87-1.85q5.6-.01 11.2.02c.46 0 .96.19 1.36.43.24.15.3.57.45.87z" style="fill-opacity:1;fill:#fff"/><path d="m295.47 88.27 5.62 7.46 11.86 15.77 15.26 20.28 14.96 19.87c.38.49.53.99.27 1.55-.27.57-.8.76-1.38.79q-.4.02-.81 0h-13.8c-.79 0-1.37-.25-1.86-.9q-13.02-17.4-26.06-34.77l-14.8-19.72-.17-.2-1.78 1.67-12.01 11.23q-3.3 3.1-6.63 6.17c-.29.27-.4.53-.4.92v34.01q-.04 1.56-1.57 1.59H250.4c-.99 0-1.51-.56-1.53-1.56V45.26c0-1.35.48-1.85 1.82-1.85h11.46q1.54.06 1.6 1.6v52.9l2.48-2.32 14.18-13.31 18.61-17.43 15.59-14.63 6.57-6.17q.67-.64 1.6-.64h16.44q1.4 0 1.66 1.04c.16.58-.06 1.03-.46 1.41l-4.76 4.52-8.45 7.96q-5.86 5.5-11.7 11.03l-12 11.32zm174.78 10.45V45q.03-1.5 1.53-1.59h.2c15.22 0 30.45-.03 45.67.02 7 .03 13.7 1.6 20.1 4.46a47 47 0 0 1 14.68 10.32 52.5 52.5 0 0 1 13.77 25.14 68 68 0 0 1 1.72 16.9 62 62 0 0 1-4.4 22.2 52 52 0 0 1-10.26 15.9 48 48 0 0 1-24.41 14.22c-4.13 1-8.3 1.44-12.54 1.43h-44.25q-.37 0-.75-.06a1.1 1.1 0 0 1-.99-.96 5 5 0 0 1-.07-.85zm14.9 41.04h.65q14.87.01 29.73-.01 2.68 0 5.34-.21a31 31 0 0 0 10.55-2.81c4.38-2 8.07-4.94 11.25-8.55a41 41 0 0 0 7.02-11.26 44 44 0 0 0 3.18-13.74q.52-6.5-.45-12.93a41 41 0 0 0-4.97-14.31 38 38 0 0 0-11.18-12.48 32.3 32.3 0 0 0-18.75-5.79c-10.61-.05-21.22-.01-31.83-.01h-.55zM197.87 100.2c-.64 2.06-2.04 3.58-3.54 5.07q-15.04 15.02-30.06 30.06c-3.6 3.61-7.46 3.6-11.08-.02l-31.01-31.04c-3.52-3.52-3.52-7.37.01-10.9l31.18-31.21c3.38-3.39 7.36-3.39 10.74 0q15.1 15.12 30.23 30.23c1.5 1.5 2.9 3.01 3.53 5.08zm-99.63 96.9c-2.07-.65-3.56-2.08-5.05-3.57q-15-15.06-30.03-30.09c-3.58-3.59-3.58-7.41-.01-11l31.1-31.1c3.44-3.46 7.4-3.47 10.82-.04l31.09 31.12c3.56 3.57 3.57 7.47.02 11.01q-15.16 15.17-30.29 30.35c-1.44 1.45-2.93 2.75-4.94 3.32zM61.86 73.98c0-11.53.1-23.07-.06-34.6-.05-3.34.74-5.94 3.3-8.15 2.04-1.77 3.86-3.81 5.78-5.74l22.8-22.81c3.57-3.57 7.42-3.57 11 0l31 31.03c3.56 3.55 3.55 7.46 0 11.01L99 81.43l-32.38 32.43c-2 2-3.78 1.54-4.5-1.24a11 11 0 0 1-.25-2.69zM37.14 98.97q.02 15.88-.02 31.75c0 1-.16 2.07-.52 3-.71 1.84-2.04 2.07-3.43.69L18.6 119.8 1.75 102.93a5.36 5.36 0 0 1-.02-7.9l31.02-31.37c.68-.69 1.33-1.62 2.5-1.18 1.1.41 1.54 1.42 1.7 2.53q.16 1.03.17 2.08.02 15.94.01 31.88z" style="fill-opacity:1;fill:#fff"/></svg>