<?xml version="1.0" encoding="UTF-8" standalone="no"?><svg viewBox="0 0 1419 487" version="1.1" id="svg1" xmlns="http://www.w3.org/2000/svg" xmlns:svg="http://www.w3.org/2000/svg"><path fill="currentColor" stroke="currentColor" stroke-width=".09" d="M148.7 22.7c.5-2.2 2.3-3.7 3.9-5.2l6.4.9c7.7-.6 15.3-.2 23-.5 3.3-.2 6.7.2 10 .5 8-.3 16-.7 24-.5 8.2.3 16.4-.6 24.5.8a48 48 0 0 1-1.1 10.7c-1.5 7.3-2.5 14.6-4 21.9-5.7 26.1-10.1 52.5-15.3 78.8-3.6 18.2-7.8 36.4-11.2 54.7-3.9 19.9-8.2 39.6-11.5 59.6 12.2 1 24.4.1 36.6.4 29.7-.2 59.4 0 89-.2 2 .3 4.9-.6 5.8 1.8.7 4.3-.8 8.6-1.5 12.8-3 13-4.8 26.2-7.8 39.2-1.9 8.4-2.9 17-6.1 24.9-6.8-.1-13.7.4-20.5.2-12.9-.3-25.9 0-38.9-.2-.4.2-1.3.7-1.8.9-15.4-1.2-30.9-.2-46.3-.6-12.8-.1-25.6.2-38.3 0-8.9-.2-17.7.4-26.6-.1-2.6.3-5.1.6-7.7 1-6.7-1.4-13.5-.6-20.3-.7-7.4-.1-14.8.1-22.2 0-.3-5.8.5-11.5 2.1-17 6.8-31.1 11.7-62.5 18.1-93.6 2.7-11.8 5-23.7 7.8-35.5 2.5-11.9 4.6-23.8 7.2-35.7 2.4-13.8 4.9-27.5 7.8-41.2 1.8-10.8 4.2-21.5 6.6-32.1 1.8-10.6 3.8-21 5.7-31.5.9-4.8 1.3-9.7 2.6-14.5Zm1092.2-1.1c1.4-.3 2.9-.6 4.4-.9-.6 1.6-1.2 3.2-1.7 4.8-1-1.3-1.8-2.6-2.7-3.9ZM485 71c19-.3 38-.4 57 .1.9.5 1.7.9 2.5 1.4 4.7 15.8 6.5 32.2 9.7 48.2 1.5 9.8 3.5 19.5 4.8 29.3 1.8 12.7 4.7 25.1 6.3 37.8 3.9 20.7 7 41.5 10.7 62.3.3 2.8 1.5 5.4 2.9 7.8 27.2-.5 54.4.1 81.5-.3 4.7-.2 9.5.2 14.2-.2 12.1-1.4 24.2.2 36.3-.8 3.1-.1 5.1-2.7 7.3-4.5.2-2.8.8-5.7.1-8.4-1.2-2.6-3.7-4.2-5.9-6-3.3-1.2-7.2-1.6-9.3-4.9-2.8-1.2-5.6-2.4-8.5-3.5-1.7-1.2-3.4-2.4-5-3.7-3.1-1.3-6.7-1.7-9.1-4.2-3.8-2.3-7.9-4.1-11.8-6.2l-.2-.6c-6.2-2.1-11.5-6.2-17.4-8.8-2.6-.7-4.6-2.8-7.1-3.8-8.5-4-16.4-9.3-23.7-15.3-7.5-8.7-12.9-19.9-13-31.6-.7-9.4.2-18.9 2.7-28 1.8-8 5.7-15.2 9.7-22.3 3.5-3.6 6.2-7.8 9.5-11.6 2.8-2.2 5.5-4.5 8.2-6.8 5.6-4 11.9-7 18.2-9.9 6.2-2.1 12.7-3.5 19.2-4.7 8-1.5 16.2.6 24.3-.2 6.4.2 12.8.3 19.2-.1 3.9.5 7.8.7 11.7.5 15.9-.8 31.9.2 47.9-.4 7-.6 14.1-.9 21.2-.6 6.5.4 13-.2 19.5.5.3 3.5.4 7.2-.4 10.7-3.5 17.1-6.2 34.4-10.6 51.3-3.6 1.3-7.9.5-11.7 1-8.7-.4-17.3 0-26-.2-4.8-.2-9.7.3-14.5.3-3.8-.5-7.7.3-11.5-.4-3.3.5-6.6.3-9.9.4-1.9-.2-3.9-.6-5.7 0-15-.9-30.1-.1-45.1 1.4-1.7 3.7-4.3 8-2.2 12.1 1.7 2.1 3.5 5 6.6 5.2 5.3 2.7 10.7 5.4 16.2 7.8 7.4 4.1 15.5 6.9 22.8 11.2 6.2 3.6 13.2 5.2 19.4 8.7 5.9 2.2 11.4 5.3 17 8 4.4 2.1 8.5 4.8 12.5 7.6l.2.6c1.4 1 3.2 1.5 4.1 3 4.3 5.1 8.9 10 12 16 5.5 9.6 7.9 20.8 7.6 31.8-.2 8-.4 16.3-3.4 23.9-3.2 10.4-10.6 18.7-16.7 27.4-3.2 2.7-6.1 5.9-9.5 8.5-3.4 2.7-7.3 4.8-11.1 7.1l.1.5c-5.9 1.8-11.7 3.8-17.5 6-12.4 1.5-24.9 1.6-37.3 1.4-4.7.5-9.3.5-14 .5-38.4.1-76.7 0-115.1.1-15.3.2-30.7.5-46.1.2-2.9.2-5.8.5-8.8.4-2.3.1-4.2-1.5-6.1-2.7-.7-6.1-2-12.2-2.8-18.4-.6-4.6-1.7-9.2-3.1-13.6-24.7.2-49.4 0-74 .1-4.7 0-9.4.3-14.1.7l-.9.9c-7.5 10.4-13.3 21.9-20.5 32.6-6.9.6-13.7-.2-20.6.2-5.6.4-11.2-.2-16.8 0-11.6.4-23.2.3-34.8.5-.4-3.6.6-7 1.9-10.2 2.1-.1 1.8-2.7 2.9-4 3.6-5.5 6.1-11.6 10.2-16.7 3.2-5.9 6.6-11.7 9.6-17.8l.5-.1c.3-1.1.7-2.1 1.1-3.2 3.1-2.3 4-6.6 6.1-9.7 4.9-7 8.7-14.5 13.2-21.7 1.4-4.3 4.1-7.9 6.5-11.6 1.5-4.2 4.1-7.8 6.3-11.6 6.9-12.4 13.7-24.8 21.2-36.9 6.7-11.4 12.9-23.1 19.3-34.7 2.2-2.1 3.3-4.8 4.6-7.5 3.3-5.7 6.4-11.5 9.6-17.2 8.9-16.4 18.8-32.1 27.6-48.4 1.1-.7 2.1-1.4 3.2-2 4.9.4 9.9.3 14.9 0m-.6 105.3c-1 2.6-1.8 5.3-3.5 7.6-8.1 13-15.4 26.6-23.2 39.8-1.7 2.6-2.8 5.6-3.5 8.6 11.5.3 23.1-.3 34.7.3 1.8-.5 3.6-.1 5.4 0 1.1-.8 2.2-1.7 3.2-2.5a358 358 0 0 0-4.8-30.8c-1.5-8.1-2.5-16.3-4.7-24.3-1.2.4-2.4.8-3.6 1.3ZM861.8 70.2c3.3.3 6.5.4 9.8.3 47.2 0 94.3-.2 141.4-.1 10 .3 20-1 30-.1 7.4-.2 14.9.3 22.3-.1.5 3.9.6 8-.2 11.9-2 9.7-3.8 19.5-5.8 29.2-1.8 8.8-2.7 17.8-5.6 26.3-8.6.2-17.1-.3-25.7 0-16 .1-32 0-48 .1-19.6-.3-39.3.4-58.9.6-.7.6-1.3 1.2-2 1.9-1.9 7.3-3.3 14.8-3.9 22.4 8 .6 16.1-.5 24.1.9 8.3-1.2 16.7-.6 25 0 4.9-.2 9.8-.8 14.7-.7 10.2.2 20.5-.4 30.7.7 4.4-.4 8.7-.2 13.1.7-.2 10.2-2.7 20.1-4.6 30-2.1 9.3-3.3 18.8-6 28-5.2.1-10.5 0-15.7.4-7.1-.8-14.2.3-21.3-.2-2.4 0-5 1-7.3-.3-2 .3-4 .9-6.1.6-5.9-.5-11.8.3-17.6-.6-.5.4-1.6 1.1-2.1 1.5-.7-.4-2-1.2-2.7-1.6-2.3 1.1-4.9 1.4-7.5 1.3-.5-.3-1.5-1-2-1.3-2.5 1.3-5.2.8-7.9.9-6.4-.3-12.9.1-19.3.8-.7 2.6-1.4 5.3-1.9 8-1.3 7-3 13.9-3.1 21.1 22.1.3 44.2-.3 66.3.1 7.3.6 14.5.5 21.8.7 4.7-.4 9.5-.9 14.2-.6 9.3 1 18.7-1.1 27.8 1.3 0 7.1-2 14-3.5 20.9-1.5 6.6-2.6 13.4-4 20-1.7 8-2.8 16.2-5.1 24-21.2.4-42.4-.3-63.6.3-9.2-.3-18.4-.2-27.7-.1-23.3.5-46.6 0-69.9.3-10.3.1-20.7-.3-31 .4-3.8.2-7.7-.1-11.5-.5-.2-1.2-.5-2.5-.7-3.7 1.5-9.6 3.9-19 5.8-28.5 2.5-9.4 3.9-19.1 6.1-28.6 2-8.7 3.3-17.4 5.1-26.1 5.2-27.2 11.5-54.1 16.6-81.4 1.4-8.9 3.6-17.8 5.2-26.7 2.2-12.4 4.6-24.7 7.1-37.1 1.2-5.8 1.8-12.1 5.1-17.3Zm230.2.1c15-.1 30 .1 44.9-.1 34.1.2 68.1-.1 102.1.1 15-.3 28.7 6.5 41.7 13.2.5.7 1 1.5 1.5 2.2 3.5 2.9 7 5.8 10 9.1 4 4.1 7 9.1 10.6 13.4 3.6 6.3 5.9 13.1 8.7 19.8 0 1.1 0 2.2-.1 3.4 3.1 10.4 3.8 21.6 1.2 32.2-.6.9.4 1.9-.2 2.8a100 100 0 0 1-7.2 19.8c-3 6-7.5 11.2-11.4 16.6-2.9 1.8-4.5 4.8-7 6.9-4.7 4-9.5 7.7-15 10.3-2.4 0-4.2 1.6-6.1 2.8-.2-.1-.7-.3-1-.4-1.2.7-2.4 1.3-3.7 2-.1 1.2-.3 2.4-.4 3.6-.3-.9-.5-1.7-.7-2.6l-4.3-.3c-.8 2.1-1.5 4.5-.3 6.6 4.6 10.2 8.9 20.4 13.4 30.6 4.5 9.3 8.8 18.5 13.2 27.8 2.6 5.3 4.4 11 6.7 16.4 1.7 3.8 3.2 7.7 4.6 11.6-2.3.6-4.6 1.1-7 1.6-10.4-1-20.8-.6-31.2-.3-11.8-.2-23.7-.2-35.5.1-1.6-1.5-2.8-3.1-2.8-5.3-3.3-7.7-6-15.6-8.4-23.6-.3-.4-.7-1.3-1-1.7-2.4-7.7-5.9-15-8.8-22.6-2.9-7.3-6-14.7-8.7-22.1-1.1-3.7-2.8-7.1-4.3-10.6-2.1-6.1-4.6-12.2-6.9-18.3-3.8-9.7-8.7-19.1-11.2-29.2.5-.5 1.5-1.4 2-1.8 14.2.1 28.5-.3 42.8-.2l2.1-.8c1.9.7 3.7-.9 5.6-1.3 3.5-1.6 6.6-4.1 9.6-6.5 2.4-3.7 5.4-7.2 6.2-11.7 1.2-7.5-.1-15.6-4.7-21.9-2.1-4-6.9-5.1-10.6-7.3-4.4-.9-8.9-1.3-13.4-1.1-14.9.3-29.8-.8-44.7.7-2.9 13.6-5 27.4-7.9 41.1-2.7 15.6-6.3 31.1-9.3 46.7-1.5 8.1-3.6 16-5 24.1-3.5 20.2-8.6 40.2-12.6 60.4-.7 4.7-1.5 9.6-4.2 13.7-8.4-.1-16.7.1-25.1.2-16.1-.5-32.2.4-48.2-.1-2.2.9-4.5-.1-6.7 0-.8-3.6-.6-7.3.3-10.8 2.4-11 4-22.1 6.7-33.1 4.2-18.8 7.6-37.7 11.6-56.5 8.1-46.8 19-93 27.2-139.8.6-3.3 1.7-6.6 2.9-9.8Zm225.6 5.1c.3.2 1 .6 1.3.7l3.5-.9c1.4.7 2.8 1.3 4.2 1.9-2.4 1.5-4.7 2.9-7.1 4.3-.2 4.3-.9 8.5-.1 12.8-.9 2-2 4.1-4.4 4.4-2-5.9-.5-12.4-1.7-18.5-1.9-.5-3.9-1-5.8-1.4.3-.6.8-1.8 1.1-2.4 3-.5 6-.7 9-.9Zm13.6 20.4c1.4-6.9-.3-14.3 2.9-20.8 2.1.4 4.3.8 6.5 1.3 1.4 3.4 2.8 6.7 3.9 10.2 1 .9 2.1 1.8 3.2 2.7l2.7-7.8c1.2-2 2.5-3.9 3.7-5.8 1.9.5 4 .6 5.7 1.7.8 1 .6 2.5.8 3.7.3 6.1.5 12.1-.4 18.1-1.4 0-2.8-.1-4.2-.1-.2-4.6-.9-9.3-.3-13.9-4 1.5-4.3 6.2-6.1 9.6-.8 2-2.7 3.3-4.3 4.7l-3-4.5q-1.5-5.1-3.3-9.9c-.7.1-2 .4-2.6.5.4 4.4.2 8.9-1.5 13-1.3-.9-2.5-1.8-3.7-2.7Zm-84.8 240.4c10.3-2.4 21.5.1 30.2 6.2 3.7 2.7 6.3 6.7 8.4 10.7 1.8 3.5 1.6 7.6 2.7 11.4.7 1.4 1.9 2.7 2.9 4 .6-1.3 1.2-2.7 1.8-4-.2 1.7-.5 3.4-.6 5.2-1.5-1-3-1.9-4.5-2.8-.4 4-.7 8-1.4 11.9-2.9 15.3-7.2 30.2-10.8 45.2-3.1 11.9-9.5 23.3-19.7 30.4-7.2 4.6-15.8 7.5-24.4 7-8.4-.6-17.1-3.1-23.3-9.1-4.7-4.6-8.1-10.7-8.7-17.3-.5-5.9.2-11.8 1.4-17.6 2.4-11.4 5.1-22.8 7.8-34.2 1.9-8.2 3-16.7 6.7-24.3 2.1-4.6 5.5-8.4 9-12 6.5-5.2 14.2-9 22.5-10.7m-3.9 15.3c-5.8 2.5-10.2 7.3-13.5 12.6-3.5 5.9-4.6 12.9-6.5 19.5-3.1 10.9-5 22.2-7.7 33.3-1.3 5.5-2.8 11.3-1.7 17 .8 4.7 4.4 8.4 8.5 10.5 8.4 4.5 19.1 3.3 26.7-2 3.2-3.2 6.5-6.4 8.8-10.3 3.2-5.3 4.1-11.6 5.5-17.5 2.5-11.6 5.6-23 8.6-34.5.3-.2.9-.7 1.1-1 .2-4.4.9-8.7.9-13.1 0-5.9-3.2-11.9-8.6-14.5-6.9-3.3-15.2-3.2-22.1 0Zm-214.4-1.4c6.4-6.1 14.8-10.2 23.5-11.6 4.8-.7 9.7-.8 14.6-.9 7.4 1.6 14.8 4.4 20.2 10 6.5 7 8.9 17.1 7.8 26.4-.6 5.5-3.3 10.5-5.8 15.4-3.2 4.9-9 7.7-12 12.8.7 3.1 2.5 5.8 3.7 8.6 2.6 5.3 2.7 11.4 1.8 17.1-1.5 7.6-5.9 14.3-10.6 20.4-6 7.9-15 13.1-24.5 15.6-5.8 1.5-11.9 1.1-17.8.5-6.1-1.6-11.7-4.2-17.1-7.3-3.4-3.4-7.4-6.6-8.5-11.5-.8-2.8 1.2-5.2 2.5-7.6q2.25-.45 4.5-1.2c5.8 3.6 11.2 8 17.8 10 5.8 1.8 11.9.8 17.8.4 6.1-2 12.1-5 16.3-9.9 4.3-5.2 7.1-12.2 5.3-18.9-1.1-3.7-3.6-7.4-7.4-8.5-3.9-1.1-7.9-1.6-11.9-2.2-1.4-2-3.4-4.1-3.4-6.7-.2-2.5 1.4-4.5 2.5-6.6 10.7-1.8 22.1-5 29.2-13.7 4.2-4.7 4.8-11.5 2.9-17.3-2.1-5.7-7.6-9.7-13.5-10.5-9-1.3-17.8 2.2-25.2 6.9-3.8 2.4-7.3 5.6-11.9 6.4-3.1.4-5.8-2.4-5.9-5.3-.4-4.2 2.3-7.9 5.1-10.8Zm136.7-8.3c3-1.5 6.2-.5 9.2.2 1 4.3 1.5 8.9.2 13.2-2.8 9.2-5.3 18.5-8.3 27.6-3.7 12.4-7 24.9-10.9 37.3-2.6 8.6-5.7 17.2-7.9 26-1.2 4.5-2.3 9.2-4.7 13.3-1.7 3-4.7 5.7-8.4 5.9-2.6.2-4.5-2.2-5-4.5-1.1-4.8.3-9.6 1.6-14.1 2.4-7.7 4.9-15.3 7.1-23 3.6-11.3 6.1-22.9 9.8-34.1 1.9-5.4 3.4-10.9 4.7-16.4-.6-.5-1.8-1.3-2.4-1.7-3.3 1.7-6.3 3.9-9.7 5.5-3.1 1.4-7.4 1.3-9.5-1.7-2.1-2.5-.8-5.9-.3-8.8 7.6-7.3 16.4-13.3 25.1-19.1 2.5-2.8 6.1-4.1 9.4-5.6Zm-267.3 16.8c12.9 0 25.7.2 38.6-.5 3.8 0 7.5.8 11.2 1.5 3.2 3.4 5.6 7.7 5.5 12.5.7 5.4-1.5 10.5-4.4 15 1.4 2.2 3.2 4.3 3.5 6.9.4 3.6 0 7.2-.2 10.8-3.8.1-7.6.2-11.4 0-.8-4.3-1.4-9-5.2-11.6-7.3.3-14.5 0-21.7.2-1.1.4-2.1.7-3.2 1-.7 3.7-1.3 7.3-2 10.9-3.6 0-7.2 0-10.7.1-.9-3.1-1.5-6.2-1.4-9.4 0-9.3-.2-18.7-.2-28.1 0-3.1.7-6.3 1.6-9.3m13.8 11.8c-.4.4-1.2 1.2-1.7 1.6.2 2.9.3 5.7.6 8.6 9.1 1.5 18.4-.1 27.6 0 .6-1.7 1.8-3.4 1.7-5.3-.5-2.3-1.9-5.1-4.6-5-7.9-.3-15.7.1-23.6.1Zm-74.7-10.9c8.8-.9 17.6-.6 26.4-.6 6.9 0 13.9-.4 20.8.2 1.6 3.3 1.3 6.9.7 10.4-6.9-.2-13.9-.4-20.9.2-4.6.5-9.2.6-13.9.7l.3 6.2c8.7.3 17.4 0 26.1.3 2.1.2 4.7.1 6.3 1.8 1.4 2.1.6 4.7.5 7.1-5.7 1.3-11.4.4-17.1.9-5.4.4-10.7.1-16.1.4-.1 2.5 0 5 .6 7.4 11.8.4 23.7-.4 35.5.7.1 3.4 0 6.8-.4 10.2-16 0-32-.2-48 .1-1.2-3.7-1.6-7.6-1.5-11.5.2-11.5-1.1-23 .7-34.5Zm-80.3.9c3.8-.2 7.5-.4 11.3-.7 1.6 5.6 1.5 11.5 1.4 17.3-.1 7 .8 14.3-1.9 21-1.3 3.5-3.9 6.6-7.5 7.8-6 2-12.4 1.5-18.6 1.5-8.3.1-17.1.3-24.7-3.6-3.2-1.6-4.9-5.1-5.4-8.6-1-6.6-.7-13.4-.9-20.1-.2-4.8 0-9.7 1.5-14.4 3.7.1 7.3.1 11 0 3.1 10.8-.5 22.2 2.9 32.9 7.7 2.4 15.9 3 23.8 1.5 2.3-.4 4.1-2.1 6-3.6.2-10.3-.4-20.7 1.1-31Zm19.4.3c17.2.3 34.5-1.4 51.8 0 .5 3.6.6 7.3.3 11-6.2-.2-12.5.4-18.7.7-.9 10.2.4 20.4-.5 30.5-.2 1.4-.4 3.3-2.1 3.7-3.5 1.1-7.3.1-10.8-.3-1.6-11.1.3-22.4-1.6-33.5-4.4-.4-8.7-.5-13.1-.6-1.8-.1-3.7-.2-5.2-1.1-2.5-3-.8-7.1-.1-10.4Zm-261.7.8c9-.7 18-.5 27 .1 2.9 1.5 6.2 2.5 8.6 4.8 2.9 3.1 3.4 7.6 3.7 11.6.3 5.6.4 11.3-.3 17-.5 3.9-2.7 7.2-4.5 10.6-8.4 3.5-17.6 3-26.5 3.1-7.7-.1-15.5.5-23.1-1.4-1.6-1.1-2.9-2.6-4.2-4-3-3.3-3.6-7.9-3.7-12.2-.1-8.1-1-16.6 2.9-24.1 1.8-1.3 3.6-2.6 5.3-4 4.9-1.1 9.8-1.3 14.8-1.5m-8.3 16.1c-1.1 3.7-.9 7.7-.7 11.5.3 2.2.4 5 2.5 6.5 2.7 1.5 6 1.6 9.1 2 5.7-.8 11.5-.6 17.3-1 2.3 0 4.1-1.8 4.7-4 1.6-5.8.9-11.9-.5-17.6l-2.4-1.8c-7.9-.5-15.8-1-23.6 0-2.7.3-5.6 1.6-6.4 4.4Zm57.1-15.8c6.4-.9 13-1.2 19.5-.2 6.2 8.4 10.3 18.1 15.8 27 1.1-.2 2.2-.3 3.3-.4 6.7-8 9.4-18.7 16.5-26.4 6.4-1.1 13-1.4 19.5-.1 2.2 8.6 1.3 17.5 1.4 26.3-.2 6.5.6 13.1-1.4 19.4-3.4-.1-7.6 1.2-10.4-1.3-2.8-9.6.8-19.9-2.1-29.6-1.9 1.3-3.4 3-4.4 5-3.8 7.1-7.9 14-12.1 20.9-1.4 2-2.8 4.5-5.5 4.8-3.3.4-7.7.9-9.7-2.4-2.9-4.3-5-8.9-7.8-13.2-3.3-5.2-5.2-11.5-10.3-15.3-2.2 10.4.5 21.1-1.9 31.5-3.7-.1-7.5-.2-11.2-.1-1.6-10.5-.8-21.1-1-31.7-.1-4.8.4-9.6 1.8-14.2Zm85.9 1a89 89 0 0 1 3.2-2.1c8.4.1 16.8-.1 25.1.3 6 .3 12.1-.3 18 .9 3.4.7 6.3 3.2 7.6 6.5 1.4 3.7 1.3 7.7 1.2 11.6-.2 4.4-.9 9.3-4.1 12.7-2.9 2.6-7 3-10.7 3.4-8.7.6-17.3 0-26 .1-.7 3.7-1.4 7.5-2.4 11.1-3.1 0-6.1.1-9.2.3-1.7-1.8-3.1-4-2.8-6.5 0-12.8-.7-25.6.1-38.3m14.1 10.5c-.4 3.5-.4 7 .1 10.4 6.1 0 12.1.2 18.2.2 2.5-.1 5.3.1 7.3-1.6 1.8-2.8.5-6.1-.2-9-8.5-.6-17-1.9-25.4 0ZM164 362.6c10.3.1 20.6-.2 31 .1 3 .9 5.7 2.5 8.6 3.9 4.6 7.7 3.5 16.9 3.4 25.5 0 4.8-1.1 9.8-4.3 13.5-2.2 2.7-6.1 1.5-8.7 3.5-9 .6-18 .5-27 .6-2.9 0-5.7.1-8.5-.4-3.3-.5-6-2.5-8.7-4.1-4.8-9-3.9-19.7-3.2-29.5.1-4.6 2.9-8.2 5.9-11.3 3.8-1 7.6-1.8 11.5-1.8m-1.9 12.6c-3.6 6.6-3.1 14.6-.8 21.6 9.3 2.2 19.2 2.4 28.5 0 2.1-.4 3.4-2.2 3.8-4.2 1.3-6.2 1.5-13.2-2.5-18.5-9.7-.8-19.5-.8-29 1.1Zm110.2-9.9c5.6-3.4 12.4-3.6 18.7-3.6 8.1 0 16.2-.4 24.3.8 3.5.6 7.3 1.6 9.4 4.8 2.7 4 3.3 9 3.5 13.7.2 7.9-.4 16.1-3.6 23.5-3.6 2.1-7.3 4.5-11.6 4.7-7.7.4-15.3 0-23 .1-6.3.2-13-.3-18.2-4.1-3.6-2.7-4.9-7.3-5.3-11.6-.4-5.8-.3-11.7.4-17.5.5-4 1.7-8.5 5.4-10.8m14.8 8.9c-2.4.4-5.5 1.2-6 4-1.1 5.2-.4 10.6-.1 15.9.8.8 1.5 1.7 2.3 2.5 9.2 1.8 18.5 1.2 27.7 0 1.7-2.4 3.4-4.8 3.6-7.7.3-3.9.5-8-.9-11.6-1.2-3.2-4.9-3.6-7.8-3.9-6.3-.3-12.6-.1-18.8.8Zm145.6-9.7c3.6-1.3 7.3-2.7 11.2-2.8 5.7-.3 11.4 0 17.1-.1 4.7 0 9.4-.3 14 .3 3.7.4 7.1 3.1 8.6 6.5 1.1 3.1.5 6.3.4 9.5-3.3.2-6.5.7-9.8.1-1.8-.9-2.9-2.8-4.2-4.2-7.5-1.7-15.3-1.3-22.9-.4-1.9.2-4.2.6-5.1 2.6-1.7 3.7-1.4 8-1.2 12.1.2 2.8.6 6.2 3.2 7.8 3.2 1.3 6.7.9 10 1 4.7-.1 9.6.4 14.2-.7 2.4-1.2 4.4-3.2 5.5-5.6h10.8c.3 3 .8 6.1.3 9.2-.6 2.4-2.3 4.3-3.7 6.4-1.7.5-3.5 1.1-5.2 1.7-10.9 1.4-22 .4-33 .5-6.5.3-13-4.1-14.8-10.4-1.7-5.9-1.2-12-1.2-18-.1-5 1.3-9.9 3.9-14.1l.9-.1c.3-.3.7-1 1-1.3Zm-215.2-1.9c3.6.1 7.2.1 10.9.1 3 10.7-.1 22 1.9 32.9 9.6 1.7 19.5.9 29.2.9.7 2.1 1.6 4.2 1.6 6.5-.2 2.2-.9 4.3-1.5 6.4-14.1-.1-28.1-.4-42.2 0-.9-3-1.5-6.2-1.5-9.3-.1-9.1.2-18.1 0-27.1-.1-3.6.5-7.1 1.6-10.4Zm119.6.4c3-.3 5.9-.5 8.9-.4 11 .1 22 0 33 0 3.7-.1 7.2.6 10.7 1.6 2.7 4.1 4.4 8.8 4.1 13.8.3 5.5-3.5 9.8-4.7 15 .6.1 1.9.4 2.6.5 1.4 5 1.5 10.2 1 15.3-3.9.2-8.3 1.6-11.8-.7-1.9-2.9-1.3-6.9-3.3-9.8-2.9-1.6-6.4-1-9.6-1.2-5.9.3-11.9-.6-17.7 1.1-.7 3.4-1.3 6.8-1.9 10.3-3.7.2-7.5.3-11.2.3-.9-3.5-1.3-7.1-1.3-10.8.2-9 .1-18 0-27.1 0-2.7.5-5.3 1.2-7.9m14.4 11.5c-.4.4-1.2 1.1-1.6 1.5 0 2.9.2 5.8.6 8.6 6.4 1.4 13 .7 19.5.9 3.6.2 6.9-1 10-2.6-.1-2.4 0-4.8-.7-7.1-1.7-2.1-4.8-1.9-7.2-2.1-6.9 0-13.7.5-20.6.8ZM89 365.9c4.6-1.1 9.2-2.2 14-2.2 10.1-.1 20.4-.5 30.3 2 3.3 4.1 5.4 9.4 4.3 14.7-3.1.2-6.2.8-9.2.1-3.1-1.4-5-4.8-8.6-5.1-7.5-.9-15.1-.1-22.5.9-4 5.8-2.6 13.1-2.1 19.6.7.8 1.5 1.7 2.3 2.5 9 1.1 18.3 2.1 27-.8.6-1.4 1.3-2.9 1.9-4.3 3.9-.3 7.7-.4 11.6-.1.8 5 1 11-3.2 14.6-4.1 3.3-9.8 2.7-14.7 2.9-9.3-.3-18.7.9-27.8-.8-4.1-.7-6.8-3.9-9.3-6.9-1.6-9.4-2.8-19.1-.5-28.5.7-3.8 3.6-6.3 6.5-8.6Z" id="path1" style="fill:#ffffff"/></svg>