<svg xmlns="http://www.w3.org/2000/svg" xml:space="preserve" viewBox="0 0 4689 982"><g fill-rule="evenodd" clip-rule="evenodd" style="fill:#fff;fill-opacity:1;stroke:none;stroke-opacity:1"><path d="M5.75 0h10.12l-3.62 21.32H2.42zm5.74 26.91h8.32l-1.21 8.62H0l1.81-11.04h9.98zm120.34-25.1h9.23l-.91 6.05h-9.22zm-1.28 8.62h9.22l-1.66 11.19h-9.22zm-2.12 14.06h9.22l-1.66 11.04h-9.22zm-42.18 0h9.22l-1.66 11.04h-9.22z" style="fill:#fff;fill-opacity:1;stroke:none;stroke-opacity:1" transform="translate(0 .24)scale(26.68024)"/><path d="M412.61 880.05a53 53 0 0 0-.22 10.3c.47 4.2 2.1 7.57 6.1 7.57 5.26 0 8.43-4.62 10.24-10.09a52 52 0 0 0 2.3-7.88l36.3-.1-7.4 46.96h-32.27l1.9-9.35c-8 10.17-14.41 12.62-27.87 12.62-25.7 0-29.81-28.52-28.18-50.02zm20.04-12.14c.03-2.67 0-4.26-.14-6.13-.37-4.84-1.89-9.04-6.72-9.04-5.05 0-8.07 5.04-10.19 11.15-.3.94-.56 1.86-1.75 4l-39.44-.02c5.23-22.48 17.02-48.79 42.7-49.32 7-.14 20.1.82 25.22 10.83l1.12.22 1.65-9.05h31.64l-7.29 47.36zm46.4 0c-2.36-4.7-3.34-10.33-2.4-17.03 3.2-22.92 20.43-34.56 46.3-34.56 11.15 0 18.9 2.62 27.8 8.08l-4.23 29.44c-6.47-5.41-18.19-8.29-25.13-8.29-2.95 0-6.6.7-7.5 4.2-1.31 5.07 4.37 7.86 11.28 10.3 5.72 2.02 10.58 4.52 14.46 7.81zm69.42 12.24c1.76 4.83 2.28 10.64 1.42 16.77-3.5 25.03-24.97 34.44-47.9 34.44-15.14 0-21.51-2.82-33.55-9.98l5.38-32.94c4.1 5.26 18 13.64 27.3 13.17 3.57-.19 10.78-2.65 11.34-6.64.56-4-1.16-6.94-10.13-9.8-4.2-1.32-8.19-2.73-11.72-4.91zm42.64-.08c-1.55 9.39-1.9 24.13 6.66 25.17 5.51.68 11.26-3.8 13-15.12h34.64c-6.04 35.6-26.9 42.06-51.72 41.88-27.04-.2-43.23-22.22-41.24-51.98zm363.46-12.17c5.08-27.9 18.68-50.7 57.55-51.58a33 33 0 0 1 16.87 4.25l-5.03 30.22c-15.42-6.26-23.82 6.02-26.78 17.16zm41.72 12.17c1.04 6.95 5.05 13.44 12.85 13.44l8.48-.64-4.94 33.81a68 68 0 0 1-19.57 2.45c-29.68-.43-41.84-22.24-40.12-49.1zm-219.24 0c-4.65 7.52-9.3 13.07-19.83 12.11l1.82-12.15-41.03.03-7.42 46.61h41.52c34.36 0 57.94-15.02 69.5-46.7zm-16.46-12.13 8.13-52.4c16.6 0 20.44 12.77 17.24 35.76-.8 5.75-1.91 11.82-3.41 16.73l43.2.05c1.57-6.47 2.25-13.65 3.01-21.25 5.75-57.49-25.55-70.26-56.85-70.26h-38.96l-5.43 40.88c-6.39 1.28-22.04 3.2-30.34 14.37-1.6 1.6-2.56.96-2.24-.96l1.6-10.22H659.8l-7.02 47.27h38.96c1.6-6.7 19.16-16.6 30.02-11.5l-1.82 11.46zm118.31-.03c-2.35-4.7-3.34-10.33-2.4-17.03 3.2-22.92 20.44-34.56 46.31-34.56 11.15 0 18.9 2.62 27.81 8.08l-4.25 29.44c-6.47-5.41-18.18-8.29-25.12-8.29-2.94 0-6.6.7-7.5 4.2-1.31 5.07 4.37 7.86 11.28 10.3 5.72 2.02 10.58 4.52 14.45 7.81zm69.42 12.24c1.76 4.83 2.29 10.64 1.43 16.77-3.5 25.03-24.98 34.44-47.9 34.44-15.15 0-21.52-2.82-33.55-9.98l5.38-32.94c4.1 5.26 18 13.64 27.3 13.17 3.57-.19 10.78-2.65 11.34-6.64.56-4-1.16-6.94-10.13-9.8-4.2-1.32-8.19-2.73-11.72-4.91z" style="stroke-width:4.22495;fill:#fff;fill-opacity:1;stroke:none;stroke-opacity:1" transform="translate(-1808.97 -4903.75)scale(6.31492)"/><path d="M171.86 7.11h-.32V5.04h-.79v-.28h1.9v.28h-.79z" style="fill:#fff;fill-opacity:1;stroke:none;stroke-opacity:1" transform="translate(0 .24)scale(26.68024)"/><path d="M1025.3 806.6v-5.85c0-.3.03-1.55.03-2.47h-.03l-2.79 8.31h-1.32l-2.79-8.3h-.02l.02 2.46v5.84h-1.3v-9.9h1.93l2.82 8.37h.03l2.81-8.37h1.9v9.9zm-418.54 9.72c-31.27.21-46.65 22.15-52.72 51.58l94.4.02c1.04-13.65.55-26.87-3.58-32.87-7.2-10.47-16.67-18.88-38.1-18.73m.6 24.65c7.37 0 8.57 7.99 7.92 14.09h-19.14c.59-5.68 4.29-14.1 11.23-14.1" style="stroke-width:4.22495;fill:#fff;fill-opacity:1;stroke:none;stroke-opacity:1" transform="translate(-1808.97 -4903.75)scale(6.31492)"/></g></svg>