<?xml version="1.0" encoding="UTF-8" standalone="no"?><svg viewBox="0 0 1367.2 328.1" version="1.1" id="svg2" xmlns="http://www.w3.org/2000/svg" xmlns:svg="http://www.w3.org/2000/svg"><path fill="currentColor" stroke="currentColor" stroke-width=".09" d="M77.27.61c2.8-.4 5.7-.5 8.6-.6h1181c10.3.1 20.9-.6 31 2.2 24.1 6.3 45.7 21.9 59 42.9 4.4 7 7.6 14.7 9.2 22.7s1 16.2 1.1 24.3v141c-.1 7.8.4 15.6-1 23.3-2 10.3-6.6 19.9-12.5 28.5-13.2 19.2-33 34-55.4 40.6-10.8 3.3-22.2 2.5-33.4 2.6h-1164c-7.5-.1-15 .3-22.5-.6-9.9-1.3-19.4-4.9-28.2-9.7-18.5-10.1-34.2-25.7-43.5-44.6-3.6-7.6-6.1-15.7-6.5-24.1-.3-5.3-.1-10.7-.1-16v-143c0-7.3-.4-14.7.9-21.9 1.4-6.9 3.9-13.5 7.3-19.7 11.7-20.4 31-36 53-44 5.2-1.8 10.5-3.2 16-3.9m6 43.1c-6.5.9-12.4 4.3-17.7 8-9.1 6.7-16.8 15.4-21.5 25.7-2.2 4.9-3 10.3-3 15.6.1 43.4 0 86.7 0 130.1.1 8.5-.9 17.4 2.4 25.4 4.3 10.8 12.1 19.8 21.1 26.9 5.8 4.3 12.4 8.2 19.7 9 5.9.7 11.7.3 17.6.3h1164c5.6 0 11.2.3 16.7-.2 6.6-.7 12.6-4 18-7.7 9.7-6.9 18-16.2 22.7-27.2 2.3-5.2 2.9-10.9 2.9-16.5-.1-47 0-94 0-141 .1-10.7-5.2-20.5-11.8-28.5-6.4-7.4-14.1-14-23.2-17.8-7.6-3.4-16.2-2.3-24.3-2.4h-1147c-8.3 0-16.7.1-25-.1-3.9 0-7.8-.1-11.6.4Z" id="path1" style="fill:#ffffff"/><path fill="currentColor" stroke="currentColor" stroke-width=".09" d="M743.47 86.61c30.6-13.8 67.6-13.2 97.4 2.4 10.8 5.7 20.4 13.8 27.3 23.9 5.8 8.5 8.7 18.8 8.7 29.1-.1 30.1 0 60.1-.1 90.1 0 5.9.4 11.9-.1 17.8-6.9.6-13.9.1-20.8.2-6.6 0-13.2.4-19.8-.2-.7-8.6 0-17.2-.2-25.8-.3-8.7.4-17.3-.2-26-2.6-.2-5.2-.4-7.8-.4-17.7.2-35.3 0-53 .1-4.9 0-9.9.2-14.8-.1-.9-6.5-.4-13.1-.4-19.6.1-7-.4-14 .3-21 2.6-.2 5.2-.4 7.9-.4 17.7.2 35.3 0 53 .1 4.9 0 9.8.2 14.7-.1.8-6.7.5-13.7-2.4-19.9-3-6.3-8.1-11.4-13.8-15.2-17.2-11-40.6-11.7-58.2-1.2-6.9 4-12.4 10.3-15.5 17.6-2.4 5.7-1.5 12.1-1.6 18.1.1 25.7 0 51.3 0 77 0 5.6.3 11.2-.3 16.8-6.6.6-13.3.2-19.9.2-6.9-.1-13.8.4-20.6-.2-.5-5.6-.2-11.2-.2-16.8v-79c0-5.7-.2-11.3.2-16.9.7-10.4 4.9-20.3 11.3-28.4 7.6-9.7 17.8-17.1 28.9-22.2Zm-641.2-8.4c6.5-.7 13.1-.3 19.6-.3 7 .1 14-.4 20.9.3.7 6.3.3 12.6.3 18.9v100c0 5.6-.3 11.1.2 16.7 1.8.1 3.7.3 5.5.3 22.1-.2 44.1-.1 66.1-.1 5-.1 10 .4 15-.1.3-.3 1.1-.7 1.4-.9-1.4-.3-2.9-.4-4.4-.4-27.6.1-55.3 0-83 .1 4.3-.8 8.7.1 13-.2 19 .1 38 0 57 .1 5.8 0 11.7-.4 17.5.1 1 6.1.4 12.3.5 18.4-.1 6.3.4 12.6-.2 18.8-5.9.6-11.9.2-17.8.2h-94c-5.9 0-11.8.4-17.6-.2-.5-5.3-.2-10.6-.2-15.8v-140c0-5.3-.3-10.6.2-15.9Zm150 0c6.5-.7 13.1-.3 19.6-.3 7 .1 14-.4 20.9.3.7 5.9.3 11.9.3 17.9v136c0 5.9.4 11.9-.3 17.8-6.6.6-13.3.2-19.9.2-6.9-.1-13.8.4-20.6-.2-.5-5.3-.2-10.5-.2-15.8v-140c0-5.3-.3-10.6.2-15.9Zm61 0c2.5-.2 5-.4 7.6-.4 18.3.2 36.7 0 55 .1 17.7 0 35.4-.4 53 .9 12.1.8 24.4 3.3 35 9.2 9.7 5.6 17.6 14.6 20.8 25.3 2.2 7.4 2.9 15.2 2.6 22.8a29.2 29.2 0 0 1-7.1 18.3c-3.2 3.9-7.7 6.5-11.5 9.7 3.8 3.6 8.4 6.4 11.8 10.4a26 26 0 0 1 6.4 13.7c.9 5.5.5 11.2-.1 16.8-.9 7-2.9 14.1-6.9 20.1-4.6 7-11.1 12.7-18.7 16.3-9.4 4.6-19.8 6.9-30.3 7.6-10.3.8-20.7 1.2-31 1.1h-68c-6.2 0-12.4.4-18.6-.2-.5-5.3-.2-10.6-.2-15.8v-140c0-5.3-.3-10.6.2-15.9m41 36.2c-.5 5.5-.2 11.1-.2 16.7v66c0 5.6-.3 11.1.2 16.7 2.8.2 5.7.4 8.6.3 13.3-.2 26.7.1 40.1-.2 10.2-.3 20.6-.2 30.5-3.2 3.5-1.1 7.2-2.5 9.9-5.1 4.3-4.1 3.4-12.1-1.6-15.4-5.3-3.5-11.7-4.4-17.9-5-11.6-.9-23.3-.7-35-.7-6.3 0-12.6.4-18.9-.4-.7-7-.2-14-.3-21 0-6.5-.5-13 .4-19.5 17.9-.5 35.9.5 53.7-.7 6.2-.7 12.7-1.4 17.9-5 4.2-2.7 5.6-8.6 3.5-13.1-1.6-3.1-4.8-4.8-7.9-6.2-7.4-3-15.5-3.8-23.5-4.2-13.9-.6-27.9-.2-41.9-.3-5.9 0-11.8-.3-17.6.3Zm154-36.2c2.5-.2 5-.4 7.6-.4 18 .2 36 0 54 .1 17 0 34-.3 51 1.1 13.3.9 26.8 3.9 38.3 10.8 8.7 5.4 16.4 13.3 19.8 23.2 2.9 8.4 3.4 17.4 3 26.1-.5 8.6-2.3 17.5-7.5 24.6-3.9 5.7-9.7 9.7-14.7 14.4 3.7 4.3 8.2 7.9 11.4 12.7 6.5 9.5 11 20.7 11 32.3-.1 8.9.4 17.9-.3 26.8-6.7.6-13.3.2-20 .2-6.9-.1-13.8.4-20.6-.3-.9-8.7 1.3-17.9-1.7-26.3-3-8-7.7-15.4-14.2-20.8-2.7-2.3-5.7-4.1-9.1-4.8-3.8-.7-7.6-.5-11.4-.5-9.7.2-19.3-.1-29 .1-3.6.1-7.3 0-10.9-.4-.7-6.6-.2-13.3-.3-20 .1-6.6-.4-13.2.3-19.8 18.6-1 37.6 1.3 56-3.1 5.4-1.3 11-3 14.9-7.1s5.2-10.3 3.8-15.7c-1.1-4.1-4.5-7-8-9.2-7.7-4.6-16.8-6.4-25.7-7.3-11.6-1.2-23.4-.7-35.1-.8-7.2.1-14.4-.4-21.6.3-.4 4.9-.2 9.8-.2 14.7.1 38.3-.1 76.7.1 115-.1 2-.2 3.9-.4 5.8-6.6.6-13.3.2-19.9.2-6.9-.1-13.8.4-20.6-.2-.5-5.3-.2-10.5-.2-15.8v-140c0-5.3-.3-10.6.2-15.9Zm389 0c2.5-.2 5-.4 7.6-.4 18 .2 36 0 54 .1 17 0 34-.4 51 1.1 13.3.9 26.8 3.9 38.3 10.8 8.7 5.4 16.4 13.3 19.8 23.2 2.9 8.4 3.5 17.4 3 26.1-.5 8.6-2.3 17.5-7.5 24.6-3.9 5.7-9.7 9.7-14.7 14.4 3.6 4.1 7.9 7.6 11 12.1 4.5 6.4 7.9 13.5 9.9 21.1 1.8 6.8 1.5 13.8 1.5 20.8 0 5.9.3 11.9-.3 17.8-6.7.6-13.3.2-20 .2-6.9 0-13.8.4-20.6-.3-.9-9 1.4-18.4-2-27.1-3.6-8.9-9.3-17.3-17.4-22.6-4.5-2.8-9.9-2.8-15-2.7-7.6.1-15.3.1-23 .1-6.3-.1-12.6.3-18.9-.4-.7-6.6-.2-13.3-.3-20 .1-6.6-.4-13.2.3-19.8 17.3-1 34.7 1 51.9-2.2 6.3-1.2 13-2.7 17.9-7 5-4.2 6.6-11.5 4.6-17.5-1.4-4.2-5.2-7-8.9-9.1-8.8-4.8-19-6.3-28.9-7-10.5-.7-21.1-.3-31.7-.4-6.9.1-13.8-.4-20.6.3-.4 4.9-.2 9.8-.2 14.7.1 38.3-.1 76.7.1 115-.1 2-.2 3.9-.4 5.8-6.6.6-13.3.2-19.9.2-6.9-.1-13.8.4-20.6-.2-.5-5.3-.2-10.6-.2-15.8v-140c0-5.3-.3-10.6.2-15.9Zm194 0c6.5-.7 13.1-.3 19.6-.3 7 .1 14-.4 20.9.3.7 5.9.3 11.9.3 17.9 0 9.7.1 19.3-.1 29 0 4.7-.1 9.6 1.8 14 3.3 7.5 9 13.9 16.2 17.9 17.6 10 40.8 9.2 57.8-2 5.9-4 11.1-9.4 13.9-16 2.4-5.7 2.2-11.9 2.2-17.9-.1-11.3.1-22.7-.1-34-.1-3 0-5.9.3-8.9 6.9-.7 13.9-.2 20.8-.3 6.6 0 13.2-.4 19.8.3.5 6.3.1 12.6.1 18.9.1 11.3 0 22.7.1 34 0 5.8-.1 11.7-1.7 17.3-3 11.7-10.3 21.9-19.4 29.6-11.1 9.5-24.9 15.7-39.1 18.9-2.1.5-4.1 1.1-6.2 1.8-.7 8.1 0 16.3-.2 24.4-.3 8.9.5 17.9-.4 26.8-7 .6-14 .1-21 .2-6.5 0-13 .4-19.5-.3-.5-9.2.1-18.5-.1-27.7-.2-7.9.7-15.8-.5-23.6-4.5-1.5-9.1-2.4-13.5-3.8-12.7-4-24.9-10.2-34.5-19.5-7.8-7.5-13.9-17-16.4-27.7-1.3-5.7-1.4-11.6-1.3-17.4.1-11 0-22 0-33 .1-6.3-.3-12.6.2-18.9Z" id="path2" style="fill:#ffffff"/></svg>