<svg xmlns="http://www.w3.org/2000/svg" xml:space="preserve" viewBox="0 0 816 96"><defs><clipPath id="a" clipPathUnits="userSpaceOnUse"><path d="M619-5h202v106H619Zm65 17v24l-24-24h-24v72h24V48l24 24v12h24V12Zm120 0h-24l-11.9 12L756 12h-24v12l18 18-18 18v24h24V65.9L768 54l12 11.9V84h24V60l-18-18 18-18Z" class="powerclip"/></clipPath></defs><path d="M0 0v96h222l18-18 18 18h300l18-18V0h-78l-18 18V0h-96v18L366 0H192.1l-.1 18-17.9-18H114L96 18v42H72V24L48 0zm12 12h24v60h48v12H12zm108 0h48l12 12v48l-12 12h-48l-12-12V24zm84 0h24v36l12.1-12.1 11.9 12V12h24v72h-12l-24-24-24 24h-12zm96 0h60l12 12v12l-12 12h-12l24 24v12h-18l-30-30v30h-24zm96 0h72v12h-48v12h24v12h-24v24h48v12h-72zm108 0h60v12h-48v12h36l12 12v24l-12 12h-60V72h48V48h-36l-12-12V24zM132 24v48h24V24zm192 0v12h24V24z" style="fill:#fff"/><path d="M816 0H624v96h192V54l-12-12 12-12Z" clip-path="url(#a)" style="fill:#fff;fill-opacity:1"/></svg>