<svg xmlns="http://www.w3.org/2000/svg" viewBox="0 0 570.76 210.91"><path d="M48.64 173.2H26.85v-38.37H21.6v43.32h27.05zM54 147.22c0 8.44-.13 16.66.07 24.88.08 3.42 2.32 5.67 5.54 6.72 5.67 1.86 10.63.47 15.34-4.2-.24 4.6 2.23 3.56 4.43 3.33v-30.64h-5.3c0 5.66.14 11.07-.06 16.46a18 18 0 0 1-1.43 6.7c-1.52 3.38-5.23 4.85-8.74 4.05-3.9-.89-4.4-3.78-4.37-7.12.06-6.66.02-13.34.02-20.18zm32.22 9.46c2.38-.66 5.03-.67 5.42-1.62 2.14-5.16 6.3-4.22 10.2-3.8 2.54.27 4.14 1.88 4.03 4.77-.11 2.8-2.08 3.21-4.2 3.6-3.66.68-7.44 1.07-10.95 2.22-4.22 1.37-6.01 4.66-5.77 9.03.22 4.15 2.68 7 6.95 8.22 5.2 1.49 9.57-.44 12.37-2.44 3.47 1.17 5.9 2.1 8.4 2.73.49.12 1.7-.83 1.83-1.45.2-.87-.16-2.66-.54-2.73-3.3-.65-2.5-3.15-2.53-5.2-.06-4.66-.01-9.3-.02-13.95-.02-6.06-2.09-8.63-7.77-9.62-8.34-1.47-15.02.94-16.74 6.08-.31.94-.33 1.98-.68 4.16m7.79-20.2a19.53 19.53 0 0 0 19.6-19.67 19.54 19.54 0 0 0-19.9-19.37 19.5 19.5 0 0 0-19.37 19.49A19.5 19.5 0 0 0 94 136.48m-27.47 74.43C30.16 211.12.21 181.43 0 144.94A66.4 66.4 0 0 1 66.07 78.1c36.37-.34 66.52 29.38 66.72 65.78a66.37 66.37 0 0 1-66.26 67.02m47.06-133.02c.03-10.87 8.49-19.2 19.46-19.15a19.2 19.2 0 0 1 19.27 19.46 19.5 19.5 0 0 1-19.6 19.25c-10.78-.06-19.17-8.64-19.14-19.56" style="fill-opacity:1;fill-rule:nonzero;stroke:none;fill:#fff"/><path d="M105.49 163.08c1.1 8.44-3.4 13.25-10.73 11.33-1.63-.43-3.92-2.45-3.97-3.81-.05-1.66 1.57-4.34 3.1-4.91 3.67-1.39 7.7-1.8 11.6-2.61m36.16-.08q.88-15.9 15.66-16.99 15.05.75 16.39 13.26l-10.77-.04q-.93-5.97-3.13-7.88-2.2-1.96-4.49.65-2.25 2.62-2.38 10.73-.22 10.73 2.22 12.14 2.45 1.4 4.94-.35t2.68-7.3l-5.62-.03-.06-4.52h16.54q-1.2 13.98-9.4 16.05-8.22 2.08-15-1.15-6.8-3.23-7.58-14.57m48.8-4.37q-3.87.16-4.01 6v6.2q.3 5.73 4.1 6 3.7-.4 3.64-3.32v-10.84q.29-3.69-3.73-4.04m3.6-2.18 9.66.02v23.14h-9.68l-.02-.78q-1.12.88-6.9.67-5.88-.12-8.64-3.74a11.2 11.2 0 0 1-2.4-7.9q.05-3.92 2.2-7.1 2.14-3.2 8.19-4.72 5.74-.39 7.6 1.17zm26.4-.53q7.36-1.18 9.26 4.57.99-2.6 6.52-4.88 9.68-1.42 10.42 7.16v16.7l-8.09-.05.06-13.75q.13-4.71-3.89-4.5-3.49-.52-5.02 3.3v15.1h-8.32 1.67-1.67v-15.8q0-3.12-3.66-3.45-2.57-.23-3.87 2.47v16.78h-8.46v-22.7h7.63-1.66 2.53l-.02 2.75a10.3 10.3 0 0 1 6.56-3.7m41.07 2.71q-3.59.19-3.68 5.54h7.14q-.04-5.1-3.46-5.54m-.12-2.5q12.16.37 12.74 11.62h-16.3q-.19 7.47 1.8 8.46 2.01.97 3.96-.25 2-1.2 1.59-5.53h8.75-1.8 1.8q-1.85 7.38-7.7 8.64-5.88 1.27-11.02-.74t-6.67-9.22l-.02-1.6q1.52-10.88 12.87-11.39m22.27-9.53h27.09v6.53l-17.76-.03v7.44h14.1v5.04h-14.1v13.94h-9.33zm43.87 10.15q9.57-.8 9.55 7.04h-7.41q.08-3.55-4.39-3.4-2.43.54-2.45 2.41v16.78h-10.02v-22.7h9.04-1.96 2.98l-.02 2.75a7.3 7.3 0 0 1 4.68-2.88m25.5 1.89q-3.87.16-4.01 6v6.2q.3 5.73 4.1 6 3.7-.4 3.64-3.32v-10.84q.29-3.69-3.73-4.04m3.6-2.18 9.66.02v23.14h-9.68l-.02-.78q-1.13.88-6.9.67-5.88-.12-8.64-3.74a11.2 11.2 0 0 1-2.4-7.9q.05-3.92 2.2-7.1 2.13-3.2 8.19-4.72 5.74-.39 7.6 1.17zm26.39-.53q7.37-1.18 9.27 4.57.98-2.6 6.52-4.88 9.67-1.42 10.42 7.16v16.7l-8.1-.05.07-13.75q.12-4.71-3.9-4.5-3.47-.52-5.01 3.3v15.1h-8.32 1.67-1.67v-15.8q0-3.12-3.67-3.45-2.56-.23-3.87 2.47v16.78h-8.45v-22.7h7.63-1.67 2.54l-.02 2.75a10.3 10.3 0 0 1 6.56-3.7m41.07 2.71q-3.58.19-3.69 5.54h7.15q-.04-5.1-3.46-5.54m-.12-2.5q12.15.37 12.74 11.62H420.4q-.18 7.47 1.82 8.46 1.99.97 3.95-.25 2-1.2 1.58-5.53h8.76-1.8 1.8q-1.85 7.38-7.7 8.64-5.88 1.27-11.02-.74t-6.67-9.22l-.02-1.6q1.52-10.88 12.87-11.39m14.39-.45h9.38l4.08 15 5.12-15h8.75l5.33 15 4.08-15h9.3l-9.3 23.84h-8.63l-5.12-14.35-4.94 14.35h-8.67zm61.38 3.29q-4.1.13-4.2 5.35v6.88q.3 5.1 4.28 5.37 3.96-.37 3.87-5.5v-6.66q-.1-5.4-3.95-5.44M486.2 167q.54-6.15 4.23-8.6 3.67-2.46 8.85-2.29h1.52q5.64.3 8.81 3t3.6 7.83q.15 6.36-3.54 9.22-3.66 2.82-8.93 3.35h-1.59q-6.77-.51-9.78-3.54-2.98-2.99-3.17-8.97m43.63-10.26q9.58-.8 9.55 7.04h-7.4q.08-3.55-4.39-3.4-2.43.54-2.45 2.41v16.78h-10.02v-22.7h9.03-1.95 2.98l-.02 2.75a7.3 7.3 0 0 1 4.67-2.88m21.19 22.83h-10.03v-22.7l.04-10.2h10l-.01 13.9 8.58-10.79h5.19l-6.63 8.81 12.6 21.04h-10.9l-8-12.82-.72.86zM328.98.86c-2.4 1.04-4.31 3.2-5.55 6.03-.74 1.92-.92 5.24-.92 18.37v16.02h-4.75c-6.4 0-9.43 1.48-11.9 5.8-2.4 4.06-2.4 7.15-.12 11.52 2.35 4.56 5.43 6.1 11.9 6.1h4.8l.2 26.63c.24 25.51.3 26.87 1.6 30.75 2.58 7.7 8.87 15.34 15.34 18.61 6.9 3.51 18.24 4.8 26.25 3.02 6.54-1.54 9.99-6.1 9.56-12.76-.31-4.68-2.16-7.51-6.35-9.55-3.02-1.48-5-1.48-11.59-.06-3.82.86-8.63-.68-10.54-3.2-1.23-1.73-1.3-2.53-1.48-27.61l-.18-25.83h8.5c11.59-.06 14-1.1 16.89-7.64.92-2.1 1.23-3.76.99-5.36-.44-3.45-3.33-7.4-6.6-9.06-2.4-1.23-3.63-1.36-11.21-1.36h-8.45l-.18-17.13-.19-17.2-1.79-2.27c-3.14-4.13-9.6-5.86-14.23-3.82M172.44 3.01c-2.96 1.36-4.25 2.71-5.54 5.8-.8 1.97-.93 9.85-.93 64.33 0 57.94.06 62.25 1.11 64.22 3.82 7.64 14.98 8.32 19.66 1.23l1.73-2.65V73.7c0-34.27-.19-63.05-.44-63.97-1.17-4-6.47-7.89-10.78-7.89-1.3 0-3.45.55-4.8 1.17M420.8 41.53c-14.48 3.39-24.9 11.52-29.7 23.3-3.51 8.68-3.88 12.38-3.88 42.33 0 26.75 0 27.49 1.3 30.14a11.5 11.5 0 0 0 15.34 5.05c2.9-1.48 4.68-3.88 5.48-7.45.37-1.6.68-13.56.68-29.28 0-25.08.06-26.68 1.3-30.26 1.54-4.62 4.62-8.32 8.07-9.73 3.51-1.42 11.03-1.85 15.47-.93q6.3 1.29 9.18 7.03c2.59 5.24 6.1 7.76 10.66 7.76 3.7 0 6.35-1.17 8.75-3.88 4.38-5 4.13-9.92-.8-17.2-7.58-11.21-18-16.94-31.61-17.5-4.26-.12-7.83.06-10.23.62m-205.23.8c-2.83 1.48-4.07 2.77-5.3 5.42-1.04 2.28-1.17 4.63-1.17 30.39 0 23.17.19 28.72.99 32.66 1.78 8.69 4.87 14.48 11.28 21.32a37.4 37.4 0 0 0 15.71 10.05c4.38 1.42 5.98 1.6 13.31 1.66 7.4 0 8.88-.18 13.25-1.66 13.75-4.56 22.93-14.48 26.94-29.09 1.29-4.68 1.35-6.35 1.6-32.97.24-29.9.12-31.12-2.78-34.51-5.73-6.84-16.08-5.12-19.6 3.2-.8 1.97-.92 6.35-.92 29.7 0 25.83-.06 27.62-1.3 31.44-2.52 8.32-8.5 11.95-18.73 11.34-7.7-.5-11.65-3.15-14.73-9.74-1.23-2.65-1.3-4-1.6-32.73l-.3-29.95-1.67-2.46c-3.02-4.56-10.35-6.53-14.98-4.07m320.66 23.61c3.5 1.47 6.77 4.74 8.75 8.56 4.68 9.18 4.06 29.83-1.11 38.27-3.33 5.43-9.62 8.63-16.76 8.63-10.36 0-17.08-5.67-19.48-16.52-1.35-6.03-.99-21.75.62-26.31 2.4-6.84 6.04-10.72 12.45-13.31 4-1.6 10.97-1.3 15.53.67M518.3 42.28a42.4 42.4 0 0 0-30.44 26.56c-2.84 7.89-3.51 12.14-3.51 23.6-.07 15.78 2.21 24.96 8.5 34.46 5.24 7.82 12.82 13.18 22.56 15.83 5.54 1.54 17.93 1.54 23.42.07 11.64-3.2 20.95-10.79 26.13-21.39 3.45-7.21 5.17-14.42 5.66-24.4 1.55-27.61-10.66-48.57-31.49-54.11-5.42-1.48-15.71-1.8-20.83-.62" style="fill-opacity:1;fill-rule:nonzero;stroke:none;fill:#fff"/></svg>