<svg xmlns="http://www.w3.org/2000/svg" viewBox="0 0 3000 840.9"><path d="M0 47.28h83.29v715.96h441.29v72.03H0Zm1170.73 195.88v592.11h-76.56V727.2q-31.5 54.05-86.66 84.43-55.17 29.28-126.1 29.28-115.95 0-183.48-64.16-66.42-65.31-66.43-190.24V243.16h79.93V578.6q0 93.45 46.17 141.84 46.15 48.42 131.7 48.42 93.44 0 147.46-56.3 54.04-57.4 54.03-158.72v-310.7Zm535.85 556.11q-22.53 20.26-56.3 31.5-32.63 10.14-68.66 10.14-83.3 0-128.33-45.02-45.04-45.04-45.05-127.21V310.7h-105.8v-67.54h105.8V113.7h79.94v129.45h180.1v67.54h-180.1v353.48q0 52.9 25.9 81.05 27.02 27.01 76.53 27.02 24.78 0 47.28-7.9 23.65-7.86 40.53-22.5Zm221.75-440.17q28.15-59.64 83.3-90.05 56.3-30.39 138.47-30.39v77.67l-19.14-1.14q-93.43.01-146.34 57.41-52.93 57.45-52.92 160.99v301.68h-79.9V243.16h76.53Zm365.85-115.94h79.93v592.11h-79.93Zm40.52-129.45c-16.49 0-30.4-5.64-41.64-16.89q-16.88-16.9-16.89-40.52 0-22.55 16.89-39.41Q2309.95 0 2334.7 0q24.77 0 41.67 16.89 16.88 15.76 16.89 38.26 0 24.77-16.89 41.67-16.9 16.88-41.67 16.89m421.03 727.2q-72.05 0-138.47-20.26-65.3-21.38-102.43-52.92l36-63.02q37.18 29.26 93.45 48.4 56.29 18 117.09 18 81.05 0 119.31-24.76 39.41-25.89 39.41-72.04.01-32.66-21.4-50.65-21.38-19.15-54.04-28.16-32.64-10.12-86.66-19.12-72.06-13.53-115.97-27.02a179 179 0 0 1-75.41-48.43q-30.4-33.74-30.4-93.41 0-74.31 61.9-121.58 61.95-47.3 172.24-47.28 57.44 0 114.83 15.74 57.43 14.64 94.56 39.41l-34.9 64.17q-73.15-50.66-174.49-50.66-76.53 0-115.94 27.02-38.26 27-38.26 70.92 0 33.77 21.38 54.03 22.53 20.26 55.15 30.4 32.67 9 90.07 19.14 70.91 13.5 113.7 27.02a167 167 0 0 1 73.16 46.14q30.39 32.66 30.39 90.06 0 77.68-65.28 123.84-64.16 45.02-179 45.02" style="font:160px/1.25 Montserrat;fill-opacity:1;letter-spacing:0;word-spacing:0;stroke:none;fill:#fff"/></svg>