<svg xmlns="http://www.w3.org/2000/svg" xml:space="preserve" viewBox="0 0 10883.2 5095.7"><path d="M2655.9.4 1877 74.7c-21 2-40.1 13.4-51.9 31.1l-418.8 625a110 110 0 0 0-18.6 61.3v294.2c0 20.7 10.9 40.1 28.6 51L1549 1218l-210 279.8a99.7 99.7 0 0 0-20 60.3l.2 289.7c0 21.2 10.4 40.2 25.6 55.1l198.3 168.8-551.8-73.4a51 51 0 0 0-53.9 30.7L15.3 4185.6C5 4209.3 0 4234.7 0 4260.4v254.4c0 23.6 14 45 35.8 54.2l1063.7 454.1c19.1 8.2 41-2.1 47.2-21.9l289.9-946.2 254.8 457.9c9.1 16.2 31.9 18.3 43.5 3.8L2067 4109l56.8 948.9c1.3 20.6 20.3 35.2 40.4 31l909.1-187.9 626.6 118.5c21 3.9 41.2-10.1 44.6-31.2l78.7-466.4 327.5-49.2 104.9 505.5a39.65 39.65 0 0 0 46.1 30.9l717.4-135.7 10.6 91a39.87 39.87 0 0 0 43.2 35.2l861-77.7c21.9-2 38.8-20.3 38.6-42.4l-.5-249.5 248.1 378.7a45.5 45.5 0 0 0 56.9 16.6l631.4-282.7-3.9 225.5c-.3 20.9 17.2 37.7 38 36.2l834.5-57.2a49.7 49.7 0 0 0 45.7-41l107.1-603.8 143.1 412.6c8 23.1 26.5 41.2 49.8 48.9l1002 326.8c23.7 7.8 49.7 6.3 72.4-4.1l951.4-434c22.4-10.2 39-30.1 45-53.9l261.4-1034.2c6.3-25.2 9.5-51 9.5-76.7V3293c-.2-25.2-8.1-50-22.7-70.7l-616.3-870.8a88 88 0 0 0-61.2-36.5l-610.8-74.3 168.5-71.4a50.7 50.7 0 0 0 30.9-46.5v-312.6c0-21.1-9.5-41.4-25.6-55.2l-213.1-181.6c6.6-4.3 11.4-11.1 12.6-18.9l126-761.4c3.6-22 5.5-44.3 5.5-66.5V544.3c0-20.7-11-39.9-28.9-50.4l-684.4-403a93.8 93.8 0 0 0-62-11.9l-1015 155.2a38.85 38.85 0 0 0-33.1 38.5v64.6L6397.3 156.6c-18.8-3.2-37.1 8.2-42.3 26.5l-64 224.8-493.4-266.1c-18.9-10.3-41-13.7-62.3-9.9L4729 317.3c-19.1 3.6-33 20.2-33 39.6v182.2c0 3.3.3 6.6.3 9.9l-616.7-82V324.1c0-19-14.4-34.9-33.3-36.7l-911.9-85.3c-18.3-1.7-34.2 12-35.5 30.3l-4.7 75-378.5-289.8c-17-13-38.5-19.2-59.8-17.2M2631 154.16a68 68 0 0 1 35.2 13.84l488.3 374.1a26.4 26.4 0 0 1 4.7 37.3L2928 872.7a28.56 28.56 0 0 1-38.5 5.8L2415 553.1l-137.3 225.2 816.2 537.3a31.7 31.7 0 0 1 11.5 39.3l-269.3 609.8a41.9 41.9 0 0 1-37.5 24.9l-784.5 13.8c-17.2.3-34.1-5.7-47.2-16.9l-472.8-402.1a28.6 28.6 0 0 1-4.3-38.8l268.6-357.9c8.6-11.5 25.4-13.5 36.4-4.1l459.5 386.9 176.4-239.8-862.4-525.2c-12.4-7.6-16-24.1-8-36.2l353.3-527.1a57.3 57.3 0 0 1 41.5-24.8l663.1-63.2a67 67 0 0 1 12.8-.04m5841.4 78.69a75.4 75.4 0 0 1 36.7 10.35L9070.8 574a39.3 39.3 0 0 1 18.8 40l-97.2 586a58.5 58.5 0 0 1-27.1 40.6l-272.9 170 460.8 392.6c9.5 8 7.1 23-4.1 28l-503.2 213a31.9 31.9 0 0 1-39.3-12l-372.3-573-19.7 3.9 16.2 526.6c.4 15.1-10.9 27.8-25.9 29.1l-406.8 35.7a27.1 27.1 0 0 1-29.3-24.3L7656.6 937.3l86-512.4c2.9-18.3-9.2-35.6-27.5-38.7l-104-18.1c3.8-3.1 8.2-5.7 13.4-6.5l835.1-127.9q6.39-.97 12.8-.85m-2742.57 53.18c12.87-.16 25.7 3 37.17 9.07l566.5 305.6c14.1 7.6 22 23.4 19.4 39.3l-82.5 561.3c-2.6 17.1-10.7 33-23.3 45L5943 1537.2a72 72 0 0 1-46.1 20l-398.1 21.9 24 391.1c1 14.9-10.1 27.9-24.9 29.4l-416.4 41.9a27.26 27.26 0 0 1-29.8-24l-115.5-954.3 73.8-438.8c3-18.1-9.5-35-27.6-37.4l-105.7-14.1-12.1-101.3a28.46 28.46 0 0 1 23-31.5L5717 287.3q6.39-1.2 12.83-1.27m760.47 38.47 1066.6 185.8a19.74 19.74 0 0 1 15.9 22.6L7505.6 934c-1.7 10.2-12 16.5-21.9 13.6l-557-168.5-76.2 279 501.9 7.5c10.3.1 18.3 9.3 16.9 19.6l-42.4 324.3c-1.5 10.5-11.2 18-21.8 16.3l-487.7-73.7 43.2 296.8 604.1-89.3c10.6-1.7 20.7 5.7 22.3 16.4l65.3 429.4c1.4 9.9-6.5 18.9-16.6 18.6l-1215.4-43.1c-11.4-.4-20.9-8.7-22.6-19.8l-77.9-481.7 163.1-156a98 98 0 0 0 29-56.2l103.5-702.5c2.8-19.9-7.1-39.6-24.8-49.1l-64.8-35 39.9-140.6a21.9 21.9 0 0 1 24.6-15.5m-3223 40.3 612.4 57.3c14.5 1.4 24.8 14.5 22.4 28.9L3731 1507.2l483.8-31.3-36.9-818.3c-.7-14.1 11.5-25.2 25.2-23.3l612.8 81.3a25.66 25.66 0 0 1 22.1 29.9l-150.1 892.1a94.5 94.5 0 0 1-22.1 46.5l-271.3 309.5a57.9 57.9 0 0 1-44.5 19.4l-771.2-19.7a72.8 72.8 0 0 1-46.5-18.6l-351.8-316.2a55 55 0 0 1-18.3-44.6l1.4-20.8 101.4-229.8a97 97 0 0 0 5.2-63.1l-6.2-24.4a85.6 85.6 0 0 0-36.1-50.9l-39.8-26.2 28.2-450.4 106.8-135.5a79.8 79.8 0 0 0 16.6-59.5l-3.8-30.6a79.8 79.8 0 0 0-30.6-53.6l-68.1-52.1 1.7-28c1-14.7 13.7-25.6 28.4-24.2m4922.3 285.4 16.4 555.2 318.3-51.1 55.3-366.3ZM5444.2 690l32.8 531.6 316.3-55.4 54.1-337.1zM1093.1 2189.9l469.9 62.5a49.8 49.8 0 0 1 40.7 33.6l231.6 690.3 336.5-651.2a44.5 44.5 0 0 1 45.3-23.4l507.5 68.5a43.7 43.7 0 0 1 36.9 34.7l402.6 1992.5c3.3 16.8-7.4 33.3-24.3 36.8l-819.3 169.3a26.93 26.93 0 0 1-32.3-24.8l-72.1-1205.6-458.7 563.2c-9.5 11.6-27.6 10-34.7-3l-333.6-599.5-356.3 1162.6a27.9 27.9 0 0 1-37.7 17.5l-756.2-322.7c-15.7-6.9-23.1-25.2-16.2-40.9l827.2-1935.9a41.4 41.4 0 0 1 43.2-24.5m5006.38 7.14a86 86 0 0 1 42.72 11.86l788.7 460.6a44.1 44.1 0 0 1 21 46.4l-135.5 704.9a67.8 67.8 0 0 1-32.8 46.3l-388.5 226.8 612 507.7c11 9.2 8.7 26.8-4.5 32.7L6335 4533.2a36.5 36.5 0 0 1-45.4-13.3l-499.3-762.1-26 5.3 24.4 690.7c.6 17.4-12.4 32.3-29.8 33.9l-391.5 35.3-269.6-774-154.9-1334.4a32.46 32.46 0 0 1 27.1-35.9l1114.6-180.5q7.4-1.23 14.88-1.16m1104.96 63.43q2.9.02 5.86.73l793.1 189.7a33.2 33.2 0 0 1 24.9 38l-352.2 1985.7a40 40 0 0 1-36.6 32.7l-515.8 35.4c-16.6 1-30.5-12.4-30-29.1l4.9-128.7 81.4-36.4a70.1 70.1 0 0 0 40.9-54.4l12.8-91.3c3.3-23.8-6.2-47.9-24.8-63.4l-97.6-81.1 67.5-1773.3a25.43 25.43 0 0 1 25.64-24.53M3483.8 2299.5l925.5 95c18.9 1.9 35 14.8 41.3 32.6l676.1 1942c5.3 15.6-4.3 32.3-20.4 35.3l-674.7 127.5a31.6 31.6 0 0 1-36.9-24.7l-105.1-506.7-619.6 93.1-71.3 422.6a30.4 30.4 0 0 1-35.8 24.9l-197.3-37.4L3138.9 3380l305.3-1053.7a37.64 37.64 0 0 1 39.6-26.8m5150.3 56.1L9672.8 2482c19.8 2.4 37.6 13 49.1 29.2l533 753.2c11.5 16 15.3 36.5 10.6 55.7l-224.3 888.2c-4.9 19-18.2 34.9-36 43.1L9179.4 4628c-18.2 8.2-39 9.4-57.9 3.2l-867.9-283c-18.7-6-33.5-20.5-39.8-39l-216.9-625.4 128.7-728.3 458.2-579.2c12-15.2 31.1-23.1 50.3-20.7M5728.3 2768l23.5 656.3 407.4-94.9 52.1-430.9zm-1863.4 169.1-100.8 598.2 432.2 15.4-124.3-597.2Zm5072.7 152.2-250.7 430.6 348.5 368.8 424.5-210.9-57.6-463.8Z" style="fill:#fff;stroke-width:1.19743" transform="translate(1025.56 582.96)scale(.83512)"/></svg>