<svg xmlns="http://www.w3.org/2000/svg" viewBox="0 0 264 97"><path d="M63.1 45.54h19.83a14.69 14.69 0 1 0 0-29.37h-5.17a.73.73 0 0 1-.73-.73c0-.45.32-.78.73-.78h19.8l.04-6.19H77.76a6.96 6.96 0 0 0 0 13.93h5.17a8.41 8.41 0 1 1 0 16.82H63.1z" style="fill-opacity:1;fill:#fff"/><path d="M63.1 37.8h19.83a6.96 6.96 0 1 0 0-13.93h-5.17a8.45 8.45 0 0 1-8.39-8.47 8.4 8.4 0 0 1 8.4-8.4H97.6L97.56.74h-19.8c-8.1 0-14.66 6.56-14.66 14.7 0 8.11 6.55 14.67 14.66 14.67h5.13a.73.73 0 1 1 0 1.47H63.1zm49.9 1.47a6.2 6.2 0 0 1-6.24-6.24V13.12A6.24 6.24 0 0 1 113 6.97h21.18V.72H113a12.46 12.46 0 0 0-12.46 12.47v19.83c0 6.89 5.58 12.47 12.46 12.47h21.1v-6.23z" style="fill-opacity:1;fill:#fff"/><path d="M108.27 13.2a4.77 4.77 0 0 1 4.72-4.77h21.18v6.23h-18.24c-1.47 0-1.47 1.47-1.47 1.47h15.23v6.23h-21.42zM113 37.76a4.73 4.73 0 0 1-4.73-4.73v-9.16h21.42v6.23h-15.23c0 1.47 1.46 1.47 1.46 1.47h18.17v6.19zm36.04 1.51a6.27 6.27 0 0 1-6.27-6.24V13.2A6.26 6.26 0 0 1 149 6.97h20.53V.72h-20.57a12.46 12.46 0 0 0-12.47 12.47v19.83A12.5 12.5 0 0 0 149 45.5h20.54V16.13H151.9v6.23h11.4v16.9z" style="fill-opacity:1;fill:#fff"/><path d="M144.23 33.03A4.8 4.8 0 0 0 149 37.8h12.83V23.83h-9.94v6.27h3.7v1.47h-3.66a1.5 1.5 0 0 1-1.47-1.47V16.13s0-1.47 1.47-1.47h17.6V8.43H149a4.8 4.8 0 0 0-4.77 4.77zM188.8 8.35a2.02 2.02 0 0 1 3.82 0l9.94 29.49h-14.54v-6.93h4.89l-2.2-6.55-7.17 21.14h-7.33z" style="fill-opacity:1;fill:#fff"/><path d="M204.6 39.27h-16.58v6.23h25.21L200.12 6.6c-1.15-3.8-4.93-6.6-9.42-6.6s-8.27 2.77-9.41 6.6l-13.24 38.9h6.6l12.83-37.84a3.4 3.4 0 0 1 3.21-2.12c1.43 0 2.65.85 3.18 2.12zM43.15 86.15H27.76V84.4a25 25 0 0 0 2.15-.17q1.32-.15 1.8-.42.76-.45 1.12-1.07.36-.6.36-1.5V55.9h-.37L20.94 85.58H19.7L8.4 55.29h-.31v20.79q0 3.02.38 4.59t1.16 2.26q.53.51 2.24.98 1.7.47 2.2.49v1.74H0V84.4q1.1-.1 2.32-.37a4.5 4.5 0 0 0 1.88-.8 3.6 3.6 0 0 0 1.18-2.12q.31-1.41.31-4.76V58.53q0-1.54-.36-2.53a4 4 0 0 0-1.06-1.6 5 5 0 0 0-1.86-.98 10 10 0 0 0-2.19-.36V51.3H12.1l9.97 26.12 8.52-21.85a21 21 0 0 0 1.15-4.27H43.1v1.75q-.68.02-1.75.22t-1.56.37q-.83.3-1.13.98t-.3 1.5v25.1q0 .87.3 1.45.3.6 1.13 1.03.45.25 1.57.46t1.8.23z" style="fill-opacity:1;fill:#fff"/><path d="M64.94 85.7q-1.16.42-2.03.68t-1.97.26a4.8 4.8 0 0 1-3.06-.9 4 4 0 0 1-1.46-2.61h-.15a12 12 0 0 1-3.42 2.7 9.6 9.6 0 0 1-4.41.93q-2.72 0-4.48-1.67a5.8 5.8 0 0 1-1.75-4.37q0-1.4.39-2.5.4-1.1 1.18-2 .6-.73 1.62-1.3 1-.59 1.89-.92 1.1-.42 4.48-1.55a33 33 0 0 0 4.55-1.77v-2.43q0-.32-.14-1.22a5 5 0 0 0-1.96-3.3 4 4 0 0 0-2.54-.68 6 6 0 0 0-2.1.38q-.97.39-1.36.8 0 .49.23 1.44.24.96.24 1.77 0 .87-.78 1.57-.77.72-2.14.71-1.23 0-1.81-.87a3.5 3.5 0 0 1 .22-4.1 8 8 0 0 1 2.08-1.85q1.1-.69 2.67-1.16 1.57-.49 3.07-.48 2.06 0 3.6.28 1.53.29 2.78 1.21 1.26.91 1.9 2.47.66 1.56.66 4.01 0 3.52-.08 6.22-.07 2.72-.07 5.93 0 .96.33 1.53t1.02.95q.36.22 1.16.25l1.64.02zm-8.57-12.96q-2.09.61-3.66 1.2-1.57.6-2.92 1.48a7 7 0 0 0-1.94 1.97 5 5 0 0 0-.7 2.72q0 2.03 1.06 2.99t2.71.96q1.74 0 3.07-.85a9 9 0 0 0 2.23-2z" style="fill-opacity:1;fill:#fff"/><path d="M78.1 74.29a6 6 0 0 1 1.55 2.03q.54 1.17.54 2.83 0 3.36-2.51 5.5-2.52 2.13-6.52 2.13a10 10 0 0 1-3.9-.76q-1.78-.75-2.53-1.4l-.5 1.6H62.4l-.25-8.42h1.7q.19.95.83 2.23t1.55 2.3a9 9 0 0 0 2.3 1.82q1.33.74 3 .74 2.35 0 3.63-1.07a3.8 3.8 0 0 0 1.28-3.06q0-1.02-.4-1.77t-1.2-1.32a9 9 0 0 0-1.99-1.02q-1.17-.45-2.62-.9-1.16-.33-2.57-.94a10 10 0 0 1-2.41-1.41 7 7 0 0 1-1.77-2.11 6 6 0 0 1-.69-2.95q0-2.97 2.2-5.03 2.22-2.06 5.93-2.06a12 12 0 0 1 5.32 1.25l.57-1.28h1.76l.37 7.78h-1.7a8 8 0 0 0-2.21-4.23 5.8 5.8 0 0 0-4.17-1.63q-2.02 0-3.16 1a3.1 3.1 0 0 0-1.16 2.44q0 1.1.38 1.84.39.73 1.15 1.25.73.49 1.85.92t2.76.97q1.62.51 3.06 1.2 1.42.7 2.37 1.53" style="fill-opacity:1;fill:#fff"/><path d="M93.56 85.09a37 37 0 0 1-3.02 1.11q-1.42.45-3.49.46-3.04 0-4.28-1.53-1.24-1.54-1.24-4.33V64.4h-4.37v-2.36h4.47v-7.53h4.47v7.53h6.94v2.36h-6.9v13.52q0 1.52.12 2.55.1 1.01.52 1.77.4.72 1.18 1.08t2.11.37q.62 0 1.8-.11 1.2-.12 1.69-.28z" style="fill-opacity:1;fill:#fff"/><path d="M112.28 80.45a12.4 12.4 0 0 1-4.08 4.61 10.3 10.3 0 0 1-5.87 1.72q-2.91 0-5.12-1.03a10 10 0 0 1-3.62-2.8 12 12 0 0 1-2.12-4.12q-.7-2.36-.7-4.98 0-2.35.75-4.63a13 13 0 0 1 2.2-4.08q1.4-1.74 3.47-2.82a10 10 0 0 1 4.65-1.06q2.65 0 4.54.83a8 8 0 0 1 3.07 2.28q1.13 1.38 1.68 3.24.56 1.88.56 4.05v1.62H95.66q0 2.39.45 4.33.45 1.93 1.44 3.4a7 7 0 0 0 2.5 2.25q1.55.82 3.68.82a7 7 0 0 0 3.77-1.02q1.58-1.01 3.06-3.66zm-5.43-9.23q0-1.37-.23-2.94a9 9 0 0 0-.75-2.63 5 5 0 0 0-1.55-1.84 4.2 4.2 0 0 0-2.53-.71q-2.58 0-4.28 2.15t-1.85 5.97z" style="fill-opacity:1;fill:#fff"/><path d="M128.44 65.06q0 1.24-.61 2.22-.61.97-1.9.97-1.37 0-2.1-.71-.72-.72-.72-1.57 0-.54.09-.98l.16-.89q-1.16 0-2.7.93a8 8 0 0 0-2.63 2.65v14.1q0 .85.33 1.4t1.05.8q.6.26 1.58.37.96.13 1.68.17v1.62h-12.76v-1.62l1.16-.1q.6-.04 1.05-.2.69-.21 1.01-.76.33-.56.34-1.44V67.07q0-.75-.36-1.5-.36-.73-1-1.17-.45-.3-1.1-.43-.64-.14-1.37-.19v-1.6l8.05-.53.34.34v3.41h.12a11 11 0 0 1 3.39-3.02 7 7 0 0 1 3.41-1.03q1.54 0 2.52 1.01.97 1 .97 2.7m26.14 5.11a8 8 0 0 1 1.63 2.68q.53 1.47.53 3.4a9.7 9.7 0 0 1-3.41 7.61q-3.42 3-8.47 3-2.33 0-4.66-.73a18 18 0 0 1-4.03-1.75l-1.05 1.8h-1.97l-.34-11.94h1.99q.6 2.2 1.44 4 .82 1.77 2.17 3.32a10 10 0 0 0 2.98 2.3q1.71.86 3.96.86 1.7 0 2.96-.44a5 5 0 0 0 2.05-1.25q.78-.8 1.16-1.9a7.6 7.6 0 0 0-.79-6.41 7.2 7.2 0 0 0-3.51-2.74q-1.59-.64-3.66-1.4-2.06-.78-3.56-1.47a11.6 11.6 0 0 1-4.58-3.47q-1.62-2.14-1.63-5.61 0-2 .81-3.7a10 10 0 0 1 2.31-3.08 11 11 0 0 1 3.36-2 12 12 0 0 1 4.05-.72q2.4 0 4.31.73a21 21 0 0 1 3.47 1.72l1.01-1.67h1.96l.2 11.56h-1.99a44 44 0 0 0-1.21-3.8 13 13 0 0 0-1.76-3.3 8 8 0 0 0-2.57-2.26 7.6 7.6 0 0 0-3.73-.85q-2.33 0-3.98 1.5a4.8 4.8 0 0 0-1.65 3.65q0 2.26 1.06 3.75 1.06 1.48 3.07 2.44 1.8.86 3.52 1.48 1.73.63 3.35 1.34 1.47.64 2.83 1.45t2.37 1.9" style="fill-opacity:1;fill:#fff"/><path d="M153.4 94.05q-.01-1.23.67-2 .66-.78 1.68-.78.78 0 1.35.3.55.3 1 .76.37.36.79 1t.66 1.06q1.23-.67 2.94-3.46a28 28 0 0 0 2.46-4.91 1284 1284 0 0 0-8.17-19.9 3.5 3.5 0 0 0-1.57-1.76 7 7 0 0 0-2.21-.8v-1.62h11.04v1.72q-.73.02-1.76.3-1.04.29-1.03.65 0 .15.1.5.11.33.27.7.93 2.44 2.84 7.01 1.92 4.59 2.97 7.33l2.3-5.43q1.2-2.82 2.66-6.64l.5-1.3q.3-.81.31-1.4 0-.64-1.11-1.2a7 7 0 0 0-2.13-.67v-1.57h8.98v1.52q-.73.13-1.94.85-1.2.72-1.79 2.05a654 654 0 0 0-5.19 12.35 284 284 0 0 1-3.45 8.2 45 45 0 0 1-2.76 5.36q-1.2 1.93-2.37 3.03a7 7 0 0 1-2.05 1.39q-.91.35-1.9.35-1.91 0-3-.9-1.1-.9-1.1-2.1" style="fill-opacity:1;fill:#fff"/><path d="M190.74 74.29a6 6 0 0 1 1.54 2.03q.55 1.17.54 2.83 0 3.36-2.51 5.5-2.52 2.13-6.52 2.13-2.1 0-3.89-.76-1.78-.75-2.54-1.4l-.5 1.6h-1.83l-.25-8.42h1.7q.19.95.83 2.23t1.55 2.3q.95 1.09 2.3 1.82 1.33.74 3 .74 2.35 0 3.63-1.07a3.8 3.8 0 0 0 1.28-3.06q0-1.02-.4-1.77t-1.2-1.32a9 9 0 0 0-1.98-1.02q-1.19-.45-2.63-.9a23 23 0 0 1-2.57-.94q-1.4-.6-2.42-1.41a7 7 0 0 1-1.76-2.11 6 6 0 0 1-.7-2.95q0-2.97 2.22-5.03 2.2-2.06 5.91-2.06a12 12 0 0 1 5.33 1.25l.57-1.28h1.76l.37 7.78h-1.7a8 8 0 0 0-2.21-4.23 5.8 5.8 0 0 0-4.16-1.63q-2.01 0-3.17 1a3.1 3.1 0 0 0-1.15 2.44q0 1.1.38 1.84.37.73 1.14 1.25.74.49 1.85.92 1.12.43 2.76.97 1.63.51 3.06 1.2 1.44.7 2.37 1.53" style="fill-opacity:1;fill:#fff"/><path d="M206.19 85.09q-1.6.66-3.02 1.11t-3.48.46q-3.05 0-4.29-1.53-1.24-1.54-1.24-4.33V64.4h-4.37v-2.36h4.47v-7.53h4.47v7.53h6.94v2.36h-6.9v13.52q0 1.52.12 2.55.1 1.01.53 1.77.39.72 1.17 1.08.8.37 2.11.37.62 0 1.8-.11 1.2-.12 1.69-.28z" style="fill-opacity:1;fill:#fff"/><path d="M224.9 80.45a12.4 12.4 0 0 1-4.07 4.61 10.3 10.3 0 0 1-5.87 1.72q-2.91 0-5.11-1.03a10 10 0 0 1-3.63-2.8 12 12 0 0 1-2.12-4.12q-.7-2.36-.7-4.98 0-2.35.75-4.63t2.2-4.08q1.4-1.74 3.47-2.82a10 10 0 0 1 4.65-1.06q2.65 0 4.54.83a8 8 0 0 1 3.07 2.28q1.13 1.38 1.68 3.24.55 1.88.55 4.05v1.62H208.3q0 2.39.45 4.33.45 1.93 1.44 3.4.95 1.43 2.5 2.25t3.68.82a7 7 0 0 0 3.77-1.02q1.58-1.01 3.06-3.66zm-5.42-9.23q0-1.37-.23-2.94a9 9 0 0 0-.75-2.63 4.2 4.2 0 0 0-4.08-2.55q-2.57 0-4.28 2.15-1.7 2.15-1.85 5.97z" style="fill-opacity:1;fill:#fff"/><path d="M264 86.15h-11.81v-1.63l1.14-.1q.57-.03 1.02-.19.69-.22 1.02-.77.33-.56.33-1.44v-12.5q0-2.54-1.17-3.93a3.7 3.7 0 0 0-2.9-1.39 6.8 6.8 0 0 0-5.4 2.57q-.46.62-.72 1.04v13.96q0 .87.3 1.42t1 .84q.57.23 1.02.33.45.12 1.2.16v1.62h-11.57v-1.62l1.1-.1q.53-.03.96-.2.69-.21 1.02-.76.34-.56.34-1.44v-12.5q0-2.54-1.17-3.93a3.7 3.7 0 0 0-2.9-1.39q-1.22 0-2.27.38t-1.94 1.05q-.7.54-1.2 1.21l-.74 1.02v13.87q0 .83.35 1.4t1.03.86q.52.24 1.05.36.54.13 1.2.18v1.62h-11.76v-1.62l1.17-.1q.6-.05 1.05-.2.69-.22 1.01-.77.33-.56.33-1.44V66.98q0-.8-.35-1.41a3 3 0 0 0-1-1.07q-.46-.3-1.15-.48t-1.42-.24V62.2l8.1-.54.34.34v3.46h.17l1.5-1.45q.9-.83 1.65-1.34.86-.6 2.15-.99t2.78-.39a6.6 6.6 0 0 1 4.05 1.26 7 7 0 0 1 2.43 3.06l1.56-1.5q.67-.66 1.78-1.4a8 8 0 0 1 2.2-1.03 10 10 0 0 1 2.8-.39 6.2 6.2 0 0 1 4.87 2.01q1.8 2.01 1.8 6.19v12.3q0 .86.29 1.4.3.57 1 .85.57.22 1.12.34.55.1 1.24.16z" style="fill-opacity:1;fill:#fff"/></svg>