<svg xmlns="http://www.w3.org/2000/svg" viewBox="0 0 264 159"><path d="M85.17 0v102.76H15.95Z" style="fill-opacity:1;stroke:#000;stroke-width:.781966px;stroke-linecap:butt;stroke-linejoin:miter;stroke-opacity:0;display:inline;fill:#fff"/><path d="M158.49 2.05h33.44v101.59h-33.44z" style="fill-opacity:1;stroke:#000;stroke-width:5.22119;stroke-linecap:round;stroke-linejoin:miter;stroke-miterlimit:4;stroke-opacity:0;stroke-dasharray:none;stroke-dashoffset:0;display:inline;fill:#fff"/><path d="m199.13 2.1-1.2-.03-.21 34.8h.08v-.1q.85-.12 1.72-.13l7.02-34.1c-2.73-.34-5.31-.38-7.41-.44Zm12.87.96-9.86 33.73q1.32.18 2.57.57l16.2-32.07q-4.3-1.5-8.9-2.23Zm14.31 4.5-19.36 30.68q.98.46 1.87 1.06l24.88-27.32a50 50 0 0 0-7.39-4.43Zm12.04 8.24-27.83 24.79q1 .86 1.85 1.88l32.75-19.02q-3.01-4.18-6.77-7.65Zm9.3 11.55-34.07 16.77q.6.9 1.05 1.9l37.4-8.98a50 50 0 0 0-4.38-9.69Zm5.79 14.85-38.12 5.56q.59 1.76.77 3.69h38.47q-.16-4.76-1.12-9.26Zm-37.35 12.3a16.25 16.25 0 0 1-18.3 14.56v-.7h-.07v35.14c2.88-.02 4.37-.14 6.62-.14 27.22 0 49.39-21.73 50.22-48.86Z" style="fill-opacity:1;stroke:#000;stroke-width:5.15489;stroke-linecap:round;stroke-linejoin:miter;stroke-miterlimit:4;stroke-opacity:0;stroke-dasharray:none;stroke-dashoffset:0;display:inline;fill:#fff"/><path d="M143.1 0v102.76H73.88Z" style="fill-opacity:1;stroke:#000;stroke-width:.781966px;stroke-linecap:butt;stroke-linejoin:miter;stroke-opacity:0;display:inline;fill:#fff"/><path d="m0 135.23 13.1-21.7q.93-1.87 1.86-1.87h9.35v2.89l.63-1.02q.93-1.87 1.87-1.87h11.22v23.57h-7.48v-18.6l-11.22 18.6h-7.48l11.22-18.6h-3.74q-.62 0-1.25.62l-10.6 17.98zm48-9.3v4.34h17.46v4.96H40.52v-15.5q0-.63.31-1.24l3.43-6.2q.32-.63 1.25-.63h19.95v4.97H50.5q-.63 0-.94.62L48 120.97h17.46l-2.5 4.96zm27.43 4.34H87.9v-4.34h-4.99l2.5-4.96h9.97v13.02q0 1.24-1.24 1.24H69.2q-1.25 0-1.25-1.24v-14.26q0-.63.31-1.24l3.43-6.2q.32-.63 1.25-.63h21.2v4.97H77.93q-.63 0-.94.62l-1.56 3.72zm53.62 4.96h-8.73l-3.43-4.96h-9.04l-2.5-4.5v9.46h-7.47v-23.57h14.34q.93 0 1.87 1.87zm-15.62-9.92-5.58-8.06q-.62-.63-1.24-.62h-1.25v8.68z" style="font-size:69.46884918px;font-style:normal;font-weight:400;fill:#fff;fill-opacity:1;stroke:none;display:inline;font-family:NiseMegaDrive"/><path d="M142.48 130.56h9.05q.64 0 .97-.59l2.75-5.89.16-.65-.16-.64-2.75-5.83q-.33-.65-.97-.65h-9.05zm-7.76-19.42h21.66q.96 0 1.61 1.29l5.01 10.36.16.64-.16.65-5 10.36q-.66 1.3-1.62 1.3h-21.66zm31.03 0h20.68q.97 0 1.62 1.29l3.4 7.12.16.65-.17.64-5 5.83 5.16 9.06h-7.75l-7.44-12.3h3.88q.66 0 .97-.32l2.59-2.91-1.3-3.24q-.32-.65-.96-.65h-8.08v19.42h-7.76zm36.2 24.6h-7.76v-24.6h7.76zm10.34-16.51 7.76 11.33 7.75-11.33v-8.1h7.76v9.07q0 1.29-.32 1.94l-8.73 13.6h-12.93l-8.72-13.6a4.5 4.5 0 0 1-.33-1.94v-9.06h7.76zm33.61 6.8v4.53H264v5.17h-25.85v-16.18q0-.64.32-1.3l3.55-6.47q.33-.64 1.3-.64H264v5.17h-15.51q-.65 0-.97.65l-1.62 3.89H264l-2.58 5.17z" style="font-size:72.2677002px;font-style:normal;font-weight:400;fill:#fff;fill-opacity:1;stroke:none;display:inline;font-family:NiseMegaDrive"/><path d="m55.63 158 1.8-2.7h9.76l2.3-3.66-2.3-2.89q-.45-.62-1.34-.62h-3.93l1.8-2.69h5.38q.9 0 1.52.79l1.26 1.6 1.72-2.78a3 3 0 0 1 2.7-1.4h3.59l-5 8 5 6.35h-5.4l-1.98-2.52-1.05 1.68q-.56.84-1.46.84Zm27.85-8.97v-2.69h5.5l.73-1.23a3.1 3.1 0 0 1 2.76-1.46h3.59l-1.69 2.7h4.38q.9-.01 1.58.94l3.42 4.77q.4.55.11 1.18l-2.64 3.8q-.66.96-1.57.96h-7.19v-2.7h3.6q.9 0 1.46-.66l.95-1.63a.6.6 0 0 0 0-.78l-1.8-2.58q-.48-.62-1.51-.62h-2.47L87.07 158h-5.39l5.62-8.97Zm15.27-5.38h3.6l3.76 5.27-1.52 2.8Zm4.67 0h6.12l-2.87 4.48Zm15.1 14.35v-14.35h5.4v3.59h8.98q.9 0 1.51.95l2.98 4.43H132l-1.12-1.8q-.68-.9-1.57-.9h-5.4V158Zm10.79-11.66-1.8-2.69h3.6l1.79 2.7Zm4.49 0-1.8-2.69h3.6l1.8 2.7Zm5.39 0v-2.69h18.87v2.7Zm0 3.59v-2.7h18.87v2.7q0 .9-.4 1.74l-2.75 5.49q-.45.84-1.34.84h-11.69v-2.7h7.2q.9 0 1.4-.89l2.19-4.48Zm20.66-.9v-2.69h12.98q.95 0 1.46-.9l.84-1.79h5.4l-1.8 3.59q-.9 1.8-2.7 1.8h-3.6V158h-5.39v-8.97Zm39.99 6.05-1.69 2.02q-.56.9-1.46.9h-14.37v-2.7h9.88q.72 0 1.3-.89l.5-.85v-7.22h-11.68v-2.69h17.97v9.86q0 .9-.45 1.57m2.25-6.05 2.7-5.38h3.59l-2.7 5.38Zm-.9 0v-5.38h2.7Z" style="fill:#ccc"/></svg>