<?xml version="1.0" encoding="UTF-8" standalone="no"?><svg data-name="Warstwa 1" viewBox="0 0 263.18 64.78" version="1.1" id="svg3" xmlns="http://www.w3.org/2000/svg" xmlns:svg="http://www.w3.org/2000/svg"><title id="title1">megadrive</title><path fill="currentColor" d="M162.7 39.25V22.42h-11.23v-6.23h17.54v24l.3.06 1.27-3.61 10.11-29.82a10 10 0 0 1 19 .07q6.27 18.62 12.56 37.22c.15.45.28.9.44 1.44h-25.13v-6.16h16.5c-.69-2-1.31-3.91-1.95-5.79L193.5 8.19A3.4 3.4 0 0 0 189 5.8a3.8 3.8 0 0 0-2.26 2.62l-8.46 25.08-4.11 12.09H149.1c-7.5 0-12.85-4.88-13.08-12.37-.21-7-.16-13.92.05-20.87A12.1 12.1 0 0 1 147.81.77c6.88-.15 13.76 0 20.64 0a3 3 0 0 1 .52.08v6.17H149.1c-4.19 0-6.81 2.62-6.81 6.81v19a6.3 6.3 0 0 0 6.56 6.57h12.72c.35-.08.7-.12 1.13-.15m-100-1.35v-6.26h18.6a2 2 0 0 0 .95 0 4 4 0 0 0 .85-.79c-.29-.21-.57-.59-.87-.6-1.64-.06-3.28 0-4.92 0a14.7 14.7 0 0 1-6.1-28.08A15 15 0 0 1 76.75.85C83.34.69 89.94.79 96.54.79l.55.06v6.19c-.46 0-.93.08-1.39.08H77.35a8.38 8.38 0 0 0-2.06 16.51 35 35 0 0 0 5.72.32 18 18 0 0 1 3.33.27 7 7 0 0 1-1.75 13.72c-4.28.08-8.56 0-12.84 0Z" id="path1" style="fill:#ffffff"/><path fill="currentColor" d="M62.7 45.59v-6.34h19.83a8.36 8.36 0 0 0 1.57-16.57 46 46 0 0 0-6.46-.17 6.9 6.9 0 0 1-5.9-2.88 6.8 6.8 0 0 1-.71-7.15 6.4 6.4 0 0 1 6-4c6.59-.11 13.19 0 19.79 0a1 1 0 0 1 .3.11v6.15H78.3a3 3 0 0 0-1.07.05 1.2 1.2 0 0 0-.61.73c0 .16.34.56.57.6a11 11 0 0 0 1.79.1c2.79 0 5.58-.18 8.31.77a14.7 14.7 0 0 1 9.77 15.6c-1.06 7.4-6.74 12.82-13.91 13-6.79.12-13.59 0-20.45 0M133.63.72v6.26h-20.52c-4.21 0-6.82 2.6-6.82 6.79v18.95a6.25 6.25 0 0 0 6.63 6.6h20.6v6.26H112.7a12.4 12.4 0 0 1-12.63-12.59V13.32A12.4 12.4 0 0 1 112.7.72h21Zm68.39 37.12h-14.53v-4.46l-.25-.06-.78 2.18c-1 3.06-2.09 6.12-3.09 9.19a1.1 1.1 0 0 1-1.25.91c-2.11-.05-4.22 0-6.45 0l3.84-11.34 8.63-25.53a2.1 2.1 0 0 1 2-1.74 2.1 2.1 0 0 1 2.11 1.78c0 .11.09.22.13.33l5.79 17.26 3.47 10.33c.15.36.25.74.38 1.15M190.2 24.47l-2.15 6.44h4.29zm-35.19 7.17v-1.45h-3.53v-6.34h9.8v14c-.35 0-.66.07-1 .07h-11.4c-3.2 0-5.18-2-5.19-5.15v-19.2c0-3.19 2-5.11 5.2-5.11h20v6.29h-16.72c-1.85 0-2.19.33-2.2 2.15v12.59c0 1.64.51 2.15 2.14 2.17z" id="path2" style="fill:#ffffff"/><path fill="currentColor" d="M133.63 8.58v6.15h-17.75c-.92 0-1.66.16-1.87 1.39h14.06c.91 0 1.18.27 1.15 1.16-.06 1.66 0 3.33 0 5.07h-21.47v-9.34a4.67 4.67 0 0 1 4.42-4.53h21.1zm-25.88 15.36h21.35v6.19h-15l-.22.33a5 5 0 0 0 1.14 1 3 3 0 0 0 1.41.16h17.07v6.22h-20.4c-3.52 0-5.39-1.88-5.39-5.41ZM65.64 53.72h6.38v4.68c0 2.15.37 2.53 2.49 2.53h9.47a3 3 0 0 0 1.39-.23c.4-.26.87-.83.82-1.21a1.5 1.5 0 0 0-1.13-.89c-2.11-.09-4.23 0-6.35-.05H77.3v-3.26c.4 0 .82-.05 1.24-.05h9.47c3.13 0 4.79 1.49 4.88 4.34a4.54 4.54 0 0 1-4.61 5c-2 .11-3.92.05-5.87.05H71.26a12 12 0 0 1-2.72-.33 3.5 3.5 0 0 1-2.88-3.4c-.08-2.36-.02-4.71-.02-7.18m174.33-.2h5.88c.2 0 .52.12.58.28.5 1.11 1.48 1.08 2.45 1.08l11.27.06h1.38v3.34h-13.07a2.5 2.5 0 0 0-1.18.08c-.4.24-.89.7-.91 1.09s.49.82.87 1a3 3 0 0 0 1.29.17c4.44 0 8.87.06 13.31 0 1 0 1.41.22 1.33 1.33-.17 2.45-.12 2.46-2.57 2.47h-15.11a5.2 5.2 0 0 1-5.52-5.46zM45.63 58.51c-.26 1.74.15 2.26 1.77 2.28q6.6.1 13.19.16h1.51v3.51c-.32 0-.67.06-1 .06q-8.4-.02-16.79-.14c-3.65 0-5.26-1.7-5.25-5.32v-5.51h5.77a.8.8 0 0 1 .58.44c.3 1.07 1.09 1.26 2 1.26h12.72c.23 0 .47 0 .81.06v3.18Zm177.07 1.27 1.84-2.49c.88-1.24 1.5-3 2.69-3.58s3-.17 4.47-.18h2.49c-.28.51-.42.81-.6 1.09-2.1 3.06-4.17 6.14-6.33 9.16a2.2 2.2 0 0 1-1.53.81q-3.1.12-6.23 0a1.8 1.8 0 0 1-1.31-.54c-2.19-3.38-4.3-6.81-6.62-10.5a22 22 0 0 0 3.49 0c2.6-.44 4.28.55 5.39 2.9a29 29 0 0 0 2.25 3.33m-100.44 4.76h-6.56l-.15-3.14h-11.59v-4.51h11.67v-3.23h6.63Zm54.72-7.67h8.72c2.34 0 2.69-.34 2.83-2.66l.08-.53h6.83c.35 2.63-.24 4.76-2.63 6.29l4.46 4.31-.2.36c-.37 0-.75.06-1.12.06a19 19 0 0 0-2.4 0c-3 .39-5.45-.38-7.24-3a1.8 1.8 0 0 0-1.34-.51h-8ZM.04 52.28v-2.89c0-.23.39-.49.66-.62a2 2 0 0 1 .71 0H29.1a20 20 0 0 1 3.22.2 3.27 3.27 0 0 1 2.84 3.3Zm164.36 1.36a75 75 0 0 1-.06 7.52 3.9 3.9 0 0 1-3.84 3.52c-5.1.09-10.21 0-15.41 0v-3.76h10.92c1.71 0 2.24-.53 2.27-2.21s0-3.33 0-5.07Zm-.26-1.17h-26.38v-3.65h20.17a20 20 0 0 1 2.87.18 4.1 4.1 0 0 1 3.34 3.47m-98.11-.01A3.6 3.6 0 0 1 69.14 49a16 16 0 0 1 2.74-.18q9.42.02 18.83.08a8 8 0 0 1 .87.09v3.47Zm129.02-.02h-25.73a4.3 4.3 0 0 1 3.83-3.5c1.27-.13 2.56-.11 3.84-.12h13.3a4.6 4.6 0 0 1 4.76 3.62m-98.53.03a3.7 3.7 0 0 1 3.81-3.56c3.27-.1 6.54-.09 9.82-.1 2.51 0 5 0 7.54.09a4.46 4.46 0 0 1 4.14 3.57Zm143.52-.28v-3.33h22.89v3.33Zm-200.84.16c-.34-3.53-.34-3.51 3-3.5h19.97v3.45Zm129.58 12.14V54.18a.9.9 0 0 1 .68-.58c2-.05 4 0 6 0v10.89Zm30.55.02V53.56h6.53v10.95Zm-96.63-.01h-5.64c-.26 0-.73-.33-.74-.51v-10.3h6.38ZM14.39 53.53h6.22v10.66h-6.22Zm20.78.11v10.64h-6V53.64Zm108.6 10.89h-6V53.71h6ZM5.96 64.19h-6v-10a.9.9 0 0 1 .61-.64c1.75-.05 3.5 0 5.32 0Zm222.05-12.08q.96-1.5 2-3a1 1 0 0 1 .67-.39h6.88c-.93 1.34-1.65 2.41-2.4 3.46a1 1 0 0 1-.6.3h-6.44Zm-19.44-3.34h5.93a1.2 1.2 0 0 1 .9.42c.71 1 1.35 2 2.12 3.22h-6.23a1 1 0 0 1-.58-.34c-.68-1-1.33-2.04-2.14-3.3m-9.13 3.59v-3.51h6.4v3.51Z" id="path3" style="fill:#ffffff"/></svg>