<svg xmlns="http://www.w3.org/2000/svg" xml:space="preserve" id="Layer_1" x="0" y="0" viewBox="0 0 3839 437.04"><style>.st0{fill:#fff}</style><path d="m652.59 428.71-8.32 8.33h179.4l-.62-.63-32.67-32.66H677.56zM550.9 48.77l-.34.58-.41.69-.19.33c9.81-8.46 22.76-15.14 39.71-16.72l.16-.02q1.6-.15 3.25-.23l.53-.03q1.89-.09 3.85-.09h192.93L823.67 0H597.46a44.57 44.57 0 0 0-44.52 44.52q0 .87-.45 1.61l-.6.99-.24.41-.4.66z" class="st0"/><path d="m536.25 77.45-.39.71-.51.96-.09.17c-5.34 10.3-7.29 18.65-7.32 18.76l-.03.11-.08.25-.11.27-.12.23-.15.24-.16.2-.19.2a3 3 0 0 1-.63.49l-.24.12-.24.11-.28.08-.24.06q-.22.04-.43.04l-.11.01h-.16l-.16-.02-.19-.02-.11-.03-.33-.09-.24-.09-.29-.14-.23-.13-.25-.18-.2-.18-.2-.22-.17-.22-.16-.25-.13-.25-.11-.27-.09-.29-.05-.28q-.03-.16-.03-.31l-.01-.14V40.81L316.57 39.6l-2.06-.01h-.14a23.2 23.2 0 0 0-19.54 10.61L69.21 397.54h120.54L373 115.42q.12-.16.25-.3l.22-.26.04-.05.18-.13.14-.1q.12-.1.26-.18l.06-.03.25-.1.17-.07.24-.1.07-.01.31-.04q.2-.04.41-.05h129.91q.24 0 .47.04h.04l.12.03.3.08.08.02.1.04.27.12.1.05.06.03.29.19.08.05.02.01q.18.14.34.31l.09.11.2.25.05.07.05.1.08.12q0 .03.03.07l.09.16q.09.2.14.41l.03.07.01.04.01.08q.05.19.06.38v.51l-.04.26-.04.25-.04.12-.05.13-.01.01-.07.21a3 3 0 0 1-.24.45L327.07 397.54h120.54l17.26-26.58.39-.61 15.73-24.22.55-.85 21.37-32.9 1.19-1.84 11.8-18.17 1.07-1.65 4.31-6.64.25-.39 9.88-15.22.88-1.35 9.6-14.78 1.27-1.96 2.08-3.2 2.41-3.71 2.47-3.81 1.02-1.57 5.48-8.44 2.42-3.72 8.65-13.32 7.11-10.94a6763 6763 0 0 1 12.94-19.93l25.84-39.78a66 66 0 0 1 13.24-14.85l.28-.23a64 64 0 0 1 21.82-11.84l.35-.1a64 64 0 0 1 18.8-2.83h.15l8.02.02.11.01q.19 0 .38.04l.21.04.09.02h.01l.04.01.22.08.18.07q.12.05.23.12l.13.07.13.07.04.03.42.34.09.11.35.47v.01l.05.06.01.03.1.21.09.2.08.25.04.14.04.16q.05.27.05.54v282.32h109.19V39.5H597.46q-1.21 0-2.41.04l-.53.02a62 62 0 0 0-2.3.11c-30.08 2.04-46.91 21.45-55.73 37.34z" class="st0"/><path d="m431.98 153.5 61.31-33.28H380.83l18.07 33.28zm202.14 29.42 36.81-64.59-2.67-.01h-.01l-.83.02a58.2 58.2 0 0 0-36.33 13.33l-.28.23a61 61 0 0 0-11.99 13.45l-92.2 141.97-1.88 2.89-4.11 6.33-3.37 5.19-2.52 3.88-11.44 17.61-1.76 2.71-2.68 4.13-.29.44-45.65 70.28 18.07 33.29zm39.05-55.96-33.29 58.4v247.28l33.29-33.28zm121.6 272.4 33.29 33.28V4.39l-33.29 33.29zm-472.63 4.39-59.99 32.57-1.32.72h204.7l-18.08-33.29z" class="st0"/><path d="M268.39 18.38 0 431.58l20.04-10.88 41.27-22.41L289.62 46.81a29.4 29.4 0 0 1 24.74-13.44h.17l2.57.02 206.08 1.22 11.85-19.42L544.3 0H302.25a40.3 40.3 0 0 0-33.86 18.38M64.28 403.75 4.7 436.09l-1.74.95h204.7l-18.07-33.29zM528.03 38.59v40l.37-.81.16-.36.85-1.82.18-.39.75-1.56.19-.39.89-1.82.2-.4.77-1.53.21-.42.91-1.79.2-.4.77-1.47.23-.45.91-1.73.19-.36.77-1.43.24-.44.89-1.64.19-.34.74-1.34.24-.43.84-1.52.18-.32.68-1.21.24-.43 1.56-2.75.2-.35.7-1.21.12-.21.56-.97.18-.31.66-1.13.5-.84.13-.22.92-1.55.03-.04.34-.57V7.95L536.3 25.03zM274.29 422.66l44.89-24.37 55.44-85.35 121.64-187.26-61.32 33.28-177.08 272.62z" class="st0"/><path d="m393.44 156.47-18.07-33.29-180.32 277.6 18.07 33.29zM1499.89 18.38l-90.44 139.24 33.29 9.86 78.44-120.76a29.4 29.4 0 0 1 24.75-13.44h324.25L1903.45 0h-369.71a40.2 40.2 0 0 0-33.85 18.38m374.67 19.3v49.25l33.28 33.28V4.39l-4.93 4.93z" class="st0"/><path d="m1526.38 50.11-79.2 121.93v225.5h445.22v-205h-151.49l-29.63 45.61h68.83l.14.01.24.02.18.03.12.02.15.04.22.07.14.05h.01l.07.03.21.1.2.11.06.04.04.03.08.06.18.14.12.11.09.09.11.12.14.17.07.09.03.04.04.07.11.19.11.21.03.07v.01l.04.13.08.23.04.15.02.12.03.18.02.24.01.14v99.18l-.01.14-.02.24-.03.18-.02.12-.04.14-.08.23-.04.13v.01l-.03.07-.11.21-.11.19-.04.07-.04.05-.06.07-.14.18-.11.12-.09.09-.12.11-.18.14-.07.06-.05.04-.06.04-.19.11-.2.1-.07.04h-.01l-.1.03-.36.11-.12.04-.07.01q-.25.05-.52.05h-185.02a38.8 38.8 0 0 1-38.74-38.74V190.44l.02-.27.01-.11.05-.26.03-.13.06-.21.05-.12.1-.25.05-.1.13-.24 58.59-90.2a29.4 29.4 0 0 1 24.75-13.44h228.14V39.5h-322.43a23.2 23.2 0 0 0-19.56 10.61" class="st0"/><path d="M1595.86 300.94v-96.48l-33.29-9.86v110.2q0 .84.04 1.67a32.57 32.57 0 0 0 32.49 30.86h177.5l-4.93-4.93-28.36-28.36h-140.36a3.1 3.1 0 0 1-3.09-3.1m-181.95 134.25-1.84 1.85h515.44l-3.7-3.7-29.59-29.59h-448.86zm233.41-310.58h256.14l-2.09-2.09-31.2-31.2h-229.96a23.2 23.2 0 0 0-19.54 10.61l-56.33 86.72 33.29 9.86 47.08-72.49a3.1 3.1 0 0 1 2.61-1.41" class="st0"/><path d="m1642.07 272.19 61.32-33.29 32.22-49.61-18.07-33.29zM1723 153.04l18.07 33.29h153.15l33.29-33.29zm20.72 146.61 33.28 33.29v-84.19l-33.28 33.29zm-98.69-22h94.3l28.35-28.36 4.93-4.93h-66.26zm-237.35 154.99 33.29-33.28V173.43l-33.29-9.86zm490.93-33.28 33.29 33.28V157.43l-33.29 33.29zm629.6-214.07h91.46v52.86h-91.46zm-39.5 87.96 33.29-33.28v-56.5l-33.29-33.28zm162.2.54-29.43-29.43h-95.09l-26.63 26.63-6.66 6.66h161.67zm0-124.13 3.86-3.87H2493.1l3.7 3.7 29.59 29.59h95.09zm8.25.53-33.28 33.28v56.5l33.28 33.28zM3228.83 0h-382.16a40.3 40.3 0 0 0-33.86 18.38L2698.2 194.82a40.4 40.4 0 0 0 0 43.99l116.82 179.85a40.2 40.2 0 0 0 33.86 18.38h379.95l-3.7-3.7-29.59-29.59h-334.48a29.4 29.4 0 0 1-24.75-13.44l-102.26-157.42a29.6 29.6 0 0 1 0-32.15L2834.1 46.72a29.4 29.4 0 0 1 24.75-13.44h336.7z" class="st0"/><path d="M2954.19 98.54a29.4 29.4 0 0 1 24.75-13.44h214.79V39.5h-334.88a23.2 23.2 0 0 0-19.54 10.61l-100.04 154.01a23.3 23.3 0 0 0 0 25.39l102.26 157.42a23.2 23.2 0 0 0 19.54 10.6h332.66v-54h-218.02a29.4 29.4 0 0 1-24.75-13.44l-63.15-97.22a29.6 29.6 0 0 1 0-32.15zm245.75 300.82 33.29 33.28v-124.2l-33.29 33.28z" class="st0"/><path d="M2986.04 124.61h242.79l-3.7-3.7-29.59-29.59h-216.61a23.2 23.2 0 0 0-19.54 10.61l-66.38 102.19a23.3 23.3 0 0 0 0 25.38l63.15 97.22a23.2 23.2 0 0 0 19.54 10.61h219.84l29.59-29.59 3.7-3.7h-246.02a3.1 3.1 0 0 1-2.6-1.41l-48.91-75.29a19.4 19.4 0 0 1 0-21.05l52.14-80.27a3.1 3.1 0 0 1 2.6-1.41M3233.23 4.39l-2.93 2.93-30.36 30.36v49.25l33.29 33.28zM875.3 432.87l-4.16 4.17h496.63l-33.28-33.29H904.43zm415.53-219.22 13.72-21.12h-287.52q-.23 0-.47-.04l-.1-.02-.11-.03-.25-.07-.16-.06-.12-.04-.03-.01-.13-.07-.14-.07-.19-.12-.11-.08-.01-.01-.07-.05q-.18-.14-.34-.31l-.02-.02-.01-.01-.06-.07-.2-.26-.05-.07-.05-.1-.08-.12q0-.04-.03-.07l-.09-.16-.16-.45-.01-.04-.01-.04-.01-.08-.06-.38v-.51l.04-.25.04-.25.04-.12.05-.13v-.01l.08-.22q.1-.24.24-.45l57.94-89.2a29.4 29.4 0 0 1 24.75-13.44h235.55V39.5H992.71q-2.24 0-4.37.41a23.2 23.2 0 0 0-15.16 10.19l-66.92 103.01v244.42h426.42v-54h-307.06q-.27 0-.52-.05l-.07-.01-.12-.03-.36-.11-.1-.03h-.01l-.07-.03-.2-.1-.2-.11-.06-.04-.04-.03-.07-.06-.18-.14-.12-.11-.09-.09-.11-.12-.13-.17-.07-.09-.03-.04-.04-.07-.11-.19-.11-.21-.03-.07v-.01l-.04-.13-.08-.23-.04-.15-.02-.12-.03-.18-.02-.24-.01-.14v-99.18l.01-.14.02-.24.03-.18.02-.12.04-.15.08-.23.04-.13v-.01l.03-.07.11-.21.11-.19.04-.07.03-.04.07-.08.14-.17.11-.12.09-.09.12-.11.18-.14.07-.06.04-.03.06-.04.2-.11.28-.13h.01l.14-.05.22-.07.15-.04.12-.02.18-.03.25-.02.14-.01h249.3zM866.75 432.64l33.29-33.28V154.52l-33.29-9.87z" class="st0"/><path d="m1066.41 304.04-33.29 33.29h301.37l33.28-33.29zm-37.68 28.9 33.29-33.29v-17.61l-33.29-33.29zm249.6-82.01-3.57-6.57h-241.64l33.29 33.29h226.42zm95.43-92.43-61.32 33.29-32.22 49.61 18.07 33.28zm-34.88 240.86 33.29 33.28v-124.2l-33.29 33.28zM946.68 18.38 868.52 138.7l33.29 9.86 66.16-101.84a29.4 29.4 0 0 1 24.75-13.43h341.77L1367.77 0H980.54a40.2 40.2 0 0 0-33.86 18.38m425.49-13.99-33.29 33.29v49.25l33.29 33.28z" class="st0"/><path d="m1102.08 125.47.15-.13q.2-.16.42-.3l.19-.11q.24-.12.48-.19l.17-.05q.34-.08.7-.09h263.57l-33.29-33.29H1097.1a23.2 23.2 0 0 0-19.54 10.61l-51.28 78.94 61.32-33.29 14.01-21.56q.21-.3.47-.54" class="st0"/><path d="M1370.8 153.04h-280.22l-61.32 33.29h280.22zM2241.73 0H1963.5l33.29 33.29h232.76a29.4 29.4 0 0 1 24.75 13.44l228.36 351.57 61.32 33.29-268.39-413.2A40.2 40.2 0 0 0 2241.73 0m237.97 403.75h-125.31l-.39.72-17.68 32.57h204.7zm-199.86-42.79 3.09-5.69 14.98-27.59h-151.66l6.69 33.28zm69.09 39.82-45.56-70.14-18.07 33.29 45.56 70.14zM2114.01 290.5v108.86l33.29 33.28v-67.91l-12.13-27.05z" class="st0"/><path d="m2158.43 107.64-.35-.44q-.42-.53-.85-1.03l-.4-.44q-.5-.53-1.01-1.04l-.27-.27q-.66-.61-1.35-1.18l-.38-.29a42 42 0 0 0-1.56-1.13l-1.07-.67-.46-.27a22 22 0 0 0-3.15-1.47l-.56-.2q-.57-.2-1.14-.37l-.58-.17q-.7-.19-1.41-.33l-.3-.07q-.86-.16-1.71-.26l-.56-.05-1.23-.09-.63-.02q-.55-.01-1.1.01-.43 0-.85.03-.55.03-1.11.1l-.81.09a24 24 0 0 0-1.93.34q-.9.2-1.79.46l-.13.03c-8.08 2.39-14.01 8.23-16.47 15.74l-.08.28a26 26 0 0 0-1.17 7.71v135.34l33.29-33.29v-62.77a3.1 3.1 0 0 1 5.71-1.69l41.18 63.39 61.32 33.29-95.98-147.76q-.54-.76-1.11-1.51" class="st0"/><path d="m2151.69 229.11-33.29 33.29h134.14l-61.32-33.29zm-192.58 203.53 33.29-33.28V37.68l-33.29-33.29zm5.02 3.77-.63.63h179.4l-4.16-4.17-29.12-29.12h-112.83zm177.77-98.89-2.36-11.76-9.4-14.45z" class="st0"/><path d="M2303.13 321.47q.18.01.36.05.18.01.37.05l.05.01q.13.04.25.1l.05.02q.2.06.38.15l.05.03q.13.08.25.18l.04.03.3.21.04.04.22.26q.13.14.25.3l48.49 74.66h120.54L2249.1 50.11a23.2 23.2 0 0 0-19.54-10.61h-230.95v358.04h109.19V275.98l.02-.28.02-.19.01-.05.04-.17.09-.32.08-.19.12-.27.02-.04.1-.15.16-.24.04-.06.11-.11.19-.2.09-.08.12-.09.19-.14.16-.1.06-.04.06-.02.17-.08.21-.08.13-.05.03-.01.13-.03.1-.03.12-.01.16-.03h.14l.21-.01h.18l.13.01.2.02a1 1 0 0 1 .34.08l.15.05.21.08.14.06.11.05.22.14.14.09.06.05.22.19.08.07.05.05.03.03.18.22.14.18.02.02 30.64 47.18h159.01zm-192.23-52.86-.13-.01a2 2 0 0 1-.42-.05l-.12-.02-.15-.04-.22-.07-.14-.05h-.01l-.07-.03-.21-.1-.2-.11-.06-.04-.04-.03-.08-.06-.18-.14-.12-.11-.09-.09-.11-.12-.14-.18-.06-.08-.03-.04-.04-.07-.11-.19-.11-.21-.03-.07v-.01l-.04-.13-.08-.23-.04-.15-.02-.12-.03-.18-.02-.24-.01-.14V122.67c0-10.79 5.15-20.15 13.63-25.73a32 32 0 0 1 8.54-3.96q.46-.13.94-.24c10.56-2.8 21.13-.11 28.76 7.01l.17.15.04.05a32 32 0 0 1 4.85 5.85l102.64 158.01q.14.22.24.45l.08.23.05.14.04.12.04.26.04.24v.5l-.06.38-.01.08-.01.04-.01.02a3 3 0 0 1-.16.47l-.09.16q0 .03-.03.07l-.08.12-.05.1-.05.07-.2.26-.05.06-.02.02-.02.02q-.16.17-.34.31l-.07.05-.01.01-.11.08-.19.12-.14.07-.14.07-.02.01-.12.04-.16.06-.25.07-.11.03-.1.02q-.23.03-.47.04H2110.9zM3714 418.65l118.49-182.42a40.4 40.4 0 0 0 0-43.99L3719.55 18.38A40.2 40.2 0 0 0 3685.7 0h-413.54l33.29 33.29h368.08a29.3 29.3 0 0 1 16.17 4.84 29 29 0 0 1 8.58 8.61l98.37 151.44a29.6 29.6 0 0 1 0 32.15l-103.92 159.99a29.4 29.4 0 0 1-24.75 13.44h-362.53l-29.59 29.59-3.7 3.7h407.99a40.3 40.3 0 0 0 33.85-18.4" class="st0"/><path d="M3449.92 299.65V129l-30.03-30.03-3.25-3.26v237.23l30.73-30.73z" class="st0"/><path d="M3667.72 212.43q-.06-.74-.16-1.47v-.03a25 25 0 0 0-.27-1.52l-.08-.33q-.14-.62-.31-1.22l-.09-.3a18 18 0 0 0-.47-1.4l-.02-.06a25 25 0 0 0-1.28-2.81l-.21-.39q-.37-.68-.79-1.32v-.01l-20.4-31.41-44.31-68.21a23.2 23.2 0 0 0-19.54-10.61h-158.76l3.26 3.26 30.03 30.03h118.37a3.1 3.1 0 0 1 2.6 1.41l50.47 77.7a19.3 19.3 0 0 1 2.82 13.82l-.02.1q-.1.6-.23 1.13l-.05.2q-.13.55-.28 1.02l-.1.3-.49 1.31-.05.11-.31.72-.28.57-.11.22-.21.4-.7 1.17-50.58 77.86a3.1 3.1 0 0 1-2.6 1.41h-118.26l-33.29 33.29h158.66q.78 0 1.56-.05l.23-.02q.67-.05 1.33-.14l.19-.03q.7-.1 1.37-.24l.11-.02q.73-.15 1.44-.35l.02-.01a23 23 0 0 0 5.77-2.49l.04-.03a20 20 0 0 0 2.41-1.68 23 23 0 0 0 1.94-1.73l.26-.26.38-.4.6-.66.04-.04.26-.32q.36-.43.69-.87l.15-.2q.38-.52.73-1.06l.01-.02 64.82-99.79q.42-.65.79-1.32l.2-.37a18 18 0 0 0 .69-1.4 24 24 0 0 0 1.2-3.32l.34-1.34q.16-.77.28-1.55l.03-.24q.07-.52.11-1.06a22 22 0 0 0 .05-3.62q.02-.17 0-.31M3301.05 37.68l-33.29-33.29v428.25l33.29-33.28z" class="st0"/><path d="m3687.51 386.93 103.92-159.99a23.3 23.3 0 0 0 0-25.38l-98.37-151.44a23 23 0 0 0-13.75-9.88 23 23 0 0 0-5.79-.72h-366.26v358.04h360.71a23.3 23.3 0 0 0 19.54-10.63m-84.19-55.23-.05.07q-.42.55-.89 1.12l-.35.41-.77.85-.72.75-.48.47q-.61.58-1.25 1.13l-.05.05a29 29 0 0 1-11.09 5.89l-.09.03q-.88.24-1.77.43l-.2.04q-.84.17-1.69.29l-.29.05q-.82.1-1.66.17l-.32.03q-.98.06-1.97.07h-166.17q-.27 0-.52-.05l-.07-.01-.12-.04-.36-.11-.1-.03h-.01l-.07-.04-.2-.1-.2-.11-.06-.04-.05-.04-.07-.05-.18-.14-.12-.11-.09-.09-.11-.12-.14-.18-.05-.07-.04-.05-.04-.06-.11-.2-.13-.27v-.01l-.05-.14-.07-.22-.04-.15-.02-.12-.03-.18-.02-.25-.01-.13V88.21l.01-.14.02-.25.03-.18.02-.12.04-.15.07-.22.05-.14V87l.03-.07.1-.2.11-.2.04-.06.03-.04.06-.08.14-.18.11-.12.09-.09.12-.11.18-.14.08-.06.04-.03.07-.04.2-.11.21-.1.06-.03h.01l.14-.05.22-.07.15-.04.12-.02.18-.03.25-.02.14-.01h166.26q4.62.02 8.9 1.37l.18.05a29.6 29.6 0 0 1 15.67 12.02l64.71 99.62q.53.83 1.01 1.68l.27.49.35.64.32.69.21.44q.4.87.73 1.77l.08.22q.28.78.52 1.58l.17.58.16.55.03.12q.1.38.18.79l.09.37q.17.81.3 1.64l.02.11.02.16.02.18.14 1.09.01.13q.07.67.1 1.4v.03q.03.7.03 1.42v.17q0 .87-.07 1.76l-.03.38-.05.69-.02.2-.15 1.06-.04.3-.02.11q-.12.71-.25 1.35l-.03.13q-.14.67-.32 1.34l-.06.24-.1.35-.14.48q-.23.77-.51 1.52l-.1.29-.1.26q-.24.63-.52 1.25l-.07.16-.07.15-.09.2-.4.82-.09.18-.29.54-.24.44-.12.23-.13.23q-.37.65-.76 1.23l-64.82 99.79q-.54.84-1.12 1.61" class="st0"/></svg>