<?xml version="1.0" encoding="UTF-8" standalone="no"?><svg data-name="Warstwa 1" viewBox="0 0 429.98 88.76" version="1.1" id="svg2" xmlns="http://www.w3.org/2000/svg" xmlns:svg="http://www.w3.org/2000/svg"><title id="title1">megaduck</title><path fill="currentColor" d="M65.1 0c.91.11 1.83.16 2.72.34 2.3.44 3.45 1.72 3.49 4.31q.01 4.85-.28 9.7a99 99 0 0 0 0 16.39 129 129 0 0 1 .51 13.17c0 7.87-.15 15.75-.26 23.62a27 27 0 0 1-.24 3 3.5 3.5 0 0 1-3.44 3.09 3.26 3.26 0 0 1-3.6-2.65 83 83 0 0 1-1-8.32c-.8-12.2-1.48-24.41-2.28-36.61-.23-3.62-.69-7.24-1.13-10.84-.13-1-.19-2.35-1.59-2.51s-1.85 1-2.26 2c-1.7 3.92-3.4 7.84-4.91 11.84-4 10.56-8 21.13-11.76 31.78a25 25 0 0 1-7.53 11.17c-3.06 2.59-5.87 1.86-7.24-1.95-.53-1.48-.48-3.15-.85-4.69q-2.59-10.71-5.29-21.39-1.16-4.5-2.51-9a12 12 0 0 0-1.23-2.71c-.23-.36-.81-.51-1.22-.76a4 4 0 0 0-.57 1.21c-.3 3.67-.62 7.33-.79 11-.36 7.54-.62 15.09-.95 22.64q-.1 2.03-.41 4.05a2.3 2.3 0 0 1-2.69 2.21c-2.46-.07-5.83-2.63-6.2-5.06a90 90 0 0 1-.93-9.65C.36 48.27.05 41.16.05 34.05a160 160 0 0 1 1.7-25.09 8.1 8.1 0 0 1 5.7-6.84 25 25 0 0 1 10-1.15 2.45 2.45 0 0 1 2.26 2.15c.55 2.33 1 4.69 1.47 7a209 209 0 0 0 9.34 32.58 26 26 0 0 0 1.13 2.37 6 6 0 0 0 .65.78 21 21 0 0 0 1.43-2.52c2.93-7.34 5.94-14.64 7.64-22.42a43 43 0 0 1 7-15.52C50.72 2.05 53.76.17 57.95.27c2 0 4-.17 6-.27Zm218.41 40.7c-.33 3.62-.56 7.24-1 10.84a10 10 0 0 1-4.09 6.81 45 45 0 0 1-12.31 6.85 317 317 0 0 0-28.77 12.5c-2.18 1.07-4.49 1.88-6.76 2.75a7 7 0 0 1-2 .41c-1.73.11-2.5-.57-2.43-2.3.11-2.87.19-5.76.57-8.61 1.55-11.6 3.21-23.19 4.85-34.77a17.4 17.4 0 0 0-.59-8.16 15.4 15.4 0 0 1-.07-9.56c1-3.38 4.55-4.22 6.76-1.47 3.43 4.28 5.72 9.1 5.14 14.78-.9 8.78-1.94 17.54-2.88 26.32a27 27 0 0 0-.12 4.3 1.63 1.63 0 0 0 2.09 1.71 12 12 0 0 0 2.78-.7 106 106 0 0 0 21.37-11.56c4.4-3 5.64-7.32 5.33-12.33q-.09-1.37-.14-2.75a13.7 13.7 0 0 0-2.6-8.09q-3.06-4.06-6.33-8a12 12 0 0 0-5.62-3.52 105 105 0 0 0-19.09-4 46 46 0 0 1-5.4-1 4.6 4.6 0 0 1-2-1.17 11.6 11.6 0 0 1-3.28-7.41c-.13-1.83.36-2.45 2.16-2.31a83 83 0 0 1 10 1.21q13.08 2.69 26.09 5.69c8.93 2 14 8 16.2 16.62 1.36 5.56 1.61 11.23 2.14 16.92m-125.87 4.14q-.54 12.21-1.12 24.42c-.09 1.8-.3 3.59-.51 5.37-.47 3.89-2.8 6.53-5.92 8.59a33 33 0 0 1-12.62 4.6 68 68 0 0 1-20.9.22 11 11 0 0 1-2.85-.83 2.9 2.9 0 0 1-1.85-3.06c.09-1.34 1-1.92 2.12-2.32a19 19 0 0 1 8.05-.86c4.27.26 8.53.67 12.76-.35 5.09-1.23 8.62-4.06 9.63-9.45v-.11c.59-3.05-.2-4-3.3-3.93a87 87 0 0 1-9.57 0 42 42 0 0 1-8.5-1.88c-7.64-2.41-11.64-10.36-10.08-18.26a24.2 24.2 0 0 1 7.92-13.38 38 38 0 0 1 17.52-9.45 8 8 0 0 1 2.38-.12 2 2 0 0 1 1.71 3.18 5 5 0 0 1-1.24 1.6c-2.66 2.1-5.33 4.19-8.08 6.18a33 33 0 0 0-7.69 7 10.3 10.3 0 0 0-1.8 8.52c.92 4.33 4.33 6.78 9.35 6.67a28 28 0 0 0 9.43-2.07c3.13-1.19 3.74-3.95 4-6.82.32-3.78.45-7.58.76-11.36.39-4.79 1-9.54 3.07-14a16 16 0 0 1 2.06-3.35 5.5 5.5 0 0 1 5.05-1.75c1 .09 1.15.85 1.13 1.65-.07 3.24-.11 6.48-.24 9.71-.2 5.23-.46 10.46-.69 15.69Zm36.2-23.7a39 39 0 0 1 1.83-4 19 19 0 0 1 2.82-3.82c1.82-1.78 4.19-1 4.54 1.46a82 82 0 0 1 .75 9.54c.2 8.2.17 16.39.42 24.58.16 5 .64 10 1.06 14.94.12 1.42.57 2.81.82 4.22a3.1 3.1 0 0 1-1.43 3.2 2.9 2.9 0 0 1-3.39.08 11 11 0 0 1-2.71-2.31c-1.29-1.62-2.38-3.4-3.53-5.12-.25-.36-.42-.77-.66-1.14-1.12-1.77-1.26-1.8-2.83-.38-.82.75-1.56 1.6-2.37 2.37a14.37 14.37 0 0 1-21.53-1.92c-3.33-4.5-5-9.69-6-15.12-.83-4.43-1.25-8.92 0-13.31a20 20 0 0 1 2.85-6 49 49 0 0 1 6.17-7.31c4.71-4.47 10.32-5.07 16.28-2.94 2.3.87 4.49 1.96 6.91 2.98m-23.2 24.22a35 35 0 0 0 1.37 6.15 28 28 0 0 0 3.66 6.39c1.48 2 3.24 1.93 5 .11a24 24 0 0 0 1.92-2.45c5.89-8.14 8.56-17.59 11-27.13.36-1.42.26-1.65-1.22-1.74-3.95-.23-7.9-.33-11.85-.47a3.2 3.2 0 0 0-3.06 1.68 30 30 0 0 1-2.19 2.86c-3.14 3.92-4.46 8.44-4.63 14.6m209.78-22.39a13 13 0 0 1 2.17-7.58 7 7 0 0 1 1.91-1.94c1.43-1 2.73-.44 2.93 1.25.47 3.92.74 7.87 1.2 11.79.38 3.25.93 6.48 1.41 9.71l.12.47c1 3.17 1.75 3.69 4.94 2.83 4.09-1.11 8.11-2.45 12.18-3.6a14.5 14.5 0 0 1 16.35 7.34c1.23 2.5 1.21 4.92-.68 7.16-.75.89-1.39 1.86-2.14 2.74a1.27 1.27 0 0 0 .13 2c1.92 1.75 3.86 3.49 5.7 5.32a20 20 0 0 1 2.81 3.41c1.05 1.67.51 2.78-1.37 3.33a8.5 8.5 0 0 1-5.76-.39c-3.86-1.62-7.64-3.43-11.49-5.08q-6.87-3.02-13.82-5.72c-3.06-1.18-4.34-.4-5 2.83-.33 1.64-.25 3.35-.56 5a9 9 0 0 1-1.22 3.32A3.6 3.6 0 0 1 388 68.5c-2.17.35-3.21-.52-3.44-2.72q-.77-7.7-1.46-15.39l-2.59-25.76c-.09-.61-.09-1.25-.09-1.66m27.42 26.87a8.7 8.7 0 0 0 6.07-2.35c1.12-1 1.13-1.23-.06-2.19-2.53-2-8.44-2.06-11.48.08a2.8 2.8 0 0 0-1.19 2c0 .54.94 1.3 1.59 1.48 1.88.48 3.82.75 5.07.98" id="path1" style="fill:#ffffff"/><path fill="currentColor" d="M74.63 42.09c.22-1.76.52-4.86 1-7.91a7.3 7.3 0 0 1 3.3-4.81q3.87-2.73 7.65-5.59a11.3 11.3 0 0 1 7.7-2.45c1.79.1 3.59.11 5.37.29a4 4 0 0 1 2 .8c4.08 3.6 5.64 7.4 4.34 12a20 20 0 0 1-2.21 5.28 9 9 0 0 1-3.28 3c-3.4 1.76-6.94 3.25-10.42 4.84l-.55.23c-4.48 2-4.74 2.12-4.25 7.59.19 2 1.53 3.28 3.16 4.27a44 44 0 0 0 13.4 5.65c4.91 1.1 9.88 1.93 14.81 2.91 1.21.24 2.4.58 3.59.91a1.9 1.9 0 0 1 1.44 2.19c0 2.08-1.07 3.52-3.16 3.65q-6.21.36-12.44.32c-6.6 0-12.49-2.77-18.5-5-1.91-.71-3.74-1.62-5.64-2.36a7.9 7.9 0 0 1-4.6-5 44 44 0 0 1-2.13-11.15c-.24-2.79-.33-5.55-.58-9.66m18.09-10.53-.06-.13a34 34 0 0 0-4.14 1 5.1 5.1 0 0 0-3.38 5.25c.09 1 .6 1.38 1.48 1.29a35 35 0 0 0 3.79-.55 8.2 8.2 0 0 0 5.65-4.43q.91-1.7-1-2.14a21 21 0 0 0-2.34-.29m202.54 4.71c.35 5.07.49 10.15 1.9 15.08.18.65.44 1.28.65 1.92 2.91 9 15.26 8.78 19.68 3.79a13.7 13.7 0 0 0 2.94-7.33c.83-5.29 1.46-10.6 2.19-15.9q.21-1.36.5-2.71a2.6 2.6 0 0 1 2.09-2.2 2.9 2.9 0 0 1 2.91.92 6.3 6.3 0 0 1 1.82 5.71 37 37 0 0 0 .8 14.27q1.08 4.3 2.05 8.61.78 3.39 1.49 6.79a6 6 0 0 1-1.6 5.73c-1.36 1.39-2.69 1.55-4.09.23a18 18 0 0 1-2.58-3.12c-1.11-1.71-2.18-2.37-4.2-1.94a57 57 0 0 0-5.63 1.6c-3.25 1.06-6.5 2-10 1.67-8-.67-15.44-7.16-16.9-15.06a142 142 0 0 1-2.15-28.49c.06-3 2.19-4.22 4.89-2.87a5.2 5.2 0 0 1 3.22 4.69c.08 2.86.02 5.73.02 8.61m39.92 3.85c-.66-7.83 2.35-14.41 7.07-20.32a15.7 15.7 0 0 1 14-6.16 25 25 0 0 1 16.41 7.2 4 4 0 0 1 1.2 2.13c.22 1.41-1.14 2.42-2.91 2.1a53 53 0 0 1-5.3-1.42c-1.68-.51-3.32-1.14-5-1.6-4.23-1.16-7.62.25-10.59 3.33a22.3 22.3 0 0 0-6.39 16.5c.07 6.41 3 11.43 7.18 15.84 2.55 2.71 6.1 3.15 9.6 2.61 4.33-.68 8.6-1.71 12.9-2.58q1.18-.22 2.36-.38a3 3 0 0 1 2.82 1.24 1.36 1.36 0 0 1 .07 2 17 17 0 0 1-2.42 2.48c-6.67 4.84-14.19 7-22.29 5.56-9.78-1.79-15.32-8.44-17.7-17.75-.88-3.48-.93-7.18-1.37-10.78Z" id="path2" style="fill:#ffffff"/></svg>