<?xml version="1.0" encoding="UTF-8" standalone="no"?><svg data-name="Warstwa 1" viewBox="0 0 226.58 85.6" version="1.1" id="svg3" xmlns="http://www.w3.org/2000/svg" xmlns:svg="http://www.w3.org/2000/svg"><title id="title1">sega32x</title><path fill="currentColor" d="M0 29.57c2-3 3.79-5.75 5.62-8.5q6-8.98 12-18.06a6 6 0 0 1 5.39-3c3.71.05 7.42 0 11.27 0v2.74l.22.23c2.36-3.29 5.78-3.05 9.15-3 3.8.05 7.6 0 11.4.05q.5-.02 1.12.07v29.35H45.38V8.25a2.5 2.5 0 0 0-2.67 1.1c-.69.88-1.29 1.83-1.89 2.77q-5.4 8.35-10.83 16.69a1.6 1.6 0 0 1-1.07.74H18.61a2 2 0 0 1-.54-.22l14-21.32-.13-.39a34 34 0 0 0-5.16.44 4.3 4.3 0 0 0-2.24 1.81q-6.21 9.33-12.3 18.73a1.8 1.8 0 0 1-1.73 1c-3.43-.06-6.83-.03-10.51-.03m151.59 47.62a9 9 0 0 1-.2-1.27v-8c0-.8-.19-1.16-1.06-1.14h-5.66v3.49c0 .35-.36 1-.57 1-2.06.07-4.13 0-6.3 0V56.81c0-1.07.34-1.41 1.34-1.39q2.4-.02 4.79.06c.29 0 .75.54.78.86.1 1 0 2.07 0 3.45h4.17c2.53 0 2.53 0 2.53-2.56v-6.24c0-.94-.26-1.27-1.2-1.26q-8.33.12-16.66.2h-.63c.3-.35.46-.56.65-.74 7.16-6.62 15.15-11.9 24.57-14.71 3.71-1.11 7.51-1.74 11.36-.83a33 33 0 0 1 4.07 1.57l.17.52a14 14 0 0 0-1.22.9q-9.13 8.32-18.24 16.66a1.75 1.75 0 0 0-.55 2.16l22.05-16.08.45.47a6 6 0 0 0-1.12.63q-9.92 9-19.8 18a27 27 0 0 0-2 2.17l.38.38 22-15.3.25.28c-.33.25-.69.48-1 .76q-10.34 9.21-20.66 18.46a7 7 0 0 0-1 1.63l.39.32 19.69-14.12.21.21c-.36.38-.68.78-1.07 1.13l-18.19 16.55a8 8 0 0 0-1 1.29l.38.38q6.39-4.62 12.76-9.26l.22.24a59 59 0 0 1-4.08 4.28c-3.47 3-7.06 5.89-10.59 8.82a6 6 0 0 0-.5.48Zm-29.76-53.64v-5.68h-7.09c1.47-2.19 2.76-4.14 4.08-6.06a.8.8 0 0 1 .62-.25h12.42v18c-.43 0-.85.08-1.27.08h-29.87c-.48 0-1 0-1.43-.07-2.49-.09-3-.67-3-3.2 0-5.28-.05-10.55 0-15.83a4.4 4.4 0 0 1 .68-2.19c1.52-2.4 3.16-4.72 4.71-7.09a2.3 2.3 0 0 1 2.07-1.19h25.74l.51.07V6h-20.87c-1.75 0-2.5.7-2.53 2.54-.05 4 0 8-.05 12a11 11 0 0 0 .05 2.15c.06.33.55.82.85.82 4.75.05 9.51.04 14.38.04m-62.35 5.76c0-.49-.06-.92-.06-1.35v-17.4a4.3 4.3 0 0 1 .62-2.1c1.49-2.42 3.09-4.76 4.63-7.15a2.3 2.3 0 0 1 2-1.25h25.55l.56.06v5.87h-20a2 2 0 0 0-2.07 1.84c-.07 1.18 0 2.38 0 3.69h22.24c-1.4 2.12-2.64 4.06-4 5.93-.2.29-.83.39-1.27.4H70.81v5.65h22v5.78Zm86.46-10.49v10.64c-.39 0-.74.07-1.08.07h-7.68c-1 0-1.42-.29-1.39-1.36.08-2.35.05-4.71.06-7.07V.1c.4 0 .75-.08 1.09-.08h17.28a2 2 0 0 1 1.82.89l20.13 28.05a4 4 0 0 1 .28.54c-2.36 0-4.6-.16-6.8 0a4.2 4.2 0 0 1-4.58-2.3c-.73-1.31-1.56-2.9-2.77-3.52s-3-.18-4.49-.19h-7.07a2 2 0 0 1-1.36-.69c-1.11-1.34-2.12-2.76-3.18-4.15Zm11.84-1.06a2 2 0 0 0-.17-.42q-3.93-5.4-7.91-10.8a1.3 1.3 0 0 0-.85-.5c-.9-.07-1.81 0-2.8 0v11.75Z" id="path1" style="fill:#ffffff"/><path fill="currentColor" d="M170.47 64.84c1.47-1.35 2.81-2.61 4.18-3.82 5-4.48 10.11-9 15.21-13.41a2.4 2.4 0 0 0 .84-2.75l-22.67 16.59-.21-.25q.34-.37.69-.71 10.77-9.73 21.57-19.44a1.9 1.9 0 0 0 .63-2.16L168.28 55l-.24-.26c.52-.5 1-1 1.56-1.48l20.44-18a7 7 0 0 0 1-1.65l-.46-.41-19.77 14.25-.25-.24a19 19 0 0 1 1.57-1.77l17.86-15.65a7 7 0 0 0 1.06-1.63l-.46-.41-12.65 9.4c.61-2.21 10.45-11.09 14.76-13.43v25.71c0 1.13.28 1.51 1.46 1.5 4.92-.07 9.84 0 14.76 0 .72 0 1.43-.07 2.22-.11a3 3 0 0 1-.38.56c-7.42 6.89-15.69 12.37-25.57 15.07-3.5 1-7.06 1.47-10.66.53a8 8 0 0 1-4.06-2.14m-18.88 12.35q-1.23.7-2.47 1.43c-5.21 3.11-10.63 5.75-16.69 6.68a26 26 0 0 1-6.67.15c-5.53-.63-8.57-4.64-8-10.22a25 25 0 0 1 2.36-8.38 52 52 0 0 1 9.92-14.12c0 .46.12.75.12 1v17a12 12 0 0 0 .21 2.38 4.7 4.7 0 0 0 4.77 3.88h15.03c.47 0 1 .09 1.42.13Zm62.83-29.42V28.96c0-3.54-2-5.46-5.54-5.46h-15.6c.1-.21.12-.34.19-.38 5.72-3.69 11.74-6.71 18.54-7.78a23 23 0 0 1 6-.18c6.18.68 9.26 4.81 8.46 11a27 27 0 0 1-2.87 8.85 54 54 0 0 1-9.18 12.76" id="path2" style="fill:#ffffff"/><path fill="currentColor" d="M200.14 37.13c0-2.19.06-4.39 0-6.58 0-1.14.38-1.45 1.44-1.38a22 22 0 0 0 3.59 0c1-.1 1.33.31 1.33 1.27v11.73c0 3 0 3-3 3-3.32 0-3.32 0-3.32-3.37v-4.67Z" id="path3" style="fill:#ffffff"/></svg>