<svg xmlns="http://www.w3.org/2000/svg" viewBox="0 0 3839 2006.5"><path d="M1270.7 1464.2c-5-28-10.1-56.7-16.3-86.2-42.8 2.5-78.6 11-119 20.6-56.6 13.5-120.8 28.7-216.5 28.7-29.4 0-60.9-1.5-93.9-4.4-22.2 29.8-41.6 57.5-69 96.8-16.9 24.3-36.1 51.8-60.8 86.6-10.1 14.2-19.6 27.7-28.6 40.5-85.1 120.8-127.8 181.4-190.8 217.7-42.8 24.6-86.9 36.6-135 36.6-21.4 0-40.4-2.2-57.2-4.2l-4.8-.6c-21.4-2.5-42.1-19.9-52.8-44.3s-8.7-49.5 5.5-69c69.1-95 131.7-171.7 192.2-246 30.4-37.3 59.7-73.3 88.5-109.8-8.8.3-18.1.5-27.6.5-40.6 0-74.7-3.7-101.3-11-11.7-3.2-22-7.1-31.2-11.8-.5.2-1.1.3-1.6.5-2.8.9-5.5 1.7-8.3 2.5-88.7 27.3-284.8 79.8-331 116.1-6.1 4.8-9.6 9.3-9.9 13.4-7.6 99 20.2 187.8 56.9 262.6 40.3 82.1 91.2 147.4 117.7 190.6.6 1 1.3 2 2 2.9.1.2.3.4.4.6.7.9 1.4 1.7 2.2 2.5l.4.4a21 21 0 0 0 2.6 2.3c.8.7 1.7 1.2 2.6 1.8.2.1.4.3.6.4.9.5 1.8 1 2.8 1.5.1 0 .2.1.3.1.9.4 1.8.8 2.8 1.1.2.1.4.1.6.2 1 .3 2 .6 3.1.9.2.1.4.1.7.1l3.2.6h.2c1.2.2 2.4.3 3.6.4h.7c1.2.1 2.4.1 3.7.1h.6c1.1 0 2.3-.1 3.4-.1.3 0 .6 0 .9-.1 1.4-.1 2.7-.2 4.1-.4h.1l4.2-.6c.3-.1.6-.1.9-.2 2.9-.5 6-1.1 9.1-1.9.3-.1.6-.1.9-.2 1.5-.4 3-.7 4.5-1.2.1 0 .2-.1.3-.1 1.7-.5 3.3-.9 5.1-1.5.2-.1.4-.1.7-.2 1.6-.5 3.1-1 4.7-1.5.2-.1.4-.1.5-.2l5.4-1.8c.1 0 .1 0 .2-.1 1.8-.6 3.5-1.2 5.3-1.9.2-.1.4-.1.5-.2 3.8-1.4 7.6-2.8 11.6-4.4.1 0 .2-.1.4-.1 14.6-5.7 30.1-12.3 46.3-19 1.2-.5 2.3-1 3.5-1.4l3.6-1.5c1.3-.5 2.7-1.1 4-1.6.7-.3 1.5-.6 2.2-.9 1.8-.7 3.7-1.5 5.5-2.2.2-.1.3-.1.5-.2 24.2-9.7 91.5-36.7 186.2-72.4.1 0 .2-.1.3-.1 2.2-.8 4.4-1.6 6.6-2.5.1 0 .1 0 .2-.1 2.1-.8 4.2-1.6 6.4-2.4.3-.1.5-.2.8-.3 2.1-.8 4.1-1.5 6.2-2.3.3-.1.5-.2.8-.3 2.2-.8 4.4-1.6 6.6-2.5.1 0 .3-.1.4-.1 2.1-.8 4.2-1.6 6.4-2.4.4-.1.7-.3 1.1-.4 2-.8 4-1.5 6.1-2.3.4-.1.8-.3 1.2-.4 2-.7 4-1.5 6-2.2.5-.2 1.1-.4 1.6-.6 1.9-.7 3.9-1.4 5.8-2.2.6-.2 1.1-.4 1.7-.6l5.7-2.1c.7-.2 1.3-.5 2-.7l5.7-2.1 1.8-.6 5.7-2.1c.7-.3 1.4-.5 2.2-.8 1.8-.7 3.6-1.3 5.3-2 .9-.3 1.7-.6 2.6-1 1.7-.6 3.4-1.3 5.2-1.9.9-.3 1.8-.7 2.7-1 1.8-.6 3.5-1.3 5.3-1.9.9-.3 1.8-.6 2.7-1 1.7-.6 3.4-1.2 5.1-1.9 1-.4 2.1-.8 3.2-1.2 1.6-.6 3.3-1.2 4.9-1.8 1-.4 2.1-.8 3.1-1.1 1.6-.6 3.3-1.2 4.9-1.8l3.3-1.2c1.6-.6 3.2-1.2 4.8-1.7 1.2-.5 2.5-.9 3.7-1.4 1.4-.5 2.9-1 4.3-1.6 1.3-.5 2.7-1 4-1.5 1.5-.5 3-1.1 4.5-1.6 1.3-.5 2.5-.9 3.8-1.4 1.5-.5 3-1.1 4.6-1.6 1.3-.5 2.6-1 4-1.4 1.5-.5 3-1.1 4.5-1.6l4.2-1.5c1.4-.5 2.8-1 4.1-1.5 1.5-.5 3.1-1.1 4.6-1.6 1.3-.5 2.7-1 4-1.4 1.5-.5 3.1-1.1 4.6-1.6 1.3-.5 2.7-1 4-1.4 1.6-.6 3.2-1.1 4.7-1.7 1.3-.5 2.7-.9 4-1.4 1.6-.6 3.3-1.2 4.9-1.7 1.3-.5 2.6-.9 3.9-1.4 1.6-.6 3.3-1.2 4.9-1.7 1.3-.5 2.6-.9 3.9-1.4 1.8-.6 3.5-1.2 5.3-1.9 1.1-.4 2.3-.8 3.4-1.2 1.8-.6 3.7-1.3 5.5-1.9l3.6-1.2c1.8-.6 3.6-1.3 5.4-1.9 1.2-.4 2.4-.8 3.6-1.3 1.9-.6 3.7-1.3 5.6-1.9 1.2-.4 2.3-.8 3.5-1.2 1.8-.6 3.7-1.3 5.5-1.9 1.2-.4 2.5-.9 3.7-1.3 1.8-.6 3.6-1.3 5.5-1.9 1.2-.4 2.4-.8 3.7-1.3 1.9-.7 3.8-1.3 5.7-2 1.1-.4 2.3-.8 3.4-1.2l6-2.1c1-.4 2.1-.7 3.1-1.1 2.1-.7 4.1-1.4 6.2-2.1 1.1-.4 2.1-.7 3.2-1.1 2.1-.7 4.2-1.4 6.3-2.2 1-.3 2-.7 2.9-1 2.2-.7 4.3-1.5 6.5-2.2 1-.3 2-.7 3-1 2.1-.7 4.2-1.4 6.4-2.2 1.1-.4 2.1-.7 3.2-1.1l6.3-2.1c1-.3 2.1-.7 3.1-1 2.2-.8 4.5-1.5 6.7-2.3l2.7-.9c2.3-.8 4.5-1.5 6.8-2.3.9-.3 1.9-.6 2.8-.9 2.2-.7 4.4-1.5 6.6-2.2 1-.3 2.1-.7 3.1-1.1 2.2-.7 4.4-1.5 6.6-2.2 1-.3 2-.7 3-1 2.3-.8 4.5-1.5 6.8-2.3 1-.3 2-.6 2.9-1 2.3-.8 4.5-1.5 6.8-2.3 1-.3 1.9-.6 2.9-1 2.3-.8 4.6-1.5 7-2.3.9-.3 1.9-.6 2.8-.9 2.3-.8 4.7-1.5 7.1-2.3.9-.3 1.8-.6 2.8-.9 2.3-.8 4.7-1.5 7-2.3.9-.3 1.9-.6 2.8-.9 2.3-.8 4.7-1.5 7-2.3l2.9-.9c2.4-.8 4.8-1.5 7.1-2.3l2.7-.9c2.4-.8 4.8-1.5 7.2-2.3.9-.3 1.8-.6 2.8-.9 2.3-.7 4.7-1.5 7-2.2 1-.3 2-.6 3-1 2.3-.7 4.6-1.5 6.9-2.2 1.1-.3 2.1-.7 3.2-1 2.4-.8 4.8-1.5 7.2-2.3l2.7-.9c2.5-.8 5-1.6 7.4-2.3.9-.3 1.7-.5 2.6-.8 2.5-.8 4.9-1.5 7.4-2.3.9-.3 1.8-.6 2.7-.8 2.4-.8 4.8-1.5 7.2-2.3.9-.3 1.9-.6 2.8-.9 2.5-.8 4.9-1.5 7.4-2.3.9-.3 1.7-.5 2.6-.8 2.4-.8 4.9-1.5 7.3-2.3.9-.3 1.9-.6 2.8-.9 2.5-.8 4.9-1.5 7.4-2.3.9-.3 1.8-.5 2.7-.8 2.4-.7 4.8-1.5 7.2-2.2l3-.9 7-2.1c1-.3 2.1-.6 3.1-1 2.4-.7 4.8-1.4 7.1-2.2l3-.9c2.4-.7 4.8-1.5 7.3-2.2l2.9-.9 7.2-2.1 3-.9c2.4-.7 4.9-1.5 7.3-2.2.9-.3 1.9-.6 2.8-.8 2.5-.7 4.9-1.4 7.4-2.2.9-.3 1.9-.6 2.8-.8l7.1-2.1 3.2-.9c2.2-.6 4.4-1.3 6.6-1.9 1.2-.4 2.4-.7 3.6-1.1 2.3-.7 4.5-1.3 6.8-2 1.1-.3 2.2-.6 3.4-1 2.2-.6 4.4-1.3 6.6-1.9 1.2-.3 2.4-.7 3.6-1 2.2-.6 4.4-1.2 6.5-1.9 1.2-.3 2.4-.7 3.6-1 2.2-.6 4.4-1.2 6.6-1.9 1.2-.3 2.4-.7 3.6-1 2.2-.6 4.5-1.3 6.7-1.9 1.2-.3 2.3-.6 3.5-1 2.1-.6 4.1-1.2 6.2-1.7 1.3-.4 2.7-.8 4-1.1 1.9-.5 3.9-1.1 5.8-1.6l4.4-1.2c1.7-.5 3.5-.9 5.2-1.4s3.4-.9 5-1.4c1.4-.4 2.8-.7 4.1-1.1 2-.5 4-1.1 6-1.6 1-.3 2-.5 3-.8 19.2-5.2 38.4-10.2 57.4-15.1-21.3-47.2-31.5-104.5-42.9-169m568.4-1254.5c-77.1 55.1-114.6 112.4-143.2 193.9-24.3 69.2-16.4 145.9 15.3 205.9 10.6 20 23.8 38.2 39.3 53.7l17-66.8c-31.9-59.5-20.9-84.8-20.9-84.8l18.2 14 24.8 19.1 37.5-71.6c-8.4-23.5-10.3-42.4-10.2-54.7v-3.1c.3-8.3 1.4-12.8 1.4-12.8l46.3 33c6.7-5.8 13.4-10.8 20-15.1 32.8-21.5 60.5-24.6 60.5-24.6s-68.3 84.8-60.6 198.3c1 14.8 3.3 28.9 6.5 42 16.9 68.2 61 112.7 102.6 121l2.2-65c-26.4-29.7-26.4-77.1-26.4-77.1l32.6 18 3.8-26.8c-23.1-25.3-23.6-80.3-23.6-80.3l40 23.5 33.2-53.4c-7.7-37.5-3.3-71.6-3.3-71.6l38.6 37.5c.9-.4 1.8-.8 2.8-1.2 5.3-2.3 11.8-4.9 19.1-7.6 15-5.7 33.3-12.1 51.5-18-2.4 1.9-4.8 4-7.1 6.1-.9.9-1.9 1.8-2.8 2.7l-.6.6c-7.8 7.8-14.8 16.7-20.6 26.3-.7 1.1-1.3 2.2-1.9 3.4-.2.3-.3.5-.5.8-.4.8-.8 1.6-1.2 2.3-.3.6-.7 1.3-1 1.9-.1.2-.2.5-.3.7-2.7 5.5-4.9 11.3-6.7 17.2-6 20.4-3.5 42.8 6.5 61.9 11.3 21.7 32.3 39.3 61.2 45.5.7.1 1.4.3 2 .4.9.2 1.9.4 2.8.5l2.1.3c.9.1 1.8.3 2.6.4.7.1 1.4.1 2.1.2.8.1 1.7.2 2.5.2.7 0 1.4.1 2 .1.8 0 1.6.1 2.4.1h3.8c1.2 0 2.3-.1 3.4-.2h.3c1.2-.1 2.4-.3 3.6-.4.4-.1.7-.1 1.1-.2.8-.1 1.6-.3 2.4-.4l1.3-.3c.7-.2 1.4-.3 2.1-.5.4-.1.9-.2 1.3-.4l2-.6c.4-.1.8-.3 1.2-.4.7-.2 1.3-.5 2-.7.4-.1.7-.3 1.1-.4.8-.3 1.5-.6 2.2-1 .3-.1.5-.2.8-.3 1-.5 1.9-.9 2.9-1.4.2-.1.3-.2.5-.3.8-.4 1.5-.8 2.3-1.3.3-.2.6-.4.9-.5l1.8-1.2.9-.6c.6-.4 1.1-.8 1.6-1.2.3-.2.6-.5.9-.7l1.6-1.3c.3-.2.5-.4.8-.7.6-.5 1.2-1 1.7-1.5.2-.2.4-.4.6-.5 1.5-1.4 3-2.9 4.4-4.5.1-.2.3-.3.4-.5.6-.6 1.1-1.2 1.6-1.9.2-.2.4-.5.6-.7.5-.6.9-1.2 1.4-1.7.2-.3.4-.5.6-.8.4-.6.9-1.2 1.3-1.8.2-.2.4-.5.5-.7l1.3-1.9c.1-.2.3-.4.4-.6.5-.8 1.1-1.6 1.6-2.5l.1-.1c1.1-1.8 2.1-3.6 3.1-5.5l.3-.6c.4-.7.7-1.4 1.1-2.1.1-.3.3-.5.4-.8.3-.7.6-1.3.9-2 .1-.3.3-.6.4-.8.3-.7.6-1.3.9-2 .1-.3.2-.5.3-.8.3-.7.6-1.5.9-2.2.1-.2.2-.4.2-.6.4-.9.7-1.9 1.1-2.8.6-1.5 1-3 1.5-4.5.2-.5.4-1 .5-1.5.1-.2.1-.5.2-.8 8.9-30.4 3.4-65.5-7.8-91.6 0 .1.1.1.1.2v-.1c65.4 81.9 161 227.7 219.1 360.4 5.6-7.6 10.5-15.3 13.7-22.9 5.4-12.7 20.1-42.3 50.4-71.8-6.3-11.8-13.1-23.8-20.2-36-.1-.2-.2-.4-.4-.6-1.6-2.8-3.3-5.5-5-8.3-.3-.4-.5-.9-.8-1.3-1.6-2.7-3.2-5.3-4.9-8-.3-.6-.7-1.1-1-1.7-1.6-2.6-3.3-5.2-4.9-7.9-.4-.6-.7-1.2-1.1-1.7-1.7-2.7-3.4-5.3-5.1-8-.3-.5-.6-1-1-1.5-1.8-2.8-3.6-5.6-5.5-8.4-.1-.1-.2-.3-.3-.5-8-12-16.5-24.2-25.4-36.5-.5-.6-.9-1.3-1.4-1.9-1.7-2.4-3.5-4.7-5.3-7.1-.8-1-1.5-2.1-2.3-3.1-1.7-2.2-3.3-4.4-5-6.6-.9-1.2-1.9-2.4-2.8-3.7-1.6-2.1-3.3-4.2-4.9-6.3-1-1.3-2.1-2.6-3.1-3.9-1.6-2.1-3.3-4.1-4.9-6.2-1.1-1.4-2.2-2.8-3.3-4.1-1.7-2-3.3-4.1-5-6.1-1.2-1.4-2.4-2.8-3.5-4.2l-5.1-6-3.7-4.3c-1.7-2-3.4-4-5.2-6-1.2-1.4-2.5-2.8-3.7-4.2-6.3-7.1-12.7-14.3-19.4-21.4l-4.7-5c-1.7-1.8-3.4-3.5-5-5.3-1.6-1.7-3.3-3.4-4.9-5.2-1.7-1.7-3.4-3.5-5.1-5.2s-3.4-3.5-5.1-5.2l-5.2-5.2c-1.8-1.8-3.6-3.5-5.3-5.3-1.7-1.7-3.5-3.4-5.3-5.1-1.8-1.8-3.7-3.6-5.6-5.3-1.8-1.7-3.6-3.4-5.3-5.1-1.9-1.8-3.9-3.6-5.8-5.4-1.8-1.7-3.6-3.3-5.4-5-2-1.9-4.1-3.7-6.2-5.6-1.8-1.6-3.5-3.2-5.3-4.8-2.2-2-4.5-4-6.8-6l-5-4.4c-3.1-2.7-6.2-5.4-9.4-8-.9-.7-1.7-1.5-2.6-2.2-.6-.6-1.1-1-1.6-1.6h.1c3.2-.1 6.3-.1 9.5-.1h7.2c1.5 0 2.9.1 4.4.1.5 0 1 0 1.5.1 1.4.1 2.9.1 4.3.2.4 0 .9.1 1.3.1l4.4.3h.5c4.5.4 8.9.8 13.2 1.4l2.2.3c.9.1 1.8.3 2.7.4s1.7.3 2.5.4 1.6.3 2.4.4c.9.2 1.8.3 2.7.5.8.1 1.5.3 2.2.5l2.7.6c.7.2 1.4.3 2.1.5.9.2 1.8.4 2.7.7.6.2 1.3.3 1.9.5.9.2 1.8.5 2.7.8.6.2 1.2.3 1.8.5.9.3 1.9.6 2.8.9.5.2 1 .3 1.6.5 1 .3 2 .7 3 1 .4.1.8.3 1.2.4 1.4.5 2.7 1 4.1 1.6l19.8-24.1 15.5-18.9s7.8 19.9 9.7 43.2c.6 8.2.6 16.8-.9 25.1l12.8 13.5 10.3 10.8 47.4-36.4s5.5 44.6-9.4 74.4l2 2.3 16.2 19.2 22.5-20.4 13.9-12.6s-2.1 14.4-4.3 31.7c-1.6 13.1-3.3 27.9-4 39.3l11.6 38c16.5-22.7 26-46.7 30.3-72.7.8-4.9 1.5-9.9 1.9-14.9 0-.3.1-.6.1-.9.4-4.4.7-8.9.8-13.5.1-3.7.2-7.4.2-11.2v-1.1c-.4-47.5-12.1-101.4-25.1-165h.3s.1 0 .1.1c.1 0 .2.1.4.2.1 0 .1.1.2.1l.6.3c.1 0 .1.1.2.1.2.1.5.3.7.4.1.1.2.1.3.2.3.1.5.3.8.5.1.1.3.2.4.3.3.2.6.3.9.5.2.1.4.2.6.4.3.2.6.3.9.5s.6.3.9.5.5.3.8.5c.4.2.8.5 1.2.7.2.1.4.3.6.4.5.3 1 .6 1.4.9l.6.3c.5.3 1.1.7 1.6 1 .2.1.3.2.5.3.6.4 1.2.7 1.8 1.1.2.1.3.2.5.3.7.4 1.4.9 2.1 1.3.1.1.2.1.3.2.7.5 1.5.9 2.3 1.4.1.1.2.1.2.2.7.5 1.5.9 2.2 1.4.1.1.3.2.4.3.7.4 1.4.9 2.2 1.4.2.1.3.2.5.3.6.4 1.3.8 2 1.2l.9.6 1.7 1.1c.4.2.7.5 1.1.7l1.5.9 1.5.9c.4.2.7.5 1.1.7l1.8 1.2.9.6c.7.4 1.4.9 2.1 1.3.2.1.3.2.5.3.8.5 1.6 1.1 2.4 1.6 0 0 .1 0 .1.1 9.4 6.2 18.7 12.5 25.7 17.7 1.8-2.2 4-4.8 6.3-7.6 6.7-8.1 14.7-18 19.5-23.9 2.6-3.2 4.2-5.2 4.2-5.2s.8 1.5 1.9 4.2c3.7 8.6 11.2 29 10 49.9-.1 2.5-.4 4.9-.8 7.4l18.6 24.4 34.1 44.7c7.1-24.1 17.1-66.2 10.2-111.2-3.9-25.6-13.2-52.1-31.5-76.9-30.3-40.8-67-65.7-110-88.4-14.9-7.9-30.5-15.5-46.9-23.4v-.1c-.6-2.4-1.2-4.8-1.8-7.1-.1-.3-.2-.6-.2-.9a123 123 0 0 0-2.4-7.6c-.7-2.1-1.5-4.1-2.3-6.1-.1-.4-.3-.7-.4-1.1-.8-2-1.6-4-2.5-5.9a3 3 0 0 0-.4-.8c-.9-2-1.9-3.9-2.9-5.8 0-.1-.1-.1-.1-.2-1-1.9-2-3.7-3.1-5.5-.1-.2-.2-.4-.4-.6-1-1.7-2.1-3.4-3.2-5.1-.2-.3-.4-.6-.6-.8-1.1-1.6-2.2-3.2-3.3-4.7-.2-.3-.4-.5-.6-.8-1.2-1.5-2.3-3-3.6-4.4l-.6-.6c-1.3-1.5-2.6-2.9-3.9-4.3l-.2-.2c-1.3-1.4-2.6-2.7-4-4l-.4-.4c-1.3-1.3-2.7-2.5-4.1-3.7-.2-.2-.5-.4-.7-.6-1.4-1.2-2.7-2.3-4.1-3.4-.3-.2-.5-.4-.8-.6-1.4-1.1-2.8-2.1-4.3-3.1-.2-.2-.5-.3-.7-.5l-4.5-3c-.1-.1-.3-.2-.4-.3-1.5-.9-3-1.8-4.6-2.7-.2-.1-.3-.2-.5-.3-1.5-.9-3.1-1.7-4.7-2.5-.3-.1-.6-.3-.9-.4-1.5-.8-3.1-1.5-4.6-2.2-.3-.1-.7-.3-1-.4-1.5-.7-3.1-1.4-4.7-2-.3-.1-.6-.3-.9-.4-1.6-.6-3.2-1.3-4.8-1.9-.2-.1-.5-.2-.7-.2-1.6-.6-3.2-1.1-4.7-1.6-.2-.1-.4-.1-.6-.2l-4.9-1.5-1-.3c-1.6-.4-3.2-.9-4.8-1.3l-1.2-.3c-1.6-.4-3.2-.8-4.7-1.1-.4-.1-.8-.2-1.1-.2-1.6-.3-3.2-.7-4.8-1-.3-.1-.6-.1-.9-.2-1.5-.3-3.1-.5-4.6-.8-.2 0-.5-.1-.7-.1-1.6-.2-3.2-.5-4.8-.7-.4 0-.7-.1-1.1-.1-1.6-.2-3.1-.4-4.7-.5-.4 0-.8-.1-1.2-.1-1.5-.1-3.1-.3-4.6-.4-.4 0-.8-.1-1.2-.1l-4.6-.3h-1c-1.5-.1-2.9-.1-4.3-.2h-6.3c-2.9 0-5.9.1-8.7.2h-.4c-2.9.1-5.8.3-8.6.5h-.1v-.1c0-.6-.1-1.2-.2-1.8 0-.1 0-.3-.1-.4-.1-.6-.2-1.2-.3-1.9 0-.2-.1-.3-.1-.5-.1-.6-.2-1.3-.4-1.9 0-.1-.1-.3-.1-.4-.1-.6-.3-1.2-.5-1.8 0-.1-.1-.3-.1-.4l-.6-2c-.1-.2-.1-.4-.2-.5-.2-.7-.5-1.4-.7-2-.1-.2-.1-.3-.2-.5-.3-.7-.6-1.3-.9-2 0-.1-.1-.2-.1-.3-.3-.7-.7-1.4-1-2.1-.1-.2-.2-.3-.3-.5l-1.2-2.1c-.1-.2-.2-.4-.3-.5-.4-.7-.9-1.4-1.4-2.1-.1-.1-.2-.2-.3-.4l-1.4-2c-.1-.1-.2-.3-.3-.4-.5-.7-1.1-1.4-1.7-2.1-.2-.2-.3-.4-.5-.5-.6-.7-1.2-1.4-1.9-2.1-.1-.2-.3-.3-.4-.5-.7-.7-1.4-1.3-2.1-2-.1-.1-.2-.1-.2-.2l-2.4-2.1c-.2-.2-.4-.3-.5-.5-.8-.7-1.7-1.3-2.5-2-.2-.2-.4-.3-.6-.5-.9-.7-1.9-1.3-2.8-2-.1-.1-.3-.2-.4-.3-.9-.6-1.9-1.2-2.9-1.8l-.6-.3-3.3-1.8c-.3-.1-.5-.3-.8-.4-1.1-.6-2.3-1.2-3.5-1.7-.2-.1-.5-.2-.7-.3-1.2-.5-2.5-1.1-3.8-1.6-.1 0-.2-.1-.3-.1-1.4-.5-2.8-1.1-4.2-1.6l-.9-.3c-1.4-.5-2.9-1-4.4-1.4l-1-.3c-1.5-.5-3.1-.9-4.8-1.3-.2-.1-.4-.1-.6-.1l-4.8-1.2c-.3-.1-.6-.1-.9-.2-1.7-.4-3.5-.7-5.3-1.1-.4-.1-.8-.1-1.2-.2-1.8-.3-3.7-.6-5.6-.9-.3-.1-.7-.1-1.1-.1-1.9-.3-3.9-.5-5.9-.8-.2 0-.3 0-.5-.1l-6.5-.6c-.4 0-.9-.1-1.3-.1-2.2-.2-4.4-.3-6.6-.5-.5 0-.9 0-1.4-.1l-7.2-.3h-.7c-2.4-.1-4.8-.1-7.3-.1h-6.9c-1.9 0-3.9.1-5.8.1-.5 0-1.1 0-1.6.1-1.5.1-3 .1-4.5.2-.7 0-1.4.1-2.1.1-1.4.1-2.8.1-4.2.2-.8 0-1.5.1-2.3.1l-4.3.3c-.8.1-1.5.1-2.3.2-1.5.1-3.1.3-4.6.4-.7.1-1.4.1-2 .2-1.8.2-3.6.4-5.5.5-.5 0-.9.1-1.4.1-2.4.3-4.8.5-7.2.8-130 15.4-114.6 101.4-116.8 141-.1-.1-.3-.2-.4-.3-1.1-.8-2.1-1.7-3.2-2.5l-1.2-.9c-1.1-.8-2.2-1.6-3.3-2.5-.2-.1-.4-.3-.5-.4-1.2-.9-2.5-1.8-3.8-2.7-.4-.3-.8-.5-1.2-.8-1.1-.8-2.2-1.5-3.3-2.3-.2-.2-.5-.3-.7-.5-1.3-.9-2.6-1.7-4-2.6-.4-.2-.8-.5-1.1-.7-1.1-.7-2.3-1.4-3.4-2.1-.3-.2-.6-.4-.9-.5l-4.2-2.4c-.4-.2-.8-.4-1.2-.7-1.2-.6-2.3-1.3-3.5-1.9-.3-.2-.7-.4-1-.5-1.4-.8-2.9-1.5-4.3-2.2l-1.2-.6c-1.2-.6-2.4-1.1-3.6-1.7-.4-.2-.8-.4-1.2-.5-1.5-.7-3-1.3-4.5-2-.4-.2-.8-.3-1.2-.5-1.2-.5-2.5-1-3.8-1.5-.4-.2-.9-.3-1.3-.5-1.6-.6-3.1-1.1-4.7-1.7-.4-.1-.7-.2-1.1-.4-1.3-.4-2.6-.9-4-1.3-.5-.1-.9-.3-1.4-.4-1.6-.5-3.3-1-4.9-1.4-.3-.1-.6-.2-1-.2-1.4-.4-2.9-.7-4.3-1-.5-.1-1-.2-1.4-.3-1.7-.4-3.4-.7-5.2-1.1-.2 0-.5-.1-.7-.1-1.6-.3-3.1-.5-4.7-.8-.5-.1-1-.1-1.5-.2-1.8-.3-3.6-.5-5.5-.7h-.3c-1.7-.2-3.5-.3-5.3-.5-.5 0-1-.1-1.4-.1l-5.7-.3h-.1c-2-.1-3.9-.1-5.9 0h-1.3c-2 0-4 .1-6 .2h-.1c-2 .1-4 .3-6 .4-.4 0-.8.1-1.2.1-2 .2-4.1.4-6.2.7-.2 0-.4.1-.7.1l-5.8.9c-.4.1-.8.1-1.2.2l-6.3 1.2c-.3.1-.7.2-1 .2-1.9.4-3.9.9-5.9 1.4-.3.1-.6.2-1 .2q-3.3.75-6.6 1.8c-.4.1-.9.3-1.3.4-2.1.6-4.2 1.3-6.3 2-.2.1-.4.1-.6.2-2.3.7-4.5 1.6-6.8 2.4-.5.2-.9.4-1.4.5-2.3.9-4.6 1.8-7 2.7-15 6.2-28.3 15.6-38.5 27.4-.1.2-.3.3-.4.5-.1.1-.1.1-.1.2-11 13-18.3 28.8-20.4 46.7-.3 2.3-.4 4.6-.5 6.9v.9c-.7 3.3-.6 7.4-.2 11.5M3839 1166.2c1-10.8-18.7-24.5-51.2-31-3.6-.7-8.7-1.9-15.3-3.4-47-10.9-172.2-40.6-393.4-58.4-25.8 10.6-81.1 32.6-148.5 59.4-88.4 35.2-198.4 79-290.5 116.3-48.1 19.5-96.7 41.1-142.9 62.3 17.7-2.9 35.4-5.7 53-8.5.3 0 .6-.1.9-.1l9.6-1.5c.4-.1.9-.1 1.3-.2l9.5-1.5c.5-.1.9-.1 1.4-.2 3-.5 6.1-.9 9.1-1.4l1.9-.3c3-.5 5.9-.9 8.9-1.4l1.9-.3c3-.5 5.9-.9 8.9-1.4l1.8-.3c3-.5 6-.9 9-1.4l1.7-.3c3.1-.5 6.1-.9 9.2-1.4.5-.1 1-.1 1.4-.2 3.2-.5 6.3-.9 9.5-1.4.2 0 .5-.1.7-.1l10.1-1.5h.1c53.1-7.8 105.7-15.1 157.1-21.9 172.6-22.8 332.6-40.3 459.4-54.3h.2c2.2-.2 4.3-.5 6.4-.7l3.1-.3c1.5-.2 3-.3 4.5-.5 1.3-.1 2.6-.3 3.9-.4l3.2-.3c1.5-.2 3.1-.3 4.6-.5l2.8-.3 5-.6c.5-.1 1.1-.1 1.6-.2l13.1-1.5c.4 0 .7-.1 1.1-.1 97.7-10.9 170.4-19.5 206.1-27 12.9-2.6 19.2-7.5 19.8-13.2m-1454.4-100c3.6-12.5 7.2-25.4 10.4-38.2v-.1l1.5-6.3v-.1c.5-2.1 1-4.2 1.4-6.2 1.4-6.2 2.6-12.4 3.7-18.4 0-.1 0-.2.1-.3.3-1.9.6-3.8.9-5.6 0-.2.1-.3.1-.5.3-1.8.5-3.7.8-5.5 0-.2 0-.3.1-.5l.6-5.4v-.2c.4-3.7.6-7.2.8-10.7v-.3c.1-1.6.1-3.3.1-4.9v-.6c0-1.5 0-3.1-.1-4.6v-.6l-.3-4.4c0-.2 0-.4-.1-.5-.1-1.5-.3-2.9-.5-4.3v-.3c-.2-1.4-.5-2.8-.7-4.2v-.2c-.3-1.3-.6-2.6-1-3.9 0-.2-.1-.3-.1-.5-.4-1.2-.7-2.3-1.2-3.5-.1-.2-.1-.4-.2-.6-.4-1.1-.9-2.2-1.4-3.2-.1-.2-.2-.4-.3-.5-.5-1-1.1-2-1.7-3-.1-.1-.2-.3-.3-.4-.6-1-1.3-1.9-2-2.8l-.2-.2c-.7-.9-1.4-1.7-2.2-2.4l-.3-.3c-.8-.8-1.6-1.5-2.5-2.1-.2-.1-.3-.3-.5-.4l-2.7-1.8-.6-.3-3-1.5c-.2-.1-.4-.2-.7-.3-1.1-.4-2.2-.8-3.4-1.2-.2-.1-.4-.1-.6-.2-1.2-.3-2.4-.6-3.7-.9h-.2c-.4-.1-.8-.1-1.3-.2h-.3c-.3 0-.7 0-1-.1h-1c-.9 0-1.9.1-2.9.2-.1 0-.2 0-.3.1-1 .1-2 .3-3.1.6-.1 0-.2.1-.3.1l-3.2.9c-.1 0-.2.1-.3.1-1.1.4-2.3.8-3.5 1.3-.2.1-.3.1-.5.2-1.2.5-2.3 1-3.5 1.6l-.6.3-3.6 1.8c-.2.1-.5.2-.7.4-1.2.7-2.4 1.4-3.7 2.1-.3.1-.5.3-.8.4-1.2.7-2.5 1.5-3.8 2.3-.3.2-.5.3-.8.5-1.3.8-2.6 1.7-3.9 2.6l-.9.6c-1.3.9-2.6 1.8-4 2.8l-.9.6c-1.3 1-2.7 2-4.1 3-.3.2-.6.4-.9.7-1.4 1.1-2.8 2.1-4.2 3.2-.3.2-.6.4-.8.7-1.4 1.1-2.8 2.3-4.3 3.5-.3.2-.5.4-.8.7-1.5 1.2-2.9 2.4-4.4 3.7-.2.2-.5.4-.7.6l-4.5 3.9-.6.6c-1.5 1.4-3.1 2.8-4.7 4.2l-.5.5c-1.6 1.4-3.2 2.9-4.7 4.4-.1.1-.3.2-.4.4-1.6 1.5-3.1 3-4.7 4.5l-.5.5c-1.6 1.5-3.1 3-4.7 4.6-.2.2-.4.4-.7.6-1.5 1.5-3 3-4.6 4.5l-.8.8c-1.5 1.5-2.9 3-4.4 4.5l-.9.9c-1.4 1.5-2.9 2.9-4.3 4.4l-1 1c-1.4 1.5-2.8 2.9-4.2 4.4-.4.4-.7.8-1.1 1.1l-4 4.3c-.4.4-.8.9-1.2 1.3-1.3 1.4-2.6 2.8-3.8 4.2-.4.5-.8.9-1.2 1.4-1.2 1.4-2.5 2.8-3.7 4.1-.4.5-.9 1-1.3 1.5-1.2 1.3-2.4 2.7-3.6 4-.5.5-.9 1-1.4 1.6-1.1 1.3-2.3 2.6-3.4 3.9l-1.4 1.7c-1.1 1.2-2.1 2.5-3.2 3.7l-1.5 1.8c-.9 1.1-1.8 2.1-2.6 3.1-.6.8-1.3 1.5-1.9 2.3-.7.9-1.5 1.8-2.2 2.7s-1.5 1.8-2.2 2.7c-.6.8-1.3 1.6-1.9 2.3-.4.5-.8 1-1.1 1.4-7 8.9-15.7 20-25.2 32.2l-.9 1.2c-.5.6-1 1.3-1.5 1.9l-1.8 2.4c-.1.2-.2.3-.4.5-39.7 51.5-89.8 118.3-89.8 118.3s14.2-50.8 27.5-99.9c.4-1.4.7-2.8 1.1-4.2l1.8-6.6c.3-1.1.6-2.1.8-3.1 1.4-5 2.7-10 4-14.8.3-1 .5-2 .8-2.9l.9-3.4c9.1-34.2 32-95.8 41.5-133.9 3.9-15.5 5.5-27.1 3.1-31.4-3.3-5.9-5.1-12.1-6.5-18.4-.4-2-.8-4-1.2-6.1-1.7-9.3-3.1-18.6-7.2-26.7-.6-1.2-1.3-2.4-1.9-3.5-.3-.4-.5-.9-.8-1.3-.1-.1-.2-.3-.3-.4-.2-.4-.5-.7-.7-1-.1-.2-.3-.4-.4-.5-.2-.3-.5-.6-.7-.9-.2-.2-.3-.4-.5-.6-.2-.3-.4-.5-.7-.8l-.6-.6c-.2-.2-.4-.5-.7-.7l-.6-.6c-.2-.2-.4-.4-.7-.6-.2-.2-.4-.4-.7-.6-.2-.2-.4-.3-.7-.5-.2-.2-.5-.3-.7-.5s-.5-.3-.7-.4c-.3-.2-.5-.3-.8-.5-.2-.1-.5-.3-.7-.4-.3-.1-.5-.3-.8-.4-.2-.1-.5-.2-.7-.3-.3-.1-.6-.2-.8-.3s-.5-.2-.7-.3l-.9-.3c-.3-.1-.5-.1-.8-.2s-.6-.1-.9-.2c-.3 0-.5-.1-.8-.1s-.6-.1-1-.1c-.3 0-.5-.1-.8-.1h-2.4c-.4 0-.8 0-1.2.1-.2 0-.5 0-.7.1-.4 0-.8.1-1.2.1-.2 0-.5.1-.7.1-.4.1-.8.1-1.2.2-.2.1-.5.1-.7.2-.4.1-.8.2-1.3.3-.3.1-.5.1-.8.2-.4.1-.9.3-1.3.4-.3.1-.5.2-.8.3-.5.2-.9.3-1.4.5-.3.1-.5.2-.8.3-.5.2-1 .4-1.4.6-.3.1-.5.2-.8.3-.5.2-1 .5-1.5.7-.2.1-.5.2-.7.4-.5.3-1.1.6-1.6.8-.2.1-.5.3-.7.4-.6.3-1.2.7-1.8 1-.2.1-.4.2-.7.4-.6.4-1.3.8-1.9 1.2-.2.1-.4.2-.5.3-.7.5-1.5 1-2.2 1.5-.1.1-.2.2-.3.2-2.6 1.8-5.4 3.9-8.3 6.2-43.1 34.5-141.9 153.4-235.9 273.5-98.2 125.5-191 252.3-209.2 285-19.3 34.8-43.7 15.3-43.5 66.5.1 13.2 11.1 23.1 23.9 23.1 1.3 0 2.6-.1 4-.3 12-2 23.3-4.5 35.4-7.6 5.7-1.5 10.6-5 13.8-10 57-89.2 160-252.7 279-403.4.2-.2.3-.4.5-.6 5.2-6.6 10.4-13.1 15.7-19.6.1-.2.3-.4.4-.6 10.8-13.3 21.6-26.5 32.6-39.5l.2-.2c5.4-6.4 10.7-12.7 16.1-18.9.3-.3.5-.6.8-.9 5.3-6.2 10.7-12.3 16.1-18.3.2-.2.3-.4.5-.6 5.5-6.2 11.1-12.4 16.7-18.5-.4 1.1-.8 2.3-1.2 3.4l-2.1 5.7c-.5 1.5-1.1 3.1-1.6 4.6-.6 1.6-1.2 3.3-1.7 4.9-.6 1.6-1.1 3.3-1.7 4.9-.5 1.6-1.1 3.2-1.6 4.8-.6 1.7-1.1 3.4-1.7 5.1-.5 1.6-1 3.2-1.6 4.8-.6 1.8-1.2 3.5-1.7 5.3-.5 1.5-1 3-1.4 4.5-2.3 7.3-4.6 14.7-6.8 22.3l-.9 3-2.1 7.2c-.3 1-.6 2-.9 3.1l-2.1 7.5c-.2.9-.5 1.7-.7 2.6-.8 2.7-1.5 5.4-2.3 8.2a2510 2510 0 0 0-13.3 50c-2.5 9.7-4.9 19.3-7.3 28.8-10.3 41.4-19.7 96.7-24.7 128.6-3.3 20.8 5.1 42.2 22.8 53.6 5.3 3.4 11.1 5.7 16.9 5.7 1.6 0 3.2-.2 4.9-.6 46.3-11 88.1-70.5 158.6-171.9 16.4-23.6 32.2-44.9 46.5-63.5.2-.3.5-.6.7-.9 1.1-1.5 2.3-2.9 3.4-4.3.2-.2.3-.4.5-.6 3.5-4.5 6.8-8.8 10.1-12.9.2-.3.4-.5.6-.8 1-1.3 2.1-2.6 3.1-3.8.2-.2.4-.5.6-.7 3.1-3.9 6.1-7.5 8.9-11 .3-.3.5-.7.8-1 .8-1 1.7-2 2.5-3 .3-.4.7-.8 1-1.2 2.4-2.9 4.8-5.8 7-8.4.5-.6 1-1.2 1.5-1.7l1.6-1.9 1.8-2.1c.4-.5.8-.9 1.2-1.4 1-1.1 1.9-2.2 2.8-3.3.2-.2.3-.4.5-.6.8-1 1.6-1.9 2.4-2.8.2-.2.3-.4.5-.5 10.5-12.2 16.7-18.8 16.7-18.8s-7.2 23-19.4 57.5c-.1.3-.2.7-.4 1-.3.8-.6 1.7-.9 2.6-.2.5-.3.9-.5 1.4-.3.9-.6 1.7-.9 2.6-.3.7-.5 1.5-.8 2.2l-.9 2.4-.9 2.4c-.2.4-.3.8-.5 1.3-.3.9-.6 1.8-1 2.7-.1.3-.2.5-.3.8-.8 2.2-1.6 4.5-2.5 6.8-9.9 27-21.9 58.1-35.3 89.6-37.5 88.1-42.7 126.8-22.3 154.5 8.7 11.7 17.4 14.9 25.9 14.9 10.1 0 19.9-4.5 28.5-4.5 3.5 0 6.9.7 10 2.8 1.3.9 3.1 1.3 5.2 1.3 28.5 0 121.4-76.1 90.1-104.2-3.1-2.8-5.9-3.9-8.4-3.9-13 0-21.4 29.1-44.1 29.1-1.1 0-2.1-.1-3.2-.2-15.7-1.8-4.6-42.1 9.6-81.4 14.9-40.8 28.4-81.7 40.4-123.1" class="st0" style="fill:#fff;stroke-width:1.38889" transform="matrix(.72 0 0 .72 581.63 307.92)"/><path d="M1628.7 1558c.5-.1 1.1-.2 1.6-.4a724 724 0 0 1 14.2-3.2l2.4-.6c4.5-1 9-2.1 13.5-3.1l2.7-.6 13.3-3 2.5-.6c4.5-1 9-2 13.4-3l2.8-.6 13.3-3 2.7-.6c4.7-1.1 9.3-2.1 14-3.2l1.4-.3 14.9-3.3 1.2-.3c5.1-1.2 10.3-2.3 15.4-3.5.2 0 .3-.1.5-.1 273.4-61.2 544.4-117.8 679.3-147.9a110 110 0 0 1-14.9-42.5c-4.4-33.4 6-66.9 28.5-92 13.5-15.1 30.5-31.5 50.2-50.4 31.1-30 71.7-69 121.2-125h-.3c-24.5 1.4-48.4 2.8-71.8 4.2-48.4 2.8-94.4 5.6-138.2 8.2-.7 2.5-1.5 5-2.2 7.4-5.4 18.3-33.7 101.4-40.3 120.8 3.6-1.1 7.6-1.8 11.9-1.8 7.4 0 18.5 2.1 29.6 12 16.7 15 21.4 37.9 12.4 61.3-10.7 28-38.1 52.7-53.5 65-15.6 12.5-45.5 33.3-70.2 33.3-6.2 0-12.2-1.3-17.5-3.7-1.2.3-2.5.6-3.6.8-6.1 1.5-13.7 3.3-22.7 3.3-14.1 0-34.5-4.8-51.5-27.9-29.1-39.5-20.5-88.4 8.7-161.6-65.4 93.7-107.9 150.2-162.5 163.2-4 .9-8.1 1.4-12.2 1.4-11.5 0-22.9-3.6-34-10.7-27.9-17.8-42.4-51.3-37.1-85.3 4.8-30.5 14.5-88.2 25.3-131.3 1.5-6.1 3.1-12.3 4.7-18.6-.3 0-.7.1-1 .1l-8.3.6c-105.7 136-197.6 280.2-253.6 367.9-3.4 5.3-6.6 10.4-9.7 15.3a54.8 54.8 0 0 1-32.6 23.7c-14.5 3.8-26.3 6.3-38.2 8.3-3 .5-6.1.7-9.1.7-30.5 0-55.5-24.6-55.7-54.8-.1-20.1 3.1-34.9 10-46.7 7.6-12.8 18-19.2 24.9-23.4 6.1-3.7 8.9-5.4 12.6-12 18.1-32.6 101.9-147.4 193.7-265.7h-.4c-101.5 9.3-190 19.2-278.7 30.6.3 19.3.8 37.5 1.6 53.9 12.8 4.7 24.3 11.3 33.9 19.5 17.4 14.8 27.5 34.1 28.5 54.4 1.2 25.7-7.7 47.5-25.9 63.1-8.7 7.5-18.4 12.7-27.6 16.7 4.3 78.8 12.3 140.4 33.7 202.3 5.5-1.3 11.1-2.6 16.7-3.8.1 0 .2 0 .3-.1 5.5-1 10.6-2.2 15.8-3.4" class="st0" style="fill:#fff;stroke-width:1.38889" transform="matrix(.72 0 0 .72 581.63 307.92)"/><path d="M2840.5 717.7c-.5-.5-1-1-1.5-1.4-.8-.8-1.7-1.5-2.5-2.2-.5-.5-1-.9-1.6-1.4-.9-.7-1.8-1.4-2.6-2.1-.6-.4-1.1-.9-1.7-1.3-.9-.7-1.8-1.3-2.8-2-.6-.4-1.2-.8-1.8-1.3-.9-.6-1.9-1.3-2.9-1.9-.6-.4-1.2-.8-1.9-1.2l-3-1.8c-.7-.4-1.3-.8-2-1.1-1-.6-2.1-1.1-3.1-1.6-.7-.4-1.4-.7-2.1-1.1-1.1-.5-2.1-1-3.2-1.5-.8-.3-1.5-.7-2.3-1-1.1-.5-2.2-.9-3.3-1.4-.8-.3-1.6-.7-2.4-1-1.1-.4-2.2-.8-3.4-1.2-.9-.3-1.7-.6-2.6-.9-1.1-.4-2.3-.7-3.4-1.1-.9-.3-1.8-.6-2.8-.8-1.1-.3-2.3-.6-3.5-.9-1-.3-2-.5-2.9-.8-1.2-.3-2.3-.5-3.5-.8-1-.2-2.1-.5-3.1-.7-1.2-.2-2.4-.5-3.5-.7l-3.3-.6c-1.2-.2-2.4-.4-3.6-.5-1.2-.2-2.4-.3-3.6-.5-1.2-.1-2.4-.3-3.6-.4-1.3-.1-2.5-.3-3.8-.4l-3.6-.3-4-.3c-1.2-.1-2.4-.1-3.6-.2-1.4-.1-2.8-.1-4.3-.1-1.2 0-2.4 0-3.5-.1h-6.1c-2.2 0-4.4.1-6.5.2-.5 0-1 0-1.5.1l-5 .3c-.6 0-1.1.1-1.7.1-1.7.1-3.4.3-5 .4-.4 0-.8.1-1.2.1-2.1.2-4.2.4-6.2.7h-.3c-1.9.2-3.8.5-5.7.8-.5.1-1 .2-1.5.2-1.5.2-3 .5-4.4.7l-1.6.3-4.9.9c-.3.1-.6.1-.8.2-1.9.4-3.8.8-5.7 1.3-.3.1-.5.1-.8.2-1.6.4-3.1.8-4.6 1.2-.5.1-1 .3-1.5.4-1.4.4-2.7.7-4.1 1.1-.5.1-.9.3-1.4.4l-5 1.5c-.1 0-.1 0-.2.1-1.8.6-3.5 1.2-5.2 1.8-.3.1-.6.2-1 .3-1.4.5-2.7 1-4.1 1.5-.4.2-.9.3-1.3.5l-3.9 1.5c-.3.1-.7.3-1 .4-3.2 1.4-6.4 2.8-9.5 4.2-.3.1-.6.3-.9.4-1.2.6-2.5 1.2-3.7 1.8-.3.2-.7.3-1 .5-1.3.7-2.6 1.3-3.8 2l-.6.3c-3 1.6-5.9 3.3-8.7 5-.2.1-.5.3-.7.4-1.2.7-2.3 1.5-3.5 2.2-.2.2-.5.3-.7.5-4.1 2.7-8.1 5.4-11.8 8.3-.2.1-.3.2-.5.4-1.1.9-2.3 1.7-3.4 2.6l-.3.3c-3.7 2.9-7.3 5.9-10.7 9l-.2.2c-4.5 4.1-8.8 8.3-12.7 12.5-18.4 19.7-30.3 39.8-36.5 54.5-6.7 15.8-17.7 30.5-29 44v.1c-6.4 7.6-12.9 14.7-18.8 21.4-.6.7-1.3 1.4-1.9 2.1-.4.4-.8.9-1.1 1.3l-2 2.3c-.3.4-.7.8-1 1.1-.8.9-1.6 1.8-2.3 2.8-.2.2-.3.4-.5.6-.9 1.1-1.8 2.2-2.6 3.3-.2.2-.3.4-.5.6-.7.9-1.3 1.7-1.9 2.5l-.6.9c-.6.8-1.1 1.5-1.6 2.3-.2.3-.4.5-.6.8-.6 1-1.2 1.9-1.8 2.8l-.1.1c-.6 1-1.1 1.9-1.6 2.9-.1.2-.2.4-.3.7-.4.7-.7 1.4-1 2.1-.1.3-.2.6-.3.8-.3.7-.5 1.3-.7 1.9-.1.3-.2.5-.2.8l-.6 2.6c-.1.7-.2 1.4-.2 2.1v2.8c0 .5 0 .9.1 1.4 0 .2 0 .5.1.7.1.5.1 1 .2 1.6 0 .2 0 .3.1.5.1.7.3 1.4.4 2 0 .1.1.3.1.4.1.5.3 1.1.4 1.6.1.2.1.4.2.7.1.4.3.9.5 1.3.1.2.2.5.3.7.2.4.4.9.6 1.3l.3.6c.3.6.6 1.1.9 1.7 0 .1.1.1.1.2.3.6.7 1.2 1.1 1.8.1.2.2.3.3.5l.9 1.2c.1.2.3.4.4.6.3.4.6.7.9 1.1.2.2.3.4.5.6.3.4.7.8 1 1.2l.4.4 1.5 1.5c.1.1.2.2.3.2.4.4.9.8 1.4 1.2.2.2.4.3.6.5l1.2.9c.2.2.4.3.6.5.4.3.8.6 1.2.8.2.1.4.3.6.4l1.5.9c.1.1.3.2.4.2.6.4 1.3.7 1.9 1l.6.3c.5.2.9.4 1.4.6.3.1.5.2.8.3.4.2.9.3 1.3.5.3.1.5.2.8.3.5.2.9.3 1.4.4.2.1.5.1.7.2.7.2 1.4.4 2.2.5.1 0 .2 0 .4.1.6.1 1.2.2 1.9.3.3 0 .6.1.8.1.5.1 1 .1 1.4.2.3 0 .6.1.9.1.5 0 1 .1 1.4.1h1.7c.9 0 1.8-.1 2.7-.1.3 0 .5 0 .8-.1 1.1-.1 2.2-.3 3.3-.5.2 0 .3-.1.5-.1 1-.2 1.9-.4 2.9-.7l.9-.3a28 28 0 0 0 5.5-2.2c.2-.1.4-.3.7-.4.5-.3 1.1-.7 1.6-1 .2-.2.5-.3.7-.5.7-.5 1.4-1.1 2.2-1.6.3-.3.6-.5 1-.8.5-.4.9-.8 1.4-1.2.4-.4.8-.7 1.3-1.1.4-.3.8-.7 1.1-1.1 1.2-1.1 2.3-2.2 3.6-3.5 20.2-20.3 49.1-59.4 88.6-81.6.2-.1.3-.2.5-.3 1.6-.9 3.3-1.8 5-2.6.3-.2.7-.3 1-.5 1.5-.8 3.1-1.5 4.7-2.2.5-.2 1-.5 1.6-.7 1.4-.6 2.9-1.2 4.3-1.8.7-.3 1.4-.5 2.1-.8 1.3-.5 2.6-1 4-1.4.9-.3 1.9-.6 2.8-.9 1.2-.4 2.4-.7 3.5-1.1l3.6-.9c1-.2 1.9-.5 2.9-.7 2-.4 3.9-.8 5.9-1.1.3 0 .5-.1.8-.1 3.5-.5 6.8-.9 10.1-1.2.2 0 .4 0 .6-.1 1.4-.1 2.7-.2 4-.2.4 0 .7-.1 1.1-.1 1.2-.1 2.4-.1 3.6-.1h1.5c3.1 0 6 .1 8.9.4.2 0 .5.1.7.1 1.2.1 2.4.2 3.5.4.4 0 .7.1 1.1.2 1 .1 2 .3 2.9.5.4.1.8.2 1.3.2.9.2 1.8.4 2.6.6l1.3.3c.8.2 1.6.4 2.5.7.4.1.9.3 1.3.4.8.2 1.6.5 2.3.8.4.1.8.3 1.2.5.7.3 1.5.6 2.2.9.4.2.8.3 1.2.5.7.3 1.4.6 2.1 1 .4.2.7.4 1.1.6.7.4 1.4.7 2 1.1.3.2.7.4 1 .6.7.4 1.3.8 2 1.2l.9.6c.7.5 1.3.9 1.9 1.4.3.2.5.4.8.6.7.5 1.3 1.1 2 1.6.2.2.4.3.6.5.7.6 1.4 1.3 2.1 2l.3.3c2.4 2.4 4.5 5 6.4 7.8.6.9 1.2 1.8 1.7 2.8.1.2.2.3.3.5.5.8.9 1.6 1.4 2.5.1.2.2.5.3.7.4.8.8 1.6 1.1 2.4.1.3.2.6.4.8.3.8.7 1.6 1 2.4l.3.9c.3.8.6 1.6.8 2.4l.3 1c.2.8.5 1.6.7 2.4l.3 1 .6 2.5c.1.3.2.7.2 1 .2.9.3 1.7.5 2.6.1.3.1.7.2 1 .1.9.3 1.8.4 2.8 0 .3.1.7.1 1l.3 3c0 .3.1.6.1.9.1 1.1.1 2.2.2 3.3v.6c.1 1.3.1 2.6.1 3.9v.1c0 4.1-.2 8.4-.6 12.8v.3c-.1 1.3-.3 2.6-.5 4 0 .3-.1.6-.1.9-.2 1.2-.3 2.3-.5 3.5-.1.4-.1.8-.2 1.2l-.6 3.3-.3 1.4c-.2 1-.4 2.1-.6 3.2l-.3 1.5c-.2 1-.5 2.1-.7 3.1-.1.5-.3 1.1-.4 1.6-.3 1-.5 2.1-.8 3.1-.1.5-.3 1.1-.4 1.6l-.9 3.1c-.2.6-.3 1.1-.5 1.7-.3 1-.6 2.1-1 3.1-.2.6-.4 1.1-.5 1.7-.3 1.1-.7 2.1-1.1 3.2-.2.6-.4 1.1-.6 1.7l-1.2 3.3c-.2.5-.4 1.1-.6 1.6-.4 1.2-.9 2.3-1.4 3.5-.2.5-.4.9-.5 1.4-.5 1.3-1.1 2.7-1.7 4-.1.3-.2.6-.4.9-1.4 3.3-2.9 6.7-4.6 10.1-.1.2-.2.5-.3.7-.7 1.4-1.4 2.9-2.1 4.3-.2.5-.5 1-.8 1.5l-1.8 3.6-.9 1.8-1.8 3.3c-.4.7-.7 1.3-1.1 2-.6 1-1.2 2.1-1.7 3.1-.4.7-.8 1.4-1.2 2l-1.8 3c-.4.7-.8 1.4-1.3 2.1l-1.8 3c-.4.7-.9 1.4-1.3 2.1-.6 1-1.3 2-1.9 3-.5.7-.9 1.4-1.4 2.1-.7 1-1.3 2-2 3-.5.7-.9 1.4-1.4 2.1l-2.1 3c-.5.7-1 1.4-1.4 2.1-.7 1-1.5 2-2.2 3.1-.5.7-1 1.3-1.4 2-.8 1.1-1.6 2.1-2.4 3.2-.5.6-.9 1.2-1.4 1.9-.9 1.1-1.7 2.3-2.6 3.4-.4.5-.8 1.1-1.2 1.6-1 1.3-2.1 2.7-3.2 4-.3.3-.5.7-.8 1l-4.2 5.1c-100.2 119.5-168.6 173.7-206.6 216.2-27.2 30.4-28.4 76.3-3.9 105.9 1.1 1.3 2.2 2.5 3.3 3.7l1 1c.8.9 1.7 1.7 2.6 2.5.4.4.8.7 1.2 1.1.9.8 1.8 1.6 2.8 2.3l1.2.9 4.2 3c4.5 3 9.2 5.4 14 7.1.5.2 1.1.4 1.7.5.2 0 .4.1.6.1.4.1.9.2 1.3.2.2 0 .5.1.8.1.4 0 .9.1 1.4.1h3.3c.5 0 1.1 0 1.6-.1.3 0 .7-.1 1-.1.6-.1 1.2-.1 1.8-.2.3 0 .6-.1 1-.1l2.1-.3c.3 0 .6-.1.9-.2.8-.1 1.6-.3 2.4-.4.3-.1.5-.1.8-.2l2.7-.6c.2-.1.4-.1.7-.2 1-.2 2-.5 3.1-.8.2 0 .3-.1.5-.1 1.2-.3 2.3-.6 3.6-1 .1 0 .1 0 .2-.1 6.6-1.8 13.9-4.3 22-7.2 79.5-28.7 227.4-105.9 372.9-164.9 175.2-71.1 414.4-165.1 449.5-180.1 1.5-.7 3-1.3 4.5-2 .1-.1.2-.1.3-.2 1-.5 2-.9 3-1.4.6-.3 1.2-.6 1.8-.8.9-.4 1.7-.8 2.5-1.2.7-.3 1.4-.7 2-1 .8-.4 1.5-.8 2.2-1.1.7-.4 1.4-.7 2-1.1.7-.4 1.3-.7 2-1.1s1.3-.7 2-1.1c.6-.3 1.2-.7 1.8-1 .6-.4 1.3-.8 1.9-1.1.5-.3 1.1-.6 1.6-1l1.8-1.2c.5-.3.9-.6 1.4-.9.6-.4 1.2-.8 1.7-1.2.4-.3.8-.5 1.1-.8.6-.5 1.2-.9 1.8-1.4.3-.2.5-.4.8-.6.8-.7 1.6-1.3 2.3-1.9l.2-.2c.6-.6 1.2-1.1 1.7-1.7.2-.2.4-.4.5-.6.4-.4.7-.8 1.1-1.2.2-.2.3-.5.5-.7l.8-1.1c.2-.2.3-.5.4-.7.2-.3.4-.7.5-1 .1-.2.2-.5.3-.7l.3-.9c.1-.2.1-.4.2-.7s.1-.6.1-.9v-.6c0-.3-.1-.6-.1-.9 0-.2-.1-.4-.1-.6-.1-.3-.2-.6-.3-.8s-.1-.3-.2-.5l-.6-.9c-.1-.1-.2-.3-.3-.4-.4-.4-.8-.8-1.3-1.2-.1-.1-.3-.2-.4-.3-.4-.3-.8-.6-1.3-.8-.2-.1-.5-.2-.8-.4-.4-.2-.8-.4-1.3-.6-.3-.1-.7-.2-1-.4-.5-.2-.9-.3-1.4-.5l-1.2-.3c-.5-.1-1-.3-1.6-.4-.4-.1-.9-.2-1.4-.3l-1.8-.3c-.5-.1-1-.2-1.6-.3l-2-.3c-.6-.1-1.1-.1-1.8-.2s-1.4-.1-2.2-.2c-.6-.1-1.3-.1-1.9-.1-.8 0-1.6-.1-2.5-.1-.7 0-1.3-.1-2-.1h-4.9c-1.5 0-3.1 0-4.7.1-.6 0-1.3 0-1.9.1-1.1 0-2.3.1-3.5.1-.7 0-1.4.1-2.1.1l-4.5.3c-.4 0-.7 0-1.1.1-11.2.8-63.7 10.1-131.3 24.7-.3.1-.5.1-.8.2-1.8.4-3.6.8-5.5 1.2l-1.2.3c-1.8.4-3.6.8-5.3 1.2-.4.1-.7.2-1.1.2-2.1.5-4.2.9-6.3 1.4h-.2c-2.1.5-4.3 1-6.4 1.4-.6.1-1.2.3-1.9.4-1.5.3-3 .7-4.5 1-.8.2-1.6.4-2.4.5l-4 .9-2.8.6c-1.2.3-2.4.6-3.7.8-1 .2-2 .5-3 .7-1.1.3-2.3.5-3.4.8l-6.3 1.5c-.9.2-1.9.4-2.8.7l-3.9.9-2.6.6c-1.4.3-2.7.6-4.1 1l-2.4.6c-1.4.3-2.9.7-4.3 1-.6.2-1.3.3-1.9.5l-4.8 1.2c-.1 0-.2 0-.2.1-5.8 1.4-11.5 2.8-17.3 4.3-.3.1-.6.2-1 .2-1.7.4-3.5.9-5.2 1.3l-1.2.3c-1.8.5-3.6.9-5.3 1.4-.2 0-.4.1-.6.1-10 2.6-20.1 5.2-30.1 7.9h-.2l-12.1 3.3c-26.5 7.2-52.5 14.8-76.9 22.7-163.7 52.7-380.1 145.4-380.1 145.4s104.1-103.4 143.8-162c11.3-16.6 21.9-32.1 31.7-46.9.1-.2.2-.3.3-.5 1.7-2.5 3.3-4.9 4.9-7.4.4-.6.8-1.1 1.1-1.7 1.4-2.2 2.8-4.3 4.2-6.4l1.5-2.4c1.2-1.9 2.5-3.8 3.7-5.8.6-1 1.2-1.9 1.8-2.9 1.1-1.8 2.2-3.5 3.3-5.3.7-1.1 1.3-2.1 2-3.2 1-1.6 2-3.3 3-4.9.7-1.2 1.4-2.3 2.1-3.5.9-1.5 1.8-3 2.7-4.6.7-1.2 1.4-2.5 2.1-3.7.8-1.5 1.6-2.9 2.5-4.4.7-1.3 1.4-2.5 2.1-3.8.8-1.4 1.5-2.8 2.3-4.2l2.1-3.9c.7-1.3 1.4-2.7 2.1-4 .7-1.4 1.4-2.7 2.1-4.1.6-1.3 1.3-2.6 1.9-3.9.7-1.4 1.4-2.8 2-4.2.6-1.3 1.1-2.5 1.7-3.8.6-1.4 1.3-2.9 1.9-4.3.5-1.2 1-2.5 1.5-3.7.6-1.5 1.2-2.9 1.8-4.4.5-1.2.9-2.4 1.4-3.6.6-1.5 1.2-3 1.7-4.5.4-1.2.8-2.4 1.3-3.6.5-1.5 1.1-3.1 1.6-4.6.4-1.2.7-2.4 1.1-3.6.5-1.6 1-3.1 1.5-4.7.3-1.2.6-2.4 1-3.6.4-1.6.9-3.2 1.3-4.8l.9-3.6c.4-1.6.8-3.2 1.1-4.9.3-1.2.5-2.4.7-3.6.3-1.7.7-3.3 1-5 .2-1.2.4-2.4.6-3.7.3-1.7.6-3.4.8-5.1.2-1.2.3-2.5.5-3.7.2-1.7.5-3.5.6-5.2l.3-3.8c.2-1.8.3-3.6.5-5.4.1-1.3.1-2.6.2-3.8l.3-5.5c0-1.3 0-2.6.1-3.9 0-1.9.1-3.7.1-5.6 0-1.3-.1-2.7-.1-4.1 0-1.9 0-3.8-.1-5.7 0-1.3-.1-2.6-.2-3.9l-.3-6.1-.3-3.1a290 290 0 0 0-2.6-23.3c0-.3-.1-.6-.2-.9l-.9-4.5c-.1-.6-.3-1.2-.4-1.8-.3-1.2-.5-2.3-.9-3.4-.2-.8-.4-1.5-.7-2.2-.3-1-.6-2-.9-2.9-.3-.8-.6-1.6-.8-2.4-.3-.9-.6-1.8-.9-2.6-.3-.9-.7-1.7-1-2.5s-.6-1.6-1-2.4c-.4-.9-.8-1.7-1.2-2.6-.3-.7-.7-1.5-1-2.2-.4-.9-.9-1.7-1.4-2.6-.4-.7-.7-1.4-1.1-2-.5-.9-1-1.8-1.6-2.6-.4-.6-.7-1.3-1.1-1.9l-1.7-2.6-1.2-1.8c-.6-.9-1.3-1.7-1.9-2.6-.4-.6-.8-1.1-1.3-1.7-.7-.8-1.4-1.7-2.1-2.5l-1.3-1.6c-.7-.8-1.5-1.6-2.2-2.4-.5-.5-.9-1-1.4-1.5-.5-.8-1.3-1.6-2.1-2.3" class="st0" style="fill:#fff;stroke-width:1.38889" transform="matrix(.72 0 0 .72 581.63 307.92)"/><path d="M2651.9 1037.4c1.9-2.2 3.7-4.4 5.6-6.6 2.7-3.3 5.4-6.6 8-9.9-.4-1.6-.7-3.2-1.1-4.8-.4-1.9-.9-3.8-1.3-5.7-.5-2.1-1-4.2-1.5-6.2-.4-1.6-.8-3.2-1.1-4.8-.5-2.2-1-4.3-1.6-6.5l-.9-3.8c-1.1-4.3-2.1-8.6-3.2-12.8-.3-1.1-.5-2.1-.8-3.2-.6-2.4-1.2-4.7-1.9-7.1-.3-1-.5-2.1-.8-3.1-2.2-8.2-4.4-16.3-6.7-24.2l-.3-1.2c-.8-2.6-1.5-5.2-2.3-7.8-.1-.5-.3-1-.4-1.5-2.5-8.2-5-16.3-7.5-24.1 0-.1-.1-.2-.1-.3-.9-2.6-1.7-5.2-2.6-7.8-.1-.2-.1-.4-.2-.5-1.8-5.2-3.6-10.4-5.4-15.4-21.6 14.5-40.1 35.2-55.2 52-12.3 13.7-22 24.5-32.3 31.7 3.2 18.1 5.9 37.7 8.2 58.4v.1c.4 3.3.7 6.6 1 9.9 0 .3.1.7.1 1l.9 9.3c0 .3 0 .5.1.8 23.5-1.4 47.7-2.8 72.5-4.2 10.2-.6 20.5-1.2 30.8-1.7m142.2 46.5c-11.8 17.4-28.6 38.2-46.8 59.1 67.7-26.9 150.8-58.7 225.4-83.6-52 .3-106.7 1.3-164.2 3.1-1.4 2-2.8 4.1-4.2 6.2zm311.3 654.8c-92.1-72.8-237.6-164.8-359.5-175.5h-4.5c-2.4-31.4-9-109.9-20.6-206.6-11.6 2-23.1 4.1-34.7 6.2-58.2 26.8-100.7 45.5-132 55.8-.9 27.9-2 53.4-3 75.5 0 .4 0 .9-.1 1.3-.1 1.3-.1 2.7-.2 4 0 .6-.1 1.2-.1 1.8-.1 1.1-.1 2.1-.2 3.2 0 .7-.1 1.5-.1 2.2 0 .8-.1 1.6-.1 2.4 0 .9-.1 1.9-.1 2.8v.2c-1.1 22.5-2.2 40.2-2.9 51.6-231.1 8.6-468.8 56.3-694.6 144.7-24.6 9.7-49.1 19.8-73.5 30.4zm-1505.7-73.6c-.3-6.9-2-14.1-4.9-21.4-1.8-4.6-4.1-9.3-6.7-13.9-.1-.3-.2-.5-.3-.8l-3.3-7.2c-.5-1.1-1-2.3-1.5-3.4-.6-1.5-1.3-2.9-1.9-4.4l-1.8-4.2c-.5-1.1-.9-2.2-1.4-3.3-.7-1.6-1.3-3.3-2-4.9-.3-.7-.5-1.3-.8-2-32.6-81.8-41-158.2-45.4-257.7 23.1-9.1 56.4-17.4 54.5-57-1.1-23.1-24.8-44.6-61.1-50.7-1.4-21.3-2.3-46.7-2.8-74.5v-.5c-.1-2.8-.1-5.7-.1-8.5v-1.6c0-2.8-.1-5.5-.1-8.3v-.7c0-3-.1-6-.1-9.1v-1.5c-.1-6.2-.1-12.4-.1-18.7v-32.7c0-6.7 0-13.4.1-20.1v-1.1c0-6.7.1-13.5.1-20.3v-.9c.6-71.1 2.1-142.3 2.6-193.5.6-54.9 6.3-115.5 14.7-175.9 11.2-80.1 27.2-159.7 42.7-224.8 2.7-11.3 5.4-22.2 8-32.6.8-3 1.5-6 2.2-9.1 12.3-55 12.2-123.4-46.2-127.5h-1.7c-.4 0-.8 0-1.2.1s-.9.2-1.4.3c-.4.1-.9.2-1.4.3s-1 .3-1.5.5-1 .3-1.5.5-1.1.4-1.6.7c-.6.2-1.1.5-1.7.7-.6.3-1.1.6-1.7.9s-1.2.6-1.9 1c-.6.3-1.2.7-1.8 1-.7.4-1.3.8-2 1.2-.6.4-1.2.8-1.9 1.2-.7.5-1.5.9-2.3 1.5l-1.9 1.3c-.8.6-1.6 1.1-2.5 1.7-.6.4-1.3.9-1.9 1.4-.9.7-1.8 1.3-2.7 2-.6.5-1.2 1-1.9 1.4-1 .8-2 1.5-3 2.3l-1.8 1.5c-1.1.9-2.2 1.7-3.3 2.6l-1.8 1.5-3.6 3c-.5.5-1.1.9-1.6 1.4-1.3 1.1-2.6 2.2-3.9 3.4-.5.4-1 .9-1.5 1.4-1.4 1.2-2.8 2.5-4.2 3.7-.5.4-.9.8-1.4 1.2-1.5 1.4-3 2.8-4.6 4.2-.4.4-.8.7-1.2 1.1l-5 4.7-.9.9c-1.8 1.7-3.6 3.4-5.4 5.2l-.6.6c-1.9 1.9-3.9 3.8-5.9 5.7l-.4.4c-100.3 97.7-261.5 289.3-378.2 418-50.5 55.7-102.3 113.5-154.1 172.3-79.2 90-158.2 182.2-231.5 272.9h-.6c-2.8.1-5.6.1-8.4.1h-1.3c-3.2 0-6.3 0-9.4-.1h-1.2l-9.3-.3h-1.3c-3-.1-6-.2-9-.4-.5 0-1-.1-1.5-.1-2.9-.2-5.8-.3-8.6-.5-.6 0-1.1-.1-1.7-.1l-8.2-.6c-.7 0-1.3-.1-2-.2l-7.6-.6c-.9-.1-1.7-.1-2.6-.2l-6.4-.6c-1.4-.1-2.8-.2-4.2-.4l-2.9-.3c-13.7-1.2-26.8-2.5-39.4-3.5h-.1l-8.3-.6h-.4c-2.7-.2-5.3-.3-7.9-.4h-.5l-7.6-.3h-.6c-2.5-.1-4.9-.1-7.3-.1h-8.3c-.6 0-1.2 0-1.8.1-.6 0-1.2.1-1.8.1s-1.2.1-1.7.1c-.6 0-1.3.1-1.9.1-.5 0-1.1.1-1.6.1-.7.1-1.4.1-2.1.2-.5 0-.9.1-1.4.1l-2.9.3c-.2 0-.3 0-.5.1-1.1.1-2.3.3-3.4.4-.3 0-.6.1-.8.1-.8.1-1.7.2-2.5.4-.4.1-.7.1-1.1.2-.7.1-1.5.2-2.2.4-.4.1-.8.2-1.2.2-.7.1-1.4.3-2.1.4l-1.2.3c-.7.1-1.3.3-2 .4l-1.2.3c-.7.2-1.3.3-2 .5l-1.2.3-2 .6c-.4.1-.8.2-1.2.4l-2 .6c-.4.1-.8.2-1.1.4-.7.2-1.3.5-2 .7-.3.1-.7.2-1 .4-.7.3-1.4.6-2.2.8-.3.1-.6.2-.8.3-.9.4-1.7.7-2.6 1.1-.1.1-.2.1-.4.2-1 .4-2 .9-3 1.4-.1 0-.1.1-.2.1-.9.4-1.8.9-2.7 1.4-.3.1-.5.3-.8.5-.7.4-1.3.7-2 1.1-.3.2-.7.4-1 .6-.6.4-1.2.7-1.8 1.1-.4.2-.7.5-1.1.7-.5.4-1.1.7-1.6 1.1l-1.1.8c-.5.4-1 .7-1.5 1.1-.4.3-.7.6-1.1.9l-1.5 1.2c-.4.3-.7.6-1.1.9-.5.4-1 .8-1.4 1.2-.4.3-.7.6-1.1 1-.5.4-.9.9-1.4 1.3-.4.3-.7.7-1.1 1l-1.4 1.4-1 1c-.5.5-1 1-1.5 1.6-.3.3-.6.7-.9 1-.6.7-1.3 1.4-1.9 2.2-.1.2-.3.3-.4.5-8.8 10.5-21.2 19-34.5 26.9-39.7 23.7-87.5 42.3-72.9 93.7v.1c.3 1.2.7 2.3 1.1 3.4.1.2.1.4.2.6.4 1.1.9 2.1 1.4 3.1l.3.6c.5 1 1.1 2 1.7 2.9.1.2.2.3.3.5l1.9 2.8c.1.1.1.1.1.2.7.9 1.5 1.8 2.3 2.7.2.2.3.4.5.5l2.4 2.4.6.6c.8.8 1.7 1.6 2.6 2.3.2.2.4.3.6.5.9.7 1.7 1.4 2.7 2 .2.1.3.2.5.4 1 .7 2 1.4 3 2l.9.6a85 85 0 0 0 4.2 2.4c1.1.6 2.1 1.1 3.2 1.7.3.2.7.3 1.1.5.9.4 1.9.9 2.8 1.3.4.2.9.4 1.3.6 1 .4 2.1.9 3.2 1.3l1.5.6c1.1.4 2.2.8 3.4 1.2.6.2 1.1.4 1.7.6l2.9.9c.8.2 1.5.5 2.3.7s1.6.5 2.4.7c.9.3 1.8.5 2.8.8.9.2 1.7.4 2.6.7.7.2 1.5.4 2.3.6 1.1.3 2.2.5 3.4.8.8.2 1.7.4 2.5.5 25 5.2 53.8 7 80.8 7 51.5 0 96.5-6.2 96.5-6.2-99.1 132.2-202.8 245.5-323.9 412-17.6 24.2 6.4 60.9 25.3 63.1 17.3 2 36.8 4.5 58.3 4.5 34.5 0 74.3-6.5 119.2-32.4 63.2-36.4 108-105.8 209.3-249 71-100.4 99.1-143.2 141-198.3 40.7 4.2 76.5 5.9 108.6 5.9 170.9 0 234.6-50 360.8-50 25.9 109.3 32.1 209.9 65.3 280.1.6 1.4 1.3 2.7 2 4l1.2 2.4c.6 1.2 1.2 2.4 1.8 3.5.6 1 1.1 2.1 1.7 3.1.5 1 1.1 1.9 1.6 2.9.9 1.6 1.9 3.2 2.9 4.8.2.3.4.7.6 1 1 1.6 2 3.2 3.1 4.7.2.3.4.5.5.8.8 1.2 1.7 2.4 2.5 3.6l.9 1.2c.7 1 1.5 1.9 2.2 2.9.4.5.7.9 1.1 1.3.7.9 1.4 1.7 2.1 2.6.4.4.8.9 1.1 1.3l2.1 2.4c.4.4.8.8 1.1 1.3.7.8 1.5 1.5 2.2 2.3l1.1 1.1c.8.8 1.6 1.6 2.5 2.4.3.3.6.5.8.8 2.2 2.1 4.5 4 6.7 5.8.3.3.6.5 1 .7l2.4 1.8 1.2.9 2.1 1.5c.5.3.9.6 1.4.9.7.4 1.4.9 2 1.3.5.3.9.6 1.4.9.7.4 1.3.8 2 1.2.5.3.9.5 1.4.8.7.4 1.3.7 2 1.1.4.2.9.5 1.3.7.7.4 1.4.7 2.1 1.1l1.2.6c.9.4 1.9.9 2.8 1.3.3.1.6.3.9.4.9.4 1.9.8 2.8 1.2.4.2.9.3 1.3.5.6.2 1.3.5 1.9.7.5.2 1 .3 1.4.5.6.2 1.1.4 1.7.6.5.2 1 .3 1.5.5s1.1.3 1.6.5c.5.1 1 .3 1.5.4s1 .3 1.5.4 1 .3 1.5.4 1 .2 1.4.3l1.5.3 1.4.3 1.5.3c.4.1.8.1 1.2.2 1 .2 2 .3 3 .4.3 0 .6.1.9.1.5.1 1 .1 1.5.2.3 0 .7.1 1 .1.5 0 1 .1 1.4.1.3 0 .7 0 1 .1.5 0 .9 0 1.4.1h5.1c.4 0 .8 0 1.2-.1.2 0 .4 0 .7-.1.4 0 .8-.1 1.2-.1h.4c.4 0 .8-.1 1.2-.1 1.9-.3 3.6-.5 5.4-.6.4 0 .9-.1 1.3-.1l3.8-.3c.5 0 1-.1 1.4-.1 1.3-.1 2.5-.1 3.7-.1h1.5c1.3 0 2.6 0 3.8.1h.8c1.3.1 2.5.1 3.7.2h.5c1.3.1 2.6.3 3.9.4.3 0 .5.1.7.1 1.1.2 2.3.3 3.4.5.1 0 .2 0 .3.1 1.2.2 2.3.5 3.5.7.2.1.5.1.7.2 1.1.2 2.1.5 3.1.8h.1c1.1.3 2.1.6 3.1.9.2.1.4.1.6.2 2 .6 4 1.3 5.8 2 .2.1.3.1.5.2 1.9.7 3.8 1.5 5.6 2.2.1 0 .1.1.2.1 1.2.5 2.4 1 3.5 1.5.4.2.8.3 1.2.5s.7.3 1.1.4c.7.3 1.5.6 2.2.9.2.1.4.2.6.2.6.2 1.2.5 1.8.7.2.1.5.2.7.3.8.3 1.5.5 2.3.8.2.1.4.1.5.2.6.2 1.3.4 1.9.6.2.1.4.1.6.2.8.2 1.6.4 2.3.6.2 0 .4.1.6.1.7.1 1.4.3 2 .4.2 0 .4.1.6.1l2.5.3h.6c.7.1 1.5.1 2.2.1h2.1c.5 0 1 0 1.4-.1.6 0 1.2-.1 1.8-.2.5-.1.9-.1 1.4-.2.6-.1 1.3-.2 2-.4.4-.1.9-.1 1.3-.3l2.3-.6 1.2-.3c.9-.3 1.8-.6 2.8-.9l.9-.3c1.2-.4 2.4-.9 3.6-1.4.1 0 .2-.1.3-.1 2.7-1.1 5.5-2.5 8.6-4.2 9.8-5.4 16.9-11.6 21.6-18.5 6.1-8.6 8.4-18 8-27.9m-320.7-589c-.4 4.3-.7 8.7-1 13.1-.4 5.6-.9 11.2-1.3 16.8l-.9 12.6c-.4 5.8-.8 11.6-1.1 17.4-.2 3.9-.4 7.8-.7 11.7-.3 6.1-.7 12.3-1 18.4-.2 3.1-.3 6.3-.4 9.4l-.9 20.7c-.4 10.1-.7 20.2-1 30.3-17.5.7-34 1.1-49.6 1.1-41.7 0-77-2.3-109.4-5.3h-.1c-3.8-.3-7.6-.7-11.4-1.1-.3 0-.7-.1-1-.1-3.6-.4-7.3-.7-10.8-1.1h-.1c-8.2-.8-16.3-1.7-24.4-2.5l-8.6-.9-2.6-.3c-2.4-.2-4.9-.5-7.3-.7l-3.2-.3-9.6-.9c-.2 0-.5 0-.7-.1-3.1-.3-6.1-.5-9.2-.8-.9-.1-1.8-.2-2.8-.2-2.9-.2-5.8-.5-8.8-.7-.4 0-.9-.1-1.3-.1l-9.9-.6c-.8-.1-1.7-.1-2.5-.1-2.8-.2-5.7-.3-8.5-.4-.6 0-1.3-.1-1.9-.1-3.4-.2-6.8-.3-10.3-.4-.8 0-1.5 0-2.3-.1-2.9-.1-5.8-.2-8.8-.2h-2.4c-3.5 0-7-.1-10.6-.1-2.6 0-5.3 0-7.9.1-1.6 0-3.2 0-4.8.1l-11.9.3h-1.1c125.6-160.9 262.2-319.5 403.2-473.7l-6.3 29.7-1.8 8.8c-1.4 6.9-2.8 13.8-4.1 20.6-.8 3.9-1.5 7.8-2.2 11.7-1.1 5.9-2.2 11.8-3.3 17.6a590 590 0 0 0-2.3 13c-1 5.4-1.9 10.8-2.9 16.2-.8 4.6-1.5 9.2-2.3 13.7-.9 5.2-1.7 10.3-2.6 15.5-.8 4.7-1.5 9.5-2.2 14.2-.8 5-1.5 10-2.3 14.9l-2.1 14.6-2.1 14.5c-.7 5-1.4 10-2 15l-1.8 14.2c-.6 5.1-1.3 10.2-1.9 15.3-.6 4.6-1.1 9.3-1.6 13.9-.6 5.2-1.2 10.4-1.7 15.6-.5 4.6-1 9.1-1.4 13.7-.5 5.3-1.1 10.6-1.6 15.9l-1.2 13.4c-.5 5.9-1 11.3-1.4 16.8" class="st0" style="fill:#fff;stroke-width:1.38889" transform="matrix(.72 0 0 .72 581.63 307.92)"/></svg>