<svg xmlns="http://www.w3.org/2000/svg" viewBox="0 0 3839 1292.4"><path d="M1490 274.7c0-34-28.3-62.2-62.2-62.2h-45.3c-41 0-75-34-75-75s34-75 75-75h175.4V7.3h-176.8c-72.2 0-130.2 58-130.2 130.2s58 130.2 130.2 130.2h45.3c4.2 0 7.1 2.8 7.1 7.1 0 4.2-2.8 7.1-5.7 7.1h-176.9V337h176.8c34 0 62.3-28.3 62.3-62.3m-62.3-129.9h-45.3c-4.2 0-7.1-2.8-7.1-7.1 0-2.8 2.8-5.7 5.7-5.7h176.9V75.4l-176.8.1c-34 0-62.2 28.3-62.2 62.3s28.3 62.2 62.3 62.2h45.3c41 0 75 33.9 75 74.9s-33.9 75-74.9 75l-175.4.1v55.2l176.8-.1c72.2 0 130.1-58.1 130.1-130.2s-58.2-130.1-130.4-130.1m615.5-14.4h157V75.2h-183.9c-24.1 0-42.4 18.4-42.4 42.4v176.8c0 24.1 18.4 42.4 42.4 42.4h114.6V212.5h-87.7v55.2h32.5v12.7h-32.5c-7.1 0-12.7-5.7-12.7-12.7V143.1c0-7 5.6-12.7 12.7-12.7M2493.1 337l-87.7-260.3c-2.8-7.1-8.5-12.7-17-12.7-7.1 0-14.1 5.7-17 11.3l-113.2 329.6h65.1l39.6-117.4V337zM2387 218.1l18.4 56.6h-38.2zM2473.2 65c-11.3-36.7-45.3-65-86.3-65s-75 26.9-84.9 63.7l-103.1 302.8-.1-222.1-155.6.1v55.2l101.9-.1.1 150-127.3.1c-31.1 0-55.2-25.4-55.2-55.1l-.1-176.8c0-31.1 25.4-55.2 55.1-55.2l182.5-.1V7.3l-183.9.1C1955.5 7.4 1906 57 1906 117.8l.1 176.8c0 60.8 49.6 110.3 110.4 110.3l227.8-.1 114.4-332.5c4.2-12.7 15.6-21.2 29.7-21.2s25.5 8.5 29.7 21.2l93.5 277.2-147.1.1v55.2l223.5-.1zM1640 294.5V117.7c0-31.1 25.5-55.2 55.2-55.2h189.6V7.3h-189.6c-60.8 0-110.4 49.5-110.4 110.4v176.8c0 60.8 49.5 110.4 110.4 110.4h189.6v-55.2h-189.6c-31.2 0-55.2-25.5-55.2-55.2m80.7-11.2c-7.1-1.4-12.7-7.1-12.7-14.1l137.2-.1v-55.2l-192.4.1v82.1c0 24.1 18.4 42.4 42.5 42.4l189.6-.1v-55.2zm-.1-151.5h162.7V75.2h-188.2c-24.1 0-42.4 18.4-42.4 42.4v82.1h192.4v-55.2h-137.2c0-7 5.7-12.7 12.7-12.7m2100.1 532c-12.1-29.2-28.2-54.4-48.5-75.7a228 228 0 0 0-70.2-50.4c-26.5-12.3-54-18.5-82.4-18.5h-575V624h562.3c20 0 37.8 3.9 53.6 11.8s29 18.1 39.8 30.7 19.1 26.9 24.8 43q8.7 24 8.7 47.7v297.2q0 23.7-8.7 47.7c-5.8 16-14.1 30.3-24.8 43-10.8 12.6-24 22.9-39.8 30.7-15.8 7.9-33.6 11.8-53.6 11.8h-625.2c-20 0-37.8-3.9-53.6-11.8s-29-18.1-39.8-30.7a134 134 0 0 1-24.8-43q-8.7-24-8.7-47.7V519.2H2750v535.2c0 33.1 6 64.2 18.1 93.4s28.2 54.4 48.5 75.7q30.3 31.95 70.2 50.4c26.5 12.4 54 18.5 82.4 18.5h650.6c28.4 0 55.8-6.2 82.4-18.5 26.5-12.3 49.9-29.2 70.2-50.4 20.2-21.3 36.4-46.5 48.5-75.7s18.1-60.3 18.1-93.4V757.2c-.2-33.1-6.2-64.2-18.3-93.4m-216.4 99q5.1 5.55 5.1 15v11h-228.6v104h324.7V773c0-13.7-2.2-27.7-6.7-42.2-4.5-14.4-11.2-27.5-20.1-39-8.9-11.6-20.2-21-33.9-28.4s-29.7-11-48.1-11h-552.1v104.8h549.7c3.3 0 6.6 1.9 10 5.6m-2103.6-190c-17.9-18.9-40.6-32.6-68.2-41s-60.6-12.6-98.9-12.6h-100.9c-37.8 0-70.4 4.2-97.7 12.6s-50.1 22.1-68.2 41-31.5 43.5-40.2 73.7-13 67.1-13 110.7v297.2c0 42 4.3 78.2 13 108.4q13.05 45.3 40.2 74.1c18.1 19.2 40.9 33.2 68.2 42.2 27.3 8.9 59.9 13.4 97.7 13.4h100.9c38.4 0 71.3-4.5 98.9-13.4s50.3-23 68.2-42.2 31-43.9 39.4-74.1 12.6-66.3 12.6-108.4V757.2q0-65.4-12.6-110.7c-8.4-30.2-21.6-54.8-39.4-73.7m-47.3 503.6c0 15.8-2 30.5-5.9 44.1-3.9 13.7-10.2 25.5-18.9 35.5s-19.8 17.7-33.5 23.3c-13.7 5.5-30.5 8.3-50.4 8.3h-123c-20 0-36.8-2.8-50.4-8.3-13.7-5.5-24.8-13.3-33.5-23.3s-15-21.8-18.9-35.5-5.9-28.4-5.9-44.1V735.2c0-15.8 2-30.5 5.9-44.1 3.9-13.7 10.2-25.5 18.9-35.5s20-17.7 33.9-23.3c13.9-5.5 30.9-8.3 50.8-8.3h121.4c20 0 36.9 2.8 50.8 8.3s25.2 13.3 33.9 23.3 15 21.8 18.9 35.5 5.9 28.4 5.9 44.1zm-46.5-395.6c-6.8-8.9-16.2-15.9-28-20.9q-17.7-7.5-45.3-7.5h-100.8q-27.6 0-45.3 7.5c-11.8 5-21.2 12-28 20.9s-11.6 19.4-14.2 31.5-3.9 25-3.9 38.6v309.8c0 18.4 1.3 33.8 3.9 46.1q3.9 18.6 13.8 30.3c6.6 7.9 15.8 13.5 27.6 16.9q17.7 5.1 45.3 5.1h102.5q27.6 0 45.3-5.1c11.8-3.4 21-9.1 27.6-16.9q9.9-11.85 13.8-30.3c2.6-12.3 3.9-27.7 3.9-46.1V750.9a183 183 0 0 0-3.9-38.6c-2.8-12.1-7.5-22.6-14.3-31.5m-83.6 353c0 6.3-.9 11.3-2.8 15-1.8 3.7-5.9 5.5-12.2 5.5h-50.4c-6.3 0-10.4-1.8-12.2-5.5s-2.8-8.7-2.8-15V777.7c0-6.3.9-11.3 2.8-15 1.8-3.7 5.9-5.5 12.2-5.5h50.4c6.3 0 10.4 1.8 12.2 5.5s2.8 8.7 2.8 15zm753.6-461c-17.9-18.9-40.6-32.6-68.2-41s-60.6-12.6-98.9-12.6h-303.5V624H1920c20 0 36.9 2.8 50.8 8.3s25.2 13.3 33.9 23.3 15 21.8 18.9 35.5 5.9 28.4 5.9 44.1v341.3c0 15.8-2 30.5-5.9 44.1-3.9 13.7-10.2 25.5-18.9 35.5s-19.8 17.7-33.5 23.3c-13.7 5.5-30.5 8.3-50.4 8.3h-215.2V782.5h-99.3v510h303.5c38.4 0 71.3-4.5 98.9-13.4s50.3-23 68.2-42.2 31-43.9 39.4-74.1 12.6-66.3 12.6-108.4V757.2q0-65.4-12.6-110.7c-8.4-30.2-21.6-54.8-39.4-73.7m-180.1 189.9c3.9 3.7 5.9 8.7 5.9 15v256.2c0 6.3-2 11.3-5.9 15s-9.1 5.5-15.4 5.5h-17.3c-13.1 0-19.7-6.8-19.7-20.5V782.5H1734v376.8h176.6q27.6 0 45.3-5.1c11.8-3.4 21-9.1 27.6-16.9q9.9-11.85 13.8-30.3c2.6-12.3 3.9-27.7 3.9-46.1v-310a183 183 0 0 0-3.9-38.6c-2.6-12.1-7.4-22.6-14.2-31.5s-16.2-15.9-28-20.9q-17.7-7.5-45.3-7.5h-303.5v104.8h275.1c6.3 0 11.4 1.9 15.4 5.5m418.5-225a233 233 0 0 0-70.2 50.4c-20.2 21.3-36.4 46.5-48.5 75.7s-18.1 60.3-18.1 93.4v297.2c0 33.1 6 64.2 18.1 93.4s28.2 54.4 48.5 75.7q30.3 31.95 70.2 50.4c26.5 12.4 54 18.5 82.4 18.5h298.7v-104.8h-286.1c-20 0-37.8-3.9-53.6-11.8s-29-18.1-39.8-30.7a134 134 0 0 1-24.8-43q-8.7-24-8.7-47.7V757.2q0-23.7 8.7-47.7c5.8-16 14.1-30.3 24.8-43 10.8-12.6 24-22.9 39.8-30.7 15.8-7.9 33.6-11.8 53.6-11.8h286.1V519.2h-298.7c-28.4 0-55.9 6.2-82.4 18.5m57.2 125.7c-13.7 7.4-25 16.8-33.9 28.4q-13.35 17.4-20.1 39c-4.5 14.5-6.7 28.5-6.7 42.2v119.8h324.8v-104h-228.7v-11q0-9.45 5.1-15c3.4-3.7 6.7-5.5 9.9-5.5h273.5V652.4h-275.9c-18.4 0-34.4 3.7-48 11m40.6 385.4q-5.1-5.55-5.1-15v-10.2h228.6V918.8h-324.8v119.8c0 13.7 2.2 27.7 6.7 42.2q6.75 21.75 20.1 39c8.9 11.6 20.2 21 33.9 28.4s29.7 11 48.1 11h275.9v-104.8h-273.6c-3.1-.1-6.4-1.9-9.8-5.6m496.8 70.9c8.9 11.6 20.2 21 33.9 28.4s29.7 11 48.1 11h604.9c18.4 0 34.4-3.7 48.1-11 13.7-7.4 25-16.8 33.9-28.4q13.35-17.4 20.1-39c4.5-14.4 6.7-28.5 6.7-42.2V918.8h-324.8v104.8h228.6v10.2q0 9.45-5.1 15c-3.4 3.7-6.7 5.5-9.9 5.5h-588.3v-.8c-3.2 0-6.4-1.7-9.9-5.1-3.4-3.4-5.1-8.3-5.1-14.6V519.2h-108v519.4c0 13.7 2.2 27.7 6.7 42.2 4.5 14.4 11.2 27.4 20.1 38.9M776 573.2c-7.1-10.2-15.8-19.4-26-27.6-10.2-8.1-22.3-14.6-36.3-19.3-13.9-4.7-29.6-7.1-46.9-7.1-17.9 0-33.4 2.4-46.5 7.1s-24.6 11.2-34.3 19.3c-9.7 8.2-18.1 17.3-25.2 27.6-7.1 10.2-13.5 20.9-19.3 31.9l-23.6 47.3-23.6-47.3c-5.3-11-11.4-21.7-18.5-31.9s-15.6-19.4-25.6-27.6c-10-8.1-21.6-14.6-34.7-19.3s-28.6-7.1-46.5-7.1-33.6 2.4-47.3 7.1-25.6 11.2-35.9 19.3c-10.2 8.2-18.8 17.3-25.6 27.6-6.8 10.2-12.4 20.9-16.6 31.9L0 1292.3h104.8l227-647.9c1.6-5.2 6.3-10 14.2-14.2s15.5-6.3 22.9-6.3c8.4 0 16 2.1 22.9 6.3 6.8 4.2 11.3 8.9 13.4 14.2l112.7 301.9 112.7-301.9c2.1-5.2 6.6-10 13.4-14.2s14.4-6.3 22.9-6.3c7.4 0 15 2.1 22.9 6.3s12.6 8.9 14.2 14.2l227 647.9h104.8L792.2 605.1c-3.7-11-9.1-21.7-16.2-31.9m-97.3 82.7c-4.2-2.4-8.2-3.5-11.8-3.5-3.7 0-7.5 1.2-11.4 3.5-3.9 2.4-6.4 5.1-7.5 8.3l-130.1 358.6-130.1-358.6c-1.1-3.2-3.5-5.9-7.5-8.3-3.9-2.4-7.8-3.5-11.4-3.5-3.7 0-7.6 1.2-11.8 3.5-4.2 2.4-6.8 5.1-7.9 8.3l-216 628.2H238l130.8-397.3 149 397.3 149-397.3 134.8 397.3h100.9l-216-628.2c-1-3.1-3.6-5.9-7.8-8.3" class="st1" style="fill:#fff"/></svg>