<svg xmlns="http://www.w3.org/2000/svg" viewBox="0 0 518.81 123.59"><path d="M61.6 23.13a38.87 38.87 0 1 0 0 77.73 38.87 38.87 0 0 0 0-77.73M123.2 62A61.6 61.6 0 1 1 0 62a61.6 61.6 0 0 1 123.2 0" style="fill-opacity:1;fill-rule:nonzero;stroke:none;fill:#fff"/><path d="M62.79 100.86h-3.7V23.13h3.7Z" style="fill-opacity:1;fill-rule:nonzero;stroke:none;stroke-width:1.25;fill:#fff"/><path d="M21.86 61.4h78.6v3.7h-78.6Z" style="fill-opacity:1;fill-rule:nonzero;stroke:none;stroke-width:1.25;fill:#fff"/><path d="m34.67 92.34-2.6-2.6 56.1-56.1 2.6 2.6Z" style="fill-opacity:1;fill-rule:nonzero;stroke:none;fill:#fff"/><path d="m89.96 88.91-2.61 2.61-55.28-55.28 2.6-2.6Zm87.43-21.58c-.2-5.47-.4-12.09-.4-18.7h-.2a256 256 0 0 1-5.07 17.62l-5.54 17.77h-8.04l-4.86-17.63a208 208 0 0 1-4.12-17.77h-.14c-.27 6.15-.47 13.17-.8 18.85l-.82 17.29h-9.52l2.9-45.52h13.71l4.46 15.2a228 228 0 0 1 3.85 16.27h.2a387 387 0 0 1 4.33-16.34l4.86-15.13h13.44l2.5 45.52h-10.06Zm27.43-5.2c0 8.92 4.18 15.2 11.07 15.2 6.96 0 10.94-6.62 10.94-15.47 0-8.17-3.92-15.2-11-15.2-6.96 0-11.02 6.63-11.02 15.47m32.9-.6c0 14.92-9.05 23.97-22.36 23.97-13.5 0-21.4-10.2-21.4-23.16 0-13.65 8.7-23.85 22.14-23.85 13.98 0 21.62 10.47 21.62 23.03m15.54.61c0 8.92 4.18 15.2 11.07 15.2 6.96 0 10.94-6.62 10.94-15.47 0-8.17-3.91-15.2-11-15.2-6.96 0-11.01 6.63-11.01 15.47m32.89-.6c0 14.92-9.05 23.97-22.36 23.97-13.5 0-21.4-10.2-21.4-23.16 0-13.65 8.7-23.85 22.14-23.85 13.99 0 21.62 10.47 21.62 23.03m6.76 23.24V39.24h12.02l9.45 16.68a132 132 0 0 1 7.43 15.6h.2c-.67-6.01-.87-12.16-.87-18.98v-13.3h9.45v45.52h-10.8l-9.73-17.56a169 169 0 0 1-7.9-16.08l-.2.07c.26 6.01.4 12.43.4 19.86v13.7Zm46.6-45.52h10.33V76.1h18.1v8.65H339.5Z" style="fill-opacity:1;fill-rule:nonzero;stroke:none;fill:#fff"/><path d="M384.35 84.76H374V39.24h10.34Z" style="fill-opacity:1;fill-rule:nonzero;stroke:none;stroke-width:1.25;fill:#fff"/><path d="M431.29 82.66a51 51 0 0 1-15.2 2.57c-8.3 0-14.32-2.1-18.5-6.15-4.2-3.91-6.49-9.86-6.42-16.54.07-15.13 11.08-23.78 26-23.78 5.88 0 10.4 1.15 12.63 2.23l-2.16 8.24c-2.5-1.08-5.6-1.96-10.6-1.96-8.58 0-15.06 4.87-15.06 14.73 0 9.39 5.87 14.92 14.32 14.92 2.36 0 4.25-.27 5.06-.67v-9.52h-7.02v-8.04h16.95Zm18.37-43.42v17.49h16.96v-17.5h10.26v45.53h-10.26V65.7h-16.96v19.05h-10.33V39.24Zm44.99 8.64h-12.23v-8.64h34.99v8.64h-12.43v36.88h-10.33Z" style="fill-opacity:1;fill-rule:nonzero;stroke:none;fill:#fff"/></svg>