<svg xmlns="http://www.w3.org/2000/svg" viewBox="0 0 386.64 105.26"><path d="M364.32.94 345 8.2v7.38l4.22-1.58v8l8.45 3.17V10.82l6.65-2.5Z" style="display:inline;fill-opacity:1;stroke-width:1.30421;stroke-miterlimit:4;stroke-dasharray:none;stroke-opacity:1;paint-order:fill markers;stroke:#fff;fill:#fff"/><path d="m365.6.94 19.33 7.25v7.38l-4.22-1.58-8.45-3.17-6.65-2.5Z" style="display:inline;fill:none;fill-opacity:1;stroke-width:1.30421;stroke-miterlimit:4;stroke-dasharray:none;stroke-opacity:1;paint-order:fill markers;stroke:#fff"/><path d="m365.35.56.93.35V8.3l-.93-.35Z" style="display:inline;fill-opacity:1;stroke-width:.778924;stroke-miterlimit:4;stroke-dasharray:none;stroke-opacity:1;paint-order:fill markers;fill:#fff;stroke:#fff"/><path d="m365.6 35.58 19.33-7.24v-7.39l-4.22 1.59v-8l-8.45-3.18V25.7l-6.65 2.5Z" style="display:inline;fill-opacity:1;stroke-width:1.30421;stroke-miterlimit:4;stroke-dasharray:none;stroke-opacity:1;paint-order:fill markers;stroke:#fff;fill:#fff"/><path d="M364.32 35.58 345 28.34v-7.39l4.22 1.59v-.01l8.45 3.17 6.65 2.5Z" style="display:inline;fill:none;fill-opacity:1;stroke-width:1.30421;stroke-miterlimit:4;stroke-dasharray:none;stroke-opacity:1;paint-order:fill markers;stroke:#fff"/><path d="m364.58 35.96-.93-.35v-7.38l.93.35Z" style="display:inline;fill-opacity:1;stroke-width:.778924;stroke-miterlimit:4;stroke-dasharray:none;stroke-opacity:1;paint-order:fill markers;stroke:#fff;fill:#fff"/><path d="M.3 2.3v8.14h14.2v23.78h10.2V10.44h14.2V2.3Zm39.46 0v31.92h10.19V22.7h21.97v11.53H82.1V2.3H71.9v11.44H49.96V2.3Zm68.07-.48c-13.35 0-16.32.34-18.76 2.2-2.44 1.87-3.16 5.13-3.16 14.03 0 9.38.67 12.53 3.16 14.45 2.44 1.86 5.4 2.2 18.86 2.2 13.2 0 16.22-.34 18.66-2.2 2.44-1.87 3.16-5.07 3.16-14.26 0-9.14-.72-12.35-3.16-14.21s-5.41-2.2-18.76-2.2m0 8.28c8.9 0 9.95.15 11.05 1.44.87 1.05 1.15 2.87 1.15 7.6 0 3.88-.33 5.27-1.43 6.13-1.3.96-2.87 1.15-10.67 1.15-8.04 0-9.58-.14-10.87-1.15-1.15-.9-1.43-2.2-1.43-6.17 0-4.07.19-5.89.76-6.99.96-1.86 1.87-2 11.44-2M133.6 2.3v31.92h9.56l-.23-23.88h1.72l12.01 23.88h8.09l12-23.88h1.63l-.23 23.88h9.57V2.3H170.2l-9.52 20.72L151.2 2.3Zm57.45 21.35v1.53c0 4.4.71 6.27 2.92 7.65 2.25 1.44 6.12 1.87 16.03 1.87 9.52 0 13.54-.24 15.45-.96 3.3-1.24 4.65-3.97 4.65-9.52 0-4.45-.82-6.6-3.02-8.04-2.06-1.3-4.12-1.53-14.64-1.87-6.75-.19-9.38-.33-10.24-.57-1-.24-1.44-.86-1.44-2.06 0-2.34.67-2.53 8.9-2.53 6.9 0 8.09.1 8.9.57.72.43.86.86.96 2.63h9.38c.05-.62.05-1.29.05-1.48 0-3.78-.77-5.8-2.68-7.08-2.25-1.53-5.6-1.97-14.89-1.97-7.65 0-12.05.2-13.92.58-4.4.96-6.13 3.68-6.13 9.76 0 7.04 2.2 9.04 10.1 9.28l2.58.1 5.17.24 7.66.29c3.11.04 3.83.52 3.83 2.44 0 2.82 0 2.82-10.43 2.82-6.85 0-7.9-.1-8.8-.67-.77-.48-.97-1.1-.97-3.02Zm63.7-21.83c-13.35 0-16.31.34-18.75 2.2-2.45 1.87-3.16 5.13-3.16 14.03 0 9.38.67 12.53 3.16 14.45 2.44 1.86 5.4 2.2 18.85 2.2 13.2 0 16.22-.34 18.66-2.2 2.44-1.87 3.16-5.07 3.16-14.26 0-9.14-.72-12.35-3.16-14.21s-5.4-2.2-18.76-2.2m0 8.28c8.9 0 9.96.15 11.06 1.44.86 1.05 1.15 2.87 1.15 7.6 0 3.88-.34 5.27-1.44 6.13-1.3.96-2.87 1.15-10.67 1.15-8.04 0-9.57-.14-10.86-1.15-1.15-.9-1.44-2.2-1.44-6.17 0-4.07.2-5.89.77-6.99.95-1.86 1.86-2 11.43-2m25.77-7.82v31.92h9.9l-.24-23.83h1.06l16.8 23.83h16.89V2.3h-9.91l.24 23.79h-1L297.56 2.3Z" style="font:700 32.5088px/1.25&quot;Microgramma D Extended&quot;;font-feature-settings:normal;text-align:start;writing-mode:lr-tb;text-anchor:start;fill-opacity:1;stroke-width:.40636;letter-spacing:0;word-spacing:0;display:inline;fill:#fff"/><path d="M18.92 53.88v45.65H32.6l-.34-34.15h2.47L51.9 99.53h11.57l17.17-34.15h2.33l-.34 34.15h13.69V53.88H71.27L57.65 83.52 44.1 53.88Zm114.18-.68c-19.08 0-23.33.48-26.82 3.15s-4.52 7.32-4.52 20.05c0 13.41.96 17.93 4.52 20.67 3.5 2.67 7.74 3.14 26.97 3.14 18.88 0 23.2-.47 26.69-3.14s4.51-7.26 4.51-20.4c0-13.07-1.02-17.65-4.51-20.32-3.5-2.67-7.74-3.15-26.83-3.15Zm0 11.84c12.74 0 14.24.2 15.82 2.05 1.23 1.5 1.64 4.1 1.64 10.88 0 5.55-.48 7.53-2.05 8.76-1.85 1.37-4.1 1.64-15.26 1.64-11.5 0-13.7-.2-15.54-1.64-1.64-1.3-2.05-3.15-2.05-8.83 0-5.81.27-8.41 1.1-9.99 1.36-2.67 2.66-2.87 16.35-2.87Z" style="font:700 46.4917px/1.25&quot;Microgramma D Extended&quot;;font-feature-settings:normal;text-align:start;writing-mode:lr-tb;text-anchor:start;fill:none;fill-opacity:1;stroke-width:1.26019;stroke-miterlimit:4;stroke-dasharray:none;stroke-opacity:1;letter-spacing:0;word-spacing:0;display:inline;stroke:#fff"/><path d="m213.86 48.52-32.23 56.32h4.3l-.03.05h7.43l32.29-56.32h-4.3l.03-.05Z" style="font:700 46.4917px/1.25&quot;Microgramma D Extended&quot;;font-feature-settings:normal;text-align:start;writing-mode:lr-tb;text-anchor:start;fill-opacity:1;stroke-width:.498746;stroke-opacity:1;letter-spacing:0;word-spacing:0;display:inline;fill:#fff"/><path d="M242.8 53.88v11.64h20.32v34.01h14.58V65.52h20.32V53.88Zm89.74-.68c-19.1 0-23.34.48-26.83 3.15-3.5 2.67-4.52 7.32-4.52 20.05 0 13.41.96 17.93 4.52 20.67 3.49 2.67 7.73 3.14 26.96 3.14 18.9 0 23.2-.47 26.7-3.14 3.48-2.67 4.5-7.26 4.5-20.4 0-13.07-1.02-17.65-4.5-20.32-3.5-2.67-7.74-3.15-26.83-3.15m0 11.84c12.72 0 14.23.2 15.8 2.05 1.24 1.5 1.65 4.1 1.65 10.88 0 5.55-.48 7.53-2.06 8.76-1.84 1.37-4.1 1.64-15.26 1.64-11.5 0-13.69-.2-15.53-1.64-1.64-1.3-2.06-3.15-2.06-8.83 0-5.81.28-8.41 1.1-9.99 1.37-2.67 2.67-2.87 16.36-2.87" style="font:700 46.4917px/1.25&quot;Microgramma D Extended&quot;;font-feature-settings:normal;text-align:start;writing-mode:lr-tb;text-anchor:start;fill-opacity:1;stroke-width:.581147;stroke-opacity:1;letter-spacing:0;word-spacing:0;display:inline;fill:#fff"/></svg>