<svg xmlns="http://www.w3.org/2000/svg" viewBox="0 0 200 40"><path d="M12.67 29.38H6.73l4.38-18.75h7.44l.54 9.53h.21l3.9-9.53h7.44l-2.22 18.74h-5.97l1.26-9.09h-.21l-3.75 9.1H15.4l-.63-9.1h-.15Zm31.56-7.08h-5.7l-.4 2.27h7l-.85 4.8H31.6l3.3-18.74h12.55l-1.56 4.8h-6.16l-.41 2.52H45Zm3.27 7.07 3.3-18.74h7.98q3.87 0 5.5 1.36 1.64 1.36 1.64 4.42 0 1.57-.36 3.6-.9 5.04-3.08 7.2-2.17 2.17-7 2.16ZM58 15.44h-2.37l-1.6 9.15h2.38q1.17 0 1.74-.29t.75-1.3l1.05-5.97q.03-.19.03-.48 0-.69-.48-.9a4 4 0 0 0-1.5-.21m8.6 13.95 3.3-18.75h5.7l-3.3 18.74Zm13.5 0h-6L82 10.63h8.82l1.32 18.74H86.1l-.12-2.96h-4.71Zm5.14-13-2.1 5.26h2.4V16.4Zm25.08 8.47h-3.72l-.78 4.52h-5.7l3.3-18.74h9q5.1 0 5.1 4.73a12.3 12.3 0 0 1-2.03 6.95 6.2 6.2 0 0 1-5.17 2.54m6.99 4.52 3.3-18.74h5.7l-2.46 13.94h5.02l5.87-13.94h8.82l1.32 18.74h-6.03l-.12-2.96h-4.71l-1.17 2.97h-6l2.02-4.8h.68l-.84 4.8Zm20.67-12.98-2.1 5.25h2.4V16.4Zm14.49-5.76.39 6.6h.21l2.76-6.6h6.3l-7.56 13.64-.87 5.1H148l.87-5.1-2.7-13.64Zm20.1 11.67h-5.7l-.39 2.27h6.99l-.84 4.8h-12.69l3.3-18.74h12.54l-1.56 4.8h-6.15l-.42 2.52h5.7Zm18.8 7.07h-6.26l-1.38-5.57h-1.23l-.96 5.57h-5.7l3.3-18.74h9q5.13 0 5.13 4.58 0 1.9-.57 3.6-1.05 3.25-3.3 4.33Zm-7.4-13.94-.66 3.75h1.32q1.03 0 1.54-.23.53-.22.72-1.29.2-1.06.2-1.3 0-.6-.47-.77a5 5 0 0 0-1.51-.16Zm-74.51-2.61a4.62 4.62 0 1 0 0 9.25 4.62 4.62 0 0 0 0-9.25" style="fill:#fff"/><path d="M107.96 15.12v4.97l4-2.54z" style="fill-opacity:1;fill-rule:evenodd;stroke:none;stroke-width:.1;stroke-linecap:butt;stroke-linejoin:miter;stroke-miterlimit:4;stroke-dasharray:none;stroke-opacity:1;fill:#fff"/></svg>