<svg xmlns="http://www.w3.org/2000/svg" viewBox="0 0 3790.2 1124.33"><path d="M467.17 596.25q0 28.88-14.7 51.68-19.25 28.88-62.32 39.52-28.37 7.1-55.73 8.62t-63.33 4.05q-18.24.5-41.55 1.01H195.1q-30.4 0-37.5-.5h-16.72q-9.12-.5-20.26-1.02-1.02-1.52-2.03-2.53-1.01-3.04-3.55-6.59-2.53-5.57-7.09-11.65-3.55-1.01-9.12-16.72t-7.6-17.23q-1.01-3.54-3.04-8.1-.5-2.54-2.03-6.08-1-4.06-2.53-9.63-.5-2.53-1.52-6.08-1.01-9.63-4.56-25.33-1.01-12.16-3.55-28.38 0-6.08-1.52-19.25 0-2.03-.5-5.07 0-7.6-1.02-18.24 0-8.1-.5-18.74v-2.03q0-3.55-.5-8.61v-69.42q.5-15.2 1.51-34.96.5-11.14 2.03-25.33.5-3.04 1.01-7.1 3.55-1.51 7.6-3.54t8.61-5.07q1.52-2.53 17.23-6.58 15.7-4.56 17.23-5.58 1.52-1.52 21.78-3.54 8.62-1.02 11.15-2.03 11.15-.5 26.35-2.03 13.17-1 30.4-2.02 15.2-1.02 34.45-2.03 13.17-1.01 41.55-.5l34.96.5q50.66 2.03 79.04 16.72 20.26 10.13 30.4 33.44.5 1.01 9.62 22.3 7.1 16.2 7.6 28.37v1.52q.51 12.66-5.06 24.82-5.07 6.6-15.7 19.76-14.7 17.23-35.48 27.36v1.52q5.58 8.62 19.76 16.72 18.75 9.63 23.31 13.68 18.24 16.72 25.33 46.62 2.54 11.65 2.54 23.3M310.6 441.72q0-10.64-9.63-17.23l-1.01-.5q-14.7-6.08-22.8-6.08-30.4 0-35.47 3.54-3.55 0-7.1 1.02-5.57 1.01-12.15 2.02 0 22.8 4.05 24.83 1.01 8.1 4.05 16.21 2.54 1.02 18.75 1.02h13.68q10.64-1.02 23.3-2.54 6.6-1.52 17.23-7.09 7.1-6.59 7.1-15.2m-.5 132.24q-2.54-18.24-27.88-20.27h-3.54q-26.35-1-31.42 2.03-1 0-12.16 2.03-10.64 1.52-10.64 3.04 0 13.68 2.03 15.2l.5 1.52v.5l.51 1.02v1.01q.51.5 1.02 1.52.5.5 3.04 11.15 3.04 10.13 4.56 10.13 37.5 0 46.61-2.03 19.76-4.56 23.81-11.65 5.07-4.56 3.55-15.2m551.24-57.25q0 35.46-1.01 39.52-7.6 45.1-28.37 72.45-8.62 11.65-22.3 22.3-19.25 29.89-61.81 43.06-37.5 11.65-81.07 12.16-10.13 0-35.97-4.05l-8.1-1.02q-12.17-1.52-35.47-5.57-5.58-1.52-23.82-7.6-16.21-5.57-24.82-11.65-1.52-1.02-4.56-2.54l-1.52-1.52q-24.32-16.72-36.99-33.94-4.56-6.08-14.19-22.8-24.82-44.59-24.32-111.98V501q0-37.5 10.64-60.3 5.07-25.83 19.26-46.1 1.52-1.01 3.04-2.53 7.6-8.62 25.84-20.78 4.05-2.53 12.66-8.6 2.54-4.57 6.08-8.62 4.56-2.03 13.18-6.59l6.08-1.01q3.54-2.54 11.65-7.6 2.03-1.02 4.56-2.54 8.1-5.57 19.76-9.62 5.57-.5 17.73-2.03l4.56-1.01q7.1-1.02 25.84-5.07l2.54-1.01q9.12-.5 13.68-.5 42.56-.52 70.93 13.16 5.57-.5 11.15-.5h1.01q4.05.5 8.61.5 16.72 7.1 32.94 18.75 3.04.5 5.57 1.52 14.19 12.16 26.85 30.9 1.02 3.05 2.03 5.58 1.01 2.03 11.15 15.2 5.57 7.1 7.6 20.27l4.56 4.56q6.08 9.62 10.13 20.77 5.07 13.17 4.56 20.27-.5 5.06 5.57 24.82 6.08 19.26 4.56 23.82m-153.01 2.53q0-47.12-17.23-62.32-7.6-6.59-22.8-7.6l-2.53-1.01q-12.16.5-19.25 5.57-10.64 1.52-16.72 10.13-.51 7.6-5.07 24.32-3.04 2.03-9.63 8.62-1.52 19.25 0 28.37.51 5.07 5.07 11.15l3.04 7.1q5.57 13.67 18.75 20.26 2.02 1.52 2.53 6.08.5 6.58.5 7.6 1.02 4.05 4.57 9.12 7.09 3.54 14.18 3.54 10.64 0 19.26-7.6 9.12-8.1 9.12-34.96 0-10.13-1.02-17.22 8.11-4.56 10.64-13.18 3.55 7.1 5.07 7.1t1.52-5.07m-15.7-21.28v-.5q-.51-.51 0 .5m9.62 14.7q0 2.53-.5 4.55-2.03-3.54-9.13-19.25 10.14 7.1 9.63 14.7m637.39 101.83q0 1.02-7.6 2.54-7.1 1.52-7.1 2.53-4.05 1.01-8.1 2.53 0 1.52-26.35 7.6-25.84 5.58-25.84 10.14 0-7.6.5-21.28-1-3.55-3.03-38-1.02-26.86-5.58-26.86-1.01 0-1.52.51l-.5.5q-2.54 2.54-27.36 55.23-22.8 47.63-28.38 47.63-25.84 42.56-30.4 40.53-13.68-2.02-28.88-7.6-2.02-2.02-17.73-7.09-15.2-5.07-16.72-7.6-1.52-3.04-8.61-20.27-6.08-15.7-6.59-15.7l-6.08-9.12q-5.57-9.63-8.61-9.63-.51 0-1.52 1.01-.51.51-1.02.51-2.53 0-14.69-17.73-11.65-17.74-15.2-17.74-3.04 0-12.67-18.24-5.57-10.64-10.64-20.77-3.54-4.05-9.62-12.16-2.03 4.05-5.07 44.08t-5.07 43.57q-1.01 1.52-8.1 41.04-7.1 35.98-13.18 35.98-27.36-1.52-47.12-3.04-48.13-3.55-52.69-7.6-4.05-4.56-8.61-50.16-5.58-49.66-6.59-52.7-1.52-6.58-3.55-47.12-1.01-22.29-2.53-44.08-1.01-9.62-1.01-78.02v-30.4q0-.5 6.58-5.58 7.1-5.57 7.1-6.08t2.02-1.52 2.03-1.52q0-1 2.53-2.53 2.54-1.52 2.54-2.03.5-7.09 26.85-18.24 28.37-12.16 31.41-15.7 5.07-6.08 31.42-10.64 20.77-4.06 32.93-4.06 3.55 0 27.87 59.28 24.82 59.28 29.38 61.82 13.18 7.1 21.79 15.7 6.08-12.16 14.7-21.28 2.53 3.04 11.14-12.66t9.12-15.7 11.65-27.88 14.19-31.4q3.04-3.56 28.37-8.12 25.34-5.06 27.87-7.09 3.04-2.53 20.27-5.07 17.73-2.53 18.74-3.04 9.63-4.56 54.72-4.56 10.14 0 22.3 61.82 14.18 71.94 15.7 76 4.56 9.12 7.6 77.01 2.54 53.2 2.54 80.05m-74.48 3.04v1.02zm461.57-21.28q0 28.88-14.7 51.68-19.25 28.88-62.31 39.52-28.38 7.1-55.74 8.62t-63.33 4.05q-18.24.5-41.55 1.01h-34.44q-30.4 0-37.5-.5h-16.72q-9.12-.5-20.27-1.02-1.01-1.52-2.03-2.53-1-3.04-3.54-6.59-2.54-5.57-7.1-11.65-3.54-1.01-9.12-16.72t-7.6-17.23q-1-3.54-3.04-8.1-.5-2.54-2.02-6.08-1.02-4.06-2.54-9.63-.5-2.53-1.52-6.08-1-9.63-4.56-25.33-1-12.16-3.54-28.38 0-6.08-1.52-19.25 0-2.03-.5-5.07 0-7.6-1.02-18.24 0-8.1-.5-18.74v-2.03q0-3.55-.52-8.61v-69.42q.51-15.2 1.52-34.96.51-11.14 2.03-25.33.5-3.04 1.01-7.1 3.55-1.51 7.6-3.54t8.62-5.07q1.52-2.53 17.22-6.58 15.71-4.56 17.23-5.58 1.52-1.52 21.79-3.54 8.61-1.02 11.14-2.03 11.15-.5 26.35-2.03 13.17-1 30.4-2.02 15.2-1.02 34.45-2.03 13.18-1.01 41.55-.5l34.96.5q50.67 2.03 79.04 16.72 20.27 10.13 30.4 33.44.5 1.01 9.63 22.3 7.1 16.2 7.6 28.37v1.52q.5 12.66-5.07 24.82-5.07 6.6-15.7 19.76-14.7 17.23-35.47 27.36v1.52q5.57 8.62 19.76 16.72 18.74 9.63 23.3 13.68 18.24 16.72 25.34 46.62 2.53 11.65 2.53 23.3m-156.56-154.53q0-10.64-9.63-17.23l-1-.5q-14.7-6.08-22.8-6.08-30.4 0-35.48 3.54-3.54 0-7.09 1.02-5.57 1.01-12.16 2.02 0 22.8 4.05 24.83 1.02 8.1 4.06 16.21 2.53 1.02 18.74 1.02h13.68q10.64-1.02 23.31-2.54 6.59-1.52 17.23-7.09 7.1-6.59 7.1-15.2m-.5 132.24q-2.54-18.24-27.87-20.27h-3.55q-26.35-1-31.41 2.03-1.02 0-12.16 2.03-10.64 1.52-10.64 3.04 0 13.68 2.02 15.2l.51 1.52v.5l.5 1.02v1.01q.51.5 1.02 1.52.5.5 3.04 11.15 3.04 10.13 4.56 10.13 37.5 0 46.61-2.03 19.76-4.56 23.82-11.65 5.06-4.56 3.54-15.2m476.77 99.3q0 5.58-41.04 13.18-47.63 8.1-49.66 9.12-15.7 6.59-146.93 6.59-7.6 0-20.27-28.88-12.16-29.39-17.22-30.4-9.12-1.52-19.76-31.42-11.66-33.94-12.16-33.94-3.04-4.06-7.1-33.95-4.56-34.96-5.57-37.5-4.56-17.22-4.56-109.43 0-6.59 24.83-18.24 24.82-12.16 25.33-17.23 2.03-8.61 26.85-18.24l28.38-10.13q4.56-3.55 29.89-6.59 15.7-2.03 31.41-3.55 9.63-1.52 90.19-1.52 8.1 0 17.73 16.22 10.14 15.7 11.15 15.7 4.56.51 11.15 18.24 6.58 17.74 9.12 19.26 3.04 1.01 6.08 3.04 0 2.02-15.71 8.1-15.2 6.08-15.2 10.14 0 5.57-28.88 12.66-32.93 7.6-34.45 8.62v23.3q-.51.51-.51 1.02 0 1.52 7.6 3.04 4.56 1.01 8.61 1.52 7.1 0 5.07-.5 3.55-.52 6.08-1.53 2.03.5 1.01 1.01-.5.51 1.52 1.52 2.03.51 2.03 1.02l12.16 5.06q.5 0 4.05 5.58t6.08 5.57q.51 0 5.58 5.57 5.06 5.07 5.57 5.07 3.55 0 8.61 8.61 5.58 8.62 6.59 9.12 6.59 3.04 6.59 27.36 0 2.54-12.16 7.1-12.16 4.05-13.18 5.57-4.05 5.57-29.89 5.57h-57.76q-21.79 0-26.35 3.04.51 13.18 2.54 27.36 1.52.51 13.17.51h13.17q8.62-1.01 28.88-1.01 16.72 0 46.11 2.02 38 2.54 43.07 6.08 5.06 3.55 9.12 39.02 3.04 27.36 3.04 42.56m400.77-4.05q0 6.08-28.37 14.2-31.42 8.6-33.44 10.12-8.62 7.1-66.88 7.1-3.55 0-19.26-15.2-17.22-16.22-19.76-17.23-7.09-8.1-16.72-18.24-7.09-8.61-17.22-20.27-12.67-17.22-27.87-36.98-2.03 2.02-5.57 6.08-2.03 9.12-4.06 18.74-.5 3.55-1.52 8.11-.5 4.05-2.02 9.12-.51 1.01-1.52 8.1-1.02 7.1-2.54 13.69t-3.54 12.66q-3.04 13.68-9.63 28.38-4.56 1.01-24.32 1.01-25.84 0-31.41-2.03-4.56-.5-10.14-1-5.06-1.02-11.14-2.54-1.52-1.02-25.84-6.59-22.3-5.57-24.83-9.63-1.52-12.16-4.56-27.86-1.01-7.6-2.53-19.26-1.52-12.16-3.04-26.85-.51-4.05-1.02-12.16-.5-5.57-1.01-12.67v-1.52q-.5-3.04-.5-6.58 0-1.52-.51-8.62 0-5.06-.51-11.65v-45.09q0-22.3.5-26.35 0-6.59.51-14.19-.5-14.18 2.54-42.05 1.01-14.7 3.54-32.93.51-4.56 1.52-10.64 1.02-9.63 4.06-21.79 1.52-9.63 5.06-20.77 5.07-1.02 11.66-3.55 5.06-.5 11.65-2.03t15.7-3.04l5.07-1q11.66-1.02 13.68-2.04 6.08-2.02 22.3-2.53 20.26-.5 23.3-1.01 7.1-1.02 43.07-1.02h77.52q79.04 0 113.5 34.46 7.09 9.62 12.66 18.74 13.68 21.8 15.7 35.47 2.54 13.17 2.54 24.32 0 23.81-11.15 45.6-11.14 21.28-33.94 31.92-11.15 5.57-27.36 10.13l-2.54.51q.51 1.01.51 2.53 1.52 6.08 1.52 13.18 2.03 2.53 5.57 6.58 2.03 2.03 10.14 12.16l12.16 15.71q16.21 20.77 21.28 29.9 16.72 24.82 33.94 57.25 0 1.01 2.54 5.57 2.53 4.56 2.53 5.57m-174.3-207.73q-4.05-22.8-34.45-22.8-26.85 0-29.89 2.53-.5.51-6.59 2.03-5.57 1.01-5.57 1.52v.5q0 22.8 4.05 24.83 1.52.51 4.06 13.68t4.05 13.18h30.9q7.6 0 14.7-2.03l2.53-.5q4.56-1.53 7.6-3.05l1.52-1q11.66-7.1 7.1-28.89M2925 614.5q0 1.02-7.6 2.54-7.1 1.52-7.1 2.53-4.05 1.01-8.1 2.53 0 1.52-26.35 7.6-25.84 5.58-25.84 10.14 0-7.6.5-21.28-1-3.55-3.03-38-1.02-26.86-5.58-26.86-1.01 0-1.52.51l-.5.5q-2.54 2.54-27.36 55.23-22.8 47.63-28.38 47.63-25.84 42.56-30.4 40.53-13.68-2.02-28.88-7.6-2.02-2.02-17.73-7.09-15.2-5.07-16.72-7.6-1.52-3.04-8.61-20.27-6.08-15.7-6.59-15.7l-6.08-9.12q-5.57-9.63-8.61-9.63-.51 0-1.52 1.01-.51.51-1.02.51-2.53 0-14.69-17.73-11.65-17.74-15.2-17.74-3.04 0-12.67-18.24-5.57-10.64-10.64-20.77-3.54-4.05-9.62-12.16-2.03 4.05-5.07 44.08t-5.07 43.57q-1.01 1.52-8.1 41.04-7.1 35.98-13.18 35.98-27.36-1.52-47.12-3.04-48.13-3.55-52.69-7.6-4.05-4.56-8.61-50.16-5.58-49.66-6.59-52.7-1.52-6.58-3.55-47.12-1.01-22.29-2.53-44.08-1.01-9.62-1.01-78.02v-30.4q0-.5 6.58-5.58 7.1-5.57 7.1-6.08t2.02-1.52 2.03-1.52q0-1 2.53-2.53 2.54-1.52 2.54-2.03.5-7.09 26.85-18.24 28.37-12.16 31.41-15.7 5.07-6.08 31.42-10.64 20.77-4.06 32.93-4.06 3.55 0 27.87 59.28 24.82 59.28 29.38 61.82 13.18 7.1 21.79 15.7 6.08-12.16 14.7-21.28 2.53 3.04 11.14-12.66t9.12-15.7 11.65-27.88 14.19-31.4q3.04-3.56 28.37-8.12 25.34-5.06 27.87-7.09 3.04-2.53 20.27-5.07 17.73-2.53 18.74-3.04 9.63-4.56 54.72-4.56 10.14 0 22.3 61.82 14.18 71.94 15.7 76 4.56 9.12 7.6 77.01 2.54 53.2 2.54 80.05m-74.48 3.04v1.02zm479.81 43.58q0 6.58-24.83 15.7-26.85 10.14-28.88 12.16-3.54 4.56-29.89 8.11-20.77 2.53-32.93 2.53-2.54 0-11.15-17.73-8.61-18.24-11.15-19.76-15.7-2.53-34.96-8.61-2.02-2.03-20.26-7.6-17.74-5.58-19.76-9.12-3.04-5.58-17.74-5.58-10.64 0-24.82 17.74l-14.19 18.24q-6.08 1.52-11.65 3.04-11.15 3.54-13.68 7.6-2.03 3.54-23.31 9.12-23.81 5.57-26.85 7.6-10.14 6.58-51.68 6.58-5.07 0-6.59-24.82-1.52-27.87-3.55-30.4-2.02-2.54-2.02-11.15 0-11.15 3.54-40.03t3.55-32.42q0-8.1 10.13-46.1 9.12-34.46 13.68-48.14 13.68-43.07 33.44-97.79 3.55-5.57 26.35-12.67 23.3-7.6 23.81-8.6 3.55-4.57 29.9-10.65 28.88-7.1 30.9-8.1 6.08-3.55 38.51-6.09 25.84-2.53 40.03-2.53 8.1 0 26.34 28.37 20.27 31.42 23.82 33.95 3.54 2.53 21.78 43.57 19.26 44.6 25.84 53.2 4.06 5.58 17.23 42.56 15.2 43.07 16.21 45.6 5.58 11.66 15.2 48.14 9.63 36.48 9.63 44.08m-195.07-165.18q1.02-1 0-14.18-1.52-16.22-1.52-14.19 0-2.53-3.54-14.19-3.04-11.65-4.06-12.16t-6.58-13.68q-5.58-13.68-7.1-13.68-6.58 0-9.62 4.06-10.64 47.62-22.3 97.78 0 1.52 12.16 4.06 12.67 2.02 13.18 2.02 3.54 2.03 26.85 2.03l1.01-23.3q.51-4.06 1.52-4.57m594.32 127.68q0 11.15-45.6 27.87-47.62 17.23-50.16 22.3-1 2.53-3.54 2.53-6.59 0-35.98-34.96-28.88-35.47-36.48-35.47-3.54 0-18.74-21.28-15.2-21.79-17.74-22.8-10.13-4.05-14.69-8.61-3.55-3.55-7.1 20.26-3.03 23.82-4.05 21.8-.5-.52-1-.52-2.54 0-5.58 25.84l-1.52 23.82q-1.02 23.81-3.04 29.38t-36.99 14.2q-20.77 5.06-42.05 10.12-6.59 2.54-34.46 2.54-8.1 0-17.73-42.06-.5-3.04-9.12-51.17-6.08-34.96-10.64-44.59-4.05-9.62-7.1-78.02-2.53-53.2-2.53-80.06 0-11.65 50.16-29.89 52.2-18.75 55.23-25.33 2.03-4.56 6.08-4.56 7.1 0 29.9 20.26t29.89 20.27q7.6 0 29.9 32.93 14.18 21.28 28.36 43.07l13.68 17.23q1.02-3.04 2.03-69.92 1.52-67.39 4.05-70.94 6.08-8.6 53.71-14.69 36.48-5.07 54.21-5.07 10.14 0 22.3 61.31 14.7 73.47 16.21 77.01 4.05 10.64 7.6 82.6 2.53 55.72 2.53 84.6" aria-label="BOMBERMAN" style="font-size:506.667px;font-family:Bomberman;-inkscape-font-specification:Bomberman;text-align:center;baseline-shift:baseline;text-anchor:middle;white-space:pre;fill:#fff"/></svg>