<?xml version="1.0" encoding="UTF-8" standalone="no"?><svg viewBox="0 0 272.67 135" version="1.1" id="svg2" xmlns="http://www.w3.org/2000/svg" xmlns:svg="http://www.w3.org/2000/svg"><path fill="currentColor" d="M0 0h272.67v135H0zm262.67 9.08H9.42V126h253.25zm-90.28 112.98c-2.53-1.77-3.76-4.2-3.95-9.46-.16-4.73.47-7.09 1.82-9.21 1.32-2.1 3.19-2.83 5.7-2.65a6 6 0 0 1 2.95.86c1.09.77 2.16 2.73 2.7 4.5l.3 1.04s-.81.36-1.96.79l-1.78.67-.3-.89c-.43-1.3-1.3-2.03-2.2-2.03-2.22 0-2.94 1.5-2.94 6.32 0 3.84.69 5.27 2.12 5.77 1.55.54 2.34-.68 2.91-1.91.3-.62.4-1.4.46-2.07l3.84 1.7c-.58 3.8-1.5 4.96-2.52 5.92-.87.84-1.63 1.24-3.74 1.32-1.86.07-2.63-.12-3.4-.67M13.67 100.97h5.62l2.27 12.55 2.2-12.55h5.57v21.34h-3.39v-15.56L23.2 122.3h-3.13l-2.7-15.81v15.8h-3.7zm18.66 0h11.34v4.43H36.5v3.53h6.83v4.74H36.5v3.92H44v4.72H32.33zm14 0 4.69-.02c3.86.1 3.92.29 4.94 1.02a7.5 7.5 0 0 1 2 2.66c.83 1.77 1.26 2.14 1.26 7.2 0 5.18-.76 6.27-1.33 7.26-1.38 2.38-1.85 3.19-7 3.22h-4.56zm7.22 16.2c1.84-1.29 1.93-9.03.12-10.67a4 4 0 0 0-1.8-.73l-1.2-.02v11.91h1.09c.6 0 1.4-.22 1.79-.49m8.12-16.2H66v21.34h-4.33zm11.35 0h4.59l5.16 21.34h-4.36l-.84-3.34-4.73.02-.7 3.32h-4.4zm3.63 13.22-1.4-7.29-1.48 7.29zM105 100.96l4 .02 5.3 11.6.03-11.58H118v21.33l-3.84-.01-5-11.48-.18 11.49H105zm16.33.04h4.13v7.6h4.87V101h4.33v21.33h-4.33v-8.6h-4.87v8.6h-4.13zm129.33 5.33h-4.33V101h13v5.33h-4.67v16h-4zm-159.68-5.36h11.33v4.42h-7.16v3.53h6.83v4.74h-6.83v3.92h7.5v4.72H90.98zm50.4.07h4.6l5.16 21.33h-4.37l-.84-3.33-4.73.02-.69 3.31h-4.4zm3.64 13.21-1.4-7.28-1.48 7.28zm7.72-13.3 3.99.02 5.31 11.6.03-11.58h3.67v21.33h-3.84l-5-11.49-.18 11.5h-3.98zm31.65-.05h11.33v4.43h-7.17v3.53h6.84v4.74h-6.84v3.92h7.5v4.72H184.4zm32.39.15h11.33v4.43h-7.16V109h6.83v4.75h-6.83v3.92h7.5v4.71h-11.67zm-18.5 0h5.62l2.27 12.54 2.2-12.54h5.57v21.33h-3.39v-15.56l-2.75 15.56h-3.13l-2.7-15.8v15.8h-3.7zm32.54-.04 3.99.02 5.31 11.6.03-11.58h3.67v21.33l-3.84-.01-5-11.48-.18 11.49h-3.98z" id="path1" style="fill:#ffffff"/><path d="M114.67 73.36h34.7c3.67 0 5.44-.92 6.6-1.6 4.72-2.73 6.97-6.8 6.95-11.73a13.5 13.5 0 0 0-7.84-12.3c-1.87-.87-2-1.06-10.08-1.06-1.55 0-3.58.03-5.14 0-6.47-.13-11.72-5.1-11.68-10.28.04-5.6 2.47-10.91 12.78-10.91h32.38v9.19h-33.5c-1.85 0-2.07.67-2.07 1.3 0 .68.25 1.71 2.02 1.71h6.2c7.6 0 9.11.2 13 1.76 6.04 2.44 11.51 8.3 13.44 14.4.98 3.08 1.04 8.75.13 11.5a26.1 26.1 0 0 1-14.95 15.93c-1.71.68-5.16 1.07-8.83 1.08h-34.11zm0-12.35h33.53c1.12 0 2.1-.3 2.1-1.5 0-.93-.92-1.5-1.95-1.5h-6.75c-7.78 0-9.42-.26-13.16-2-6.6-3.06-11.77-9.07-13.26-15.38-.65-2.78-.64-6.85.02-9.42.62-2.41 2.4-6.08 4.02-8.28a29 29 0 0 1 8.03-7.02c4.36-2.28 9.16-2.64 13.6-2.64h32.49V22h-32.36c-9.96 0-15.4 6.46-15.43 13.6.16 6.41 4.54 13.4 13.8 13.4 1.66 0 7.94-.03 9.7 0a12.3 12.3 0 0 1 10.18 5.92c1.54 2.6 1.52 6.35.23 9.1a10.7 10.7 0 0 1-7.6 5.95c-.36.07-1.22.27-2.53.27h-34.66zm95.16 22.29a36.6 36.6 0 0 1-21-10.46c-4.52-4.54-10.5-14-10.5-24.32V13l27.1.18v30.88c0 4.66 3.44 10.58 11.57 12.03l-.17 27.45-2.33.02a46 46 0 0 1-4.67-.25m9.5-27.25c.52-.04 1.75-.2 2.18-.32l6.06 27.48c-2.33.26-6 .32-8.05.32zm3.09-.61a12 12 0 0 0 2.39-1.09l14.98 24.72a38 38 0 0 1-8.96 3.6zm3.5-1.85c.44-.36 1.46-1.3 1.75-1.64l21.16 20.09a40 40 0 0 1-7.12 5.96zm2.7-2.81a9 9 0 0 0 1.18-1.93l25.16 14.01c-.48 1.29-3.57 6.23-4.83 7.65zm1.74-3.6c.18-.45.39-1.57.44-2.03l26.95 7.57a39 39 0 0 1-2.14 8.3zm.52-3.98c.04-.38.07-1 .07-1.35l27.3-.02-.04 2.5a92 92 0 0 1-.27 6.03zM231 13h27.25v27.33H231zM13.33 87h246v9.67h-246zm.06-4.58L65.9 14v56l43.29-56v68.42z" style="fill:#ffffff" id="path2"/></svg>