<svg xmlns="http://www.w3.org/2000/svg" viewBox="0 0 556 150"><path d="M498.64 149.66v-42.02h-38.4v-19h38.4V46.6h18.2v42.03h38.4v19h-38.4v42.02ZM0 0h369.54v149.66H0Zm342.3 20.63-34.73-.01-18.47 25.81-17.85-25.73-88.58.07c-9.24.4-17.13 3.71-23.77 10.36-9.39 9.54-12.4 24.3-7.26 36.63 4.74 12.3 17.45 20.68 30.24 21.07h27c1.65 0 3.23.32 4.5 1.42a5.2 5.2 0 0 1 1.26 5.22c-1.42 4.25-6.24 3.3-9.7 3.47h-50.22l-21.56-78.1-25.18.01L95.66 65.7 83.58 20.85H57.93C56.1 27.5 28.16 128.07 28.16 128.07h30.39l12.08-41.76 11.06 41.85h27.47l11.6-41.7c.08.08 11.61 41.7 11.61 41.7h75.33a35.3 35.3 0 0 0 31.97-17.38c5.37-9 6.08-21.95 1.26-31.43-5.44-11.29-17.06-19.1-29.6-19.41h-27.09l-2.13-.16a5.3 5.3 0 0 1-3.23-3c-.64-1.19-.4-2.93.16-4.1 1.58-3.56 5.45-2.6 8.6-2.86l67.66-.07 15.95 22.19s-37.42 54.15-38.37 56.13h35.06l21.16-30.08 21 30h35.29l-38.21-56.05zm72.98 107.52c1.8-12.72 34.5-20.5 34.5-48.28 0-26.47-18.41-33.2-34.5-33.2-16.1 0-33.24 12.18-33.24 32.17v7.53h24.15v-5.45c0-6.88 3.37-11.17 9.35-11.17s8.8 3.51 8.8 10.64c0 16.1-27.24 22.59-38.65 42.84-4.9 8.64-5.2 25.95-5.2 25.95h67.75v-21.03z" style="fill:#fff"/></svg>