<svg xmlns="http://www.w3.org/2000/svg" id="Layer_1" x="0" y="0" viewBox="0 0 3839 1300"><style id="style1" type="text/css">.st0{fill:#fff}</style><path id="path1" d="M3173.9 30v1239.9H30V30zm30-30H0v1299.9h3203.9z" class="st0" style="fill:#fff"/><path id="path2" d="M2033.2 428.4v-.1h-445.5c-69.4 0-69.4 104.1 0 104.1v.1h206.2c382.6 0 382.6 574 0 574v-.1h-636.8l-112.2-411.2-112 411.2h-212L608.7 695.2l-112.1 411.2H253l249.1-913h213.3l111.5 408.7 111.5-408.7h213.2l184.94 678.1H1794v.1c69.3-.1 69.27-104.1-.1-104.1v-.1h-206.2c0-19.57 0-39.13 0 0-382.6 0-382.6-574 0-574h714.6l170.14 239.57L2642.6 193.4h288.1l-314.2 442.42 334.2 470.58h-288.1l-190.16-267.73-190.14 267.73h-288.2l334.26-470.59-147.32-207.41Zm-445.5 339c0 19.57 0 39.13 0 0m0-339.1c0 78.3 0-78.2 0 0" class="st0" style="fill:#fff"/><path id="path3" d="M3281 732.2c1.2-88.6 12.1-160.2 53.4-211 41.3-51 111.6-80.1 228-80.1 225.6 0 276.5 105.6 276.5 234.1 0 116.5-42.5 190.5-106.8 254.7l-133.4 129.8c-19.4 19.4-47.3 44.9-55.8 70.4H3839V1300h-565.3c0-118.9 30.3-228 128.6-328.7l150.5-152.9c43.7-43.7 60.7-76.4 60.7-140.7 0-72.8-23.1-95.9-58.2-95.9-31.5 0-63.1 17-63.1 114.1v36.4H3281z" class="st0" style="fill:#fff"/></svg>