<svg xmlns="http://www.w3.org/2000/svg" viewBox="0 0 3839 1412.4"><path d="M3809.5 29.5v1353.4H29.5V29.5zM3839 0H0v1412.4h3838.9V0z" class="st0" style="fill:#fff"/><path d="m1593.5 194.6 113.04 159.18L1819.6 194.6h191.5l-208.8 294.03 222.1 312.77h-191.5l-126.37-177.9-126.33 177.9h-191.6l222.15-312.76-97.92-137.84H1118.5c-46.1 0-46.1 69.2 0 69.2h137.1c254.17 0 254.2 381.3.1 381.4H832.4l-74.5-273.2-74.6 273.2H542.5L468 528.2l-74.6 273.2H231.5l165.6-606.8h141.8l74 271.7L687 194.6h141.7l122.9 450.6h304c46.1 0 46.1-69.2 0-69.2v.2h-137.1v-.2c-254.2 0-254.2-381.4 0-381.4ZM458.8 1164.3h96.4v53.5h-189a53.5 53.5 0 0 1-53.5-53.5v-136.1h-81.2v-53.5h81.2v-82.2h125.8v82.2h116.6v53.5H438.5v115.9c0 11.2 9.1 20.3 20.3 20.2m355.5-189.6v189.6h-70.8V974.7H617.6v189.6c0 29.6 24 53.5 53.5 53.5h269v-243H814.3Zm447.1 0h-159.2c-44.6 0-80.8 36.2-80.8 80.8v162.3h125.8v-189.6h114.1zm175.7 0v-82.3h-125.8v325.3H1553c44.6 0 80.8-44.6 80.8-111.2v-20.8c0-66.5-36.2-111.2-80.8-111.2h-115.9zm0 189.7v-136.1h70.8v136.1zm506.6-189.7h-160.9c-44.6 0-80.8 44.6-80.8 111.2v20.8c0 66.5 36.2 111.2 80.8 111.2h160.9c44.6 0 80.8-44.6 80.8-111.2v-20.8c-.1-66.5-36.2-111.2-80.8-111.2m-45.1 189.7h-70.8v-136.1h70.8zM2362.1 85.6V1327h1391.3V85.6zm1095.8 1132.2h-224V813.9h-140.5v-.1h-211.8v404h-224V194.6h519.7L3401.5 374l-.1.1h.1v215.7h-224V395.4h-.1v23.4h-295.8v171.1h295.8l280.4 224h.1z" class="st0" style="fill:#fff"/></svg>