<svg xmlns="http://www.w3.org/2000/svg" viewBox="0 0 1152.4 161.9"><path d="M431.58 0c-6.36.03-12.75.42-13.48 1.15-.93.93-1.04 7.52-1.04 62.62 0 39.18-.24 62.2-.66 63.3-1.32 3.5-2.77 3.66-32.63 3.66-30.67 0-30.87-.03-33.18-4.64-1.08-2.16-1.16-6.57-1.16-63.11 0-54.38-.1-60.9-1.04-61.83C347.48.24 343.94.1 319.56.1h-27.79l-1.05 1.6c-.95 1.45-1.03 7.63-.79 61.84.25 57.81.32 60.46 1.62 66.19 4.17 18.3 13.08 28.03 28.51 31.15 3.6.73 13.67.88 50.26.77 41.3-.13 46.13-.26 49.73-1.3 13.17-3.84 19.75-10.98 23.66-25.72 1.47-5.55 1.48-5.83 1.7-69.12.16-47.54.02-63.8-.56-64.48-.6-.73-6.92-1.06-13.27-1.04m706.46.04c-6.47.03-12.9.35-13.41.96-.53.64-.79 17.58-.91 59.68l-.17 58.78-26.48-58.76c-14.56-32.31-26.9-59.17-27.4-59.67-.76-.76-7.1-.92-36.97-.92h-36.05l-1.03 1.47c-.92 1.32-1.03 9.96-1.03 79.57 0 77.2.01 78.1 1.32 79.42 1.23 1.22 2.21 1.32 13.14 1.32 9.15 0 12.1-.2 13.1-.94 1.24-.91 1.29-2.5 1.61-60.1l.33-59.16 26.82 59.49c15.63 34.66 27.3 59.74 27.97 60.1s15.96.61 36.3.61c31.05 0 35.25-.12 36.17-1.04.94-.93 1.04-9.11 1.04-80.1 0-60.6-.18-79.24-.8-79.85-.6-.6-7.09-.88-13.55-.86M682.2.11h-57.54c-54.73 0-57.79.06-62.56 1.28-6.83 1.75-11.34 4.17-15.47 8.3-5.71 5.7-9.5 14.85-10.88 26.2-.88 7.37-.9 82.86 0 89.93 1.3 10.47 4.64 19.38 9.37 25.07 4.07 4.9 11.92 9.02 19.64 10.32 4.88.82 120 .82 121.54 0 1.25-.67 1.28-1.92 1.28-49.09v-48.4l-1.7-.64c-1.04-.4-17.64-.65-42.62-.65-35.96 0-41.1.13-42.4 1.04-1.44 1-1.47 1.32-1.47 14.78 0 9.81.23 13.98.8 14.55s4.74.8 14.59.8h13.79v16.54c0 16.52 0 16.54-1.6 18.4l-1.6 1.86-12.95.2c-14.37.23-16.52-.23-17.5-3.7-.65-2.36-.65-89.44 0-91.8 1.09-3.88.53-3.83 45.55-3.83 40.26 0 41.17-.03 42.47-1.33 1.23-1.23 1.32-2.2 1.32-14.1 0-10.5-.18-13.05-1.03-14.26zM2.06.1 1.03 1.58C.11 2.9 0 11.54 0 81.15c0 77.2.01 78.1 1.33 79.42 1.22 1.22 2.2 1.32 13.13 1.32 9.15 0 12.1-.2 13.1-.94 1.25-.91 1.3-2.44 1.61-54.34l.33-53.4L46 106.7c9.52 30.9 16.93 53.88 17.53 54.36.78.61 5.83.82 20.02.82 14.15 0 19.25-.2 20.06-.82.68-.51 7.7-21.61 18.2-54.69l17.1-53.85.33 54.04c.29 47.08.46 54.13 1.33 54.67.58.37 12.27.64 28.34.64 26.48.01 27.4-.03 28.68-1.31 1.31-1.31 1.33-2.21 1.33-79.42 0-69.61-.11-78.26-1.03-79.57L196.85.11h-69.51l-.96 1.49c-.53.82-6.7 19.24-13.7 40.94-7.01 21.7-12.94 39.68-13.18 39.95s-5.92-17.56-12.63-39.64c-6.7-22.08-12.6-40.72-13.1-41.44C72.9.14 71.9.11 37.47.11zM780.5.1l-1.03 1.47c-.92 1.32-1.03 9.96-1.03 79.57 0 77.2.01 78.1 1.32 79.42 1.31 1.3 2.22 1.32 62.7 1.32 41.05 0 61.8-.22 62.67-.68 1.2-.65 1.28-1.53 1.28-14.79 0-10.08-.23-14.33-.8-14.9-.6-.6-9.09-.8-34.14-.8H838.1V93.6h61.7l.69-1.8c1.02-2.7.52-27.07-.59-28.17-.67-.68-7.44-.9-31.33-1.05l-30.47-.18V31.27h32.87c21.38 0 33.31-.24 34.15-.68 1.2-.65 1.28-1.53 1.28-14.8 0-10.07-.23-14.32-.8-14.89-.6-.6-15.49-.8-62.95-.8zM162.56 5.4h31.05v.01zm81.78 110.07c-23.45 0-26.9.13-27.8 1.04-.9.9-1.05 3.85-1.05 22.17 0 18.31.14 21.26 1.04 22.16.92.91 4.36 1.04 27.8 1.04s26.9-.13 27.8-1.04c.91-.9 1.05-3.84 1.05-22.16s-.14-21.26-1.04-22.17c-.92-.91-4.36-1.04-27.8-1.04m247.32 0c-23.45 0-26.9.13-27.8 1.04-.9.9-1.05 3.85-1.05 22.17 0 18.31.14 21.26 1.05 22.16.9.91 4.35 1.04 27.8 1.04 23.44 0 26.88-.13 27.8-1.04.9-.9 1.04-3.84 1.04-22.16s-.14-21.26-1.04-22.17c-.92-.91-4.36-1.04-27.8-1.04m241.35 0c-23.44 0-26.89.13-27.8 1.04-.9.9-1.04 3.85-1.04 22.17 0 18.31.13 21.26 1.04 22.16.91.91 4.36 1.04 27.8 1.04s26.89-.13 27.8-1.04c.9-.9 1.04-3.84 1.04-22.16s-.14-21.26-1.04-22.17c-.91-.91-4.36-1.04-27.8-1.04m216.15 0c-23.44 0-26.88.13-27.8 1.04-.9.9-1.04 3.85-1.04 22.17 0 18.31.14 21.26 1.04 22.16.92.91 4.36 1.04 27.8 1.04s26.9-.13 27.8-1.04c.91-.9 1.05-3.84 1.05-22.16s-.14-21.26-1.04-22.17c-.92-.91-4.36-1.04-27.8-1.04" style="fill-opacity:1;stroke:none;stroke-width:1.077;stroke-linecap:square;stroke-miterlimit:4;stroke-dasharray:none;stroke-opacity:.998405;stop-color:#000;fill:#fff"/></svg>