<svg xmlns="http://www.w3.org/2000/svg" viewBox="0 0 338.34 52.95"><path d="M99.53 31.56h-5.08c-.5 0-.9-.41-.91-.92V2.02c0-.5.4-.91.91-.91h5.08c.5 0 .9.4.9.91v28.63c0 .5-.4.9-.9.9m7.71 0h-5.07a.9.9 0 0 1-.91-.92V2.02c0-.5.4-.91.9-.91h5.08c.5 0 .92.4.92.91v28.63c0 .5-.41.9-.92.9m-63.23-4.63c-1.72 0-1.8-1.24-1.8-2.44v-10.4h2.7c.52 0 .95-.4.95-.87v-2.77c0-.48-.43-.87-.95-.87h-2.7V3.32c0-.48-.43-.87-.96-.87h-4.99c-.52 0-.95.4-.95.87v6.24h-5.25c-.52 0-.95.39-.95.87v2.77c0 .48.43.87.95.87h5.25v12.29c0 3.35 2.5 5.19 5.5 5.19h7.63v-4.63z" style="fill:#fff"/><path d="M60.66 8.68a9.2 9.2 0 0 0-7.04 3.16V1.98c0-.48-.43-.87-.95-.87h-5c-.52 0-.95.39-.95.87v28.7c0 .48.43.88.95.88h5c.52 0 .95-.4.95-.88V18.13c0-2.29 2.05-4.05 4.54-4.05s4 1.81 4 3.5v13.1c0 .48.44.88.96.88h5c.52 0 .95-.4.95-.87V16.33c0-3.1-2.87-7.65-8.41-7.65" style="fill:#fff"/><path d="M90.83 22.33h3.11q.16-.94.16-1.95c0-6.74-5.49-12.2-12.56-12.2s-12.57 5.46-12.57 12.2 5.49 11.98 12.56 11.98c5.4 0 9.88-3.05 11.7-7.5H86.6c-1.05 1.42-2.85 2.32-5.28 2.32-2.58 0-4.77-2.04-5.5-4.85zm-9.51-8.97c2.35 0 4.37 1.7 5.27 4.12H76.05c.9-2.43 2.92-4.12 5.27-4.12m39.6-5.18c-7.4 0-13.15 5.46-13.15 12.2s5.74 11.98 13.15 11.98 13.14-5.24 13.14-11.98-5.74-12.2-13.14-12.2m0 19.23c-4.65 0-5.92-3.1-5.92-7.07s1.64-7.2 5.92-7.2c4.27 0 5.91 3.22 5.91 7.2s-1.26 7.07-5.91 7.07M17.02 0C7.63 0 0 7.33 0 16.38s7.62 16.38 17.03 16.38 17.02-7.33 17.02-16.38S26.43 0 17.03 0m.33 27.19c-6.2 0-9.03-4.84-9.03-10.81s3.13-10.81 9.03-10.81 9.02 4.84 9.02 10.8c0 5.98-2.82 10.82-9.02 10.82M289.99 7.14h-5.68a.6.6 0 0 1-.6-.6V3.46a.6.6 0 0 1 .6-.61H290c.33 0 .6.27.6.6v3.07a.6.6 0 0 1-.6.61m-30.28 0h-5.7a.6.6 0 0 1-.6-.6V3.46c0-.33.28-.6.6-.6h5.7c.33 0 .6.27.6.6v3.08a.6.6 0 0 1-.6.6m-28.8 0h-5.75a.57.57 0 0 1-.57-.57V3.43c0-.31.26-.57.57-.57h5.75c.32 0 .58.26.58.57v3.14c0 .31-.26.57-.58.57m-21.48 24.81h-5.08a.9.9 0 0 1-.9-.91V2.4c0-.5.4-.9.9-.9h5.08c.5 0 .91.4.91.9v28.63c0 .5-.41.91-.91.91m80.26 0h-5.08a.9.9 0 0 1-.9-.91V9.86c0-.5.4-.91.9-.91h5.08c.5 0 .9.4.9.9v21.19c0 .5-.4.91-.9.91m-30.29 0h-5.07a.9.9 0 0 1-.91-.91V9.86c0-.5.4-.91.9-.91h5.08c.5 0 .92.4.92.9v21.19c0 .5-.42.91-.92.91m-28.82 0h-5.08a.9.9 0 0 1-.9-.91V9.86c0-.5.4-.91.9-.91h5.08c.5 0 .9.4.9.9v21.19c0 .5-.4.91-.9.91" style="fill:#fff"/><path d="M221.8 27.33c-1.73 0-1.81-1.24-1.81-2.45v-10.4H223c.35 0 .63-.27.63-.59v-3.35c0-.32-.28-.58-.63-.58h-3.02V3.43c0-.31-.28-.57-.63-.57h-5.64c-.35 0-.63.26-.63.57v6.53h-5.56c-.35 0-.64.26-.64.58v3.35c0 .32.29.58.64.58h5.56v12.3c0 3.34 2.5 5.18 5.5 5.18h7.64v-4.62zM329.92 9.08a9.2 9.2 0 0 0-7.04 3.15V9.38c0-.48-.43-.88-.95-.88h-5c-.52 0-.95.4-.95.88v21.7c0 .49.43.88.95.88h5c.52 0 .95-.4.95-.87V18.52c0-2.28 2.05-4.05 4.55-4.05s4 1.81 4 3.5v13.1c0 .49.43.88.95.88h5c.52 0 .95-.4.95-.87V16.73c0-3.11-2.87-7.65-8.4-7.65M187.7 31.37a9.2 9.2 0 0 0 7.04-3.16v2.87c0 .48.42.87.95.87h5c.51 0 .94-.4.94-.87V9.37c0-.48-.43-.88-.95-.88h-5c-.52 0-.94.4-.94.88v12.55c0 2.29-2.06 4.05-4.55 4.05-2.5 0-4-1.81-4-3.5V9.38c0-.48-.43-.88-.96-.88h-5c-.51 0-.94.4-.94.88v14.35c0 3.1 2.86 7.65 8.4 7.65" style="fill:#fff"/><path d="M303.38 8.57c-7.4 0-13.15 5.47-13.15 12.2 0 6.75 5.74 11.99 13.15 11.99s13.14-5.24 13.14-11.98-5.74-12.21-13.14-12.21m0 19.23c-4.65 0-5.92-3.1-5.92-7.07s1.64-7.2 5.92-7.2 5.91 3.22 5.91 7.2-1.26 7.07-5.91 7.07m-50-18.85h-5c-.53 0-1.07.39-1.2.87l-4.48 15.3-5.36-15.3a1.4 1.4 0 0 0-1.25-.87h-5c-.52 0-.81.39-.64.87l5.4 15.42.15.55c1.9 6.52 6.7 6.16 6.7 6.16s4.79.36 6.7-6.16l4.67-15.97c.14-.48-.17-.87-.7-.87m18.21 4.73h14.99V8.95H270.1c-4.01 0-7.3 3-7.3 6.69 0 3.68 3.28 6.69 7.3 6.69h1.69c1.44 0 2.67 1.12 2.67 2.44s-1.23 2.44-2.67 2.44h-12.85v4.74h14.82c4.31 0 7.84-3.23 7.84-7.18s-3.53-7.18-7.84-7.18h-2.18c-1.15 0-2.13-.9-2.13-1.95 0-1.06.98-1.96 2.13-1.96m-94.55-9.34a3 3 0 0 0-1-1.9 3.6 3.6 0 0 0-2.07-.9l-.01-.01-.35-.02h-.06l-.28.02-.14.02q-.1 0-.2.03l-.11.02-.23.05-.05.02q-.76.22-1.37.77l-2.41 2.2-3.05 2.8-3.44 3.14-3.43-3.15-3.05-2.78-2.41-2.21q-.6-.54-1.37-.77l-.05-.01-.23-.06-.11-.02-.2-.03-.14-.02-.28-.01h-.06l-.35.01c-.77.07-1.5.37-2.09.9-.55.5-.9 1.18-.98 1.9v.02q-.03.15-.02.32v26.42c0 .48.42.87.95.87h5c.52 0 .94-.39.94-.87V12.3l6.84 6.26c.6.53 1.5.53 2.09 0l6.84-6.26v18.78c0 .48.43.87.95.87h5c.52 0 .94-.39.94-.87V4.66zM55.92 38.82h226.5v14H55.92Zm26.87 4.72h-3.2v-2.19h-1v2.19h-4.61v.89h3.99a14 14 0 0 1-4.07 4.42l.73.77a17 17 0 0 0 3.97-4.02v4.69c0 .04 1 .37 1 .03v-5.9h3.19Zm8.97.25-4.4.67v-2.63h-1.07v2.8l-2.65.4.14 1 2.51-.4v3.34q0 .45.31.77a1 1 0 0 0 .76.32h4.4v-.99h-4.1q-.3 0-.3-.28v-3.3L90.6 45q-.7 1.05-1.6 1.96l.78.66q1.06-1.05 2.17-2.87Zm11.48-1.04h-6.4v6.6h1.04v-.5h4.32v.5h1.04Zm-5.36 5.13v-4.16h4.32v4.16Zm17.2-3.3v-.94h-5.44q.45-1.18.61-1.88l-.94-.27a13 13 0 0 1-2.6 4.94l.83.6a12 12 0 0 0 1.67-2.45h2.73A7.6 7.6 0 0 1 108.9 50l.82.65a8.5 8.5 0 0 0 3.25-6.08Zm-1.2-2.88-.7.35q.55.64.98 1.38l.71-.33a7 7 0 0 0-1-1.4m1.18-.48-.68.37q.69.81 1.04 1.5l.68-.36a6 6 0 0 0-1.04-1.51m11.17 4.2h-8.38v1h8.38Zm8.35.32-.87.61q.83.8 1.53 1.7-2.33.28-4.28.36 1.4-3.05 2.32-6.26l-1.03-.28a33 33 0 0 1-2.5 6.6h-1.47l.27 1.07q4.5-.14 7.4-.56.33.45.61.95l.81-.6q-.9-1.66-2.8-3.59m14.66-3.05h-3.98l.08-1.72-1.02-.02q0 .87-.07 1.73h-4.07v8.19h1.05v-7.24h2.9a7.4 7.4 0 0 1-2.55 4.7l.74.72a10 10 0 0 0 2.42-3.64 22 22 0 0 1 2.43 3.68l.81-.65a32 32 0 0 0-2.95-4.18q.08-.32.11-.63h3.08v5.92q0 .35-.38.35-1.4 0-1.73-.02l.35 1a19 19 0 0 0 1.4.03q1.38 0 1.38-1.2Zm10.65 5.77q-.18 1.37-.44 1.37-.13 0-.4-.29-.28-.3-.47-.73a16 16 0 0 0 1.46-3.48l-.9-.26q-.54 1.71-.99 2.56-.34-1.24-.4-3.04h2.86v-.84h-2.88v-.64l-.98-.02q-.03.33 0 .66h-5.37V47q0 2.07-.78 3.22l.77.72q.96-1.47.96-3.77v-2.58h4.45q.14 2.58.7 4.2-.49.75-1.43 1.73l.82.47q.7-.7 1.1-1.26.82 1.2 1.54 1.2.58 0 .9-.73.31-.73.34-1.27Zm-4.48-6.86h-1.17v-.67h-1.02v.67h-2.54v.9h2.54v.7h1.02v-.7h1.17Zm1.14 3.5h-3.75v4.95h3.58v-.78h-1v-.68h.98v-2.1h-.98v-.63h1.17Zm-2.83 1.4v-.64h.76v.63Zm0 1.4v-.72h1.72v.72Zm0 1.37v-.68h.76v.67Zm6.89-7.67h-2.47v-.67h-1.04v.67h-1.21v.9h1.2v.3h1.05v-.3h2.47Zm-1.66.96-.54.56q1.1.47 1.2.56l.53-.6q-.6-.3-1.2-.52m14.44 4.48q1.31-.68 2.38-1.69l-.72-.64a9 9 0 0 1-2.24 1.64 5 5 0 0 0-1.03-1.62q.42-.24.7-.52h2.34v-.88h-6.44v.88h2.76a11 11 0 0 1-4.28 1.34l.45.86q2.08-.37 3.65-1.18l.39.43a11 11 0 0 1-4.66 2l.43.83q2.62-.55 4.66-2.13.16.3.24.6a11.5 11.5 0 0 1-5.44 2.74l.45.86q3-.76 5.15-2.58l.01.52q0 .88-.07 1.05a1 1 0 0 1-.2.28q-.13.12-.55.12l-1.12-.03.34.97.74.02q1.07 0 1.46-.48t.38-1.8q0-.3-.02-.53a10 10 0 0 0 2.93 2.34l.58-.84a9 9 0 0 1-3.27-2.56m2.9-5.27h-4.13q-.24-.45-.52-.89l-1.08.22q.25.3.44.67h-4.11v2.07h1v-1.17h7.4v1.17h1Zm11.44 0h-4.03l-.51-.87-1.09.23q.26.3.44.64h-3.87v4.79q0 2.25-.84 3.8l.82.63a8.5 8.5 0 0 0 1.02-4.33v-3.94h8.06Zm.14 8h-3.43a4 4 0 0 1-2.35-.57q.48-.9.68-2.32v-.93h-1.35q.68-.72 1.2-1.55v-.93h-2.5v.94h1.36q-.76 1.03-1.36 1.54v.93h1.64q-.05.9-.37 1.54-.2-.3-.5-1.16l-.9.3q.44 1.2.87 1.69-.53.54-1.34.92l.66.8a6 6 0 0 0 1.38-1.03q1.17.82 2.96.82h3.05zm-.26-1.7h-1.84v-1.45h1.44v-.92h-1.44v-1.3q.81-.12 1.8-.42l-.54-.84q-1.72.52-4.06.65l.38.91 1.42-.12v1.12h-1.48v.92h1.48v1.44h-1.86V49h4.7Zm10.66 1.69v-8.57h-8.44v5.05q-.01 1.14-.26 2.24-.26 1.17-.74 1.89l.9.58q.83-1.3 1.01-3.5h2.76v3.19h.97v-3.19h2.8v2.05q0 .16-.1.25a.3.3 0 0 1-.24.12h-1.27l.3 1q.41.04.8.04.84 0 1.18-.35t.33-.8m-7.43-5.92v-1.66h2.66v1.66Zm0 2.65v-1.7h2.66v1.7Zm3.63-2.65v-1.66h2.8v1.66Zm0 2.65v-1.7h2.8v1.7Zm14.51-1.26v-.94h-8.33v.94h3.8q.03 1.48-.1 2.14t-.64 1.26q-.52.6-1.69 1.14l.69.77a5 5 0 0 0 1.86-1.36q.6-.78.78-1.68.16-.9.16-2.27Zm-1.31-3.18H202V43h5.67Zm11.52 2.66a11 11 0 0 1-2.66 2.76q-1.21.77-2.8 1.11v-6.63h-1.03v7.84q2.4-.3 4.04-1.24a11 11 0 0 0 3.19-3.08Zm10.9 5.05v-.99h-4.88q-.1 0-.2-.1-.1-.09-.1-.18v-2.67q2.6-.27 5.08-1.12l-.53-.86q-2.06.72-4.56 1.02v-2.91h-1.07v6.7c0 .3.12.6.35.8q.34.3.82.3Zm-.64-7.83-.64.43q.59.7 1.04 1.49l.66-.41a7 7 0 0 0-1.06-1.5m.98-.66-.64.41q.62.7 1.05 1.53l.66-.45q-.51-.9-1.07-1.49m11.74 2.37h-5.44q.45-1.18.61-1.88l-.94-.27a13 13 0 0 1-2.6 4.94l.83.6q1.02-1.17 1.67-2.45H239a7.6 7.6 0 0 1-3.04 5.43l.82.65a8.5 8.5 0 0 0 3.25-6.08h2.11Zm-1.2-1.95-.71.36q.56.64.98 1.38l.72-.33a7 7 0 0 0-1-1.4m1.18-.47-.68.37q.69.81 1.04 1.5l.68-.36a6 6 0 0 0-1.04-1.51m11.2 4.2h-8.37v1h8.38Zm8.3.32-.87.61q.82.8 1.53 1.7-2.14.27-4.29.36 1.4-3.05 2.32-6.26l-1.02-.28a33 33 0 0 1-2.5 6.6h-1.47l.27 1.07q4.5-.14 7.4-.56.23.3.6.95l.82-.6a17 17 0 0 0-2.8-3.59" style="fill:#fff"/></svg>