<svg xmlns="http://www.w3.org/2000/svg" viewBox="0 0 200 40"><path d="M14.2 29.38H8.26l4.38-18.75h7.44l.54 9.53h.21l3.9-9.53h7.44l-2.22 18.74h-5.97l1.26-9.09h-.2l-3.76 9.1h-4.35l-.63-9.1h-.15zm27.5-18.75L39.23 24.7h2.04q1.05 0 1.5-.29t.63-1.3l2.22-12.48h5.7l-1.86 10.53q-.45 2.55-1.04 4.1a8 8 0 0 1-1.63 2.64 5.6 5.6 0 0 1-2.6 1.5q-1.54.43-3.91.43-3.63 0-5.09-1.1-1.45-1.09-1.45-3.77 0-1.47.42-3.8L36 10.63zm9.1 18.42 1.68-4.96q2.52.7 4.62.7t3.39-.18l.24-1.5-2.49-.25q-2.85-.27-4.04-1.28a3.6 3.6 0 0 1-1.18-2.88q0-.81.18-1.8.7-3.84 2.5-5.28 1.82-1.44 5.63-1.44t6.72.75l-1.56 4.8q-2.61-.46-4.2-.46t-2.7.16l-.24 1.47 2.01.2q3.06.33 4.35 1.46A3.8 3.8 0 0 1 67 21.58q0 1.92-.84 3.96-.42 1.05-.91 1.75t-1.27 1.2q-.75.5-1.39.75-.63.26-1.59.38-1.41.2-3.45.2-3.72 0-6.75-.77m17.55.32 3.3-18.74h5.7l-3.3 18.74zM90.49 24 90 29.06q-1.92.78-4.86.77-3.78 0-5.42-1.46-1.63-1.48-1.63-4.53 0-1.29.42-3.81.9-5.16 3.1-7.5t6.98-2.34q1.1 0 2.53.22t2.09.55l-1.68 4.6a14 14 0 0 0-3.32-.43q-1.54 0-2.2.3t-.81 1.2l-1.38 7.86q1.08.25 2.22.25 2.43 0 4.44-.73m18.3.84h-3.72l-.78 4.54h-5.7l3.3-18.75h9q5.1 0 5.1 4.73a12.3 12.3 0 0 1-2.03 6.95 6.2 6.2 0 0 1-5.17 2.54m-2.07-9.41-.81 4.62h1.32q1.03 0 1.54-.23.53-.23.68-1.04.39-2.21.39-2.43 0-.57-.45-.75t-1.35-.17zm20.46 13.95h-11.4l3.3-18.75h5.7l-2.46 13.94h5.7zm4.14 0h-6l7.89-18.75h8.82l1.32 18.74h-6.03l-.12-2.96h-4.71zm5.13-13-2.1 5.26h2.4v-5.25zm14.49-5.75.39 6.6h.2l2.77-6.6h6.3l-7.56 13.64-.87 5.1h-5.7l.87-5.1-2.7-13.64zm20.1 11.67h-5.7l-.4 2.27h7l-.84 4.8h-12.7l3.3-18.74h12.55l-1.56 4.8h-6.15l-.42 2.52h5.7zm18.8 7.07h-6.26l-1.38-5.57h-1.23l-.96 5.57h-5.7l3.3-18.74h9q5.13 0 5.13 4.58 0 1.9-.57 3.6-1.05 3.25-3.3 4.33zm-7.4-13.94-.66 3.75h1.32q1.02 0 1.54-.23.53-.22.72-1.29.2-1.06.2-1.3 0-.6-.47-.77a5 5 0 0 0-1.51-.16z" style="white-space:pre;fill:#fff;transform-box:fill-box;transform-origin:50% 50%"/><path d="M71.13 5.5a4 4 0 1 1 8 0 4 4 0 0 1-8 0m4 .5a.5.5 0 1 1 0-1 .5.5 0 0 1 0 1m-1.5-.5a1.5 1.5 0 1 0 3 0 1.5 1.5 0 0 0-3 0m-1-.25c0-.55.28-1.11.7-1.54.44-.44 1-.71 1.55-.71.14 0 .25-.11.25-.25a.25.25 0 0 0-.25-.25c-.7 0-1.4.35-1.9.85s-.85 1.2-.85 1.9c0 .14.12.25.25.25.14 0 .25-.11.25-.25" style="fill:#fff;transform-box:fill-box;transform-origin:50% 50%"/></svg>