<svg xmlns="http://www.w3.org/2000/svg" viewBox="0 0 600 73"><path d="M324.01 65.6a1.6 1.6 0 0 1-1.49 1.48h-26.97a1.6 1.6 0 0 1-1.5-1.49V46.04c0-.74.75-1.49 1.5-1.49h26.97c.75 0 1.49.75 1.49 1.49zm-1.24-26.99H295.3a7.2 7.2 0 0 0-7.18 7.19v19.55a7.2 7.2 0 0 0 7.18 7.18h27.47a7.2 7.2 0 0 0 7.18-7.18V45.8a7.2 7.2 0 0 0-7.18-7.18M6.44 9.4v25.25H0V.5h5.45l25.74 25V.5h6.19v34.15h-4.95zm63.61 0v25.25h-6.44V.5h5.45l25.74 25V.5h6.2v34.15h-4.95zm131.44 0v25.25h-6.44V.5h5.44l25.75 25V.5h6.19v34.15h-4.96zM52.48.5h1.23v34.15h-6.43V.5zm91.58 0h1.24v5.94h-15.35v28.21h-6.68V6.44h-15.35V.5h35.9Zm40.34 0h1.24v5.94h-26.98v7.67h21.04v5.94h-21.04v8.91h26.98v5.94h-33.41V.74h32.18Zm83.17 28.21h-19.3V6.44h19.55c6.19 0 8.17 5.94 8.17 11.13s-2.23 11.14-8.17 11.14m10.4-23.26C275.74 2.23 272.03.5 267.57.5h-25.24v34.15h25.24c4.46 0 8.17-1.73 10.65-4.95 2.23-2.97 3.46-7.18 3.46-12.13s-1.23-9.15-3.46-12.12m45.79 22.03a1.6 1.6 0 0 1-1.49 1.48h-26.97a1.6 1.6 0 0 1-1.5-1.48V7.92c0-.74.75-1.48 1.5-1.48h26.97c.75 0 1.49.74 1.49 1.48zM322.77.5H295.3a7.2 7.2 0 0 0-7.18 7.17v19.8a7.2 7.2 0 0 0 7.18 7.18h27.47a7.2 7.2 0 0 0 7.18-7.17V7.68A7.2 7.2 0 0 0 322.77.5m205.45 58.16c6.43 2.48 20.3 4.7 31.19 4.7 11.88 0 16.83-3.95 16.83-9.15 0-4.46-4.46-7.18-17.58-12.13-17.57-6.44-30.2-11.63-30.2-23.02 0-11.88 15.35-18.81 38.87-18.81 12.62 0 16.83.74 25 2.23v11.38c-7.92-1.48-14.86-3.96-25.75-3.96-11.63 0-16.58 3.71-16.58 7.43 0 5.44 7.67 8.17 21.04 12.87C589.6 36.88 600 42.08 600 53.22c0 11.63-12.87 19.8-42.33 19.8-11.88 0-20.3-.74-29.45-2.23zm-62.13-48.51h-13.86v52.72h13.86c21.29 0 34.9-9.16 34.9-26.24s-13.37-26.48-34.9-26.48m37.38 57.67c-6.94 3.22-19.8 5.2-31.2 5.2h-43.56V.5h43.57c11.38 0 24.5 1.98 31.43 5.2C520.54 13.36 526 25.24 526 36.87c0 11.39-5.45 23.52-22.28 31.19m-105.7-34.89s20.3-3.22 20.3-15.84C418.32 4.95 396.78 0 373.76 0c-20.79 0-34.4 2.48-34.4 2.48V13.6c9.4-2.22 18.31-4.2 30.69-4.2 13.12 0 23.27 3.96 23.27 9.4 0 6.69-9.9 10.65-31.44 10.65h-9.9V39.6h9.16c22.52 0 35.4 3.47 35.4 11.64 0 7.42-11.4 11.88-25.75 11.88-12.37 0-23.76-2.72-33.17-5.2v12.13c4.46.74 16.34 3.22 38.12 3.22 24.26 0 45.55-7.92 45.55-21.54 0-11.63-14.6-18.31-23.27-18.31" style="fill:#fff"/></svg>