<svg xmlns="http://www.w3.org/2000/svg" viewBox="0 0 264 38"><path d="M33.12 85.02h29.35V19.8H42.62v37.4h-.18L29.35 19.8H0v65.22h19.85V47.38h.17zm110.73 0h29.35V19.8h-19.85v37.4h-.17l-13.1-37.4h-29.35v65.22h19.86V47.38h.17zm190.67 0h29.35V19.8h-19.85v37.4h-.18l-13.09-37.4H301.4v65.22h19.85V47.38h.17zM74.46 19.8h24.48v65.22H74.46zm121.4 17.72H180.3V19.8h55.64v17.72h-15.61v47.5h-24.47zm47.31-17.74h48.41v17.26h-24.31v6.82h22.39v16.72h-22.39v7.31h25.09V85h-49.19zm131.23.02h29.01c24.74 0 32.61 14 32.61 33.33 0 19.7-12.15 31.9-31.14 31.9H374.4zm23.97 50.4h2.39c3.94 0 6.57-1.2 8.12-3.82 1.62-2.72 1.8-7.65 1.8-13.97s-.18-11.25-1.8-13.97c-1.55-2.62-4.18-3.83-8.12-3.83h-2.39zm76.03-52.11c21.3 0 31.91 14 31.91 34.32s-10.6 34.33-31.91 34.33-31.92-14-31.92-34.33 10.6-34.32 31.92-34.32m0 52.12c3.76 0 6.59-1.84 6.59-17.8 0-15.6-2.67-17.8-6.6-17.8s-6.59 2.2-6.59 17.8c0 15.95 2.83 17.8 6.6 17.8" style="fill-opacity:1;fill:#fff" transform="scale(.44 .4381)"/><path d="M33.12 85.02h29.35V19.8H42.62v37.4h-.18L29.35 19.8H0v65.22h19.85V47.38h.17zm110.73 0h29.35V19.8h-19.85v37.4h-.17l-13.1-37.4h-29.35v65.22h19.86V47.38h.17zm190.67 0h29.35V19.8h-19.85v37.4h-.18l-13.09-37.4H301.4v65.22h19.85V47.38h.17zM74.46 19.8h24.48v65.22H74.46zm121.4 17.72H180.3V19.8h55.64v17.72h-15.61v47.5h-24.47zm47.31-17.74h48.41v17.26h-24.31v6.82h22.39v16.72h-22.39v7.31h25.09V85h-49.19zm306.93-8.65c-1.3-.11-2.57-.06-4.34.02-10.33.48-14.5 4.88-15.92 9.85h.25c2.57-2.25 5.75-3.3 10-3.3 8.2 0 15.68 5.96 15.68 17.13 0 10.7-8.22 19.02-19.25 19.02-14.53 0-20.85-11.1-20.85-23 0-9.66 3.43-17.85 9.06-23.13 5.36-4.96 12.26-7.47 20.72-7.67 2.24-.12 3.57 0 4.64.1zm-13.76 32.2c3.34 0 5.38-3.41 5.38-7.78-.03-3.69-1.72-7.71-6.21-7.71a6.1 6.1 0 0 0-5.69 3.84c-.31.64-.43 1.56-.43 3.12.29 4.16 2.3 8.54 6.87 8.54zm45.04 9.65v-11.7h-21.76v-9.36L577.09.79h17.38v29.76H600v10.72h-5.53v11.7zm0-22.43v-8.97c0-3.31.2-6.76.37-10.39h-.29c-1.62 3.53-3.03 6.88-4.86 10.52l-4.28 8.68-.05.16z" style="fill-opacity:1;fill:#fff" transform="scale(.44 .4381)"/></svg>