<svg xmlns="http://www.w3.org/2000/svg" viewBox="0 0 3839 1608.5"><path d="m1927.2 215.4 34.6 34.6 20-20-30.1-30.1h66.9v16.4c0 3-2.4 5.4-5.4 5.4H1996V250h32c10.4 0 18.9-8.5 18.9-18.9V200h41.6v-21.9H2047v-9.7h25.8V90.3h-65.2v-9.7h81V58.7h-81V46h-28.3v12.7h-81.1v21.9h81.1v9.7h-65.2v78.1h104.6v9.7h-120.5V200h44.4zm117.3-64.5h-36.9v-16.8h36.9zm0-43.1v8.8h-36.9v-8.8zm-65.2 8.8h-36.9v-8.8h36.9zm-36.9 17.5h36.9v16.8h-36.9zm213.3 55v-3.7h36.8v64.7h28.3v-64.7h36.9v31c0 3-2.4 5.4-5.4 5.4h-17.2v28.3h32c10.4 0 18.9-8.5 18.9-18.9V58.6h-158.7v130.6c.1 17.7-10.6 32.5-23.1 45.1 6.7 6.6 17.2 15.5 23.9 22.1a95 95 0 0 0 27.6-67.3m0-32v-20.9h36.8v20.9zm102.1-49.2h-36.9v-21h36.9zm-65.3 0h-36.8v-21h36.8zm28.3 49.2v-20.9h36.9v20.9zm279.4-97.5h15.1v45.5h-15.1zm34.2 0h15.1v45.5h-15.1zM3160 160.4c29 2 56.7 13.4 83.2 27.1 5-9.7 12.1-26.1 17.1-35.8a224 224 0 0 0-100.3-24.8V64.5h-32.8v185.6h32.8zm148.6-99.1h122v32.8h-122zM3545.1 250h32.8V135.4c23.1-18.2 41.7-42.4 53.1-70.9h-36a138.6 138.6 0 0 1-123.6 74.9v32.8c26 .1 51.1-5.8 73.7-16.5zm-1158-186.9h93v32.8h-93zM2552 191.3c16.5-.9 34.6-5.9 51.8-14.3v73.1h32.8v-94.3c18.6-15.5 33.3-35.5 39.5-58.3h-32.8c-14.2 34.7-65.9 61.2-96.8 61.2zm146.4 26.4c.8 2.9 7.8 30.3 8.3 32.3 31.9-3.5 63-26.3 85.4-56 19.3 15 35.3 39.8 51.6 63.7l23.9-29.1c-17.4-23.3-37.2-47.9-58.3-62.2 10.2-20.2 16.3-41.6 16.3-61.3V72.3H2706v32.8h86.8c-.1 25.4-27.1 91.7-94.4 112.6M3209 59.6h15.1v45.5H3209zm34.2 0h15.1v45.5h-15.1zm580.7 0h15.1V105h-15.1zm-482.4 157.7h-37.9l5.1 32.8h32.8c69.6 0 104-50.3 104-102.5v-32.4h-160V148h127.2c-.2 35.6-23.7 69.3-71.2 69.3M2943.7 105h61.7v10.1h.1c0 58.4-54.1 97.2-111.5 102.5 1.6 11.5 3.5 22.9 5.1 32.4 80.8-12.3 139.2-59.7 139.2-134.9h-.1V72.2H2956c.8-2.5 1.5-4.9 2.2-7.3l-32.3-8c-8.4 30.2-22.1 67.2-44.3 89.6l13.5 31.1c20.1-18.7 36.5-45.2 48.6-72.6m823.7 13.3c0 62.4-36.7 99.6-99 99.6h-5.1l5 32.2c90.8 0 131.9-51.3 131.9-131.7V59.6h-15.1v41.9h-11.9V72.3h-116.3v32.8h110.5zM190.9 259.8V60.4h-60.7v114.4h-.5l-40-114.4H0v199.4h60.7V144.7h.5l40 115.1zm338.4 0V60.4h-60.6v114.4h-.5L428.1 60.4h-89.7v199.4h60.7V144.7h.5l40 115.1zm582.8 0V60.4h-60.6v114.4h-.6l-40-114.4h-89.7v199.4h60.7V144.7h.5l40 115.1zM227.5 60.4h74.8v199.3h-74.8zm493.6 54.2V60.4H551v54.2h47.6v145.2h74.8V114.6zm611.5 47.6c0-59-24.1-101.8-99.7-101.8h-88.6v199.3h93.1c58.1 0 95.2-37.3 95.2-97.5m-115.1 52.4V105.9h7.3c12.1 0 20.1 3.7 24.8 11.7 4.9 8.3 5.5 23.4 5.5 42.7 0 19.2-.5 34.3-5.5 42.6-4.7 8-12.8 11.7-24.8 11.7zm232.4 50.5c65.2 0 97.6-42.7 97.6-104.9s-32.5-105-97.6-105c-65.2 0-97.6 42.8-97.6 105 0 62.1 32.5 104.9 97.6 104.9m0-159.4c12 0 20.1 6.8 20.1 54.5 0 48.8-8.6 54.4-20.1 54.4s-20.2-5.7-20.1-54.4c0-47.8 8.1-54.5 20.1-54.5m190 58.8c33.6 0 58.8-25.4 58.8-58.1 0-34.1-22.9-52.3-47.9-52.3-13 0-22.8 3.2-30.6 10.1h-.8c4.3-15.2 17-28.6 48.6-30.1 5.4-.3 9.3-.4 13.2-.1l.2-33.5c-3.2-.3-7.4-.7-14.2-.3-25.8.6-46.9 8.2-63.3 23.4-17.2 16.1-27.7 41.1-27.7 70.7 0 36.3 19.3 70.2 63.7 70.2m-20.5-67.7c2.5-6.5 9.1-11.7 17.4-11.7 13.7 0 18.8 12.3 18.9 23.6 0 13.3-6.2 23.8-16.5 23.8-14.1.1-20.2-13.3-21.1-26.1 0-4.8.3-7.6 1.3-9.6m157.5 65.1h40v-35.8h16.9V93.3h-16.9v-91h-53.1l-53.4 95.1v28.7h66.5zm-28-68.6.2-.5 13.1-26.5c5.6-11.1 9.9-21.3 14.9-32.1h.9c-.5 11.2-1.1 21.7-1.1 31.8v27.4zm-863.6 91.9V134h-68.5v-20.9h74.4V60.4h-148v199.4h150.3v-52.3h-76.7v-22.3zm2398.2 197.6H2825V776c-59-230-239.7-393.2-534.1-393.2h-458.4v687.5h-181.9V382.7H1249L899.4 1006c-55.9-152.4-190.7-232.1-334.9-232.1-98.7 0-172 23.9-231.2 75.8h-5.7c32.8-114.9 129-216.3 367.6-227.7 41.1-1.9 70-2.6 100.1-.5V368c-24.6-2.3-55.4-5-107.2-2.3-195.5 4.8-354.8 62.6-478.8 177.1C79.4 664.7.1 853.9.1 1077.4c0 274.8 146.2 531.2 482 531.1 200.5 0 360.8-119.3 419.9-290.6h446.4v270.4l302.2-.1v-270.4h181.9v270.5h458.4c294.4 0 475.1-163.2 534.1-393.2v393.2h458.4c365.4 0 555.5-251.4 555.5-569.8v-66c.1-318.4-190.1-569.7-555.4-569.7M477.3 1365.7h-1.6c-105.6 0-151.9-101.3-158.5-197.6 0-35.8 2.8-57.1 9.9-72 18.4-48.6 68-88.4 131-88.4 104 0 143 92.7 143.5 178.1 0 101-46.6 179.9-124.3 179.9m871.1-502.6v207.3h-210.9l1.3-3.8 99-200.8c42.2-83.9 74.7-161.3 112.5-242.7h6.4c-4 83.9-8.3 163.6-8.3 240m942.5 476h-143.6v-707h143.6c113.1 0 210.5 114.9 210.5 353.5s-97.4 353.5-210.5 353.5m992.6 0h-143.6v-707h143.6c113.1 0 210.5 114.9 210.5 353.5s-97.4 353.5-210.5 353.5M2362.8 120.4v32.8h73.8v21c0 18.7 4.7 29.6-56 48.8l8.5 27.1c44.5-11.4 80.3-24.5 80.3-75.9v-21h61.5v-32.8z" class="st0" style="fill:#fff;stroke-width:1.11111" transform="matrix(.9 0 0 .9 178.42 149.7)"/></svg>