<svg xmlns="http://www.w3.org/2000/svg" viewBox="24.64 18.21 2410.85 479.8"><path d="M1664.38 249h266.59a.53.53 0 0 1 .53.53v89.24a1.7 1.7 0 0 1-1.71 1.71q-142.72.04-284.29.05c-43.86 0-82.27-30.2-88.38-74.62q-.84-6.1-.85-19.97-.03-69.97.13-139.95c.09-42.45 28.83-78.51 70.55-86.39q7.1-1.34 19.82-1.34 141.56-.02 283.95-.01.78 0 .78.78v89.72a.75.75 0 0 1-.75.75h-266.5a.5.5 0 0 0-.5.5v138.38q0 .62.63.62m771.11 4.56a86.9 86.9 0 0 1-86.91 86.91h-270.66a86.9 86.9 0 0 1-86.91-86.91V105.12a86.9 86.9 0 0 1 86.91-86.91h270.66a86.9 86.9 0 0 1 86.91 86.91zM2328 109.91a.4.4 0 0 0-.41-.41h-230.68a.4.4 0 0 0-.41.41v138.68a.4.4 0 0 0 .41.41h230.68a.4.4 0 0 0 .41-.41zm-2196.25 6.34v224a.5.5 0 0 1-.5.5H26.75q-.5 0-.5-.5V24.98a.5.5 0 0 1 .48-.48q160.83-.01 321.77.01c42.76 0 79.83 33.17 85.22 75.82q.77 6.1.77 19.97.02 110.02.01 220.11a.34.34 0 0 1-.34.34H331.5q-.5 0-.5-.5V116.5q0-.5-.5-.5H132a.25.25 0 0 0-.25.25m660.4-8.51-285.65.01a.75.75 0 0 1-.75-.75V24.98a.48.47-90 0 1 .47-.48q151.09-.01 302.28.01c43.66 0 80.27 31.46 86.55 74.6q.95 6.48.95 19.94v221.29a.4.4 0 0 1-.41.41H567.75c-40.25.01-76.38-31.13-83.68-70.59-2.32-12.56-1.48-28.64-1.52-42.61q-.03-14.06.64-19.97c4.36-38.02 33.3-69.41 71.21-76.1q6.92-1.22 19.92-1.22 108.88-.02 217.83-.01a.35.35 0 0 0 .35-.34v-21.82a.35.35 0 0 0-.35-.35m.35 107.02a.26.26 0 0 0-.26-.26H590.76a.26.26 0 0 0-.26.26v44.48a.26.26 0 0 0 .26.26h201.48a.26.26 0 0 0 .26-.26zm382.5-98.51a.25.25 0 0 0-.25-.25H1067a.5.5 0 0 0-.5.5v223.75q0 .5-.5.5H961.5q-.5 0-.5-.5V24.98a.48.47-90 0 1 .47-.48l446.03-.01c47.81 0 87.14 38.06 87.25 86.32q.28 114.67.28 229.44a.5.5 0 0 1-.5.5h-102.56a.48.47 0 0 1-.48-.47l.01-223.78q0-.5-.5-.5h-109.75q-.5 0-.5.5v223.75q0 .5-.5.5h-104.5a.75.75 0 0 1-.75-.75zM324.25 413.87v-49.14a1 1 0 0 1 1.02-1.02l38.76.06q.52 0 .49.52c-.13 2.49.26 5.02.21 7.29-.42 21.11.34 35.65-.16 48.55q-.17 4.29-1.77 8.06-3.62 8.5-10.19 14.87c-3.08 2.99-15.71 12-20.37 12.13q-13 .36-25.96.59c-2.69.05-3.29 1.3-3.29 3.83q.02 18.56.01 37.17a.73.73 0 0 1-.73.73l-39.46-.02a.3.3 0 0 1-.31-.31q.01-18.6-.01-37.2-.01-3.91-3.74-4-6.84-.17-13.68-.21c-13.4-.09-22.61-2.14-31.51-12.09-8.07-9.02-13.13-17.81-13.04-30.28q.17-24.63.29-49.25 0-.44.43-.44l38.49.06q1.52 0 1.52 1.52V414a.5.5 0 0 0 .5.5h81.87q.63 0 .63-.63m290.45-9.12h-60.42a.56.56 0 0 1-.56-.56l.05-39.88a.56.56 0 0 1 .56-.56h162.61a.56.56 0 0 1 .56.56v39.88a.56.56 0 0 1-.56.56h-60.68a.56.56 0 0 0-.56.56l.15 91.62a.56.56 0 0 1-.56.56l-39.48.05a.56.56 0 0 1-.56-.56l.01-91.67a.56.56 0 0 0-.56-.56m474.43 0h-49.24a.23.23 0 0 0-.23.23l.13 91.98a.57.57 0 0 1-.57.57l-38.46-.04a2.25 2.25.1 0 1-2.24-2.24q-.03-42.48-.02-84c0-1.36.47-3.98.15-5.91q-.09-.59-.69-.59H947.5a.5.5 0 0 0-.5.5v91.74a.5.5 0 0 1-.49.49l-39.37.05q-.64 0-.64-.64V365.26q0-1.53 1.53-1.53c63.2.03 126.8-.76 190.42.44 5.39.1 11.8 4.68 15.95 7.87 12.42 9.53 18 26.72 17.94 42.02q-.18 41.48-.06 83.03a.37.36 90 0 1-.36.37l-41.59.13q-.58 0-.58-.58l.01-91.63q0-.63-.63-.63m245.04 9.76a.58.57 0 0 0 .58-.57v-17.7a1 1 0 0 0-1.01-1.01l-121.74.03a.76.75 90 0 1-.75-.76v-29.41q0-1.38 1.38-1.38 59.64.07 120.12.04c14.27-.01 30.84 5.45 37.91 18.28 2 3.62 4.31 7.17 4.49 11.44.62 14.63 2.43 29.03-8.36 39.28-6.76 6.41-17.61 12.23-27.46 12.69-27.73 1.3-55.8.58-83.58.56-2.02 0-3.15.92-3.3 3.03q-.51 7.24.07 14.46.24 3.07 3.29 3.08 59.47.14 118.93.23.51 0 .51.51v29.6q0 .58-.59.58-79.17.03-158.25.01c-1.26 0-3.02.57-4.68-.09q-.48-.19-.48-.71v-51.51c0-13.76 12.84-20.44 24.04-26.91 4.95-2.85 13.75-3.78 19.4-3.78zm216.12-50.26-.69.51q-.41.3-.44.81-.71 12.91-.51 31.24.42 37.92-.17 94.69-.01 1.33.82 3.4.15.35.52.28l.88-.18q-.95 2.56-3.95 2.53-18.86-.16-37.81.14a.68.67 89.2 0 1-.69-.68v-39.26a.73.73 0 0 0-.73-.73h-74.53c-7.77 0-17.61-1.75-24.45-5.59-11.21-6.29-21.77-22.44-21.8-35.34q-.06-25.54.05-51.16.01-1.17 1.18-1.17l38.78.02q.5 0 .5.49V414a.5.5 0 0 0 .5.5h80.29q.23 0 .23-.23l-.03-48.76a1.8 1.8 0 0 1 1.79-1.79q19.32.01 38.9.26.71.01 1.36.27m55.56 29.63q2.08.89 4.46.89 25.55.01 51.09-.02c12.41-.01 27.04-1.89 38.91 2.32 26.9 9.54 31.14 40.68 27.24 64.94-2.58 16.02-16.24 29.87-31.75 33.97q-8.24 2.19-14.31 2.02-34.86-.93-69.74-.21c-22.71.47-39.28-10.64-46.4-32.14q-1.13-3.41-1.13-7.94.06-46.8.02-93.01a.99.98-90 0 1 .98-.99l39.04.06a.4.39 0 0 1 .4.39q.16 12.93.1 25.84-.01 1.61.43 3.13.15.53.66.75m-.81 61.12-.49 1.17a.6.6 0 0 0 .54.83q34.73-.23 68.6-.04 3.55.02 5.33-1.81l6.07.05q.66 0 .66-.65v-18.49a.3.3 0 0 0-.31-.31h-79.96q-.59 0-.62.6-.44 9.5.18 18.65" style="fill:#fff"/><rect width="40.5" height="103.02" x="1801.25" y="363.73" rx=".73" style="fill:#fff"/><path d="M2040.25 414.41v-18.53q0-.63-.62-.63H1917.5a.75.75 0 0 1-.75-.75v-29.94a.8.8 0 0 1 .82-.82q59.16.02 118.43 0c13.94 0 23.89 2.31 34.51 11.24 4.97 4.17 10.18 13.17 10.27 19.74.2 14.84 2.91 29.14-11.17 40.2-9.93 7.81-19.02 11.01-32.04 11.05q-38.29.1-76.57.01c-2.57 0-3.17 1.96-3.22 4.25q-.15 6.41.09 12.8c.12 3.19 1.83 3.72 4.74 3.72h117.56a.56.56 0 0 1 .56.56l.03 29.46a.74.74 0 0 1-.74.74q-78.91-.02-157.17-.01c-1.46 0-3.62.61-5.61-.08q-.49-.17-.49-.69l-.01-49.02c0-15.76 10.65-22.23 23.55-29.13 5.36-2.87 12.86-4.08 18.89-4.08h80.98a.1.1 0 0 0 .09-.09m95.01-.08q52.43.57 66.74.11c15.68-.52 30.73.17 43.41 9.65 6.02 4.5 12.2 12.64 12.6 20.59q.89 18.01.22 22.84c-2.78 19.94-26.99 30.59-44.73 30.38q-59.28-.7-118.63-.31a.62.61 0 0 1-.62-.61v-30.22q0-.56.56-.56 58.75.16 117.36-.23 2.61-.02 4.59-.63a1.3 1.3 0 0 0 .9-1.22l-.04-17.26a1.34 1.33 0 0 0-1.34-1.33q-37.66-.09-74.03-.03-14.16.03-19.89-1.38c-11.65-2.87-28.12-14.05-28.16-27.98q-.06-25.99.1-51.44.01-.96.97-.96l162.48.02a.5.49 0 0 1 .5.49v30.22a.8.8 0 0 1-.78.78h-122.26q-.47 0-.47.47v18.09q0 .52.52.52M189.21 393.5q-8.21-.82-16.44-.72c-35.56.4-71.13-.14-106.71.26q-.54.01-.67.54-.19.78.78 1.33-.83 9.57-.29 19.06.03.5.53.5 37.08.08 74.08.08c18.39 0 38.18 4.61 46.6 22.73 4.06 8.73 2.66 24.75 1.66 34.22-.96 9.13-11.66 15.49-18.4 19.58-7.42 4.5-17.48 6.68-25.66 6.63q-57.03-.36-114.06-.17c-1.37 0-3.17.53-4.92-.13q-.46-.18-.46-.67v-29.45q0-.52.52-.52 59.4-.06 118.72-.02c5.39 0 3.72-12.46 3.6-16.79-.15-4.99-2.54-4.51-6.72-4.49q-25.19.12-50.36-.04c-6.25-.04-18.41.24-27.59-.21-10.95-.53-19.15-3.5-27.48-9.84-5.23-3.99-10.34-13.45-10.83-19.98q-1.01-13.27.17-23.63c1.62-14.18 16.93-23.41 29.45-26.74q4.81-1.28 12.67-1.28h121.11a.5.5 0 0 1 .52.51zm352.81.06q-21.35-1.12-42.72-.87c-26.9.31-53.79-.08-80.71.32q-.66.01-.54.66.15.84.93 1.3l-.2 19.04q0 .46.46.46c25.1 0 50.45.74 75.5.16 17.18-.39 34.97 4.87 44.18 20.42 5.1 8.61 3.82 22.3 3.15 32.51q-.62 9.59-7.36 15.64c-14.03 12.61-27.28 14.55-46.52 14.45q-54.81-.28-108.86-.11-1.21.01-1.21-1.2l.1-28.96a.65.65 0 0 1 .65-.65q59.43.03 117.79.01 2.07 0 2.94-.6c2.18-1.52 1.37-10.95 1.33-16.38q-.02-2.41-1.36-3.87-.37-.4-.91-.4-39.72.04-79.41.01-17.6-.01-31.01-10.58c-4.02-3.17-9.71-12.96-10-18.05q-.79-13.72-.25-23.11c.9-15.82 16.38-25.04 29.81-28.7q4.86-1.32 13.53-1.32 60.1.02 120.26.01a.4.4 0 0 1 .41.41zm230.15 72.86c1.2-.01 2.46.32 3.56.32q59.37.02 118.71.01a.56.56 0 0 1 .56.56v29.67a.54.54 0 0 1-.54.54q-50.77-.04-101.46-.02c-5.79 0-17.87.81-26-.25-20.13-2.6-36.52-20.89-36.29-41.25q.37-33.44.27-52.93c-.06-12.33 9.55-26.05 19.76-32.28 9.24-5.63 16.74-7.04 28.39-7.05q37.44-.02 74.85.1c24.81.08 40.98 20.81 41.01 44.4q.02 18.13.01 36.23 0 .54-.47.82-1.16.7-2.84.7-58.19 0-116.38.06-3.62 0-3.74 3.48-.3 8.42.21 16.53.03.37.39.36m1.49-51.84 77.9-.14a2.2 2.2 0 0 0 2.18-2.19l-.02-15.13a2.18 1.4 89.9 0 0-1.41-2.18l-79.48.14a2.18 1.4 89.9 0 0-1.39 2.18l.02 15.13a2.2 2.2 0 0 0 2.2 2.19m1537.06-21.53a2.7 2.7 78 0 0 2.44 1.59q36.85.31 73.59-.24 5.08-.07 12.97 1.27c22.09 3.76 33.87 24.39 34.38 45.52.46 18.69-.91 34.55-17.3 46.61-6.98 5.14-12.21 8.04-20.98 9.3-9.02 1.29-19.05.46-26.36.43q-16.82-.06-33.63-.04c-19.82.03-41.32 3-54.98-14.06-5.74-7.18-10.48-15.07-11.19-23.93q-.1-1.2-.05-10.11.25-42.66.11-85.3a.34.34 0 0 1 .34-.34h39.72a.49.48 90 0 1 .48.49q0 12.71-.11 25.51-.01 2.01.57 3.3m-.05 62.16q-.45.6-.38 1.27.05.55.6.55 24.34.04 48.68-.2c6.01-.06 16.52.67 24.43-.28q.83-.1.75-1.46l5.89.07q.61.01.61-.6v-18.41a.4.4 0 0 0-.41-.4h-80.06q-.41 0-.43.42-.44 9.54.32 19.04" style="fill:#fff"/><rect width="40.5" height="21.3" x="1801.25" y="476.26" rx=".88" style="fill:#fff"/></svg>