<?xml version="1.0" encoding="UTF-8" standalone="no"?><svg viewBox="27.95 78.93 944.54 170.41" version="1.1" id="svg1" xmlns="http://www.w3.org/2000/svg" xmlns:svg="http://www.w3.org/2000/svg"><path fill="currentColor" stroke="currentColor" stroke-width=".09" d="M908.6 79.8c10.3-1.3 21.2-1.4 31.1 2.3 11.6 3.9 21.5 13.2 25.5 24.8 3.3 8.3 3.8 17.4 2.8 26.1-1 10-5.4 19.2-10.2 27.8-11.6 18.8-27.7 34.3-43.4 49.6-4.2 4.2-8.9 8.1-12.7 12.7 3.8.3 7.5.3 11.3.3 19.7-.1 39.4.1 59.1-.1.5 5.9.4 11.8.1 17.6-33.7.1-67.4.1-101.2 0 0-3.9-.4-7.9.1-11.8.1-1.8 1.7-3 2.8-4.2 10.8-9.9 21.3-20 31.7-30.3 12.2-12.6 24.6-25.2 33.7-40.3 5-8.9 8.4-19.1 7.6-29.4-.4-9.1-4.2-18.8-12.4-23.4-7.9-5.1-17.8-5.4-26.7-3.9-9.6 1.6-18.1 6.7-25.8 12.5-2.1-5-5.2-9.6-6.5-14.8 9.1-8.3 21-13.3 33.1-15.5Zm-478.2 1c16.6-2.1 33.8-.1 49.1 6.7 9.1 4.3 17.7 9.9 24.6 17.4 6.5 5.7 11.1 13.1 15.4 20.5 4.7 8.9 7.2 18.8 8.6 28.7.8 9.7.9 19.7-1.5 29.2-1.4 5.5-2.9 11.1-5.1 16.4-2.7 6.5-7.1 12-11.1 17.7-4 5.9-9.7 10.3-15.2 14.9-8 6.3-17.4 10.6-27.1 13.8-9.8 2.6-20.2 4-30.3 2.7-9.9-.8-19.7-3-28.7-7-8.9-4.3-17-10.1-24.1-16.9-6.5-6-11.3-13.6-15.6-21.3-3.5-7.2-7.2-14.6-7.9-22.7-.7-6.6-2.1-13.2-1.6-19.9.3-5.7.5-11.5 2.2-17.1 3-9.6 6.9-19 12.5-27.4 8.7-12.3 20.5-22.5 34.3-28.7 6.9-3.2 14-6.2 21.5-7m7 25c-8.9 1.3-17.7 4.2-25.1 9.5-17.3 11.1-28.6 32-26.6 52.7 1.1 12.3 5 24.7 13.1 34.3 6.4 8.1 15.2 14.1 24.7 18 9.8 3.9 20.7 4.3 31.1 3 13.4-2.3 26-9.5 34.7-20.1 12.6-14.3 16.8-35 12.6-53.4-3.2-11.5-9.9-22-18.8-29.9-6.8-5.4-14.3-10.1-22.8-12.3-7.4-2.3-15.3-2.4-22.9-1.8Zm338.8-24.5c8.6.1 17.1.1 25.6 0 .2 3.5.2 7.1.2 10.7-.1 49.6.1 99.3-.1 148.9-8.6-.1-17.1 0-25.7-.1 0-53.2-.1-106.3 0-159.5Zm-630 2.6c8.6-.4 17.1-.4 25.6 0-.1 51.4 0 102.8-.1 154.2-1.6-1.3-3.3-2.5-5-3.8-33.4-27.3-66.8-54.5-100.3-81.7-5.1-4-9.9-8.6-15.4-12.1-.4 4.9-.4 9.7-.3 14.5 0 28.3-.1 56.6 0 84.9-7.5.4-15.1.3-22.6.1 0-3.3-.1-6.7-.1-10 .1-48.3-.1-96.7.1-145 11.3 9 22.2 18.5 33.4 27.5 20.9 17.5 41.9 34.8 62.9 52.1 7.3 5.8 14 12.3 21.7 17.7.3-4.8.3-9.5.3-14.3-.1-28 0-56.1-.2-84.1Zm575.1 6.4c1.7-2.1 3.7-4 5.7-5.9.6 5.9.4 11.7.4 17.6v123c0 5.3 0 10.6-.2 15.9-9 0-18 0-26.9-.1.1-20.3 0-40.5-.1-60.8-.1-7.7.1-15.4-.3-23.1-1.2 1.2-2.3 2.4-3.4 3.6l-48.9 59.1c-2.3 3-4.8 5.8-7.5 8.5-16-18.8-31.6-37.8-47.6-56.7-3.9-4.6-7.4-9.6-11.8-13.9-.6 5.1-.4 10.3-.4 15.5v50c.1 6 .1 11.9-.2 17.9-8.4 0-16.7 0-25-.1-.3-5.6-.3-11.2-.2-16.8V102c-.1-5.4-.2-10.8.3-16.2 4 3.7 7 8.2 10.7 12.3 22 25.3 43.7 50.9 65.6 76.3 3 3.7 6.1 7.3 9.5 10.6 20.5-24.2 41-48.3 61.4-72.5 6.5-7.3 12.6-14.8 18.9-22.2Zm-468 32.1c7.1-12.2 13.4-24.9 20.7-36.9 3.7 5.5 6.8 11.5 10 17.3 23.4 42 46.7 84 70 126.1 2.3 3.8 4.6 7.7 6.3 11.8-10.3.2-20.6.3-30.9 0-3.2-7-6.7-13.8-10.5-20.5-2.3-4-3.7-8.7-6.6-12.4-3-.9-6.2-.5-9.3-.6-22.6.2-45.1 0-67.7.2-6.2 11.1-11.9 22.4-18.5 33.3-9.4.3-18.7.2-28.1 0 5.7-11.3 12.8-21.9 18.9-33-5.9-.7-11.8-.3-17.7-.6-.2-7.7-.2-15.5 0-23.3 10-.4 19.9-.1 29.8-.1 11.2-20.5 22.5-40.9 33.6-61.3m14.9 19.8c-4.4 8.2-9 16.4-13.4 24.7-2.8 5.3-6.2 10.4-8.2 16.1 9.1.5 18.3.1 27.4.2 9-.1 18 .4 27-.2-8.6-16.9-18.3-33.2-26.7-50.2-3.2 2.3-4.3 6.2-6.1 9.4Z" id="path1" style="fill:#ffffff"/></svg>