<svg xmlns="http://www.w3.org/2000/svg" viewBox="0 0 3839 835.4"><path d="M839 511.3h611.3v120.1H839zM3718.9 48.7H3839v722.8h-120.1zm-254.7 0-425.9 493.2-425.8-493.2v722.7h120.1v-400l305.7 354.3 305.8-354.3v400h120.1zM591 48.7h120.1v600.4H591zM0 164.1h120.1v607.4H0z" class="st2" style="fill:#fff"/><path d="M711 616.2v155.2L0 188.9V33.7zM2079.5 0c-230.6 0-417.7 187-417.7 417.7s187 417.7 417.7 417.7c230.6 0 417.7-187 417.7-417.7S2310.2 0 2079.5 0m0 120.1c-164.4 0-297.6 133.2-297.6 297.6s133.2 297.6 297.6 297.6 297.6-133.2 297.6-297.6-133.2-297.6-297.6-297.6m0 573.6c-152.3 0-276-123.9-276-276 0-152.3 123.9-276 276-276 152.3 0 276 123.9 276 276 .1 152.2-123.8 276-276 276m0 21.6c-164.4 0-297.6-133.2-297.6-297.6s133.2-297.6 297.6-297.6 297.6 133.2 297.6 297.6c0 164.3-133.2 297.6-297.6 297.6M975.2 771.4l267.5-488.9 267.6 488.9h136.8L1242.7 32.5 838.3 771.4z" class="st2" style="fill:#fff"/></svg>