<svg xmlns="http://www.w3.org/2000/svg" viewBox="0 0 3839 1232.6"><path d="M838.8 511.2h611.1v120.1H838.8zM3717.9 48.6H3838v722.6h-120.1zm-254.7 0-425.8 493.1-425.7-493.1v722.6h120.1V371.3l305.6 354.2 305.8-354.2v399.9h120zm-2872.4.1h120.1V649H590.8zM0 164.1h120.1v607.2H0z" class="st0" style="fill:#fff"/><path d="M710.8 616.1v155.1L0 188.9V33.7zM2078.9 0c-230.6 0-417.6 186.9-417.6 417.6s186.9 417.6 417.6 417.6c230.6 0 417.6-186.9 417.6-417.6S2309.6 0 2078.9 0m0 120.1c-164.4 0-297.5 133.2-297.5 297.5s133.2 297.5 297.5 297.5 297.5-133.2 297.5-297.5-133.2-297.5-297.5-297.5m0 573.4c-152.2 0-276-123.8-276-276s123.8-276 276-276 276 123.8 276 276c.1 152.2-123.8 276-276 276m0 21.6c-164.4 0-297.5-133.2-297.5-297.5s133.2-297.5 297.5-297.5 297.5 133.2 297.5 297.5c0 164.2-133.2 297.5-297.5 297.5m-1104 56.1 267.4-488.7 267.5 488.7h136.9L1242.3 32.5 838.1 771.2zm-439.1 246.1h-93.1v104.9h89.9c7.6 0 15-.3 22.5-.7 8.9-.3 23.2-.7 30.6-6.7 9.9-8.2 9.5-32.1 9.5-43.9.1-53.6-9.5-53.6-59.4-53.6m811.2 16.6c-3.5-11.5-10.8-14.3-21.9-15.9-15-2-30.2-1.6-45.1-1.6h-40.6c-51.5 0-50.5 10.2-50.5 59.5 0 12-1.3 32.4 9.5 41 12 9.5 56.6 7.6 71.2 7.6 10.2 0 20.7-.3 30.9-.3 11.7 0 30.9 0 40.6-7.3 10.5-7.9 9.5-29.3 9.5-41 0-11.6 0-30.9-3.6-42m-357.6-16.6h-108v52.1h90.9c4.8 0 9.5-.3 14.3-.3 23.2-.7 29.6-1.3 29.6-26.7-.1-21.5-5.5-25.1-26.8-25.1" class="st0" style="fill:#fff"/><path d="M0 907.9v324.7h3839V907.9zm327.5 182.5c-.3 9.2-.3 18.4-1 27.3-1 16.8-2 30.9-14.6 42.9-7.6 7.3-17.4 10.8-27.6 13-31.7 6.7-69.2 5.7-101.7 5.7-14 0-28 0-41.9-.7-21.9-.7-52.1-1.3-70.9-14-8.6-5.7-13.3-12.7-16.8-22.5-6.6-19.7-5.7-54.9-5.7-75.3 0-13.3.3-26.7 1.3-40.1 2.3-31.4 12.4-53.7 45.4-60 30.9-6.1 69-5.7 100.1-5.7 15.6 0 30.9 0 46 1 22.9 1 59.8 2.3 76 21 12 13.7 11.4 37.5 11.7 54.6h-64.5c0-6.1.3-13.7-5.1-17.8-3.1-2.3-6.1-3.1-9.9-3.8-5.7-1-12.1-1-17.8-1.3-14-.7-28-.7-41.9-.7-11.5 0-23.2.3-34.7.7-9.2.3-25.5.7-33 6.7-10.5 8.2-8.9 36.2-8.9 48 0 12.4-.7 29.3 2.5 41.3 1.3 4.8 2.6 7.6 6.4 11.2 7.6 7 27 6.4 36.5 6.4 10.2 0 20.4.3 30.6.3 11.7 0 23.5-.3 35.3-.3 9.5 0 34 1.3 39.8-8.9 2.3-4.1 2.3-9.9 2.3-14.3v-6.7h-84.8v-42.3H328c0 2 .3 4.1.3 6.1zm330.1 18.1c-1.3 17.1-6.1 37.8-19.1 49.8-21.9 20-72.8 17.8-100.4 17.8h-159V964.2h158c12.1 0 24.2 0 36.2.3 33 .7 67.4 3.5 79.4 39.8 6.6 20 6.1 42.3 6.1 63 0 13.6-.4 27.6-1.2 41.2m130.6 13H682.4v-43.2h105.9v43.2Zm290.2 20.1v34.7h-63.6c0-12.7.7-26.1-2-38.5-2.8-14-12.7-15.3-25.5-15.3H881.2v53.7h-64.6V964.3h156c11.4 0 23.2.3 34.7.3 24.2.3 51.1-2.3 65.4 21.6 8.2 13.7 7.6 32.7 7.6 48 0 14 .3 30.6-7 42.9-7 12-19.4 15-32.4 17.1 32.4 2.3 37.5 17.8 37.5 47.4m335.7-34.1c-1 19.7-2.8 44.2-20 57.2-8.9 7-19.1 9.5-30.2 11.2-30.9 4.4-63.3 3.5-94.4 3.5-16.6 0-33.4 0-49.8-.3-22.2-.3-55.9-.3-74.7-14.3-17.1-12.4-19.1-37.8-20-57.2-1-12.4-1-24.8-1-37.2s0-24.8 1-37.2c1.3-19.4 3.1-44.2 20-57.2 8.9-6.7 19.4-9.9 30.2-11.5 29.9-4.8 64.3-3.5 94.4-3.5 16.8 0 33.4.3 50.2.7 22.2.3 55.6.3 74.3 14.3 17.1 12.7 18.7 37.8 20 57.2 1 12.4 1 24.8 1 37.2-.1 12.4-.1 24.8-1 37.1m412.2 68.7h-63.5l1.6-158.6h-10.8l-79.7 158.6h-53.7l-79.7-158.6H1529l1.6 158.6H1467V964.3h116.9l63 137.6 63.3-137.6h116.3zm389.2-13.6c-15.3 16.6-48.6 15.9-69.2 16.3-16.6.7-33 .7-49.6.7-27.6 0-61 1-88-5.1-10.2-2.3-19.1-6.4-26.3-13.7-10.8-10.5-12.1-24.2-12.1-38.5 0-5.4.3-10.8.7-16.3h62.3c0 4.8 0 9.2 1.6 13.7 1 2.8 2.3 4.8 4.8 6.7 6.1 4.8 24.2 4.1 31.1 4.1 9.2 0 18.1.3 27.3.3 11.5 0 22.5-.3 34-.3 7.9 0 28 1 33.4-6.7 2.2-3.5 2.2-8.2 2.2-12.1 0-16.3-12.7-15.6-25.8-15.9-34-1-68-2.8-102.1-4.1-18.4-.7-41.9-1.3-55.3-16.3-11.2-12.4-12-30.2-12-46 0-37.8 9.9-61.7 50.5-65.8 27.3-2.8 55.6-2.5 83.2-2.5 26.7 0 55-.7 81 5.7 28.9 7.4 35 26.3 35 54.1v10.2h-62.6v-3.1c0-6.1-.6-10.5-6.1-14-6.1-4.1-20.4-3.8-27.3-3.8h-54.9c-6.6 0-25.5-.3-31.1 3.8-4.1 2.8-5.1 7.9-5.1 12.7 0 3.8 1 8.9 4.1 11.5 2.2 2 5.4 2.5 8.2 2.8 7.4 1.3 15 1.3 22.2 1.6 14.3.7 28.6 1.3 42.9 1.6 24.5.7 59.4.3 83.3 6.7 7.6 2.3 14.3 5.4 20.4 10.8 13 11.5 13.7 33.4 13.7 49.3-.1 17.6-1.7 37.9-14.4 51.6m220.3-61.3v75H2369v-75l-121.7-137h85.2l68.9 85.2 66.1-85.2h83.9zm378.9 61.3c-15.3 16.6-48.6 15.9-69.2 16.3-16.6.7-33 .7-49.6.7-27.6 0-61 1-88-5.1-10.2-2.3-19.1-6.4-26.3-13.7-10.8-10.5-12.1-24.2-12.1-38.5 0-5.4.3-10.8.7-16.3h62.3c0 4.8 0 9.2 1.6 13.7 1 2.8 2.3 4.8 4.8 6.7 6.1 4.8 24.2 4.1 31.1 4.1 9.2 0 18.1.3 27.3.3 11.5 0 22.5-.3 34-.3 7.9 0 28 1 33.4-6.7 2.2-3.5 2.2-8.2 2.2-12.1 0-16.3-12.7-15.6-25.8-15.9-34-1-68-2.8-102.1-4.1-18.4-.7-41.9-1.3-55.3-16.3-11.2-12.4-12-30.2-12-46 0-37.8 9.9-61.7 50.5-65.8 27.3-2.8 55.6-2.5 83.2-2.5 26.7 0 55-.7 81 5.7 28.9 7.4 35 26.3 35 54.1v10.2h-62.6v-3.1c0-6.1-.7-10.5-6.1-14-6.1-4.1-20.4-3.8-27.3-3.8h-54.9c-6.6 0-25.5-.3-31.1 3.8-4.1 2.8-5.1 7.9-5.1 12.7 0 3.8 1 8.9 4.1 11.5 2.2 2 5.4 2.5 8.2 2.8 7.4 1.3 15 1.3 22.2 1.6 14.3.7 28.6 1.3 42.9 1.6 24.5.7 59.4.3 83.3 6.7 7.6 2.3 14.3 5.4 20.4 10.8 13 11.5 13.7 33.4 13.7 49.3-.1 17.6-1.7 37.9-14.4 51.6m302.3-144.3h-94.4v158h-67.7v-158h-94.4v-54.1H3117zm268.6 157.9h-235.8V964.3h234.6v49.9h-171v30.9h162.4v46.4h-162.4v34h172.3v50.7zm406.3 0h-63.6l1.6-158.6h-10.8l-79.7 158.6h-53.7l-79.7-158.6h-11.5l1.6 158.6h-63.6V964.3h116.9l63 137.6 63.3-137.6H3792v211.9z" class="st0" style="fill:#fff"/></svg>