<svg xmlns="http://www.w3.org/2000/svg" viewBox="0 0 264 38"><path d="M381.54 77.19c0 .91-.75 1.73-1.67 1.73h-31.92c-.93 0-1.67-.82-1.67-1.73V54.13c0-.9.75-1.64 1.68-1.64h31.9c.93 0 1.68.73 1.68 1.64zm-1.39-31.62h-32.49a8.56 8.56 0 0 0-8.54 8.56v23.15a8.6 8.6 0 0 0 8.54 8.57h32.5a8.6 8.6 0 0 0 8.53-8.57V54.13a8.55 8.55 0 0 0-8.54-8.56M7.46 10.94v29.8H0V.46h6.37l30.2 29.34V.46h7.35v40.28h-5.83z" style="fill-rule:nonzero;stroke:none;fill:#fff" transform="scale(.44 .44264)"/><path d="M82.2 10.94v29.8h-7.46V.46h6.36l30.2 29.34V.46h7.36v40.28h-5.83zm154.89 0v29.8h-7.45V.46H236l30.19 29.34V.46h7.36v40.28h-5.81zM61.67.46h1.38v40.28h-7.46V.46zm107.76 0h1.36v6.92h-17.97v33.36h-7.75V7.38H127.1V.46zm47.75 0h1.4v6.92h-31.96v9.02h24.72v6.93h-24.72v10.48h31.95v6.93h-39.33V.46zM315 33.81h-22.9V7.38H315c7.16 0 9.7 7.11 9.7 13.22 0 6.01-2.54 13.21-9.7 13.21m12.23-27.43C324.31 2.46 320 .46 314.8.46h-29.87v40.28h29.87c5.21 0 9.52-2.1 12.44-5.93 2.73-3.55 4.18-8.47 4.18-14.22 0-5.73-1.45-10.66-4.18-14.2m54.3 25.78c0 .82-.75 1.64-1.67 1.64h-31.92a1.7 1.7 0 0 1-1.67-1.64V9.02c0-.9.75-1.64 1.68-1.64h31.9c.93 0 1.68.73 1.68 1.64zM380.15.46h-32.49a8.56 8.56 0 0 0-8.54 8.56v23.15a8.56 8.56 0 0 0 8.54 8.57h32.5a8.55 8.55 0 0 0 8.53-8.57V9.02a8.55 8.55 0 0 0-8.54-8.56M515.48 68.8c7.73 3.1 24.05 5.56 36.8 5.56 13.94 0 19.7-4.73 19.7-10.75 0-5.47-5.35-8.57-20.75-14.21-20.58-7.57-35.68-13.58-35.68-27.16C515.55 8.29 533.72 0 561.4 0c14.88 0 19.98.91 29.42 2.64l.08 13.3c-9.28-1.72-17.5-4.73-30.27-4.73-13.69 0-19.52 4.38-19.52 8.84 0 6.47 8.99 9.57 24.74 15.22C587.8 43.1 600 49.12 600 62.33c0 13.67-15.28 23.52-49.75 23.52-14.15 0-23.91-.91-34.77-2.73zm-73.36-57.04h-16.4V73.9h16.4c25.18 0 41.07-10.85 41.07-30.99s-15.89-31.16-41.07-31.16m44.03 67.89c-8.11 3.64-23.46 6.02-36.87 6.02H398V.18h51.28c13.41 0 28.76 2.37 36.89 6.02 19.74 8.93 26.18 23.24 26.18 36.72 0 13.5-6.38 27.8-26.2 36.73" style="fill-rule:nonzero;stroke:none;stroke-width:.05;stroke-linecap:butt;stroke-linejoin:miter;stroke-miterlimit:4;stroke-dasharray:none;fill:#fff" transform="scale(.44 .44264)"/></svg>