<svg xmlns="http://www.w3.org/2000/svg" viewBox="0 0 3839 1376.3"><path d="m1652.4 328.2 15.9-36.9-33.2-42-31.3 1.4-19.3 39.8 27.6 44.3zM1482 361.5l-20.2 16.4 1.7 23.2 21.7 13.4 33.5-24.2-12.2-26.4z" class="st0" style="fill:#fff"/><path d="m1529.2 0-193.3 193.3v340.5l240.8 240.8h340.5l193.3-193.3zm373.9 740.6h-312.3l-220.9-220.9V207.4l159.3-159.2 533.1 533.1z" class="st0" style="fill:#fff"/><path d="m1794.2 542.5-24.5 51-45.1 32.6-63.7 6.6-63.8-16.9 76.6 48.8 59-.4 39.9-20.2 43.6-55.3 11-45.4-16.8-82.8zM2262.3 6h-340.5l-193.3 193.3 581.3 581.3 193.3-193.3V246.8zm-238.8 327.4-49-41.8 5.5-66.3 56.4-12.4 39.5 39.5 3.7 59.4zm137.3-140.9-40-6.2-11.7-31.5 19.8-32.2 41.7 5.1 14 31.5zM2370 465.8l-44 15.4-12.5 62.3-77.6 9.5-38.5-30.7-11-66.4 61.2-26.3 9.3-28.8-6.4-72.3 102.6-18.4 22.3 118zm1317.4 500.9c-18.8-32-57.1-52.7-97.4-52.7h-64.3v381.8c0 20.4 16.6 36.9 37 36.9h33.4c41.3 0 81.1-26 98.8-64.6 25.8-56.2 27.8-125.4 27.8-145.2-.1-10-1-98-35.3-156.2m-5.2 295.5c-15.5 33.8-50.2 56.5-86.2 56.5h-33.4a23 23 0 0 1-23-23V927.8h50.4c35.5 0 69.1 18 85.4 45.9 32.3 55.1 33.3 139.6 33.3 149 0 19.2-1.9 85.8-26.5 139.5" class="st0" style="fill:#fff"/><path d="M3606.1 885.1h-255v34.3h9.1c44.5 0 53.6 16.7 53.6 37.4v340.5c0 20.6-9.2 37.4-53.6 37.4h-9.8v34.3h255.9c118.8 0 232.9-83 232.9-241.9-.2-168-127.5-242-233.1-242m0 469.9h-241.8v-6.5c42.1-1 63.5-18.3 63.5-51.2V956.7c0-32.8-21.1-50-62.7-51.2V899h241.1c53.8 0 107.3 19.9 146.8 54.6 47.2 41.4 72.1 101.4 72.1 173.5 0 156.5-113.5 227.9-219 227.9m-430.9-423c74 0 118.9 67.6 129.2 117h29.4V874.1h-25s-8.8 33.5-28.1 33.5c-25.1 0-56.7-26.6-136.8-26.6-114.8 0-217.1 112.1-217.1 247.9 0 172.4 115.2 247.4 231.5 247.4 64.5 0 134.3-37 175.4-97.6v-76.1c-30.1 58.5-90 120.7-155.2 120.7-44 0-88.8-20.8-109.4-77.4-10.6-29.1-14.2-67.9-14.2-119.2.1-72.3 19.2-194.7 120.3-194.7m-134.1 194.7c0 57.2 4.6 95.4 15 123.9 20 55 64.7 86.6 122.5 86.6 54.5 0 105.7-39 141.3-86.4v23.5c-38.1 53.6-101 88-161.5 88-100.4 0-217.6-61.1-217.6-233.5 0-61.7 22-120.6 62-165.6 38.5-43.4 90-68.4 141.2-68.4 49 0 78.9 10.4 100.8 18 13.8 4.8 24.7 8.6 36 8.6 20.9 0 32.6-20.4 38-33.5h1.2v147h-4.6c-16.8-58.6-69.2-117-140.1-117-124.5.2-134.2 159.9-134.2 208.8M472.3 886H329.1v18.8h18.7c25 0 45.3 23.3 45.3 48.3v232.3L149 886H0v18.8c33.3 0 59.5 30 59.5 63.4v325.5c0 33.3-35.1 44.3-59.5 44.3v18.8h161.8V1338c-30.3-.2-46.3-4.3-56.7-14.1-10.3-9.8-13.1-22.8-13.1-40.7v-305l316 385.3h17.3v-410c0-24.3 19-44.9 47-45.9z" class="st0" style="fill:#fff"/><circle cx="1455.8" cy="1120" r="54.6" class="st0" style="fill:#fff"/><path d="M1771.6 1136.6v22.7h17.8c28.9 0 37 13.9 37 38.8v111.3c-6.6 8-29.1 18.2-61 18.2-6.5 0-43.3-.7-70.8-23.3-28.8-23.6-48.2-71.5-48.2-185.3 0-148.2 52.1-210.9 127.7-210.9 24.6 0 107.9 16.6 143.4 123.7h22.2V877.3h-21c-2.7 20.8-19.1 32.3-50.1 19.4-46.8-19.5-88.7-22.4-119.4-22.4-120.9 0-223.8 111.9-223.8 245.6 0 154 116.3 244.2 241.1 244.2 59.2 0 121.9-13.7 171.6-38.8v-127.2c0-29.8 20.8-38.8 48.8-38.8v-22.7zM870 1211.5c-11.7 64.5-67.3 114.9-129.7 113.3h-53.8a30.6 30.6 0 0 1-30.6-30.6v-165h14.8c44 0 72.1 36.9 72.1 100.3H762v-228.4h-19.3c0 55.8-23.6 96.1-72.2 96.1h-14.8V914.3h77.4c104.2 0 107.8 92.9 107.8 104.9h20.8V886H486.1v18.7h26.5c20.3 0 36.7 19.2 36.7 39.4v346.6c0 36.5-23.9 44.8-44.2 44.8h-19v21.4h381l21.4-145.4zm276.4-330.4c-135.5 0-239.8 99.8-239.8 243.2s104.4 243.2 239.8 243.2c135.5 0 239.9-99.8 239.9-243.2s-104.4-243.2-239.9-243.2m0 455c-65.1 0-117.8-59.6-117.8-211.8s52.8-211.8 117.8-211.8c65.1 0 117.8 59.6 117.8 211.8.1 152.2-52.7 211.8-117.8 211.8m1226.9-124.6c-11.7 64.5-67.3 114.9-129.7 113.3h-53.8a30.6 30.6 0 0 1-30.6-30.6v-165h14.8c44 0 72.1 36.9 72.1 100.3h19.3v-228.4H2246c0 55.8-23.6 96.1-72.2 96.1H2159V914.3h77.4c104.2 0 107.8 92.9 107.8 104.9h20.8V886h-375.6v18.7h26.5c20.3 0 36.7 19.2 36.7 39.4v346.6c0 36.5-23.9 44.8-44.2 44.8h-19v21.4h381l21.4-145.4zm276.3-330.4c-135.5 0-239.8 99.8-239.8 243.2s104.4 243.2 239.8 243.2c135.5 0 239.9-99.8 239.9-243.2s-104.4-243.2-239.9-243.2m0 455c-65.1 0-117.8-59.6-117.8-211.8s52.8-211.8 117.8-211.8c65.1 0 117.8 59.6 117.8 211.8.2 152.2-52.7 211.8-117.8 211.8" class="st0" style="fill:#fff"/></svg>