<svg xmlns="http://www.w3.org/2000/svg" viewBox="0 0 264 84"><path d="M231.43 65.05H32.56A32.6 32.6 0 0 1 0 32.52 32.6 32.6 0 0 1 32.56 0h198.87a32.6 32.6 0 0 1 32.56 32.52 32.6 32.6 0 0 1-32.56 32.53M32.56 7.69A24.87 24.87 0 0 0 7.7 32.53a24.87 24.87 0 0 0 24.86 24.83h198.87a24.9 24.9 0 0 0 24.86-24.83 24.87 24.87 0 0 0-24.86-24.84z" style="fill-opacity:1;fill:#fff"/><path d="M58.1 47.6v-30h-9.04v20.99l-13.33-21h-9.71v30.03h9.04V25.94l14 21.67zm14.7 0V27.3h-9.05v20.3zm0-24.6v-5.4h-9.05V23zm31.63 24.6V33.62c0-2.93-5.65-7-8.59-7h-2.71c-2.03 0-4.3 1.81-6.33 2.71V27.3h-9.04v20.32h9.04v-14c0-1.35 3.16-2.93 4.52-2.93s3.84 1.58 3.84 2.93v14zm75.63.7V34.32c0-2.93-5.65-7-8.6-7h-2.7c-2.04 0-4.3 1.81-6.33 2.71V28h-9.04v20.32h9.04v-14c0-1.35 3.16-2.93 4.52-2.93s3.84 1.58 3.84 2.93v14zm-60.94-.7V27.3h4.74v-2.72h-4.75V20.3h-9.26v4.28h-4.74v2.71h4.74v20.32zm17.39-20.98c-7.23 0-13.33 4.96-13.33 11.05 0 6.33 6.1 11.3 13.33 11.3 6.33 0 11.53-3.62 12.89-8.36h-9.27v2.7c0 2.27-1.58 2.95-3.61 2.95s-3.4-.68-3.4-2.94v-5.64h16.73c0-6.1-5.88-11.06-13.34-11.06m0 2.03c2.04 0 3.62 1.35 3.62 3.6v2.04h-7v-2.03c0-2.26 1.35-3.61 3.38-3.61m89.04-2.03c-7.46 0-13.33 4.96-13.33 11.05 0 6.33 5.87 11.3 13.33 11.3 7.23 0 13.33-4.97 13.33-11.3 0-6.09-6.1-11.05-13.33-11.05m0 2.03c2.03 0 3.39 1.35 3.39 3.6v11.07c0 2.26-1.36 2.93-3.39 2.93-2.26 0-3.62-.67-3.62-2.93V32.26c0-2.26 1.36-3.61 3.62-3.61m-25.99-11.06v11.06s-2.71-2.03-6.33-2.03c-5.65 0-10.4 4.96-10.4 10.38 0 5.64 4.75 11.29 10.4 11.29 3.62 0 6.33-1.36 6.33-1.36v.68h9.04V17.59zM196.17 30c2.03 0 3.4 1.58 3.4 3.61v8.35c0 2.04-1.37 2.71-3.4 2.71-2.26 0-3.61-.67-3.61-2.7V33.6c0-2.03 1.35-3.6 3.61-3.6M26.7 83.87v-7.3a3 3 0 0 0-2.78-2.76H13.35v10.06h3.27v-6.79c0-.5.38-1 .88-1h5.04c.5 0 1 .5 1 1v6.8zm87.37 0v-7.3a3 3 0 0 0-2.77-2.76h-10.58v10.06H104v-6.79c0-.5.37-1 .88-1h5.03c.5 0 1.01.5 1.01 1v6.8zm47.83 0v-7.3a3 3 0 0 0-2.78-2.76h-10.57v10.06h3.27v-6.79c0-.5.38-1 .88-1h5.04c.5 0 1 .5 1 1v6.8zm-28.56 0v-7.3a3 3 0 0 0-2.77-2.76h-14.22v10.06h3.27v-6.79c0-.5.38-1 .88-1h1.89c.38 0 .88.5.88 1v6.8h3.28v-6.8c0-.5.37-1 .88-1h1.88c.38 0 .89.5.89 1v6.8zm-122.26 0H2.77C1.39 83.87 0 83 0 81.61v-7.92h11.08v2.39H3.65c-.38 0-.88.38-.88.88s.5.88.88.88h6.93v2.01H3.65c-.38 0-.88.5-.88.88 0 .5.5 1 .88 1h7.43zm40.93.13H43.7c-1.39 0-2.77-.88-2.77-2.26V73.8H52v2.4h-7.43c-.38 0-.88.37-.88.87s.5.89.88.89h6.93v2h-6.93c-.38 0-.88.51-.88.89 0 .5.5 1 .88 1H52zm94.73-.13h-8.3c-1.4 0-2.78-.88-2.78-2.26v-7.92h11.08v2.39h-7.43c-.37 0-.88.38-.88.88s.5.88.88.88h6.93v2.01h-6.93c-.37 0-.88.5-.88.88 0 .5.5 1 .88 1h7.43zM28.08 73.81v2.27h3.27c.88 0 .88 0 .88 1v6.8h3.15v-6.8c0-1 0-1 1-1h3.16V73.8zm40.01 0v2.27h3.27c.88 0 .88 0 .88 1v6.8h3.15v-6.8c0-1 0-1 1-1h3.16V73.8zm95.65 0v2.27h3.27c.89 0 .89 0 .89 1v6.8h3.14v-6.8c0-1 0-1 1.01-1h3.15V73.8zm-109.47 0v10.06h3.27v-1.76c0-.5.38-1 .88-1h4.16c.5 0 .88.5.88 1v1.77h2.77V81.1c0-.38-.38-.88-.38-1.39 0-.37.89-1.25.89-2.26v-.88c0-.88-1.39-2.77-2.27-2.77zm4.15 2.27h4.16c.5 0 .88.5.88 1v.88c0 .5-.38.88-.88.88h-4.16a.86.86 0 0 1-.88-.88v-.88c0-.5.38-1 .88-1m24.81-2.27c-.88 0-2.27 1.89-2.27 2.77v7.3h3.28V81.1h5.91v2.77h3.28v-7.3c0-.88-1.39-2.77-2.4-2.77zm1.89 2.27h4.15c.38 0 .88.5.88 1v1.76h-5.91v-1.76c0-.5.38-1 .88-1m13.72 7.79V73.81H95.7v10.06zM264 83.86v-7.3a3 3 0 0 0-2.77-2.76H247v10.06h3.27v-6.8c0-.5.38-1 .88-1h1.9c.37 0 .88.5.88 1v6.8h3.27v-6.8c0-.5.38-1 .88-1h1.89c.38 0 .88.5.88 1v6.8zm-19.25 0h-8.31c-1.39 0-2.77-.88-2.77-2.26v-7.93h11.08v2.4h-7.43c-.38 0-.88.37-.88.87s.5.88.88.88h6.92v2.02h-6.92c-.38 0-.88.5-.88.88 0 .5.5 1 .88 1h7.43zM220.82 73.8v2.26h3.27c.88 0 .88 0 .88 1v6.8h3.15v-6.8c0-1 0-1 1-1h3.15V73.8zm-37.3.05c-.88 0-2.77 1.38-2.77 2.26v1.39c0 .88 1.9 2.26 2.77 2.26h5.54c.5 0 1.01.5 1.01.88 0 .5-.5 1-1 1h-8.32v2.27h9.32c.88 0 2.64-1.38 2.64-2.26v-1.39c0-1-1.76-2.39-2.64-2.39h-5.54c-.5 0-1-.37-1-.88 0-.5.5-.88 1-.88h8.18v-2.26zm26.68 0c-.89 0-2.77 1.38-2.77 2.26v1.39c0 .88 1.88 2.26 2.77 2.26h5.54c.5 0 1 .5 1 .88 0 .5-.5 1-1 1h-8.31v2.27h9.31c.88 0 2.65-1.38 2.65-2.26v-1.39c0-1-1.77-2.39-2.65-2.39h-5.54c-.5 0-1-.37-1-.88 0-.5.5-.88 1-.88h8.19v-2.26zm-16.48 0v4.53c0 .88 1.39 2.26 2.27 2.26h2.26v3.27h3.28v-3.27h2.26c.88 0 2.27-1.38 2.27-2.26v-4.53h-3.15v3.65c0 .38-.5.88-1 .88h-4.03c-.5 0-1.01-.5-1.01-.88v-3.65z" style="fill-opacity:1;fill:#fff"/></svg>