<svg xmlns="http://www.w3.org/2000/svg" xml:space="preserve" viewBox="0 0 416 48"><g style="fill:#fff;fill-opacity:1"><path fill="currentColor" d="M70.03 60.28V25.65h14.3v40.57q0 1.71-1.21 3.29-1.07 1.36-2.36 2.07-3.72 1.21-7.16.58a17 17 0 0 1-6.58-2.36 573 573 0 0 0-5.65-4.15q-2.87-2.08-6.05-4.55a557 557 0 0 1-6.76-5.33L34.82 45.04q-6.58-5.01-7.72-6.87v33.41H13.36V31.66q0-2.36 2.07-4.22a12 12 0 0 1 4.51-2.36q.86 0 1.97.07t2.47.21q2.65.36 4.5 1.5zm23.68-14.67a6 6 0 0 1 1.8-2 9 9 0 0 1 2.67-1.36 10.5 10.5 0 0 1 9.13 1.36 6.5 6.5 0 0 1 1.79 2 4.9 4.9 0 0 1 0 4.87 6 6 0 0 1-1.8 1.97q-1.14.82-2.64 1.32t-3.22.5a10.5 10.5 0 0 1-5.94-1.82 6 6 0 0 1-1.79-1.97 4.9 4.9 0 0 1 0-4.87" style="fill:#fff;fill-opacity:1" transform="translate(-11.7 -24.73)"/><g style="fill:#fff;fill-opacity:1"><path d="M262.7 27.44q-3.15-1.8-6-1.79H125.55q-3.59 0-5.37 2.15a7.2 7.2 0 0 0-1.79 5v31.63q0 4.15 2.08 5.65 2.15 1.5 3.86 1.5h65.61q5.94 0 5.94-5.93V44.18h-48.3v8.95h34.63v8.94h-49.5V35.24h117.48l.85.28q.94.3.94.86v7.8H211.4v8.95h40.57v18.45h13.66V32.82q0-3.51-2.93-5.37m35.71 25.68h34.63v8.94h-49.51V35.24h72.05v-.07h68.04v-9.52H276.38q-3.6 0-5.37 2.15a7.2 7.2 0 0 0-1.8 5v31.63q0 4.15 2.08 5.65 2.15 1.5 3.87 1.5h65.6q5.94 0 5.94-5.93V44.18h-48.29Z" style="fill:#fff;fill-opacity:1" transform="translate(-11.7 -24.73)"/><path d="M355.08 43.54v28.04h70.97V61.43h-56.66v-8.3h41.14v-9.59z" style="fill:#fff;fill-opacity:1" transform="translate(-11.7 -24.73)"/></g></g></svg>