<svg xmlns="http://www.w3.org/2000/svg" viewBox="0 0 264 58"><path d="m35.96 115.28-.07-44h5.7v52.7h-5.7L5.56 79.6l.14 44.37H0v-52.7h5.98zm11.99-44.01h27.96v5.2H53.8v18.3h21.98v5.2H53.8v18.8h22.12v5.2H47.95zm30.62 26.49c0-16.23 12.6-27.42 27.5-27.42 15.45 0 27.48 11.83 27.48 27.28s-11.96 27.28-27.49 27.28c-15.6 0-27.49-12.04-27.49-27.06zm5.91-.14c0 12.4 9.33 22.08 21.65 22.08 12.47 0 21.59-10.04 21.59-22.08s-9.12-22.08-21.65-22.08c-12.4 0-21.59 9.83-21.59 22zm97.72-12.67a22 22 0 0 0-5.9-5.7 21.3 21.3 0 0 0-12.26-3.7c-11.53 0-21.58 8.83-21.58 22 0 13.39 10.12 22.22 21.65 22.22 5.56 0 10.47-1.92 14.1-4.77 3.71-2.92 6.27-6.91 7.13-11.04h-28.69V99.1h35.52a26 26 0 0 1-2.35 10.19c-4.56 9.9-15.1 15.67-25.7 15.67-15.39 0-27.57-11.83-27.57-27.42 0-15.81 12.4-27.2 27.63-27.2 10.69 0 20.59 5.98 24.72 14.6zM195 71.27h29.2v5.2h-23.36v18.3h23.22v5.2h-23.22v18.8h23.36v5.2H195zm31.55 26.49c0-16.23 12.6-27.42 27.49-27.42 15.45 0 27.49 11.83 27.49 27.28s-11.96 27.28-27.49 27.28c-15.6 0-27.5-12.04-27.5-27.06zm5.91-.14c0 12.4 9.33 22.08 21.65 22.08 12.46 0 21.58-10.04 21.58-22.08s-9.12-22.08-21.65-22.08c-12.4 0-21.58 9.83-21.58 22zm114.11.14c0-16.23 12.6-27.42 27.5-27.42 15.45 0 27.48 11.83 27.48 27.28s-11.96 27.28-27.49 27.28c-15.6 0-27.5-12.04-27.5-27.06zm5.9-.14c0 12.4 9.34 22.08 21.66 22.08 12.47 0 21.58-10.04 21.58-22.08s-9.11-22.08-21.65-22.08c-12.39 0-21.58 9.83-21.58 22zm107.91 12.18c-3.42 8.12-12.6 15.1-24.22 15.1-15.6 0-27.49-12.04-27.49-27.28 0-15.02 11.61-27.27 27.42-27.27 13.03 0 21.22 8.69 24.29 15.38h-6.34c-1.78-3.13-7.77-10.18-17.95-10.18-12.32 0-21.58 9.75-21.58 22 0 12.47 9.33 22.15 21.58 22.15 11.04 0 16.67-7.9 17.95-9.9zm57.82-38.53h29.21v5.2h-23.36v18.3h23.22v5.2h-23.22v18.8h23.36v5.2h-29.2zm58.84 5.2h-16.99v-5.2H600v5.2h-17.05v47.5h-5.92zm-73.72 47.5h7.33l-27.38-26.42 25.17-26.28h-6.4L474.4 99.84V71.27h-5.84v52.7h5.84V106.8l5.37-5.62zM320.46 128 286.1 59.67l.17-.11 8.57-4.38 12.1-6.18c4.24-2.18 8.69-3.49 13.5-3.33a15 15 0 0 1 8.9 3.06 18 18 0 0 1 5.22 6.68 19 19 0 0 1 2.1 7.8c.06 3.85-1.1 7.33-3.17 10.56a32 32 0 0 1-4.8 5.91c-1.28 1.21-2.64 2.33-3.96 3.5L310.4 73.02l2.69-9.83h13.69v-10.4l-21.06.2-7.62 21.54 24.51 20.27a49 49 0 0 0 9.23-4.64c4.61-3 8.46-6.77 11.29-11.52a28.4 28.4 0 0 0 4.01-14.35q.06-4.77-1.37-9.34a26.4 26.4 0 0 0-6.09-10.75 28.4 28.4 0 0 0-20.2-9.13c-4.7-.16-9.16.9-13.36 3-1.9.96-3.75 1.99-5.66 2.91q-6.36 3.07-12.76 6.09l-11.26 5.34-3.81 1.8 38.2 77.93z" style="fill-opacity:1;fill:#fff" transform="scale(.44 .43894)"/><path d="m320.46 128-9.62 4.14-38.2-77.92 3.8-1.81 11.27-5.34q6.39-3.02 12.76-6.09c1.9-.92 3.76-1.95 5.65-2.9a27 27 0 0 1 13.37-3 28.4 28.4 0 0 1 20.2 9.12 26.5 26.5 0 0 1 6.09 10.75 30 30 0 0 1 1.37 9.34 28.4 28.4 0 0 1-4.02 14.35 35 35 0 0 1-11.3 11.52 49 49 0 0 1-9.21 4.64l-24.51-20.27L305.73 53l21.06-.2v10.39h-13.7l-2.69 9.83 14.33 10.16c1.32-1.16 2.68-2.29 3.95-3.5a32 32 0 0 0 4.81-5.9 18.7 18.7 0 0 0 3.16-10.57c-.05-2.77-.9-5.33-2.1-7.8-1.25-2.6-2.9-4.9-5.22-6.68-2.63-2-5.63-2.95-8.9-3.06-4.8-.16-9.26 1.15-13.5 3.33q-6.03 3.1-12.1 6.18l-8.56 4.38-.17.11zm8.09-99.93-6.8-1.4 4-26.67 12.47 1.82zm37.15-7.24 6.6 10.7-21.66 13.41-4.53-6.76zM348.27 6.86l9.47 6.55-17.07 20.36-6.02-3.71z" style="fill-opacity:1;fill:#fff" transform="scale(.44 .43894)"/></svg>