<svg xmlns="http://www.w3.org/2000/svg" viewBox="0 0 264 78"><path d="m35.96 115.28-.07-44h5.7v52.7h-5.7L5.56 79.6l.14 44.37H0v-52.7h5.98zm11.99-44.01h27.96v5.2H53.8v18.3h21.98v5.2H53.8v18.8h22.12v5.2H47.95zm30.62 26.49c0-16.23 12.6-27.42 27.5-27.42 15.45 0 27.48 11.83 27.48 27.28s-11.96 27.28-27.49 27.28c-15.6 0-27.49-12.04-27.49-27.07zm5.91-.14c0 12.4 9.33 22.08 21.65 22.08 12.47 0 21.59-10.04 21.59-22.08s-9.12-22.08-21.65-22.08c-12.4 0-21.59 9.83-21.59 22zm97.72-12.67a22 22 0 0 0-5.9-5.7 21.3 21.3 0 0 0-12.26-3.7c-11.53 0-21.58 8.83-21.58 22 0 13.39 10.12 22.22 21.65 22.22 5.56 0 10.47-1.92 14.1-4.77 3.71-2.92 6.27-6.91 7.13-11.04h-28.69V99.1h35.52a26 26 0 0 1-2.35 10.19c-4.56 9.9-15.1 15.67-25.7 15.67-15.39 0-27.57-11.83-27.57-27.42 0-15.81 12.4-27.2 27.63-27.2 10.69 0 20.59 5.98 24.72 14.6zM195 71.27h29.2v5.2h-23.36v18.3h23.22v5.2h-23.22v18.8h23.36v5.2H195zm31.55 26.49c0-16.23 12.6-27.42 27.49-27.42 15.45 0 27.49 11.83 27.49 27.28s-11.96 27.28-27.49 27.28c-15.6 0-27.5-12.04-27.5-27.07zm5.91-.14c0 12.4 9.33 22.08 21.65 22.08 12.46 0 21.58-10.04 21.58-22.08s-9.12-22.08-21.65-22.08c-12.4 0-21.58 9.83-21.58 22zm114.11.14c0-16.23 12.6-27.42 27.5-27.42 15.45 0 27.48 11.83 27.48 27.28s-11.96 27.28-27.49 27.28c-15.6 0-27.5-12.04-27.5-27.07zm5.9-.14c0 12.4 9.34 22.08 21.66 22.08 12.47 0 21.58-10.04 21.58-22.08s-9.11-22.08-21.65-22.08c-12.39 0-21.58 9.83-21.58 22zm107.91 12.18c-3.42 8.12-12.6 15.1-24.22 15.1-15.6 0-27.49-12.04-27.49-27.27 0-15.03 11.61-27.28 27.42-27.28 13.03 0 21.22 8.69 24.28 15.38h-6.33c-1.79-3.13-7.77-10.18-17.95-10.18-12.32 0-21.58 9.75-21.58 22 0 12.47 9.33 22.15 21.58 22.15 11.04 0 16.66-7.9 17.95-9.9zm57.82-38.53h29.21v5.2h-23.36v18.3h23.22v5.2h-23.22v18.8h23.36v5.2h-29.2zm58.84 5.2h-16.99v-5.2H600v5.2h-17.05v47.5h-5.92zm-350.3 88.11c-2.17 7.4-9.13 12.66-17.48 12.66a18.5 18.5 0 0 1-18.74-18.6c0-9.51 7.39-18.5 18.7-18.5A18.2 18.2 0 0 1 226.73 153h-7.58a11.1 11.1 0 0 0-10-6.52c-6.95 0-11.44 5.85-11.44 12.18 0 6.51 4.68 12.27 11.5 12.27 6.37 0 9.26-5.03 9.94-6.33zm19.28-5.6c0-11.45 8.78-18.84 18.74-18.84 10.81 0 18.79 8.4 18.79 18.55s-7.93 18.54-18.84 18.54c-10.97 0-18.7-8.64-18.7-18.2zm7.2-.29c0 6.52 4.68 12.22 11.63 12.22 7.25 0 11.5-6.28 11.5-12.17 0-5.99-4.25-12.27-11.55-12.27-7.15 0-11.59 5.9-11.59 12.17zm51.58-17.87h7.2v29.42h11.73v6.32H304.8zm36.63 18.16c0-11.45 8.79-18.84 18.74-18.84 10.82 0 18.79 8.4 18.79 18.55s-7.93 18.54-18.84 18.54a18.36 18.36 0 0 1-18.7-18.2zm7.2-.29c0 6.52 4.68 12.22 11.63 12.22 7.25 0 11.5-6.28 11.5-12.17 0-5.99-4.25-12.27-11.54-12.27-7.15 0-11.6 5.9-11.6 12.17zm154.69-34.72h7.33l-27.38-26.42 25.17-26.28h-6.4L474.4 99.84V71.27h-5.84v52.7h5.84V106.8l5.37-5.62zm-95 16.85c4.01.1 7.57.3 10.76 2.99.83.67 1.6 1.54 2.17 2.42a12 12 0 0 1 1.8 6.34 11 11 0 0 1-1.44 5.51c-.36.57-.82 1.34-1.9 2.32a12 12 0 0 1-2.9 1.8c-.87.36-1.75.62-3.65 1.03l10.51 13.97h-8.09l-10.1-13.76v13.75h-7.26v-36.37zm-2.84 17.26h3.6c.42 0 .78 0 1.2-.05.77 0 3.34-.1 5.04-2.16a5.2 5.2 0 0 0 1.14-3.35 5.5 5.5 0 0 0-.98-3.25c-1.6-2.16-4.08-2.37-6.55-2.42h-3.45zM320.46 128 286.1 59.67l.17-.11 8.57-4.38 12.1-6.18c4.24-2.18 8.69-3.49 13.5-3.33 3.27.1 6.26 1.05 8.9 3.06a18 18 0 0 1 5.22 6.67 19 19 0 0 1 2.1 7.81c.06 3.85-1.1 7.33-3.17 10.56a31 31 0 0 1-4.8 5.91c-1.28 1.21-2.64 2.33-3.96 3.5L310.4 73.01l2.69-9.83h13.69v-10.4l-21.06.2-7.62 21.53 24.51 20.28a49 49 0 0 0 9.23-4.64c4.61-3 8.46-6.77 11.29-11.52a28.4 28.4 0 0 0 4.02-14.35q.04-4.77-1.38-9.34a26.5 26.5 0 0 0-6.09-10.76 28.4 28.4 0 0 0-20.2-9.12c-4.7-.17-9.16.9-13.36 3-1.9.96-3.75 1.99-5.65 2.91q-6.38 3.06-12.77 6.08l-11.26 5.35-3.81 1.8 38.2 77.93z" style="fill-opacity:1;fill:#fff" transform="scale(.44)"/><path d="m320.46 128-9.62 4.14-38.2-77.92 3.8-1.81 11.27-5.34q6.39-3.02 12.76-6.09c1.9-.92 3.76-1.95 5.65-2.9a27 27 0 0 1 13.37-3.01c7.97.28 14.7 3.38 20.2 9.13a26.5 26.5 0 0 1 6.09 10.75 30 30 0 0 1 1.37 9.34 28.4 28.4 0 0 1-4.02 14.35 35 35 0 0 1-11.3 11.52 49 49 0 0 1-9.21 4.64L298.1 74.53l7.62-21.54 21.06-.2v10.4h-13.7l-2.69 9.83c4.76 3.37 9.49 6.72 14.32 10.16 1.33-1.17 2.69-2.29 3.96-3.5a32 32 0 0 0 4.8-5.9 18.7 18.7 0 0 0 3.17-10.57c-.05-2.77-.9-5.34-2.1-7.8a18 18 0 0 0-5.22-6.68 15 15 0 0 0-8.9-3.06c-4.8-.16-9.26 1.15-13.5 3.33q-6.03 3.1-12.1 6.18l-8.56 4.38-.17.11zm8.09-99.93-6.8-1.4 4-26.67 12.47 1.82zm37.15-7.24 6.6 10.7-21.66 13.41-4.53-6.76zM348.27 6.86l9.47 6.55-17.07 20.36-6.02-3.71z" style="fill-opacity:1;fill:#fff" transform="scale(.44)"/></svg>