<svg xmlns="http://www.w3.org/2000/svg" viewBox="0 0 210 42"><path d="M0 66.06a12 12 0 1 1 24 0 12 12 0 0 1-24 0m8.83-5.1a1.1 1.1 0 0 0-.58.97v8.25a1.13 1.13 0 0 0 1.72.96L16.72 67a1.13 1.13 0 0 0 0-1.92l-6.75-4.13a1.1 1.1 0 0 0-1.14-.02z" style="fill:#fff;transform-box:fill-box;transform-origin:50% 50%" transform="translate(1.97 -45.06)"/><path d="m42.47 75.43-3.06-6.66a1 1 0 0 1-.12-.58q0-.38.06-.86h-.24l-1.41 8.1H32l3.3-18.75h5.37l3.06 6.66q.09.2.09.58t-.06.86H44l1.44-8.1h5.7l-3.3 18.75zm16.65-12.48-1.38 7.8h2.37q1.17 0 1.74-.28.57-.3.75-1.31l1.38-7.8h-2.4q-1.14 0-1.71.29t-.75 1.3m3.45-6.72q3.81 0 5.43 1.49 1.62 1.48 1.62 4.57t-.98 6.46T65.55 74t-6.18 1.88q-4.05 0-5.68-1.48-1.62-1.5-1.62-4.58 0-1.47.42-3.88t1.1-4.17a10 10 0 0 1 1.87-3.05q2.25-2.49 7.1-2.49m26.97.45h5.97l-6.1 18.75h-7.55v-6.9h-.33l-2.5 6.9H72.1V56.68h5.97l-.54 10.47h.18l3.9-10.47h4.53v10.47h.18zm21.2 14.22h-3.71l-.78 4.53h-5.7l3.3-18.75h9q5.1 0 5.1 4.74a12.3 12.3 0 0 1-2.03 6.94 6.2 6.2 0 0 1-5.17 2.54m-2.06-9.42-.81 4.62h1.32q1.03 0 1.54-.22.53-.23.68-1.04.39-2.22.39-2.43 0-.57-.45-.75t-1.35-.18zm20.46 13.95h-11.4l3.3-18.75h5.7l-2.46 13.95h5.7zm4.14 0h-6l7.89-18.75h8.82l1.32 18.75h-6.03l-.12-2.97h-4.71zm5.13-12.99-2.1 5.25h2.4v-5.25zm14.49-5.76.39 6.6h.2l2.77-6.6h6.3L155 70.33l-.87 5.1h-5.7l.87-5.1-2.7-13.65zm7.23 18.75 3.3-18.75h5.7l-3.3 18.75zm19.7 0-3.05-6.66a1 1 0 0 1-.12-.58q0-.38.06-.86h-.24l-1.41 8.1h-5.7l3.3-18.75h5.37l3.06 6.66q.09.2.09.58t-.06.86h.24l1.44-8.1h5.7l-3.3 18.75zm19.39-5.52.15-.81h-1.44l.8-4.59h6.88l-1.77 10.02a21 21 0 0 1-7.35 1.35q-3.7 0-5.33-1.47t-1.63-4.53q0-1.29.42-3.81.9-5.22 3.18-7.53t7.56-2.31q1.1 0 2.83.24t2.54.54l-1.65 4.59q-2.25-.42-4.13-.42a9 9 0 0 0-2.68.3q-.81.3-.96 1.2l-1.47 8.49h1.89q1.02 0 1.51-.23.5-.22.65-1.03" style="white-space:pre;fill:#fff;transform-box:fill-box;transform-origin:50% 50%" transform="translate(1.97 -45.06)"/></svg>