<svg xmlns="http://www.w3.org/2000/svg" viewBox="0 0 3790.2 1124.33"><g style="display:inline;fill:#fff;fill-opacity:.39409864"><path d="m476 213.71-4.48-.04-3.97-.26-3.97-.25-2.9-.36-2.92-.37-3.86-.76-3.86-.77-3.34-1.16-3.34-1.16-2.85-1.47-2.86-1.47-2.42-1.8-2.43-1.8-2.18-2.36-2.18-2.36-1.74-2.61-1.74-2.61-1.42-3.01-1.42-3.01-.96-2.88-.97-2.88-.8-4.02-.82-4.02-.47-4.02-.47-4.03-.37-7-.36-6.99.23-5.12.23-5.12.16-2.4.16-2.4v-1.52l.01-1.52h.63l-.16-1.48-.17-1.49.24.4.24.38.22-1.93.22-1.93.96-3.94.96-3.93 1.28-3.2 1.29-3.2 1.46-2.56 1.47-2.56 1.14-1.6 1.15-1.6 2.09-2.2 2.09-2.2 1.76-1.35 1.76-1.36 2.56-1.47 2.56-1.48 3.2-1.27 3.2-1.28 3.9-.95 3.9-.96 3.46-.5 3.46-.5 4.32-.32 4.32-.32h7.75l4.12.32 4.13.32 5.92.83 5.92.83 4.26 1.07 4.27 1.07.4.34.42.34-2.85 14.32-2.85 14.32-.12.35-.1.34-3.96-.73-3.95-.72-4.64-.55-4.64-.56h-6.72l-6.72.01-3.02.54-3.01.54-1.46.64-1.46.65-.77.7-.77.71-.75 1.6-.75 1.6v26.58l-.01 26.59 2 .36 2 .37 3.04.35 3.04.36h6.4l6.4-.01 4.48-.52 4.48-.51 3.87-.8 3.88-.78 3-.94 2.99-.94.15.15.16.16.06 1.35.06 1.35.2 1.92.2 1.92.14 1.44.14 1.44.2 2.24.2 2.24.12 1.28.13 1.28.18 2.4.2 2.4.12 1.12.12 1.12.37 3.92.37 3.93-.16.43-.17.43-3.14 1-3.15 1-2.72.63-2.72.63-3.36.48-3.36.49-4.64.33-4.64.32zm97.12-.12-6.56.13-3.51-.3-3.51-.29-3.97-.67-3.97-.67-3.17-.94-3.16-.94-2.86-1.23-2.86-1.23-2.4-1.5-2.42-1.5-2.56-2.42-2.57-2.41-1.6-2.13-1.6-2.13-1.57-3.04-1.57-3.04-1.12-3.23-1.12-3.23-.64-3-.64-3.02-.43-2.88-.43-2.88.06-9.28.05-9.28.1-1.65.11-1.66.14.14.14.14.7-3.49.7-3.48.89-2.68.88-2.68 1.22-2.57 1.22-2.58 1.66-2.54 1.66-2.54 2.11-2.2 2.12-2.2 1.76-1.35 1.76-1.35 2.24-1.31 2.24-1.32 2.79-1.14 2.79-1.14 3.62-.94 3.62-.93 3.44-.51 3.45-.52 5.5-.3 5.51-.3 5.51.3 5.51.3 3.3.51 3.28.51 3.04.76 3.04.75 2.4.87 2.4.86 1.92.96 1.92.95 2.71 1.8 2.71 1.78 2.12 2.1 2.11 2.09 1.69 2.4 1.68 2.4 1.45 2.87 1.45 2.88 1.2 3.68 1.2 3.69.41 2.3.4 2.32.27-.17.27-.16-.2.96-.19.97.25.57.24.57.2 2.4.19 2.4-.03 6.56-.04 6.56-.54 4.25-.55 4.25-.92 3.78-.92 3.77-.98 2.46-.98 2.46-1.09 2.16-1.1 2.15-1.68 2.4-1.7 2.4-2.27 2.24-2.27 2.24-2.23 1.48-2.22 1.48-2.26 1.14-2.27 1.13-3.2 1.12-3.2 1.11-3.03.66-3.03.65-3.82.51-3.83.5zm-5.52-28.08 6.32-.17 2.24-.65 2.24-.65 1.02-1.1 1.01-1.12.34-1.21.33-1.21.02-19.94v-19.94h-8.03l-3.07.34-3.08.35-1.71.64-1.71.64-.77 1.01-.77 1.02-.35 1.28-.35 1.28v39.6zm441.52 28.07-4.8.11-1.44-.12-1.44-.13-2.55-.32-2.55-.33-2.09-.51-2.09-.52-2.78-1.2-2.79-1.2-2.39-1.48-2.39-1.5-2.23-2.38-2.23-2.39-1.29-2.64-1.3-2.65-.64-2.47-.64-2.46-.4-2.66-.39-2.65-.01-4.16-.01-4.16.14-1.68.15-1.68h.55l-.14-.94-.13-.95.23.15.24.15.22-1.05.22-1.04 1.2-2.6 1.2-2.6 1.3-1.88 1.28-1.88 2.2-2.12 2.2-2.12 2.34-1.51 2.35-1.52 2.6-1.2 2.62-1.21 3.12-1 3.13-1 2.8-.62 2.79-.61 3.52-.5 3.52-.5 4.48-.32 4.48-.33h13.28v-6.98l-3.44-.23-3.44-.24-8.16.2-8.16.18-4.32.5-4.32.5-3.84.64-3.84.66-4.16 1.08-4.16 1.07-.55.22-.54.22-.17-.75-.17-.75-2.23-12.95-2.24-12.95.39-.23.38-.24 2.56-.7 2.57-.69 5.22-1.06 5.22-1.07 5.18-.65 5.18-.64 4.64-.36 4.64-.36h17.92l4.48.53 4.48.53 3.04.65 3.04.65 3.04.97 3.04.96 3.17 1.62 3.16 1.62 2.34 1.86 2.34 1.86 1.6 2 1.61 2.01 1.29 2.56 1.28 2.56.6 2.37.6 2.37.17-.45.17-.45.04 37.52.05 37.52h-9.85l-9.85-.01-5.68-5.47-5.69-5.46-1.92 1.78-1.92 1.77-2 1.42-1.99 1.42-2.58 1.3-2.58 1.3-2.54.98-2.54.99-2.93.8-2.92.8-2.68.48-2.67.49zm10.96-28.06 7.28-.16 1.9-.53 1.92-.54 1.01-.77 1.02-.78.68-1.4.67-1.38v-10.43l-7.6.15-7.6.15-1.76.56-1.76.56-.85.6-.86.61-.66 1.38-.67 1.38v10.76zm228.88 28.2-3.04-.05-2.53-.26-2.53-.27-2.6-.53-2.58-.52-2.72-.96-2.72-.96-1.6-.8-1.6-.81-2.14-1.38-2.13-1.38-2.44-2.32-2.45-2.32-1.74-2.62-1.75-2.63-1.56-3.31-1.56-3.32-1.15-3.57-1.14-3.57-.8-3.95-.79-3.95-.37-4-.36-4 .2-7.2.21-7.2.06-1.34.05-1.34.15.14.15.15.73-3.63.73-3.63 1-2.86 1.01-2.85 1.07-2.25 1.06-2.25 1.57-2.4 1.56-2.38 1.73-1.88 1.72-1.89 2.04-1.54 2.03-1.54 3.1-1.58 3.09-1.58 2.66-.84 2.67-.84 2.93-.47 2.94-.48h28V81l.24-.15.24-.15-.1 2.4-.11 2.4 2.02-.2 2.03-.2 15.52-1.1 15.52-1.1 2.16-.2 2.16-.2v128.38h-9.84l-9.84-.02-4.24-4.02-4.24-4.02-2.35 2.19-2.35 2.19-2.46 1.4-2.46 1.4-2.65.92-2.65.9-3.05.64-3.05.62-3.81.34-3.81.33zm5.2-28.13h4.88l2.24-.32 2.24-.32 1.47-.48 1.47-.49.83-.87.84-.87.48-1.17.5-1.17v-20.19l.02-20.19h-8.04l-3.07.34-3.08.35-1.71.64-1.71.64-.77 1.01-.77 1.02-.35 1.28-.35 1.28v39.52zm126.32 28-7.52.13-3.51-.3-3.51-.29-3.97-.67-3.97-.67-3.17-.94-3.16-.94-2.86-1.23-2.86-1.23-2.4-1.5-2.42-1.5-2.56-2.42-2.57-2.41-1.6-2.13-1.6-2.13-1.57-3.04-1.57-3.04-1.12-3.23-1.12-3.23-.64-3-.64-3.02-.43-2.88-.43-2.88.06-9.28.05-9.28.1-1.65.1-1.66.15.14.14.14.7-3.49.7-3.48.89-2.68.88-2.68 1.22-2.57 1.22-2.58 1.66-2.54 1.65-2.54 2.12-2.2 2.12-2.2 1.76-1.35 1.76-1.35 2.24-1.31 2.24-1.32 2.8-1.15 2.8-1.15 2.96-.78 2.96-.79 3.8-.64 3.79-.65 5.65-.3 5.65-.32 7.04.3 7.03.3 4 .5 4 .5 3.68.82 3.68.82 2.88 1.1 2.88 1.12 2.3 1.43 2.3 1.43 1.91 2.09 1.92 2.08 1.27 2.47 1.27 2.46.82 2.6.82 2.62.22 1.63.21 1.63h.49l-.07 7.44-.07 7.44-.7 2.72-.7 2.72-1.45 2.93-1.45 2.93-1.94 2.12-1.95 2.12-1.96 1.4-1.96 1.39-2.24 1.11-2.24 1.12-3.11 1-3.12 1-3.92.78-3.93.78-4.32.5-4.32.5-4.8.32-4.8.31h-4.73l-4.73.01.09 3.44.09 3.44 2.56.26 2.56.25 8.96-.15 8.96-.16 3.52-.5 3.52-.5 3.68-.66 3.68-.65 4.32-1.1 4.32-1.08 1.5-.46 1.5-.46.23.53.23.52-.07.69-.07.69.33.2.32.2-.18.47-.18.47.24.56.25.56-.07.69-.07.69.34.2.34.22-.18.74-.2.75.37.22.36.22-.2.61-.2.61.26.4.26.41.05.8.05.8.21 1.12.2 1.12.17.96.16.96.14.8.14.8.16.96.16.96.19 1.12.19 1.12.12.64.12.64.19 1.12.18 1.12.13 1.34.12 1.34-3.41.81-3.42.82-3.04.62-3.04.62-5.28.82-5.28.82-5.12.5-5.12.48zm-8.5-57.76h3.86l3.68-.3 3.68-.31 1.64-.5 1.63-.48.89-.7.88-.69.6-1.3.59-1.31v-5.36l.02-5.36h-9.95l-3.08.34-3.07.35-1.72.64-1.7.64-.77 1.01-.77 1.02-.35 1.28-.35 1.28v6.88l5.36.07 5.36.07-5.36.1-5.36.1v2.11l.21.22.22.21zm-712.14 55.05H640v-96.32h10l10 .02 4.48 4.27 4.48 4.27 1.6-1.45 1.6-1.45 2.56-1.67 2.56-1.67 1.6-.8 1.6-.8 2.74-.97 2.74-.97 3.09-.67 3.1-.67 4.24-.3 4.26-.3 4.94.29 4.94.3 2.73.5 2.74.5 2.24.66 2.24.66 2.35 1.08 2.35 1.08 1.97 1.4 1.97 1.4 2.6-1.5 2.6-1.49 2.55-1 2.56-1.01 2.74-.8 2.75-.8 3.46-.53 3.46-.53h5.44l5.44-.01 3.2.39 3.2.4 2.9.73 2.9.73 2.51 1.05 2.5 1.04 2.34 1.56 2.34 1.57 1.74 1.92 1.74 1.92 1 2.05 1.02 2.06.46 2.17.46 2.17v79.52h-39.67v-67.6l-4.9.13-4.9.14-1.81.88-1.82.9-.92 1.1-.92 1.13-.37 1.22-.36 1.21v60.89h-39.68v-67.6l-5.04.14-5.04.14-1.35.7-1.35.7-1.12 1.12-1.11 1.11-.5 1.67-.5 1.66v60.36zm169.92 0h-19.84v-96.32h10l10 .02 4.48 4.27 4.48 4.27 1.6-1.45 1.6-1.45 2.56-1.67 2.56-1.67 1.6-.8 1.6-.8 2.74-.97 2.74-.97 3.09-.67 3.1-.67 4.24-.3 4.26-.3 4.94.29 4.94.3 2.73.5 2.74.5 2.24.66 2.24.66 2.35 1.08 2.35 1.08 1.97 1.4 1.97 1.4 2.6-1.5 2.6-1.49 2.55-1 2.56-1.01 2.74-.8 2.75-.8 3.46-.53 3.46-.53h5.44l5.44-.01 3.2.39 3.2.4 2.9.73 2.9.73 2.51 1.05 2.5 1.04 2.34 1.56 2.34 1.57 1.74 1.92 1.74 1.92 1 2.05 1.02 2.06.46 2.17.46 2.17v79.52h-39.67v-67.6l-4.9.13-4.9.14-1.81.88-1.82.9-.92 1.1-.92 1.13-.37 1.22-.36 1.21v60.89H865.6v-67.6l-5.04.14-5.04.14-1.35.7-1.35.7-1.12 1.12-1.11 1.11-.5 1.67-.5 1.66v60.36zm282.55 0h-19.83v-96.32h20.2l4.73 4.64 4.73 4.64h.35l2.82-1.77 2.82-1.77 3.54-1.72 3.53-1.71 3.2-1.2 3.2-1.19 3.52-.88 3.52-.89 3.84-.55 3.84-.56h11.2l3.18.56 3.18.55 2.42.78 2.42.79 2.06 1.13 2.07 1.13 1.85 1.45 1.85 1.45 1.26 1.64 1.26 1.64.98 2.06.97 2.06.2 1.38.21 1.38h.57v79.84l-.2.72-.19.72h-39.2l-.2-.72-.2-.72v-66.15l-6.31.15-6.32.15-1.91.54-1.9.54-1.06.8-1.05.8-.56 1.03-.56 1.02-.09 31.28-.08 31.28h-19.84zm348.81 0h-19.84v-96.32h20.07l5.41 5.24 5.42 5.24 1.27-1.08 1.27-1.09 3.05-2.06 3.05-2.07 4-1.89 3.98-1.9 3.04-.98 3.04-1 3.2-.76 3.2-.77.25.84.25.84.15 2.88.15 2.88.17 2.56.17 2.56.12 1.92.11 1.92.22 3.2.22 3.2.1 1.76.1 1.76.2 3.04.2 3.04.04.48.05.48-.05 1.5-.05 1.5-1.52.2-1.52.2-3.33.64-3.32.65-3.19.95-3.19.95-2.19 1.1-2.19 1.1-1.13 1-1.14 1v55.29zm10.79-89.28h-.09l-1.91-2-1.91-2 2 1.91 2 1.91v.18zm-449.99-13.86H1020l1.05-.13 1.04-.13.88.13.87.13z" style="display:inline;fill:#fff;fill-opacity:.39409864;stroke-width:.32" transform="translate(-210.89 145.29)scale(2.63381)"/></g><path d="m189.3 708.27-11.38-.11-9.9-.67-9.9-.67-9.49-1.39-9.48-1.38-7.17-1.64-7.16-1.63-8-2.6-8.01-2.6-7.3-3.61-7.31-3.61-4.5-3-4.5-3-4.92-4.18-4.93-4.18-4.2-4.92-4.19-4.93-4.58-6.85-4.58-6.85-3.7-7.9-13.12-44.25-1.24-10.59-1.24-10.6-.96-18.42-.96-18.43.64-12.22.63-12.22.37-5.48.37-5.48.12-4 .13-4h1.49l-.44-3.91-.44-3.91.65 1.04.64 1.04.61-4.93.61-4.93 2.93-11.66 2.92-11.66 2.82-7.38 2.8-7.37 3.13-6.25 3.12-6.25 4.63-7 4.62-6.99 5.62-5.7 5.62-5.69 6.3-4.45 6.32-4.46 7.17-3.62 7.16-3.61 7.43-2.63 7.44-2.62 6.52-1.66 6.52-1.67 10.49-1.68 10.48-1.68 11.8-.87 11.8-.87h23.6l11.38.85 11.38.84 9.02 1.3 9.03 1.31 8.57 2.08 8.57 2.07 6.42 2.2 6.43 2.2 8.43 4.19 8.42 4.19 5.48 3.87 5.48 3.87 6 5.95 5.98 5.95 5.25 8 5.25 8 3.34 7 3.34 7 3.27 9.86 3.27 9.87 2.17 9.8 2.17 9.79v2l.02 2.01.74-1.17.74-1.16-.44 3.9-.44 3.9h1.5l.14 4.01.15 4 .4 4.64.41 4.64.6 16.85.61 16.86-1 16.85-.99 16.86-1.22 9.7-1.23 9.69-2.13 10.3-2.12 10.31-3.01 8.66-3 8.65-4.73 9.25-4.72 9.25-6.26 8.3-6.27 8.32-6.68 5.7-6.68 5.68-6.62 4-6.62 4-8.07 3.33-8.07 3.32-11.18 2.84-11.18 2.84-9.7 1.37-9.68 1.36-12.23.82-12.22.82zm-9.5-86.89 30.14-.36 6.74-1.84 6.74-1.84 2.9-2.34 2.89-2.35 1.71-3.3 1.71-3.29.03-3.1.04-3.12.6.37.6.37.05-69.22.04-69.22-30.99.37-30.99.37-5.68 1.7-5.69 1.7-3.27 2.17-3.27 2.16-2 4.06-2 4.06-.23 71.51-.23 71.51zm289.52 79.22-86.18.33V382.96l87.45.35 87.44.35 10.46 1.4 10.46 1.4 10.24 2.07 10.24 2.07 7.85 2.57 7.86 2.57 7.17 3.36 7.17 3.36 6.84 4.55 6.83 4.56 6 6.19 5.99 6.19 4.37 6.7 4.38 6.7 3.21 6.79 3.21 6.78 2.18 6.33 2.18 6.34 2.15 8.41 2.14 8.42 1.02 6.94 1.01 6.94.66-1.04.65-1.04-.5 3.12-.5 3.12.63 1.52.64 1.5.46 5.9.46 5.9v54.8l-1.46 12.21-1.47 12.22-2.1 10.46-2.1 10.46-3.32 10.2-3.32 10.18-3 6.23-2.98 6.23-4.73 7.25-4.73 7.26-6 6-5.99 5.99-6.71 4.38-6.71 4.38-6.3 2.99-6.3 2.99-8.78 2.87-8.78 2.88-10.24 2.05-10.23 2.05-11.38 1.45-11.38 1.46-86.18.33zm39.33-80.7 19.88-.01 11.47-.83 11.48-.83 5.6-1.73 5.61-1.73 2.88-2.53 2.88-2.53 1.43-3.73 1.42-3.72-.45-1.72-.44-1.7.76.46.77.48-.22-59.68-.2-59.68-1.83-3.37-1.81-3.37-2.4-2.26-2.4-2.25-5.21-1.74-5.22-1.75-9.53-.84-9.53-.84-22.97-.01h-22.97v154.79l.57.56.56.56z" style="display:inline;fill:#fff;fill-opacity:1;stroke-width:.842821"/></svg>