<svg xmlns="http://www.w3.org/2000/svg" viewBox="0 0 3839 624.6"><path d="M3769.5 0H3664l-46 52.2h151.6c23.1 0 23.1 34.6 0 34.6h-136.2l-46 52.2-39.1 44.3-54.9 62.2h219.2l54.9-62.2h-148.2l39.1-44.3h111.2c92.6.1 92.6-139-.1-139M1287.2 624.5l-69.8-176.4h-35.3c-35.7 0-68.2-20.8-83.1-53.3l-138-301h188.6l72.4 195.7a29.8 29.8 0 0 0 28 19.5h4.7c20.3 0 34.7-19.8 28.4-39.2l-57.3-176.1h178.5l70.2 297.1c6.9 29.2-15.2 57.2-45.2 57.2h-40.2l51.8 176.4m1739.3-315.8a30 30 0 0 1-23.7 11.6c-24.5 0-38.6-27.8-24.1-47.6l130.9-178.9H3040L2855.6 396c-16.9 27.7 3 63.3 35.5 63.3h49.4l-114.2 165.2h180.5l136.6-165.2h65.7c11.9 0 23.3-5.1 31.2-14.1L3550 93.8h-203.9zm-853 316h350.1l70.9-123h-134.9c-21.8 0-36.2-22.5-27.2-42.3l5.1-11.1h187.9l80.2-139.1h-158.1c-21.8 0-36.2-22.5-27.2-42.3l5.1-11.1h214.2l90.2-161.8h-484.6zM1991 174.8l-14.3 212.7a56.8 56.8 0 0 0 56.7 60.6h133l-5.4 29a29.9 29.9 0 0 1-29.4 24.5H1969l-8.3 123H2250c18.5 0 34.8-12.2 39.9-30l64.4-221.8c9.3-31.9-14.7-63.7-47.8-63.7h-124.6c-18.4 0-32.4-16.4-29.5-34.6l3-18.8h233l47-161.8h-357.6a86.76 86.76 0 0 0-86.8 80.9m-513.6 23.6 41.3 196.1a67.6 67.6 0 0 0 66.1 53.7h191.7l1.2 21.8c1 17.2-12.7 31.6-29.8 31.6h-206.7l25.9 123h304.1c22.5 0 40.9-17.9 41.6-40.4l5.5-196c1.2-43.3-33.6-79.1-76.9-79.1h-154.9c-15.2 0-27.9-11.3-29.7-26.4l-3.2-27.1H1922l4.6-161.8h-364.4c-55 0-96.2 50.7-84.8 104.6m-542.1-45.9a104 104 0 0 0-93.6-58.7H485.4l111.8 161.8h229.5c10.8 0 20.8 5.9 26.1 15.3l104.1 186.2c11.1 19.9-3.3 44.5-26.1 44.5h-26.6L786.9 309.1H634.1L852 624.6h245.4c30.7 0 50.8-32.1 37.4-59.7zm-471.5-5.6A128.2 128.2 0 0 0 360 93.8H29.6c-26 0-39.3 31-21.5 49.9L431.4 592c19.6 20.8 46.9 32.5 75.4 32.5h220.5c33.9 0 53.6-38.4 33.7-65.9zM525 501.6a65 65 0 0 1-49.2-22.6L326.6 305c-16.6-19.4-2.9-49.4 22.7-49.4H360c19.7 0 38.4 9 50.7 24.4l137.7 173c15.6 19.6 1.7 48.6-23.4 48.6" class="st0" style="fill:#fff"/></svg>