<?xml version="1.0" encoding="UTF-8" standalone="no"?><svg viewBox="0 0 800 80" version="1.1" id="svg1" xmlns="http://www.w3.org/2000/svg" xmlns:svg="http://www.w3.org/2000/svg"><path fill="currentColor" d="M767 78.8c-.6-.7-7.6-11.2-15.5-23.3l-14.4-22 14.4-.3 14.5-.3V19h-51v60h-31V-.1l49.3.3c54 .3 51.9.1 57.8 6.5 4.9 5.2 5.9 8.5 5.9 18.8 0 5.9-.5 10.8-1.4 12.8-2 4.7-6.8 8.7-12.6 10.6l-5.1 1.7L788.1 64c5.7 7.4 10.7 13.7 11.1 13.8.5.2.6.8.2 1.3-.9 1.5-31.1 1.1-32.4-.3m-637.6-1.3c-.3-.6-.3-14.1-.2-30l.3-29h78.1l4.2 2.7c5.6 3.8 7.6 7.8 7.7 15.8 0 8.2-2.3 13.6-7.2 17-3.6 2.5-3.7 2.5-31 2.8l-27.4.3.2 10.5.2 10.5-12.3.2c-7.5.1-12.4-.2-12.6-.8M194 38v-5h-38.8l-.4 4.3c-.3 2.3-.3 4.5-.1 5 .2.4 9.2.7 19.9.7H194zm132.4 40.1c-.2-.2-.4-13.9-.4-30.3V18h37.5c40.8 0 41.5.1 46.7 5.6 1.5 1.6 3.1 4.9 3.7 7.4 1 4.2 1.6 46.2.7 47.1-.2.2-5.4.3-11.5.1l-11.1-.3-.2-22.2-.3-22.2-19.5-.3c-10.7-.1-20.5 0-21.7.3-2.3.5-2.3.6-2.3 22.5v21.9l-10.6.3c-5.8.2-10.8.1-11-.1m101-.6c-.3-.6-.3-11.4-.2-24l.3-23 43-.2 43-.2.9-4c1.7-7.6 4.7-7.1-43.9-7.1H427V0h49.4c35.1 0 50.3.3 52.7 1.2 5.2 1.8 8.5 4.6 11.3 9.8 3.4 6.3 3.7 17.7.6 22.8l-2 3.3 2 3.9c2.6 5 2.8 18.8.4 24.6-1.7 4.1-5.6 8.8-8.9 10.7-2.7 1.6-104.6 2.7-105.1 1.2M511.5 53v-6.5h-61l-.3 5.4c-.2 2.9-.1 6 .2 6.7.5 1.2 5.8 1.4 30.8 1.2l30.3-.3zM9.8 75.4c-2.1-1.3-5-4.3-6.5-6.6L.5 64.7l-.3-24c-.3-23.9-.3-24 2.2-29.1 2.7-5.4 7-9 12.7-10.6 4.7-1.4 82.3-1.3 87.2.1 2.1.5 5.3 2.4 7.3 4.1 6.5 5.7 6.8 7.1 7.2 29.7.2 11.3.1 22.8-.3 25.7-.7 6.1-4 10.9-10 14.8l-3.9 2.6-44.6-.1H13.5zm76.7-36.1V19.5h-56l-.3 19c-.1 10.4-.1 19.4.1 20 .3.7 9.9.9 28.3.8l27.9-.2zm145.9 34.2c-2.6-2.6-4.5-5.8-4.9-7.7s-.5-10.8-.3-19.9c.3-16.4.3-16.6 3.1-20.2 1.6-2.1 4.6-4.6 6.7-5.7 3.7-1.9 6-2 41.5-2H316v15l-32.7.2-32.8.3v8l30.8.3 30.8.2-.3 6.3-.3 6.2-30.5.2-30.5.2-.3 4-.3 4.1 32.8.2 32.8.3.3 7.3.3 7.2h-79.4zm332.4 1.2c-2.4-1.8-5.3-5.2-6.5-7.7-2.2-4.2-2.3-5.6-2.3-27.5 0-22.9 0-23.2 2.6-28.3 1.9-3.9 3.8-5.9 7.2-8l4.7-2.7 41.2-.3c28.7-.2 42.6.1 45.5.9 5.7 1.5 12.2 8 13.8 13.8.8 3 1.1 11.8.8 27-.3 21.6-.4 22.8-2.6 26.3-1.3 2-4.2 5.1-6.4 6.8l-4.2 3h-89.4zm77-35.2-.3-19.5-27.8-.3-27.7-.2V59h56z" id="path1" style="fill:#ffffff"/></svg>