<svg xmlns="http://www.w3.org/2000/svg" viewBox="0 0 155.87 44.29"><path d="M87.18 36.75a10 10 0 0 0 .7 1.14q.53.78 1.24 1.4.66.57 1.87.94v2.98H78.95l-8.32-14.03h12.01zm-22.42.06q0 1.59.53 2.44.54.86 2.13.98v2.98H51.45v-3.04q1.45-.06 2.06-.95.6-.9.6-2.34V15.1h10.64v4.03h5.2q2.97.06 5.45-1.18a4.2 4.2 0 0 0 2.24-2.85h3.63-3.63a8 8 0 0 0 .23-1.93q0-3.56-2.22-4.88a10.3 10.3 0 0 0-5.38-1.33h-5.51v8.14H54.1V7.4q0-1.65-.54-2.37-.54-.74-2.12-.98V.95h22.62q.1.06.22.06h.16q5.25.07 9.66 2.7t4.72 8.58a13 13 0 0 1-.3 2.82c-.36 1.7-1.14 3.3-2.26 4.63a14 14 0 0 1-6.69 4.34l3.06 5.1h-12l-2.4-4.03h-3.47Zm-52.6-7.63q.71 1.95 1.81 3.7Q17 37.7 23.51 37.7q5.82 0 8.84-4.37a19 19 0 0 0 3.4-9.63q.05-.37.05-.76v-.76l-.03-.9q-.03-.43-.03-.88a20 20 0 0 0-1.2-5.29 20 20 0 0 0-2.2-4.15q-2.94-4.3-8.77-4.3-6.6 0-9.6 4.84a20 20 0 0 0-1.77 3.6H1.05Q2.72 9.98 7 6.19A24.2 24.2 0 0 1 23.57 0q9.32 0 16.25 6.15a20 20 0 0 1 5.94 8.96q1 3.15 1 6.81 0 3.9-1.05 7.24a20 20 0 0 1-5.79 8.92q-6.84 6.2-16.54 6.2-9.76 0-16.56-5.95A19 19 0 0 1 .94 29.2 25 25 0 0 1 0 22.24v-.06q0-3.81 1.05-7.07H12.2a20 20 0 0 0-1.23 7.1c0 2.38 1.1 6.64 1.19 6.97m95.1 7.63q0 1.59.55 2.44.53.86 2.12.98v2.98H93.96v-3.04q1.46-.06 2.06-.95.6-.9.6-2.34V7.4q0-1.65-.54-2.37-.53-.74-2.12-.98V.95h15.97v3.04l-.76.13q-1.02.19-1.4.95a5 5 0 0 0-.5 1.65v22.44Zm23.51-4.72a14 14 0 0 0 11.47 5.48q1.11 0 2.22-.12 2.13-.26 4.03-1.27a5.3 5.3 0 0 0 2.56-3.23l3.42-.07v10.33q-1.45.38-2.94.6-1.5.23-3.01.35-2 .13-4 .13h-1.4q-.68 0-1.38-.06a46 46 0 0 1-9.98-1.62 24 24 0 0 1-8.9-4.6 22.5 22.5 0 0 1-6.58-8.83h-.01v-.02a21 21 0 0 1-1.65-8.31q0-3.07.73-5.74a18 18 0 0 1 6.43-9.47A25.4 25.4 0 0 1 137.88 0q5.44 0 10 2a21 21 0 0 1 7.99 6.3l-6.5 6.81-1.42 1.5-2.4-1.5-.46-.28q.33-.46.54-.98.23-.54.29-1.11 0-3.23-2.4-4.82a9.6 9.6 0 0 0-5.4-1.58q-6.08 0-8.9 3.96a15 15 0 0 0-2.11 4.38l-.12.43a19 19 0 0 0-.58 4.79q0 4.96 2.39 9.26a22 22 0 0 0 1.97 2.93m-119.8-9.91" style="fill:#fff"/></svg>