<?xml version="1.0" encoding="UTF-8" standalone="no"?><svg viewBox="0 0 100 81.8" version="1.1" id="svg1" xmlns="http://www.w3.org/2000/svg" xmlns:svg="http://www.w3.org/2000/svg"><path d="M 57.832857,3.4354997 V 59.304842 H 51.611879 V 9.298105 c 0,-0.4870189 -0.523775,-0.8178243 -1.010794,-0.8178243 H 48.947059 V 3.4354997 Z M 36.505103,14.866661 c -5.531799,0 -8.453913,3.197785 -8.453913,9.244171 v 4.226957 l 2.922114,0.0092 c 1.04755,0.0092 1.70916,-0.147025 2.058344,-0.487019 0.248104,-0.257293 0.367561,-0.643233 0.367561,-1.231331 v -3.179407 c 0,-3.280486 1.286465,-3.951286 3.234541,-3.951286 1.856185,0 2.756711,1.424301 2.756711,4.355604 v 6.349624 l -0.101079,0.04594 C 32.783544,32.684209 27.793897,35.137682 27.793897,42.4981 v 8.113919 c 0,6.285301 1.948076,8.821475 6.735564,8.821475 2.058344,0 3.455077,-0.679989 4.842622,-2.352393 l 0.211348,-0.266482 0.09189,0.330805 c 0,0 0.202159,0.946471 0.597287,1.415112 0.624855,0.744312 1.102685,0.744312 1.562137,0.744312 h 3.372376 V 23.449221 c 0,-5.853416 -2.756711,-8.58256 -8.702018,-8.58256 m 2.894547,33.28269 c 0,4.861001 -0.85458,6.671241 -3.161029,6.671241 -2.425905,0 -2.628064,-2.444284 -2.628064,-5.421532 v -6.29449 c 0,-4.925323 1.690783,-6.266923 5.550178,-8.141486 L 39.39965,34.843626 Z M 81.274089,18.367684 a 6.7079966,6.7079966 0 0 1 5.789093,-3.491834 c 5.421532,0 8.187432,3.546968 8.187432,10.539825 V 59.304842 H 89.176661 V 23.568679 c 0,-2.683199 -0.992416,-3.978853 -3.032382,-3.978853 -2.058345,0 -3.418322,0.964849 -3.418322,5.706392 V 59.304842 H 76.642815 V 23.577868 c 0,-2.683199 -0.983227,-3.988042 -3.023193,-3.988042 -2.049155,0 -3.418322,0.964849 -3.418322,5.706392 V 59.314031 H 64.00789 V 15.142332 h 3.445888 c 0.771879,0 1.001605,0 1.479435,0.349184 0.698367,0.505397 0.790257,1.929697 0.790257,1.948075 l 0.02757,0.459452 0.275672,-0.367561 a 6.1566544,6.1566544 0 0 1 5.173427,-2.664821 c 1.966454,0 4.401549,0.404318 5.779904,3.491834 l 0.128647,0.303238 z m -66.08755,-3.795072 c -2.067533,0 -4.19939,0.211348 -5.6972026,2.389149 A 4.5945182,4.5945182 0 0 0 9.121775,16.070425 C 8.4969205,14.848283 7.5320717,14.848283 6.6683022,14.848283 h -3.289675 v 56.190958 h -0.018378 a 57.89093,57.89093 0 0 0 6.8733988,7.53501 l 0.01838,-20.574253 c 1.654027,1.782673 3.399944,1.966454 4.934513,1.966454 4.704787,0 7.636089,-3.712371 7.636089,-9.694433 V 25.213516 c 0,-7.167448 -2.499418,-10.640904 -7.6269,-10.640904 m 0.827013,34.706991 c 0,2.361582 -0.339994,3.831828 -1.04755,4.521006 -0.514586,0.514586 -1.194575,0.588098 -1.856185,0.56972 -1.378356,-0.0092 -2.86698,-1.497813 -2.86698,-3.896152 V 24.901089 c 0,-3.592913 1.019984,-5.329641 3.124273,-5.329641 1.497813,0 2.646442,0.367561 2.646442,5.063159 z" style="fill:#ffffff;stroke-width:1.83781" id="path1"/></svg>