<svg xmlns="http://www.w3.org/2000/svg" viewBox="-22 283.2 566.9 226.8"><path d="M3.3 293.32v14.12h100.55v-14.12zm114.76 0v14.12H261.3s-14.66-14.12-33.97-14.12zm171.3 0v14.12h86.61l-5.1-14.12zm148.73 0-5.1 14.12h85.88v-14.12ZM3.3 320.82v14.12h100.55v-14.11zm114.76 0v14.12h159.83s-1.91-10.83-5.1-14.11zm171.3 0v14.12h96.18l-4.74-14.11zm138.43 0-4.73 14.12h95.72v-14.11ZM32.17 348.34v14.12h43.54v-14.12zm114.76 0v14.12h43.53v-14.12zm85.88 0v14.12h43.53s2.73-7.47 2.73-14.12zm85.42 0v14.12h77.14l-5.1-14.12zm100.1 0-5.2 14.12h77.6v-14.12Zm-386.16 27.5v14.12h43.54v-14.11zm114.76 0v14.12h111.2s9.29-7.28 12.3-14.11zm171.3 0v14.12h43.54v-7.83l2.73 7.83h79.69l3-7.83v7.83h43.54v-14.11h-81.7l-4.37 11.93-4.37-11.93zM32.17 403.26v14.11h43.54v-14.11Zm114.76 0v14.11h123.4c-3-6.83-12.3-14.11-12.3-14.11Zm171.3 0v14.11h43.54v-14.11Zm51.46 0 5.28 14.11h59.75l5-14.11zm77.5 0v14.11h43.54v-14.11Zm-415.02 27.5v14.12h43.54v-14.12Zm114.76 0v14.12h43.53v-14.12Zm85.88 0v14.12h46.26c0-6.65-2.73-14.12-2.73-14.12zm85.42 0v14.12h43.54v-14.12Zm61.3 0 5.1 14.12h40.07l5.1-14.12zm67.66 0v14.12h43.54v-14.12ZM4.12 458.25v14.12h100.46v-14.11zm113.94 0v14.12h154.73c3.28-3.28 5.1-14.11 5.1-14.11zm172.12 0v14.12h71.59v-14.11zm99.27 0 5.28 14.12h20.4l4.92-14.11zm57.74 0v14.12h72.4v-14.11ZM4.12 485.77v14.12h100.46v-14.12zm113.94 0v14.12h109.2c19.4 0 33.96-14.12 33.96-14.12zm172.12 0v14.12h71.59v-14.12zm109.2 0 5 14.12h.92l5.1-14.12zm47.81 0v14.12h72.4v-14.12z" style="stroke-width:.910725;fill:#fff"/></svg>