<svg xmlns="http://www.w3.org/2000/svg" viewBox="0 0 264 93"><path d="M50.17 22.88H45l4.18-8.5c-1.16 0-4.28-.61-5.44-1.62a7.5 7.5 0 0 1-1.86-7.3c.9-3.54 4.88-6.27 9.26-5.16 3.12.81 4.93 2.38 5.43 5.78.26 1.56.16 3.08-.9 5.41zM46.3 7.54c0 3.7 5.68 3.8 5.68.16 0-3.85-5.68-3.85-5.68-.16M63.91.25c4.98-.65 9.36 3.3 7.8 8.46a13 13 0 0 1-1.61 2.53s2.12 1.92 2.32 3.19c.95 5.26-2.97 8.3-6.95 8.45-4.23.1-8.86-2.73-7.95-8.15.1-.7.6-1.42.86-1.87.25-.46 1.4-1.62 1.4-1.62s-1.56-2.48-1.7-3.54C57.56 3.9 59.83.8 63.9.25m-.95 6.28c0 2.73 4.12 2.73 4.12.15 0-2.88-4.12-2.93-4.12-.15m2.1 12.05c3.23 0 3.23-4.86-.04-4.86-3.32 0-3.22 4.86.05 4.86M81.27.25a7.7 7.7 0 0 1 6 1.88c3.72 3.54 4.32 15.28-.16 19.18-1.81 1.62-5.64 2.43-8.55 1.01-2.77-1.36-4.43-5.06-4.69-9.31C73.43 6.33 75.33.86 81.28.25m.86 18.33c4.43-.1 4.28-15.04-.7-13.72-3.53.86-3.48 13.77.7 13.72M98.89.1a7.7 7.7 0 0 1 5.99 1.88c3.72 3.54 4.32 15.28-.16 19.18-1.8 1.62-5.63 2.43-8.55 1.01-2.77-1.36-4.43-5.06-4.68-9.31C91.04 6.18 92.95.7 98.89.1m.85 18.33c4.43-.1 4.28-15.04-.7-13.72-3.53.86-3.48 13.77.7 13.72M28.53.46V4.9c-12.08-3.29-11.97 16.4-.15 13.11v4.45c-18.32 4.57-18.42-26.25.15-22" class="st1" style="fill:#fff"/><path d="M5.89 13.72v-4.4C8 9.32 9.3 8.56 9.3 7.04c0-1.27-.2-2.53-4.53-2.53v18.37H.15L.25 0h4.48c8.6.05 9.61 3.5 9.61 6.88 0 4.81-3.37 6.84-8.45 6.84M120.53 1.67v4.3h-9.97v-4.3zm65.37 21.01h-4.73c-.56-2.28-3.63-6.33-3.63-6.33l-5.18 5.36c-.96.97-2.67.97-4.43.97h-1.46v-4.05h1c1.07 0 2.02-.1 2.83-.91l9.05-9.62c.96-.96.46-2.33-1.2-2.33l-11.68.05V1.67h11.73c5.68 0 7.34 6.13 5.28 8.35l-2.97 3.09c.05 0 5.09 7.3 5.39 9.57M136.48 1.67v10.02h-4.58V1.67z" class="st1" style="fill:#fff"/><path d="M147.85 1.67v13.06c0 4.4-3.27 7.7-7.35 7.7h-8.55v-4.31h7.95c2.22 0 3.42-1.16 3.42-3.54V1.67zm-18.42 1.17v11.84c0 4.5-4.07 7.75-7.75 7.75h-11.12v-4.56h11.07c1.86 0 3.32-1.01 3.32-3.09V2.88z" class="st1" style="fill:#fff"/><path d="M120.53 12.55h-9.97V8.3h9.97zM28.68 9.97h11.07v3.44H28.68zm138.8.15v4.16h-17.82v-4.16z" class="st1" style="fill:#fff"/><circle cx="211.54" cy="33.91" r="1.28" class="st1" style="fill:#fff" transform="matrix(1.4592 0 0 1.46778 -121.23 -46.33)"/><circle cx="214.72" cy="33.91" r="1.28" class="st1" style="fill:#fff" transform="matrix(1.4592 0 0 1.46778 -121.23 -46.33)"/><path d="M130.94 92.48h-14.7l11.88-24.1c-3.22 0-12.07-1.71-15.3-4.65-4.17-3.8-7.6-11.49-5.23-20.65 2.62-10.07 13.9-17.72 26.12-14.58 8.76 2.23 13.89 6.68 15.4 16.35.7 4.45.4 8.76-2.52 15.34zM120.07 49.2c0 10.48 16.1 10.78 16.1.4 0-10.82-16.1-10.93-16.1-.4M172 28.6c14.15-1.82 26.48 9.36 22.15 23.9-.66 2.27-4.53 7.13-4.53 7.13s5.89 5.52 6.54 9.06c2.72 14.83-8.4 23.54-19.72 23.9-11.98.35-25.12-7.8-22.55-23.09.35-2.08 1.71-4.05 2.42-5.26.7-1.22 3.97-4.6 3.97-4.6s-4.38-7-4.78-9.98c-1.46-10.83 4.93-19.6 16.5-21.06m-2.81 17.77c0 7.8 11.68 7.7 11.68.4 0-8.25-11.68-8.35-11.68-.4m6.04 33.96c9.1 0 9.16-13.76-.15-13.76-9.36.05-9.11 13.77.15 13.77m45.84-51.74c7.15-.7 13.39 1.87 16.91 5.27 10.47 10.07 12.18 43.17-.4 54.2-5.18 4.57-15.95 6.9-24.16 2.84-7.85-3.9-12.48-14.27-13.28-26.27-1.2-18.88 4.18-34.32 20.93-36.04m2.42 51.73c12.58-.25 12.08-42.46-2.01-38.82-9.97 2.58-9.82 39.13 2 38.82M84.34 29.1v12.56c-34.17-9.26-33.92 46.32-.45 37.1v12.56c-51.83 13-52.08-74.26.45-62.21" class="st1" style="fill:#fff"/><path d="m16.2 66.72.05-12.5c6.04 0 9.67-2.13 9.67-6.54 0-3.64-.6-7.23-12.84-7.23l.05 52.03H0l.15-64.64h12.68c24.36.1 27.23 9.92 27.23 19.44C40 60.95 30.55 66.72 16.2 66.72m69.85-11.75h15.15v8.61H86.05zm165.52-26.52H264v64.03h-12.43z" class="st1" style="fill:#fff"/></svg>