<svg xmlns="http://www.w3.org/2000/svg" xml:space="preserve" viewBox="0 0 5020 624.7"><path d="m1559.36 35.82-403.7 552.8h212.65l50.92-73.72h204.35l10 73.71h207.66L1752.9 35.82Zm-53.41 348.94 90.92-133.33 15.8 133.33zm734-344.99h-227.67l-156.84 548.84h195.25l45.01-156.84h48.42l65.01 156.84h210.16l-80.92-182.7C2453.5 372.17 2501 298.55 2501 213.08c0-43.16-13.3-83.88-45.91-114.44-39.11-36.85-107.53-58.86-215.16-58.86zm-36.62 261.12h-70.92l30.91-107.38h69.22c27.5 0 46.71 5.45 57.52 15.7a39.2 39.2 0 0 1 12.5 29.06c0 34.41-34.21 62.62-99.23 62.62zm858.03 179.6-135.14-100.34c-31.7 36.86-68.41 57.27-113.43 57.27-51.7 0-91.72-33.76-91.72-94.13 0-75.31 56.72-150.53 144.34-150.53 44.21 0 78.42 21.9 90.92 66.66l174.35-71.37c-24.2-97.31-113.53-160.03-239.46-160.03-251.87 0-374.5 181.94-374.5 331.64 0 147.43 113.43 240.7 276.97 240.7 124.23 0 209.35-47.76 267.67-119.88zm361.2-444.67-403.71 552.8h212.66l50.9-73.72h204.36l10 73.71h207.66l-88.32-552.79Zm-53.42 348.94 90.93-133.33 15.8 133.33zM4310.9 110.4c-44.21-41.56-115.13-70.52-228.56-70.52h-206.85L3718.63 588.7h253.57c135.14 0 236.06-35.26 306.08-101.18 62.52-58.76 95.93-134.08 95.93-216.45.1-66.66-20-119.98-63.32-160.7zM4134.04 384c-30 28.2-80.92 44.66-140.13 44.66h-34.21l65.02-228.96h32.5c46.72 0 75.92 10.16 94.23 27.46 15 14.1 24.2 33.76 24.2 63.47.1 33.75-17.4 70.61-41.6 93.37zm818.22-193.7 43.41-150.54h-497.93L4340.9 588.61h502.13l42.51-150.54h-310.28l17.5-59.6h285.28l37.51-132.5h-285.17l15.8-55.66z" style="fill:none;fill-opacity:1;stroke:#fff;stroke-width:25.7969;stroke-dasharray:none;stroke-opacity:1"/><path d="m598.5 32.3 83.6 555.9h-175l-8.2-64.4-1.8-14H270l-4.7 7.3-46.1 71.1H45.6L427.2 32.3zM336.2 403.4h153.9l-2-17.8-15.8-141.8-5-44.8-24.4 38L352 378.8zM612.3 16.3H418.8L15.2 604.2h212.6l50.9-78.4H483l10 78.4h207.6zM365.4 387.4l90.9-141.8 15.8 141.8zm733.8-350.9c96.9 0 165.4 19.5 203.8 57.9 13.9 13.9 24.5 30.7 31.4 50 6.5 18.1 9.8 38.5 9.8 60.5 0 44.1-11.8 82.3-35 113.7-25.5 34.4-64.7 60.1-116.4 76.2L1176 400l6.7 16.2 71.7 172.1h-175.2l-61.1-156.6-4-10.2h-71.4l-3.2 11.8-41.8 154.9h-162L883.9 36.5zM970.8 314.2h91.8c34.1 0 63-7.8 83.4-22.6 20.5-14.9 31.8-36.2 31.8-60.1 0-16.1-6.1-31.1-17.2-42.2-14.2-14.2-37.3-21.4-68.9-21.4h-81.5l-3.2 11.8L976.2 294zm128.4-293.7H871.6L714.8 604.2H910l45-166.8h48.4l65 166.8h210.1l-80.9-194.3c115.1-35.9 162.6-114.2 162.6-205.1 0-45.9-13.3-89.2-45.9-121.7-39.1-39.2-107.5-62.6-215.1-62.6M991.7 298.2l30.9-114.2h69.2c27.5 0 46.7 5.8 57.5 16.7 8.3 8.3 12.5 19.2 12.5 30.9 0 36.7-34.2 66.7-99.2 66.7h-70.9zM1750.3 24c57.9 0 109.2 15 148.5 43.3 34.7 25 59.3 60 71.9 101.7L1825 232.4c-7.6-18.4-18.8-33.3-33.5-44.4-18.1-13.6-41.2-20.8-67-20.8-45.5 0-87.1 19.8-117.2 55.8-27.3 32.7-43 76.5-43 120.3 0 34.9 10.7 64.3 31 85.2 19.3 19.9 46.5 30.8 76.7 30.8 24.7 0 48-6 69.4-17.7 16.4-9 31.6-21.2 46.1-37.1l110.4 87.3c-27.1 32.4-58.6 57.9-93.8 75.7-43.7 22.1-94.6 33.3-151.3 33.3-38.6 0-74.6-5.7-106.9-17.1-31.6-11-59.2-27.2-82-48-47-42.8-71.9-103.3-71.9-175 0-38.4 7.6-78.7 22-116.6a339 339 0 0 1 66.6-108.7C1526.8 84.6 1611.1 24 1750.3 24m0-16c-251.8 0-374.4 193.5-374.4 352.7 0 156.8 113.4 256 276.9 256 124.2 0 209.3-50.9 267.7-127.6l-135.1-106.7c-31.7 39.2-68.4 60.9-113.4 60.9-51.7 0-91.7-35.9-91.7-100.1 0-80.1 56.7-160.1 144.3-160.1 44.2 0 78.4 23.3 90.9 70.9l174.3-75.9C1965.5 74.7 1876.2 8 1750.3 8m710.9 24.3 83.6 555.9h-175l-8.2-64.4-1.8-14h-227.1l-4.7 7.3-46.1 71.1h-173.6l381.6-555.9zm-262.3 371.1h153.9l-2-17.8-15.8-141.8-5-44.8-24.4 38-90.9 141.8zM2475 16.3h-193.5l-403.6 587.9h212.6l50.9-78.4h204.3l10 78.4h207.6zm-246.9 371.1 90.9-141.8 15.8 141.8zm713-350.9c51.9 0 97.3 6.7 134.9 20 32.8 11.6 60.5 28.5 82.3 50.3 39.5 39.5 58.7 91.7 58.7 159.6 0 41.5-7.8 81.3-23.3 118.3-15.4 37.1-38.3 70.9-67.9 100.5-33.6 33.6-74.8 59.2-122.7 76.3-49.5 17.6-107.4 26.6-172 26.6h-232.6l148.2-551.7h194.4m-143.4 413.7h55c63 0 118.2-19 151.4-52.2 28.2-28.2 46.4-71.6 46.4-110.5 0-33.6-9.4-59.4-28.9-78.9-22.8-22.8-57.3-33.9-105.5-33.9h-44.8l-3.2 11.9-65 243.5zm143.4-429.6h-206.8l-156.8 583.7H2831c135.1 0 236-37.5 306-107.6 62.5-62.5 95.9-142.6 95.9-230.2 0-70.9-20-127.6-63.4-170.9-44.1-44.1-115-75-228.4-75m-122.6 413.6 65-243.5h32.5c46.7 0 75.9 10.8 94.2 29.2 15 15 24.2 35.9 24.2 67.5 0 35.9-17.5 75-41.7 99.2-30 30-80.9 47.5-140.1 47.5h-34.1zM3833.3 36.5l-34.7 128.1h-306.1l-3.2 11.9-15.8 59.2-5.4 20.1h285.2l-29 108.9h-285.1l-3.2 11.7-17.5 63.4-5.6 20.3h310.4l-34 128.1h-468.8l148.2-551.7zm20.9-16h-497.8l-156.8 583.7h502l42.5-160.1h-310.2l17.5-63.4h285.2l37.5-140.9H3489l15.8-59.2h306z" style="fill:none;fill-opacity:1;stroke:none" transform="translate(1158.96)"/><g aria-label="PC" style="font-size:833.836px;line-height:1.25;font-family:Digitalt;-inkscape-font-specification:Digitalt;text-align:center;letter-spacing:0;word-spacing:0;text-anchor:middle;fill:#fff;fill-opacity:1;stroke-width:4.34289"><path d="M327.5 306.51q55.87 0 81.72-21.68 26.68-22.51 26.68-55.86 0-20.02-14.17-34.2-10-10-25.85-14.17-15.84-4.17-32.52-4.17h-36.69l-34.19 130.08Zm-153.42-286h195.95q80.88 0 132.58 15.84t84.22 48.36q23.34 23.35 34.18 53.37 11.68 29.18 11.68 64.2 0 55.04-20.01 100.06-20.02 44.2-58.37 76.72-37.53 31.68-92.56 49.2-55.03 17.5-124.24 17.5h-82.55L212.43 604.2H17.32ZM907.02 616.7q-61.7 0-112.57-17.51-50.86-18.34-87.55-51.7-35.86-33.35-56.7-80.05-20.01-47.53-20.01-106.73 0-60.03 22.5-122.57 23.36-62.54 70.05-113.4 46.7-51.7 116.74-84.22Q910.35 8 1004.58 8q47.53 0 86.72 12.5 40.02 11.68 70.87 34.2 30.85 21.67 51.7 53.36t30.02 70.04l-174.27 75.88q-9.18-35.85-33.36-53.36t-57.53-17.51q-32.52 0-59.2 14.17-26.69 13.34-45.86 35.86-18.35 22.5-29.19 51.7-10 28.34-10 58.36 0 48.36 25.84 74.21 26.69 25.85 65.88 25.85 34.18 0 61.7-15.84t51.7-45.03l135.08 106.73q-44.2 57.54-109.23 92.56-65.04 35.02-158.43 35.02" style="font-family:&quot;Gotham Ultra&quot;;-inkscape-font-specification:&quot;Gotham Ultra&quot;;fill:#fff;fill-opacity:1" transform="translate(-14.48)"/></g></svg>