<svg xmlns="http://www.w3.org/2000/svg" viewBox="0 0 600 290"><path d="M61.28 213.43q-.64 0-1.23-.3C19.85 193.64-.9 170.9.03 147.38.79 128 16.59 109.72 45.73 94.5c27.64-14.45 66.64-25.92 112.77-33.16a2.82 2.82 0 0 1 .87 5.57C65.93 81.58 7.03 112.5 5.67 147.59c-.83 20.8 19.36 42.29 56.84 60.48a2.82 2.82 0 0 1-1.23 5.36M411.66 68.97q-.22 0-.46-.04a819 819 0 0 0-93.15-9.67 2.81 2.81 0 1 1 .26-5.62 824 824 0 0 1 93.8 9.73 2.81 2.81 0 0 1-.45 5.6m-88.7 192.47h-2.37a2.81 2.81 0 0 1 .01-5.64h2.36c150.81 0 269.82-39.2 271.39-89.58.55-17.63-13.61-35.51-40.97-51.72-27.23-16.14-66.27-29.9-112.88-39.78a2.82 2.82 0 0 1 1.17-5.51c47.2 10 86.83 24 114.59 40.44 29.22 17.32 44.34 36.94 43.72 56.75-.83 26.8-30.43 51.22-83.34 68.76-51.16 16.96-119.86 26.28-193.68 26.28" style="fill-opacity:1;fill:#fff"/><path d="m373.99 114.73 74.4-56.72-87.38 34.89-24.56-25.57 7.83 35.42-74.4 56.71 87.39-34.89 24.55 25.56z" style="fill-opacity:1;fill:#fff"/><path d="M280.82 185.52c1.06-5.25 3.01-4.49 8.33-5.34l4.96-.77-1.54 8.26-4.96.8c-5.32.84-7.67 2.26-6.8-2.95m-10.75-7.57-3.86 20.76c-1.05 5.66.66 7.48 6.11 6.62l31.57-5 6.77-36.4-31.57 5c-5.45.87-7.97 3.36-9.02 9.02M470.5 145.2l-.37 2 32.56-5.16c2.57-.42 5.07-3.02 5.6-5.82.51-2.81-1.14-4.76-3.71-4.35l-8.37 1.32-13.34 2.13-3.38.53c-3.91.62-8.2 5.08-9 9.35M242 239.04l.26-1.45c1.12.09 2.62.52 3.93.32l33.85-5.3c-1.26 6.75-10.18 8.44-23.79 10.6l-15.49 2.46-8.3 44.66 20.35-3.22c50.1-4.95 69.16-30.85 75.28-61.72l61.06-9.69 9.83-52.93 4.97-.8c5.44-.86 4.64-1.84 3.6 3.8l-9.01 48.45 43.83-6.96.6-3.2a20 20 0 0 0 11.26 1.32l75.8-12.02 7.08-38.05-4.91-3.5c4.25-5.04 7.57-11.21 8.53-16.39l1.2-6c3.78-22.44-16.91-28.4-26.36-26.9l-43.5 6.9c-7.7 1.22-16.19 6.6-22.36 13.7-5.7-5.65-14.52-7.85-19.64-7.03l-48.43 7.68 5.42 11.98 43.68-6.92c6.3-1 10.5 1.51 11.66 6.5-.47 1.32-11.66 60.94-11.66 60.94l-15.66 2.48 8.4-45.13c1.03-5.65-.67-7.48-6.11-6.61l-30.01 4.76-9.85 52.94-17.21 2.74 11.26-60.61-14.17-16.72-51.01 18.44 24.17-3.83.4-.06-15.38 82.72c-3.9 21-26.33 41.1-46.22 44.26L249 274.87l3.1-16.55 15.47-2.45c13.6-2.16 28.93-15.78 31.57-30.03l1.67-8.96-40.3 6.4c-8.65 1.37-13.34-3.88-11.64-13.01l7.23-38.89a22 22 0 0 1 11.36-15.63l.09-1.04 20.23-15.56-11.82 1.99c-6.29 1-17.94 5.7-25.35 15.15-5.6-6.68-15.4-9.3-20.91-8.42l-43.45 6.9 7.08-38.06 31.7-5.03c16.87-2.67 35.54-21.65 38.86-39.48l4.77-25.65c3.32-17.83-9.23-31.85-26.1-29.18l-69.28 11-14.76 79.4-63.78 10.13c-5.4.86-10.66 6.18-11.71 11.89L59.2 258c-1.06 5.7 2.46 9.64 7.86 8.8l121.72-19.32 9.84-52.94 4.96-.8c5.45-.85 4.65-1.83 3.59 3.82l-9 48.43zM151.69 210l-40.7 6.46 1.53-8.26 32.87-5.23 8-43.01-32.87 5.22 1.53-8.27 40.7-6.46zm-2.47 13.24-3.38 18.2-72 11.42L96.27 132.1l59.48-9.44-3.07 16.55-42.27 6.71-6.45 34.74 34.44-5.46-3.08 16.54-34.44 5.46-6.46 34.75zm82.72 4.55-17.22 2.72 8.38-45.12c1.06-5.65-.65-7.49-6.1-6.63l-30.01 4.77-9.84 52.94-17.22 2.74 12.91-69.48.4-.07 57.13-9.06c8.65-1.38 13.34 3.86 11.64 13zm111.93-85.2 16.83-2.66-12.92 69.48-17.22 2.73 12.91-69.48zm104.44 32.75 5.97-32.14c1.9-10.17 12.82-20.16 22.13-21.64l40.27-6.38c6.79-1.08 11.5 6.5 10.11 13.91l-1.97 10.35c-1.39 7.42-8.96 15.3-15.74 16.38l-41.8 6.63-.6 3.76c-.8 4.26 2.03 7.6 5.94 6.97l46.73-7.44-3.15 16.96-52.71 8.35c-9.3 1.48-17.06-5.54-15.18-15.71M199.18 85.27l5.84-31.44 21.92-3.48c2.88-.45 4.34 1.19 3.77 4.22l-4 21.52a6.8 6.8 0 0 1-5.61 5.7z" style="fill-opacity:1;fill:#fff"/><path d="m339.26 99.98-4.65-18.43-2.63.31-.84 4.55a7.7 7.7 0 0 1-6.09 6.19l-18 2.85c-2.98.48-4.68-1.42-4.09-4.57l9.07-48.8c.59-3.15 3.12-5.71 6.09-6.19l18-2.85c2.98-.48 4.68 1.43 4.1 4.56l-1.17 6.22 36.4-5.79 1.38-7.44c3.5-18.77-9.27-33.04-27.04-30.24l-34.83 5.53C297.2 8.7 278.18 28.02 274.69 46.8L265 98.9c-3.48 18.78 9.28 33.05 27.06 30.23l11.63-1.84zm25.8-11.12c.95-2.56 1.6-3.53 2.1-6.15l1.23-6.63-14.48 2.3z" style="fill-opacity:1;fill:#fff"/></svg>