<svg xmlns="http://www.w3.org/2000/svg" viewBox="0 0 3839 1416.7"><path d="m2266.1 175-278.7 125.8-88.9-81 32.3 115.9L1693 527.9 1971.7 402l88.9 81-32.3-115.8Z" class="st0" style="fill:#fff"/><path d="m2266.1 175-278.7 125.8-88.9-81 32.3 115.9L1693 527.9 1971.7 402l88.9 81-32.3-115.8Z" class="st0" style="fill:#fff"/><path d="m1990.3 286.8 2.5-1.1c1.2-4.7 2.1-9.4 2.9-14.2l4.6-29.8-48.8 9.7z" class="st0" style="fill:#fff"/><path d="m1763.7 426.3 48.6-9.7 104.8-84.7-19.4-69.8-14.2 2.8-4 26.2a16.7 16.7 0 0 1-13.2 13.8l-62 12.3c-6.1 1.2-11.6-4-10.6-10.2l26.2-170.4a16.7 16.7 0 0 1 13.2-13.8l62-12.3c6.1-1.2 11.6 4 10.6 10.2l-3.8 25 116.8-23.2 5.6-36.3c7.9-51.3-37.6-94.9-88.5-84.7l-103.5 20.6c-67 13.3-118.3 66.9-128.7 134.2l-28.5 185.3c-7.9 51.3 37.6 94.8 88.6 84.7M950 631.2c-45-36-68.1-73.7-68.7-112-1.4-107.6 179.6-214.1 462.7-273.2l3-19.4C1057 286 861.3 396 863 519.5c1 73.2 71.2 139.9 189.1 192.8l2.9-18.9c-42.1-19.2-77.2-40-105-62.2" class="st0" style="fill:#fff"/><path d="m1835 180-2.8 18.4c108.7-.1 214.2 6.2 312.9 18.5l31.7-14.3C2071.3 188 1956 180 1835 180m403.4 32.2-19.1 15.4c87.3 14.1 168.1 33.2 239.4 56.9 84.7 28.1 151 61.1 197.2 98 45 36 68.1 73.7 68.7 112 1.5 109.8-186.9 218.5-480 276.8-109.7 21.8-231.5 35.9-356.3 41.4-3.2 6.4-6.6 12.7-10.3 18.9 133.2-5.2 258.5-19.9 370.2-42.2 295.9-58.9 496.4-170.1 494.8-295.1-1.7-125.2-206-231.3-504.6-282.1" class="st0" style="fill:#fff"/><path d="m2438.8 409.2-96 19.1c-5.7 1.1-10 5.7-10.9 11.4l-3 19.4 115.3-22.9c5.7-1.1 10-5.7 10.9-11.4 1.4-9.4-6.9-17.5-16.3-15.6m-733.6 153.4-14.7 95.8c-1.2 7.6 5.5 14 13 12.5l109.3-21.8 18.3-118.9-117.1 23.2c-4.6.9-8.1 4.6-8.8 9.2m39.4 28.9 34.4-6.8-4.3 27.9-34.4 6.8z" class="st0" style="fill:#fff"/><path d="M2538.7 342.7a75.5 75.5 0 0 0-77.5-32.4l-120.7 24c-31.9 6.3-59.3 24.8-77.4 50.3l-1.8-1.8a75.6 75.6 0 0 0-66.8-19.5l-146.4 29.1 11.6 41.8 143.2-28.5c21.8-4.3 41.3 14.3 37.9 36.3l-27.3 177.5-48.4 9.6L2189 474c1.2-7.6-5.5-14-13-12.5l-109.3 21.8-26.3 170.8-48.4 9.6 30.6-198.8-53.7-48.9-144.2 65.1 14.5-2.9 48.4-9.6-40.3 261.8a185.2 185.2 0 0 1-146.9 153.5l-53.9 10.7 8-51.9 37.7-7.5c57-11.3 100.8-57.1 109.7-114.6l3-19.7-128.3 25.5c-21.8 4.3-41.3-14.3-37.9-36.3l18.6-121.1a81.2 81.2 0 0 1 31.7-52.8l.1-.1 85.7-69.3-61.3 12.2c-31.9 6.3-59.3 24.8-77.4 50.3l-1.8-1.8a75.6 75.6 0 0 0-66.8-19.5l-129.7 26 3.6-23.5 15-97.4 91.5-18.2a162 162 0 0 0 128.5-134.2l13.5-87.9c7.9-51.3-37.6-94.9-88.5-84.7l-214.7 42.7-40 260-217.8 43.3c-5.7 1.1-10 5.7-10.9 11.4l-69.4 451.3c-1.5 9.4 6.9 17.4 16.3 15.6l292.4-58.2 94.5-18.8 26.3-170.8 34.4-6.9-26.5 170.8 138.7-27.6 3.6-23.4a75.5 75.5 0 0 0 56.7 11.4l55-11a94.7 94.7 0 0 1-56.3 34.8l-58 11.5c-5.7 1.1-10 5.7-10.9 11.4l-17.5 114c-1.5 9.4 6.9 17.4 16.3 15.6l95.2-18.9c94.2-18.7 166.6-94.4 181.3-189.4l1.4-9.1 93.6-18.6 93.6-18.6 26.3-170.8 34.4-6.9-26.4 170.9 138.7-27.6 3.6-23.4a75.5 75.5 0 0 0 56.7 11.4l197-39.2c5.7-1.1 10-5.7 10.9-11.4l20.5-133.4-5.5 1.1c5.1-10.7 8.7-22.3 10.6-34.4l4.6-29.8c2.9-19-.8-38.5-11.4-54.4m-1051.3-151 73.4-14.6c6.1-1.2 11.6 4 10.6 10.2l-11.2 73a16.7 16.7 0 0 1-13.2 13.8l-74.5 14.8zm-168.3 605.9-21 4.2-24.7 4.9-137.7 27.4-38 7.6 59.9-389.2 16-3.2 118.3-23.5 53.6-10.7-8 51.9-15.4 3.1-124.1 24.7-17.6 114.6 58.1-11.6 10.4-2.1 38-7.6-8 51.9-20.4 4.1-28 5.6-58.1 11.6-18.4 118.8 127.3-25.3 7-1.4 38.8-7.7zm-112.9-72 4.3-27.9 106.5-21.2 22-142.9-106.5 21.2 3.6-23.5 88.5-17.6 40.2-8-5.7 37.3-24.2 157zm380.4 18.8-48.4 9.6 23.9-155.3c1.2-7.6-5.5-14-13-12.5L1439.7 608l-26.3 170.8-48.4 9.6 34.3-222.7 176.7-35.2c21.8-4.3 41.3 14.3 37.9 36.3zm360.2-71.7-48.4 9.6 34.3-222.7 48.4-9.6zM2507.5 389l-4.8 31.2c-5.2 33.9-31 60.8-64.6 67.5L2320.9 511l-3.5 22.5c-1.2 7.6 5.5 14 13 12.5l109.3-21.8 21.7-4.3 26.7-5.3-8 51.9-9.1 1.8-167.6 33.3c-21.8 4.3-41.3-14.3-37.9-36.3l18.6-121.1c5.2-33.9 31-60.8 64.6-67.5l120.7-24c22-4.3 41.5 14.4 38.1 36.3M201.4 1416.6h385.9v-94.3H201.4c-142.8 0-142.8-214.2 0-214.2h385.9v-94.3H201.4c-268.5.1-268.5 402.8 0 402.8m846-402.7H661.5v402.8h385.9c268.5-.1 268.5-402.8 0-402.8m0 308.5H755.8v-214.2h291.6c142.8-.1 142.8 214.2 0 214.2m1563.8-308.5h-249.4c-268.5 0-268.5 402.7 0 402.7h249.4c268.5 0 268.5-402.7 0-402.7m0 308.5h-249.4c-142.8 0-142.8-214.2 0-214.2 0-11.4 0 0 0 0h249.4c142.8-.1 142.8 214.2 0 214.2" class="st0" style="fill:#fff"/><path d="M1383.4 1164.6h-20.6c-26 0-47.1 21.1-47.1 47.1s21.1 47.1 47.1 47.1h20.6c26 0 47.1-21.1 47.1-47.1s-21.1-47.1-47.1-47.1m665.1 73.4c19.9-24.8 30-56.6 30-88.4 0-67.9-45.2-135.7-135.7-135.7h-440.4v402.7h94.3v-131.3h346.1c20.7 0 41.5 13.8 41.5 41.5v89.9h94.3v-89.9c-.1-37.4-11.7-66.9-30.1-88.8m-105.7-47h-346.1v-82.9h346.1c27.6 0 41.5 20.7 41.5 41.5 0 20.7-13.8 41.4-41.5 41.4m1429.5-177.1h-346.4c-90.5 0-135.7 67.9-135.7 135.7v267h94.3v-267c0-20.7 13.8-41.5 41.5-41.5h129.9v308.5h94.3v-308.5h122.2c27.6 0 41.5 20.7 41.5 41.5v267h94.3v-267c-.2-67.9-45.5-135.7-135.9-135.7m284.3 88.5c0-12.7 8.5-25.4 25.4-25.4h80.2c102.4 0 102.4-153.7 0-153.7h-146.7v51.4h146.7c33.9 0 33.9 50.8 0 50.8H3682c-51.2 0-76.8 38.4-76.8 76.8v57.1h226.5V1108h-175.1z" class="st0" style="fill:#fff"/></svg>