<svg xmlns="http://www.w3.org/2000/svg" viewBox="0 0 264 102"><g style="stroke-width:1.25"><path d="M42.53 140.62c10.76 0 21.47-.66 31.57-4.51 27.03-9.31 44.94-37.88 44.05-66.08-.79-13.82-5.47-27.5-13.83-38.57-12.44-17.6-34.1-27.57-55.48-27.03L.75 4.4v40.63l-.12.55h.12v148.45h19.57v-53.42m-.2-118.69c11.03-.02 22.04-.26 33.04.25 16.37 1.09 32.28 10.23 40.3 24.74 10.03 17.16 8.89 40.38-3.49 56.06-8.64 11.63-22.7 19.07-37.22 19.3-10.8.16-21.39.08-32.43.08zm310.68 91.56V76.62h-28.79a81 81 0 0 1 1.62 36.86z" style="fill:#fff;stroke-width:1.5625" transform="matrix(.352 0 0 .35168 26.62 15.8)"/><path d="M296.6 134.44a80.7 80.7 0 1 1-3.87-78.79H313A98.5 98.5 0 0 0 224.33 0c-54.4 0-98.5 44.1-98.5 98.5s44.1 98.5 98.5 98.5c41.71 0 77.34-25.94 91.7-62.56zM346.21 4.41V194.1h36.03v-80.62h56.14V76.63h-56.14V42h58.85V4.41h-75.44z" style="fill:#fff;stroke-width:1.5625" transform="matrix(.352 0 0 .35168 26.62 15.8)"/><path d="M514.1 57.62 483.68 4.41h-43.36l52.1 91.13-56.35 98.56h43.36l34.67-60.64 34.68 60.64h43.36l-56.35-98.56 52.1-91.13h-43.36zM20.64 231.64v-19.6l-8.28 19.6h-1.9l-8.26-19.6v19.6H0v-22.01h3.43l8.01 18.73 7.98-18.74h3.43v22.02zm14.02.39c-4.44 0-7.48-2.68-7.48-8.67v-13.74h2.2v13.74c0 4.5 1.86 6.64 5.3 6.64 3.4 0 5.28-2.14 5.28-6.64v-13.74h2.2v13.74c0 5.99-3.03 8.67-7.5 8.67m11.84-.39v-22.01h2.2v20.01h9.12v2zm17.42-20.02v20.02h-2.2v-20.02h-5.04v-2h12.28v2zm7.32 20.02v-22.01h2.21v22.01zm27.2 0v-19.6l-8.28 19.6h-1.9L80 212.04v19.6h-2.2v-22.01h3.42l8.01 18.73 7.99-18.74h3.42v22.02zm6.54 0v-22.01h12.03v1.99h-9.83v7.9h9.5v1.99h-9.5v8.13h9.83v2zm21.71 0h-5.93v-22.01h5.18c4 0 6.32.47 8.4 1.73 3.28 1.93 5 5.2 5 9.35 0 6.35-4.04 10.93-12.65 10.93m6.43-18.59c-1.67-1-3.75-1.43-7.09-1.43h-3.07v18.03h3.07c3.9 0 6.17-.57 7.93-1.97a8.9 8.9 0 0 0 3.15-7.06c0-3.28-1.46-6.05-3.99-7.57m9.61 18.59v-22.01h2.2v22.01zm23.59 0-3.19-7.42H152.9l-3.22 7.42h-2.32l9.44-22.01h2.47l9.47 22.01zm-8.28-19.51-4.32 10.1h8.55zm21.16 19.51v-22.01h12.04v1.99h-9.83v7.9h9.5v1.99h-9.5v8.13h9.83v2zm31.1 0-13.11-19.36v19.36h-2.2v-22.01h2.97l12.33 18.26v-18.26h2.21v22.01zm11.72-20.02v20.02h-2.2v-20.02h-5.04v-2h12.28v2zm7.32 20.02v-22.01h12.04v1.99h-9.83v7.9h9.5v1.99h-9.5v8.13h9.83v2zm24.21-8.22 6.17 8.22h-2.74l-7.42-9.98c6.17 0 8.25-1.07 8.25-5.03 0-3.66-2.26-5-7.39-5h-3.1v20.01h-2.2v-22.01h5.45c6.91 0 9.47 2.5 9.47 7.09 0 3.9-2.26 6.25-6.49 6.7m14.65-11.8v20.02H266v-20.02h-5.04v-2h12.27v2zm22.87 20.02-3.18-7.42h-10.25l-3.22 7.42h-2.32l9.44-22.01H284l9.48 22.01zm-8.28-19.51-4.32 10.1h8.55zm13.09 19.51v-22.01h2.21v22.01zm21.87 0-13.11-19.36v19.36h-2.2v-22.01h2.97l12.34 18.26v-18.26h2.2v22.01zm27.18 0v-19.6l-8.28 19.6h-1.9l-8.26-19.6v19.6h-2.2v-22.01h3.43l8.01 18.73 7.98-18.74h3.43v22.02zm6.54 0v-22.01h12.04v1.99h-9.83v7.9h9.5v1.99h-9.5v8.13h9.83v2zm31.1 0-13.11-19.36v19.36h-2.2v-22.01h2.97l12.34 18.26v-18.26h2.2v22.01zm11.73-20.02v20.02h-2.22v-20.02h-5.03v-2h12.27v2zm21.81 11.12h-4.23v8.9h-2.2v-22.01h6.08c6.04 0 8.48 2.05 8.48 6.67 0 4.17-2.14 6.43-8.13 6.43m-1.1-11.12h-3.13v9.12h4.08c4.38 0 6.05-1.25 6.05-4.44 0-4.47-2.8-4.68-7-4.68m12.11 20.03v-22.01h2.21v20.01h9.12v2zm31.67 0-3.2-7.42h-10.24l-3.22 7.42h-2.32l9.44-22.01h2.48l9.47 22.01zm-8.29-19.51-4.32 10.1h8.55zm18.49 12.15v7.36h-2.2v-7.36l-7.63-14.65h2.44l6.26 12.33 6.4-12.33h2.42zm9.82 7.36v-22.01h12.04v1.99H481v7.9h9.51v1.99h-9.5v8.13h9.83v2zm24.21-8.22 6.17 8.22h-2.74l-7.42-9.98c6.16 0 8.25-1.07 8.25-5.03 0-3.66-2.26-5-7.39-5h-3.1v20.01h-2.2v-22.01h5.45c6.9 0 9.47 2.5 9.47 7.09 0 3.9-2.26 6.25-6.49 6.7m23.97-.68h-4.23v8.9h-2.2v-22.01h6.07c6.05 0 8.5 2.05 8.5 6.67 0 4.17-2.15 6.43-8.14 6.43m-1.1-11.12h-3.13v9.12h4.08c4.38 0 6.05-1.25 6.05-4.44 0-4.47-2.8-4.68-7-4.68m22.71 20.42c-6.58 0-11.55-4.89-11.55-11.32 0-6.59 4.86-11.47 11.4-11.47 4.57 0 8.44 2.32 10.13 6.1h-2.47c-1.88-2.94-4.47-4.07-7.57-4.07a9.15 9.15 0 0 0-9.26 9.35c0 5.15 4.2 9.38 9.3 9.38 3.21 0 5.33-1.22 7.65-4.14h2.44c-2.2 4.09-5.6 6.17-10.06 6.17m23.69-20.41v7.96h8.64v2h-8.64v10.06h-2.2v-22.01h11.17v1.99zm25.1 20.02-6.22-9.41-6.25 9.41h-2.6l7.48-11.26-7.06-10.76h2.6l5.83 8.82 5.81-8.82h2.56l-7.06 10.76 7.51 11.26zm-33.74-9.02c-.9 0-1.61-.71-1.61-1.61s.71-1.6 1.6-1.6c.87 0 1.61.7 1.61 1.6s-.74 1.6-1.6 1.6" style="fill:#fff;stroke-width:1.5625" transform="matrix(.352 0 0 .35168 26.62 15.8)"/></g></svg>