<?xml version="1.0" encoding="UTF-8" standalone="no"?><svg viewBox="0 0 2560 332" version="1.1" id="svg1" xmlns="http://www.w3.org/2000/svg" xmlns:svg="http://www.w3.org/2000/svg"><path fill="currentColor" stroke="currentColor" stroke-width=".09" d="M658 0h404.4c6.7.9 13.6.7 20.3 1.4 18.8 1.7 37.5 4.6 55.5 10.4 16.7 5.2 32.7 12.8 46.6 23.4 17.2 13.3 30.3 31.5 38.4 51.6 9.8 24.1 13.4 50.3 13.2 76.2.2 20.8-2.1 41.7-7.6 61.8-5.7 20.1-14.8 39.6-28.4 55.6-14.9 17.6-34.6 30.9-56.3 38.7-25.5 9.3-53 12.6-80.1 12.3-129.7-.1-259.3 0-389 0-5.7 0-11.3 0-16.9-.2-.2-21.4-.1-42.9-.1-64.3 6-.3 12-.2 18-.2h94.7c-.1-67.9-.1-135.8 0-203.8-4.2-.3-8.5-.4-12.7-.3-33.3.1-66.6-.1-99.8.1-.4-20.9-.1-41.8-.2-62.7m184 62.8c-.2 65.1 0 130.1-.1 195.2 0 2.9.1 5.9.2 8.8 59.3-.2 118.6 0 177.9-.1 21.8-.1 43.9.9 65.4-3.3 15.6-2.9 31-8.6 43.1-18.9 10.5-9.3 17.8-21.7 22.1-34.9 3.1-10.8 4.5-22 5.8-33.1 1.3-19.4.8-39.3-4.7-58.2a69.3 69.3 0 0 0-19.1-31.9c-6.8-6.5-15.3-10.7-23.9-14.1-18.7-7.1-38.9-9.2-58.7-9.6-65-.1-130 0-195-.1-4.3 0-8.7 0-13 .2ZM2262 0h178.2c.2 88.9.1 177.8.1 266.8 39.9 0 79.8-.1 119.7 0v64.4c-2.7 0-5.4.1-8 .2-95.3-.1-190.7 0-286 0-5.6 0-11.3 0-16.9-.2-.1-21.5 0-42.9 0-64.3 7.6-.3 15.3-.1 22.9-.2 33.2 0 66.5.1 99.7 0-.2-18.2 0-36.5-.1-54.7.1-49.7-.1-99.4.1-149-4.6-.4-9.1-.5-13.7-.4-31.9.1-63.9-.1-95.8.1-.4-20.9-.1-41.8-.2-62.7ZM0 .8C8.3.5 16.7.7 25 .6h449c5.7 0 11.4-.1 17 .3 19.3 1.6 38.5 7.5 54.2 19 13.6 9.5 23.4 23.6 30.5 38.4 6.9 15.2 9.3 32.1 9.6 48.7.1 11.2-1 22.5-3.8 33.4-2.6 9.9-7 19.2-12.3 27.8-10.3 16.4-26.4 28.7-44.3 35.7-13 5-26.9 7.7-40.9 8-6.6.2-13.3.1-20 .1H203c-5.9 0-11.8-.1-17.7.2.1 18.2.1 36.3 0 54.5H291c6 0 11.9 0 17.9.2 0 21.4.1 42.8 0 64.3-8 .4-15.9.1-23.9.2H18c-6 0-12 0-18-.2v-64.4c37.9-.2 75.8 0 113.7-.1-.1-67.2-.1-134.5 0-201.8-8.2-.6-16.5-.1-24.7-.2-29.7 0-59.3-.2-89 .1V.8M185.3 65c.1 27.9.1 55.9-.1 83.8 3 .1 5.9.2 8.8.1 68-.3 136-.2 204-.2 16.7-.6 33.3-.3 50-.4 8.1 0 16.3.4 24.3-1 9.8-1.8 19.6-6.1 26.4-13.6 4.9-4.7 6.8-11.5 8.2-17.9 1.6-7.5.9-15.3-.9-22.7-1.5-9.4-8.1-17.4-16.3-21.8-9-5.2-19.6-6.3-29.7-6.6-89.7-.1-179.4 0-269-.1-1.9.1-3.8.2-5.7.4ZM1307.2.9c4.6-.4 9.2-.3 13.8-.2 155.3-.1 310.7 0 466-.1 14.9-.3 29.9 2.4 43.9 7.6 10.8 4.2 21 10.4 29.7 18.2 9.9 9.6 17.6 21.4 23.2 33.9 6.3 15.4 8.8 32.1 8.6 48.7.1 17.5-3 35.5-11.4 51-9.1 18.6-25.2 33.5-44.1 41.9-12 5.5-25.1 8.4-38.2 9.6-10.2.7-20.5.5-30.7.5-91.7 0-183.4-.1-275.2 0-.4 11 0 22-.1 33 .1 7.3-.3 14.5.2 21.8 34-.1 68.1 0 102.1-.1 7 .1 14-.1 21 .2.1 21.4.2 42.9 0 64.3-6.7.3-13.3.1-20 .2h-276c-4.3 0-8.5 0-12.8-.3.1-21.4.1-42.7 0-64.1 4.3-.3 8.5-.3 12.8-.3 33.6.1 67.2 0 100.8.1.1-67.3 0-134.6 0-201.9-3.3-.2-6.5-.3-9.8-.3-34.6.2-69.2-.1-103.7.1 0-21.2 0-42.5-.1-63.8m185.6 63.9c-.4 9.4 0 18.8-.1 28.2.1 18.6-.3 37.3.1 55.9 63.1-.2 126.1-.3 189.2-.3 11.6 0 23.3.2 35-.2 15.3-.1 30.6-.1 46 0 8.9.1 18.1-.4 26.5-3.9 10.4-3.8 20.2-11.7 23.2-22.8 3.5-10.9 2.4-22.8-.8-33.6-4.3-11.6-15.7-19.1-27.5-21.5-11.3-2.6-22.9-1.8-34.4-1.9h-237c-6.7 0-13.5-.2-20.2.1Zm469.4 112.1c5.9-.4 11.9-.2 17.8-.2h155c6.7 0 13.4-.2 20.1.1.3 10.1 0 20.1.1 30.2-.1 10.7.2 21.4-.1 32.2-6.4.3-12.7.1-19.1.1h-155c-6.3 0-12.6.3-18.8-.2.1-20.7.1-41.5 0-62.2Z" id="path1" style="fill:#ffffff"/></svg>