<svg xmlns="http://www.w3.org/2000/svg" viewBox="0 0 3840 1254.6"><path d="M3384.2 158.1h-71.3v204.6h74.4V255.8c0-27.9 17.1-41.9 48.1-41.9s38.8 9.3 40.3 35.6h69.8c0-69.7-9.3-96.1-83.7-96.1-45 0-60.5 9.3-77.5 43.4zm342.6 164.3c-71.3 0-82.1-6.2-82.1-41.9H3840c-3.1-99.2-3.1-122.4-134.9-122.4-111.6 0-136.5 20.1-136.5 108.5 0 82.2 32.6 102.3 122.5 103.9 100.8 0 148.8-4.7 148.8-71.3H3767c-3 15.5-9.2 23.2-40.2 23.2m-83.7-85.2c3.1-21.7 9.3-29.5 58.9-29.5 54.3 0 62 3.1 65.1 29.5zm-2771.8 7.7h74.4c-6.2-69.8-26.4-86.8-130.2-86.8-117.8 0-144.2 18.6-144.2 105.4s24.8 107 134.9 107c116.3 0 139.5-15.5 139.5-88.4h-74.4c0 20.2-7.7 29.5-65.1 29.5-49.6 0-60.5-12.4-60.5-52.7 0-38.8 10.8-38.8 69.8-38.8 43.4 0 51.1 4.7 55.8 24.8m1728.5 12.4c0-83.7-24.8-100.7-144.2-100.7-128.7 0-144.1 21.7-144.1 108.5s21.7 105.4 144.1 105.4c130.2 0 144.2-21.7 144.2-113.2m-212.4 4.7c0-41.9 9.3-46.5 63.6-46.5 60.5 0 71.3 1.5 71.3 46.5 0 41.9-7.8 49.6-65.1 49.6-62.1 0-69.8-6.2-69.8-49.6m880.5-4.7c0-83.7-23.3-100.7-142.6-100.7-127.1 0-142.6 20.1-142.6 107 0 88.4 21.7 107 142.6 107 130.2-.1 142.6-21.8 142.6-113.3m-210.8 4.7c0-41.9 9.3-46.5 63.5-46.5 60.5 0 71.3 1.5 71.3 46.5 0 41.9-7.7 49.6-65.1 49.6-61.9 0-69.7-6.2-69.7-49.6m-1781.2-4.7c0-83.7-23.3-100.7-142.6-100.7-128.7 0-144.2 20.1-144.2 107 0 88.4 21.7 107 144.2 107 130.2-.1 142.6-21.8 142.6-113.3m-209.3 4.7c0-41.9 9.3-46.5 62-46.5 60.5 0 71.3 1.5 71.3 46.5 0 41.9-7.8 49.6-65.1 49.6-60.5 0-68.2-6.2-68.2-49.6M2858.7 71.3v119.4c-17-23.3-32.5-35.6-94.5-35.6-99.2 0-117.8 26.4-117.8 107 0 82.2 26.4 105.4 122.5 105.4 60.5 0 79.1-15.5 93-41.8v37.2h74.4V71.3zm-54.3 142.6c41.8 0 55.8 6.2 55.8 38.7 0 49.6-3.1 54.3-62 54.3s-74.4-1.6-74.4-43.4c0-48 18.6-49.6 80.6-49.6m-1410.7-55.8H1324v204.6h74.4V257.3c0-31 15.5-41.8 57.4-41.8 38.8 0 49.6 13.9 49.6 52.7v94.5h76V254.2c0-29.5 23.2-38.7 58.9-38.7 34.1 0 49.6 9.3 49.6 38.7v108.5h74.4V241.8c0-60.4-37.2-88.4-105.4-88.4-58.9 0-80.6 21.7-88.4 45-15.5-26.4-37.2-45-96.1-45-55.8 0-71.3 18.6-80.6 52.7zm500.7 0h-69.8v204.6h74.4V257.3c0-31 18.6-41.8 55.8-41.8 38.8 0 49.6 12.4 49.6 52.7v94.5h76V254.2c0-29.5 21.7-38.7 57.4-38.7 34.1 0 51.1 10.8 51.1 38.7v108.5h74.4V241.8c0-60.4-37.2-88.4-105.4-88.4-58.9 0-79.1 20.1-88.4 45-15.5-26.4-37.2-45-96.1-45-54.2 0-68.2 18.6-79 52.7zM334.6 388.9a140.5 140.5 0 0 1-68.8 18c-77.7 0-141-63.2-141-141s63.2-141 141-141c25 0 48.4 6.5 68.8 18V9c-21.9-5.9-45-9-68.8-9C119 0 0 119 0 265.9s119 265.9 265.9 265.9c23.8 0 46.8-3.2 68.8-9V388.9Z" style="fill:#fff"/><path d="M334.6 149.8h111.5v106.4H334.6z" style="fill:#fff"/><path d="M566.4 149.8 460 256.2h-49V149.8zM334.6 275.6h111.5V382H334.6z" style="fill:#fff"/><path d="M566.4 381.9 460 275.6h-49v106.3zm841.8 654.1c-64.7 59.5-213.5 51.3-295.6 51.3H849.8v167.3H641.5V570h469.1c38 0 74.9 0 112.9 1 66.7 1 142.7 8.2 193 57.5 47.2 46.2 47.2 147.8 47.2 208.4-.1 64.6-4.2 151.9-55.5 199.1m-247.4-293.6c-16.4 0-33.9-1-50.3-1H849.8v174.5h310c80.1 0 94.4-14.4 94.4-93.4.1-74.9-26.6-79-93.4-80.1m360.3 512.2V570h757.5v161.2h-552.2v99.6h524.5v149.9h-524.5v109.8h556.3v164.2h-761.6Zm1370.3-510.1v510.1h-218.6V744.5h-304.9V570h828.3v174.5z" style="fill:#fff"/></svg>