<svg xmlns="http://www.w3.org/2000/svg" viewBox="0 0 264 44"><path d="M17.57 8.76h9.27v9.06h-9.27ZM0 44h17.45l.07-17.64H44L43.9.04H9.1l-9.12 9.1ZM52.96.04h34.91v8.57h-8.6v26.57h8.58v8.78h-34.9v-8.63h8.88V8.35l-8.97.02ZM96.83 9.4l9.4-9.4h25.7v8.7H114.5v26.57h17.24v8.68H97.02Zm61.74-.63h8.77v26.3h-8.77Zm-17.7 35.06h34.56l9.32-9.3V.02h-34.51L141 9.25Zm52.92-26.33h17.52v8.8h-17.52zm43.93-8.7h17.87v8.84h-17.87Zm.03 17.52h17.87v8.83h-17.87Zm26.23 17.56V0H229v9.43l-8.7 8.68v25.84Z" style="fill:#fff"/></svg>