<svg xmlns="http://www.w3.org/2000/svg" viewBox="0 0 3839 993.6"><path d="M1297.7 0c-21.3-1.2-20.7 56.1 1.3 53.4 23.9-3.1 15.9-52.4-1.3-53.4m-122.6 36.8c-10.5 11.5 39.8 58 50.9 41.3 12.1-18.4-40.4-52.8-50.9-41.3m-44.2 79.3c-9.6 17.4 35.5 51.2 47.3 29.9 12.8-23.2-41.8-39.9-47.3-29.9m298-105.5c-19.9-15.2-57.3 41.3-34.1 53 25.3 12.8 50.1-40.8 34.1-53m98.3 71.2c-6.6-21.2-73 5.3-61.4 25.4 12.6 21.9 66.7-8.3 61.4-25.4" class="st0" style="fill:#fff"/><path d="m3033 37.9-715 166.7-907.1-13.5c-1.4 5.8-4.7 11.9-12.2 17.9l919 13.7h2.2l2.2-.5 711-165.8 781.7 169.2-268 725.1H2421.4l-809.6-54.5-1.6-.1-1.6.2-711.4 79L202.4 857l-180-637.1L480.8 99.8l304.8 21.7 468.4 71.7c-7-7.8-8.8-14.8-8.9-19.6l-457.4-70-308.6-22L0 207.1l188.1 665.8 708.6 120.7 713.9-79.3 810.2 54.5h1138.6L3839 212.4z" class="st0" style="fill:#fff"/><path d="M2873.3 160.2c-33.2 23.1 43.3 133 87.9 112.1 22.6-10.5-55.9-134.4-87.9-112.1m374.9-1c-37.9-12.6-121.8 96.5-91.2 115.9 37.4 23.6 140.7-99.4 91.2-115.9m262.9 102.9c-10.3-11.3-161.4 49.7-132.3 85.5 26.6 32.7 157-58.6 132.3-85.5m90.5 271.7c11.2-37.7-156.9-52.9-164-13.7-5.7 32.1 153.2 50.2 164 13.7m-98.4 224.1c25.3-28.4-109-114-131.3-82.5-18.3 25.9 106.8 110 131.3 82.5m-893.6-438c25.2-28.7 151.7 38 136.3 83.2-12.6 36.9-163.2-52.5-136.3-83.2m223.5 375.6c22.6 37-97.5 125.2-125.6 87-19.9-27.2 109.5-113.6 125.6-87m188 57c33.4 15.8-34.7 141.9-64.8 127.5-32.7-15.7 33.3-142.4 64.8-127.5m178-6.1c47.4-19.9 97 120.9 55.1 133.2-38 11.1-89.9-118.5-55.1-133.2m-632.5-166.9c5.5-31.1 155.1-45.8 159.5-1.8 2.6 25.8-164.4 29.6-159.5 1.8m530.3-175.1c-.7.9-64 23.1-54.6 39.2 5.5 9.4 14.4 4.2 21.6-1.1 27.2-19.8 41.1 7.7 23.6 17.8-36.9 21.3-80.9 2.2-80.4-22.2.5-24.6 29.4-43.1 29.4-43.1m192.3 31.6c-.7.9-80.5 4.7-69 27.2 4.9 9.7 12.4.5 20.9-2 14.4-4.1 27.5 21.1 7.6 24.1-23.5 3.5-68.4-2.9-68.4-30.2 0-24.6 29.4-43.1 29.4-43.1m-7 176.3h-60.9c-50.5 0-107.1-30.8-109.5-32.1a15.66 15.66 0 0 1-6.2-21.3c4.2-7.6 13.7-10.4 21.3-6.2 1 .5 52.3 28.3 94.4 28.3h60.9c25.4 0 46.7-1.8 57-4.8a15.7 15.7 0 0 1 19.5 10.7 15.7 15.7 0 0 1-10.7 19.5c-17.1 4.8-45.2 5.9-65.8 5.9" class="st0" style="fill:#fff"/><path d="M3300.8 490.9c-17.1 23.8-24.9 67-45.9 85-48.5 41.6-97 48.5-163.4 48.5-119.2 0-166.1-29.3-200.2-77.7-16.1-22.8-2.5-47.2 10.3-65.2 18.3-25.8 44.9-74.5 178.7-74.5 109.5 0 158.7 32.9 177.5 46.3 16.5 11.8 25.7 17.8 36.3 20.1 8 1.7 11.4 10.9 6.7 17.5m-220.6-175.6c-225.9 0-343.8 116.2-343.8 210.5v19.3c0 58.8 74.3 174.3 359.9 174.3 216.1 0 312.5-106.7 312.5-185.1v-75.7c0-76.5-94.6-143.3-328.6-143.3M625.3 229.4c-279.8-17-263.4 86.6-262.8 116 0 0-71.7-9.8-71.7 24.2 0 53 50.3 83.6 54.9 153.2 2.4 36.7 26.4 208.6 156.7 224.5 60.6 7.4 120.2-10 118.2-81.5-.9-32.4-32-67-36-89-.7-3.6 2.2-6.9 5.9-6.9 247.1.1 308.6-90.5 316.2-159.1 7.6-68-34.8-166.4-281.4-181.4M700 391.3c-26.7 49.7-107.5 60.3-140.7 62.6-8.6.6-16.5-4.5-19.6-12.5l-23.6-60.9c-2.7-7 .6-14.8 7.5-17.7 40.3-17.3 66-29.5 101.4-22.2 19.1 4 87.3 27.8 75 50.7m728.3 242.9c12.1-78.8 29.2-168.9-87.3-168.9-78.8 0-121.1 31.6-134.1 87.5-5.4 23.5 5.3 72.7.9 93.3-6.5 30-20.8 92.2 8.3 132.3 33.3 45.9 178.4 70.5 212.3-44 9.9-33.1-6.6-58.5-.1-100.2m328.6-84.6c-.1-8.1 3.2-15.9 9.1-21.5 80.7-76.3 238.4-165 425.8-165 58.8 0 130.4 40.6 130.4 60.8 0 39.7-58.7 34.9-127.4 50.2-100 22.4-221.6 54.8-221.6 117.8 0 32.4 4.2 78.7 95 78.7 111.6 0 156.1-66 274.9-70.2 36.9-1.3 81 12.4 81 48.3 0 33.6-120.4 120.1-261.5 120.1h-151.5c-75.1 0-253-58.7-253-157.3zM1338.7 73.5c-119.5-4-140.7 84.2-140.7 109 0 62.7 81.5 67.3 84.9 92.4 1.9 13.8 3.5 44.3 43.4 51.4 3.6.6 4.1 5.7.6 6.9-16.1 5.7-37.4 15.6-37.4 28.2 0 20.2 24.8 28.1 64.6 28.1 0 0 36.2 2.3 36.2-9.8 0-7-15.2-12.3-28.1-15.6-3.7-.9-3.6-6.1.1-7 15.3-3.5 34.8-10 34.8-20.2 0-9.8-16.6-16-30.2-19.4-3.7-.9-3.6-6.2.2-7l12.9-2.6c5.6-1.1 9.7-5.9 10.5-11.6 7.2-55.7 76.8-45.2 76.8-122.3 0-24.8-28.1-97.1-128.6-100.5m58.9 136.3c-14.7 11-28.7 25.8-39.4 52.6a7.9 7.9 0 0 1-6.5 4.9c-5 .4-11.5-.1-15.8-.5-2.8-.3-5.3-2-6.2-4.7-7.1-20.4-34.3-42.6-53.7-52.8-26.4-13.9-30.9-28.5-30.9-36.3 0-14.6 1.5-53.9 85.8-52.5 2 0 4.1 0 6.2.1 69.1 2.3 74.5 46.5 74.5 52.6 0 9.8 3.4 23.7-14 36.6m-40.2 201a17.2 15.7 0 0 1-17.2 15.7 17.2 15.7 0 0 1-17.2-15.7 17.2 15.7 0 0 1 17.2-15.7 17.2 15.7 0 0 1 17.2 15.7" class="st0" style="fill:#fff"/></svg>