<svg xmlns="http://www.w3.org/2000/svg" xml:space="preserve" id="Layer_1" x="0" y="0" viewBox="0 0 3840 1057"><style>.st0{fill-rule:evenodd;clip-rule:evenodd;fill:#fff}</style><path d="M168.4 658.7V1057h-52.3V658.7zm116.1 0V1057h-52.4V658.7zm116.1 0V1057h-52.4V658.7zm-348.2 0V1057H0V658.7z" class="st0"/><path d="M168.4 658.7V1057h-52.3V658.7zm116.1 0V1057h-52.4V658.7zm116.1 0V1057h-52.4V658.7zm116 0V1057h-52.3V658.7zm116.1 0V1057h-52.4V658.7zm116 0V1057h-52.3V658.7zm116.1 0V1057h-52.3V658.7zm116.1 0V1057h-52.4V658.7zm116 0V1057h-52.3V658.7zm116.1 0V1057h-52.4V658.7zm116.1 0V1057h-52.4V658.7zm116 0V1057h-52.3V658.7zm116.1 0V1057h-52.4V658.7zm116.1 0V1057h-52.4V658.7zm116 0V1057H1741V658.7zm116.1 0V1057H1857V658.7z" class="st0"/><path d="M881.7 265.2c-3.6-33.6-39.8-32.7-65.3-32.7-13.9 0-42.9.5-54.1 10.1-10.7 9.2-10.7 33.2-10.7 46.1 0 12.4.4 29 9.8 38.3 11.2 11.1 42 12 56.3 12 9.8 0 19.2 0 29.1-1.4 19.7-2.8 31.3-8.8 34.4-30.4h80.5c-.9 24.4-2.2 47.9-19.7 66.4-18.3 19.8-46.5 24-72 25.4-19.2.9-38 1.4-57.2 1.4-34.4 0-83.6.9-113.1-20.3-28.6-20.7-27.3-64.1-27.3-95.9 0-31.3-.4-68.7 25-90.8 27.7-24 85.4-22.1 119.4-22.1s93-1.4 121.2 22.1c7.6 6.5 12.5 12.9 16.5 22.6 6.7 16.1 7.2 31.8 7.6 49.3h-80.4zm403.2 59c-1.8 21.2-7.2 40.1-23.2 54.4-27.3 24.4-91.6 21.7-125.2 21.7-34.9 0-96.6 3.2-125.2-21.7-8-6.9-13-14.3-17-24-8.9-22.6-7.6-51.2-7.6-75.1 0-12 0-24.4 1.3-36.4 1.8-20.7 9.4-39.2 25.9-52.1 26.8-21.2 90.8-19.8 122.5-19.8 32.2 0 95.2-1.4 122.5 19.8 7.6 6 12.5 12 17 20.7 11.6 21.2 10.3 48.4 10.3 71.9 0 13.4-.4 27.2-1.3 40.6m-87.6-79.8c-11.6-11.5-45.6-12-60.4-12-14.3 0-29.1.5-42.9 3.2-27.7 5.5-28.2 27.7-28.2 52.5 0 12-.4 28.1 8 37.3 12.1 13.4 46.9 13.4 63 13.4 15.2 0 31.3 0 46-4.1 24.6-6.9 24.1-30 24.1-52.5.2-12.4-.2-28.5-9.6-37.8m502.9 150.3V292.8c0-47-4.9-60.4-53.6-60.4-54.5 0-58.6 22.1-58.6 72.4v89.9h-79.1V277.6c0-39.6-16.5-45.2-52.3-45.2-56.3 0-59.9 20.7-59.9 72.4v89.9h-79.1v-218h74.7v32.7h3.6c14.8-33.6 54.1-38.3 85.8-38.3 40.2 0 75.6 6.9 96.1 45.6 16.1-40.6 53.6-45.6 91.6-45.6 30.8 0 65.3 3.7 87.6 28.1 7.6 8.3 13.4 17.1 16.5 28.1 6.3 21.2 5.8 43.8 5.8 65.5v101.9zm495.7 0V292.8c0-47-4.9-60.4-53.6-60.4-54.5 0-58.6 22.1-58.6 72.4v89.9h-79.1V277.6c0-39.6-16.5-45.2-52.3-45.2-56.3 0-59.9 20.7-59.9 72.4v89.9h-79.1v-218h74.7v32.7h3.6c14.8-33.6 54.1-38.3 85.8-38.3 40.2 0 75.6 6.9 96.1 45.6 16.1-40.6 53.6-45.6 91.6-45.6 30.8 0 65.3 3.7 87.6 28.1 7.6 8.3 13.4 17.1 16.5 28.1 6.3 21.2 5.8 43.8 5.8 65.5v101.9zm406.8-70.5c-1.8 21.2-7.2 40.1-23.2 54.4-27.3 24.4-91.6 21.7-125.2 21.7-34.9 0-96.6 3.2-125.2-21.7-8-6.9-13-14.3-17-24-8.9-22.6-7.6-51.2-7.6-75.1 0-12 0-24.4 1.3-36.4 1.8-20.7 9.4-39.2 25.9-52.1 26.8-21.2 90.8-19.8 122.5-19.8 32.2 0 95.2-1.4 122.5 19.8 7.6 6 12.5 12 17 20.7 11.6 21.2 10.3 48.4 10.3 71.9 0 13.4-.4 27.2-1.3 40.6m-87.6-79.8c-11.6-11.5-45.6-12-60.4-12-14.3 0-29.1.5-42.9 3.2-27.7 5.5-28.2 27.7-28.2 52.5 0 12-.4 28.1 8 37.3 12.1 13.4 46.9 13.4 63 13.4 15.2 0 31.3 0 46-4.1 24.6-6.9 24.1-30 24.1-52.5.2-12.4-.3-28.5-9.6-37.8m338.8 150.3v-28.6h-4c-5.4 9.2-9.4 15.2-18.3 20.7-19.7 12.4-52.8 13.4-75.1 13.4-32.6 0-76.9.5-102.8-23-23.2-21.2-22.8-63.1-22.8-92.6 0-34.1.9-75.6 31.3-96.8 26.8-18.4 64.4-16.6 95.2-16.6 23.2 0 48.7-.5 69.3 12 10.3 6 13.9 12 19.7 22.6h3.1V87.3h79.1v307.4zm-8.1-142c-9.4-22.1-43.4-20.3-62.6-20.3-19.7 0-59.5-2.3-69.3 20.7-3.6 9.2-4 21.2-4 30.9 0 12.9-.4 32.7 8.9 42.9 10.7 12 45.2 12 59.5 12 16.1 0 35.8-.9 51-6 21.5-6.9 21-28.1 21-47.9 0-10.1-.4-22.6-4.5-32.3m412.2 71.5c-1.8 21.2-7.2 40.1-23.2 54.4-27.3 24.4-91.6 21.7-125.2 21.7-34.9 0-96.6 3.2-125.2-21.7-8-6.9-13-14.3-17-24-8.9-22.6-7.6-51.2-7.6-75.1 0-12 0-24.4 1.3-36.4 1.8-20.7 9.4-39.2 25.9-52.1 26.8-21.2 90.8-19.8 122.5-19.8 32.2 0 95.2-1.4 122.5 19.8 7.6 6 12.5 12 17 20.7 11.6 21.2 10.3 48.4 10.3 71.9 0 13.4-.4 27.2-1.3 40.6m-87.6-79.8c-11.6-11.5-45.6-12-60.4-12-14.3 0-29.1.5-42.9 3.2-27.7 5.5-28.2 27.7-28.2 52.5 0 12-.4 28.1 8 37.3 12.1 13.4 46.9 13.4 63 13.4 15.2 0 31.3 0 46-4.1 24.6-6.9 24.1-30 24.1-52.5.2-12.4-.2-28.5-9.6-37.8m365.2 29.1h-74.2c0-32.3-10.3-41-41.6-41-48.7 0-50.1 31.8-50.1 71.9v90.3h-79.1v-218h74.7v32.7h3.6c18.3-33.6 47.8-38.3 82.3-38.3 24.6 0 54.1 3.2 70.6 24.4 14.8 18.9 14.3 46.1 14.3 69.1-.1 2.9-.5 6.1-.5 8.9m304 29.9H3633c0 12.4-.4 26.7 9.8 35.5 10.7 8.8 40.7 9.2 53.6 9.2s49.2.5 57.7-9.2c3.6-3.7 4.5-8.8 5.4-13.8h78.7c-1.8 20.7-5.8 36.9-21 51.2-27.3 25.4-92.5 24-127 24-31.3 0-83.6.5-109.5-20.3-8-6.5-13.4-13.8-17.9-23-9.8-21.2-8.9-47.5-8.9-70.1 0-13.8 0-27.7 1.3-41 2.2-22.1 9.4-41.9 27.3-55.3 27.7-20.7 83.2-19.4 115.8-19.4 30 0 62.6-.9 91.6 7.8 46.9 14.3 50.1 58.5 50.1 102.3 0 7.4 0 14.8-.4 22.1m-79.2-49.7c0-8.3-.4-14.7-6.3-21.2-9.4-10.6-41.6-10.6-54.5-10.6-12.1 0-24.1 0-35.8 1.8-22.4 3.2-30.4 12-30.8 35h127.4zM2304.2 898.4c-2.2 20.3-8 40.1-23.7 53.5-22.8 19.8-72 19.8-100.1 19.8-34.4 0-70.2.5-89.9-33.6h-3.6V1057h-79.1V748.2h74.7v29.5h4c18.3-36.4 62.1-35 97-35 41.6 0 99.2 0 115.8 48.4 6.7 19.8 6.7 46.6 6.7 67.3 0 13.3-.4 26.7-1.8 40m-84.4-80.2c-11.2-14.7-44.3-14.3-60.4-14.3-19.7 0-58.6-2.8-68 20.3-4.5 10.1-4.5 24.4-4.5 35.5 0 12 .4 25.4 7.2 35.5 10.3 15.2 47.4 15.2 63 15.2 15.2 0 32.6-.5 47.4-4.6 24.1-6.9 22.4-31.3 22.4-53 0-12 .5-24.4-7.1-34.6m129.1 148V658.8h79.1v307.4zm337.1 0v-32.7h-4c-16.5 36.4-56.8 38.3-90.8 38.3-42.5 0-93-6-110-53-8-22.6-7.2-47-7.2-71v-99.6h78.7v99.6c0 53.5 9.8 62.7 62.1 62.7 60.8 0 66.6-16.1 66.6-74.7v-87.6h78.7v218zm391.6-18.4c-24.6 25.4-101.9 24-133.7 24-34.4 0-95.2 2.8-122.9-22.6-15.2-13.8-18.3-32.3-18.8-52.5h80.5c1.8 19.8 21.5 22.1 36.7 23.5 9.8.9 19.7.9 29.5.9 13.9 0 51.4.9 62.1-9.2 3.1-2.8 4.5-6.9 4.5-11.1 0-18-24.6-17.1-36.7-17.1-14.8 0-29.5-.5-44.3-.5h-45.6c-47.4 0-84.9-11.5-84.9-67.8 0-34.6 13.4-57.6 46.9-65.9 30.8-7.4 67.5-6.9 98.8-6.9 33.1 0 90.8-2.3 116.7 19.8 13.9 12 15.6 30 17 47.5h-80.5c-.9-4.6-1.8-7.8-5.8-10.6-8.5-6-40.2-6-50.1-6-13 0-47.8-.5-59 7.4-3.1 2.8-4.9 6-4.9 10.1 0 12 9.4 13.8 18.8 14.7 20.1 1.8 43.4 1.4 63.5 1.4l44.3.5c49.6.5 84.5 10.1 84.5 68.2-.1 18.5-3.2 38.3-16.6 52.2m67.9 84.8h-56.8L3335 592.4h57.2zM129.6 284.4c0-83.1 65.6-150.8 146.2-150.8 25.9 0 50.2 7 71.3 19.2V9.7C324.4 3.4 300.5 0 275.8 0 123.5 0 0 127.3 0 284.4s123.5 284.4 275.8 284.4c24.7 0 48.6-3.4 71.3-9.7V416a142 142 0 0 1-71.3 19.2c-80.6 0-146.2-67.7-146.2-150.8M347.1 274h130.1l110.3-113.7H347.1zm0 20.8v113.7h240.4L477.2 294.8zM3765.3 983v74h-111.7v-74h-307.9V830.8L3574.9 659h190.4v234.5h74.7V983zm-111.7-231.5h-23.7L3450.5 878v15.5h203.2z" style="fill:#fff"/></svg>