<svg xmlns="http://www.w3.org/2000/svg" viewBox="0 0 24 8.65"><title>Pokémon icon</title><path d="M4.46 11.7c-.08-.44-.65-.68-1.21-.38l.14.5.23.74.1.33c.43-.27.86-.6.74-1.2m-.56.66-.2-.63-.06-.2a.5.5 0 0 1 .33.03c.06.02.15.08.17.2q.07.35-.24.6M13 11a.77.77 0 1 0-.95 1.2l1.01-1.15zm-.95.81a.5.5 0 0 1 .62-.7zm7.55.23.01.1c0 .22-.21.38-.45.37-.24 0-.43-.19-.42-.4 0-.2.19-.37.4-.38l-.13-.01c-.4-.02-.73.27-.74.62a.7.7 0 0 0 .68.71c.4.02.74-.27.75-.65a.6.6 0 0 0-.1-.36m-12.26.43c0 .22-.2.4-.43.4-.25 0-.44-.18-.44-.4 0-.2.17-.37.4-.39h-.14c-.4 0-.72.3-.72.65 0 .38.32.68.71.68.4 0 .73-.3.73-.68a.6.6 0 0 0-.12-.36zM22.1 10.3l-.18.74-.16-.82-2.22-.5.01 1.24.34.08-.03.22a1.85 1.85 0 0 0-1.86.18l-.34-2.12H16.2l-.04.25H14.6l-.17 1.08-.13-.16a2 2 0 0 0-1.53-.72l1.32-.71-.92-1.37-1.66 1.9.28.36a2 2 0 0 0-.67.43L9.7 9.1l-.5.96.02-.92-2.23.71.06 1.2.38-.1.05.6a1.8 1.8 0 0 0-1.43.02 2 2 0 0 0-.4.23 1.7 1.7 0 0 0-.08-1.06 2 2 0 0 0-.82-.9 2 2 0 0 0-.86-.3c-.77-.14-1.7 0-2.6.39a6 6 0 0 0-.93.48l-.36.22.22.37.66 1.12.2.35.37-.18.05-.02 1.66 3.7.16.35.37-.11.9-.3.39-.12-.1-.4-.48-1.83q.2-.14.38-.32-.04.33.05.66.2.68.81.98c.44.21.97.21 1.46 0q.38-.15.65-.44l.07.73 1.57-.23v-1.4l3.28 1.61v-1.57a3 3 0 0 0 1.35-.43l-.14.84 1.77.28.1-.64.46.86.28-.55.1.9 2 .35-.1-.67a2 2 0 0 0 1.04-.2l-.08.72 1.34.18v.55l1.4.44L24 10.74Zm-7.84.8.1-.09-.12.69-.29-.26ZM13.1 8.3l.48.66-1.39.68-.1-.14Zm-9.2 5.09.55 2.12-.9.29-1.84-4.11-.45.22-.67-1.12q.4-.26.87-.45c.86-.37 1.7-.48 2.36-.37q.36.04.7.24.45.25.65.71c.32.74-.21 1.81-1.27 2.47M8.02 13q-.02.48-.32.9a2 2 0 0 1-.75.6c-.78.34-1.56 0-1.76-.73-.2-.72.26-1.57 1.02-1.9.48-.2.96-.15 1.3.09q.34.22.46.63a1 1 0 0 1 .05.4zm4.24 1.5L9 12.87v1.7l-.83.12-.06-.7c.26-.44.35-.97.22-1.45a1.5 1.5 0 0 0-.4-.68l-.12-1.44-.38.1-.02-.36 1.35-.4.09 1.4 1-1.4.97.92-1.36 1.44 1.28.5q.22.41.63.67.4.25.89.3zm-1.7-2.36-.45-.17.43-.41q-.03.28.03.58zm3.55.43a3 3 0 0 1-1.14.54l-.3.05c-.75.07-1.38-.27-1.61-.83l-.07-.2q-.15-.72.21-1.22a2 2 0 0 1 .24-.26 2 2 0 0 1 .8-.41c.72-.18 1.35.04 1.73.51l-1.35 1.45a1 1 0 0 0 .34-.04c.33-.08.5-.25.67-.43l.54.48.16.15zm2.88 1.92-.3-1.95-.42 1.08-.62-1.35-.25 1.56-1.04-.18.14-.87.12-.11.34-.35-.33-.3.35-2.07h1.05l.26 1.44.3-1.67h.74l.32 2.03c-.4.45-.6 1.06-.46 1.62a1.5 1.5 0 0 0 .87 1.03l.04.26zm2.6-.63a2 2 0 0 1-.39.2 1.4 1.4 0 0 1-.77.07 1 1 0 0 1-.45-.19 1 1 0 0 1-.43-.65q-.1-.53.18-1.01.13-.24.34-.43.23-.2.53-.32a1.3 1.3 0 0 1 1.23.12 1 1 0 0 1 .42.63c.1.4-.02.84-.27 1.19a2 2 0 0 1-.4.39m2.33 1.84-.77-.23-.06-2.84-.39 2.2-.84-.14.06-.63c.55-.47.84-1.2.68-1.86a1.5 1.5 0 0 0-.43-.74l.07-.75-.32-.08.02-.4 1.45.3.49 2.3.5-2.07 1.1.25z" style="fill:#fff" transform="translate(0 -7.68)"/></svg>