<svg xmlns="http://www.w3.org/2000/svg" viewBox="0 0 264 36"><path d="M33.9 12.06c-2.04 0-10.21.65-10.21 11.9 0 12.85 10.66 12.02 10.66 12.02s10.42-.11 10.42-12.02-10.3-11.89-10.42-11.9zm.45 6.1s3.81-.63 3.81 5.8c0 5.95-3.81 5.3-3.81 5.3s-3.98.05-3.98-5.3c0-6.45 3.98-5.73 3.98-5.8m14.5-15.48h6.67v18.2l5.17-8.81h7.14L60.69 22.6 67.83 36h-7.14l-5.17-11.13V36h-6.68Zm23.06 3.24 2.53 3.6 9.6-5.8L81.08 0l-9.05 5.86zM92.3 36h5.9V22.23s.25-3.61 3.29-3.61c3.03 0 3.03 3.61 3.03 3.61V36h5.58V22.24s.12-3.61 3.16-3.61c3.03 0 3.03 3.61 3.03 3.61V36h5.79V18.62s.4-6.55-5.79-6.55-6.2 3.9-6.2 3.9.75-3.9-5.57-3.9c-6.31 0-6.31 3.9-6.31 3.9s.9-3.9-2.5-3.9H92.3Zm43.87-23.92c-2.04 0-10.21.65-10.21 11.89 0 12.85 10.66 12.02 10.66 12.02s10.42-.11 10.42-12.02-10.3-11.89-10.42-11.9zm.45 6.09s3.82-.62 3.82 5.8c0 5.95-3.82 5.3-3.82 5.3s-3.97.05-3.97-5.3c0-6.45 3.97-5.73 3.97-5.8M150.74 36h6.44V22.23s-.16-3.61 3.4-3.61 3.57 3.61 3.57 3.61V36h6V18.62s.03-6.55-6-6.55-6.97 3.9-6.97 3.9.58-3.9-1.8-3.9h-4.64Zm34.27-23.93h27.64s2.67-.1 2.67 2.55v20s.06 1.37-1.28 1.37h-4s-1.33-.03-1.33-1.38V22.24s-.12-1.58-1.28-1.58h-4s-1.34-.15-1.34 1.58v12.37s-.17 1.38-1.33 1.38h-3.77s-1.45.09-1.45-1.38V22.24s.4-1.58-1.4-1.58h-3.76s-1.34-.15-1.34 1.58v12.37s0 1.38-1.33 1.38h-4s-1.22-.09-1.22-1.38v-20s.05-2.35 2.52-2.54m40.74 11.91s1.29-.1 1.29 1.28v9.35S226.9 36 225.79 36h-2.7s-1.33-.03-1.33-1.38v-9.35s.05-1.28 1.37-1.28c1.3 0 2.54.04 2.62 0m-2.62-4.03s-1.37.02-1.37-1.34v-4s0-1.33 1.39-1.33h2.62s1.27-.03 1.27 1.33v4s.13 1.34-1.25 1.34-2.62-.02-2.66 0m10.46 14.65s.04 1.38 1.35 1.38h3.86s1.35-.07 1.35-1.38V22.24s.04-1.58 1.31-1.58h3.94s1.35-.15 1.35 1.58v12.37s-.08 1.38 1.31 1.38h2.67s1.23-.07 1.23-1.38V15.97s-.04-2.68-2.62-2.68h-13.09s-2.66.02-2.66 2.68c0 2.65.12 18.79 0 18.64m29.12-10.63s1.29-.1 1.29 1.28v9.35s-.14 1.38-1.25 1.38h-2.7s-1.33-.03-1.33-1.38v-9.35s.06-1.28 1.37-1.28 2.54.04 2.62 0m-2.62-4.02s-1.37.02-1.37-1.34v-4s0-1.33 1.39-1.33h2.63s1.26-.03 1.26 1.33v4s.13 1.34-1.25 1.34-2.62-.02-2.66 0m-181.47-7.9c-7.88 0-9.68 6.08-9.68 11.9s3.48 12.02 10.21 12.02 7.34-1.37 7.34-1.37v-4.02c-.05-.02-5.5 0-8.4 0s-2.34-3.94-2.34-3.94h12.5v-4.4s0-10.19-9.63-10.19m.45 5.23c3.33 0 3.36 1.32 3.36 1.32v3.65h-6.69V18.6s0-1.32 3.33-1.32M0 4.52v31.46h7.38V24.87h5.75s7.42-.62 7.42-6.71v-6.1s-.05-7.54-7.43-7.54c-7.3 0-13.09.1-13.12 0m7.38 6.1h3.94c2.02.6 1.8 2.69 1.8 2.69v2.65c0 2.2-1.8 2.65-1.8 2.65H7.38Z" style="fill-opacity:1;stroke:none;stroke-width:5.91784;stroke-linecap:butt;stroke-linejoin:round;stroke-miterlimit:4;stroke-dasharray:none;stroke-opacity:1;paint-order:markers stroke;fill:#fff"/></svg>