<svg xmlns="http://www.w3.org/2000/svg" viewBox="0 0 264 70"><path d="M84.45 80.48a47.9 47.9 0 0 1 45.05-16.03 47.99 47.99 0 1 0-90.16.02q4.2-.79 8.65-.8c14.6 0 27.66 6.53 36.46 16.81m45.05-16.03a48.1 48.1 0 0 1-36.43 30.74 48 48 0 0 1-8.62 47.64 47.99 47.99 0 1 0 45.04-78.38M75.83 95.2a48 48 0 0 1-36.5-30.73 47.99 47.99 0 1 0 45.12 78.37 47.8 47.8 0 0 1-11.52-31.18 48 48 0 0 1 2.9-16.46m0 0a48 48 0 0 0 17.24-.02 48 48 0 0 0-8.62-14.7 48 48 0 0 0-8.62 14.72m192.14-36.01q0 14.13-9.6 21.67-9.6 7.53-27.2 7.53H216.1v40.27h-6.8V31.2h23.86q34.8 0 34.8 28M216.1 82.52h13.4q16.45 0 23.8-5.43 7.33-5.43 7.33-17.64 0-11.25-6.93-16.7-6.93-5.43-21.47-5.43H216.1zm155-2.72q0 23.2-11.6 36.7t-32 13.5q-20.33 0-31.93-13.5t-11.6-36.84q0-23.27 11.7-36.64t31.97-13.37q20.4 0 31.94 13.44 11.52 13.43 11.53 36.7m-79.73 0q0 20.93 9.33 32.36t26.8 11.44q17.61 0 26.9-11.34 9.3-11.33 9.3-32.47 0-21.07-9.3-32.3-9.29-11.24-26.76-11.23-17.4 0-26.84 11.33-9.43 11.33-9.43 32.2m108.93 6.41v42.47h-6.8V31.2h23.2q18.15 0 26.81 6.7t8.67 20.16q0 9.8-5.17 16.54t-15.7 9.67l26.47 44.4h-8.14L424.53 86.2zm0-5.87h18.6q12.34 0 19.14-5.5t6.8-16.23q0-11.14-6.66-16.2-6.67-5.07-21.75-5.07h-16.13zm99.75 48.34h-6.87V37.6h-31.67v-6.4h70.2v6.4h-31.67zM600 103.52q0 12.21-8.97 19.34-8.97 7.14-23.83 7.14-17.87 0-27.41-3.94v-6.8q10.54 4.46 26.87 4.47 12 0 19.04-5.5a17.5 17.5 0 0 0 7.03-14.44q0-5.53-2.34-9.17T582.8 88t-15.47-6.47q-14.93-5.13-20.63-11.1t-5.7-15.9q0-10.93 8.57-17.83t22.03-6.9q13.74 0 25.8 5.2l-2.46 5.86q-12.15-5.06-23.2-5.07-10.8 0-17.2 5-6.41 5.01-6.4 13.61-.01 5.4 1.96 8.87 1.95 3.46 6.43 6.24 4.47 2.76 15.33 6.63 11.4 3.93 17.14 7.63 5.72 3.7 8.36 8.4 2.65 4.7 2.65 11.36" style="fill-opacity:1;fill:#fff" transform="scale(.44 .43846)"/></svg>