<svg xmlns="http://www.w3.org/2000/svg" viewBox="0 0 264 56"><path d="M169 0h-34.63c-10.69 0-15.92 6.56-15.92 15.07v25.87c0 5.28-2.51 9.07-7.81 9.07h-30.3a.4.4 0 0 0-.38.38v5.22c0 .21.18.39.39.39h34.28c10.68 0 15.93-6.53 15.93-15.05V15.07c0-5.29 2.49-9.09 7.82-9.09H169c.24 0 .42-.17.42-.38V.39c0-.2-.18-.39-.42-.39M67.06 0H.42C.18 0 0 .18 0 .39v5.2c0 .22.18.4.42.4h62.63c5.3 0 7.8 3.8 7.8 9.08 0 5.27-2.5 9.05-7.8 9.05H13.5C5.8 24.12 0 30.54 0 39.06V55.6c0 .23.18.41.42.41H11.7a.4.4 0 0 0 .4-.4V39.06c0-5.25 3.04-8.96 7.45-8.96h47.5c10.66 0 15.88-6.5 15.88-15.03C82.94 6.57 77.72 0 67.06 0m191.98 27.3a.5.5 0 0 1 0-.61c3.32-2.73 4.96-6.85 4.96-11.62C264 6.57 258.78 0 248.1 0h-66.63a.4.4 0 0 0-.4.4v5.2c0 .21.17.4.4.4h62.62c5.28 0 7.83 3.78 7.83 9.07 0 5.27-2.53 9.05-7.83 9.05h-.08l-62.54.02c-.23 0-.4.16-.4.4v5.19c0 .2.17.37.4.37h62.62c6.9.08 7.82 6.76 7.82 10.18v.64c0 5.3-2.54 9.11-7.82 9.11h-62.62c-.23 0-.4.16-.4.37v5.2c0 .22.17.4.4.4h66.62C258.8 56 264 48.94 264 40.92v-.64c0-5.11-1.64-10-4.96-12.98" style="fill:#fff;fill-opacity:1"/></svg>