<svg xmlns="http://www.w3.org/2000/svg" viewBox="0 0 264 86"><path d="M109.27 170.3c5.64 0 9.03-1.15 9.03-6.52 0-3.97-2.46-6.1-8.1-6.1h-7.8v12.62zm-9.85 16.57v-31.74h11.6c8.2 0 10.36 4.1 10.36 8.87 0 7.09-6.37 8.85-12.21 8.85h-6.77v14.02zm25.96 0h2.56v-31.74h-2.56zm24.11-12c-2.26.93-4.62 1.1-6.88 1.29-4 .3-6.46 1.76-6.46 4.84 0 2.79 2.47 4.1 4.93 4.1 4.2 0 8.41-2.03 8.41-6.66zm-4.52-1.31c1.03-.1 2.67-.36 3.5-.76.91-.4 1.02-1.58 1.02-2.37 0-2.69-1.64-4.63-5.75-4.63-3.59 0-6.15 1.2-6.67 5.15h-2.66c.4-5.37 4.4-7.54 9.43-7.54 4.62 0 8.21 1.82 8.21 7.1v12.43c0 2.07.62 2.55 2.77 1.76v2.07c-.3.14-1.23.44-2.05.44-.4 0-.72-.03-1.13-.13-1.84-.25-2.15-1.8-2.15-3.4a11.2 11.2 0 0 1-8.52 3.8c-4 0-7.59-2.16-7.59-6.56 0-3.83 2.67-6.17 8-6.88zm13.65 19.51c.72.14 1.43.28 2.15.28 3.08 0 3.5-4.33 4.52-6.31l-8.93-23h2.98l7.38 19.62 7.29-19.62h2.87l-8.51 22.52c-2.16 5.72-3.6 9.3-7.3 9.3-.91 0-1.73-.14-2.45-.31zm24.52-15.68c.51 5.68 4.2 7.75 9.13 7.75 5.64 0 8-3.07 8-6.56 0-9.83-19.29-3.3-19.29-15.77 0-4.41 3.6-8.5 10.78-8.5 7.08 0 10.67 4.3 10.57 9.47h-2.78c0-4.85-3.8-6.92-7.8-6.92-6.15 0-8.3 3.74-7.79 7 1.33 8.2 19.4 2.3 19.4 14.58 0 5.83-4.32 9.26-11.6 9.26-6.67 0-11.6-3.43-11.6-10.31zm33.96 9.56c-.61.13-1.74.53-3.08.53-2.56 0-4-1.14-4-4.54v-16.7h-3.28v-2.2h3.28v-6.35h2.67v6.35h4.2v2.2h-4.2v15.64c0 2.26 0 3.22 2.25 3.22.72 0 1.44-.13 2.16-.3zm19.8-12.08c-2.25.93-4.51 1.1-6.77 1.29-4 .3-6.47 1.76-6.47 4.84 0 2.79 2.47 4.1 4.93 4.1 4.2 0 8.31-2.03 8.31-6.66zm-4.41-1.31c.92-.1 2.57-.36 3.49-.76.82-.4.92-1.58.92-2.37 0-2.69-1.54-4.63-5.64-4.63-3.7 0-6.16 1.2-6.67 5.15h-2.67c.41-5.37 4.41-7.54 9.34-7.54 4.62 0 8.3 1.82 8.3 7.1v12.43c0 2.07.52 2.55 2.78 1.76v2.07c-.41.14-1.34.44-2.05.44q-.62.01-1.23-.13c-1.75-.25-2.06-1.8-2.06-3.4a11.3 11.3 0 0 1-8.51 3.8c-4 0-7.7-2.16-7.7-6.56 0-3.83 2.67-6.17 8-6.88zm22.68 13.39c-.62.13-1.75.53-3.08.53-2.57 0-4-1.14-4-4.54v-16.7h-3.19v-2.2h3.19v-6.35h2.66v6.35h4.21v2.2h-4.2v15.64c0 2.26 0 3.22 2.25 3.22.72 0 1.44-.13 2.16-.3zm7.9-.08h-2.57v-22.83h2.57zm-2.77-27.82v-3.92h2.97v3.92zm18.36 6.75c-5.54 0-7.7 4.71-7.7 9.64 0 5.69 2.67 9.66 7.7 9.66 5.54 0 7.8-4.76 7.8-9.66 0-5.37-2.16-9.64-7.8-9.64m-10.57 9.64c0-6.64 3.6-12.03 10.57-12.03 7.18 0 10.67 5.34 10.67 12.03 0 7.24-4.2 12.04-10.67 12.04-5.74-.09-10.57-4.05-10.57-12.03m27.61 11.42h-2.68v-22.83h2.67v3.17c2.05-2.25 4.2-3.8 7.29-3.8 2.87 0 5.33.88 6.97 3.27 1.13 1.64 1.23 3.35 1.23 5.24v14.95h-2.67v-14.9c0-4.1-1.74-6.17-5.94-6.17a6.65 6.65 0 0 0-6.37 4.44c-.51 1.46-.51 2.75-.51 4.33v12.3m25.86-7.42c-.31-.14-.72-.22-1.34-.22h-.82v2.12h.93c.4 0 .81-.04 1.02-.12q.62-.25.62-.93c0-.42-.21-.7-.41-.85m-1.13-.94c.72 0 1.23.07 1.64.2.61.27.82.76.82 1.5 0 .53-.1.91-.51 1.16-.2.13-.51.22-.82.28q.61.12.92.59.3.48.3.92v.43c0 .15 0 .3.11.45v.38h-.92v-.13l-.1-.18v-.48q-.02-1.05-.52-1.36c-.2-.14-.61-.2-1.13-.2h-.81v2.35h-1.03v-5.9zm-3.18-.3c-.93.9-1.34 2-1.34 3.27 0 1.3.41 2.4 1.34 3.3a4.4 4.4 0 0 0 3.28 1.37c1.34 0 2.36-.45 3.29-1.37.92-.9 1.33-2 1.33-3.3 0-1.27-.41-2.37-1.33-3.27a4.4 4.4 0 0 0-3.29-1.36c-1.33 0-2.36.45-3.28 1.36m7.08 7.07a5.2 5.2 0 0 1-3.8 1.59 5.2 5.2 0 0 1-3.8-1.59 5.2 5.2 0 0 1-1.53-3.8q-.01-2.21 1.54-3.78a5.2 5.2 0 0 1 3.8-1.56c1.43 0 2.76.5 3.79 1.56a5.2 5.2 0 0 1 1.54 3.78q0 2.24-1.54 3.8m19.59-14.98c5.65 0 9.13-1.15 9.13-6.52 0-3.97-2.56-6.1-8.2-6.1h-7.8v12.62zm-9.85 16.57v-31.74h11.6c8.2 0 10.36 4.1 10.36 8.87 0 7.09-6.26 8.85-12.2 8.85h-6.78v14.02zm33.76-21.07c-5.54 0-7.8 4.71-7.8 9.64 0 5.69 2.77 9.66 7.8 9.66 5.54 0 7.8-4.76 7.8-9.66-.1-5.37-2.16-9.64-7.8-9.64m-10.57 9.64c0-6.64 3.5-12.03 10.57-12.03 7.18 0 10.57 5.34 10.57 12.03 0 7.24-4.2 12.04-10.57 12.04-5.85-.09-10.57-4.05-10.57-12.03m27.7 11.42h-2.66v-22.83h2.66v4.28h.1c1.44-3.67 3.6-4.9 7.4-4.9v2.87c-5.96-.14-7.5 4.27-7.5 9.37zm22.27.08c-.62.13-1.75.53-2.98.53-2.67 0-4.1-1.14-4.1-4.54v-16.7h-3.18v-2.2h3.18v-6.35h2.66v6.35h4.31v2.2h-4.3v15.64c0 2.26.1 3.22 2.25 3.22.72 0 1.54-.13 2.16-.3zm18.98-12.08c-2.26.93-4.52 1.1-6.77 1.29-4 .3-6.47 1.76-6.47 4.84 0 2.79 2.47 4.1 4.93 4.1 4.2 0 8.31-2.03 8.31-6.66zm-4.41-1.31c.92-.1 2.56-.36 3.48-.76.83-.4.93-1.58.93-2.37 0-2.69-1.54-4.63-5.64-4.63-3.7 0-6.16 1.2-6.67 5.15h-2.67c.4-5.37 4.41-7.54 9.33-7.54 4.62 0 8.32 1.82 8.32 7.1v12.43c0 2.07.5 2.55 2.77 1.76v2.07c-.41.14-1.34.44-2.06.44q-.61.01-1.22-.13c-1.75-.25-2.06-1.8-2.06-3.4a11.3 11.3 0 0 1-8.52 3.8c-4 0-7.7-2.16-7.7-6.56 0-3.83 2.68-6.17 8.01-6.88zm25.34 11.54c4.41 0 7.7-3.22 7.8-8.94.2-5.73-2.36-10.36-7.8-10.36-4.82 0-7.7 4.4-7.7 9.55 0 5.53 2.67 9.75 7.7 9.75m-7.7 1.77h-2.67v-31.74h2.67v12.56c1.65-2.77 4.93-4.28 8.11-4.28 6.97 0 10.16 5.7 10.16 12.09 0 6.73-2.88 11.98-10.26 11.98a9.3 9.3 0 0 1-8-4.62zm24.12 0h2.66v-31.74h-2.66zm25.65-13.01c0-4.45-2.47-8.06-7.19-8.06s-7.18 3.75-7.7 8.06zm-14.88 2.21c0 4.93 2.67 9.03 7.7 9.03 3.38 0 6.15-1.9 6.87-5.24h2.97c-1.33 4.3-4 7.62-9.85 7.62-7.28 0-10.46-5.2-10.46-11.94 0-6.66 3.9-12.13 10.46-12.13 6.26 0 10.06 4.47 10.06 12.66zM0 0h186.94v55.44H7.39v48.04H0V48.05h179.55V7.39H0zm420.45 55.44v48.04h-7.38V48.05H592.6V7.39H413.07v-7.4H600v55.45zM282.25 0v96.1h-95.31v7.38h103.1V7.38h95.32V0z" style="fill-opacity:1;fill:#fff" transform="scale(.44 .4391)"/></svg>