<svg xmlns="http://www.w3.org/2000/svg" viewBox="0 0 264 104"><path d="M0 0h186.94v55.44H7.39v48.04H0V48.05h179.55V7.39H0zm420.45 55.44v48.04h-7.38V48.05H592.6V7.39H413.07v-7.4H600v55.45zM282.25 0v96.1h-95.31v7.38h103.1V7.38h95.32V0z" style="fill-opacity:1;fill:#fff" transform="scale(.43952 .44167)"/><path d="M567.16 120.07c-21.5 3-34.7 14.1-40.1 34-.9 3.4-1.9 13-2.4 22.8-.9 20.4-2.5 26-9.4 32.3-8.1 7.5-13.7 9.2-32.5 10.1l-13.3.6v15l15.4-.2c23.8-.2 35.9-3.6 45.6-12.7 10.3-9.7 14.1-21 15.1-46.1.7-14.3 1.1-17.8 3-22 5.9-13.4 19.7-19.5 44.2-19.5h7.9v-15l-15.2.1c-8.4.1-16.6.4-18.3.6m-528 25.2c-9.2 2.7-14.4 5.8-21.1 12.6-11.9 12.1-14.3 21.5-14.4 55.2v22.3h19.8l.4-25.8c.4-23.3.7-26.2 2.7-31.3 3-7.9 7.8-13 15.3-16.5 5.9-2.7 7.2-2.9 18.3-2.9 10.8 0 12.5.3 17.5 2.6 7 3.3 11.6 7.9 14.9 14.9 2.5 5.4 2.6 6.1 3.1 32l.5 26.5 10.2.3 10.2.3.3-26.8c.3-26.5.3-26.9 2.9-32.3 3.4-7 8-11.6 14.9-14.9 5-2.3 6.7-2.6 17.5-2.6 11.6 0 12.3.1 18.7 3.3 7.8 3.8 11.9 8.3 15 16.2 1.9 5 2.2 8 2.6 31.2l.4 25.8h19.8v-22.3c-.1-33.7-2.5-43.1-14.4-55.2-10.8-11-20.8-14.5-41.8-14.5-20.3 0-31.3 3.6-41.1 13.6l-5.1 5.2-5.2-5.2c-5.8-5.8-13.1-9.8-21.9-12.1-8.5-2.2-32-2-40 .4m196.5 5.6v7.5h20v-15h-20zm84.3-6c-8.3 2.3-14.2 5.5-20.3 11.2-13.6 12.5-16 20.6-16.3 54.8l-.2 24 10.2.3 10.1.3.4-26.8c.4-30.3.7-31.9 8.7-40.6 5.9-6.4 12.3-8.9 24.2-9.5 21.7-1.1 34.8 8.2 37.8 26.8.6 3.6 1.1 16.3 1.1 28.2v21.8h20.2l-.4-26.3c-.4-23.1-.7-26.9-2.5-32.4-5.3-16.1-17.5-27.5-34-31.7-7.8-2-31.5-2.1-39-.1m102.7 6v7.5h21v-15h-21zm-187 54v30.5h20v-61h-20zm187 0v30.5h21l-.2-30.3-.3-30.2-10.2-.3-10.3-.3z" style="fill:#fff" transform="scale(.43952 .44167)"/></svg>