<svg xmlns="http://www.w3.org/2000/svg" viewBox="0 0 3839 639.2"><path d="M0 443.2v191c0 2.6 2.2 4.7 4.5 4.7h122.8c2.4 0 4.5-2.1 4.5-4.7v-191c0-55.6 29.3-94.3 70.4-94.3h324c103.3 0 167.3-66.3 167.3-174C693.5 67.4 629.5.2 526.2.2H4.7C2.2.2 0 2.2 0 4.9v69.6c0 2.6 2.2 4.8 4.7 4.8h480.8c47.1 0 74.3 34.6 74.3 95.4 0 60.7-27.3 95.8-74.3 95.8H140.9C61.3 270.5 0 344.5 0 443.2M1138.3 79.3h245.5c2.7 0 5-2.2 5-4.8V4.9a5 5 0 0 0-5-4.9l-285.9.2C994.5.2 930.6 67 930.6 174.7v289.6c0 60.8-26.4 95.5-74.1 95.5h-252c-2.6 0-4.7 2.4-4.7 5v69.4c0 2.6 2.1 4.7 4.7 4.7h293.2c102.5 0 166.4-66.9 166.4-174.3V174.7c.1-60.9 27.4-95.4 74.2-95.4m1183.3 554.9c0 2.6 2.2 4.7 4.7 4.7h124.3c2.5 0 4.5-2.1 4.5-4.7V5.2c0-3-2-4.8-4.5-4.8h-124.3c-2.5 0-4.7 1.9-4.7 4.8zm-388.2-65.6 299.9-563c1.5-2.8 0-5.6-2.6-5.6H2154c-2.6 0-5.5 2-6.8 4.3l-242.5 450.9c-17.5 33.5-47.5 37.4-65.7 4l-243.9-455c-1-2.4-4.4-4.3-7-4.3h-136c-3.3 0-4.4 3-2.8 6l300.2 562.6c17.5 32.3 38.3 53.4 60.6 63.2 35.5 16.6 74.3 4.4 105.3-35.7 6.4-8.1 12.3-17.1 18-27.4M3167 .4h-620.2c-2.9 0-4.7 1.9-4.7 4.8v68.7c0 2.4 1.9 4.6 4.7 4.6h236c4.5 0 8.5 3.7 8.5 8.5v547.1c0 2.6 2.1 4.7 4.7 4.7h121.7c2.9 0 5-2.1 5-4.7v-547c0-4.8 3.7-8.5 8.5-8.5H3167c2.7 0 4.9-2.2 4.9-4.6V5.2c0-3-2.2-4.8-4.9-4.8m671.3 633L3538.5 70.7c-17.2-32.5-38.6-53.4-60.6-63.8-35.8-16.1-74.1-4-105.5 36-6.5 7.9-12.4 17.4-17.7 27.8L3052 633.8c-1.4 2.7 0 5.3 3.2 5.3h79c2.4 0 5.6-1.8 6.9-4.1l64.6-120.5.1-.3c2.1-4.1 7.7-7.5 12.3-7.5h395c4.4 0 9.5 3.2 12.2 7.1l.2.6 64.7 120.6c.9 2.3 4.2 4.1 6.7 4.1h138.5c3.5.1 4.4-2.9 2.9-5.7m-268.2-205h-308.7c-5.4 0-7.5-3.7-5.2-8.2h.1l126.6-236.4c18-33 47.6-37.2 65.8-4.1l127 241.4c1.7 4-.4 7.3-5.6 7.3" class="st0" style="fill:#fff"/></svg>