<svg xmlns="http://www.w3.org/2000/svg" viewBox="0 0 264 54"><path d="M79.67 13.82V41.3h4.84V16.77h2.98c2.14 0 3.11.05 3.48.2.72.3 1.46 1.21 1.76 2.17a13 13 0 0 1 .34 2.78c.1 2.46-.2 4-.95 4.98-.8 1.04-1.27 1.2-3.5 1.2H86.7v2.99l3.01-.06 3.01-.06 1.06-.5a7.4 7.4 0 0 0 3.93-5.18c.32-1.34.32-4.34 0-5.78A9 9 0 0 0 96 15.9a7 7 0 0 0-1.3-1.12c-1.4-.9-1.95-.95-8.83-.95zm21.41 0V41.3h4.85V13.82zm60.79 0c-2.18 0-4.4.07-4.97.16-1.26.2-2.73.86-3.56 1.61a7 7 0 0 0-1.95 3.08 9 9 0 0 0-.33 2.83c-.01 1.96.16 2.8.83 4.12.45.86 1.62 2.1 2.43 2.56.93.54 2.13.82 4.2.99 1.56.13 1.93.2 2.44.54q.6.4 1.05 1.3c.42.84.44 1.02.44 2.84s-.03 2-.43 2.75c-.28.52-.67.98-1.08 1.25l-.65.43-4.12.04-4.11.05v2.93h4.68c2.84 0 5-.07 5.5-.17a6 6 0 0 0 4.3-3.32c.64-1.41.87-2.87.79-5.05-.1-2.3-.44-3.55-1.36-4.93-1.15-1.7-2.44-2.3-5.7-2.59a16 16 0 0 1-2.75-.43 3 3 0 0 1-1.58-1.79 10 10 0 0 1 0-3.99 3.2 3.2 0 0 1 2-2.07q.64-.2 4.25-.2h3.62v-2.94zm55.7 0v4.03h4.84v-4.03h-4.85m-46.61 3.1.05 9.9c.04 9.75.05 9.92.38 10.8.2.5.6 1.23.9 1.65a5 5 0 0 0 2.45 1.78c.5.17 1.33.24 2.92.24l2.22.01v-2.95h-1.45c-1.39 0-1.48-.02-1.87-.42a3 3 0 0 1-.58-1.2c-.1-.5-.15-3.07-.12-7.07l.04-6.3 2.62-.04 2.62-.04v-2.94h-5.32v-3.41h-4.86m33.47 0v9.78c0 9.46.01 9.81.32 10.76a6 6 0 0 0 1.95 2.85c.31.23.93.56 1.38.7.62.22 1.31.28 2.96.29h2.15v-2.95h-1.4c-1.15 0-1.44-.05-1.78-.31a2 2 0 0 1-.57-.9c-.1-.35-.16-3.14-.16-7.21V23.3h5.32l-.04-1.44-.05-1.44-2.61-.04-2.62-.04v-3.4h-4.85m-4.27 3.38-5.18.08c-5.56.09-6.14.15-7.77.98-1.83.92-3.1 2.7-3.68 5.15-.24 1.02-.28 1.9-.28 5.79 0 4.4.01 4.61.35 5.46.7 1.7 1.73 2.75 3.21 3.26.66.22 1.34.27 3.59.28h2.78v-2.95h-1.95c-1.84 0-1.97-.02-2.4-.39a2 2 0 0 1-.64-1.07c-.22-.86-.23-7.62-.01-9.25.3-2.33.83-3.42 1.93-4 .38-.2 1.03-.28 2.87-.32l2.39-.07V41.3h5v-5.8c0-3.19-.05-7.91-.1-10.5zm-73.43 0-5.2.08c-5.65.09-6.46.19-8 1.01-1.8.95-3.08 2.84-3.62 5.31-.34 1.58-.5 8.03-.24 9.58a7 7 0 0 0 1.64 3.5 6 6 0 0 0 2.28 1.38c.22.06 1.68.12 3.25.13l2.85.01v-2.95h-2c-2.25 0-2.55-.1-2.97-1.07-.2-.42-.27-1.27-.32-3.54-.07-3.23.16-6.73.51-7.89.32-1.04.9-1.85 1.6-2.18.5-.25.97-.3 2.94-.3h2.35l.04 8.97.04 8.96h4.85zm5.21.04c-1.4 0-2.55.02-2.55.04l3.57 10.42 3.57 10.38-2.01 5.15c-1.1 2.83-2 5.16-2 5.19 0 .02.95.02 2.12 0l2.13-.04L143 35.95l6.24-15.57c0-.02-1.02-.04-2.26-.04-1.63 0-2.29.05-2.38.2-.06.1-1.26 3.12-2.65 6.7-1.4 3.59-2.6 6.54-2.68 6.57s-1.19-3-2.46-6.71l-2.3-6.76zm85.63 0V41.3h4.84V20.34h-4.85m29.31.07-.04 10.45-.04 10.44h5V23.25l2.39.07c2.53.06 2.95.17 3.66.92.56.6.96 1.68 1.14 3.08.09.73.16 4.11.16 7.65v6.33H264v-6.17c0-6.55-.12-8.1-.76-9.88-.86-2.41-2.45-3.84-5.04-4.54-.85-.23-1.77-.27-6.16-.28zm-12.25.05c-1.37 0-2.73.17-3.71.5-1.3.45-2.12.97-2.94 1.88a9 9 0 0 0-1.92 3.94c-.23 1-.28 1.84-.27 4.27.01 2.56.06 3.22.34 4.23a8 8 0 0 0 2.02 3.82 8 8 0 0 0 3.82 1.98c.7.15 1.65.2 3.1.16 2.53-.07 3.73-.39 5.2-1.39a7 7 0 0 0 2.69-3.82c.75-2.37.89-6.28.3-9.17a9.5 9.5 0 0 0-1.72-3.85 7 7 0 0 0-3.15-2.05c-1.02-.33-2.4-.5-3.76-.5m.06 2.9c.7 0 1.42.13 1.97.4.73.38 1.19 1.01 1.59 2.22.26.8.32 1.51.38 4.12.08 3.41-.07 5.02-.6 6.23a3.4 3.4 0 0 1-1.66 1.8c-.28.13-1.04.22-1.73.22-1 0-1.37-.07-1.92-.36a3 3 0 0 1-1.13-1.05c-.7-1.13-.94-2.62-.94-5.96-.01-3.19.15-4.47.74-5.77.2-.44.6-.97.9-1.2a4 4 0 0 1 2.4-.66M38.6 11.23 38.57 54l-11.54-3.73V0l14.73 3.87c9.43 2.51 15.2 7.4 15.1 15.98-.1 9.97-4.74 13.98-13.79 11.37V11.56c0-2.38-4.45-2.52-4.45-.33" style="fill-opacity:1;fill:#fff"/><path d="M65.48 44.64 54.6 41.28l3-1.02c6.05-1.91 3.52-3.96-2.77-2.8l-6 2-10.27-3.16.94-.33c5.72-1.96 11.58-3.26 17.54-2.84 8.3.6 13.7 2.42 14.44 5.77.47 2-1.4 4.15-5.81 5.69zM27.02 29.82v2.94l-4.54-1.4zM48.74 50.5l-10.18-3.22v-.56l16.04-5.45 10.88 3.35zM27.02 40.2v3.45l-5.3-1.68zm11.54-3.91 10.27 3.16-10.27 3.5zm-22.93 3.77-9.9-3.12c.1 0 .19-.05.23-.05l16.51-5.54 4.55 1.4v3.26zm6.1 1.9 5.3 1.69v3.21A28.4 28.4 0 0 1 12.9 48C7.37 47.1.2 46.36 0 43.24c-.19-3.08 2.67-5.27 5.72-6.3l9.9 3.13L13 41c-3.24 1.17-.23 4 3.28 2.8zM38.64 54l-.1-.23v-6.48l10.19 3.22z" style="fill-opacity:1;fill:#fff"/></svg>