<svg xmlns="http://www.w3.org/2000/svg" xml:space="preserve" id="Layer_1" x="0" y="0" viewBox="0 0 3840 1547.4"><style id="style740" type="text/css">.st0{fill:#2a4e78}</style><g id="g774" style="fill:#fff;fill-opacity:1"><g id="g772" style="fill:#fff;fill-opacity:1"><g id="g752" style="fill:#fff;fill-opacity:1"><path id="path742" d="M817.2 720.7c39.3 0 74.2 15.2 104.6 45.6s45.6 62.4 45.6 95.9c0 79.1-44.1 137.8-132.4 176-88.3 38.3-184.3 57.4-288 57.4-148.8 0-277.2-54-385.1-161.9C54 825.7 0 697.4 0 548.6q0-223.95 163.5-385.5C272.5 55.4 400.3 1.6 547 1.6c107.4 0 204.3 18.9 290.8 56.6S967.4 154.8 967.4 235c0 29.9-14.4 60.6-43.3 92.3s-64.5 47.5-107 47.5c-26.8 0-59.8-8.9-99.2-26.7-57.7-26.2-114.9-39.3-171.5-39.3-65 0-122.4 24.1-171.9 72.3-49.6 48.2-74.3 104-74.3 167.4 0 62.4 24.6 117.9 74 166.6 49.3 48.7 106.7 73.1 172.3 73.1 56.1 0 113.3-13.4 171.5-40.1 39.9-18.3 72.9-27.4 99.2-27.4" class="st0" style="fill:#fff;fill-opacity:1;stroke-width:1.11111" transform="matrix(.9 0 0 .9 203.1 133.29)"/><path id="path744" d="m1164.6 928.1-34.1 67.6c-32 62.4-78.1 93.5-138.4 93.5-42.4 0-78.6-16-108.5-47.9s-44.8-67.3-44.8-106.1c0-20.9 3.1-38.2 9.4-51.9l356.8-766c15.2-33.1 36.6-59.1 64.1-78s56.4-28.4 86.8-28.4c30.9 0 60.2 9.6 87.7 28.6 27.5 19.1 48.9 44.9 64.1 77.3l353.5 766.4q10.2 22.8 10.2 51.9 0 58.95-44.1 106.5c-29.4 31.7-65.3 47.5-107.7 47.5-59.8 0-105.9-31.2-138.4-93.5l-35.9-67.6h-380.7zm261.3-289.2-70.4-153.2-70.2 153.2z" class="st0" style="fill:#fff;fill-opacity:1;stroke-width:1.11111" transform="matrix(.9 0 0 .9 203.1 133.29)"/><path id="path746" d="M2104.3 323c0 12.1 4 20 12.2 24 8.1 3.9 30.5 8.9 67.2 14.9s71.7 15.6 105.3 28.7c33.5 13.1 68.2 37.3 104.1 72.7s62.7 76.1 80.5 122.2 26.7 97.2 26.7 153.2c0 89.1-36.3 170.5-108.8 244.4S2235 1094 2139.6 1094c-102.2 0-188.6-26.8-259.3-80.6-70.7-53.7-106.1-118-106.1-192.9 0-38.2 14.9-71.6 44.8-100.2 29.9-28.5 65.7-42.8 107.7-42.8 22 0 42.6 3.9 61.7 11.8s42.6 27.1 70.4 57.8 53.2 46 76.2 46c45 0 67.6-26.2 67.6-78.6 0-35.1-39.8-58.7-119.5-70.7-83.3-12.1-150-47.9-200-107.7q-75-89.55-75-220.8c0-82.8 30.8-155.7 92.3-218.9 61.6-63.1 142.9-94.7 244-94.7 90.6 0 157.3 14.3 200 42.8 42.7 28.6 64 73.2 64 134 0 30.9-14.7 61.2-44 90.8-29.4 29.6-64.2 44.4-104.5 44.4-13.6 0-33.4-3.8-59.3-11.4s-47.8-11.4-65.6-11.4c-6.3 0-13 3.4-20 10.2-7.2 6.7-10.7 14-10.7 21.9" class="st0" style="fill:#fff;fill-opacity:1;stroke-width:1.11111" transform="matrix(.9 0 0 .9 203.1 133.29)"/><path id="path748" d="M2789 918.7c0 49.8-14.1 89.9-42.4 120.2-28.3 30.4-64.5 45.6-108.5 45.6-43.5 0-79.2-15.2-107.3-45.6-28-30.4-42-70.5-42-120.2V178.4c0-49.8 14.1-90.1 42.4-121S2595.1 11 2638.1 11c42.9 0 78.9 15.5 107.7 46.4s43.2 71.3 43.2 121z" class="st0" style="fill:#fff;fill-opacity:1;stroke-width:1.11111" transform="matrix(.9 0 0 .9 203.1 133.29)"/><path id="path750" d="M3292.6 0c150.8 0 279.7 54.9 386.8 164.6 107 109.8 160.6 237.7 160.6 383.9q0 219.3-160.2 383.1c-106.8 109.2-235.8 163.9-387.2 163.9-150.8 0-279.6-54.6-386.4-163.9S2746 694.7 2746 548.6c0-146.2 53.4-274.1 160.2-383.9Q3066.4 0 3292.6 0m0 794.5c68.7 0 127.1-24.4 175.1-73.1s72-106.4 72-172.9c0-63.9-24.3-121.2-72.8-171.7-48.5-50.6-106.7-75.8-174.4-75.8-64.5 0-121.7 25.2-171.6 75.4-49.8 50.3-74.8 107.7-74.8 172.1q0 99 72 172.5c48.2 49.1 106.3 73.5 174.5 73.5" class="st0" style="fill:#fff;fill-opacity:1;stroke-width:1.11111" transform="matrix(.9 0 0 .9 203.1 133.29)"/></g><g id="g762" style="fill:#fff;fill-opacity:1"><path id="path754" d="M1862.7 1484.9c0 18.8-5.3 33.9-16 45.4-10.6 11.5-24.2 17.2-40.5 17.2s-29.9-5.7-40.7-17.2c-10.7-11.5-16.1-26.6-16.1-45.4v-184.8c-16.6 4.6-26.3 6.8-29.1 6.8-11.9 0-23.4-5.2-34.7-15.7s-16.9-22.6-16.9-36.5q0-35.25 20.4-48.6l85-54.6c9.1-6.1 18.6-9.2 28.4-9.2 18 0 32.5 5.6 43.5 16.9 11.1 11.3 16.6 23.2 16.6 35.9v289.8z" class="st0" style="fill:#fff;fill-opacity:1;stroke-width:1.11111" transform="matrix(.9 0 0 .9 203.1 133.29)"/><path id="path756" d="M2038.3 1142.3c57.3 0 106.1 20.4 146.2 61.1s60.2 88 60.2 141.8c0 53.6-20.1 100.7-60.2 141.3-40.2 40.6-88.9 60.9-146.2 60.9s-106.1-20.3-146.2-60.9-60.2-87.7-60.2-141.3c0-53.8 20-101 60.1-141.8 40-40.7 88.8-61.1 146.3-61.1m0 293.3c25.2 0 47-8.9 65.5-26.7 18.4-17.8 27.7-39 27.7-63.8 0-25.3-9.2-46.8-27.5-64.5s-40.2-26.5-65.6-26.5c-26.8 0-49 9-66.6 27.1-17.7 18.1-26.5 39.4-26.5 63.9 0 24.9 9.1 46.2 27.4 63.9 18.1 17.8 40 26.6 65.6 26.6" class="st0" style="fill:#fff;fill-opacity:1;stroke-width:1.11111" transform="matrix(.9 0 0 .9 203.1 133.29)"/><path id="path758" d="M2410.6 1142.3c57.3 0 106.1 20.4 146.2 61.1s60.2 88 60.2 141.8c0 53.6-20.1 100.7-60.2 141.3-40.2 40.6-88.9 60.9-146.2 60.9s-106.1-20.3-146.2-60.9-60.2-87.7-60.2-141.3c0-53.8 20-101 60.1-141.8 40-40.7 88.8-61.1 146.3-61.1m0 293.3c25.2 0 47-8.9 65.5-26.7 18.4-17.8 27.7-39 27.7-63.8 0-25.3-9.2-46.8-27.5-64.5s-40.2-26.5-65.6-26.5c-26.8 0-49 9-66.6 27.1-17.7 18.1-26.5 39.4-26.5 63.9 0 24.9 9.1 46.2 27.4 63.9 18.1 17.8 40 26.6 65.6 26.6" class="st0" style="fill:#fff;fill-opacity:1;stroke-width:1.11111" transform="matrix(.9 0 0 .9 203.1 133.29)"/><path id="path760" d="M2782.9 1142.3c57.3 0 106.1 20.4 146.2 61.1s60.2 88 60.2 141.8c0 53.6-20.1 100.7-60.2 141.3-40.2 40.6-88.9 60.9-146.2 60.9s-106.1-20.3-146.2-60.9-60.2-87.7-60.2-141.3c0-53.8 20-101 60.1-141.8 40-40.7 88.7-61.1 146.3-61.1m0 293.3c25.2 0 47-8.9 65.5-26.7 18.4-17.8 27.7-39 27.7-63.8 0-25.3-9.2-46.8-27.5-64.5s-40.2-26.5-65.6-26.5c-26.8 0-49 9-66.6 27.1-17.7 18.1-26.5 39.4-26.5 63.9 0 24.9 9.1 46.2 27.4 63.9 18.1 17.8 40 26.6 65.6 26.6" class="st0" style="fill:#fff;fill-opacity:1;stroke-width:1.11111" transform="matrix(.9 0 0 .9 203.1 133.29)"/></g><g id="g768" style="fill:#fff;fill-opacity:1"><path id="path764" d="M948.6 1389.7v95.2c0 18.8-5.3 33.9-16 45.4s-24.3 17.2-40.9 17.2c-16.4 0-29.9-5.7-40.5-17.2s-15.9-26.6-15.9-45.4V1194c0-13.8 5.8-25.9 17.3-36.2 11.6-10.3 25.8-15.4 42.6-15.4h91.1c37.2 0 67.4 12 90.8 35.9 23.3 23.9 35 53.5 35 88.7 0 29.5-11.2 57.3-33.7 83.5-22.4 26.2-47.1 39.3-74 39.3h-55.8zm0-105.3h39.5c4.9 0 9-1.9 12.2-5.6 3.1-3.8 4.7-7.9 4.7-12.5 0-4.5-1.6-8.7-4.7-12.6-3.2-3.9-7.2-5.8-12.2-5.8h-39.5z" class="st0" style="fill:#fff;fill-opacity:1;stroke-width:1.11111" transform="matrix(.9 0 0 .9 203.1 133.29)"/><path id="path766" d="m1277.5 1368.3 84.3-192.3q6.6-14.25 19.8-24c8.9-6.4 17.7-9.7 26.3-9.7 19.7 0 35.2 5.4 46.6 16.2s17 24.2 17 40.2c0 7.7-1.3 14.2-3.9 19.6L1333.2 1508q-8.55 18.75-24 29.1c-10.2 6.9-21.3 10.4-33.1 10.4-10.8 0-21.4-3.6-31.8-10.7-10.3-7.1-18.3-16.7-23.8-28.8l-134.6-289.7a54 54 0 0 1-3.5-19.6c0-14.2 5.1-27.2 15.4-38.9s23.2-17.5 38.6-17.5c27.5 0 46.2 11.2 56.1 33.5z" class="st0" style="fill:#fff;fill-opacity:1;stroke-width:1.11111" transform="matrix(.9 0 0 .9 203.1 133.29)"/></g><path id="path770" d="M1444.1 1352.4c0-30.9 25-55.9 55.9-55.9h96c30.9 0 55.9 25 55.9 55.9s-25 55.9-55.9 55.9h-96c-30.9 0-55.9-25-55.9-55.9" class="st0" style="fill:#fff;fill-opacity:1;stroke-width:1.11111" transform="matrix(.9 0 0 .9 203.1 133.29)"/></g></g></svg>