<svg xmlns="http://www.w3.org/2000/svg" style="fill-rule:evenodd;clip-rule:evenodd;stroke-linecap:round;stroke-linejoin:round;stroke-miterlimit:1.5" viewBox="0 0 1309.3 266.5"><path d="M2.7 87.95C.3 85.95-.7 83.5.55 66.02c.4-5.46 1.27-12.12 2.64-17.5C11.8 14.8 46.97-.51 108.01 2.93c64 3.59 94.77 20.43 101.57 49.35 1.29 5.5.94 10.09.95 15.61 0 1.08-.35 5.1-.33 11.92.01 3.6.1 8.28.14 8.77-.98.27-6.7 4.13-8.11 3.83-1.42-.3-4.33-1.93-6.47-3.63-7.27-5.78-18.86-2.34-25.87 7.67-7.81 11.16-14.74 8.58-17.8-6.63-.57-2.84-8.26-5.86-8.26-7.7 0-6.58-8.73-13.64-11.14-14.86a50 50 0 0 0-26.03-4.98C91.78 63.58 75.8 74.25 75.8 98.43c0 6.4-9-8.22-8.25-10.33.93-2.6-2.79-1.1-6.4 2.6-4.91 5-16.14 12.33-17.87 11.67-2.94-1.12-.35-9.48 4.35-14.05 4.58-4.44 3.34-6.87-1.9-3.7a68 68 0 0 1-9.56 4.26c-4.5 1.62-7.06 3.26-9.14 5.88-5.68 7.17-22.95 3.9-22.95-4.34 0-.73-.62-1.85-1.38-2.48m83.08 172.78c-9.81 5.76-25.9 6.51-41.9 5.35-7.49-.54-23.55-4.64-25.82-10.26-3.61-8.84-9.4-35.32-12.6-60.89-1.34-9.9-.25-11.28 1.9-14.1 4.68-5.88 15.12-14.05 18.06-14.05 1.74 0 4.95 1.74 7.36 4.02 6.42 5.89 9.64 6.15 17 1.87 3.48-2 6.55-4.41 6.95-5.35.4-1.07 1.48-1.87 2.41-1.87.8 0 2.68-1.21 4.02-2.68 3.21-3.62 9.5-3.48 11.38.13.93 1.47 1.33 5.22 1.07 8.3l-.4 5.62 6.55-.13c4.82 0 6.96-.67 8.7-2.81 2.4-3.08 6.96-5.76 10.04-5.76 1.07 0 2.67 2.14 3.61 4.69 2 5.48 3.48 5.35 12.58-.8 8.83-5.9 14.46-4.7 15.93 3.47.93 4.55 1.07 4.69 7.5 4.69 6.01 0 7.08-.54 12.7-5.9 5.9-5.75 10.85-8.56 12.32-6.95.4.4 1.07 2.68 1.6 5.08.67 3.08 1.74 4.55 4.15 5.09l3.6 1.2s-2.01 1.38-4.43 2.47c-3.68 1.66-8.39 3.3-8.94 3.56-7.63 3.48-22.75 5.75-40.55 6.02-22.75.4-29.57 2.97-34.66 8.03-.39 2.45 1.47 11.5 4.15 22.35 2.68 10.97 4.82 22.21 4.95 24.89.27 5.62-3.21 11.24-9.23 14.72m-43.58 4.71c-11.37-1.47-19.67-4.15-22.61-7.5-4.82-5.48-12.85-44.7-15.53-76.28-.53-5.08-1.07-9.63-1.34-10.03-1.34-2.14-2.67-39.21-2.67-71.6 0-37.74-2.48-64.74 28.88-84.69C41.66 7.24 71.27.05 116.42 3.7c48.54 3.9 70.58 15.9 79.29 24.88 8.02 8.3 9.6 10.76 13.86 23.71 1.63 4.93.47 25.64.72 35.08.22 8.35.9 16.68 0 24.98-1.05 9.7-2.4 18.07-7.1 33.2-2.27 7.22-11.9 19.8-21 27.03-3.08 2.4-6.16 4.95-6.96 5.62-3.35 2.67-14.59 7.09-24.36 9.5-6.69 1.6-21.87 3.06-31.76 3.16-9.51.1-21.94 1.12-27.24 3.1-2.39.88-4.2 1.88-5.86 4.57-.5.81.38 5.52.78 7.39 1.2 5.67 1.7 8.75 2.77 13.07 2.03 8.16 7.12 27.79 4.18 33.56-5.3 10.4-18.62 12.9-29.72 13.44-7.23.26-17 0-21.82-.54m77.22-136.77c15.26-5.62 24.5-21.01 24.5-40.68 0-8.97-.28-9.9-4.7-15-5.61-6.55-12.97-9.76-24.88-10.7-22.62-1.87-37.08 10.84-38.41 34-.54 8.56-.14 10.43 2.94 15.65 8.43 14.45 26.63 21.95 40.55 16.73" style="fill-rule:nonzero;fill:#fff"/><path d="M210.9 90.41q-.12-1.08-.18-2.23c-.82-15.66.05-39.77.05-40.9 0-4.7 3.75-15.26 7.76-21.55 3.75-6.16 17.8-16.06 25.97-18.47 2.67-.8 19.27-3.35 25.16-.67 7.5 3.34 11.5 7.1 14.98 13.78 3.22 6.3 2.68 11.78-3.07 30.25-2.14 6.96-3.88 13.65-3.88 14.85 0 3.35 6.29 10.3 11.9 13.12 13.8 6.96 40.16 6.15 52.47-1.47 6.56-3.89 10.57-9.37 10.57-13.92 0-1.34-2.14-6.83-4.68-12.18-6.16-12.31-7.23-20.88-3.48-26.77 5.88-9.36 27.97-22.61 40.01-24.09 12.85-1.47 24.76 6.96 35.87 25.7 6.02 9.9 15.31 31.05 15.31 37.34.07 2.24 1.76 32.6 1.76 32.6s-8.64 7.49-10.98 8.59c-4.01 1.9-6.11-.44-7.7-5.2-2.4-7.35-5.62-10.16-12.58-10.97-5.08-.53-6.29-.13-9.77 3.22-4.95 4.81-10.57 8.43-13.25 8.43-3.74 0-7.5-5.62-7.5-10.98 0-2.8-.66-5.08-1.46-5.08-.67 0-4.15 2.14-7.5 4.68-7.09 5.49-9.1 5.76-13.25 1.88l-3.07-2.81-5.62 6.15c-6.56 7.23-12.72 8.43-16.47 3.21a67 67 0 0 0-5.21-6.82c-3.22-3.75-3.22-3.75-8.3-1.74-2.81 1.2-6.02 3.34-6.96 4.95-1.6 2.27-3.21 2.54-10.7 2.27-6.97-.26-8.97.14-9.91 2.01-2.28 3.88-5.35 2.55-14.19-5.89-9.77-9.36-11.64-9.5-19.13-1.2-4.69 5.08-11.65 9.37-15.13 9.37-.93 0-3.61-2.01-6.02-4.29-6.29-6.69-12.58-9.63-18.2-8.56-2.38.45-3.8 1.34-3.8 1.34s.17 1.67.18 2.05m7.04 82.95c.07-.12 7.95-5.48 11.7-4.57 1.88.4 6.3 3.61 9.77 6.96 5.76 5.75 6.43 6.02 10.3 4.68 2.28-.8 6.97-3.61 10.31-6.15 7.63-5.9 11.1-6.03 14.99-.8 1.74 2.27 3.75 4 4.55 4 .94 0 3.88 1.62 6.7 3.49 6.82 4.82 14.31 6.02 27.16 4.41 17.66-2.14 19.27-2.54 22.62-5.62 1.87-1.6 5.22-4.41 7.5-6.29 2.4-1.87 6.68-5.35 9.63-7.62 7.9-6.56 15.79-5.62 15.79 1.74 0 1.6.53 3.2 1.34 3.47.66.27 1.47 1.74 1.74 3.35.8 5.35 3.6 7.23 10.17 6.96 7.36-.4 9.5-1.47 18.06-8.97 10.58-9.23 15.66-8.83 17.8 1.47.8 4.02 4.95 7.63 8.84 7.63 1.06 0 2.34.74 2.9 1.65 1.53-.62 3 .68 2.92.97-2.54 10.4-5.83 20.29-9.57 28.43-7.36 16.33-8.3 17.67-17.13 25.96-21.01 19.4-44.3 27.57-78.56 27.57-43.23 0-80.16-13.65-102.91-37.87-10.58-11.38-14.32-20.61-13.39-33.46.5-7.27 3.05-14.83 6.77-21.4m-3.91-70.97c-.22-.37-2.87-5.9-3.3-14.2-.83-15.67.04-39.78.04-40.92 0-4.68 3.75-15.25 7.76-21.54 3.75-6.16 17.8-16.06 25.97-18.47 2.67-.8 19.27-3.35 25.16-.67 7.5 3.34 11.5 7.1 14.98 13.78 3.22 6.3 2.68 11.78-3.07 30.25-2.14 6.96-3.88 13.65-3.88 14.85 0 3.35 6.29 10.3 11.9 13.12 13.8 6.96 40.16 6.16 52.47-1.47 6.56-3.89 10.57-9.37 10.57-13.92 0-1.34-2.14-6.83-4.68-12.18-6.16-12.31-7.23-20.88-3.48-26.77 5.89-9.36 27.97-22.61 40.01-24.08 12.85-1.48 24.76 6.95 35.87 25.69 6.02 9.9 15.31 31.05 15.31 37.34.14 4.68 4.39 76.97 3.85 76.97-.4 0-1.23 5.07-1.63 11.22-1.34 20.75-7.1 44.57-14.72 61.16-7.36 16.33-8.3 17.67-17.13 25.96-21.01 19.4-44.3 27.57-78.56 27.57-43.23 0-80.16-13.65-102.91-37.87-10.58-11.38-14.32-20.61-13.39-33.46 1.2-17.4 14.06-36.4 26.9-39.61 9.1-2.28 25.56.67 34.26 6.16 3.88 2.4 9.24 8.43 9.37 10.43 0 3.08 8.43 11.25 12.98 12.85 12.45 4.02 39.88-3.75 50.72-14.32 10.98-10.84 12.05-18.07 3.62-22.35-7.63-3.88-14.19-3.75-34.13.54-22.08 4.68-34.26 5.22-50.45 2-22.89-4.41-33.46-12.44-43.63-33.32-3.35-6.82-6.62-14.47-6.78-14.74" style="fill-rule:nonzero;fill:#fff"/><path d="M439.53 140.18c-.4 0-3.39-44.86-3.39-44.86l-.53-15.4c-.8-19.26.53-29.3 5.08-35.86 1.87-2.8 4.95-8.03 6.83-11.78 4.15-8.3 10.17-14.72 17.13-18.46 8.3-4.42 32.52-4.02 58.88 1.07 11.1 2.14 22.75 3.88 26.1 3.88 5.62.13 6.02-.14 6.02-3.48 0-5.35 3.35-7.76 12.85-9.1 9.9-1.47 21 .4 25.16 4.15 4.01 3.88 10.44 27.83 14.05 53.4 9.37 66.5 5.62 145.6-8.03 172.9-6.56 12.85-25.83 24.1-47.38 27.44-18.46 2.8-54.6 1.74-68.25-2.28-18.74-5.35-30.78-14.85-38.14-29.98-6.29-13.11-8.3-26.5-6.29-41.62 2-15.65 4.42-20.34 11.5-22.21 7.9-2.28 17.94-2.81 24.9-1.34 3.35.8 8.83 1.74 12.31 2.14 4.82.67 7.63 2 11.25 5.49 4.81 4.55 4.95 4.68 4.14 12.71-1.07 8.97.8 14.99 5.9 19.8 3.74 3.49 10.43 3.62 21 .68 15-4.29 23.02-10.04 27.3-19.4 3.35-7.64 5.63-27.18 4.42-38.28l-1.07-9.1-1.6 4.55c-1.88 5.62-6.43 9.23-13.52 10.84-10.04 2.27-45.64 4.28-67.45 3.74-27.03-.53-30.51-1.74-35.87-12.71-1.87-3.88-2.76-6.93-3.3-6.93m93.9-32.95c15.93-8.17 17.94-39.88 3.35-51.4-7.1-5.61-30.78-2.94-36.67 4.16-3.61 4.41-6.56 13.65-7.5 23.82-1.33 13.92 3.49 21.14 16.87 25.56 4.82 1.6 19.27.4 23.95-2.14m25.55 80.08c1.21-2.36 2.4-3.13 4.57-3.13 2.54 0 5.62-2.68 12.84-11.24 5.22-6.16 10.44-11.64 11.51-12.05 5.09-2 7.1-.8 8.7 4.96 2.27 8.7 6.16 14.32 10.04 14.32q.52 0 .94.03c2.51-2.11 3.96-2.02 3.52 2.95-2.08 23.37-5.96 42.57-11.42 53.5-6.56 12.84-25.83 24.08-47.38 27.43-7.46 1.13-17.82 1.63-28.4 1.56-1.51.06-2.78.08-3.72.04l-2.2-.13c-13.62-.37-26.82-1.66-33.93-3.75-18.74-5.35-30.78-14.85-38.14-29.98-6.29-13.11-8.3-26.5-6.29-41.62q.36-2.77.74-5.12c.17-1.03 4.13-1.02 4.94-1.53a51 51 0 0 0 6.77-5.12c9.77-9.24 14.05-11.92 18.73-11.38 4.42.4 5.9 2 7.1 8.03.93 4.42 6.29 6.42 17.53 6.42l8.66.14s0 1-.08 2.15c-.08 1.25-.23 2.68-.29 3.2-1.07 8.97.8 14.99 5.9 19.8 3.74 3.49 10.43 3.62 21 .68 15-4.29 23.02-10.04 27.3-19.4q.34-.75 1.06-.75m-12.67-101.6s2.49-20.94-9.45-29.72c-9.79-7.35-33.52-.48-36.8 3.94-6.47 8.7-7.1 24.66-7.57 25.38 0 0-9.03 6.67-11.98 12.42-4.55 9.1-11.22 9.36-13.5.13-.4-1.74-3.57-4.01-6.25-5.22-2.4-1.07-5.01-3.94-5.95-5.14-2.54-3.08-4.62-1.55-11.98 4.47l-6.49 4.6-.2-1.25-.53-15.4c-.8-19.26.53-29.3 5.08-35.86 1.87-2.8 4.95-8.03 6.82-11.78 4.16-8.3 10.18-14.72 17.14-18.46 8.3-4.42 32.52-4.02 58.88 1.07 11.1 2.14 22.75 3.88 26.1 3.88 5.62.13 6.02-.14 6.02-3.48 0-5.35 3.35-7.76 12.85-9.1 9.9-1.47 21 .4 25.16 4.15 4.01 3.88 10.44 27.83 14.05 53.4a525 525 0 0 1 3.9 38.31c-.37-4.24-.85-6.72-1.44-6.63-5.88.67-10.22.03-13.7-3.85l-3.88-4.15s-5.16 5.45-11.18 6.34c-3.61.53-8.9-3.13-8.9-3.13-2.1 1.03-2.56 3.74-4.24 5.23-5.53 4.88-7.53 7.89-13.42-3.35-3.17-13.53-6.87-11.58-8.54-6.8" style="fill-rule:nonzero;fill:#fff"/><path d="M719.59 265.68c-12.71-1.34-30.78-5.49-40.82-9.5-38.4-14.99-59.28-34.66-63.57-60.09-3.48-20.2 1.88-36 19.94-59.95 5.22-6.83 20.21-18.2 31.19-23.56 8.43-4.15 11.5-4.95 22.75-5.62 12.44-.67 13.51-.53 24.09 3.48 6.15 2.41 14.45 6.16 18.73 8.3 4.15 2.14 10.17 4.28 13.39 4.68 5.35.8 6.15.4 11.77-4.55 5.76-5.08 6.03-5.62 5.9-12.58-.14-4.01-1.21-9.37-2.42-11.9-2.8-5.9-14.18-18.61-20.74-23.16-4.95-3.48-5.62-3.61-12.98-2.28-4.29.8-10.17 2.68-13.12 4.29-6.29 3.2-14.6 10.57-19.54 14.58-3.57 2.91-4.55 4.82-10.03 9.5-8.43 7.23-11.38 8.84-17.8 10.18-7.77 1.47-19 .53-24.1-2.14-8.83-4.82-14.05-17.8-14.18-35.6-.13-6.96.4-8.84 4.28-14.46 7.1-10.17 14.72-16.32 29.04-23.55 14.06-7.1 34.77-14.34 44.17-16.73 3.49-.89 12.45-3.05 18.73-4.15 30.57-5.33 48.05-2 58.09 6.16a84 84 0 0 1 10.97 11.64c6.42 8.43 13.97 19.36 18.6 30.25 5.11 12 8.97 25.96 12.05 41.75 2.54 13.25 2.8 18.6 2.27 46.17-.53 33.86-1.2 38.95-8.96 61.56-6.7 19.14-11.51 27.57-21.95 38.14-14.86 14.86-24.76 18.88-48.98 19.81-8.44.4-20.48.13-26.77-.67m-5.68-59.38c10.38 3.74 20.87 4.01 26.96 1.4 2.11-.9 4.37-3.53 5.78-8.91.28-1.03.14-1.88.11-2.13-.49-4.84-4.23-10.51-11.37-16.82-14.45-12.98-26.5-14.14-37.2-4.24-4.77 4.4-6.66 8.1-6.38 11.63a14 14 0 0 0 1.73 5.1c3.92 7.05 10.39 10.36 20.37 13.97m5.68 59.38c-12.71-1.34-30.78-5.49-40.82-9.5-38.4-14.99-59.28-34.66-63.57-60.09-1.15-6.68-.41-19.04-.41-19.04s2.19 3.03 10.33-7.08c8.12-10.1 13.55 12.4 22.83 12.58 3.47.07 12.2.94 25.9-13.77 5.8-6.22 13.82-3.75 13.25 2.13-1.03 10.56 4.63 16.31 4.63 16.31s1.32 7.26 6.82 11.3c8.64 6.33 24.73 13.13 40.25 9.95 5.18-1.06 7.2-6.56 7.85-9.98 1.03-5.37-5.29-12.57-5.29-12.57s5.05 1.04 9.62-1.5c6.78-3.79 14.58-18.15 24-27.82 7.6-7.78 17.86 3.1 15.45 14-.43 1.94 4.55 8 6.03 8.23 1.54.25 7.7-7.36 15.28-9.25 7.94-1.98 13.75 2.2 13.69 3.05-.93 13.34-2.94 20.62-8.14 35.77-6.7 19.14-11.51 27.57-21.95 38.14-14.86 14.86-24.76 18.88-48.98 19.81-8.44.4-20.48.13-26.77-.67m88.17-174.05c-4.33 3.99-8.22 15.18-13.47 16.33-1.74.39-4.37-5.25-4.92-6.26-3.4-6.18-6.66-15.96-18.45-14.48-5.2.65-5.12 5.43-6.54 6.71-2.23 2.03-3.73.68-3.84.45-2.8-5.89-14.18-18.6-20.74-23.15-4.95-3.48-5.62-3.61-12.98-2.28-4.29.8-10.17 2.68-13.12 4.29-6.29 3.2-19.54 14.58-19.54 14.58s-3.9-2.06-11.35 3.56c-4.63 3.5-5.65 1.04-8.09 2.27-1.72.86-2.95 4.7-6.17 5.37-1.49.28-3.58-3.6-6.78-3.81-3.9-.25-4.25 5.13-11.72 3.99-3.14-.48-2.62-3.05-5.33-4.21-2.32-1-4.85-.48-4.96-.85-1.55-5.38-6-6.12-7.82-5.87-.37.05-1.7-.82-1.82-1.27a71 71 0 0 1-2.07-17.24c-.13-6.96.4-8.84 4.28-14.46 7.1-10.17 14.72-16.32 29.04-23.55 14.06-7.1 35.21-14.47 44.17-16.73 2.9-.73 15.1-3.49 18.73-4.15 30.53-5.54 48.05-2 58.09 6.16a84 84 0 0 1 10.97 11.64c10.1 13.32 14.1 21.02 18.6 30.25C815.8 66.84 820.3 84 820.3 84s-8.8 4.17-12.53 7.62m278.51 8.78c1.7 13.28 1.52 23.81.65 45.29-.88 21.98-3.85 41.93-4.66 45.05-4.15 16.32-9.24 26.5-16.87 34-10.17 9.76-18.6 12.84-30.78 10.97-5.35-.8-7.36-2.15-15.12-9.78-10.97-10.97-15.66-20.2-16.73-33.05-.93-9.64.14-18.34 6.43-50.59 1.74-9.5 3.74-23.02 4.14-30.24.94-12.32.8-13.39-2.54-19.94-6.02-11.92-12.71-11.92-14.85.13-2.81 15.66-14.06 58.48-16.87 64.5-6.42 13.66-16.32 16.87-26.5 8.84-5.08-4.02-15.92-19.54-31.3-44.3a151 151 0 0 0-11.12-15.92c-4.41-5.09-5.08-5.5-6.96-3.62-2.67 2.68-5.18 15.7-1.6 27.04 1.6 5.08 16.2 32.65 19.4 36.66 1.74 2.15 7.63 13.52 12.85 24.76 5.89 12.58 4.55 34.4-2.94 49.25-4.02 7.9-12.85 16.73-19.81 19.8-8.03 3.62-25.16 4.16-32.65.81-6.83-2.94-19.41-15.92-24.5-25.02-11.1-19.81-19.67-49.52-22.08-76.29-4.41-47.5 7.76-99.43 27.84-119.64 11.1-11.1 27.17-18.2 41.62-18.2 8.03 0 10.04.54 17.53 5.09 4.69 2.67 10.98 7.9 14.05 11.5 8.17 9.77 9.6 12.85 12.85 12.85s5.23-7.34 8.08-15.7c2.6-7.66 2.19-11.83 7.98-17.62 11.38-11.38 47.24-15.53 66.91-7.9 19.54 7.63 38.68 30.38 48.05 56.88 3.48 9.77 8 22.6 9.5 34.4m-81.97 68.56c.3-1.87 5.7 7.7 13.9 11.58 1.75.83 11.43-13.54 24.66-13.59 4.86-.01 8.38.74 17.32 13.47 1.73 2.47 7.69 2.92 15.67.08 6.47-2.31 8.88-6.66 8.8-6.04-.98 8.56-1.97 14.67-2.4 16.28-4.14 16.32-9.23 26.5-16.86 34-10.17 9.76-18.6 12.84-30.78 10.97-5.35-.8-7.36-2.15-15.12-9.78-10.97-10.97-15.66-20.2-16.73-33.05-.6-6.2-.37-12 1.54-23.92m-150.35 66.08c-8.12-14.48-18.91-54.53-18.91-54.53 5.56 2.43 8.6 3.5 11.72 1.06 3.63-2.82 6.44-13.78 11.55-11.58 4.1 1.77 9.29 11.96 12.8 13.62 5.31 2.52 9.12-9.66 14.32-10.01 11.23-.76 18.23 2.28 22.25-4.25 2.95-4.8 8.85-2.2 9.63-1.57 3.55 2.96 4.25 12.99 9.57 14.12 1.95.41 2.35-1.33 2.35-1.33s3.09 6.36 4.61 9.63c5.89 12.58 4.55 34.4-2.94 49.25-4.02 7.9-12.85 16.73-19.81 19.8-8.03 3.62-25.16 4.16-32.65.81-6.83-2.94-19.41-15.92-24.5-25.02M1084 88.74c.09.38-3.52 2.43-4.72 3.83-4.42 5.15-1.31 15.02-5.72 17.54-3.87 2.21-6.96-.64-7.57-1.18-5.68-5.06-11.33-19.13-23.76-18.38-10.34.62-16.54 12.47-23.46 11.06-4.26-.86-7.37-8.33-7.97-9.5-3.42-6.77-6.43-9.15-9.45-8.74-.97.13-3.23 1.44-4.61 5.62-.14.76-2.5-1.8-3.82-.25-4.63 5.43-6.02 2.16-6.86 3.24-3.06 3.95-5.92 4.02-9.05 3.41-3.62-.7-6.05-6.84-6.05-6.84-.67 6.21-1.03 16.6-10.15 9.87-5.24-3.87-9.07-9.25-15.14-9.47-9.14-.33-18.95 5.2-19.1 9.53-.35 10.07-4.81 10.1-5.66 10.07-5.06-.18-10.89-8.53-12.86-11.06-2.4-3.08-13.58-12.45-17.23-10.6-12.8 6.5-3.52 14-9.33 21.78-1.53 2.05-6.6 2.69-10.42.34-5.74-3.53-10.49-11.35-10.8-11.7-3.5-3.7-6.1-3.71-9.22-5.4-2.22-1.2-4.4-3.53-5.04-5.9-.5-1.85-8.68-.29-8.68-.29s5.14-17.63 8.48-25.06c4-8.9 8.68-16.3 13.9-21.55 11.1-11.1 27.17-18.2 41.62-18.2 8.03 0 10.04.54 17.53 5.09 4.69 2.67 10.98 7.9 14.05 11.5 8.17 9.77 9.54 12.85 12.85 12.85s5.22-7.32 8.15-15.92c2.6-7.63 2.27-11.76 7.91-17.4 11.38-11.38 47.24-15.53 66.91-7.9 19.54 7.63 38.68 30.38 48.05 56.88 3.48 9.77 4.42 9.95 7.22 22.73" style="fill-rule:nonzero;fill:#fff"/><path d="M1179.16 261.8c-33.06-7.76-58.48-23.42-74.81-46.17-7.1-10.04-15.2-26.58-16.6-31.18-5.15-16.97-.53-82.3 1.2-90.87 8.3-40.02 33.73-69.46 71.47-82.44 11.11-3.75 13.65-4.15 28.24-4.15 32.65.13 56.88 10.84 82.7 36.94 10.18 10.17 14.06 15.25 17.27 22.21a151 151 0 0 0 7.1 13.65c4.41 7.23 8.7 26.77 9.63 44.17.67 13.38.54 15.79-1.47 17.66-5.36 5.49-25.97 7.76-69.06 7.76-28.77.14-72.53-1.87-74.8-3.2-.54-.4-2.28.13-3.62 1.2-2.14 1.47-2.54 3.34-2.41 10.97.27 10.84 2.14 14.99 10.17 22.62 7.76 7.36 13.12 10.44 25.7 14.45 13.65 4.55 20.34 4.55 26.9 0 6.42-4.28 8.83-7.36 14.05-16.73 4.82-9.1 7.09-10.17 23.42-11.1 6.69-.54 17.66-1.48 24.49-2.28 15.79-2 26.76-1.07 29.17 2.14 5.36 7.36-5.34 37.08-16.06 51.53-11.7 15.77-35.42 35.95-54.2 43.09-18.22 6.93-43.36 3.21-58.48-.27m50.72-162.2c9.37-4.76 9.5-7.77 1.34-15.4a95 95 0 0 0-15.52-10.57c-12.72-6.69-21.95-6.82-33.06-.53-12.45 6.96-19.94 16.19-16.73 20.6 2.54 3.48 10.3 7.63 16.2 8.7 3.47.67 14.18 1.07 23.68.8 15.4-.26 18.2-.66 24.1-3.6m-50.72 162.2c-33.06-7.76-58.48-23.42-74.81-46.17-7.1-10.04-14.53-24.87-16.6-31.44a45 45 0 0 1-1.67-9.83s5.6-2.05 8.46-4.72c3.1-2.9 7.16-9.12 9.7-9.78 5.66-1.48 10.77 15.15 11.92 15.85s13.12 1.1 14.3-.27c5.88-6.8 15.28-12.48 19.3-7 2.42 3.3 5.5 9.07 9 10.52 1.27.53 2.9-.09 2.9-.09s3.23 2.78 3.46 3c7.27 6.72 12.69 9.7 24.75 13.55 13.65 4.55 20.34 4.55 26.9 0 4.87-3.25 7.44-5.8 10.67-10.95 1.03-1.63 8.22 1.18 18.44-3.61 14.88-6.99 16.3-12.67 21.4-8.97 6 4.33 8.52 2.93 16.86 3.36 14.1.71 15.34-10.86 20.19-9.33 1.6.5 2.97.73 3.57 1.53 5.36 7.36-5.34 37.08-16.06 51.53-11.7 15.77-35.42 35.95-54.2 43.09-18.22 6.93-43.36 3.21-58.48-.27M1300.8 93.7c.35 1.36-8.06-6.73-16.46-4.83-17.02 3.86-14.47 11.03-21.28 12.18-8.2 1.37-14.21-14.5-15.04-10.8-1.31 5.83-4.05 12-12.55 5.92-.48-.34 2.71-1.37 1.2-5.34-2.8-7.3-27.03-24.2-40.86-22.26-15.29 2.14-32.67 17.3-30.36 24.33 1.02 3.1.63 8.75-6.86 8.44-13.42-.36-14.26-13.94-23.92-12.4-9.07 1.45-14.15 15.18-20 20.01-3.58 2.97-6.77-11.62-16.67-11.74-4.1-.04-5.78 3.21-7.59 4.9-1.01.94-2.27.75-2.23.19.23-4.26.5-7.35.77-8.71 8.3-40.02 33.72-69.46 71.46-82.44C1171.52 7.4 1174.06 7 1188.65 7c32.65.13 56.88 10.84 82.7 36.94 10.18 10.17 14.06 15.25 17.27 22.21a151 151 0 0 0 7.1 13.65c1.79 2.93 3.55 7.88 5.08 13.9" style="fill-rule:nonzero;fill:#fff"/></svg>