<svg xmlns="http://www.w3.org/2000/svg" viewBox="0 0 250 79"><path d="m26 13-12.5.02q-.5 0-.5.5v11.94q0 .5.5.5L26 26l-.03 13.5q0 .5-.5.5H13.5a.5.5 0 0 0-.5.5v25q0 .5-.5.5H.5q-.5 0-.5-.5V.5Q0 0 .5 0h24.78q.67 0 .68.67zm211.46 40h12.08c.25 0 .46.2.46.46v12.08c0 .25-.2.46-.46.46h-39.08a.46.46 0 0 1-.46-.46V53.46c0-.25.2-.46.46-.46h13.08c.25 0 .46-.2.46-.46V13.46c0-.25-.2-.46-.46-.46h-13.08a.46.46 0 0 1-.46-.46V.46c0-.25.2-.46.46-.46h26.08c.25 0 .46.2.46.46v52.08c0 .25.2.46.46.46M26 13l12.5.04q.5 0 .5.5v11.94q0 .5-.5.5L26 26zm40 27-13.52-.04q-.48 0-.48-.49V13.5q0-.5.5-.5h12.96q.51 0 .51.51zm0 0 12.34-.04q.66 0 .66-.67V13.75q0-.75.75-.75h11.5q.75 0 .75.75v51.84c0 .22-.18.4-.4.41H79.5q-.5 0-.5-.5v-12q0-.5-.5-.5H66.51q-.5 0-.5-.5z" style="fill:#fff"/><rect width="13" height="13" x="-6.5" y="-6.5" rx=".52" style="fill:#fff" transform="rotate(-.1 11230.46 -63887.26)"/><rect width="14" height="13" x="-7" y="-6.5" rx=".65" style="fill:#fff" transform="rotate(.1 -11105.71 79092.98)"/><path d="m184 40-.01-13.51q0-.5-.5-.49h-11.74q-.75 0-.75-.75v-11.5q0-.75.75-.75h24.75q.5 0 .5.5v25.78q0 .67-.67.67zm-53 13h-13l.01-26.49q0-.51.5-.51h11.98q.5 0 .5.5z" style="fill:#fff"/><path d="m184 40 .01 12.5q0 .5.5.5h11.99c.28 0 .5.22.5.5v12q0 .5-.5.5h-24.75q-.75 0-.75-.75V53.5q0-.5-.5-.5h-12q-.5 0-.5-.5v-26c0-.28.22-.5.5-.5h12q.5 0 .5.5v12.97q0 .5.49.49zm-66 13-.04 12.5q0 .5-.5.5H105.5q-.5 0-.5-.5V53.54q0-.5.5-.5zm13 0 13.5.04q.5 0 .5.5v11.83q0 .63-.63.63h-12.83q-.5 0-.5-.5z" style="fill:#fff"/><rect width="13" height="13" x="-6.5" y="-6.5" rx=".31" style="fill:#fff" transform="rotate(-.1 41583.42 -41511.21)"/></svg>