<svg xmlns="http://www.w3.org/2000/svg" viewBox="0 0 268 68"><path d="M44.88 14.76a29 29 0 0 1 1.8 10.05q0 4.5-1.4 8.24a24.4 24.4 0 0 1-7.41 10.52 22 22 0 0 1-11.8 5.02v6.02q0 .35-.54 2.8-1.05 4.86-1.92 11.05a409 409 0 0 0-3.22-13.8v-6.13a21 21 0 0 1-11.5-4.9Q-.02 36.27 0 24.8q0-4.79 1.58-9.34A23 23 0 0 1 6.02 7.7a17 17 0 0 1 7.24-5.26A23 23 0 0 0 6.2 8.8q-3.8 5.26-3.8 11.98 0 2.46.47 4.85a19.7 19.7 0 0 0 4.86 9.35q3.96 4.5 8.82 5.67 2.51.88 3.85.93V35.5q0-.93-.05-2.1-.42-1.94-2.23-2.22a.4.4 0 0 0-.29-.12H28.4q.4 0 .35.12-2.16.35-2.51 2.22-.18.93-.18 2.16v6.02q2.98-.65 4.1-.93 4.73-1.23 8.64-5.44a20.5 20.5 0 0 0 5.5-14.43q0-5.8-2.93-10.6a22 22 0 0 0-8-7.75q8 3.04 11.5 12.33m16.77-7.91q-.53-4.08-3.44-4.9h14.2q-4.33 1.45-3.86 5.02V37.2q0 3.21.82 5.55 3.28 6.53 9.64 6.83-8.01-.23-12.45-4.85-4.9-5.08-4.9-11.32zm39-.04q.53-4.1 3.66-4.86H89.98q4.26 1.29 3.79 4.86v31.05q0 3.11-.88 4.86-3.34 6.63-9.57 6.86 4.86-.12 8.31-1.88 1.82-.93 4.16-2.98 4.86-4.28 4.86-11.25zM146.4 45.2l-2.34-5.72q-1.98-4.9-5.32-5.96-1.17-.12-3.15-.24l-.65-.05 1-.3q3.03-.87 3.03-2.92 0-.64-.47-1.75-2.33-5.55-3.44-8.36-2.16-5.03-3.27-5.67-.87-.46-2.85 3.5-2.1 4.27-2.69 5.74l-1.98 5.08q-.4 1.05-.4 1.81 0 2.7 3.71 2.87-4.9 0-6.77 2.5a35 35 0 0 0-3.34 8.01l-.35 2.05q.36 2.22 2.63 2.63h-9.35q2.58-1.18 6.26-7.84 1.98-3.5 4.84-9.76a637 637 0 0 0 8.89-20.17l3.45-9 8.23 19.48h-.05l1.75 3.74q3.1 6.49 7.89 16.77 2.4 5.2 5.6 6.78h-13.72q3.22-.18 2.86-3.22m32.3-1.51q0 3.86 3.28 4.55H168.9q2.82-.7 3.23-4.55v-37q0-3.98-3.17-4.68h13.1q-2.42.52-3.35 4.5v13.04q0 3.74 4.93 5.31-4.93 1.06-4.93 6.26zm18.7-21.02Q205.83 11.8 214.77 0L188 24.99h.06l-.06.06h.18q6.36 2.4 11.16 5.72 11.4 7.95 12.27 19.3.17-1.7.17-3.34 0-11.04-6.19-18.1a21.5 21.5 0 0 0-8.18-5.96m41.56 4a4.3 4.3 0 0 0-1.64 3.56v4.04q0 1.75 1 7.2a13 13 0 0 0 2.04 3.2q2.85 3.34 6.65 3.57a18.2 18.2 0 0 1-10.85-4.09q-5.54-4.2-5.54-9.88V6.67q-1-4.15-3.6-5.03h13.74q-3.45.82-3.44 5.2v13.22q0 2.7 1.46 3.86.05.59 8 .94-5.25.17-7.82 1.8M249.7 1.64h15.84l.05 15.75a16.4 16.4 0 0 0-5.2-10.65q-4.02-3.69-10.69-5.1m2.75 46.78q8.06-.65 15.54-15.2v15.2q-1.1-1.58-3.5-1.58-1.7 0-3.98.79-2.27.8-8.06.79" style="fill:#fff;fill-opacity:1"/></svg>