<svg xmlns="http://www.w3.org/2000/svg" preserveAspectRatio="xMidYMid" viewBox="0 0 412.47 81.01"><defs><filter id="d" width="2.65" height="1" x="-.82" y="0" style="color-interpolation-filters:sRGB"><feGaussianBlur result="blur" stdDeviation="24.8052 0.01"/></filter><filter id="c" width="2.79" height="1" x="-.89" y="0" style="color-interpolation-filters:sRGB"><feGaussianBlur result="blur" stdDeviation="24.8052 0.01"/></filter><filter id="b" width="2.66" height="1" x="-.83" y="0" style="color-interpolation-filters:sRGB"><feGaussianBlur result="blur" stdDeviation="24.8052 0.01"/></filter><filter id="a" width="2.38" height="1.31" x="-.69" y="-.16" style="color-interpolation-filters:sRGB"><feGaussianBlur result="fbSourceGraphic" stdDeviation="24.8052 0.01"/><feColorMatrix in="fbSourceGraphic" result="fbSourceGraphicAlpha" values="0 0 0 -1 0 0 0 0 -1 0 0 0 0 -1 0 0 0 0 1 0"/><feGaussianBlur in="fbSourceGraphic" result="fbSourceGraphic" stdDeviation="5"/><feGaussianBlur in="fbSourceGraphic" result="result1" stdDeviation=".01"/><feComposite in="fbSourceGraphic" in2="result1" k2=".5" k3=".5" operator="arithmetic" result="result2"/><feBlend in2="fbSourceGraphic" result="result3"/></filter></defs><g fill="currentColor" style="fill:#f8f8f8;fill-opacity:1"><path d="M96.19 71.39c1.5-8.7 3.8-21.7 5-29l2.3-13.1 11.3-9.6 11.3-9.6h70.7l-2.3 13.3c-1.3 7.2-2.6 14.4-3 16-.4 1.9-3.9 5.6-11.4 12-5.9 5-10.6 9.5-10.3 10 .2.4 1.5.7 2.8.7 1.9 0 2.6.9 4.1 5.3 2.1 6.5 3 7.7 6.1 7.7 2.3 0 2.4.2 1.8 4.3-1.3 8.4-.2 7.8-14.2 7.5l-12.6-.3-4.2-12.5-4.2-12.5-6.2-.3-6.3-.3.7-5.2c.4-2.9.9-5.5 1.2-5.9.2-.5 4.6-.8 9.7-.8 9.1 0 9.3 0 13.3-3.5 3.7-3.1 4.2-4.2 5.2-10.2.7-3.8 1.4-8.3 1.7-10l.6-3.3h-32l-4 3.2c-2.3 1.8-4.3 4-4.6 4.8-.2.8-2.6 14-5.3 29.3l-4.8 27.7h-25.2z" style="filter:url(#a);fill:#f8f8f8;fill-opacity:1" transform="translate(-43.83 -5.79)"/><path d="M192.49 85.39c.5-1.8 6.6-36.3 6.6-37.5 0-.4 3.6-3.9 8-7.7l8-7.1h24.5c19.5 0 24.5.3 24.5 1.3 0 1.3-7.4 44.2-8.6 50-.6 2.7-.6 2.7-9.1 2.7h-8.6l.7-4.5c.3-2.5.9-6.5 1.2-9l.7-4.5h-27.2l-1 5.3c-.6 2.8-1.3 6.9-1.7 9l-.6 3.7h-9c-8 0-8.9-.2-8.4-1.7m50-27.5c1.6-7.4 2.6-13.1 2.6-14.3s-2.2-1.5-11.8-1.5c-11 0-12 .2-14 2.3s-4.1 8.9-4.2 13.5c0 2.2.2 2.2 13.5 2.2 13.2 0 13.5-.1 13.9-2.2" style="filter:url(#b);fill:#f8f8f8;fill-opacity:1" transform="translate(-43.83 -5.79)"/><path d="M269.59 80.39c-3.8-4.7-5.4-7.4-5.1-8.8.2-1.1.8-4.1 1.1-6.7l.7-4.8h45.5l1.1-6.6c.9-5.6.9-7-.5-9-1.5-2.3-2-2.4-13.3-2.4-11.4 0-11.8.1-12.4 2.3-.3 1.2-.6 3.2-.6 4.5 0 2.1-.3 2.2-9.1 2.2h-9.1l.6-2.7c.3-1.6 1.1-5.6 1.7-9l1.2-6.3h49.3l5.2 6.5c2.9 3.5 5.2 7.4 5.2 8.7 0 1.2-.7 6.4-1.7 11.5l-1.6 9.3h-45.7v2.8c0 5.8 1.6 6.2 23.9 6.2h20.2l-.7 3.8c-.4 2-.9 4-1.1 4.5-.2.4-11.4.7-24.8.7h-24.3z" style="filter:url(#c);fill:#f8f8f8;fill-opacity:1" transform="translate(-43.83 -5.79)"/><path d="M331.09 86.39c0-1 5.8-35.2 6.5-37.9.2-1.1 4-5 8.4-8.7l7.9-6.7h49.4l-.5 2.3c-.3 1.2-1.1 5.2-1.7 9l-1.2 6.7h-8.9c-6.6 0-8.7-.3-8.5-1.2.3-.7.7-2.8 1-4.5l.6-3.3h-11.8c-11 0-11.9.1-14.3 2.4-1.5 1.4-2.9 4.1-3.3 6.3-.4 2.1-.9 5-1.2 6.6l-.6 2.7h45.5l-.7 3.1c-.3 1.7-.6 3.8-.6 4.5 0 1.2-4.2 1.4-23 1.4s-23 .2-23 1.4c0 .7-.3 2.8-.6 4.5l-.6 3.1h45.4l-.6 2.3c-.3 1.2-.6 3.2-.6 4.5v2.2h-31.5c-17.3 0-31.5-.3-31.5-.7" style="filter:url(#d);fill:#f8f8f8;fill-opacity:1" transform="translate(-43.83 -5.79)"/><g fill="currentColor" style="fill:#f8f8f8;fill-opacity:1"><path d="M44 82.8c0-1.8 1.3-10.7 3-19.8 1.6-9.1 3.8-21.3 4.8-27.2 2.1-11.9.6-9.8 17.2-23.7L77.5 5h36.2c19.9 0 36.4.3 36.6.8.3.4-.8 8.1-2.5 17.2l-2.9 16.5-5.7 5c-12.3 10.9-12.6 11.1-11.6 12.6.5.8 1.8 3.9 2.9 6.9 1.8 5 2.3 5.5 5.3 5.8 3.7.4 3.9 1.8 1.8 10.7l-1.1 5h-28l-4.4-12.7L99.8 60h-6.4c-7.3 0-7.3 0-5.3-10.3l1.2-5.7h10.1c9.7-.1 10.2-.2 13.3-2.9 3.1-2.9 3.6-4.3 5.7-16.8l.6-3.3H89.5l-3.6 3.3c-3.4 3-3.8 3.9-5.3 13.2-4.8 28.8-8.1 46.1-8.9 47.3-.7.8-4.8 1.2-14.3 1.2H44Zm24.5-4c.2-1.3 2.5-14.2 5.1-28.8l4.5-26.5 3.7-3.2 3.7-3.3H123v5.3c-.1 2.8-.7 8.3-1.4 12-1 5.4-2 7.5-4.6 10.3l-3.4 3.4h-9.7c-5.4 0-10 .3-10.2.8-.3.4-.8 2.1-1.2 3.9l-.6 3.2 6.2.3 6.3.3 3.8 12.3 3.9 12.2h10.4c9.7 0 10.5-.1 10.5-1.9 0-1.1.3-2.6.6-3.5.5-1.2-.1-1.6-2.3-1.6-2.7 0-3.1-.5-4.9-6.2-1.7-5.5-2.3-6.3-4.7-6.6-2.3-.3-2.7-.8-2.7-3.6 0-3 1.1-4.2 10.8-12.4l10.8-9.1 2.2-12.4c1.2-6.8 2.2-12.9 2.2-13.6 0-.8-8.8-1.1-31.8-1.1H81.3L69.7 19c-6.5 5.6-11.9 11-12.2 12.3-.7 3.2-8.5 48-8.5 48.9 0 .5 4.3.8 9.5.8 9 0 9.5-.1 10-2.2m74.3 6c-.3-.7.8-8.5 2.4-17.3 1.5-8.8 3.1-17.9 3.4-20.3.6-3.9 1.5-5.1 9.3-11.8l8.6-7.4h25.3c22.3 0 25.3.2 25.9 1.6.3.9-.4 7.3-1.7 14.3-1.2 6.9-3.3 18.7-4.6 26.1s-2.6 14.1-2.9 14.8c-.3.9-3 1.2-10.2 1l-9.8-.3V82c.1-1.9.5-5.9.9-8.7l.8-5.3h-23.8l-1.4 8.3c-.7 4.5-1.8 8.5-2.4 8.9-2 1.3-19.4.9-19.8-.4M160.9 72l1.6-8.5 16.4-.3 16.4-.3-.7 6.8c-.3 3.8-.9 7.8-1.2 9.1-.6 2.1-.4 2.2 5.3 2.2h5.8l3.9-21.7c2.1-12 4-22.8 4.3-24l.5-2.3h-43.5l-6.8 5.5c-3.7 3.1-7.3 6.3-8 7.1-1 1.2-6.8 30.1-6.9 34.2 0 1 1.5 1.2 5.7 1l5.7-.3z" style="fill:#f8f8f8;fill-opacity:1" transform="translate(6.89 -4.91)"/><path d="M164 57.3c0-7 2.3-15.9 4.8-18.5l2.6-2.8h14.3c16.7 0 15.4-1.5 12.6 14.3l-1.6 9.7H164Zm29.5-7c.3-2.7.9-5.8 1.2-7 .5-2.3.4-2.3-9.9-2.3-9.6 0-10.6.2-12.5 2.3-1.1 1.2-2.4 4.3-2.7 7l-.7 4.7h23.9zm26.6 28.3-6.2-7.5 1.1-6.8c.6-3.7 1.6-7.3 2.2-8 .8-1 6.3-1.3 22.9-1.3H262l.4-2.2c2.4-11.7 2.3-11.8-11-11.8H241l-.5 2.8c-1.2 5.6-1.5 5.7-12.1 5.7h-9.9l.3-4.5c.2-2.5.8-7.2 1.5-10.5l1.2-6 25.7-.3 25.7-.2 6.4 7.4 6.3 7.4-1.9 11.4c-1 6.2-2.3 11.9-2.9 12.6-.8.9-6.6 1.2-22.9 1.2-17.3 0-21.9.3-21.9 1.3 0 3.3 2.3 3.7 22 3.7 10.7 0 20.1.4 20.8.9 1 .6 1.1 1.9.6 4.7-1.4 7.9.5 7.4-27.8 7.4h-25.3Zm53.9.9c0-1.3-2.9-1.5-19.9-1.5h-19.9l-1.6-2.5c-.9-1.3-1.6-4-1.6-5.9 0-6.9-1.1-6.6 23.5-6.6 20.4 0 22.4-.2 22.9-1.7.2-1 1-5 1.7-9l1.2-7.2-5.2-6-5.3-6.1h-22.4c-18.2 0-22.4.3-22.4 1.4 0 .7-.3 3.4-.6 6l-.7 4.6h5.6c6 0 5.9.1 6.9-6.5.3-1.9 1.2-2 14.2-2.3 18-.3 18.1-.3 17.3 11.8-.9 13.2 1.6 12-24.3 12H221l-.4 2.3c-1.3 5.6-1 6.6 3.8 12.6l4.9 6.1h22.4c19.2 0 22.3-.2 22.3-1.5m7.4 5c-.6-1.5-.2-4.2 4.7-30.6l2.1-11.7 8.5-7.1 8.5-7.1h25.3c14 0 25.6.4 25.9.9.5.8-1.7 15.3-2.9 19.2-.6 1.7-1.8 1.9-9.9 1.9-5.2 0-9.7-.5-10.3-1.1s-.8-2.3-.3-4.5l.8-3.4h-10.2c-11.8 0-14 1-15 6.7-.4 2.1-.9 4.6-1.2 5.5-.5 1.6 1.2 1.8 21.8 2l22.3.3-.3 4.9c-.1 2.7-.7 5.5-1.3 6.3-.9 1-5.9 1.3-23 1.3-12.6 0-21.9.4-21.9.9s-.3 1.6-.6 2.5c-.5 1.4 1.6 1.6 20.4 1.6 11.6 0 21.7.3 22.6.6 1.3.5 1.5 1.5 1 4.8-1.3 8.2 1.4 7.6-34.5 7.6-27.8 0-32-.2-32.5-1.5m61.6-5c0-1.3-3.1-1.5-21.5-1.5H300v-5.2c0-10.6-1.9-9.8 23.5-9.8 18.9 0 22.4-.2 22.9-1.5S344.1 60 325 60h-22v-4.4c0-8 1.8-14.9 4.6-17.4 2.3-2.1 3.4-2.2 16.5-2.2H338v9h5.4c3 0 5.7-.4 6-.8.3-.5.8-3.2 1.2-6l.7-5.2H308l-7.9 6.6-7.8 6.7-2.7 15.6c-1.5 8.6-3 16.4-3.2 17.4-.5 1.6 1.3 1.7 28 1.7 24.8 0 28.6-.2 28.6-1.5" style="fill:#f8f8f8;fill-opacity:1" transform="translate(6.89 -4.91)"/></g><path fill="currentColor" d="M48.19 71.39c1.5-8.7 3.8-21.7 5-29l2.3-13.1 11.3-9.6 11.3-9.6h70.7l-2.3 13.3c-1.3 7.2-2.6 14.4-3 16-.4 1.9-3.9 5.6-11.4 12-5.9 5-10.6 9.5-10.3 10 .2.4 1.5.7 2.8.7 1.9 0 2.6.9 4.1 5.3 2.1 6.5 3 7.7 6.1 7.7 2.3 0 2.4.2 1.8 4.3-1.3 8.4-.2 7.8-14.2 7.5l-12.6-.3-4.2-12.5-4.2-12.5-6.2-.3-6.3-.3.7-5.2c.4-2.9.9-5.5 1.2-5.9.2-.5 4.6-.8 9.7-.8 9.1 0 9.3 0 13.3-3.5 3.7-3.1 4.2-4.2 5.2-10.2.7-3.8 1.4-8.3 1.7-10l.6-3.3h-32l-4 3.2c-2.3 1.8-4.3 4-4.6 4.8-.2.8-2.6 14-5.3 29.3l-4.8 27.7h-25.2zm96.3 14c.5-1.8 6.6-36.3 6.6-37.5 0-.4 3.6-3.9 8-7.7l8-7.1h24.5c19.5 0 24.5.3 24.5 1.3 0 1.3-7.4 44.2-8.6 50-.6 2.7-.6 2.7-9.1 2.7h-8.6l.7-4.5c.3-2.5.9-6.5 1.2-9l.7-4.5h-27.2l-1 5.3c-.6 2.8-1.3 6.9-1.7 9l-.6 3.7h-9c-8 0-8.9-.2-8.4-1.7m50-27.5c1.6-7.4 2.6-13.1 2.6-14.3s-2.2-1.5-11.8-1.5c-11 0-12 .2-14 2.3s-4.1 8.9-4.2 13.5c0 2.2.2 2.2 13.5 2.2 13.2 0 13.5-.1 13.9-2.2m27.1 22.5c-3.8-4.7-5.4-7.4-5.1-8.8.2-1.1.8-4.1 1.1-6.7l.7-4.8h45.5l1.1-6.6c.9-5.6.9-7-.5-9-1.5-2.3-2-2.4-13.3-2.4-11.4 0-11.8.1-12.4 2.3-.3 1.2-.6 3.2-.6 4.5 0 2.1-.3 2.2-9.1 2.2h-9.1l.6-2.7c.3-1.6 1.1-5.6 1.7-9l1.2-6.3h49.3l5.2 6.5c2.9 3.5 5.2 7.4 5.2 8.7 0 1.2-.7 6.4-1.7 11.5l-1.6 9.3h-45.7v2.8c0 5.8 1.6 6.2 23.9 6.2h20.2l-.7 3.8c-.4 2-.9 4-1.1 4.5-.2.4-11.4.7-24.8.7h-24.3zm61.5 6c0-1 5.8-35.2 6.5-37.9.2-1.1 4-5 8.4-8.7l7.9-6.7h49.4l-.5 2.3c-.3 1.2-1.1 5.2-1.7 9l-1.2 6.7h-8.9c-6.6 0-8.7-.3-8.5-1.2.3-.7.7-2.8 1-4.5l.6-3.3h-11.8c-11 0-11.9.1-14.3 2.4-1.5 1.4-2.9 4.1-3.3 6.3-.4 2.1-.9 5-1.2 6.6l-.6 2.7h45.5l-.7 3.1c-.3 1.7-.6 3.8-.6 4.5 0 1.2-4.2 1.4-23 1.4s-23 .2-23 1.4c0 .7-.3 2.8-.6 4.5l-.6 3.1h45.4l-.6 2.3c-.3 1.2-.6 3.2-.6 4.5v2.2h-31.5c-17.3 0-31.5-.3-31.5-.7" style="fill:#f8f8f8;fill-opacity:1" transform="translate(6.8 -8)"/></g></svg>