<svg xmlns="http://www.w3.org/2000/svg" viewBox="0 0 315.06 162.91"><path fill="currentColor" d="M89.78 49.2c9.3 7.65 15.2 16.71 16.69 28.88.5 11.03-3.06 20.88-9.69 29.7-6.52 7.12-15.85 12.2-25.53 12.91-13.53.27-23.02-2.88-32.85-12.27-7.73-8.07-11.3-17.41-11.08-28.63.81-9.01 3.5-16.34 9.21-23.34l1.52-1.9C51.2 39.87 73.94 38.12 89.78 49.2" style="fill:#fff;fill-opacity:1"/><path fill="currentColor" d="M115.53 46.45c41.1 0 41.1 0 50 8 4.63 6.01 5.85 12.6 5 20-1.8 6.04-4.51 9.6-9 14l1.29 2.25 6.73 11.85a1109 1109 0 0 1 4.7 8.27c1.28 2.63 1.28 2.63 1.28 5.63h-20l-5.5-10.37-1.59-2.99-1.5-2.85-1.4-2.63c-1-2.16-1-2.16-1-4.16h-11v23h-18zm18 15v17l5.69.2 3.2.1c3.5-.33 5.3-1.21 8.11-3.3 1.55-3.09 1.3-5.6 1-9-2.22-2.9-3.52-3.84-7-5q-2.85-.1-5.69-.06zm136-61q7.53-.15 15.05-.22 2.55-.02 5.12-.08 3.68-.07 7.37-.09l2.3-.06c5.14 0 8.2.87 12.16 4.45 3.83 6.56 3.43 13.09 3.4 20.52l.03 4.1v11.1l.02 9.28v21.9q-.01 11.29.03 22.56.03 9.7.02 19.41 0 5.8.02 11.57.01 5.45-.01 10.89 0 2.94.02 5.87c-.06 7.07-.67 11.81-4.53 17.8-4.02 3.58-8.22 3.4-13.36 3.3l-2.4-.02q-3.77-.02-7.55-.09l-5.14-.04q-6.27-.05-12.55-.15v-12h33v-138h-33zM17.9.16l2.4.01q3.77.04 7.54.1l5.14.04q6.27.05 12.55.14v12h-33v138h33v12q-7.29.15-14.57.22l-4.95.08q-3.57.07-7.14.1l-2.21.06c-5.48 0-8.73-1.1-13.13-4.46-3.88-6.5-3.43-13.1-3.4-20.52l-.02-4.1q-.03-5.55-.01-11.1l-.01-9.27q-.03-10.95 0-21.91 0-11.28-.03-22.56-.04-9.7-.03-19.4L.02 38q-.03-5.44 0-10.88 0-2.94-.02-5.87c.06-7.08.67-11.82 4.53-17.8C8.55-.13 12.75.05 17.9.15m162.63 46.3h45c2 11 2 11 2 15h-29v13h20l2 14h-22v13h31l2 14c-1 1-1 1-3.02 1.12h-5.76l-3.25-.02h-2.98l-11.05-.03-24.94-.07z" style="fill:#fff"/><path fill="currentColor" d="M285.53 49.45c.99 1.82.99 1.82 1 4-.78 2.58-.78 2.58-1.94 5.25l-1.15 2.7-.9 2.05-2.82-.43-1.93-.26a193 193 0 0 1-4.93-.74c-6.34-.86-6.34-.86-12.33 1-4.5 3.65-6.35 7.73-7 13.43-.6 8.25.27 15.15 5.13 22 3.95 2.76 7.09 3.29 11.87 3 3.75-.77 7.37-1.8 11-3q1.55 2.9 3.06 5.82l1.73 3.27c1.21 2.91 1.21 2.91.21 5.91-10.53 4.96-22.71 5.9-33.72 2.03-8-3.6-12.63-9.11-16.28-17.03-2.02-5.67-2.39-10.86-2.37-16.8v-2.7c.12-6.52.99-11.81 4.37-17.5l1.81-3.25c11.1-13.95 29.3-16.73 45.2-8.75" style="fill:#fff"/></svg>