<svg xmlns="http://www.w3.org/2000/svg" viewBox="0 0 3840 854.2"><path d="M180.9 586.4c0 91.3 54.1 102.6 78.6 102.6 45.9 0 64.1-34.6 64.1-70.7 0-41.4-22.3-54.2-138.7-105.1C131.9 490.9.2 435.6.2 288 .2 129.8 104 46.3 242.4 46.3c113.1 0 262.5 61.3 265.5 250.3H332.3c0-26.7-5.9-83-65.2-83-33.7 0-66.4 24.4-66.4 61.6 0 36.1 11.8 45.7 147.5 109.4 140.9 65.8 183.6 149.6 183.6 225.1 0 125.3-70.2 244.4-270.3 244.4C110.9 854.2-4.9 740.4.2 586.4zm1143.5 267.8h-218.8l-31.3-807 230 287zm-539.9 0H565.6l-31.3-807h218.9zm1521 0h-225.8L1619 195.8l121.8-148.6z" class="st2" style="fill:#fff"/><path d="m1797.2 813.5-197.4 40.7-450.5-643.9-75-163.1H1261zm-472.8 40.7h-235.6L563.5 103.4l196.7-56.2L1300 817.8z" class="st2" style="fill:#fff"/><path d="M776.4 419.2h168V897h-168z" class="st2" style="fill:#fff" transform="rotate(-90 860.36 658.05)"/><path d="M1798.8 854.2h-199l-21.9-52.4-29.3-754.6h192.2l31.6 125.3zm641.8-147.6c-18.9-33.7-30.2-92 22.8-178.8 54-88.3 109.8-106.8 147.2-106.8 19 0 32.7 4.8 39 7.6l267.3-381.5H1785.8l450.8 643.2 1.7 3.9 113.1 159.9 4-5.7 92-131.3c-2.4-3.3-4.7-6.8-6.8-10.5m1224.7-514.9c16.1 13.7 179.2-117.3 174.6-178.6-5.2-69.4-199.4 157.5-174.6 178.6" class="st2" style="fill:#fff"/><path d="M3808.5 387.6c-17.4-17.8-73.7 68.4-131.6 58.8-30.5-5.1-27.5-34.6-24.8-47.2a8.7 8.7 0 0 1 6.8-6.6c59.7-12.4 165.2-129.1 129.4-170.7-33.5-39-127.8 21.9-160.6 64.3-39.2 50.6-75.9 120.6-105.6 156.6-58.7 71.1-51.7 3.3-41.7-17.9 21.1-44.6 38.5-130.6 10.7-148.9-24.2-15.9-61.3 30.6-73.8 48.8-31.4 45.6-55.1 36-40.6-2.7 18.9-50.1 41.9-121.7 13.1-131.6-39.5-13.6-85.3 127.7-98.1 175.3-12.1 45.2-76.5 210.2-116.9 185.6-26.3-16.1 1.2-88.9 13.3-115.2 27.5-59.5 34.2-86.1 14-94.3-44.2-18-103.5 128.1-120.6 157.2-29.7 50.6-84.4 112.8-87.1 52.3s93-136.4 56-165.1c-36.9-28.7-99.1 99.1-99.1 99.1-38.3 87.1-56.4 69.7-56.4 69.7-5.4-91.8-42.3-146.4-86.8-146.4-45.1 0-83.4 50.1-100.7 106.3-7.9 37.4-40.6 108.4-108.2 148.8-37.4 22.3-112.6 30.8-82.5-53.5 0 0 26-65.1 70.2-47.4 34.2 13.7 87.5-92 54.7-111.6 0 0-78-42-158.1 89.1-84.9 138.8 5.5 202.8 52.8 202.3 56.2-.6 134.2-94.3 145.5-110.2 7.9-11 19-23.1 24.2-9 21.7 59.4 61 72 89.6 71.1 43.5-1.3 61.5-45.4 81.3-69 18.2-21.6 71.1-80.2 72.2-41.9 1.7 57.9 81.9 89.1 110 27.8 25.9-56.5 50.1-48.1 54.2-23.4 9 53.9 42.5 43.7 42.5 43.7 50.2 0 106.1-104.5 125.9-147.8 16.9-37 27.3-18.5 25.1 12.5-4.2 57.9-23.8 114-33.1 154.8-10.9 47.5 7.2 117.9 40 117.9 23.6 0 31.4-128.8 28.4-165.2 0-40.3 47.1-31.4 80.4-34.2 54.2-4.6 89.9-51.6 137.7-118 2.7-3.7 8.5-2.9 9.9 1.5 20.3 62.4 59.6 66.3 86.7 61.9 75.6-12.3 162.9-116.2 151.7-127.6m-83.8-120c15 18.5-39.2 89.1-63.9 74.5-19.1-11.3 50.3-91.2 63.9-74.5m-911.4 366.7c-32.5 26.3-56.5.3-56.4-27.1.1-23.8-5.6-57.9 19.1-88.5 20.5-25.4 42.1-33.8 40.7-6.1-.8 16.6-4.2 31.6 9.9 59.5 17.5 34.4 10.1 43.2-13.3 62.2m614.1-183.1c-14.4 29-26 45.4-45.2 40.6-13.1-3.3-12.5-30.5.4-60.2 15.7-36.1 37.8-62.4 50.2-57s14.4 36.9-5.4 76.6" class="st2" style="fill:#fff"/></svg>