<?xml version="1.0" encoding="UTF-8" standalone="no"?><svg fill="none" viewBox="0 0 264 46" version="1.1" id="svg10" xmlns="http://www.w3.org/2000/svg" xmlns:svg="http://www.w3.org/2000/svg"><path fill="currentColor" d="M38.32 33.44h18.03v3.08H38.32z" id="path1" style="fill:#ffffff"/><path fill="currentColor" d="M40.14 31.99h2.81v8.35h-2.81z" id="path2" style="fill:#ffffff"/><path fill="currentColor" d="M51.95 38.23V32h2.56v5.99c0 3.94-2.74 7.47-8.35 7.47H40.2v-3.43h6.57c3.46 0 5.18-1.6 5.18-3.79m16.27.88v1.14c0 1.16-.76 1.76-1.78 1.76h-8.06v3.43h7.99c2.35 0 4.23-1.59 4.23-3.83v-3.25m-11.08-6.41h14.65v3.25H59.52z" id="path3" style="fill:#ffffff"/><path fill="currentColor" d="M58.38 36.49h16.85v3.07H58.38zm33.28 2.63v1.14c0 1.16-.75 1.76-1.78 1.76h-11.4v3.43H89.8c2.35 0 4.23-1.59 4.23-3.83v-5.13" id="path4" style="fill:#ffffff"/><path fill="currentColor" d="M77.01 36.49h17.03v3.07H77.01zm1.19-4.53h14.88v3.25H78.2zm29.76 3.57H97.21v3.06h10.75z" id="path5" style="fill:#ffffff"/><path fill="currentColor" d="M98.56 31.93v8.33c0 1.16.75 1.76 1.78 1.76h12.62v3.43H100.4c-2.35 0-4.23-1.59-4.23-3.83v-9.69" id="path6" style="fill:#ffffff"/><path fill="currentColor" d="M112.96 36.56H97.21v2.42h15.75zm-4.04-4.57h1.63v3.58h-1.63zm2.43 0h1.62v3.58h-1.62zm3.42 10.36H129v3.1h-14.23zm1.45-6.48h9.53v3.1h-9.53z" id="path7" style="fill:#ffffff"/><path fill="currentColor" d="M123.66 35.87h2.1v8h-2.1zm6.02.97h16.51v3.37h-16.51zM60.37 11.82a5.1 5.1 0 0 1 5.1 5.1v5.27a5.1 5.1 0 0 1-5.1 5.1H37.63v-4.52H57.4c1.36 0 2.46-1.1 2.46-2.46V18.9c0-1.36-1.1-2.46-2.46-2.46H42.7a5.15 5.15 0 0 1-5.1-5.2V5.85c0-2.88 2.29-5.21 5.1-5.21h20.57v4.62H45.7a2.5 2.5 0 0 0-2.46 2.5v1.45c0 1.39 1.1 2.6 2.46 2.6h14.68m8.25-3.06v4.53H80.5c1.02 0 1.94.82 1.94 1.82l-13.51 3.54a2.2 2.2 0 0 0-1.61 2.1v1.48a5.1 5.1 0 0 0 5.1 5.1h10.8a5.1 5.1 0 0 0 5.1-5.1v-8.37a5.1 5.1 0 0 0-5.1-5.1zm13.9 10.53v1.78c0 1.06-.85 1.91-1.9 1.91h-5.9c-.91 0-1.6-.63-1.77-1.27zm15.49-5.98h3.94V8.57h-3.94V.6h-5.65v8h-2.35v4.71h2.35v11.67a2.4 2.4 0 0 0 2.4 2.4h6.87v-4.75h-3.62zm26.46 13.99v-4.53h-13.23c-1.01 0-1.93-.82-1.93-1.83l13.5-3.53a2.2 2.2 0 0 0 1.62-2.1v-1.48a5.1 5.1 0 0 0-5.1-5.1h-10.8a5.1 5.1 0 0 0-5.1 5.1v8.37a5.1 5.1 0 0 0 5.1 5.1zm-15.25-10.53v-1.78c0-1.06.85-1.92 1.91-1.92h5.9c.9 0 1.59.64 1.76 1.28zM127.38.6h5.47v26.78h-5.47zm8.42 0h5.47v26.78h-5.48zm8.73 8.15v4.53h11.88c1.02 0 1.94.82 1.94 1.82l-13.5 3.54a2.2 2.2 0 0 0-1.62 2.1v1.48a5.1 5.1 0 0 0 5.1 5.1h10.8a5.1 5.1 0 0 0 5.1-5.1v-8.37a5.1 5.1 0 0 0-5.1-5.1zm13.91 10.53v1.78c0 1.06-.86 1.91-1.91 1.91h-5.9c-.91 0-1.6-.63-1.76-1.27zm18.52 8.28c-2.18 0-3.5-.76-4.48-2.44l-8.32-16.47h6.15l7.42 14.34 7.42-14.34h6.15l-8.33 16.47c-.97 1.68-2.3 2.44-4.47 2.44zm15.83-18.91h5.47v18.73h-5.47zm2.76-1.95a3.08 3.08 0 1 0 0-6.15 3.08 3.08 0 0 0 0 6.16M222 27.29v-4.53h-13.22c-1.01 0-1.94-.82-1.94-1.83l13.51-3.53a2.2 2.2 0 0 0 1.61-2.1v-1.48a5.1 5.1 0 0 0-5.1-5.1h-10.8a5.1 5.1 0 0 0-5.1 5.1v8.37a5.1 5.1 0 0 0 5.1 5.1zm-15.25-10.53v-1.78c0-1.06.86-1.92 1.92-1.92h5.9c.9 0 1.59.64 1.76 1.28zm27.58 10.8c-2.18 0-3.5-.76-4.48-2.44l-8.32-16.47h6.15l7.41 14.34 5.12-14.34h5.1l-5.15 16.24c-.75 1.64-2.12 2.67-4.3 2.67z" id="path8" style="fill:#ffffff"/><path fill="currentColor" d="M251.2 27.56c2.18 0 3.5-.76 4.48-2.44L264 8.65h-6.15l-7.42 14.34-5.11-14.34h-5.11l5.15 16.24c.75 1.64 2.12 2.67 4.3 2.67zM.81 45.46h15.92c-4.62-1.7-11.6-8.49-14.19-12.59 2.76 7.55 3.3 10.86-1.73 12.6M26.35.5h6.14v12.95C30.73 8.22 28.7 3.6 26.35.5m-5.87 0h3.46c3.34 5.42 6.25 10.49 8.55 16.66V21c-3.56-8.02-7.25-15.83-12-20.5m12 27.23v-3.4C27.69 12.72 20.9 4.68 15.19.49H8.02c12.9 5.1 20.4 15.65 24.46 27.25" id="path9" style="fill:#ffffff"/><path fill="currentColor" d="M30.26 41.58c-3.9 6.42-14.05 5.23-22.89-5.3C.3 27.88-2.12 16.55 2.03 10 5.9 3.91 17.4 6.51 23.8 14.24c6.3 7.6 11.54 19 6.47 27.34M23.24 29.5c-2.86 0-5.19 1.85-5.19 4.12s2.33 4.12 5.2 4.12c2.86 0 5.18-1.84 5.18-4.12 0-2.27-2.32-4.12-5.19-4.12m-1.8-11.43c-.95 0-1.81.31-2.44.97-1.23 1.3-1.13 3.9.23 6.23q.39-.06.78-.06a5.2 5.2 0 0 1 5.24 4.19 3.3 3.3 0 0 0 2.66-.87c1.55-1.58 1-5.32-1.46-7.94-1.53-1.64-3.4-2.52-5-2.52M9.94 15.44c-1.05 0-1.99.36-2.65 1.14-1.26 1.5-.95 4.02.39 6.25q.72-.16 1.48-.16c2.98 0 5.43 1.87 5.53 4.23q1.11-.22 1.85-1.08c1.63-1.93.6-5.56-1.85-8.07-1.46-1.5-3.22-2.3-4.75-2.31m2.12 11.73c-2.86 0-5.19 1.85-5.19 4.12s2.33 4.12 5.2 4.12c2.86 0 5.18-1.84 5.18-4.12 0-2.27-2.32-4.12-5.19-4.12" id="path10" style="fill:#ffffff"/></svg>