<svg xmlns="http://www.w3.org/2000/svg" viewBox="880.04 77.2 2958.96 316.1"><path d="M2911.1 90.2h-191.9c-15.9 0-28.9 12.9-28.9 28.9 0 15.9 12.9 28.9 28.9 28.9h67.1v207c0 15.9 12.9 28.9 28.9 28.9s28.9-12.9 28.9-28.9V148h67.1c15.9 0 28.9-12.9 28.9-28.9-.1-15.9-13-28.9-29-28.9m-251.2 44c-14.9-30.5-43.9-57-75.6-57s-60.7 26.5-75.6 57c-26 53-50.6 121.7-75.2 210.1a29.25 29.25 0 0 0 28.2 37.1c12.8 0 24.6-8.5 28.2-21.4 5.4-19.5 10.9-37.9 16.3-55.4h156.3c5.4 17.5 10.8 35.9 16.3 55.4a29.14 29.14 0 0 0 36 20.3 29.14 29.14 0 0 0 20.3-36c-24.7-88.4-49.3-157.1-75.2-210.1m-134.6 112.7c11.9-33.2 23.8-62.1 36-86.9 5.2-10.6 13.6-24.2 23-24.2 9.5 0 17.9 13.6 23.1 24.2 12.2 24.9 24.1 53.7 36 86.9zm-589-112.7c-14.9-30.5-43.9-57-75.6-57s-60.7 26.5-75.6 57c-26 53-50.6 121.7-75.2 210.1a29.25 29.25 0 0 0 28.2 37.1c12.8 0 24.6-8.5 28.2-21.4 5.4-19.5 10.9-37.9 16.3-55.4h156.2c5.4 17.5 10.8 35.9 16.3 55.4a29.14 29.14 0 0 0 36 20.3 29.14 29.14 0 0 0 20.3-36c-24.6-88.4-49.2-157.1-75.1-210.1m-134.7 112.6c11.9-33.2 23.8-62.1 36-86.9 5.2-10.6 13.6-24.2 23-24.2 9.5 0 17.9 13.6 23.1 24.2 12.2 24.9 24.1 53.7 36 86.9zm-99.3-2.9c0-.8 0-1.6-.1-2.3 0-.2 0-.4-.1-.6l-.3-2.3c0-.2-.1-.4-.1-.6-.2-.7-.3-1.5-.6-2.2-.1-.2-.1-.4-.2-.6-.2-.7-.5-1.4-.8-2.1-.1-.2-.2-.4-.2-.6-.3-.7-.6-1.3-.9-2l-.3-.6c-.4-.6-.7-1.2-1.1-1.8-.1-.2-.2-.4-.4-.5-.4-.6-.8-1.1-1.3-1.7-.1-.2-.3-.3-.4-.5-.5-.5-.9-1.1-1.4-1.6l-.5-.5c-.5-.5-1-1-1.5-1.4-.2-.1-.4-.3-.5-.4-.5-.4-1.1-.8-1.7-1.2-.2-.1-.4-.3-.6-.4l-1.7-1.1c-.2-.1-.5-.2-.7-.4l-1.8-.9c-.3-.1-.6-.2-.8-.3-.6-.2-1.2-.5-1.8-.6-.3-.1-.6-.2-1-.3-.6-.2-1.2-.3-1.7-.4-.4-.1-.7-.1-1.1-.2l-1.7-.3c-.4 0-.8-.1-1.2-.1s-.7-.1-1.1-.1h-110.2c-15.9 0-28.9 12.9-28.9 28.9 0 15.9 12.9 28.9 28.9 28.9h76.4c-13.2 53.6-55.9 62.5-85.6 62.5-58.9 0-100.1-44.6-100.1-108.4 0-46.6 47.7-89 100.1-89 32.1 0 55.9 7.3 82.1 25.1 13.2 9 31.1 5.5 40.1-7.6 9-13.2 5.5-31.1-7.6-40.1-35.7-24.3-71-35.1-114.5-35.1-40.9 0-80 15.4-110.3 43.5-30.2 27.9-47.5 65.6-47.5 103.2 0 48.4 16.1 90.3 46.6 121 28.9 29.1 68.4 45.1 111.2 45.1 40.2 0 75.5-11.6 102.2-33.5 22.2-18.2 42.8-52.8 45-114.6v-1c-.3 0-.3-.1-.3-.3" style="fill:#fff;fill-rule:nonzero"/><path d="M1368.9 326.1h-135.5v-65.2h94.8c15.9 0 28.9-12.9 28.9-28.9 0-15.9-12.9-28.9-28.9-28.9h-94.8v-55.3h135.5c15.9 0 28.9-12.9 28.9-28.9 0-15.9-12.9-28.9-28.9-28.9h-164.4c-15.9 0-28.9 12.9-28.9 28.9v235.9c0 15.9 12.9 28.9 28.9 28.9h164.4c15.9 0 28.9-12.9 28.9-28.9-.1-15.8-13-28.7-28.9-28.7m1061.3-38c-3.8-46.9-41.7-82.6-87.2-82.6h-94.8c-16 .6-29.5-12.2-30.9-29.3-.9-13.3 5.6-26.6 14-28.5l1.6-.4c37.6-10.7 117.8-7.9 145.9 2.3 15 5.4 31.5-2.4 36.9-17.4s-2.4-31.5-17.4-36.9c-41.4-14.9-133.8-16.7-180.6-3.6-36.1 8.6-61.1 46.6-58 88.8v.3c3.8 46.9 41.7 82.6 87.2 82.6h94.8c16-.6 29.5 12.2 30.9 29.3.9 13.3-5.6 26.6-14 28.5l-1.6.4c-37.6 10.7-117.8 7.9-145.9-2.3-15-5.4-31.5 2.4-36.9 17.4s2.4 31.5 17.4 36.9c22.7 8.2 60.8 12.4 98.3 12.4 30.8 0 61.2-2.9 82.3-8.8 36.1-8.6 61.1-46.6 58-88.8zm-1279.4 0c-3.8-46.9-41.7-82.6-87.2-82.6h-94.8c-16 .6-29.5-12.2-30.9-29.3-.9-13.3 5.6-26.6 14-28.5l1.6-.4c37.6-10.7 117.8-7.9 145.9 2.3 15 5.4 31.5-2.4 36.9-17.4s-2.4-31.5-17.4-36.9c-41.4-14.9-133.8-16.7-180.6-3.6-36.1 8.6-61.1 46.6-58 88.8v.3c3.8 46.9 41.7 82.6 87.2 82.6h94.8c16-.6 29.5 12.2 30.9 29.3.9 13.3-5.6 26.6-14 28.5l-1.6.4c-37.6 10.7-117.8 7.9-145.9-2.3-15-5.4-31.5 2.4-36.9 17.4s2.4 31.5 17.4 36.9c22.7 8.2 60.8 12.4 98.3 12.4 30.8 0 61.2-2.9 82.3-8.8 36.1-8.6 61.1-46.6 58-88.8zM3209.9 77.8c-15.7 0-28.4 12.7-28.4 28.4v175.4c0 27.1-38.6 50.9-82.7 50.9-44 0-82.7-23.8-82.7-50.9V106.2c0-15.7-12.7-28.4-28.4-28.4s-28.4 12.7-28.4 28.4v175.4c0 30.1 16.2 59 44.4 79.1 25.7 18.4 59.5 28.5 95 28.5s69.2-10.1 95-28.5c28.2-20.1 44.4-49 44.4-79.1V106.2c.2-15.7-12.5-28.4-28.2-28.4m257.7 193.5c-1.9-1.8-.8-5.1 1.9-5.3 52.7-3.3 68.4-42.8 71.1-76.4v-.3c1.7-23.8-7.6-49.1-24.8-67.6-13.4-14.4-37.9-31.5-78.9-31.5-30.4 0-64.6.5-93.7 1.4-47.8 1.5-51.2 2.7-55.7 4.4a28.7 28.7 0 0 0-19 27v230.4c0 16.4 13.7 29.6 30.2 28.8 15.5-.7 27.5-14.1 27.5-29.6V150c25.3-1 67.2-2.1 110.7-2.1 16.2 0 28.5 4.4 36.6 13.1 8.2 8.8 9.8 19.2 9.5 24.1-.7 8.9-3.1 35.2-50.3 35.2H3408c-12.7 0-24.5 7.2-29.6 18.8a31.25 31.25 0 0 0 7.3 35.6l108.6 101.8c5.6 5.2 12.7 7.8 19.7 7.8 7.7 0 15.4-3.1 21.1-9.1a28.9 28.9 0 0 0-1.3-40.8zm343-180.6c-15.7 0-28.4 12.7-28.4 28.4v161.7l-162.5-180.7a28.2 28.2 0 0 0-31.3-7.5c-11 4.2-18.2 14.8-18.2 26.5V355c0 15.7 12.7 28.4 28.4 28.4s28.4-12.7 28.4-28.4V193.3L3789.5 374a28.38 28.38 0 0 0 49.5-19V119.1c0-15.7-12.7-28.4-28.4-28.4" style="fill:#fff;fill-rule:nonzero"/></svg>