<svg xmlns="http://www.w3.org/2000/svg" id="Layer_1" x="0" y="0" viewBox="0 0 3839 793.5"><style>.st19{fill:#fff}</style><defs><circle id="SVGID_00000117678822606108884090000003376595495231806908_" cx="303.9" cy="402.9" r="190"/></defs><clipPath id="SVGID_00000012452901929582252420000007694514090217510304_"><circle cx="303.9" cy="402.9" r="190" style="overflow:visible"/></clipPath><path d="M255.9 592.4 102.5 437.8l28.6 59.4 94.1 91.5z" class="st19" style="clip-path:url(#SVGID_00000012452901929582252420000007694514090217510304_)"/><defs><path id="SVGID_00000164474925428983558410000006253370141921507481_" d="M212 475c25.5-5.7 51.1-11.3 76.4-17.9 25.5-6.6 50.5-14.8 75.2-23.8 24.6-9 49-18.6 73.4-28.4 11.5-4.6 23.1-8.8 34.9-12.9 7.1-2.5 14.2-5 21.1-7.9-2.9-29.4-12.5-56.8-27.3-80.7-21.8 7.8-44.4 13.3-66.6 19.8-24.8 7.3-49.5 14.7-74.1 22.8s-49 16.5-73.7 24.2c-24.9 7.8-49.9 15.1-74.6 23.2-20.7 6.8-41.2 14.6-62.4 19.9 1.5 28.2 9.2 54.8 21.7 78.4 25.7-3.4 50.7-11 76-16.7"/></defs><clipPath id="SVGID_00000072266858904626051090000014861300645515527814_"><path d="M212 475c25.5-5.7 51.1-11.3 76.4-17.9 25.5-6.6 50.5-14.8 75.2-23.8 24.6-9 49-18.6 73.4-28.4 11.5-4.6 23.1-8.8 34.9-12.9 7.1-2.5 14.2-5 21.1-7.9-2.9-29.4-12.5-56.8-27.3-80.7-21.8 7.8-44.4 13.3-66.6 19.8-24.8 7.3-49.5 14.7-74.1 22.8s-49 16.5-73.7 24.2c-24.9 7.8-49.9 15.1-74.6 23.2-20.7 6.8-41.2 14.6-62.4 19.9 1.5 28.2 9.2 54.8 21.7 78.4 25.7-3.4 50.7-11 76-16.7" style="overflow:visible"/></clipPath><path d="M99.4 574.1c-9.2 0-18.1-.2-26.9-.6-13.2-.6-23.7-11.6-23.2-24.9.5-13.4 11.8-23.8 25.2-23.1 74.9 3.8 176.4-11 271.5-39.5 92.9-28 166.2-64.5 196-97.9 3.5-3.9 8.6-10.3 10.9-16.8 1.5-4.4-1.2-9.2-5.9-10-10-1.6-32.3-1.9-80.4 9.7-51 12.2-114.5 33.3-175.9 53.8-63.6 21.2-123.6 41.2-171.6 52.3C71 488.3 19.7 494.7 4.7 458.4c-6-14.3-9.2-36.9 9.2-63.4 39.6-56.9 160.9-100 229.7-120.6 103.1-31.1 213.1-49.4 280.1-46.8 13.3.5 23.6 11.6 23.1 24.9a23.96 23.96 0 0 1-24.9 23.1c-62.2-2.4-166 15.1-264.7 44.7-103.8 31-182 70.1-204.2 101.9a41 41 0 0 0-2.8 4.6c-2.1 3.9-.4 10.4 6.6 11 10.5.9 30.5-1.5 66.8-11.3 43.6-11.6 96.2-28.7 152-47.3 159.3-53.1 259.2-83.4 303.3-56.7 12.3 7.4 20.1 18.8 22.3 33 3.5 21.5-4.4 43.2-23.6 64.5-36 40.2-115.5 81-218 111.8-90.4 27.3-183.5 42.3-260.2 42.3" style="clip-path:url(#SVGID_00000072266858904626051090000014861300645515527814_);fill:#fff"/><path d="M448.2 279.4c27.9-3.3 53-4.7 73.5-3.9 13.3.5 24.4-9.8 24.9-23.1s-9.8-24.4-23.1-24.9c-33.2-1.3-76.9 2.6-125.1 10.6 19 10.9 35.8 24.9 49.8 41.3M56.8 437.8c-7-.6-8.6-7.1-6.6-11 .7-1.4 1.6-3 2.8-4.6 10.2-14.6 32.1-30.7 62.9-46.9 3.3-22.4 10.4-43.5 20.8-62.7-51 21.9-100.3 49.9-123 82.4-18.3 26.4-15.1 49.1-9.2 63.4 15 36.3 66.4 29.8 114.6 18.7 2.9-.7 5.8-1.4 8.8-2.1-6-14.7-10.2-30.2-12.4-46.4-31.2 8-49 10.1-58.7 9.2m544.4-82.3c-2.3-14.2-10-25.6-22.3-33-21.4-12.9-55.9-12.5-104-2.5 7 14.4 12.2 29.8 15.4 45.9 32.2-6.3 48.7-5.9 56.9-4.5 4.6.8 7.4 5.6 5.9 10-2.3 6.5-7.4 12.9-10.9 16.8-11 12.3-28 25.1-49.6 37.6-2.7 22.7-9.4 44.2-19.4 63.7 47.1-21.9 83.4-45.8 104.6-69.4 19-21.4 26.9-43.1 23.4-64.6M156.9 523.3c-29.6 2.7-57.4 3.5-82.3 2.2-13.4-.7-24.7 9.7-25.2 23.1-.5 13.3 10 24.3 23.2 24.9 8.7.4 17.7.6 26.9.6 33.1 0 69.2-2.8 106.8-8.2a192 192 0 0 1-49.4-42.6" class="st19"/><path d="M398.5 238.2c-27.8-16-60.1-25.2-94.6-25.2-72.2 0-135 40.3-167.1 99.6 38.2-16.4 77.3-29.4 106.7-38.2 52.1-15.7 105.9-28.1 155-36.2M116 375.3a194 194 0 0 0-.3 53.4c2.6-.7 5.2-1.4 8-2.1 43.6-11.6 96.2-28.7 152-47.3 82-27.3 148.2-48.6 199.2-59.2-7.1-14.7-16.1-28.3-26.6-40.6-56.6 6.6-125 21-191.1 40.8-56.2 16.7-104.9 35.9-141.2 55m90.3 190.6c28.5 17.1 61.9 27 97.7 27 73.8 0 137.7-42 169.2-103.4-32.9 15.3-71.2 29.7-113.4 42.3-51.6 15.5-103.9 27-153.5 34.1m286.2-140.1c.9-7.5 1.4-15.1 1.4-22.8 0-12.7-1.2-25.1-3.6-37a851 851 0 0 0-23.5 5.1c-51 12.2-114.5 33.3-175.9 53.8-59.8 19.9-116.4 38.8-162.8 50.2 7.2 17.6 17 33.8 28.8 48.3 59.4-5.4 125.7-18.3 189.2-37.3 58.6-17.8 109.4-38.8 146.4-60.3" style="fill:none"/><defs><circle id="SVGID_00000085973001940163101520000015645128212965472437_" cx="303.9" cy="402.9" r="190"/></defs><clipPath id="SVGID_00000044869115897451094880000017853217653295520151_"><circle cx="303.9" cy="402.9" r="190" style="overflow:visible"/></clipPath><path d="M324.6 136.8s104 124.7 128.6 148.5c23.7 22.9 170.8 148 170.8 148l-4.3 19.9-319.9-310.9" class="st19" style="clip-path:url(#SVGID_00000044869115897451094880000017853217653295520151_)"/><path d="M304.5 152.3s105.3 124.6 129.9 148.4c23.7 22.9 169.4 148.4 169.4 148.4l-5.1 19.4-318.3-310.3" class="st19" style="clip-path:url(#SVGID_00000044869115897451094880000017853217653295520151_)"/><path d="M284.5 167.8S391 292.3 415.6 316.1c23.7 22.9 168 148.9 168 148.9l-5.9 18.9-316.8-309.8" class="st19" style="clip-path:url(#SVGID_00000044869115897451094880000017853217653295520151_)"/><path d="M264.4 183.2s107.8 124.5 132.4 148.2c23.7 22.9 166.5 149.3 166.5 149.3l-6.7 18.4L241.5 190" class="st19" style="clip-path:url(#SVGID_00000044869115897451094880000017853217653295520151_)"/><path d="M244.3 198.7s109.1 124.4 133.6 148.1C401.6 369.7 543 496.6 543 496.6l-7.5 17.9L222 205.9" class="st19" style="clip-path:url(#SVGID_00000044869115897451094880000017853217653295520151_)"/><path d="M224.2 214.1s110.3 124.3 134.9 148c23.7 22.9 163.7 150.2 163.7 150.2l-8.3 17.4-312-308" class="st19" style="clip-path:url(#SVGID_00000044869115897451094880000017853217653295520151_)"/><path d="M204.2 229.6s111.6 124.2 136.2 148c23.7 22.9 162.2 150.7 162.2 150.7l-9.1 16.9-310.4-307.5" class="st19" style="clip-path:url(#SVGID_00000044869115897451094880000017853217653295520151_)"/><path d="M184.1 245s112.8 124.1 137.4 147.9c23.7 23 160.8 151.1 160.8 151.1l-9.9 16.4-308.7-306.8" class="st19" style="clip-path:url(#SVGID_00000044869115897451094880000017853217653295520151_)"/><path d="M164 260.5s114.1 124 138.7 147.8c23.7 22.9 159.4 151.6 159.4 151.6l-10.7 15.9-307.2-306.3" class="st19" style="clip-path:url(#SVGID_00000044869115897451094880000017853217653295520151_)"/><path d="M144 276s115.3 123.9 139.9 147.7c23.7 22.9 157.9 152 157.9 152L430.3 591 124.8 285.4" class="st19" style="clip-path:url(#SVGID_00000044869115897451094880000017853217653295520151_)"/><path d="M123.9 291.4S240.5 415.2 265.1 439c23.7 22.9 156.5 152.5 156.5 152.5l-12.3 14.9-304-305.1" class="st19" style="clip-path:url(#SVGID_00000044869115897451094880000017853217653295520151_)"/><path d="M103.8 306.9s117.8 123.7 142.4 147.5c23.7 22.9 155.1 152.9 155.1 152.9l-13.1 14.4L85.9 317.2" class="st19" style="clip-path:url(#SVGID_00000044869115897451094880000017853217653295520151_)"/><path d="M83.8 322.3S202.9 446 227.5 469.7c23.7 22.9 153.6 153.4 153.6 153.4L367.2 637 66.4 333.1" class="st19" style="clip-path:url(#SVGID_00000044869115897451094880000017853217653295520151_)"/><path d="M63.7 337.8S184 461.4 208.6 485.1c23.7 22.9 152.2 153.8 152.2 153.8l-14.6 13.4L47 349" class="st19" style="clip-path:url(#SVGID_00000044869115897451094880000017853217653295520151_)"/><path d="M43.6 353.3s121.6 123.5 146.2 147.2c23.7 22.9 150.8 154.3 150.8 154.3l-15.4 12.9L27.5 364.9" class="st19" style="clip-path:url(#SVGID_00000044869115897451094880000017853217653295520151_)"/><path d="M166.09 503.58h14.9v63.9h-14.9z" class="st19" style="clip-path:url(#SVGID_00000044869115897451094880000017853217653295520151_)" transform="rotate(-41.56 173.53 535.57)"/><path d="M438.7 248.7h13.6v44h-13.6z" class="st19" style="clip-path:url(#SVGID_00000044869115897451094880000017853217653295520151_)" transform="rotate(-45 445.5 270.7)"/><path d="M2044.6 6.3c3-1.5 6.5-3.2 10.5-5 13.2-6.2 23.7 12.3 11.6 20.5-4.2 2.9-8 5.5-11.1 7.6-38.8 27.2-72.7 59.2-72.7 167.4 0 135.9 112.5 268.4 112.5 366.9 0 76.4-21.6 146.5-191.1 228.7-5.6 2.7-12.2.6-15.3-4.7-3.3-5.7-1.1-13 4.6-16.1 67.7-36.2 87.6-111.2 84.7-175.6-6-134-114.5-249.2-112.5-359.1 1.2-65.6 27.2-154.3 178.8-230.6" class="st19"/><path d="M1938.7 552.3c-9.6-3.6-29.1-13.9-41.4-41.1L1763 213.4c-5.7-12.7-23.5-13.2-29.9-.9l-99.4 188.7a29.7 29.7 0 0 1-26.3 15.9h-123.2c-4 0-8 3.2-8.6 7.1-.8 5.1 2.9 9.5 7.8 9.9 33.1 3 53 25.1 52.7 60.8-.2 32.9-27.7 59.9-60.7 59.9h-8.6c-88.3 0-92.1-101.4-92.1-123.6v-77.6c0-38.1 15.3-104.9 89.7-104.9 69.5 0 108.5 32 140.3 74.4 5.2 7 16.3 1.2 13.6-7.1l-27.9-87.4a13.74 13.74 0 0 0-20.2-7.5c-20.5 12.6-32.5 10.5-32.5 10.5-10.1.3-42.2-8.8-81.2-8.8-62.2 0-112.5 24.7-146.9 57.9a6.6 6.6 0 0 1-10.8-2.3l-15.4-37.5c-3.2-7.8-7.3-12.8-15.7-12.8h-177.2v-.1h-92.2c-5.9 0-11.6-.2-17.5-.5-31.6-1.7-142.6-7.5-199.4-7.5-71.2 0-127 22.3-132.6 74.8-4.2 39.5 23.2 60.1 38.9 74.5 8.5 7.8 48.5 33.1 69 42.6 21.4 9.9 106.8 52.7 98 86.6-8.8 33.6-37.7 41.9-71 41.9-52.3 0-108.4-43.3-150-82.1-7.2-6.8-18.4 1.6-13.9 10.5 17.2 33.6 39.2 74.5 53.6 96.1a17.2 17.2 0 0 0 18.7 7.2c15.5-3.9 35.6-6 47.8-5.4 15.7.7 48.6 5 63 5 119.8 0 157.3-31.5 161.2-86.1 5.4-75.1-84.3-125.1-138.9-147-48.8-19.7-67.7-49.3-65.6-64 3.4-25.5 27.7-29.8 48-29 63 2.4 181.8 33.1 181.8 76.3v200.5c0 11.2-12.2 31.4-27.7 31.4h-.3c-2.8 0-5.6 1-7.6 3-5.4 5.4-1.6 11.7 3.5 11.7h322.3c6.1 0 11.4-3.6 13.8-9.3l10.3-25.1c2-4.8 8.1-6.3 12-2.8 33.7 30.5 83.1 49.6 150.6 49.6 15.7 0 48.4-4.3 63.6-9.9 4.8-1.7 10-2.7 15.1-2.7h146.9c7.5 0 11.1-9.4 5.5-14.4-2.5-2.2-4.7-4.2-6.3-5.7-12-10.9-11.5-18.3-11.8-24.6-.3-6.2 1-12.3 3.9-17.9l89.6-170.2 76.5 169.9c2.6 5.7 3.8 11.9 3.3 18.1-.1.8-.1 1.5-.2 2.1-1.4 8-8.6 24.2-22.1 24.2h-2.2c-3.3 0-6.6 1.1-9.1 3.3-7.5 6.7-2.9 15.1 3.7 15.1H1936c5.2 0 9.4-4.7 8.3-10.1-.5-2.4-2.7-4.8-5.6-5.8m-657.9-236.5c-15.4 24.3-23.8 50-23.8 72.6 0 30.1 5.6 59.6 17.3 86 2.6 5.8 1.4 12.6-3 17.1-21.7 22-69.1 52.7-136.9 52.7h-16.6c-15.1 0-27.4-12.2-27.4-27.4v-97.2c0-5.1 7.7-11.5 16.4-9.8 13.3 2.6 36.6 10.9 55.3 21.7a267 267 0 0 1 38.5 26.8c6 4.9 15 .6 15-7.1V335.9c0-7.7-9.1-12-15-7.1a284 284 0 0 1-38.5 26.8c-18.6 10.7-42.7 22-55.9 25.1-10.2 2.4-13.8-1.6-15.7-5.5V279c0-14.4 11.7-26.1 26.1-26.1h33.5c54.9 0 105 31.5 129.1 52.3 3.1 2.5 3.8 7.2 1.6 10.6m2557.9-83.7c-.8-2.4-3.2-3.9-5.8-3.9h-102.1c-2.6 0-4.9 1.5-5.8 3.9-1.1 3.3.7 6.6 3.7 7.6 9.5 3.1 32.2 13.1 32.2 36.9v143.1c0 5.5-6.4 8.4-10.6 4.9l-150.4-124.8c-46.9-39-113.4-64.9-157.3-79.1-9.7-3.1-16.4 9.7-8.2 15.8 1.4 1.1 2.9 2.2 4.4 3.3 50.1 37.7 55.5 91.7 55.5 97.8v201.7c0 7.2-5.9 13.1-13.1 13.1-16.8 0-54.3-27.3-73.5-47.3-18-18.8-26.6-44.8-46.8-68.5-16.1-18.8-29.7-25.8-29.7-25.8 101.1 0 104.1-82 104.1-91.2 0-13.7 0-91.6-126.6-91.6h-341.8c-2.6 0-4.9 1.5-5.8 3.9-1.1 3.3.7 6.7 3.7 7.6 9.5 3.1 32.2 13.1 32.2 36.9v180.1c0 62.2-43.5 83-78.4 83-63.6 0-88-37.5-88-84.6V276.4c0-23.9 22.7-33.9 32.2-36.9 2.5-.8 4.1-3 4.1-5.6v-.1c0-3.2-2.6-5.9-5.9-5.9h-478.5c-7.1 0-13.7 4.1-16.8 10.5l-18.8 39c-3.2 6.7 4.4 13.3 10.6 9.2 25.2-17.1 67.6-36.7 129.6-39.1a12 12 0 0 1 12.4 12v246.9c0 11.7-4.3 20.8-10.2 27.7-4.5 5.4-11.3 8.4-18.4 8.4h-15.2c-4.9 0-9.9-1.3-14.1-4.1-9.7-6.3-18.8-15.1-24.4-27.5l-134.3-297.8c-5.8-12.7-23.5-13.2-29.9-.9l-139.7 265.1-40.3 76.4 2.8 14.6h135.7c7.5 0 11.1-9.4 5.5-14.4 0 0-.1 0-.1-.1-2.5-2.2-4.6-4.1-6.2-5.6-11.9-10.7-11.5-18.1-11.8-24.4s1-12.6 3.9-18.1l89.7-170.2 76.5 169.9c2.6 5.7 3.8 11.9 3.3 18.1-.1.8-.1 1.5-.2 2.1-1.4 8-8.6 24.2-22.1 24.2h-.2c-2.7 0-5.4.8-7.5 2.5-8.8 6.8-4.1 15.9 2.7 15.9h288.9c4.6 0 8.6-3.5 8.8-8.1a8.5 8.5 0 0 0-5.5-8.4c-11.3-4.3-36.3-17.2-36.3-45.4V259.5c0-7 5.7-12.3 12.7-12 47.9 1.9 84.2 14 109.7 27.4 4.1 2.2 6.7 6.4 6.7 11V445h.4c4.1 73.1 38.8 129.2 165.9 129.2 73.7 0 142.7-38.6 142.7-109.7V282.2c0-10.8 3.4-18.4 7.7-23.7 6.3-7.7 15.9-11.8 25.9-11.8h15c10 0 19.7 4.1 25.9 11.8 4.3 5.4 7.7 13 7.7 23.7v220.7c0 32.8-26 45.2-38.2 49.2a8.7 8.7 0 0 0-5.9 6.4c-1 5.4 3 10.1 8.2 10.1h172.4c3.5 0 6.8-2.1 8-5.4 1.7-4.7-.8-9.6-5.1-11-11.9-3.9-38.5-16.3-38.5-49.3V268.7c0-18.7 16.1-25.5 27.1-25.5h31.6c29.4 0 58.6 24.8 58.6 66.2 0 60.7-39.5 75.4-55.7 75.4-10.8 0-19.2.2-28.2-3.1 0 0-.1 0-.1-.1a7.11 7.11 0 0 0-9.9 8.5c.1.3.1.5.2.5 9.5 32.1 26.5 81.2 49.8 112.5 36.1 48.7 104.6 87.5 219.6 87.5h49.4c3.1 0 6-1.9 6.9-4.7 1.3-4-.9-8-4.6-9.2-9.9-3-30.9-11.9-30.9-34.3V380.9c0-5.5 6.4-8.4 10.6-4.9l238.7 198.2c6.9 5.7 17.2.8 17.2-8.1V276.7c0-23.9 22.7-33.9 32.2-36.9a6 6 0 0 0 4.1-7.7" class="st19"/></svg>