<svg xmlns="http://www.w3.org/2000/svg" viewBox="0 0 264 68"><path d="m262.54 24.97-6.64-.02h-.28l-.08.28-2.24 8.1-.01.05v.05l-.03 11.7h-4.75l1.1-12.83c.06-.7-.17-.77-.51-.17L230.65 64.2a2.1 2.1 0 0 1-1.88.96l-5.32-.57a2 2 0 0 1-1.6-1.34l-3.83-13.19h2.39V35.92h5.18l3.27 12.16c.18.66.6.71.93.1l17.26-31.57h7.3l.09-.26 3.17-9.54 5.25.46c.68.06 1.2.67 1.13 1.36zm-2.97 33.4h-3.45l-.1.21-.63 1.27-2.5.33-.3.04-.02.3-.49 6.92-4.19-.44c-.68-.07-1.2-.7-1.14-1.38l1.7-19.74H254v-.38l.03-12.02 2.14-7.77 6.29.02zM257.45 68l-4.62-.47.47-6.63 2.4-.32.19-.03.09-.18.6-1.23h2.92l-.69 7.74c-.06.69-.67 1.2-1.36 1.12m-46.2-41.24c-.2-.66-.43-.65-.53.04l-2.8 20.2h-5.16l-1.74-.95-.09-.05h-.09l-3.22-.02 3.9-26.29h5.41l.08-.26 1.48-4.67h11.4l5.5 20.42h-5.74V49.3h-1.85zm-6.76 35.85-7.97-.7a1.17 1.17 0 0 1-1.07-1.35l1.2-8.07L207 53.7l-1.08 7.75c-.09.69-.73 1.2-1.42 1.14m-3.75-15.86 1.74.95.09.05h5.25l-.73 5.22-10.33-1.23.75-5zm4.76-45.23 9.89 1c.68.06 1.4.67 1.57 1.33L219.7 14h-11.74l-.09.27-1.48 4.67h-4.74l2.42-16.3c.1-.7.75-1.2 1.44-1.12m46.53 5.97a2.1 2.1 0 0 1 1.85-1l2.96.26-3.03 9.11h-6.35zm-49.6-6.47-4.04 23.94h-4.58v2.38l-.99.98-.11.1v.16l-.03 7.95v.38h3.68L195 45.04l-2.85 2.25-2.66-.02h-.13l-.1.07-2.14 1.64-.15.12v3.52l-7.47 2.76-8.34-14.08 9.22-7.72 4.45 7.94c.34.6.7.54.79-.15l3.52-25.66h3.69l.1-.09 1.41-1.18.14-.12v-6.1l.9-.97.1-.1V5.07l.87-.77.13-.12V1.02l4.94-1c.68-.13 1.14.32 1.02 1m-8.97 27.72 1-.97.1-.11v-1.94h3.7l-1.76 10.44h-3.06zm-1.12 32.06a1.9 1.9 0 0 1-1.44 1.47l-5.36 1.01a1.9 1.9 0 0 1-1.87-.84l-3.79-6.4 7.6-2.8.24-.1v-3.67l1.88-1.45 2.67.02h.13l.1-.08 2.31-1.81zM153.58 9.28l10.57-2.2c.67-.13 1.5.24 1.84.85l2.22 3.95h-2.51l-.1.15-.67.91H161v5.02h-3.66l-4.36-7.35c-.35-.6-.08-1.2.6-1.33m7.8 9.44h.38V13.7h3.56l.1-.16.67-.9h2.54l11.38 20.27-9.24 7.73-12.98-21.92zm29.46-15.35a1.9 1.9 0 0 1 1.4-1.5l3.48-.7v2.67l-.87.78-.13.11v2.12l-.9.96-.1.1v6.06l-1.17.98h-3.3z" style="fill:#fff"/><path d="M28.28 42.87a12 12 0 0 1 1.16 5.45 10.5 10.5 0 0 1-4.58 8.95q-2.05 1.45-4.6 2.15-2.58.7-5.17.7-5.2 0-8.73-1.91A19 19 0 0 1 0 52.39l4.01-5.08a.9.9 0 0 1 1.4-.04s.47.51 1.26 1.13q1.18.94 2.57 1.64 1.38.71 2.82 1.16 1.44.46 2.69.46 1.24 0 1.89-.46.65-.44.65-1.7 0-1.06-1.16-2.03-1.16-.95-2.88-2L9.52 43.2a22 22 0 0 1-3.73-2.86 15 15 0 0 1-2.88-3.75 10 10 0 0 1-1.16-4.9q0-2.7 1.02-4.74t2.74-3.42a12 12 0 0 1 3.98-2.09q2.25-.7 4.8-.7 4.53 0 8.11 1.66a24 24 0 0 1 6.81 4.95l-3.25 5.01c-.32.5-.96.6-1.41.2 0 0-.82-.7-1.72-1.29q-1.36-.87-2.66-1.5-1.3-.61-2.43-.93a8 8 0 0 0-1.98-.3q-1 0-1.5.5a1.8 1.8 0 0 0-.47 1.3q0 1.01 1.15 1.9a22 22 0 0 0 2.91 1.8q1.75.93 3.76 2.1a21 21 0 0 1 3.76 2.79q1.76 1.64 2.9 3.93m13.81-2.2q.65-.7 1.46-1.06a4 4 0 0 1 1.61-.37q2.37 0 3.52 1.19c.77.79 1.12 1.59 1.12 1.59.23.55.9.88 1.48.73l6.83-1.7a14 14 0 0 0-4.34-7.55Q50.5 30.63 45 30.63q-3.38 0-6.02 1.04a12 12 0 0 0-4.45 2.99 13 13 0 0 0-2.73 4.67 19 19 0 0 0-.93 6.1q0 2.94.84 5.58a13 13 0 0 0 2.62 4.65 13 13 0 0 0 4.48 3.18 16 16 0 0 0 6.47 1.18q2.14 0 4.17-.65a12 12 0 0 0 3.71-1.97q1.69-1.32 2.96-3.35a20 20 0 0 0 1.57-3.74 1.07 1.07 0 0 0-.73-1.34l-6.61-1.9q-.18.9-.73 1.63a7 7 0 0 1-2.7 2.11q-.74.31-1.36.31a4.4 4.4 0 0 1-3.57-1.69A6.8 6.8 0 0 1 40.6 45q0-1.46.42-2.54.42-1.06 1.07-1.77m46.45 4.78-.29-7.14c-.09-2.43-.22-6.73-.22-6.73a1.1 1.1 0 0 0-1.11-1.07l-9.25.2.31 4.7a154 154 0 0 1 .34 7.5q.03 1.92.03 4.52 0 1.97-1.3 3.13a4.5 4.5 0 0 1-3.1 1.16q-1.92 0-2.88-1.16a4.2 4.2 0 0 1-.96-2.8c0-1.95.09-3.78.28-5.7q.28-2.81.56-5.2c.23-1.8.61-4.11.61-4.11a.88.88 0 0 0-.9-1.06l-9.64.1a141 141 0 0 0-.68 5.64 120 120 0 0 0-.48 5.14 67 67 0 0 0-.2 4.86q0 3.04.74 5.5a11 11 0 0 0 2.26 4.15 10 10 0 0 0 3.92 2.63q2.4.93 5.73.93.96 0 1.97-.26a10 10 0 0 0 3.67-1.75c.24-.18.66-.74 1-.62.44.16.19 1.15.19 1.48 0 .6.49 1.08 1.09 1.06l8.84-.2a643 643 0 0 0-.25-7.77zm39.6-9.5a9 9 0 0 0-3.55-3.12q-2.25-1.13-5.85-1.13a8.8 8.8 0 0 0-5.65 1.86q-.45.33-.84.7c-.2.18-.37.47-.65.52q-.1.02-.23.02c-.26-.02-.33-.2-.47-.4q-.57-.81-1.4-1.38a6 6 0 0 0-3.54-.98q-1.07 0-2.03.34-.95.33-1.71.87c-.43.3-.8.66-1.21.99-.2.16-.28.37-.56.36-.3-.02-.25-.4-.27-.6l-.08-.7-.05-.52a1.2 1.2 0 0 0-1.2-1.05l-8.09.2a297 297 0 0 1 .37 12.97q.03 3.24 0 6.84l-.03 6.85c0 .6.49 1.08 1.08 1.07l7.86-.13c.6-.01 1.09-.51 1.1-1.1l.32-15.47q0-.8.4-1.6.38-.82 1.85-.82.67 0 1.07.5.4.52.64 1.36.26.84.34 1.94t.09 2.28v4.78a167 167 0 0 1-.11 5.83l-.08 1.7c-.02.6.45 1.1 1.05 1.11l9.21.2q-.1-.84-.2-2.08-.08-1.24-.1-2.54l-.09-4.39q0-5.4.45-8.05.45-2.64 2.36-2.64 1.2 0 1.83.98.66.99.65 3.3 0 2.2-.53 5.6c-.36 2.27-1.48 7.19-1.48 7.19a.97.97 0 0 0 .84 1.19l9.28 1.16q.61-3.5 1.04-6.76.42-3.26.42-6.36 0-3.32-.48-6.1a13 13 0 0 0-1.77-4.79M171 40.74q-.47-2.8-1.77-4.79a9 9 0 0 0-3.55-3.12q-2.25-1.13-5.85-1.13a8.8 8.8 0 0 0-5.61 1.83q-.45.32-.85.7c-.22.2-.5.7-.85.6-.25-.08-.47-.36-.61-.56q-.56-.73-1.31-1.24a6 6 0 0 0-3.55-1q-1.07 0-2.03.35a7 7 0 0 0-3.1 2.18c-.09.08-.21.2-.34.16-.14-.03-.23-.24-.26-.37-.06-.22-.06-.46-.09-.68q-.04-.45-.09-.89a1.2 1.2 0 0 0-1.2-1.05l-8.08.2a303 303 0 0 1 .36 12.97q.03 3.24 0 6.84l-.03 6.85c0 .6.49 1.08 1.09 1.07l7.85-.13c.6-.01 1.1-.5 1.1-1.1l.32-15.47q0-.8.4-1.6.4-.82 1.85-.82.68 0 1.07.5.4.52.65 1.36t.34 1.94q.08 1.1.08 2.28v4.78a167 167 0 0 1-.18 7.53c-.02.6.44 1.1 1.04 1.11h.02l.9.02 1.92.04 2.36.05 2.23.05c.46.01.99.11 1.44 0 .37-.08.29-.38.28-.68-.01-.46-.1-.9-.13-1.36a60 60 0 0 1-.11-2.53l-.09-4.4q0-5.4.45-8.05.45-2.64 2.37-2.64 1.18 0 1.83.98.65.99.65 3.3 0 2.2-.54 5.6c-.36 2.27-1.48 7.19-1.48 7.19a.97.97 0 0 0 .84 1.19l.76.1 3.8.47 2.42.28 1.46.22c.3.03.68.19.93-.08.23-.26.21-.73.27-1.05a17 17 0 0 0 .17-1.46q.1-1.1.26-2.2l.25-1.87q.42-3.27.42-6.37 0-3.32-.48-6.1" style="fill:#fff"/></svg>