<svg xmlns="http://www.w3.org/2000/svg" xml:space="preserve" id="Layer_1" x="0" y="0" viewBox="0 0 3839 358.8"><style id="style2" type="text/css">.st0{fill:#ff221d}.st1{fill:#fdeb05}</style><g id="g2979"><g id="g44" style="fill:#fff;fill-opacity:1"><path id="path4" d="M1575.1 358.8c-8 0-11.3-1.6-14.2-3.6l16-71.1c27.8-4.2 39.3-23.3 45.2-73.9 14.6-126.7 99.2-134.1 108.7-134.5 1.1-.1 2.1-.1 3.1-.1 3 0 5.5.2 9.3.9l-17 75.4c-27.5 3.8-33.7 27.4-44.9 95.7-16.9 102.2-88.8 110.5-103 111.1-1.1 0-2.2.1-3.2.1" class="st0" style="fill:#fff;fill-opacity:1"/><path id="path6" d="M3027.5 358.8c-8 0-11.3-1.6-14.2-3.6l16-71.1c27.8-4.2 39.3-23.3 45.2-73.9 14.6-126.7 99.1-134.1 108.7-134.5 1.1-.1 2.1-.1 3.1-.1 3 0 5.5.2 9.3.9l-17 75.4c-27.5 3.8-33.7 27.4-44.9 95.7-16.9 102.2-88.8 110.5-103 111.1-1.2 0-2.2.1-3.2.1" class="st0" style="fill:#fff;fill-opacity:1"/><path id="path8" d="M1458 358.8c-8 0-11.3-1.6-14.2-3.6l16-71.1c27.8-4.2 39.3-23.3 45.2-73.9 14.6-126.7 99.2-134.1 108.7-134.5 1.1-.1 2.1-.1 3.1-.1 3 0 5.5.2 9.3.9l-17 75.4c-27.5 3.8-33.7 27.4-44.9 95.7-16.9 102.2-88.8 110.5-103 111.1-1.1 0-2.2.1-3.2.1" class="st0" style="fill:#fff;fill-opacity:1"/><path id="rect10" d="M2702.5 0h72.7v358.8h-72.7z" class="st0" style="fill:#fff;fill-opacity:1"/><path id="path12" d="M3440 75.6c-80.1 0-147.3 58.2-154.3 138.2s52.2 145 132.3 145 158.2-62.3 157.7-145c-.6-80.4-55.7-138.2-135.7-138.2m51 190.9c-19 19.1-46.3 30.6-73 30.6-21.1 0-40-7.9-53.1-22.2-13.3-14.5-19.6-34.2-17.7-55.6 4.1-46.7 44-81.9 92.8-81.9 45.3 0 73.6 29.5 74 76.9.1 23.9-12.4 41.6-23 52.2" class="st0" style="fill:#fff;fill-opacity:1"/><path id="path14" d="M1418.7 358.2h-63.8l31.3-139c.1-1.8.2-3.7.2-5.6-.3-47.4-28.7-76.9-74-76.9-48.8 0-88.7 35.2-92.8 81.9-1.9 21.4 4.4 41.1 17.7 55.6 13.1 14.3 32 22.2 53.1 22.2 18.7 0 37.7-5.6 53.9-15.5l-16.4 72.8-.4.1s-24.6 4.4-37.1 4.4c-80.1 0-139.3-64.9-132.3-145S1232.3 75 1312.4 75s135.1 57.9 135.7 138.2c.1 7.6-.6 15-1.8 22.1z" class="st0" style="fill:#fff;fill-opacity:1"/><path id="path16" d="M2122.9 144.8h48.1l12.9-57.3h-48.1L2155.5 0h-66.9l-58.8 260.7s-1.3 5.9-1.8 7.9c-10.7 45.6 1.2 90.2 60.5 90.2h8.5l32.2-57.3h-28.1c-11.9 0-11-12-8.1-24.5 7.2-31 29.9-132.2 29.9-132.2" class="st0" style="fill:#fff;fill-opacity:1"/><path id="path18" d="M2269.1 144.8h48.1l12.9-57.3H2282L2301.8 0h-66.9l-58.8 260.7s-1.3 5.9-1.8 7.9c-10.7 45.6 1.2 90.2 60.5 90.2h8.5l32.2-57.3h-28.1c-11.9 0-11-12-8.1-24.5 7.1-31 29.8-132.2 29.8-132.2" class="st0" style="fill:#fff;fill-opacity:1"/><path id="path20" d="M1137.1 358.4c-47.5-4.5-89.8-24.8-117.7-56.7-28.2-32.3-40.5-73.9-35.7-120.3C999.5 31.3 1130.7.8 1238.6 1.7l-13.8 61.8c-146.9 2.4-173.8 68.9-179.7 124.4-7.6 72.4 48.3 107.2 105.7 109.7z" class="st0" style="fill:#fff;fill-opacity:1"/><path id="path22" d="m2981.7 87.5-61.2 271.3h66.9c11.7-51.9 41.2-182.7 61.1-271.3z" class="st0" style="fill:#fff;fill-opacity:1"/><g id="g28" style="fill:#fff;fill-opacity:1"><path id="path24" d="M3298.8 57.3c7.6-33.5 12.9-57.3 12.9-57.3h-66.9l-12.9 57.3z" class="st0" style="fill:#fff;fill-opacity:1"/><path id="path26" d="m3225.1 87.5-61.2 271.3h66.9c11.7-51.9 41.2-182.7 61.1-271.3z" class="st0" style="fill:#fff;fill-opacity:1"/></g><g id="g32" style="fill:#fff;fill-opacity:1"><path id="path30" d="m3633.9 87.5-61.2 271.3h66.9c11.7-51.9 41.2-182.7 61.1-271.3z" class="st0" style="fill:#fff;fill-opacity:1"/></g><path id="path34" d="m3692.3 87.5-12.9 57.3h75.3c9.2 0 16.1 8.6 14 17.6l-44.3 196.4h66.9c9-40 28.7-127.1 46.3-205.3 7.6-33.8-18.1-65.9-52.8-65.9z" class="st0" style="fill:#fff;fill-opacity:1"/><g id="g38" style="fill:#fff;fill-opacity:1"><path id="path36" d="M3026.1 0h-51.6c-21.4 0-41.2 10.9-52.6 29l-208.2 329.8h86L2990 57.3h65.5C3063 23.8 3068.4 0 3068.4 0Z" class="st0" style="fill:#fff;fill-opacity:1"/></g><path id="path40" d="m2406 282.4 199.8-97.8c-12-64.8-62.9-109.1-132.9-109.1-80.1 0-147.3 58.2-154.3 138.2-7 80.1 52.2 145 132.3 145 13 0 25.9-1.6 38.4-4.7 1.4-.3 2.7-.7 4.1-1.1l16.9-75.1c-17.4 12.2-38.6 19.1-59.4 19.1-17.1.2-32.6-5-44.9-14.5m-26-63.2c4.1-46.7 44-81.9 92.8-81.9 24.8 0 44.4 8.8 57.3 24.5l-149.9 73.4c-.6-5.2-.7-10.6-.2-16" class="st0" style="fill:#fff;fill-opacity:1"/><path id="path42" d="m1823.9 282.4 199.8-97.8c-12-64.8-62.9-109.1-132.9-109.1-80.1 0-147.3 58.2-154.3 138.2-7 80.1 52.2 145 132.3 145 13 0 25.9-1.6 38.4-4.7 1.4-.3 2.7-.7 4.1-1.1l16.9-75.1c-17.4 12.2-38.6 19.1-59.4 19.1-17.1.2-32.6-5-44.9-14.5m-26-63.2c4.1-46.7 44-81.9 92.8-81.9 24.8 0 44.4 8.8 57.3 24.5l-149.9 73.4c-.6-5.2-.6-10.6-.2-16" class="st0" style="fill:#fff;fill-opacity:1"/></g><g id="g2844" style="fill:#fff;fill-opacity:1" transform="translate(9.42)"><path id="path82" d="m318.22 289.26.72-3.2c-6.1 1.75-14.39 3.2-25.36 3.2H268.1a46.1 46.1 0 0 1-36.12-17.4 46 46 0 0 1-9.01-39.02l24.64-109.1h50.72l-25.26 112.1a6.7 6.7 0 0 0 1.24 5.6 6.6 6.6 0 0 0 5.18 2.48h35.71a16.3 16.3 0 0 0 16.05-12.84l24.33-107.35h50.72l-37.37 165.63z" class="st1" style="stroke-width:1.03519;fill:#fff;fill-opacity:1"/><path id="path88" d="m769.15 289.26 37.37-165.63h50.72l-.72 3.2c6.1-1.75 14.38-3.2 25.36-3.2h33.64l-10.25 45.34h-45.03a16.3 16.3 0 0 0-16.04 12.84l-24.23 107.35z" class="st1" style="stroke-width:1.03519;fill:#fff;fill-opacity:1"/><path id="path94" d="M638.4 289.26a46.1 46.1 0 0 1-36.13-17.4 46 46 0 0 1-9-39.02l13.66-60.87a61.9 61.9 0 0 1 60.66-48.24h57.56a46.1 46.1 0 0 1 36.13 17.4 46 46 0 0 1 9 39.02l-1.65 7.35a55.4 55.4 0 0 1-35.3 40.06h26.08l-3 13.46a61.74 61.74 0 0 1-60.56 48.45H638.4zm4.97-53.42a6.7 6.7 0 0 0 1.24 5.6 6.6 6.6 0 0 0 5.18 2.48h43.58c6.83 0 12.63-4.66 14.18-11.28l.42-1.87H644.5zm66.36-50.51c4.96 0 9.31-3.42 10.35-8.28a6.5 6.5 0 0 0-1.24-5.49 6.4 6.4 0 0 0-5.08-2.38h-42.13A16.3 16.3 0 0 0 655.58 182l-.72 3.32z" class="st1" style="stroke-width:1.03519;fill:#fff;fill-opacity:1"/><path id="path100" d="m388.92 305.51 41-181.78h50.72l-.73 3.21c6.11-1.76 14.4-3.2 25.37-3.2h31.26a46.1 46.1 0 0 1 36.13 17.38 46 46 0 0 1 9 39.03l-11.9 53a61.74 61.74 0 0 1-60.56 48.45h-36.54c-12.63 0-21.12-1.97-26.71-4.14l-6.42 28.26zm94.62-136.43a16.3 16.3 0 0 0-16.05 12.83l-10.35 45.96a6.7 6.7 0 0 0 1.24 5.6 6.6 6.6 0 0 0 5.18 2.48h41.5a16.5 16.5 0 0 0 16.16-12.84l10.35-45.96c.41-1.97 0-4.04-1.24-5.59a6.6 6.6 0 0 0-5.18-2.48z" class="st1" style="stroke-width:1.03519;fill:#fff;fill-opacity:1"/><path id="path106" d="M36.85 289.26a46.1 46.1 0 0 1-36.13-17.4 46 46 0 0 1-9-39.02l1.14-5.17 5.38-.31h45.34l-1.86 8.38a6.7 6.7 0 0 0 1.24 5.6 6.6 6.6 0 0 0 5.18 2.48h85.09a16.5 16.5 0 0 0 16.15-12.84l3.93-17.5a10.18 10.18 0 0 0-9.94-12.52h-82.5a49.3 49.3 0 0 1-38.72-18.63 49.4 49.4 0 0 1-9.63-41.83l3.84-17.18a61.95 61.95 0 0 1 60.66-48.24h100.1a45.8 45.8 0 0 1 36.13 17.4 45.7 45.7 0 0 1 8.9 39.02l-1.14 5.17-5.28.21h-44.92l1.86-8.38c.41-1.97 0-4.04-1.24-5.6a6.6 6.6 0 0 0-5.18-2.48h-85.2a16.3 16.3 0 0 0-16.04 12.84l-2.17 9.83a10.18 10.18 0 0 0 9.93 12.53h93.8a40 40 0 0 1 31.46 15.11 40 40 0 0 1 7.76 34.06l-8.28 36.13a61.8 61.8 0 0 1-60.45 48.24z" class="st1" style="stroke-width:1.03519;fill:#fff;fill-opacity:1"/></g></g></svg>