<svg xmlns="http://www.w3.org/2000/svg" id="Layer_1" x="0" y="0" viewBox="0 0 3839 1686"><style>.st0{fill:#fff}</style><path d="M1340.4 331.6h-208.3v65h208.3c40 0 73.3-33.3 73.3-73.3s-33.3-73.3-73.3-73.3h-53.3c-48.3 0-88.3-40-88.3-88.3s40-88.3 88.3-88.3h206.6v-65h-208.3c-85 0-153.3 68.3-153.3 153.3S1200.4 315 1285.4 315h53.3c5 0 8.3 3.3 8.3 8.3.1 5-3.3 8.3-6.6 8.3" class="st0"/><path d="M1285.4 155h208.3V88.3h-208.3c-40 0-73.3 33.3-73.3 73.3s33.3 73.3 73.3 73.3h53.3c48.3 0 88.3 40 88.3 88.3s-40 88.3-88.3 88.3h-206.6v65h208.3c85 0 153.3-68.3 153.3-153.3S1425.4 170 1340.4 170h-53.3c-5 0-8.3-3.3-8.3-8.3 0-3.4 3.3-6.7 6.6-6.7m748.3-66.7c-28.3 0-50 21.7-50 50v208.3c0 28.3 21.7 50 50 50h135V250h-103.3v65h38.3v15h-38.3c-8.3 0-15-6.7-15-15V168.3c0-8.3 6.7-15 15-15h185v-65zm409.9 308.3h151.6L2491.9 90c-3.3-8.3-10-15-20-15-8.3 0-16.7 6.7-20 13.3l-133.3 388.3h76.7l46.7-138.3v58.3zm26.7-140 21.7 66.7h-45z" class="st0"/><path d="M2571.9 76.7C2558.6 33.3 2518.6 0 2470.3 0s-88.3 31.7-100 75l-121.7 356.6V170h-183.3v65h120v176.6h-150c-36.7 0-65-30-65-65V138.3c0-36.7 30-65 65-65h215v-65h-216.6c-71.7 0-130 58.3-130 130v208.3c0 71.7 58.3 130 130 130H2302L2437 85c5-15 18.3-25 35-25s30 10 35 25l110 326.6h-173.3v65H2707zm-916.5 334.9c-36.7 0-65-30-65-65V138.3c0-36.7 30-65 65-65h223.3v-65h-223.3c-71.7 0-130 58.3-130 130v208.3c0 71.7 58.3 130 130 130h223.3v-65z" class="st0"/><path d="M1670.4 316.6H1832v-65h-226.6v96.7c0 28.3 21.7 50 50 50h223.3v-65h-193.3c-8.4-1.7-15-8.3-15-16.7M1832 170h-161.6c0-8.3 6.7-15 15-15H1877V88.3h-221.6c-28.3 0-50 21.7-50 50V235H1832zm741.6 1066.5h.9l-.9-1.3z" class="st0"/><path d="m3107.2 600.4-216.4 282-216.4-282H2271c-90.8 0-164.7 73.9-164.7 164.7v21.6h-88.1c-7.7-49.9-32.5-95.8-70.5-129.9a219.6 219.6 0 0 0-147.1-56.4H424c-75 0-143.9 16.7-205 49.7A377.6 377.6 0 0 0 70.8 794c-67.1 116.2-69.4 265.3-7 383.8H0V1686h751.5c150.9 0 248.2-60.4 303.9-112.3h104.9V1686h508.2v-56.9c0-30.5 24.9-55.4 55.4-55.4h795.8c30.5 0 55.4 24.9 55.4 55.4v56.2h431.3l832.6-1085h-731.8zm-146.4 992.5h-293.2v-46.3c0-36.1-29.2-65.3-65.3-65.3h-960.9c-36.1 0-65.3 29.2-65.3 65.3v46.9h-323.3v-112.3h-236.6c-4.6 5.4-9.4 10.6-14.4 15.7-43.4 44-122 96.5-250.2 96.5H92.5v-323.3h208.6c-63.9-23.8-116.1-67-150.2-126.1-53.3-92.3-53.3-211.6 0-303.9C205 746.5 304.5 692.7 424 692.7h1376.7c70.5 0 127.7 57.2 127.7 127.7v58.7h270.5V765c0-39.9 32.4-72.3 72.3-72.3H2629l262 341.4 262-341.4h498.7z" class="st0"/><path d="M1759.5 1095.6H2462v158.2h-702.5zm86.3-275.1c0-24.9-20.2-45.1-45.1-45.1H982.3v45.1c0-24.9-20.2-45.1-45.1-45.1H424c-307.7 0-307.7 433.5 0 433.5h327.6c95.9 0 95.9 143.8 0 143.8H175V1511h576.5c340.2 0 340.2-460.2 0-460.2H424c-82.4 4.1-90.9-125.9 0-130h911.3V1511h158.2V920.8h352.3zm1388.7-45.1-343.7 447.9-343.7-447.9h-249.6l564 735h58.6l564-735z" class="st0"/></svg>