<svg xmlns="http://www.w3.org/2000/svg" viewBox="0 0 264 101"><path d="M34.93 100.12q-4.29-.27-8.53-1.04C14.95 97.06 9.62 94.35 6.42 93.1c-1.52-.6-3.02-1.17-4.68-.56q-.3.09-.62.07c-1.05.01-1.38-.4-.92-1.34.55-1.13 1.19-2.2 1.84-3.28q2.63-4.35 5.28-8.7l.25-.4c.36-.6.76-1.15 1.58-1.04.78.1.95.75 1.1 1.35a6 6 0 0 0 2.23 3.13 29 29 0 0 0 8.3 4.29 67 67 0 0 0 11.84 2.82c4.76.75 9.55.84 14.34.57 4.05-.24 8.05-.97 11.87-2.47a12.3 12.3 0 0 0 5.5-4.49c1.88-2.6 1.12-6.19-1.44-8.22-3.47-2.77-7.5-3.87-11.78-4.6-3.85-.66-7.69-.59-11.54-.54-1.8.02-6.12.2-7.78 1.73-.6.54-1.1.58-1.38.32-.3-.26-.3-.68-.3-1.04q-.05-5.65-.02-11.3c.01-1.22.58-1.6 1.54-.93a8.6 8.6 0 0 0 3.93 1.4c2.32.3 9.89.03 11.43-.17 4.13-.54 3.77-.48 6.18-1.12a14 14 0 0 0 6.33-4.01l.06-.08c1.8-2.16 1.2-4.65-.47-6.43a13 13 0 0 0-5.86-3.47A34 34 0 0 0 42 43.08c-6.92.33-13.69 1.39-19.94 4.6a36 36 0 0 0-4.09 2.6 4 4 0 0 0-1.72 3.35c-.02.73.1 1.56-.77 1.87s-1.31-.43-1.81-.94q-4.77-4.85-9.52-9.73c-.18-.19-.39-.37-.52-.59-.39-.62-.15-1.13.59-1.22.82-.1 1.7.04 2.46-.21 1.13-.37 2.18-.97 3.26-1.5 2.85-1.4 5.63-2.98 8.56-4.19a56 56 0 0 1 14.52-3.56c4.77-.6 13.2-.84 19.3.06 4.07.62 8.11 1.44 11.9 3.13 3.33 1.49 6.6 3.15 9.08 5.96 1.8 2.03 3.01 4.3 3.42 7.06a12.5 12.5 0 0 1-1.17 7.42A8.3 8.3 0 0 1 72 60.83c-3.13 1.88-4.99 2.35-5.38 2.6-.63.38-.66.89-.02 1.26.58.33 1.24.52 1.89.72 3.76 1.18 7 3.25 9.7 6.1a13 13 0 0 1 3.53 7.48c.4 3-.3 5.67-1.6 8.28-1.01 2.03-2.69 3.46-4.44 4.76a38 38 0 0 1-11.78 5.66 63 63 0 0 1-9.62 2c-11.1 1.22-16.76.59-19.36.43m129.4.51c-1.25-1.31-4.6-1.43-5.13-1.43H88.63c-2.4 0-2.82.29-2.53-2.75.48-4.96 2.3-9.58 5.9-13.15.7-.7.92-.94 2.5-2.37 6.68-6.06 19.98-10.92 19.98-10.92s11.14-4.12 17.4-6.59c2.8-1.1 5.54-2.38 8.05-4.12 9.06-7.16 4.36-14.27-7.6-15.92-8.38-1.2-16 .84-23.06 5.35-.92.6-1.7 1.18-2.59 1.82-1.58 1.33-2.93 2.9-3.22 4.61-.16.93-.01 1.57 0 1.72.07.49.22 1.25-.14 1.6-.43.42-1.32 0-1.72-.38L90.7 47.8c-.23-.22-.65-.68-.65-.68s-.4-.46-.41-.78c-.02-.36.33-.7.75-.82 1.98-.37 2.9-.49 4.08-1.36a67 67 0 0 1 10.13-6.18 49 49 0 0 1 15.06-4.44c4.05-.54 15.93-2.4 29.81 3.79 3.66 1.6 6.8 3.88 9.17 7.1 1.4 1.9 6.68 12.33-4.08 20.65-3.84 3.1-8.43 5-13.07 6.63-3.97 1.39-6.89 2.43-13.38 4.31a85 85 0 0 0-14.12 5.3 35 35 0 0 0-7.44 4.73s-1.47 1.14-1.19 2.03c.25.77 1.48.7 2.2.7h52.1c1.8 0 3.54-.13 4.92-1.54.2-.2.72-.32.96-.2s.4.6.4.9c.02 4.08.02 8.25 0 12.32 0 .4-.14.54-.33.66-.3.17-.93.08-1.27-.29m23.5-67.05h11.1c.37 0 .74-.03 1.1.02.83.1.96.44.44 1.12-.93 1.2-.92 1.34.13 2.46l.11.1L216.21 53c.27.26.5.54.8.75.52.37 1.08.38 1.59-.03q.4-.36.8-.76l15.3-15.47q.3-.26.54-.57c.68-.84.67-1.14.03-2.05-.57-.77-.57-1.25.6-1.28h23.31c.47 0 .95-.01 1.4.09.19.04.42.33.45.53s-.1.56-.27.65a7 7 0 0 1-1.6.6c-2.11.45-3.83 1.5-5.35 3.04-6.53 6.68-13.14 13.29-19.71 19.93a349 349 0 0 0-4.89 5.07c-1.02 1.08-1.02 1.6.02 2.65 1.82 1.86 3.69 3.67 5.5 5.54 1.34 1.38 2.59 2.86 3.94 4.23q5.42 5.44 10.83 10.88 3.64 3.66 7.21 7.4a10 10 0 0 0 4.9 2.93q1.05.27 2.04.74c.19.08.37.42.35.61-.03.2-.29.45-.5.52-.33.1-.71.1-1.08.1h-23c-.31 0-.64.01-.93-.07-.49-.14-.67-.44-.37-.94.25-.43.65-.91.6-1.33-.04-.45-.5-.88-.85-1.24L220 77.29l-.66-.66c-1.32-1.28-1.8-1.3-3.12.02q-5.72 5.7-11.4 11.42-3.66 3.76-7.25 7.57c-.9.96-.9 1.02-.22 2.28.4.72.25 1.04-.57 1.16-.36.05-.73.03-1.1.03l-22.22-.01c-.66 0-1.78.17-1.83-.64-.12-.85.9-.89 1.5-1.03 2.7-.63 4.76-2.17 6.67-4.13 6.08-6.25 12.26-12.4 18.38-18.6 1.9-1.94 3.71-3.94 5.6-5.9.72-.75 1.52-1.42 2.26-2.15 1.55-1.54 1.55-1.95.06-3.45l-13.53-13.7c-3.67-3.72-7.35-7.42-10.96-11.19a9.8 9.8 0 0 0-4.95-2.8q-.53-.13-1.06-.3c-.5-.15-1.1-.27-1.04-.94.07-.7.68-.7 1.21-.69h12.06" style="fill:#fff;fill-opacity:1;stroke-width:1.12222" transform="translate(14.97 9.98)scale(.89109)"/><g style="stroke-width:1.12222"><path d="M109.39 12.38c0 .99.8 1.77 1.77 1.76h7.23v-2.2h-6.8v-.62h5.36v-2.2h-7.55zm.01-7.26c0-.91.78-1.76 1.76-1.75h7.23v2.19h-6.8v.62h5.36V8.4h-7.57z" style="fill:#fff;fill-rule:evenodd;stroke-width:1.25939" transform="matrix(1.12203 0 0 1.13395 -6.08 9.98)"/><path d="M110.9.41c-2.46 0-4.45 2-4.45 4.45v7.78c0 2.45 2 4.44 4.45 4.44h7.5V14.9h-7.32c-1.29 0-2.43-1.22-2.43-2.5V5.1a2.55 2.55 0 0 1 2.43-2.48h7.31V.41zM125.08 12V5.56h7.15v-2.2h-7.55c-.97 0-1.76.85-1.76 1.76v7.26c0 .99.8 1.77 1.76 1.76h4.6V9.09h-3.47v2.17h1.28V12zM104.33.39h-7.17a5.5 5.5 0 0 0-5.48 5.48 5.4 5.4 0 0 0 5.47 5.39h2.2V12h-7.62v2.14h7.36a2.5 2.5 0 1 0 0-5h-1.9a3.25 3.25 0 1 1 0-6.51h7.15z" style="fill:#fff;fill-rule:evenodd;stroke-width:1.25939" transform="matrix(1.12203 0 0 1.13395 -6.08 9.98)"/><path d="M104.33 5.5h-7.46v.73h2.24a5.43 5.43 0 1 1 0 10.85l-7.38-.02V14.9h7.36c1.8 0 3.26-1.46 3.26-3.26s-1.46-3.23-3.26-3.23h-1.9a2.51 2.51 0 0 1 0-5.03h7.15zM140.58 3c-.1-.22-.12-.27-.36-.27-.25 0-.3.13-.4.34l-4.55 14.01h2.4l2.57-7.76.85 2.62h-1.7v2.21h4.84z" style="fill:#fff;fill-rule:evenodd;stroke-width:1.25939" transform="matrix(1.12203 0 0 1.13395 -6.08 9.98)"/><path d="M124.43 17.08c-2.46 0-4.45-1.99-4.45-4.44V4.86c0-2.46 1.99-4.45 4.44-4.45h7.8v2.22h-7.6c-1.3 0-2.44 1.2-2.44 2.48v7.27c0 1.3 1.14 2.51 2.43 2.51h5.4V8.36h-4.2V6.18h6.43v10.4L136.8 2.4a3.6 3.6 0 0 1 6.84.1l4.75 14.58h-9v-2.2h5.84l-3.97-12.16c-.23-.67-.64-.75-1.05-.75-.44 0-.83.18-1.06.8l-4.66 14.3z" style="fill:#fff;fill-rule:evenodd;stroke-width:1.25939" transform="matrix(1.12203 0 0 1.13395 -6.08 9.98)"/></g></svg>