<svg xmlns="http://www.w3.org/2000/svg" viewBox="0 0 264 37"><path d="m84.03 29.22-1.7-.79c.1-.35.2-.79.2-1.23 0-1.14-10.01-7.28-27.39-7.28-16.63 0-23.77 4.21-23.77 9.65 0 14.39 62.79-6.66 62.79 25.1 0 11.58-13.65 20.52-40.94 20.52-26 0-33.47-6.84-35.92-6.84-.64 0-.96.44-1.5.7l-1.38-.26 8.85-14.92 1.7.7c0 .36-.21.71-.21 1.41 0 5.18 13.75 8.86 27.4 8.86 19.4 0 26-4.56 26-9.39 0-17.2-61.93 4.13-61.93-25 0-14.74 18.87-20.88 39.55-20.88 18.55 0 31.56 6.67 32.84 6.67 1.38 0 1.6-.35 1.92-.62l1.7.44zm18.33 43.87c2.35 0 2.78-.7 2.78-2.64V14.31c0-1.94-.43-2.63-2.78-2.63v-1.23h69.19c2.56 0 3.62-.7 3.62-1.93h1.5v14.56h-1.5c0-1.58-1.06-2.28-3.62-2.28h-51.28v15.62h33.48c2.55 0 3.62-.7 3.62-2.28h1.5v14.73h-1.5c0-.7-.21-1.22-.85-1.57-.53-.36-1.5-.53-2.77-.53h-33.48v17.2h52.24c2.56 0 3.62-.7 3.62-2.11h1.5v14.39h-1.5c0-1.23-1.06-1.93-3.62-1.93h-70.15zm169.82-32.46v1.23c-1.07.17-2.03.87-2.03 2.8v17.29c0 1.4.53 1.93 1.92 2.19v1.23c-6.72 3.16-23.14 9.82-41.58 9.82-24.52 0-46.05-10-46.05-32.8 0-22.82 25.16-32.82 47.33-32.82 8.74 0 17.06 1.66 23.13 3.24 5.66 2.02 9.81 3.6 10.56 3.6.96 0 1.92-.44 2.34-.96l1.5.52-10.34 14.39-1.5-.79c.1-.35.22-.87.22-1.49 0-2.72-11.52-8.16-25.7-8.16-17.9 0-32.4 7.28-32.4 22.11 0 15.53 14.5 22.8 30.91 22.8 13.44 0 21.32-3.76 24.52-5.7v-7.27h-18.33c-2.13 0-3.42.87-3.42 2.1h-1.49V38.52h1.5c0 1.23 1.28 2.1 3.4 2.1zm5.32 33.69v-1.23c1.92-.09 2.56-.53 4.05-3.33l29.1-53.87c.53-.88 1.17-1.85 1.17-2.64 0-.96-.85-1.4-2.24-1.57v-1.23h23.24v1.23c-1.6.17-2.24.7-2.24 1.31 0 .7.43 1.4.97 2.28l30.91 54.49c1.5 2.72 1.92 3.33 4.16 3.33v1.23H345.4v-1.23c1.39 0 1.92-.44 1.92-.88 0-.96-.96-2.19-8.1-14.74h-36.57c-6.18 11.4-7.78 13.16-7.78 14.3 0 .8.64 1.23 1.6 1.32v1.23zm55.54-26.85-12.8-22.99-12.57 22.99z" style="fill-opacity:1;fill:#fff" transform="scale(.44 .43652)"/><path d="M600 84.76H0V0h600zM5.4 79.36h589.2V5.4H5.4z" style="fill-opacity:1;fill:#fff" transform="scale(.44 .43652)"/><path d="M385.1 10.45v63.87h205.16V10.45zm8.7 44.83c-1.7-11.37 36.06-26.53 85.28-34.51l-3.26.83-6.18 1.5c-25.1 6.14-42.69 17.2-41.22 27 1.5 10.03 22.47 15.46 49.15 13.6 1.48-.1 6.74-.36 7.89-.4-49.4 6.78-89.96 3.36-91.66-8.02m123.01 2.46c-10.9 2.48-24.53 4.58-24.53 4.58v-28.5l7.03 23.2s16.73-2.72 29.47-8.03c11.07-4.6 17.94-10.4 17.48-16.55-.75-10-22.04-15.35-48.31-13.66-1.76.11-7.57.41-8.72.46 49.39-6.78 89.94-3.36 91.65 8.01 1.45 9.67-25.66 22.08-64.07 30.49" style="fill-opacity:1;fill:#fff" transform="scale(.44 .43652)"/></svg>