<svg xmlns="http://www.w3.org/2000/svg" viewBox="0 0 264 50"><path d="M438.72 66.22h-8.47V37.57h31.2c5.38 0 9.6 3.82 9.74 9.22v19.43h-8v-17.8c0-2.66-1.56-4.49-4.18-4.73-1.45-.13-2.9-.02-4.47-.02v22.55h-8.37V43.51h-7.45zm128.81 0h-8.47V37.57h31.19c5.4 0 9.6 3.82 9.75 9.22v19.43h-8v-17.8c0-2.66-1.56-4.49-4.19-4.73-1.44-.13-2.9-.02-4.46-.02v22.55h-8.37V43.51h-7.45zM336.17 55.3l8.29 10.92h-9.52l-7.28-10.62h-8.1v10.62h-8.35V37.57h23.09a9.17 9.17 0 0 1 9.01 11.14c-.66 3.2-2.7 5.15-5.74 6.17-.42.14-.84.25-1.4.41m-16.6-4.84h11.01c.58-.01 1.18-.26 1.72-.5 1.21-.5 2.05-1.34 2.06-2.78 0-1.52-.56-2.73-2.03-3.29a8 8 0 0 0-2.6-.52h-10.16zM425.5 66.21h-21.26a17 17 0 0 1-4.72-.78c-3.93-1.23-5.98-4.33-5.75-8.33.24-4.1 2.82-7.24 6.7-8.07q1.38-.3 2.79-.3h13.57c.37 0-.37 0 0 0a5.83 5.83 0 0 0-5.93-5.66h-14.84v-5.5h17.36c6.67 0 11.88 5 12.09 11.64zm-8.4-12.09h-10.41c-2.21 0-3.7 1.32-3.75 3.3-.02 1.9 1.42 3.17 3.66 3.17h10.5zM174.71 66.21v-5.62h18.74q2.6-.01 3.16-2.56c.27-1.26-.52-2.54-2.03-3.1a7 7 0 0 0-2.18-.4h-11.55c-4.72-.07-7.47-2.88-7.9-7.87-.32-3.88 2.54-8.31 6.4-9.08h24.66v5.77h-17.69q-.77 0-1.55.14c-1.3.24-2.26 1.04-2.49 2.28s.31 2.37 1.34 3.14c.31.24.82.36 1.24.36h12.46c3.08.09 5.98.88 7.55 3.91 2.74 5.3.63 12.91-7.43 13.03zm362.71-29.29c3.2.1 6.3.47 9.22 1.81 4.05 1.86 7.07 4.8 7.93 9.25 1.08 5.6.1 10.84-4.4 14.84-2.55 2.28-5.77 3.28-9.07 3.84-5.12.89-10.02.06-14.67-2.29-4.35-2.19-6.17-5.98-6.66-10.58-.25-2.32-.2-4.63.52-6.88 1.7-5.3 5.65-8 10.81-9.16 2.06-.47 3.25-.76 6.32-.83m9.32 14.97-.07-1.56c-.24-3.91-2.54-6.86-6.12-7.8-2.1-.55-4.23-.5-6.33-.05a7.4 7.4 0 0 0-5.9 5.48 16 16 0 0 0-.3 7.22 6.4 6.4 0 0 0 4.86 5.44c1.62.45 3.38.62 5.07.58 5.75-.14 8.93-3.58 8.8-9.3M306.7 49.06v5.45h-19.88c.06 3.43 2.48 5.88 5.76 5.88h13.97v5.8h-16.07c-7.99-.36-12.85-6-12.59-13.4.09-2.44.25-4.84 1.16-7.14a12.5 12.5 0 0 1 11.8-8.07h15.85v5.79s-10.84-.03-13.46-.02a6.4 6.4 0 0 0-6.27 5.71zm-75.58 11.3V37.58h8.17V66.2l-21.5.01a8 8 0 0 1-6.46-3.03c-1.58-1.92-2.55-3.99-2.48-6.63.15-5.72.04-18.98.04-18.98h8.2l-.04 18.3c-.06 2.7 1.44 4.26 3.92 4.48zm21.04-3.82v9.67h-7.97V37.58h21.74c3.85-.11 7.71 2.76 8.86 7.02a9.28 9.28 0 0 1-9.15 11.93q-6.17.02-12.34 0zm.27-5.58h11.02c.44 0 .93-.28 1.32-.55 1.2-.8 2.04-3.02 1.65-4.24-.6-1.9-1.81-2.82-3.81-2.82h-10.18zm139.1-13.38v5.49h-13.98a7.2 7.2 0 0 0-5.79 3.14 5 5 0 0 0-.83 2.66h20.25v6.06h-20.33v11.3h-8.25V49.29c0-6.12 4.64-11.51 10.78-11.71zm125.7 23.02v5.62h-15.1c-6.27 0-11.03-3.68-12.55-9.77-1.2-4.76-.64-9.56 2.05-13.7a10.9 10.9 0 0 1 9.64-5.17h16.13v5.66h-13.7c-2.68 0-4.4 1.24-5.3 3.78a14.7 14.7 0 0 0-.24 9.28c.9 2.8 3.04 4.3 5.97 4.3zM335.89 92.32v-5.17h19.91V78.6h-19.55v-4.95h23.86v18.67zM173.63 78.47v-5.04h19.9a22 22 0 0 1-1.26 11.41l5.36 7.52h-5.57s-1.9-2.57-2.64-3.63l-1.06.85c-2.32 1.85-4.89 2.95-7.94 2.82h-7.46v-5.1l5.23-.01c2.2-.03 4.39-.2 6.48-1.02a7.7 7.7 0 0 0 5-7.8zm302.65-40.89h8.84v28.66h-8.84zM264.6 92.33v-5.15h10.28c4.2.22 7.48-2.44 7.37-7.6 0-.33-.05-.66-.08-1.08h-18.81v-4.87h22.75v9.2a8 8 0 0 1-.6 2.61c-1.55 4.13-4.68 6.53-8.93 6.9zm23.43-9.98v-4.44h20.03v6.53c0 2.6-1.83 3.73-9.25 3.73 0 0-.07 1.17-.3 1.5-.78 1.94-2.3 2.74-4.51 2.74h-4.88v-4.57h4.78c1.6 0 2-.35 2.27-1.95.08-.48.13-.96.22-1.53h6.15c1.39 0 1.8-.45 1.86-2zm98.4-8.55v10.53c-.86 5.87-6.15 8.1-10.04 7.99h-13.74v-5.17h14.13c2.9.14 5.86-2.57 5.82-5.97-.03-2.13 0-4.27 0-6.4v-.97zm-159.36-.39h4.36v6.16q.02.6 0 1.23c-.32 4.85 3.07 6.27 6.24 6.27h1.28v5.15c-7 .4-11.58-2.71-11.86-9.6-.11-2.68-.02-5.38-.02-8.07zm106.56 13.02-23.5-2.97v-4.55l23.5 2.81zm0-6.19-23.5-2.97v-4.56l23.5 2.82zm.02 7.8v4.7l-23.53-2.97v-4.63c7.81.86 15.64 2.03 23.53 2.9m-120.3 4.14v-5.12c1.03-.08 2.03-.08 3.02-.24 2.87-.45 4.54-2.44 4.55-5.34v-7.8h4.38c0 2.1.03 4.21 0 6.33-.02 1.42.04 2.87-.23 4.24-.98 4.86-3.94 7.35-9.03 7.78-.87.08-1.76.1-2.69.15" style="fill:#fff" transform="scale(.44 .44245)"/><path d="M213.7 80.48v4.79h-18v-4.79zm25.47-.18h18.01V85h-18.01zm137.73-6.65v4.95h-14.23v-4.95zm-137.53 3.01a3.46 3.46 0 1 1-3.49-3.47 3.44 3.44 0 0 1 3.49 3.47m-2.11-.05c-.03-.78-.73-1.47-1.47-1.47-.78.01-1.51.79-1.42 1.57.1.87.66 1.38 1.5 1.35.87-.04 1.3-.64 1.39-1.45M68.44 68.86c0 9.45-15.32 17.11-34.22 17.11S0 78.31 0 68.87v-.01c0-9.45 15.32-17.11 34.22-17.11s34.22 7.66 34.22 17.1m58.93 27.05c0 9.44-15.32 17.1-34.21 17.1s-34.22-7.65-34.23-17.1 15.32-17.11 34.22-17.11 34.21 7.65 34.22 17.1M69.7 0a31.7 31.7 0 0 0-31.68 30.95q1.07-.08 2.16-.08c17.5 0 31.7 14.2 31.7 31.73l-.02.77a31.7 31.7 0 0 0 29.53-31.64A31.7 31.7 0 0 0 69.69 0m60.01 27.79a31.7 31.7 0 0 0-31.67 32.87q.63-.03 1.27-.04a31.7 31.7 0 0 1 31.66 30.54 31.7 31.7 0 0 0-1.27-63.37" style="fill:#fff" transform="scale(.44 .44245)"/></svg>