<svg xmlns="http://www.w3.org/2000/svg" viewBox="0 0 264 38"><path d="M80.22 68.96q0 7.72-4.68 12.46-4.69 4.74-12.65 4.74H1.39v-17.2h61.5V51.75h-45.8q-7.6 0-12.34-4.8Q0 42.12 0 34.54V17.2q0-3.68 1.4-6.83a17 17 0 0 1 9.16-9.05A16 16 0 0 1 17.08 0H74.4v17.2H17.08v17.34h45.8a17.5 17.5 0 0 1 12.34 4.94 16 16 0 0 1 3.67 5.44q1.33 3.15 1.33 6.83Zm99.96 17.2h-68.96q-17.2 0-17.2-17.2V17.2q0-3.68 1.39-6.83a17 17 0 0 1 9.17-9.05A17 17 0 0 1 111.22 0h66.05v17.2h-66.05v51.76h51.63V51.75h-34.3v-17.2h51.63Zm64.74-34.41h-51.63v-17.2h51.63Zm59.93 34.41h-51.63v-17.2h17.34V17.2h-17.34V0h34.55v68.96h17.08ZM333.47 0q-3.41 0-6.5 1.33A17.15 17.15 0 0 0 316.4 17.2v51.75q0 17.2 17.07 17.2h51.63q17.2 0 17.2-17.2V17.2A17.1 17.1 0 0 0 385.1 0zm0 17.2h51.63v51.76h-51.63zM432.32 0q-3.4 0-6.5 1.33a17.15 17.15 0 0 0-10.57 15.88v51.75q0 17.2 17.07 17.2h51.63q17.2 0 17.2-17.2V17.2a17 17 0 0 0-5-12.2 17.1 17.1 0 0 0-12.2-5zm0 17.2h51.63v51.76h-51.63zM531.18 0q-3.42 0-6.52 1.33A17.15 17.15 0 0 0 514.1 17.2v51.75q0 17.2 17.08 17.2h51.62q17.2 0 17.2-17.2V17.2A17.1 17.1 0 0 0 582.8 0zm0 17.2h51.62v51.76h-51.62z" style="fill:#fff" transform="scale(.44 .44103)"/></svg>