<svg xmlns="http://www.w3.org/2000/svg" viewBox="0 0 1059.21 408.85"><path d="M203.02 308.96h-3.76v30.14h-4.24l-4.71-27.8q-2.83 0-9.42-.78t-8.95-1.56q-.94 0-3.76-.4-2.83-.78-3.3-1.17-1.88-.78-6.12-2.35-3.77-1.57-4.7-2.35l-3.3-2.74q-1.42-1.17-2.83-1.96l-1.41-1.17q0-.78-2.36-3.13-1.88-2.74-2.82-3.53-.94-1.17-2.83-4.3-1.41-3.52-1.41-4.3-.94-.79-2.36-3.92-.94-3.13-.94-3.92v-23.88q0-1.56 2.36-5.48 2.35-3.91 3.3-5.09-1.42 0-5.19-.39-3.76-.39-7.53-.39l-7.53-.78q-3.77-.4-5.18-.4-.95 0-2.83-.78t-2.82-1.56q-.95 0-2.83-1.57-1.41-1.95-2.35-1.95 0-.4-.95-2.75-.47-1.17-.94-1.95v-10.57q0-.4.94-3.92.95-3.52.95-4.7.94-1.56 2.35-5.08 1.88-3.92 3.3-7.83 1.88-4.3 3.3-7.83 1.4-3.53 1.88-4.7.47-1.96 4.7-7.44 4.24-5.87 5.66-9.4.94-1.56 3.3-6.26t5.17-10.17 5.18-10.18q2.36-5.1 3.3-7.05 2.35-4.7 6.12-9 4.24-4.7 8.47-9 4.24-4.7 8-9.8 3.78-5.08 5.66-10.95.47-.4 1.88-2.35l2.83-3.92q1.88-2.35 3.3-4.3l2.82-3.53q0-.39 1.41-2.74 1.89-2.74 2.83-4.3 1.41-1.18 4.24-3.92 3.3-3.13 4.23-3.52.95-1.57 4.71-4.7l5.18-4.3q.47 0 3.3-1.96 2.82-1.96 3.77-2.74.47 0 3.3-.78.93-.4 2.35-.79h17.42l5.65 4.7q.94.4 2.35 2.74 1.89 2.35 2.83 3.13 0 .78 1.41 4.7l2.83 5.87q.94 1.18 3.3 6.26 2.35 4.7 2.35 5.88 0 .78.47 3.13.94 1.96 1.88 4.3.94 2.35 1.42 4.7.94 1.96.94 3.13 0 .79.94 4.31 1.41 3.13 1.41 4.7.47 2.35 1.88 6.65 1.42 3.92 2.83 8.22t2.35 7.83 1.42 4.3q0 1.97 1.88 5.1 2.36 2.74 2.36 5.48.94 2.74 1.88 7.83 1.41 4.7 1.41 5.48v14.1q0 .77-1.41 2.34-.94 1.17-1.88 1.96l-3.77 4.7q-2.83 3.52-3.3 3.9-.94.8-5.18 3.53-3.76 2.35-4.7 3.13-.95 0-4.24.79-2.83.78-4.24.78h-2.36q-.47 0-2.35-.78-1.88-.79-2.36-.79-.94-.78-1.4-1.95-.95-2.35-.95-2.74-.94-.79-1.88-3.14-.47-2.34-1.42-2.74 0-1.56-1.4-4.7-.95-3.52-.95-4.3 0-1.17-.47-3.91 0-3.14-.47-6.66t-.94-6.65v-3.92q-.95-2.35-1.42-4.3-.47-1.96-.94-3.53-.47-1.95-.47-2.74-.94-3.91-4.24-9.4-2.82-5.47-3.76-7.43-.48-1.57-2.36-7.05-1.88-5.87-2.35-7.83-.95-1.95-2.36-5.09-.94-3.13-2.35-6.26-1.89-3.52-3.3-7.44h-2.82v4.7q.47 3.52.47 7.83v7.44q.47 3.52.47 4.7 0 1.56-1.41 6.26-.95 4.3-1.42 5.48 0-.78-1.41-3.52-.94-2.74-.94-3.53-.47-1.17-.94-3.52l-.95-5.48q0-3.13-.47-5.87t-.94-3.92l-4.24 8.22v38.76l-2.82 3.52-3.77-3.52v-31.71q-.94.78-2.82 2.74-1.42 1.96-3.3 4.3-1.88 1.96-3.3 3.92-1.4 1.96-1.88 3.13-.47.79-2.82 5.1-2.36 3.9-5.18 9.39-2.83 5.48-6.13 10.96-2.82 5.48-4.23 8.61-.47 1.57-2.36 3.52-1.88 1.57-2.35 3.14-.94 2.34-2.83 6.26-1.41 3.91-3.3 7.83-1.4 3.91-2.82 7.44-1.41 3.13-1.88 3.52 0 .78.94 3.91 1.41 3.14 1.41 4.31 1.41 0 5.65.4h18.84q4.7 0 7.06-.4h2.83q2.35-.4 5.18-.78 3.3-.4 6.12-.4 2.82-.39 3.76-.39 1.89-.39 5.18-.78 3.3-.78 6.6-1.17 3.3-.4 5.65-.79t2.82-.39h40.5q1.41.78 7.06 2.35 6.12 1.57 8.48 2.35.94.78 4.7 4.3 4.24 3.14 5.19 4.7.47 1.18 2.35 4.3 2.35 3.14 2.35 4.32v23.09q0 .4-.94 2.74t-.94 3.13q-.47.79-1.41 2.74-.94 1.57-2.36 3.53l-2.82 3.91q-1.41 1.96-1.88 3.13-.48 1.18-1.42 2.35-.94.79-1.88 1.96l-.94 1.57q-1.89 1.56-4.71 4.7-2.83 2.73-3.77 3.52 0 .78-1.88 2.35l-2.36 1.95q-.94.79-3.3 2.35-2.35 1.57-5.17 3.52l-4.71 3.14q-1.88 1.17-2.36 1.56-.94.79-4.23 2.35-2.83 1.57-3.77 2.35-.94 0-3.3 1.57-2.35 1.17-5.65 2.74-2.82 1.17-5.65 2.74-2.35 1.17-2.82 1.56-.47 0-1.89 1.18-.47.39-.47.78v5.87q0 1.18.47 5.48.47 4.7.47 9.79.47 5.09.95 9.4.47 4.3.47 5.08v27.8q0 .78-.47 2.74l-.95 4.7q0 2.34-.47 4.3-.47 2.35-.47 2.74-.94-1.17-1.88-5.09-.47-3.91-1.41-5.48-.48-3.13-1.42-11.35-.47-7.83-1.4-17.23-.48-9-.95-17.22-.47-7.83-.47-10.96zm-29.2-63.42v2.74q0 1.56.48 3.52.47 1.96.94 4.3 0 1.57 1.41 4.7 1.89 2.75 3.77 4.31 0 .4 3.77 3.92 4.24 3.52 6.12 4.7.47 0 2.35 1.17 1.89.78 2.36.78h25.42q.48 0 2.36-.78l4.7-1.57 4.72-2.35q2.35-1.17 3.3-1.95.94-.4 2.82-1.96 1.88-1.57 2.82-1.96.48-1.56 2.36-4.3 2.35-3.14 2.35-4.7v-10.57q0-.79-2.35-3.92-1.88-3.52-2.36-4.3-.94-.4-4.23-1.96-2.83-1.96-3.77-1.96-.47-.78-5.65-1.17-5.18-.78-7.06-.78h-12.72q-2.35 0-6.6.39-4.23 0-8.94.39-4.24 0-8 .39-3.3.4-3.77.78-.94 0-2.82.79-1.42.39-2.36.78 0 1.56-.94 5.48-.47 3.91-.47 5.09z" aria-label="S" style="font-size:518.396px;font-family:&quot;a dripping marker&quot;;-inkscape-font-specification:&quot;a dripping marker, Normal&quot;;white-space:pre;display:inline;fill:#fff;stroke:#ababab;stroke-width:0"/><path d="M292.49 312.09q-.94 0-4.24.78-2.82.78-3.76.78-.48-.39-2.83-1.95-1.88-1.57-1.88-1.96V247.1q.47-11.36.94-26.63t.94-32.88q.94-17.61 1.41-32.88t.94-26.62q.48-11.35.48-14.1.94-1.17 3.76-5.87 3.3-5.09 4.24-6.26 0-.78 2.83-3.13l4.23-3.52q.95-.4 3.77-1.96 2.83-1.57 3.77-1.96 1.41-1.17 2.82-1.96.94-.78 2.36-1.17h7.54q.93 0 1.87 1.17.95 1.18.95 1.96 0 .4.94 2.74 1.41 2.35 1.41 3.13v8.61q0 .79-.47 3.53-.47 2.35-.94 5.09 0 2.74-.47 5.48-.47 2.35-.47 3.13 0 3.52-.47 16.44-.48 12.53-1.42 30.14-.47 17.23-1.41 37.2-.94 19.57-1.88 37.18-.47 17.23-1.42 30.14-.47 12.53-.47 16.05-.94 1.57-1.88 3.92-.47 2.35-1.41 3.13-1.42 1.18-2.36 2.74l-2.82 3.13q0 .79-.94 2.35-.95 1.57-.95 2.35 0 1.57-.47 5.48-.47 4.3-.94 9 0 4.7-.47 8.62-.47 4.3-.47 5.87-.47 1.96-1.41 5.48l-.94 7.05q-.48 3.91-.95 7.04v4.3q0 .8-1.4 5.88-.95 5.09-.95 6.66 0 .39-.94 3.91t-1.89 4.7q0 .78-.94 3.13t-.94 2.74z" aria-label="I" style="font-size:518.396px;font-family:&quot;a dripping marker&quot;;-inkscape-font-specification:&quot;a dripping marker, Normal&quot;;white-space:pre;display:inline;fill:#fff;stroke:#ababab;stroke-width:0"/><path d="M444.11 303.87q.48-.79-1.4-1.18-1.42-.78-2.83-1.96l-5.65 40.33-3.3 1.56q-.94-.78-.94-3.52 0-2.35-.94-2.74v-5.87q.47-4.7.47-10.18.47-5.1.94-9.79.47-4.7.47-5.87v-4.3q.47-3.14.47-6.27.47-3.13.47-5.87v-3.53q-.47-.39-.94-1.17-.94-1.57-.94-2.35l-3.77-4.7q-2.35-3.52-3.3-4.7l-2.82-3.52q-1.41-2.74-3.3-5.48-1.88-2.74-3.76-4.7l-1.89-3.13q-1.41-.78-5.18-3.91-3.3-3.52-7.06-7.05-3.3-3.91-6.6-7.44-2.82-3.52-4.23-5.08-.47.78-.94 2.74v2.34q-.47 1.18-.47 3.53 0 1.17-.47 1.95v9.4q.47 7.05.47 15.27.47 8.22.47 15.66.47 7.04.47 9-.47.4-.47 1.96 0 .78-.47 1.56v3.53q-.94.39-3.77 3.52-2.35 2.74-3.3 3.13-.94.78-3.3 2.35-1.88 1.57-4.7 3.52l-5.65 3.13-3.3 2.74-4.7 1.57q-.95 0-2.83-.4h-2.83q-.94 0-1.88-.38H349q-.95 0-1.42-.4l-1.88-1.95v-6.65q0-2.35-.47-4.7-.47-2.74-.94-3.92v-13.31q.47-2.74.47-3.52v-7.83q0-2.74-.47-4.7 0-2.35-.47-3.13 0-1.96-.47-5.87v-19.57q0-2.35-.95-7.05l-.94-10.18q-.47-5.09-1.41-9.4-.47-4.3-.47-5.48 0-1.56-.47-5.48-.47-3.91-1.41-7.83-.48-4.3-.95-7.82-.47-3.92-.94-5.1 0-.78-.94-3.52-.47-3.13-1.41-6.26-.47-3.13-1.42-6.26-.47-3.14-.47-4.31 1.89 0 2.36-1.17.47-.4.47-1.96.47-1.57.47-3.13.47-1.96.47-3.53v-1.95q.94 0 2.83-2.35 2.35-2.35 3.3-2.74 3.76-2.35 6.11-4.3.47 0 3.77-1.18 3.3-1.57 4.24-2.35.47-.4 1.41-.4t1.88-.39q1.42 0 2.36-.39.47.4 1.41.4t1.41.39h4.24q.94.39 2.36 1.95 1.41 1.57 2.35 2.74 0 .4.94 1.96.94 1.57 1.89 3.52 1.4 1.57 1.88 3.53.94 1.56.94 1.96.94 1.95 3.77 5.08 2.82 3.14 2.82 3.92.48.78 3.3 3.91 2.83 2.74 6.12 6.27 3.77 3.13 6.6 6.65 3.29 3.13 4.7 5.1 2.83 2.34 9.42 9t13.66 14.48q7.53 7.44 14.12 14.48 6.6 6.66 9.42 9.4v-1.18l.47-.78q0-1.17-.47-3.91l-.94-6.27q-.47-3.13-.94-5.87t-.47-3.52q0-2.74-.95-12.53-.94-9.79-1.88-21.14-.94-11.74-1.88-21.53t-1.42-12.53q0-1.95-.47-3.52-.47-1.17-.47-2.74l-3.76-.78q-1.89-.4-3.3-1.18-3.3-.78-2.35-3.52v-4.7q0-.78.47-1.17.47-.78 1.88-2.74 1.41-2.35 2.35-3.13 0-.79 1.42-1.96 1.4-1.18 1.4-1.96l2.83-3.52q2.36-2.35 2.83-1.96 1.41-1.96 5.65-4.3 4.24-2.35 6.6-3.53 1.4-.78 3.29-1.56 3.77-1.57 4.24-1.57l2.82-1.17q1.89-.79 2.83-.4h.94q.47 0 .94.4h5.65q.94.39 2.36 2.34 1.4 1.96 1.88 2.74 0 1.18.47 2.74.94 3.14.94 3.53 0 .78.47 5.09.94 3.91.47 5.87 0 1.56.47 8.61.95 6.66 1.42 14.88t.94 15.26.47 8.62q.47 1.95.94 5.48.47 3.13.47 6.65.47 3.52.47 6.27.47 2.34.47 2.74.95 5.87 2.36 17.61l4.24 26.62q2.35 14.88 4.7 31.32 2.83 16.05 5.19 30.92 2.35 14.49 4.23 26.23t2.83 17.23l-.47 1.95q0 1.57-.47 2.74 0 .79-2.83 3.53-2.35 2.74-2.82 3.52-.47.4-2.83 1.57-1.88 1.56-4.24 3.13-2.35 1.56-4.7 2.74l-2.36 1.96q-.94.78-5.18 1.56-3.77 1.18-5.65 1.96-.94 0-1.88-.4h-.95l-2.35-.38q-.94-.79-3.3-3.53-1.88-2.74-2.82-3.52-1.41-1.57-4.24-6.66-2.35-4.7-5.18-10.17-2.82-5.48-5.65-10.57-2.35-4.7-3.77-6.66l-4.23-.39-7.07 46.59-3.3 5.48V361.8q.48-3.52.48-7.04 0-3.13-.47-4.3.47-2.75 1.4-9.01.95-5.88 1.9-12.53.93-6.65 1.88-12.92.94-5.87 1.4-8.22z" aria-label="N" style="font-size:518.396px;font-family:&quot;a dripping marker&quot;;-inkscape-font-specification:&quot;a dripping marker, Normal&quot;;white-space:pre;display:inline;fill:#fff;stroke:#ababab;stroke-width:0"/><path d="M578.32 307q-1.42-.4-5.18-1.57-3.3-1.56-7.07-3.13-3.3-1.96-6.59-3.52-3.3-1.57-4.24-2.35-1.88-.78-5.18-1.96-2.82-1.56-2.82-2.35-1.41-1.17-5.18-3.91l-7.07-5.87q-3.76-3.14-7.06-5.48-3.3-2.75-3.77-3.53 0-.39-3.76-5.09-3.77-5.09-5.65-7.83-.94 0-1.89-1.17-.47-1.57-1.4-2.35l-2.83-5.87q-1.42-3.92-2.36-4.7 0-1.17-.94-4.7-.94-3.52-.94-3.91v-34.84l.94-3.92q.47-1.95.47-3.52.47-1.96.47-3.13.94-.4 1.41-2.74.95-2.35 1.42-3.13l3.3-5.48 4.7-7.83q2.36-4.3 4.24-7.83 2.35-3.53 2.82-4.7.95-.4 3.77-3.52 2.83-3.53 3.77-3.92l7.06-5.87 9.42-7.83 8.95-7.44q4.23-3.52 5.18-4.7.47-.39 2.35-1.56l4.7-2.35q2.83-1.57 5.19-2.74 2.35-1.57 3.77-2.35 1.88-.39 7.53-2.74l7.53-3.13q1.42-.78 7.07-2.35 6.12-1.56 8.47-2.35 1.42 0 7.07-.78 6.12-.78 7.53-.78h15.07q1.41 0 7.53.78t8.48.78q.94.79 3.77 1.57 2.82.78 3.3 1.56 1.88 0 5.64 1.96 4.24 1.57 5.18 1.96 1.42.78 5.18 3.52 3.77 2.35 4.71 3.13.47 0 3.3 3.14 2.82 3.13 3.76 4.3l.95 1.57q.94.39 1.4 1.17.48 1.18.95 1.96v9q0 .4-1.41 2.74-.94 2.35-1.89 3.13-.94 1.18-3.3 3.53l-5.17 4.3-4.71 4.7q-2.35 1.96-3.77 2.74-.94 0-4.24.78-2.82.79-4.23.79h-4.24q-1.88-.79-4.71-3.13l-3.77-3.14q0-.78-1.41-3.13-.94-2.35-.94-2.74-.47-.78-3.3-3.13-2.82-2.74-3.76-3.52-.95-.4-5.18-1.96-3.77-1.57-5.18-1.96-.95-.78-4.24-1.95-2.83-1.18-3.77-1.18h-19.78q0 1.96-.47 6.26 0 4.31-.47 9t-1.41 9.01q-.47 4.3-.94 5.87 0 1.18-1.42 5.1-.94 3.9-.94 5.47l-4.23-4.3v-36.4l-6.13 15.26-2.35-1.57q-.47-1.56-1.41-4.3-.47-3.14-.47-4.7h-2.83q-.94.78-2.35 1.17l-1.89.79q-.94.39-1.41.39-.94.78-3.77 2.35-2.82 1.17-3.3 1.17l-4.23 3.52q-2.83 2.35-3.77 3.53-1.41.78-4.24 4.3-2.82 3.13-2.82 3.92-.94.78-2.83 4.3l-2.82 4.7q-.47.4-1.41 2.74-.48 2.35-1.42 3.13 0 1.96-.94 5.88t-.94 4.7v21.13q0 .78.94 3.92.94 2.74.94 4.7.94.78 1.89 3.52.94 2.35.94 3.13.94.39 2.82 3.91 1.89 3.53 2.83 4.7l1.88 2.35q.94.78 1.41 1.96.95.78.95 1.56 1.88 1.57 4.7 5.1 2.83 3.12 3.77 3.12.94 1.57 4.71 5.1l4.71 3.9q1.41.4 5.65 2.75t4.7 3.13l3.78 1.57q2.82 1.17 5.65 2.74 3.3 1.17 6.59 2.74 3.3 1.17 4.7 1.56.48 0 3.3 1.18 2.83.78 3.77.78 1.41.4 4.24 1.17 3.3.4 6.12.79t5.18.78h2.83q1.4 0 5.18-.78 4.23-1.18 5.18-1.96t4.7-3.52q3.77-2.74 4.71-4.31 2.36-2.74 5.18-7.44 3.3-5.09 3.3-5.87v-28.97q-3.77-.39-12.24-.78-8.48-.4-18.37-.4-9.89-.38-18.83-.78-8.48-.39-12.25-.78-2.82 0-8.47-.39-5.18-.4-10.83-.4-5.65-.38-10.36-.77-4.71-.4-6.12-.4-.95-.39-3.77-.78-2.83-.78-3.3-1.56-.94-.79-1.41-1.57-.94-1.57-.94-1.96v-2.74q0-1.17.94-3.52.47-1.18 1.41-2.35.47-1.17 2.83-3.52l5.65-4.7 5.18-4.3q2.82-1.96 3.77-2.75.94 0 3.76-.78 3.3-1.17 4.24-1.17h15.54q7.53 0 18.83.39 11.78 0 24.5.39 13.18 0 25.89.39 13.18 0 24.01.4 10.83 0 17.9.38h8.94q.95 0 3.77.4 3.3 0 6.6.39 3.76.39 7.06.78h4.24l3.76 3.13v7.44q0 .78-1.41 2.35-1.41 1.56-2.35 2.35-.48.78-2.36 3.52t-2.35 3.52q-.95 0-1.42.4-.94.78-.94 1.56-1.41 1.17-5.65 3.52t-4.7 2.35q-1.9.78-7.54 2.35t-7.54 2.35q-.94.39-1.88 2.74-.47 2.35-1.41 3.13v6.26q.47.79.94 3.92.94 3.13 1.88 7.44.95 3.91 1.42 7.83.94 3.91 1.4 6.26.48 1.17.95 5.48.94 4.3 1.88 5.09 0 1.17.47 3.52.95 2.35 1.89 5.1l1.88 4.69 1.41 3.52q0 .79.48 3.13.94 2.35 1.4 5.1.95 2.34 1.42 4.3.94 1.96.94 2.35v4.3q.47 3.14.47 4.31 0 2.35-.47 5.09v3.91q-.94 1.57-1.88 2.74t-1.88 1.96q-.48.78-.48 1.57-1.88 1.56-6.12 4.3-3.76 2.74-4.7 3.53-1.42.78-5.19 2.74-3.76 1.95-5.18 1.95h-8l-1.88-1.95q-.95-.79-2.83-6.27-1.41-5.09-2.35-7.04l-.95-3.13q-.47-1.18-1.4-2.74-.48-1.18-.95-1.96 0-1.18-.94-5.1-.94-3.9-2.36-8.6-1.4-4.7-2.82-9-.94-4.31-.94-5.49 0-.78-1.42-3.13-.94-2.35-.94-3.13-1.41 1.17-6.12 4.3-4.7 3.14-6.6 4.31-2.35 1.57-6.11 4.3-3.77 2.36-4.24 2.36-1.88.39-7.53 2.74l-7.54 3.13q-1.41.78-7.53 2.74t-8.48 1.96q.94 1.17.94 5.87 0 5.09-.94 7.04 0 .79-1.41 4.7-.94 4.3-.94 5.87-.47-.78-1.42-1.56-.47-.4-.47-.79-.94 0-1.88-3.52-.47-3.52-.94-4.7 0-1.56-1.41-5.87-.95-3.91-.95-5.48l-.94-.78q-.94-.78-2.35-.78h-2.36q0 1.95-.47 7.04 0 5.1-.47 10.57-.47 5.87-.94 10.96v7.05q-.47 1.17-.94 3.91l-.94 5.48q0 3.14-.47 5.88-.48 3.13-.48 4.3 0 1.18-1.4 5.1-.95 3.9-.95 5.47-.94 0-1.88.78-.47.79-1.42.79 0-1.18-1.4-5.1-.95-3.9-.95-5.47v-21.14q0-.4-.94-4.3-.94-3.53-.94-4.31-.48-1.18-.95-5.1-.47-3.9-.94-8.21-.47-4.3-.94-8.22v-5.48z" aria-label="G" style="font-size:518.396px;font-family:&quot;a dripping marker&quot;;-inkscape-font-specification:&quot;a dripping marker, Normal&quot;;white-space:pre;display:inline;fill:#fff;stroke:#ababab;stroke-width:0"/><path d="M792.1 297.21q-.95.78-1.89 1.18l-1.88.78q-.47.39-1.41.39-1.42.78-3.3 1.96-3.77 2.35-4.24 2.74-2.82.78-5.65 1.96l-3.77 1.56q-.94 0-2.35.4-.94.38-1.88.38t-2.36-.39q-.94-.39-1.88-.39l-.94-.78-.94-.78v-8.23l.94-3.13q.47-1.95.47-3.52.47-1.96.47-2.35.94-2.74 1.88-7.44t.94-5.48V215q0-.39-.94-.78l-1.88-1.57h-1.88q-.48.4-2.83.79-1.88.39-4.24.78-1.88 0-3.76.4l-1.89.38h-12.71q-.94-.39-1.41-.78-.95-.78-.95-1.57l-.94-.78q-.47-.39-.47-1.96 0-1.17.47-1.95l.94-1.57q0-.78.47-1.96 1.42-1.95 1.89-2.34.47-.79 2.35-3.14t2.36-3.13q0-.78 2.35-1.96 2.36-1.56 3.3-2.34.94 0 4.7-2.74t4.71-3.53q1.42 0 2.36-.78.47-.4.94-1.18v-3.91q-.47-.78-1.41-6.65-.47-5.88-1.41-12.92-.95-7.05-1.89-12.92-.47-6.26-.94-7.44l-4.7-7.83-2.83-3.52q-1.89-2.74-2.83-2.74-.94-1.57-4.7-4.7-3.77-3.52-4.72-4.3-.94 0-4.23-1.57-3.3-1.96-4.24-2.35l-1.89-1.96v-8.61q0-.78 2.36-3.91 1.88-3.53 2.35-4.31.94-1.57 4.71-4.7l5.18-4.3q1.88-.4 5.65-1.96 4.24-1.57 5.18-1.96h7.06q.48 0 3.3 1.18 2.83.78 5.65 1.95 3.3 1.18 5.65 1.96 2.83.78 3.77.78 2.35 1.18 7.06 3.13 4.71 1.57 5.65 1.57 2.36.78 6.6 1.96 4.7 1.17 9.41 2.74 5.18 1.17 8.95 2.35 4.24 1.17 5.18 1.56.94 0 4.7.79 3.78.78 8.48 1.95 5.18 1.18 9.9 2.35 5.17.78 8 .78.94 0 5.65 1.18 4.7.78 7.06.78.94.4 3.3 1.18l4.7.78q2.36.4 4.24.78h2.83q3.3 0 10.83.79 7.53.39 16.01 1.17t16.01 1.57q7.53.39 10.83.78l.94.78.94.78v9l-1.88 3.53q-.94 1.18-2.82 3.13l-3.77 3.92-3.77 3.91q-1.88 1.96-2.35 2.35l-5.18 83.38-4.24 1.96V146.5l-1.88.78q-.48.4-.95.4t-.47.38q-.47.4-.94 5.87-.47 5.1-.94 11.36 0 5.87-.47 10.96l-.47 4.7q0 .78-1.89 1.56l-1.88.78v-36.8q-1.88-.38-7.06-.78-4.71-.39-10.36-.39l-10.36-.78q-4.71-.4-6.6-.4-1.4 0-4.7-.38-2.83-.4-6.12-.4-3.3-.39-6.13-.78-2.82-.39-3.76-.39-1.42-.39-7.07-1.17-5.65-1.18-12.24-2.35-6.12-1.18-11.77-1.96t-7.06-.78h-1.89q0 .78-.47 3.13t.47 3.13v5.87q.47 5.1.47 11.36.47 6.26.94 11.74l.48 5.09q2.82.39 9.88.78 7.07.4 14.6.78 8 .4 14.6.79 7.06.39 9.89.78.94 0 4.7.78 4.24.79 5.19.79.47.78 2.35 2.34 2.35 1.18 2.35 1.96v6.27q0 .78-.94 2.34-.94 1.18-.94 1.96-.94 1.57-2.82 3.92-1.42 1.56-2.36 2.35-.94 1.56-3.77 3.91l-3.76 3.13q-1.89.78-6.12 2.35-3.77 1.17-4.71 1.17-.47.4-1.42.4-.94.39-2.82.39-1.41 0-3.3-.4-1.88-.39-2.82-.39t-6.12-.78-6.6-.78h-12.71v54.41q1.41 0 8-.78t8.01-.78q1.88 0 7.06-.4 5.65-.39 11.78-.39 6.12-.39 11.3-.78 5.65-.4 8-.4-.94-1.16-3.3-5.08t-2.35-5.48q0-.78-.94-4.7-.94-4.3-.94-5.87v-2.74q0-.78.94-3.13t.94-2.74.94-2.74q.47-1.18 1.42-1.96.47-.78 2.82-2.35l4.71-3.91q2.35-1.96 4.7-3.53 2.36-1.95 3.78-2.74.94-.39 2.35-.78 1.88-.78 2.83-1.57h9.88q.47 1.18.95 1.96.47 1.18 1.88 2.35 0 .78.94 4.7.94 3.52.94 3.91l3.77 6.27q3.3 4.7 4.24 6.26.47 1.17 3.3 4.3 2.82 3.14 3.76 4.31.47.79 2.83 2.74 2.35 1.57 4.7 3.53l4.71 3.91q2.36 1.57 3.77 2.35.94.78 6.12 4.3 5.18 3.14 6.6 4.31.94.78 3.76 2.35 2.83 1.57 3.3 2.35 1.41.39 5.65 2.35 4.7 1.56 9.89 3.52 5.18 1.96 9.41 3.92 4.71 1.95 6.13 2.74.94.39 2.82 1.95 2.36 1.57 2.36 1.96v8.22q0 .78-1.42 2.74-.94 1.57-1.41 1.57-.94 1.17-3.3 3.13-1.88 1.96-4.23 3.91l-4.71 3.92q-1.89 1.96-2.83 2.35-.94 0-2.82.78-1.89 1.17-2.83 1.17H942.3q-.93 0-3.29-.78-2.35-.39-5.65-1.17l-5.65-1.57q-2.35-.78-2.82-1.17-3.77-.79-10.36-1.96-6.13-1.57-12.72-2.74t-11.77-1.96q-4.7-1.17-5.65-1.17-.94 0-2.36-.4-2.82-.78-3.3-.78-.46 0-2.35.79-1.88.39-2.35.39 0 .78-.47 3.52l-.94 5.48q0 3.13-.47 5.87t-.47 3.53q0 1.17-1.42 5.48-.94 4.3-1.88 5.09 0 .78-1.41 2.34-.95 1.57-.95 2.35 0-.78-.47-3.13 0-1.96-.47-4.3l-.94-4.7v-3.13q-.47-.79-.94-3.92-.47-2.74-.94-6.26t-.94-6.66v-4.3l-2.36-1.96q-.94 0-2.35.78-.94.4-1.89.4v62.24l-3.3 10.57q-.93-.4-1.88-2.74t-.94-3.13q0-1.18-.47-3.92-.47-2.35-.94-5.48 0-2.74-.47-5.87-.47-2.74-.47-3.92-.47-2.74-.94-10.17-.47-7.05-.95-15.27 0-8.22-.47-15.27-.47-7.44-.94-10.57z" aria-label="E" style="font-size:518.396px;font-family:&quot;a dripping marker&quot;;-inkscape-font-specification:&quot;a dripping marker, Normal&quot;;white-space:pre;fill:#fff;stroke:#ababab;stroke-width:0"/></svg>