<svg xmlns="http://www.w3.org/2000/svg" viewBox="0 0 264 95"><path d="M61.88 0 0 61.96h16.5l41.25-41.3v41.3H66l41.25-41.3v41.3h12.38V0h-8.25L70.13 41.3V0zm80.43 0a18.6 18.6 0 0 0-18.56 18.59 18.6 18.6 0 0 0 18.56 18.58h16.5a6.2 6.2 0 0 1 0 12.4h-35.06v12.39h35.06a18.6 18.6 0 0 0 18.56-18.59 18.6 18.6 0 0 0-18.56-18.59h-16.5a6.2 6.2 0 0 1 0-12.39h35.07V0zm39.19 0v43.37a18.6 18.6 0 0 0 18.56 18.59h16.5a18.6 18.6 0 0 0 18.56-18.59V0h-12.37v43.37a6.2 6.2 0 0 1-6.19 6.2h-16.5a6.2 6.2 0 0 1-6.19-6.2V0zm74.25 0-16.5 16.52v8.26h12.38v37.18H264V0z" style="fill-opacity:1;fill-rule:evenodd;stroke:#000;stroke-width:0;stroke-miterlimit:4;stroke-opacity:1;stroke-dasharray:none;fill:#fff"/><path d="M0 66.09v8.26h264v-8.26Z" style="fill-opacity:1;stroke:#000;stroke-width:0;stroke-linecap:butt;stroke-linejoin:miter;stroke-miterlimit:4;stroke-opacity:1;stroke-dasharray:none;fill:#fff"/><path d="M17.11 78.22h-5.07L9 91.2 5.9 78.22H.77v16.35h3.27V80.7l3.13 13.87h3.46l3.21-13.87v13.87h3.27zm15.82 0H20.52v16.35h12.81v-2.9h-9.37v-4.23h8.26v-2.89h-8.26v-3.44h8.97zm3.27 16.35h7.31c1.87 0 3.5-.62 4.62-1.71 1.55-1.57 2.4-3.98 2.4-6.8 0-4.97-2.52-7.84-6.87-7.84H36.2zm3.44-13.55h3.38q1.72 0 2.61.87c.86.84 1.32 2.32 1.32 4.25 0 3.56-1.43 5.63-3.87 5.63h-3.44zm16.76-2.8h-3.52v16.35h3.53zm6.9 12.98h6.23l1.09 3.37h3.84L68.5 78.22h-4.08L58.4 94.57h3.73zm3.12-9.36 2.13 6.56h-4.3zm29.24-3.62H83.25v16.35h12.82v-2.9h-9.38v-4.23h8.26v-2.89h-8.26v-3.44h8.97zm13.6 11.48-6.77-11.48h-3.7v16.35h3.27V82.84l6.96 11.73h3.5V78.22h-3.27zm16.65-2.49v7.36h3.53V78.22h-3.53v6.2h-6.6v-6.2h-3.53v16.35h3.54V87.2zm10.55 3.99h6.22l1.09 3.37h3.84l-5.96-16.35h-4.07l-6.03 16.35h3.73zm3.12-9.36 2.13 6.56h-4.3zm20.59 7.86-6.77-11.48h-3.7v16.35h3.27V82.84l6.97 11.73h3.5V78.22h-3.28zm20.96-6.13a5.7 5.7 0 0 0-1.06-2.89c-1.3-1.84-3.5-2.9-6.17-2.9-4.82 0-7.83 3.33-7.83 8.66 0 5.3 2.95 8.56 7.74 8.56 2.24 0 4.13-.73 5.42-2.12.98-1.04 1.44-1.98 1.9-3.91h-3.53a5 5 0 0 1-.8 1.8 3.6 3.6 0 0 1-2.93 1.27c-2.64 0-4.22-2.1-4.22-5.58 0-3.6 1.6-5.71 4.33-5.71 1.18 0 2.18.4 2.78 1.1.38.47.58.83.84 1.72zm15.07-5.35h-12.4v16.35h12.82v-2.9h-9.38v-4.23h8.26v-2.89h-8.26v-3.44h8.97zm19.47 0h-5.08l-3.04 12.98-3.09-12.98h-5.14v16.35h3.28V80.7l3.12 13.87h3.47l3.21-13.87v13.87h3.27zm15.83 0h-12.43v16.35h12.82v-2.9h-9.37v-4.23h8.25v-2.89h-8.26v-3.44h8.98zm13.58 11.48-6.77-11.48h-3.7v16.35h3.27V82.84l6.97 11.73h3.5V78.22h-3.27zm13.82-8.59h5.1v-2.89h-13.74v2.9h5.1v13.45h3.54z" style="fill:#fff"/></svg>