<svg xmlns="http://www.w3.org/2000/svg" baseProfile="tiny" viewBox="0 0 264 65"><path d="M29.22 0c-5.64 0-11.13 4.64-12.14 10.39l-4.02 19.96c-.1 2.51.25 5.95 1.03 6.59 1 5.53 19.46 31.17 18.93 35.08-.5 3.91-2.67 15.43-2.67 15.43-.67 3.88-3.32 7-7.2 7a5.76 5.76 0 0 1-5.86-7l3.5-19.14H6.98l-4.6 26.55c-.95 5.39 2.7 9.67 8.12 9.67h19.65c5.45 0 10.63-4.28 11.63-9.67 0 0 5.06-24.8 5.04-26.55-.02-1.76-.51-1.95-.51-1.95 0-2.02-16.43-29.14-18.11-30.15-.72-.42-1.32-3.1-1.34-4.73C26.82 29.87 29 19.03 29 19.03c.67-3.88 4.35-7 8.23-7s5.5 3.12 4.84 7L39.1 36.21h13.88l4.84-25.82C58.92 4.64 55.23 0 49.59 0zm37.86 0L50.62 94.86c-.94 5.39 2.7 9.67 8.13 9.67H78.4c5.44 0 10.72-4.28 11.73-9.67L107.72 0H95.37L78.6 92.19a3.1 3.1 0 0 1-2.88 2.46h-9.77c-1.37 0-2.28-1.12-2.06-2.47L80.25 0zm47.33 0L94.55 104.53h13.17l9.05-47.33h16.77c5.46 0 10.63-4.31 11.63-9.67l7.2-37.14C153.46 4.63 149.78 0 144.14 0zm47.01 0-20.57 104.53h29.63l2.05-12.96h-14.6l5.97-35.3h14.6l2.06-10.9h-14.6l6.47-32.4h14.62L189.1 0zm35.4 0-19.75 104.53h13.16l8.96-47.33h9.36c1.23 1.15 1.38 3.26 1.54 4.32.24 1.54.5 3.5.31 5.04-.17 1.53-7.2 37.97-7.2 37.97h13.17s7.4-39.7 7.4-40.33c.03-.65 0-2.69-.71-3.8-.49-.73-1.31-2.39-2.27-2.99-1.84-1.18-3.91-1.96-3.91-1.96h-.93c3.77-1.48 10.87-3.93 11.63-7.92l7.2-37.14C235.88 4.63 232.19 0 226.55 0zm70.47 0-19.86 104.53h15.13l12.24-60.6 4.84 60.6h13.17L312.67 0h-15.13l-10.29 54.63L280.46 0zm52.26 0L299.7 104.53h13.17L332.72 0zm20.06 0-19.85 104.53h15.23l12.24-60.6 4.84 60.6h13.17L385.09 0h-15.22l-10.19 54.63L352.89 0zm51.04 0-2.47 12.96h8.23l-16.26 91.57h15.03l16.56-91.57h7.92L421.72 0zm36.21 0L406.3 104.53h29.63l2.06-12.96h-14.61l6.07-35.3h14.6l2.06-10.9h-14.6l6.37-32.4h14.61L454.54 0zm33.44 0-19.86 104.53h15.23l12.25-60.6 4.83 60.6h13.17L505.78 0h-15.23l-10.19 54.63L473.57 0zm52.37 0-19.86 104.53h30.04c5.46 0 10.72-4.28 11.74-9.67l15.94-84.47C551.6 4.63 547.94 0 542.3 0zm56.48 0c-5.65 0-11.03 4.64-12.04 10.39L542.4 94.86c-.96 5.39 2.61 9.67 8.03 9.67h21.7c5.45 0 10.72-4.28 11.74-9.67l15.94-84.47C600.9 4.64 597.2 0 591.58 0zm-45.27 12.04h6.08a5.76 5.76 0 0 1 5.86 7l-12.97 68.41c-.67 3.88-4.45 7.1-8.33 7.1h-5.97zm52.99 0h.4c3.9 0 6.44 3.1 5.77 7l-12.34 68.4c-.68 3.87-4.25 7.1-8.13 7.1s-5.5-3.22-4.84-7.1l12.24-68.42.1-.3.1-.32.1-.4.1-.32.11-.4.1-.32.1-.3.2-.31.11-.31.21-.31.1-.3.2-.32.22-.2.2-.31.2-.31.32-.2.2-.22.21-.2.3-.21.32-.2.2-.2.31-.22.31-.1.3-.2.22-.1.4-.11.31-.1h.31l.3-.1h.42zm-449.81.41h6.38c1.4 0 4.37 3.2 4.12 4.63l-5.46 25.83c-.25 1.33-2.06 4.41-3.39 4.41l-7.84.13-1.32-.64s-.94-1.22-.62-1.95l6.17-31.59a3.2 3.2 0 0 1 1.96-.82m82 0h6.38c1.4 0 4.39 3.2 4.1 4.63L214.1 42.8c-.23 1.35-3.58 4.53-4.93 4.53h-5.66c-1.17 0-1.97-.77-2.06-1.85 0-.17-.02-.42 0-.62l6.07-31.59.1-.1.1-.1.2-.1h.11l.1-.1.1-.1h.1l.1-.1h.12l.2-.11h.3v-.1zM0 113.58v34.27h587.26v-34.27zm431.7 3.6h5.04c1.22 0 2.1.98 1.85 2.27l-1.13 5.76h-2.78l.61-3.8c.14-.87-.37-1.55-1.23-1.55s-1.71.68-1.85 1.54l-.51 2.79c-.1.16.17.94.3 1.02.38.22 4.02 6.24 4.02 6.69q.13.31.1.41c-.1.75-1.14 5.87-1.14 5.87a2.7 2.7 0 0 1-2.57 2.15h-4.32c-1.2 0-1.97-.98-1.75-2.16l1.04-5.86h2.98l-.72 4.22c-.14.86.36 1.65 1.23 1.65.83 0 1.72-.79 1.86-1.65l.61-3.4c-.55-1.41-4.19-6.59-4.42-7.82-.16-.14-.23-.88-.2-1.44.02-.6.81-4.42.81-4.42h.11v-.3l.1-.21v-.1l.1-.1v-.11l.1-.1v-.1l.1-.1.1-.1v-.1h.1l.11-.11.1-.1.1-.1v-.1h.1l.1-.1.1-.11h.1l.11-.1h.1l.1-.1h.31zm23.66 0h3.7l.52 8.75 4.73-8.75h3.71l-7.61 13.38-1.85 9.77h-3.3l1.65-10.5zm33.65 0h5.03c1.22 0 2.07.98 1.85 2.27l-1.13 5.76h-2.78l.62-3.8c.14-.87-.36-1.55-1.24-1.55-.85 0-1.71.68-1.85 1.54l-.51 2.79c-.1.16.14.94.3 1.02.37.22 4.02 6.24 4.02 6.69.1.22.1.33.1.41l-1.02 5.87a2.75 2.75 0 0 1-2.58 2.15h-4.42c-1.2 0-1.98-.98-1.76-2.16l1.03-5.86h2.99l-.72 4.22c-.14.86.4 1.65 1.23 1.65.86 0 1.69-.78 1.85-1.65l.62-3.4c-.56-1.41-4.18-6.59-4.42-7.81-.16-.15-.22-.88-.2-1.44.02-.62.82-4.43.82-4.43l.1-.1v-.2l.1-.21v-.1l.1-.1v-.1l.1-.1v-.11l.1-.1.1-.1v-.1h.11l.1-.11.1-.1.1-.1.1-.1.1-.1.1-.11h.11l.1-.1h.1l.1-.1h.31zm23.97 0h6.9l-.52 2.78h-1.75l-3.6 20.38h-3.4l3.6-20.38h-1.75zm26.95 0h6.17l-.51 2.78h-3.2l-1.43 7.3h3.29l-.52 2.37h-3.19l-1.33 7.82h3.18l-.4 2.88h-6.6zm25.42 0h3.8l.62 13.38 5.86-13.27 3.7-.1-3.9 23.14h-2.88l1.85-12.24-5.15 12.24h-2.06l-.61-12.55-2.27 12.55h-3.4zm-552.6.83h6.08l-.41 2.88h-3.3l-1.33 7.2h3.19l-.42 2.47h-3.29l-1.23 7.82h3.19l-.52 2.88H8.13zm28.4 0h2.88l1.55 12.14 2.26-12.14h3.4l-4.43 23.25h-2.88l-1.13-13.48-2.68 13.48h-3.4zm30.87 0h6.79l-.41 2.88h-1.75l-3.7 20.37h-3.3l3.6-20.37H71.4zm29.94 0h6.17l-.51 2.88h-3.2l-1.43 7.2h3.18l-.4 2.47h-3.2l-1.33 7.82h3.19l-.41 2.88h-6.59zm29.01 0h6.59c1.22 0 1.99 1.08 1.75 2.36l-1.55 8.23c-.17.9-1.74 1.62-2.57 1.96h.41v.1h.41l.1.1h.31v.1h.21v.1h.1c.14.26.21 1 .21 1.14s-1.65 9.15-1.65 9.15h-2.98s1.6-8.1 1.65-8.43c.03-.36-.04-.8-.1-1.13-.03-.25-.04-.68-.32-.93h-2.05l-1.96 10.5h-2.98zm29.42 0h6.9l-.41 2.88h-1.75l-3.7 20.37h-3.3l3.6-20.37h-1.85zm34.26 0h3.92l-1.24 23.25h-3.91l.51-5.35h-2.36l-1.96 5.35h-3.5zm27.38 0H225l-4.42 23.25h-2.88zm26.54 0h2.88l1.54 12.14 2.27-12.14h3.29l-4.32 23.25h-2.99l-1.03-13.48-2.67 13.48h-3.4zm34.05 0h3.81l.61 13.48 5.87-13.37h3.7l-3.9 23.14h-2.89l1.85-12.24-5.14 12.24h-2.06l-.62-12.55-2.26 12.55h-3.3zm37.35 0h6.07l-.42 2.88h-3.29l-1.33 7.2h3.19l-.42 2.47h-3.28l-1.34 7.82h3.29l-.52 2.88h-6.48zm29.83 0h2.88l1.55 12.14 2.26-12.14h3.29l-4.32 23.25h-2.88l-1.13-13.48-2.68 13.48h-3.4zm30.56 0h6.9l-.52 2.88h-1.75l-3.6 20.37h-3.3l3.61-20.37h-1.85zm-246.61 2.77c-.16 0-.3.1-.41.21l-1.34 7v.1c0 .22.15.41.4.41h1.24c.31 0 1.08-.62 1.14-.92l1.13-5.77c.05-.33-.52-1.03-.83-1.03zm60.9 7-2.16 5.86h1.65z" style="fill:#fff" transform="scale(.44 .43965)"/></svg>