<?xml version="1.0" encoding="UTF-8" standalone="no"?><svg viewBox="0 0 797.55 136.84" version="1.1" id="svg2" xmlns="http://www.w3.org/2000/svg" xmlns:svg="http://www.w3.org/2000/svg"><g fill="currentColor" id="g2" style="fill:#ffffff"><path d="M92.98 20.37H39.26q-8.65 0-12.72 3.22-4.01 3.22-4.01 10.23 0 5.6 3.44 8.4 3.45 2.8 10.27 2.8H65q17.85 0 25.38 6.72 7.59 6.72 7.59 22.4 0 15.9-8.72 23.39-8.72 7.42-27.42 7.42H3.97V86.6h54.42q9.28 0 13.07-2.66 3.8-2.74 3.8-8.97 0-6.44-3.51-9.17-3.45-2.73-11.89-2.73H34.2q-17.86 0-26.15-7.07-8.23-7.14-8.23-22.47 0-16.39 8.65-23.95 8.72-7.56 27.63-7.56h56.88zm14.62 32.07q0-26.53 12.73-39.49Q133.13 0 159.2 0q26.3 0 38.88 13.1 12.66 13.09 12.66 40.39t-12.66 40.47q-12.58 13.16-38.88 13.16-26.58 0-39.1-13.23-12.5-13.24-12.5-41.45m51.61-34.8q-14 0-20.95 8.69-6.9 8.68-6.9 26.25 0 19.04 6.69 27.94 6.75 8.82 21.16 8.82 14.2 0 21.02-8.76 6.9-8.82 6.9-27.09 0-18.34-6.9-27.1-6.82-8.75-21.02-8.75m108.98 1.96q-13.5 0-19.48 8.54-5.9 8.55-5.9 28.08 0 16.94 5.7 23.88t19.68 6.93h35.71v17.92h-36.77q-12.16 0-19.12-2.03-6.96-2.1-13.08-7-7.94-6.3-11.95-16.39-3.94-10.15-3.94-24.22 0-27.3 11.88-40.26 11.89-13.02 36.85-13.02h36.14V19.6zm100.05.77h-26.65v25.9h26.65q10.82 0 15.04-2.93t4.22-10.08q0-7.07-4.15-9.95-4.08-2.94-15.11-2.94M319.87 2.03h53.5q18.7 0 27.42 7.5 8.72 7.48 8.72 23.45 0 11.83-5.41 19.32-5.35 7.5-15.47 9.66l25.8 42.99h-24.47l-22.78-40.47H341.6v40.47h-21.72z" id="path1" style="fill:#ffffff"/><path d="M468.15 22.47 453.03 62.1h30.8zM457.46 2.03h23.06l44.08 102.92h-24.18l-9.5-24.5H446l-9.21 24.5h-23.06zm83.74 18.06h-33.4V2.17h89.43v17.92H563.7v84.86h-22.5zm109.19-.14q-11.82 0-17.86 5.88-5.98 5.89-6.61 18l60.18.07v17.92h-60.32q.07 13.44 5.7 19.33 5.69 5.88 18.9 5.88h35.72v17.92h-36.77q-12.16 0-19.12-2.03-6.96-2.1-13.08-7-7.94-6.3-11.95-16.39-3.94-10.15-3.94-24.22 0-27.3 11.88-40.26Q625 2.03 649.97 2.03h36.13v17.92zm142.09.42h-53.71q-8.65 0-12.73 3.22-4 3.22-4 10.23 0 5.6 3.44 8.4t10.26 2.8h28.76q17.86 0 25.38 6.72 7.6 6.72 7.6 22.4 0 15.9-8.73 23.39-8.71 7.42-27.42 7.42h-57.86V86.6h54.42q9.28 0 13.08-2.66 3.8-2.74 3.8-8.97 0-6.44-3.52-9.17-3.45-2.73-11.88-2.73H733.7q-17.86 0-26.15-7.07-8.23-7.14-8.23-22.47 0-16.39 8.65-23.95 8.72-7.56 27.63-7.56h56.88zM3.78 136.84V113.8h23.68v3.93H9.16v5.14h10.68v3.93H9.16v5.71h18.52v4.34zM43 132.5h6.96q5.56 0 7.88-1.72t2.32-5.7q0-3.53-1.93-5.34-1.93-1.83-5.7-1.83H43zm-5.39 4.34V113.8H52.5q6.37 0 9.78 2.97 3.44 2.96 3.44 8.41 0 3.23-1.34 5.83-1.33 2.57-3.76 4.05-1.51.94-3.77 1.38-2.23.41-5.73.41zm43.37-23.05v18.71h15.34v-18.7h5.36v17.6q0 3.16-1.18 4.32-1.18 1.13-4.55 1.13H81.34q-3.35 0-4.56-1.13-1.18-1.16-1.18-4.32v-17.6zm51.97 4.12h-14.52v14.6h14.52v-4.96l5.38 1.11v2.73q0 3.16-1.2 4.32-1.19 1.13-4.53 1.13h-13.82q-3.37 0-4.55-1.13-1.18-1.16-1.18-4.32v-12.15q0-3.14 1.18-4.3t4.55-1.15h13.81q3.35 0 4.54 1.15 1.2 1.16 1.2 4.3v2.18l-5.38.85zm21.62 9.73h10.14l-5-9.38zm-10.35 9.2 13.09-23.05h5.19l13.26 23.05h-6.04l-2.78-5.04h-14.67l-2.69 5.04zm46.71-18.93v18.93h-5.38v-18.93h-10.62v-4.12h26.67v4.12zm17.25 18.93V113.8h5.39v23.05zm16.73-17.6q0-3.14 1.18-4.3t4.56-1.15h17.03q3.37 0 4.55 1.15 1.18 1.16 1.18 4.3v12.15q0 3.16-1.18 4.32-1.18 1.13-4.55 1.13h-17.03q-3.38 0-4.56-1.13-1.18-1.16-1.18-4.32zm5.38 13.26h17.76v-14.59H230.3zm34.42 4.34V113.8h3.67l16.3 13.59q.82.67 1.46 1.28.63.6 1.16 1.23l-.18-2.75q-.04-.81-.04-1.25v-12.1h4.84v23.05h-3.68l-16.99-14.24-1.07-.98q-.46-.44-.85-.9.1 1.07.15 2.03.07.94.07 1.64v12.45zm44.94-9.2h10.14l-5-9.38zm-10.35 9.2 13.09-23.05h5.18l13.27 23.05h-6.04l-2.78-5.04h-14.67l-2.7 5.04zm38.98 0V113.8h5.39v18.71h17.36v4.34zm76.12 0-13.44-23.05h6.18l9.42 16.66 8.97-16.66h5.4l-12.79 23.05zm22.84 0V113.8h5.41v23.05zm22.71-4.34h7q5.59 0 7.92-1.72t2.33-5.7q0-3.53-1.93-5.34-1.94-1.83-5.73-1.83h-9.59zm-5.41 4.34V113.8h14.96q6.4 0 9.84 2.97 3.45 2.96 3.45 8.41 0 3.23-1.34 5.83-1.34 2.57-3.79 4.05-1.52.94-3.78 1.38-2.25.41-5.77.41zm38.18 0V113.8h23.8v3.93h-18.4v5.14h10.75v3.93h-10.74v5.71h18.61v4.34zm33.53-17.6q0-3.14 1.19-4.3t4.57-1.15h17.12q3.4 0 4.58 1.15 1.19 1.16 1.19 4.3v12.15q0 3.16-1.19 4.32-1.19 1.13-4.58 1.13h-17.12q-3.38 0-4.57-1.13-1.19-1.16-1.19-4.32zm5.41 13.26h17.85v-14.59h-17.85zm92.21-14.68h-15.06v4.95h14.34q3.38 0 4.55 1.16 1.2 1.16 1.2 4.3v3.16q0 3.14-1.2 4.3-1.17 1.15-4.55 1.15h-14.21q-3.37 0-4.57-1.15-1.18-1.16-1.18-4.3v-.63l4.73-.98v2.72h16.26v-5.25h-14.35q-3.35 0-4.52-1.16-1.18-1.16-1.18-4.3v-2.55q0-3.14 1.18-4.3 1.17-1.15 4.52-1.15h13.06q3.25 0 4.46 1.11 1.24 1.11 1.24 3.95v.48l-4.72 1.11zm22.55 19.02v-10.31l-11.95-12.74h7.14l7.9 8.85 7.92-8.85h6.3l-11.91 12.6v10.45zm43.47-19.02h-15.06v4.95h14.34q3.37 0 4.55 1.16 1.2 1.16 1.2 4.3v3.16q0 3.14-1.2 4.3-1.18 1.15-4.55 1.15h-14.21q-3.38 0-4.57-1.15-1.18-1.16-1.18-4.3v-.63l4.72-.98v2.72h16.26v-5.25h-14.34q-3.35 0-4.53-1.16-1.17-1.16-1.17-4.3v-2.55q0-3.14 1.17-4.3 1.18-1.15 4.53-1.15h13.06q3.24 0 4.46 1.11 1.24 1.11 1.24 3.95v.48l-4.72 1.11zm26.84.1v18.92h-5.36v-18.93h-10.56v-4.12h26.51v4.12zm17.15 18.92V113.8h23.55v3.93h-18.2v5.14h10.62v3.93h-10.62v5.71h18.42v4.34zm33.6 0V113.8h4.34l10.84 13.94 10.6-13.94h4.28v23.05h-4.96V122.6q0-.41.05-1.05l.15-1.41q-.44.89-.76 1.48-.33.57-.6.94l-8.63 11.51h-1.07l-8.66-11.56q-.48-.65-.83-1.22-.33-.59-.54-1.13.06.72.08 1.3.05.6.05 1.14v14.24z" id="path2" style="fill:#ffffff"/></g></svg>