<svg xmlns="http://www.w3.org/2000/svg" viewBox="0 0 264 67"><path d="M36 37.14q-9.78-3.31-12.3-5.36a6.2 6.2 0 0 1-2.51-4.94 6.9 6.9 0 0 1 3.32-6.28q3.32-2.09 9-2.09A38.4 38.4 0 0 1 50.07 22l1.28-14a53 53 0 0 0-8.21-2A59 59 0 0 0 33 5.16q-14 0-22 5.9T3 27.81q0 9.23 5.21 14.06t15.89 8.26q8 2.68 10.72 5.21a7.5 7.5 0 0 1 2.69 5.53A6.9 6.9 0 0 1 33.92 67a17 17 0 0 1-9.29 2.26A37 37 0 0 1 13 67.36a33 33 0 0 1-7.63-3.17L4 79.22q3.65 1.08 9.44 2.2a63 63 0 0 0 12.16 1.13q13.73 0 21.84-6t8.11-16.85q0-8.91-4.36-14T36 37.14M245.78 6.45l-23.87 61.61h-29.73V6.45h-17.61v74.92l60.25-.1 6.12-16.43h29.74l6 16.43H296L266.49 6.45Zm-.22 45.4 10.51-30.38 10.1 30.38Zm101.87 7.51q-1.6-4.39-3.81-9.12a10.4 10.4 0 0 0-6.92-6q7.85-1.6 11.48-6.65a18.7 18.7 0 0 0 3.65-11.17q0-10.2-7-15.08t-20.15-4.89H296v74.82h17.61V50.88H319a8.5 8.5 0 0 1 6.76 2.74 20 20 0 0 1 3.75 6.93L337 81.27h18.9l-8-20.94Zm-17-23.67C328.18 37.24 325 38 321 38h-7.41V19.33h6.87q6.66 0 10 2.19c3.34 2.19 3.39 3.85 3.39 7.15a7.9 7.9 0 0 1-3.38 7.02Zm71.84 13.91q0 9.56-3.47 14.54t-10.91 5q-7.3 0-10.85-4.83c-3.55-4.83-3.53-7.9-3.53-14.06V6.45H355.9v47.12q0 14.28 8.27 21.63T388 82.55q15.88 0 23.88-7.62t8-23V6.45h-17.61Zm69.9-3.87q-4.35-5-15.18-8.59-9.77-3.32-12.3-5.36a6.2 6.2 0 0 1-2.51-4.94 6.9 6.9 0 0 1 3.32-6.28q3.32-2.09 9-2.09A38 38 0 0 1 471 22l1.29-14a54 54 0 0 0-8.21-2A59 59 0 0 0 454 5.16q-14 0-22 5.9t-8 16.75q.01 9.23 5.21 14.06c5.2 4.83 8.75 6 15.85 8.26q8 2.68 10.72 5.21a7.5 7.5 0 0 1 2.69 5.53 6.9 6.9 0 0 1-3.6 6.11 17 17 0 0 1-9.29 2.26A37 37 0 0 1 434 67.36q-5.8-1.88-7.64-3.17l-1.38 15q3.64 1.08 9.44 2.2a63 63 0 0 0 12.14 1.13q13.73 0 21.84-6t8.09-16.85q.02-8.89-4.32-13.94" style="fill:#fff" transform="matrix(.55754 0 0 .5582 -1.67 0)"/><path d="M61.94 0C39-.03 24.61 24.82 36.05 44.74l.38.64h1.71L60.8 22.69c2.07 2.07 4.92-.73 5.74-1.64l-1.42-1.42c-1.97-1.96-3.66 1.05-3.66 1.05l-4.32-4.33s6.74-3.08 10.4.6l2.74 2.74 5.02-5.03a3.73 3.73 0 1 1 2.23 2.24l-5.02 5.02 2.73 2.74c3.67 3.66.59 10.4.59 10.4l-4.32-4.32s3-1.67 1.04-3.67l-1.42-1.4c-.9.84-3.7 3.68-1.63 5.76L55.56 45.38h31.92C99.4 25.75 85.64.54 62.69.01z" style="fill:#fff"/><path d="M32.44 119.53h-7.18L23 113.41H12l-2.28 6.12H3l10.77-27.82h7.7Zm-11.1-10.94L17.6 97.31l-3.91 11.28Zm32.57 2.95V91.71H60v27.82h-7.89l-.23-.44-10.14-19.23v19.67h-6.15V91.71h8.14Zm50.35 7.99h-7.18l-2.23-6.12H83.79l-2.27 6.12h-6.7l10.77-27.82h7.7Zm-11.09-10.94-3.76-11.28-3.91 11.28Zm20.47-.37v11.31h-6.55V91.71h10.65q4.91.01 7.51 1.82a6.4 6.4 0 0 1 2.58 5.61 7 7 0 0 1-1.34 4.14 6.7 6.7 0 0 1-4.28 2.48 3.9 3.9 0 0 1 2.57 2.24q.8 1.76 1.42 3.39l.17.36 3 7.78h-7l-2.8-7.71a7 7 0 0 0-1.41-2.56 3.1 3.1 0 0 0-2.51-1Zm0-4.78h2.74a6 6 0 0 0 3.51-.86 2.9 2.9 0 0 0 1.29-2.6 3 3 0 0 0-1.25-2.66 7 7 0 0 0-3.75-.82h-2.54Zm25.57 5.9v10.19h-6.55V91.71h8.55q5.61 0 8.56 2.14c2.95 2.14 3 3.6 3 6.53a8.2 8.2 0 0 1-2.8 6.64q-2.79 2.33-7.78 2.32Zm0-4.85 2.23.07a5 5 0 0 0 3.45-1.07 3.8 3.8 0 0 0 1.26-3 3.6 3.6 0 0 0-1.28-2.92 5.3 5.3 0 0 0-3.43-1h-2.23Zm22.85 1.18a9 9 0 0 0 2.61 6.8 9.3 9.3 0 0 0 6.82 2.55 10 10 0 0 0 1.93-.16 9 9 0 0 0 1.34-.36v-6.15h-5v-4.83h11.34v15a38 38 0 0 1-4.21 1 30 30 0 0 1-5.5.51q-7.53 0-11.79-3.77c-2.83-2.5-4.25-6-4.25-10.59s1.46-8.12 4.37-10.62 6.94-3.78 12.07-3.78a32 32 0 0 1 4.89.33 18 18 0 0 1 3.66 1v.28l-.44 5.1a14 14 0 0 0-3.44-1.26 17 17 0 0 0-3.83-.42 11.2 11.2 0 0 0-7.7 2.54 8.9 8.9 0 0 0-2.87 6.83m41.7 0a9.1 9.1 0 0 0 2.6 6.8 9.3 9.3 0 0 0 6.83 2.55 10 10 0 0 0 1.93-.16 8 8 0 0 0 1.33-.36v-6.15h-5v-4.83h11.32v15a37 37 0 0 1-4.21 1 29 29 0 0 1-5.49.51q-7.53 0-11.79-3.77c-2.83-2.5-4.24-6-4.24-10.59s1.46-8.12 4.37-10.62 6.93-3.78 12.07-3.78a32 32 0 0 1 4.88.33 18 18 0 0 1 3.65 1v.28l-.44 5.1a13 13 0 0 0-3.43-1.26 17 17 0 0 0-3.82-.42 11.2 11.2 0 0 0-7.71 2.54 8.8 8.8 0 0 0-2.85 6.83m51.39 13.86H248l-2.24-6.12h-11l-2.28 6.12h-6.7l10.77-27.82h7.71Zm-11.1-10.94-3.74-11.28-3.91 11.28Zm37.43-16.88h9.85v27.82H285l.07-22.07-7.46 21.63h-5.82l-7.32-21.66.09 22.1h-6.34V91.71h10.13l6.46 19.4Zm33.87 27.82h-18.43V91.71h18.21v4.79h-11.66v6.34h10.8v4.79h-10.8v7.06h11.88Zm35.03 0H332V91.71h18.19v4.79H338.5v6.34h10.82v4.79H338.5v7.06h11.88Zm23.34-7.99V91.71h6.15v27.82h-7.93l-.26-.44-10.13-19.23v19.67h-6.14V91.71h8.15Zm17.44-5.87a9.1 9.1 0 0 0 2.6 6.8 9.3 9.3 0 0 0 6.82 2.55 10 10 0 0 0 1.94-.16 8 8 0 0 0 1.32-.36v-6.15h-5v-4.83h11.34v15a37 37 0 0 1-4.21 1 29 29 0 0 1-5.48.51q-7.53 0-11.8-3.77c-2.83-2.5-4.24-6-4.24-10.59s1.45-8.12 4.36-10.62 6.94-3.78 12.08-3.78a32 32 0 0 1 4.89.33 17 17 0 0 1 3.63 1v.28L409 97.9a13 13 0 0 0-3.44-1.26 17 17 0 0 0-3.82-.42 11.2 11.2 0 0 0-7.74 2.54 8.8 8.8 0 0 0-2.84 6.91m31.08 13.86h-6.55V91.71h6.55Z" style="fill:#fff" transform="matrix(.55754 0 0 .5582 -1.67 0)"/><path d="M446.25 111.54V91.71h6.15v27.82h-7.94l-.24-.44-10.13-19.23v19.67H428V91.71h8.13Z" data-name="catchphrase_letter_n" style="fill:#fff" transform="matrix(.55754 0 0 .5582 -1.67 0)"/><path d="M476.51 119.53h-18.43V91.71h18.2v4.79h-11.65v6.34h10.79v4.79h-10.79v7.06h11.88Z" data-name="catchphrase_letter_e" style="fill:#fff" transform="matrix(.55754 0 0 .5582 -1.67 0)"/></svg>