<svg xmlns="http://www.w3.org/2000/svg" viewBox="0 0 1675.76 223.06"><g fill="currentColor" stroke="currentColor" stroke-width="7"><path d="M930.63 66.41h114.74q20.08 0 34.63 15.57 14.55 15.37 14.55 36.88 0 21.72-14.55 37.09-12.3 13.11-28.69 14.96l43.24 59.41h-59.01l-42.82-59h-3.08v59h-59zm59.01 39.34v26.23h32.78q5.33 0 9.22-3.69 3.9-3.9 3.9-9.42 0-5.33-3.9-9.22t-9.22-3.9z" style="fill:#fff;stroke:#fff" transform="matrix(.96314 0 0 1.03828 -39.24 -44.65)"/><path d="M1053.22 239.85V69.16h143.38v44.38h-75.1v17.07h75.1v47.79h-75.1v17.07h75.1v44.38z" style="fill:#fff;stroke:#fff" transform="matrix(1.00295 0 0 .99706 -39.24 -44.65)"/><path d="M1176.2 119V70.37h159.78V119h-48.63v125.05h-62.52V119z" style="fill:#fff;stroke:#fff" transform="matrix(1.02051 0 0 .9799 -39.24 -44.65)"/><path d="M1416.54 66.41h114.74q20.08 0 34.63 15.57 14.54 15.37 14.54 36.88 0 21.72-14.54 37.09-12.3 13.11-28.69 14.96l43.23 59.41h-59l-42.83-59h-3.07v59h-59zm59.01 39.34v26.23h32.78q5.33 0 9.22-3.69 3.9-3.9 3.9-9.42 0-5.33-3.9-9.22t-9.22-3.9z" style="fill:#fff;stroke:#fff" transform="matrix(.96314 0 0 1.03828 -39.24 -44.65)"/><path d="M1557.58 148.75q0-38.14 26.5-64.21 26.5-26.29 68.3-26.29 42.24 0 68.74 24.13 26.5 24.14 27.8 66.37 0 38.35-28.45 65.28-28.44 26.94-68.08 26.94-39.86 0-67.44-26.94-27.37-26.93-27.37-65.28zm74.99-25.43q-14.01 9.7-19.4 23.7t3.23 26.72q9.05 12.28 23.92 11.85 15.08-.43 28.87-10.56 14-9.26 19.4-23.27 5.38-14.22-3.02-26.93-9.05-12.5-24.13-11.85-14.87.65-28.88 10.34z" style="fill:#fff;stroke:#fff" transform="matrix(.97865 0 0 1.02182 -39.24 -44.65)"/></g><path stroke-width="7" d="M22.9 75.44q0-23.53 22.17-38.88 22.38-15.35 58.8-14.33 33.01-1.03 68.98 3.27l-12.9 41.55q-14.7-1.84-38.67-1.63-23.75.2-26 6.95-2.27 6.76 5.88 9.21 8.13 2.25 28.27 3.69 21.03 1.43 36.18 13.92Q181 111.47 181 134.59q1.12 24.16-20.13 40.33-21.03 16.17-49.75 15.35-28.95 2.46-79.16-2.46l14.7-41.55q57.22 2.25 61.97-4.91 4.97-7.16-4.3-10.44-8.37-2.66-24.42-2.66-16.06-.21-35.74-11.46-21.7-14.73-21.26-41.35Zm167.55 34.26q0-36.88 25.53-62.1 25.53-25.41 65.8-25.41 40.67 0 66.2 23.33 25.53 23.35 26.78 64.18 0 37.1-27.4 63.14-27.4 26.05-65.59 26.05-38.4 0-64.96-26.05-26.36-26.03-26.36-63.14Zm72.23-24.59q-13.5 9.39-18.68 22.93-5.19 13.54 3.11 25.84 8.72 11.86 23.04 11.46 14.53-.43 27.81-10.21 13.5-8.97 18.68-22.5 5.2-13.76-2.9-26.06-8.71-12.08-23.25-11.46-14.33.63-27.81 10Zm119.77 110.45V23.04h81.01l40.5 82.8v-82.8h54.01v172.52h-74.26l-47.25-82.81v82.8zm187.76 0V23.03h76.48v172.52zm84.59-85.31q-.84-35.74 24.8-61.26 25.64-25.72 64.23-26.55 33.9-1.47 56.8 2.5l-18.65 62.52q-2.97-4.38-10.18-8.78-7.2-4.38-20.13-1.46-12.93 2.72-25.65 13.17-12.08 9.62-15.68 21.54t5.3 21.53q6.14 9.62 19.92 10.25 13.78.42 26.7-8.37 12.93-9.41 19.5-16.51l27.35 72.55q-27.77 7.52-65.28 7.52-39.43-2.51-64.23-26.76t-24.8-61.89Z" style="fill:#fff;stroke:#fff"/></svg>