<svg xmlns="http://www.w3.org/2000/svg" viewBox="0 0 282.73 50.07"><path d="M251.38 46.16H32l3.23 3.88 212.61.03zm5.12-6.12-114.85.02-114.75-.02 3.75 4.5 110.95-.03 111.14.02zm5.07-6.09H21.82l3.72 4.46 116.11-.02 116.2.02zM35.66 22.22s-3.33-5.56-3.35-5.54c-2.65-3.9-5.33-5.6-9.85-5.6H11.89l-3.7-4.96h17.23L22.45.53S9.98.33 4 .53A3.83 3.83 0 0 0 .4 6.07c-.05.05 5.22 7.22 5.22 7.22 2.3 2.52 3.93 3.23 9.32 3.38l10.28-.01 3.6 5.58H12.07l5.6 6.73s14.47 0 14.52-.06c4.3-.01 4.42-5.12 3.47-6.7M26.33.53l16.16 28.38h6.53l-6.54-12.25s5.48.08 8.23-.1c4.76.1 6.5-1.28 5.11-5.45l-2.23-5C51.5 1.94 50.6.84 44.31.53zm10.63 5.59h9.35l2.2 4.96h-9.27zm47.2 22.8-2-6.62s-7.82-.13-11.75-.06c-.59-1.35-2.24-5.58-2.24-5.58h11.75l-1.53-5.53h-12.2l-2.26-5.01h12.63L75.04.48 61.25.53c-3.42 0-5.41 3.5-4.77 5.62l7.05 16.18c2.2 4.2 4.3 5.94 8.32 6.44 4.5.54 12.3.14 12.3.14M93.25.52S87.81.45 84.26.6c-3.44.06-5.77 2.63-5.22 5.55l4.64 16.01c1.46 3.57 4.44 6.74 8.57 6.69l7.34.05-1.24-6.67h-7.77L85.84 6.12h8.51zm2.5 5.59h5.36l4.57 22.8h5.47l-3.7-22.8h4.18l-.71-5.56L94.68.53zm36.87 10.54c2.54 0 5.52-2.95 5.48-5.3-.13-1.74-.12-3.59-.31-5.26-.55-3.58-4.36-5.5-7.21-5.57-5.84.13-17.6 0-17.6 0l3.7 28.38h6.12l-2.37-22.8h10.6l.06 4.97h-2.68c-3.8 0-4.14 2.82-2.48 5.53a251 251 0 0 0 8.97 12.36h7.51s-5.57-6.73-9.8-12.3Z" style="fill:#fff"/><path d="m142.5 0-1.24 28.92 6.24.06-.02-6.74h8.57l-.3 6.75 5.68-.01s2.13-10.88 2.09-17.84C163.68 5 159.19.54 152.92.08 149.47-.04 142.49 0 142.49 0m14.26 11.08.1 4.99-8.72-.05-.18-9.9c6.23 0 8.6 1.35 8.8 4.96m17.9 17.35c3.53-.83 5.75-3.57 8.13-8.6 6.03-12.7 9.06-19.3 9.06-19.3h-6.76l-9.42 19.9c-.85 1.4-2.35 1.93-3.91 1.81 1.2-7.6 3.89-21.7 3.89-21.7h-6.69s-4.47 26.98-4.47 28.43c0 .04 7.31.13 10.17-.54M201.63.53l-7.7.03-8.2 28.41 7.24-.04zm3.93.03-9 28.41h15.1c4.47 0 9.83-6.82 9.83-6.82l7.78-16.16c1.76-4-1.03-5.46-5.37-5.38-6.26-.08-18.34-.05-18.34-.05m15.75 5.56-6.28 16.12s-5.9-.06-8.86 0l5.06-16.12zm22.88 16.12h-12.3l2.69-5.58h13.27l2.69-5.58h-13.09l2.63-4.96h14.04l2.84-5.59s-9.93-.2-15.65.18c-4.56.42-7.72 2.86-8.84 5.46l-7.5 16.12c-2.08 4.3.67 6.49 3.07 6.56 4.42.14 12.82.08 12.82.08zM266.99.67c-4.85.23-7.49 2.12-9.93 5.36-3.23 4.29-10.08 16.3-10.08 16.3-2.85 5.51 1.2 6.4 4.4 6.55.16.1 7.96.1 8.07.03 3.6-.08 4.36-.37 6.09-1.38.9-.53 2.81-2.6 5.06-5.3l11.7-16.1c1.6-2.2-1.44-5.6-4.49-5.51 0 0-10.64-.1-10.81.04m-2.39 5.45h10.6l-11.4 16.12h-9.76z" style="fill:#fff"/></svg>