<svg xmlns="http://www.w3.org/2000/svg" viewBox="0 0 230 60"><path d="M30.05 0A30.1 30.1 0 0 0 0 27.6l16.16 6.64a8.5 8.5 0 0 1 5.28-1.46l7.19-10.37v-.14c0-6.24 5.1-11.32 11.37-11.32s11.37 5.08 11.37 11.32S46.27 33.58 40 33.58h-.26L29.5 40.85l.01.4a8.54 8.54 0 0 1-16.9 1.67L1.04 38.19A30.14 30.14 0 0 0 30.05 60 30.1 30.1 0 0 0 60.2 30c0-16.57-13.5-30-30.15-30" style="fill:#fff;fill-opacity:1"/><path d="M18.9 45.52 15.2 44a6.42 6.42 0 0 0 11.68-.31 6.34 6.34 0 0 0-3.45-8.33 6.4 6.4 0 0 0-4.73-.08l3.82 1.58c2.4 1 3.55 3.74 2.54 6.13a4.7 4.7 0 0 1-6.16 2.53m28.68-23.25c0-4.16-3.4-7.54-7.58-7.54a7.57 7.57 0 0 0-7.58 7.54c0 4.16 3.4 7.54 7.58 7.54a7.57 7.57 0 0 0 7.58-7.54m-13.26-.02a5.7 5.7 0 0 1 5.7-5.66c3.14 0 5.69 2.54 5.69 5.66a5.7 5.7 0 0 1-5.7 5.67 5.7 5.7 0 0 1-5.69-5.67" style="fill:#fff;fill-opacity:1"/><path d="m93.63 16.43-2.8 4.9a14 14 0 0 0-7.61-2.4c-2.91 0-4.71 1.2-4.71 3.34 0 2.61 3.2 3.22 7.95 4.91 5.11 1.8 8.05 3.92 8.05 8.58 0 6.37-5.04 9.95-12.28 9.95-3.53 0-7.78-.91-11.05-2.89l2.03-5.42a19.4 19.4 0 0 0 8.68 2.23c3.82 0 5.64-1.4 5.64-3.48 0-2.37-2.78-3.09-7.25-4.56-5.09-1.69-8.62-3.91-8.62-9.07 0-5.81 4.68-9.15 11.41-9.15 4.7 0 8.47 1.48 10.56 3.06m21.85 3.09v25.65h-6.58V19.52h-9.55v-5.61H125v5.61zm23.4-.01v7.04h12.59v5.62h-12.59v7.33h14.61v5.67H132.3V13.91h21.19v5.6zm29.3 19.59-2.08 6.07h-6.9l11.78-31.26h6.63l12.11 31.26h-7.13l-2.13-6.07zm6.08-17.74-4.3 12.52h8.68zm49.24 4.63-8.6 18.27h-3.72l-8.46-18.1v19.01h-6.3V13.91h6.29l10.56 22.57 10.19-22.57h6.34v31.26h-6.3z" style="fill:#fff"/></svg>