<svg xmlns="http://www.w3.org/2000/svg" xml:space="preserve" id="Layer_1" x="0" y="0" viewBox="0 0 3839 1096.9"><style id="style2" type="text/css">.st1{fill:#ffe850}</style><g id="g5048" style="stroke:none"><g id="g8" style="stroke:none"><path id="path4" d="m3092.9 9.8-214.7 280L2663.5 10h-400.3c-90.2 0-163.5 73.3-163.5 163.4v21.4h-87.4c-7.7-49.6-32.3-95-70-128.9-40.2-36.1-92-56-145.9-56h-1366C356 9.9 287.6 26.5 227 59.2A376 376 0 0 0 80 202c-66.6 115.3-68.9 263.2-6.9 380.8H9.8v504.3h745.7c149.7 0 246.2-59.9 301.5-111.4h104.1V1087h504.3v-56.4c0-30.3 24.7-55 55-55H2510c30.3 0 55 24.7 55 55v55.8h427.9L3819 9.8zM430.6 101.6h1366c70 0 126.7 56.7 126.7 126.7v58.2h268.4V173.3a71.7 71.7 0 0 1 71.7-71.7h355l259.9 338.8 259.9-338.8H3633l-685.2 893.1h-290.9v-46c0-35.8-29-64.8-64.8-64.8h-953.5c-35.8 0-64.8 29-64.8 64.8v46.6H1253V883.9h-234.8c-4.5 5.3-9.3 10.5-14.3 15.6-43 43.7-121.1 95.8-248.2 95.8h-654V674.5h207c-63.4-23.6-115.3-66.5-149.1-125.1-52.9-91.6-52.9-210 0-301.6 53.7-92.9 152.4-146.2 271-146.2m2132.8 538.1v1.3h.9z" style="fill:#fff;stroke:none"/></g><path id="rect12" d="M1755.7 501.2h697.1v157h-697.1z" class="st1" style="fill:#fff;fill-opacity:1;stroke:none"/><path id="path14" d="M1796.5 183.5h-812v44.8c0-24.7-20-44.8-44.8-44.8H430.5c-305.3 0-305.3 430.2 0 430.2h325c95.1 0 95.1 142.7 0 142.7h-572v157h572c337.6 0 337.6-456.7 0-456.7h-325c-81.7 4.1-90.2-124.9 0-129h904.3v585.7h157V327.7h349.6v-99.4a44.94 44.94 0 0 0-44.9-44.8" class="st1" style="fill:#fff;fill-opacity:1;stroke:none"/><path id="polygon16" d="M2537.2 183.5h-247.7l559.6 729.3h58.2l559.6-729.3h-247.7l-341 444.4z" class="st1" style="fill:#fff;fill-opacity:1;stroke:none"/></g></svg>