<svg xmlns="http://www.w3.org/2000/svg" viewBox="0 0 264 73"><path d="M224.68.39c0 .3-.34.39-1.42.39-1.24 0-1.42.05-1.42.51s.18.52 1.94.52c1.36 0 1.93-.1 1.93-.34 0-.15.08-.56.16-.9.13-.5.05-.57-.52-.57-.41 0-.67.13-.67.39m5.16 0c0 .3-.34.39-1.42.39-1.21 0-1.42.07-1.42.49 0 .36.26.51 1.19.64.67.08 1.55.16 1.93.16.7 0 .75-.08.75-1.04 0-.85-.08-1.03-.52-1.03-.28 0-.51.18-.51.39m-10.58.91c0 .38.18.5.65.5.46 0 .64-.12.64-.5 0-.4-.18-.52-.65-.52-.46 0-.64.13-.64.51m-36.2-.07c-.1.07-.18 1.86-.18 3.92 0 4.27-.3 5.28-2.01 6.78-1.91 1.68-2.35 1.78-9.4 1.78h-6.4v1.29h7.05c7.9 0 8.23-.08 10.12-1.94 1.72-1.75 1.93-2.5 1.93-7.57 0-4.14-.02-4.45-.46-4.45-.26 0-.57.08-.65.19M70.54 3.67c-.1 1.04-.41 2.4-.7 3.03l-.51 1.16.64.64.65.65.44-1c.46-1.15.85-3.55.87-5.26 0-.98-.05-1.08-.62-1.08s-.61.13-.77 1.86m40.79 1.55c-.15 4.03-.46 5.12-1.86 6.57-1.6 1.68-2.75 1.91-9.2 1.91H94.9v1.32l6.52-.08c6.4-.08 6.56-.08 7.8-.72 2.6-1.35 3.48-3.73 3.48-9.39 0-3.02 0-3.02-.62-3.02s-.62.02-.75 3.41M135.4 2.4c0 .57.16.63 8.98 1.84l9.94 1.37.95.15V4.32c0-1.06-.1-1.45-.41-1.58-.77-.31-.93-.16-.83.75.06.49.08.9.08.9-.02 0-4.2-.56-9.31-1.29l-9.32-1.3c-.05 0-.07.27-.07.6" style="fill:#fff"/><path d="M167.12 3.62c-.44 1.47-1.86 3.02-3.1 3.39-.8.25-1 .44-1 .92 0 .55.12.6 1.1.6 1.89 0 3.7-1.7 4.41-4.21.13-.4.62-.44 5.78-.44h5.66l-.06-.6-.05-.57-6.22-.07-6.21-.06zm-112.73.13v.64h12.38V3.1H54.38zm174.16 0v.64h-9.29v4.79c0 2.63-.08 4.75-.18 4.75a19 19 0 0 0-1.8 0c-1.55.03-1.63.05-1.63.68v.67l2.4-.08 2.37-.08.08-4.73.05-4.7h9.29v-1.3c0-1.21-.05-1.29-.65-1.29-.51 0-.64.13-.64.65m-135.2.77v.65h15.74V3.88H93.35zm113.78.52v.65h7.49v-1.3h-7.49zm-75.59 1.78c0 3.26-.13 3.37-4.31 3.52l-3.3.13-.14 1.24c-.25 2.1-.74 2.35-4.4 2.48-3 .08-3.1.1-3.03.65.08.51.24.54 2.92.62 1.57.05 3.22 0 3.72-.08a2.4 2.4 0 0 0 2.08-2.45v-1.04h2.71c2.95 0 4.29-.36 4.75-1.24.16-.31.29-1.76.29-3.26V4.65h-.65c-.64 0-.64.03-.64 2.17" style="fill:#fff"/><path d="m115.59 6.51.08.6 6.4.08 6.37.05V5.95H115.5zm-27.92.73v1.03l-6.76.05-6.78.08v1.29l7.43.08 7.4.05v-1.8c0-1.76-.02-1.82-.64-1.82-.57 0-.65.1-.65 1.04m113.79 0v1.03h-13.41v1.55h14.7v-1.8c0-1.76-.03-1.82-.65-1.82-.56 0-.64.1-.64 1.04m-66 .05c.07.6 1.05.75 18.6 3.13l1.21.18V9.05c0-1.48-.02-1.55-.62-1.55-.54 0-.64.15-.72.85l-.08.85-8.77-1.24a777 777 0 0 0-9.24-1.24c-.33 0-.46.16-.38.57m76.01 1.78c-.67 2.77-2.14 4.37-4.03 4.37-.62 0-.8.13-.87.65-.13.62-.1.64 1.47.64 2.55 0 3.87-1.19 4.67-4.18.18-.75.36-1.81.36-2.36 0-.82-.08-.95-.57-.95-.52 0-.65.23-1.03 1.83m14.37-1.57c-.2.33.77 2.43 1.34 2.9.39.28.41.28.23-.19a12 12 0 0 1-.51-1.68c-.29-1.14-.72-1.55-1.06-1.03m-57.18 1.44c-.12.37-.23.7-.23.78 0 .05 2.2.1 4.88.1 4.2 0 4.9-.05 5.03-.41.44-1.16.41-1.16-4.65-1.14l-4.77.05zM66.9 11.37c-.1.16-.77.62-1.5 1.04l-1.34.77H53.63v1.29h5.88c5.75 0 5.88-.02 6.89-.64 2.24-1.37 2.01-1.4 3.74.23l1.57 1.45h4.7l-.6-.65c-.56-.6-.77-.64-2.88-.64h-2.3l-1.47-1.37a13 13 0 0 1-1.55-1.55c-.13-.26-.52-.24-.7.07m68.49.53c0 .64-.46.53 9.68 1.93 4.7.62 8.9 1.21 9.37 1.3l.82.15V13.7c0-1.47-.02-1.55-.62-1.55-.54 0-.64.15-.72.85l-.08.86-8.77-1.25c-4.82-.67-8.98-1.21-9.21-1.24q-.44 0-.46.52m93.14.75c0 .77-.03.8-1.27.8-.7 0-1.6-.13-2-.28l-.73-.26.82.85c.78.75 1.01.86 2.66.93l1.8.1v-1.31c0-.73-.1-1.32-.22-1.32-.13 0-.42-.08-.65-.16-.33-.12-.41.03-.41.65M19.12 21.58C12.98 23.5 8.46 32.65 8.77 42.52c.13 4.63.78 5.74 4.85 8.74 2.76 2.01 3.15 6.33.78 8.7-1.27 1.27-2.45 1.56-6.38 1.56H4.7l-2.35 5.22L0 71.99l4.44.08c2.58.05 5.05-.06 5.96-.21 4-.78 7.69-4.03 10.19-9.05 3.1-6.15 3.97-14.84 1.93-18.84-.59-1.16-2.14-2.82-4.05-4.27a5.2 5.2 0 0 1-2.16-3.54c-.18-1.4.28-3.25 1-4.06 1.19-1.29 1.86-1.44 6.5-1.6l4.37-.13.92-3.88 1.11-4.6.18-.7-5.08.03c-3.46 0-5.47.13-6.2.36m13.74-.08c-.08.27-3.15 15.39-6.64 32.78-.28 1.5-.54 4.16-.64 6.85-.16 4.89.1 6.54 1.37 8.48 1.78 2.71 7.01 3.85 10.58 2.25 4.02-1.76 7.66-6.67 9.52-12.74.44-1.5 6.55-32.26 7.43-37.35.05-.26-.65-.34-3.05-.34l-3.1-.03-.56 2.82c-.34 1.53-1.8 8.79-3.28 16.13a367 367 0 0 1-3.38 15.43c-1.06 3.34-2.84 5.27-5.21 5.64-1.42.2-2.22-.13-2.94-1.25-.47-.77-.52-1.16-.41-3.95.1-2.64.59-5.48 3.25-18.84A1244 1244 0 0 0 38.9 21.4c0-.36-5.94-.26-6.06.1m25.01.08c-.1.4-10.43 50.46-10.43 50.64 0 .1 1.42.13 3.18.1l3.14-.07 2.07-10.21 2.06-10.21 3.7-.08c2-.03 3.66-.16 3.66-.26s.46-2.38 1.03-5.07c.57-2.68 1.03-4.93 1.03-4.98s-1.68-.08-3.74-.08-3.74-.03-3.74-.08l.9-4.58c.5-2.45.9-4.52.9-4.57s1.78-.08 3.98-.08h3.94l.96-4.86c.52-2.66 1-5.04 1.08-5.27.13-.41-.38-.47-6.76-.52-4.4-.05-6.91.03-6.96.18m22.08.26c-.1.29-4.64 11.63-10.06 25.2s-9.93 24.85-9.99 25.03c-.1.25.62.3 3.44.25l3.56-.07 1.57-4.14 1.58-4.14h9.26l.07 3.93.08 3.93 7.07.08c6.14.08 7.12.03 7.23-.31.05-.2 1.26-6.38 2.7-13.7 2.35-12.02 2.84-14.32 2.84-13.16-.02.8 1.58 25 1.7 26.03l.14 1.12 1.85-.08 1.84-.08 6.08-12.98c5.6-11.91 6.79-14.32 6.38-12.87-.18.65-5.6 25.64-5.6 25.85 0 .08 1.52.1 3.4.08l3.41-.08 4.6-23.14 4.95-25.02.36-1.86h-6.53l-7.33 13.44a426 426 0 0 1-7.43 13.34c-.08-.08-.85-6.15-1.73-13.52l-1.6-13.39h-6.42l-5.19 24.9a1225 1225 0 0 1-5.36 25.04c-.08.1-.16-11.16-.16-25.02V21.33H83.4c-3.02 0-3.28.02-3.46.51m-.51 24.56v6.85h-2.58c-1.42 0-2.58-.08-2.58-.2 0-.22 5-13.5 5.1-13.5.03 0 .06 3.08.06 6.85m52.6-24.63-4.98 25.02-4.96 24.94 3.2.08c1.78.02 3.25.02 3.3-.03.1-.08 10.17-49.53 10.17-49.89 0-.15-6.68-.28-6.73-.12m22.34.51a643 643 0 0 0-2.2 10.83c0 .13 1.17.23 2.61.23 2.35 0 2.58.06 2.45.44-.23.83-7.37 37.28-7.37 37.7 0 .33.48.38 3.22.38 3.12 0 3.22-.03 3.35-.6.24-.95 7.61-37.63 7.61-37.79 0-.07 1.17-.12 2.59-.12 1.41 0 2.58-.08 2.58-.16 0-.1.59-2.66 1.29-5.71.72-3.05 1.29-5.59 1.29-5.66 0-.05-3.9-.1-8.65-.1h-8.64zm19.35 0c-.15.65-5.86 28.87-6.6 32.78-.65 3.3-.93 9.54-.52 11.68.88 4.4 3.17 6.2 8.02 6.26 2.25.02 2.61-.06 4.13-.78 3.95-1.89 7.2-6.36 9.16-12.56.5-1.58 6.94-33.94 7.4-37.12.08-.6.08-.6-3.01-.6h-3.07l-3.18 15.72c-3.4 16.78-3.87 18.82-4.82 20.73-1.5 2.92-4.9 4.52-6.68 3.13-1.94-1.53-1.73-3.85 2.11-23.37 1.73-8.63 3.12-15.9 3.12-16.08 0-.28-.62-.36-2.96-.36-2.87 0-2.97.03-3.1.57m24.13-.33c0 .28-9.78 48.88-9.96 49.44-.13.44.15.47 3.45.47 2.66 0 3.64-.08 3.72-.31.08-.18.75-3.67 1.5-7.76.77-4.1 1.47-7.36 1.57-7.23.08.1.54 3.59 1.03 7.72l.85 7.58h4.2c2.33 0 4.21-.08 4.21-.16 0-.1-.8-4.31-1.8-9.38-.98-5.1-1.8-9.36-1.8-9.54 0-.15.5-.6 1.15-.98 2.63-1.52 5.4-5.5 6.81-9.8 1.86-5.66 2.07-12.82.5-16.49a6.7 6.7 0 0 0-3.95-3.51c-1.34-.34-11.49-.4-11.49-.05m6.86 10.88c2.53 1.58 2.66 6.74.23 9.95-1.31 1.7-4.77 3.2-4.77 2.07 0-.5 1.8-12.05 1.96-12.51.15-.47 1.42-.21 2.58.49m46.48-10.53c-7.07 2.49-13.55 11.92-15.92 23.2-2.1 10.05-.7 19.77 3.53 24.16a7.8 7.8 0 0 0 6.04 2.59c1.73 0 2.2-.13 3.87-.96 6.73-3.36 12.05-12.15 14.6-24.17.65-3 .7-3.8.7-8.73 0-6-.31-7.76-1.88-11.1-2.25-4.67-6.4-6.56-10.94-4.98m2.4 13.24c1.98 1.04 2.91 3.5 2.91 7.76.03 13.39-10.84 23.08-13.9 12.4-.99-3.4-.37-9.25 1.41-13.15 2.43-5.38 6.71-8.5 9.58-7m-33.68-12.5-3.97 24.89-3.8 23.78 5.81.08c7 .08 7.8-.08 9.91-2.02 3.23-2.97 5.34-9.54 5.34-16.67 0-3.34-.28-4.32-1.73-5.84l-1.16-1.24 1.06-1.24c2.68-3.05 4.15-7.81 4.15-13.57 0-5-1.05-7.68-3.45-8.77-.93-.41-1.76-.49-6.53-.49h-5.47zm6.82 9.8c.46.17.98.61 1.21 1.05.49.96.57 3.86.13 5.15a5.4 5.4 0 0 1-2.69 2.79c-1.05.41-2.06.36-1.9-.05.07-.21.49-2.23.95-4.47.44-2.25.85-4.27.9-4.45.13-.39.34-.39 1.4-.03m-3.07 19.92c1.5.78 2.06 1.63 2.24 3.36.39 3.9-1.78 6.72-5.52 7.11-1.32.16-1.42.13-1.29-.34.08-.25.57-2.63 1.08-5.27s.98-4.94 1.03-5.12c.19-.49 1.2-.36 2.46.26" style="fill:#fff"/></svg>