<svg xmlns="http://www.w3.org/2000/svg" viewBox="0 0 264 130"><g style="stroke-width:1.25"><path d="M44.45 37.04h29.62v29.63h40.74V29.63L85.19 0H25.93L0 29.63V92.6l29.63 29.62h25.92V81.48h-11.1z" style="fill:#fff;stroke-width:1.5625" transform="matrix(.2816 0 0 .28346 46.47 24.12)"/><path d="M74.07 166.67H44.45v-29.63H0v40.74l29.63 29.63h62.96l25.93-29.63v-66.67L88.89 81.48H62.96v40.74h11.11zm83.34 40.74h24.07v-37.04h-11.11V0h-44.44v177.78zm55.55 0h-24.07v-37.04H200V0h44.44v177.78zM366.67 31.48 335.18 0h-27.77v37.04h14.81V100h-14.81v40.74h29.63l29.63-29.63zM255.55 0H300v207.41h-44.45zm166.67 40.74h48.15V0h-88.89v207.41h88.89v-37.04h-48.15z" style="fill:#fff;stroke-width:1.5625" transform="matrix(.2816 0 0 .28346 46.47 24.12)"/><path d="M429.63 81.48h29.63v37.04h-29.63zm129.63 44.45h-22.22V85.19h18.51V37.04h-18.51V0h33.33L600 29.63v55.56l-20.37 20.37L600 125.93v81.48h-40.74zM485.18 0h44.44v207.41h-44.44zM148.15 266.67v14.81H96.3v-40.74h62.96v-11.11H88.89l-9.26 9.26v42.59l12.04 12.04h67.59v-37.96h-37.04v11.11zm107.41 25.92 29.63-62.96h29.62l33.34 62.96h-18.52l-25.92-48.14h-7.41l-22.23 48.14zm-7.41-35.19v-16.66l-11.11-11.11h-62.96v62.96h14.8v-25.92h25.93l18.52 25.92h14.82l-18.52-25.92h7.4zm-14.82-1.84H188.9v-14.82h44.44zm188.89-14.82v-11.11h-70.37v62.96h14.82v-25.92h48.14v-11.11h-48.14v-14.82zm92.59-11.11h-22.22l-22.22 22.22-22.22-22.22h-18.52l29.63 29.63-33.33 33.33h22.22l22.22-22.22 22.22 22.22h22.22l-33.33-33.33z" style="fill:#fff;stroke-width:1.5625" transform="matrix(.2816 0 0 .28346 46.47 24.12)"/></g></svg>