<svg xmlns="http://www.w3.org/2000/svg" baseProfile="tiny" overflow="visible" viewBox="0 0 264 35"><path d="M263.94 34.55h-5.71L242.1 12.66v21.89h-6.37v-34h5.47c5.36 7.32 10.77 14.7 16.24 22 .06 0 .12-.05.18-.05V.5H264c-.06 11.38-.06 22.66-.06 34.05M101.05.55c.18 0 .3-.06.42-.06 3.97 0 7.94-.06 11.91.06 4.82.18 8.85 4.08 9.45 8.88A10.2 10.2 0 0 1 115 20.45l9.8 14.03h-7.76c-3.12-4.44-6.25-8.94-9.56-13.61v13.6h-6.38c-.06-11.32-.06-22.6-.06-33.93m6.44 6.24v7.67c1.68 0 3.3.12 4.87 0a3.7 3.7 0 0 0 3.37-3.78 3.7 3.7 0 0 0-3.37-3.83c-1.56-.18-3.19-.06-4.87-.06M23.4.5h6.37v.95c0 6.6.07 13.25 0 19.85a7.15 7.15 0 0 0 6.08 7.13 7 7 0 0 0 7.82-6.71V.49h6.43v.72c0 6.78-.05 13.55 0 20.33.13 6.83-5.35 12.05-10.52 13.13-9.02 1.86-16.24-5.28-16.24-12.47V.9q.08-.08.06-.42m62.62 13.86H97.8v6.36H86v7.55h11.8v6.3H79.64V.6H97.8v6.3H86zm52.38 8.1q3.9-10.98 7.76-21.95h7.16q-5.94 17.08-11.79 34.06h-6.43q-5.88-16.9-11.85-34h7.22q3.86 10.9 7.82 21.89zm-78.19-1.68v13.79h-6.37V.6a.5.5 0 0 1 .23-.12c4.1 0 8.19-.12 12.22.06C71.58.8 75.6 5.3 75.6 10.56c0 5.1-3.67 9.42-8.72 10.08-1.63.24-3.31.06-4.94.06-.54.06-1.08.06-1.74.06m.18-13.97v7.67c1.69 0 3.3.12 4.87 0a3.7 3.7 0 0 0 3.37-3.78 3.7 3.7 0 0 0-3.37-3.83c-1.56-.18-3.19-.06-4.87-.06m123.74-3c-1.5 1.74-2.53 3.12-3.97 4.62-.18-.3-.84-.78-1.02-1.02-1.2-1.5-2.83-1.92-4.63-1.62a4 4 0 0 0-3.43 3.12c-.36 1.25-.12 2.45.96 3.3.84.65 1.8 1.2 2.77 1.67 1.32.66 2.7 1.2 4.03 1.92 3.9 2.1 5.35 5.82 4.87 9.83-.6 5.22-5.11 9.12-10.4 9.24-3.31.06-6.14-.9-8.43-3.3-.06-.06-.12-.18-.18-.24 0-.06-.78-.54-.84-.66 1.32-1.44 2.4-3.24 3.73-4.68.48.54 1.92 1.92 2.46 2.34a4.75 4.75 0 0 0 6.38-.78 4.36 4.36 0 0 0-.78-6.23c-1.02-.84-2.35-1.38-3.49-2.04-1.56-.9-3.3-1.62-4.7-2.76-3.36-2.82-3.78-7.91-1.25-11.7 4.09-5.87 13.17-6.4 17.92-1.01M20.03 3.73c-1.38 1.5-2.23 2.88-3.73 4.8-.24-.36-.84-1.02-1.02-1.26a4.9 4.9 0 0 0-5.05-1.32 4 4 0 0 0-3.01 3.53c-.12 1.02.12 2.04.96 2.7.9.66 1.93 1.26 2.89 1.8 1.32.66 2.7 1.2 4.03 1.92 3.67 1.98 5.05 5.22 4.93 9.23-.12 5.22-5 9.78-10.47 9.9a11 11 0 0 1-8.48-3.36c-.06-.12-1.02-.78-1.08-.9 1.56-1.86 2.23-2.82 3.73-4.68.48.54 2.04 1.98 2.53 2.34a4.74 4.74 0 0 0 6.31-.66c1.56-1.74 1.45-4.32-.36-6.05a15 15 0 0 0-2.83-1.92c-1.2-.66-2.52-1.14-3.73-1.8C-.12 15-.18 8.23 2.71 4.45c4.2-5.52 12.69-6 17.32-.72m141.35 30.82h-6.31v-34h6.31zm26.47-34h6.32v34h-6.32zm26.53 12.11-13.3 21.89h26.59z" style="fill:#fff"/><path d="M196.81 18.6v.18c.06.78.18 1.62.36 2.4 0 .12.06.18.06.3.06.36.18.66.3 1.02.06.12.12.3.18.41q.08.25.25.6c.05.18.17.36.24.54.06.12.06.18.12.3q.26.62.6 1.14c.06.06.06.18.12.24q.44.82.96 1.56.45.62.9 1.14l3.55-5.81a11 11 0 0 1-1.38-5.28q.02-.72.12-1.44c0-.18.06-.3.06-.48.06-.18.06-.3.12-.48s.06-.36.12-.54c.06-.12.06-.3.12-.42a11.5 11.5 0 0 1 10.7-7.73c6.08 0 11.25 5.21 11.25 11.33q-.01.72-.12 1.44c0 .18-.06.3-.06.48-.06.18-.06.3-.12.48s-.06.36-.12.54c-.06.12-.06.3-.12.42-.18.6-.48 1.14-.78 1.74l3.55 5.81c.3-.36.6-.78.9-1.14a17 17 0 0 0 2.83-6.23c.06-.18.06-.36.12-.54 0-.12.06-.3.06-.42q.1-.54.12-1.08v-.24c.06-.36.06-.78.06-1.14q.01-.64-.06-1.2v-.18c-.06-.78-.18-1.62-.36-2.4 0-.12-.06-.18-.06-.3-.06-.36-.18-.66-.3-1.02l-.18-.42q-.08-.25-.24-.6c-.06-.18-.18-.36-.24-.54-.06-.12-.06-.18-.12-.3a7 7 0 0 0-.6-1.13c-.07-.06-.07-.18-.13-.24q-.44-.83-.96-1.56c-3.3-4.62-8.66-7.8-14.31-7.68-5.9-.12-11.13 3.18-14.32 7.68a17 17 0 0 0-2.83 6.23c-.06.18-.06.36-.12.54 0 .12-.06.3-.06.42a7 7 0 0 0-.12 1.08v.24c-.06.36-.06.78-.06 1.14-.06.36-.06.78 0 1.14" style="fill:#fff"/></svg>