<svg xmlns="http://www.w3.org/2000/svg" viewBox="0 0 441.04 311.36"><path d="m265.8 190.32-.65-.72-1.13-1.76-1.13-1.76-4.41-6.72-4.4-6.72-4.49-6.88-4.48-6.88-.6-.63-.58-.63-.33.33-.32.33.52 14.84.52 14.84-.66.53-.65.53-2.5.22-2.5.21-5.74.49-5.73.49-.22-.26-.22-.25-5.64-16.32-5.66-16.32-.8-6.88-.79-6.88-1.3-11.2-1.3-11.2-1.1-9.4-1.1-9.39V99.5l.71-.3.72-.29 5.28-.83 5.28-.83 3.84-.62 3.84-.62 8.96-1.45L246 93.1l5.97-.97 5.97-.97 1.07.48 1.07.47 16.64 9.74 16.64 9.75.3.81.29.82-2.78 14.5-2.77 14.5-.33 1.2-.33 1.19-1.03.75-1.03.76-7.6 4.4-7.6 4.4v.44l2.32 1.94 2.32 1.94 10.4 8.63 10.4 8.64.42.51.43.52-.78.51-.78.51-5.4 2.42-5.4 2.42-8.56 3.81-8.54 3.82h-.88zm-14.04-48.76 7.68-1.8.38-.36.38-.36 1.05-8.72 1.04-8.72-.3-.3-.3-.31-9.5-2.58-9.5-2.57h-1.01l.16 3.44.18 3.44.31 8.69.31 8.69v3.26h1.44zm77.36-56.84-.32-.4-1.2-11.68-1.18-11.68-1.2-11.68-1.2-11.68 1.87-11.15 1.87-11.15-.32-.59-.31-.58-.88-.18-.89-.17-1.2-.2-1.2-.21v-.44l3.44-.52 3.44-.52 13.69-2.1 13.69-2.11h2.75l11.81 6.92 11.82 6.92.72.66.72.65v1.52l-2.1 12.54-2.08 12.55-.71.66-.7.67-5.13 3.14-5.12 3.14-.43.4-.42.38 9.7 8.27 9.71 8.26.23.34.23.34-.39.37-.39.37-7.36 3.1-7.36 3.11-3.43 1.43-3.44 1.42-.56-.18-.57-.18-.69-1.04-.69-1.04-6.94-10.72-6.94-10.72-.8-.8-.8-.8.2 8.48.2 8.48.18 3.08.19 3.1-.68.66-.67.68h-2.72l-6.72.64-6.72.63h-1.68zm25.6-36.92 5.68-.88.34-.22.35-.2 1.14-7.58 1.15-7.57-.16-.16-.16-.16-7.65-2.72-7.65-2.71h-1.17l.17.88.17.88.21 10.56.22 10.56.15.26.16.27.69-.16.68-.16zM178.48 83.3l-3.2-.09-12.91-.33-12.91-.34-.69-.36-.69-.37-7.28-6.53-7.27-6.54-.65-.81-.64-.82v-1.45l2.22-5.03 2.23-5.02.2-.9.2-.9-.38-1.39-.37-1.38-1.47-1.35-1.47-1.35.56-9.37.57-9.37 1.82-2.34 1.81-2.34.8-1.16.8-1.16-.02-1.53-.03-1.54-.43-.81-.43-.81-1.7-1.29-1.7-1.28V14.2l.4-.57.42-.57 5.59.52 5.58.52 4.8.46 4.8.45 2.72.22 2.72.2.56.3.56.29v1.91l-3.2 19.75-3.2 19.76-.35 2.01-.37 2.02.19.18.18.18 8.41-.53 8.42-.52 1.68-.18 1.68-.17v-3L176.4 44l-.64-13.44v-5.62l.45-.18.46-.18 13.12 1.76 13.12 1.75.34.21.34.21V30l-3.18 18.9-3.17 18.9-.43.8-.42.78-5.87 6.72-5.88 6.72-.78.35-.78.36-.7-.07-.7-.07zM151.9 294.8l-.33-.24-4.04-9.76-4.04-9.76-1.23-3.12-1.22-3.12-.32.1-.32.1-2.73 5.42-2.74 5.42-2.35 5.12-2.35 5.12-.53.56-.52.56-6.23-.49-6.23-.48-6.59-.65-6.59-.64-2.83-.5-2.83-.49-.58-.3-.58-.32v-.31l-3.38-14.95-3.38-14.95-4.28-19.2-4.27-19.2-1.47-6.97-1.46-6.96v-.94l.76-.5.76-.5 3.3-.63 3.3-.64.24.25.24.25.4 5.84.4 5.85.59.52.57.52 2.48-.35 2.48-.35 1.14.78 1.14.79h3.84l8.78-1.77 8.78-1.76 1.08-.5 1.08-.48.1.1.1.09.48 4.64.5 4.64.66 9.6.65 9.6.48 6.8.47 6.8v1.6h.57l10.14-10.64 10.14-10.64.22-.06.21-.06 3.92 5.34 3.93 5.34 4.48 5.91 4.48 5.92.96.96.95.95v-1.25l.95-4.49.94-4.48 2.28-10.88 2.27-10.88 1.47-6.72 1.47-6.72.26-.3.26-.3 8.9 1.85 8.88 1.85 4.26.89 4.27.88.32.33.33.33-8.07 25.07-8.07 25.08-3.78 11.78-3.78 11.78-.35.42-.34.42-2.48.22-2.47.22-7.84.77-7.84.77-1.44.16-1.44.17zm148.4-103.83-.38-.38v-2.02l.21-2 .2-2 2.07-.98 2.06-.98.44-.68.45-.68.35-2.5.35-2.51-.37-.89-.37-.88-2.06-1.68-2.07-1.67-.28-.53-.28-.52.12-.8.13-.8.34-9.91.34-9.92.45-11.52.45-11.52.55-15.04.54-15.04.26-.72.27-.72h1.35l16.21 3.85 16.21 3.86.87.34.87.34.18.56.18.57-3.04 17.08-3.04 17.08-4.5 25.44-4.51 25.44-.62.62-.61.62-6.17.4-6.17.39-4.48.34-4.48.34h-1.63zM82 82.64l-1.12-.58-9.92-8.45-9.92-8.43-.25-.43-.26-.43.38-.7.38-.71 5.58-7.43 5.57-7.43.5-.2.5-.19.52.41.5.4 9.27 7.81 9.27 7.8.38.04.38.04 2.82-3.84 2.8-3.84.78-.93.77-.93-.59-.54-.58-.54-11.52-7-11.52-7-6.5-3.97-6.52-3.98.13-.68.14-.67 7.39-11.08L78.75 8.1l.8-.64.81-.64 2.34-.2 2.34-.2L96.7 5.27l11.67-1.12h2.04l9.73 7.44 9.72 7.44 1.2.9 1.18.89v1.29l-5.14 6.54-5.15 6.54h-1.11l-10.05-6.88-10.05-6.88-.33.01-.33.02-2.66 4.47-2.67 4.47.1.3.11.28 7.52 4.96L110 40.9l9.83 6.47 9.84 6.47.17.54.17.55-5.57 12.6-5.57 12.62-.39.84-.39.84-.7.33-.72.32-15.17.2-15.18.2-1.6.17-1.6.16z" style="stroke-width:.32;fill:#fff"/><path d="m330.95 308.56-2.07-2.16 2.16 2.07 2.16 2.07v.18h-.18zm-8.16-8.48-2.23-2.32 2.32 2.23 2.32 2.23v.18h-.18zm10.51-1.28-.65-.72-3.03-4.16-3.03-4.16-3-4.16-3-4.16-4.9-6.88-4.9-6.88-.88-1.12-.87-1.12-.2 1.44-.21 1.44-.24 12.5-.25 12.52-.35 1.08-.35 1.07-.8.22-.8.22-2.88.03-2.88.03-.43-.28-.42-.27-4-13.88-3.98-13.88-6.85-23.84-6.84-23.84-1.11-4.23-1.11-4.22.37-.3.37-.28 1.12-.22 1.12-.22 5.92-1.11 5.92-1.11.68-.15.68-.16.2 1.27.2 1.27.56.28.56.29 2.03.18 2.03.17.7.65.68.64 1.55.39 1.54.39 6.62-.2 6.61-.2 3.36-.5 3.36-.5 1.27-.34 1.26-.33 1-1.1 1.01-1.1 1.86-.3 1.85-.3.58-.53.59-.53.37-1.16.37-1.16.25-.28.25-.27 6.83 4.94 6.83 4.94 7.28 5.2 7.28 5.19v1.29l-1.93 7.57-1.94 7.58-1.4 4.97-1.41 4.98-.68 1.82-.68 1.82-1.82 1.06-1.82 1.05-6 3.49-6 3.48v.45l8.72 6.34 8.72 6.34 4.99 3.76 4.99 3.76.37.46.38.45-6.49 2.97-6.48 2.98-8.8 3.95-8.8 3.94h-.37zm-20.16-43.94 4.54-1.13 3.7-1.14 3.7-1.14.75-.56.74-.56 2.02-9.09 2.03-9.08v-.7l.02-.7-3.6-1.18-3.6-1.2-7.63-2.67-7.64-2.67h-.96l.24 16.24.23 16.24.14.24.14.24h.63zm49.5 23.06-6.23-6.24h.32l6.23 6.24 6.24 6.24h-.32zM128.84 224v-3.36l.12 1.68.11 1.68-.11 1.68-.12 1.68zm-.96-12.32v-3.52L128 210l.11 1.85-.11 1.67-.12 1.67zm256.84-17.13-1.76-.6-14.4-4.67-14.4-4.68-2.47-.8-2.48-.81-.64-.54-.65-.53-4.64-13.42-4.64-13.42v-1.18l2.58-14.63 2.57-14.63.17-.56.16-.55 4.38-5.56 4.38-5.56 5.2-6.58 5.2-6.58.86-.68.86-.68 1.3.18 1.3.18 6.72.8 6.72.8 7.68.94 7.68.94 5.76.68 5.76.68 1.64.3 1.64.31.66.71.65.7 4.29 6.09 4.28 6.08 5.56 7.84 5.56 7.84 1.54 2.21 1.54 2.22v2.11l-4.65 18.5-4.63 18.48-.45.99-.44.99-1.55.73-1.55.73-16.73 7.64-16.73 7.64-1.03-.03-1.03-.02zm7.36-35.68 8.64-4.32v-.87l.01-.88-.97-8-.97-8-.23-1.1-.24-1.1-8.16-2.19-8.16-2.2-1.67-.37-1.67-.37-.12.14-.13.15-4.92 8.46-4.93 8.47-.2.52-.22.52 1.33 1.46 1.33 1.47 5.92 6.26 5.92 6.27h.8zm-246.8 31.7-3.75-.73-.48-.4-.49-.4v-1l-4.67-23.17-4.68-23.16 1.65-5.66 1.64-5.65 4.9-16.9 4.9-16.9.53-.53.52-.51 8.72.88 8.73.9 11.62 1.2 11.63 1.2.56.6.57.62.67 1.92.68 1.92 3.67 10.56 3.68 10.56 8.68 24.96 8.68 24.96 1.45 4.07 1.44 4.08-.2.64-.21.65-.7.17-.7.18-14.08 2.67-14.08 2.68-.65-.41-.65-.42-2.04-9.87-2.04-9.88-.29-1.04-.28-1.04h-.45l-12.62 1.9-12.61 1.91-.38.41-.38.42-1.47 8.79-1.47 8.8-.55.4-.56.4-.34-.02-.34-.03zm30.8-42.17-.01-.72-2.5-11.92-2.48-11.9-.15-.15-.14-.14-3.93-.33-3.93-.33-.43.16-.43.16-.17 1.34-.16 1.35-1.83 10.72-1.83 10.72-.04.48-.05.48 6.31.22 6.3.23 2.34.1 2.33.12.4.06.4.07zm120.48-65.23-15.36-.58-7.26-.26-7.27-.26-.32-.32-.32-.32-1.67-10.38-1.68-10.37 3.53-3.38 3.52-3.38.52-.8.52-.8 1.63-11.04 1.63-11.04.68-4.72.68-4.72-.62-.67-.6-.68-1.2-.61-1.2-.62V16.8l.77-2.53.78-2.53.34-.21.34-.21 4.24.74 4.24.74 4.48.78 4.48.77 14.08 2.45 14.08 2.44.46.45.45.44-1.47 8.7-1.48 8.7-.39.25-.39.24-.35-.12-.35-.12-11.3-3.4L293.5 31l-.36.12-.36.12-1.53 5.58-1.52 5.57.13.13.13.14 10.57.16 10.57.16.33.4.33.39-.88 6.79-.87 6.79-.39.52-.38.53-4.91-.73-4.9-.72-5.41-.8-5.4-.8-.16.15-.16.16.69 4.73.68 4.74v1.63l.4.53.4.54 8.63-1.27 8.64-1.27 4.14-.65 4.14-.65.4.4.4.42 1.35 9 1.35 9-.2.52-.2.52-3.6-.05-3.62-.04zm-119.1.11 1.52-.12 1.35.12 1.35.12h-5.76zm170.88-5.68v-1.92l.13 1.04.13 1.05-.13.87-.13.88zM199.87 15.84V13.6l.13 1.2.12 1.21-.13 1.03-.12 1.04zm56.93 278.3-.38-.25-1.11-4.63-1.11-4.62-1.2-6.24-1.18-6.24-.35-.38-.35-.38-6.08.62-6.08.62-5.47.8-5.46.8-1.62.48-1.61.48-.34.88-.33.88-1.98 7.2-1.99 7.2-.23.8-.23.8-1.57-.07-1.57-.07-10.56-2.09-10.56-2.09-3.79-.92-3.8-.93-.44-.45-.45-.45.62-1.9.63-1.91 6.6-20.64 6.6-20.64 4.47-13.44 4.47-13.44.55-1.44.56-1.43 1.4.1 1.39.1 1.17.61 1.18.62 2.54.32 2.54.33 2.08-.17 2.08-.17 7.04-.66 7.04-.65 2.02-.46 2-.46 1.03-.53 1.03-.53 1-.75.98-.75 1.57-.2 1.57-.21.54-.47.55-.47.21-.98.22-.98.3.53.3.54h2.13l1.71.51 1.72.52.37.1.37.1 1.7 2.43 1.69 2.43 1.2.32 1.2.32.62 1.67.62 1.68 1.51 4.32 1.52 4.32 4.57 13.76 4.58 13.76 2.58 8.96 2.57 8.96 2.87 9.92 2.86 9.92-.37.38-.38.4-6.24.8-6.24.8-8.8.98-8.8.97-.8.15-.8.15zm-9.72-46 .13-.12-2.81-11.3-2.81-11.28-.31-.4-.32-.4h-2.13l-1.57.33-1.58.34-.65.7-.65.7-1.13 7.05-1.14 7.04-.51 3.6-.52 3.6.15.24.15.24 7.79-.1 7.78-.1zM95.13 193.2l-.29-.72-.68-11.68-.67-11.68-.47-7.84-.46-7.84-.31-4.64-.32-4.64v-2.08h-.55l-9.52 11.7-9.52 11.7-.5.2-.5.18-.5-.65-.52-.66-6.72-12.18-6.72-12.18-.19-.02-.19-.01-3.6 11.76-3.61 11.76-3.97 12.92-3.97 12.92-.2.3-.18.32-1-.15-1-.15-16-6.86-16-6.85-.1-.79-.1-.78 1.59-3.68 1.57-3.68 14.56-34.08 14.57-34.08 1.53-3.64 1.54-3.63.69-.45.69-.46 10.05 1.3 10.04 1.31.87.34.87.33.61 1.65.61 1.65 4.41 13.12 4.41 13.12.2.23.2.23 7.03-13.6 7.02-13.62.7-.65.7-.65 9.86 1.32 9.87 1.33 1.5.19 1.51.18.6.68.61.68 1.8 8.96 1.8 8.96 6.06 30.08 6.08 30.08.66 3.17.66 3.17v1.83l-.72.31-.72.32-17.12 3.52-17.12 3.51h-1.13zm118.3-108.8-.56-.4-1.92-15.84-1.92-15.84-.54-4.83-.53-4.83 1.5-9.1 1.51-9.08v-1.46l-.4-.16-.4-.15-2.4-.4-2.4-.4-.3-2.34-.28-2.34.45-.45.45-.45 10.56-1.95 10.55-1.95 7.6-1.4L242 9.6l.87.33.87.33 11.96 6.45 11.97 6.44.41.66.42.66-.62 4.16-.63 4.16-1.23 8.37-1.23 8.38-.43.62-.44.61-6.56 6.24-6.56 6.23-.68.37-.69.36-6.03.33-6.04.32-2.67.2-2.67.19.2 3.89.22 3.89.3 4.37.3 4.37-.18.48-.19.49-.52.2-.52.2-7.85.78-7.86.78-.97.17-.98.16zm23.38-35.77 5.35-.96 1.03-.17 1.03-.17.17-.27.16-.27.97-6.04.97-6.03.18-.88.18-.87-.74-.3-.75-.31-7.63-2.6-7.62-2.61-.2.19-.18.19.55 9.83.56 9.84.18 1.2.18 1.2h.25z" style="stroke-width:.32;fill:#fff"/></svg>