<svg xmlns="http://www.w3.org/2000/svg" xml:space="preserve" id="Layer_1" x="0" y="0" viewBox="0 0 3839 1350"><style id="style663" type="text/css">.st7{fill:#fff}</style><g id="g727"><g id="g715" style="fill:#fff" transform="translate(0 -792)"><g id="g699" style="fill:#fff"><g id="g679" style="fill:#fff"><path id="path665" d="M1712.25 1527.56c124.39 0 254.4 38.58 344.67 101.53l-38.43 39.4c-52.55-14.2-113.03-22.58-163.89-22.58-32.34 0-64.35 5.16-95.15 15.33-29.02 9.58-55.58 23.11-78.96 40.21-22.86 16.72-41.84 36.56-54.89 57.35-13.9 22.16-21.25 45.72-21.25 68.14 0 26.35 5.54 50.68 16.45 72.29 9.98 19.77 24.28 36.97 42.5 51.13 31.98 24.85 75.21 39.1 118.61 39.1 29.22 0 65.18-4.95 104.02-14.31a772 772 0 0 0 92.77-28.9l12.1 76.82c-47.68 23.2-102.61 42.37-159.69 55.68-63.88 14.9-128.71 22.46-192.68 22.46-37.95 0-78.35-6.1-116.84-17.65-41.54-12.46-79.1-30.47-111.63-53.51-52.37-37.11-114.8-104.65-114.8-215.67 0-76.67 39.48-147.78 111.17-200.23 37.06-27.11 81.33-48.34 131.6-63.08 53.22-15.59 111.87-23.51 174.32-23.51m0-17c-263.78 0-434.09 138.41-434.09 303.83 0 207 205.17 303.83 360.26 303.83 132.67 0 267.73-32.58 371.1-85.49l-17.34-110.11c-71.61 29.58-152.27 49.85-210.27 49.85-74.39 0-160.57-46.23-160.57-145.53 0-79.35 106.73-164.04 233.25-164.04 48.44 0 112.44 8.26 169.01 24.66 19.71-20.19 42.66-43.71 59.13-60.64-93.75-72.12-235.26-116.36-370.48-116.36" class="st7" style="fill:#fff"/><path id="path667" d="m2951.73 1503.87-125.09 460-5.84 21.46h41.42l-24.56 90.3c-2.53 2.55-10.64 8.55-26.69 14.17-15.68 5.49-43.44 12.13-86.59 12.59l-2.46.01c-54.94 0-92.22-19.87-110.82-59.05l-9.59-20.22-16.91 14.67-.49.4q-.72.57-1.71 1.42c-29.65 26.12-63.32 44.4-102.94 55.89-36.64 10.62-79.87 15.79-132.17 15.79-36.24 0-71.33-6.2-104.31-18.43-32.31-11.98-61.19-29.22-85.85-51.24-24.96-22.28-44.49-48.52-58.06-77.98-14.21-30.85-21.42-64.33-21.42-99.53 0-44.92 9.11-88.52 27.09-129.58 18.16-41.5 44.58-78.55 78.52-110.14 35.48-33.02 77.98-58.87 126.31-76.83 51.79-19.25 109.31-29 170.96-29 72.92 0 153.97 11.84 228.23 33.33l16.6 4.8 4.53-16.67 9.84-36.18h212m-475.19 480.61c33.85 0 68.35-7.54 97.15-21.24 30.47-14.49 50.35-33.91 56-54.68l.01-.04.01-.04 56.93-213.95a35.4 35.4 0 0 0-6.11-31.41c-18.45-24.14-65.05-27.74-91.21-27.74-38.34 0-79.75 7.48-113.62 20.51-42.07 16.18-71.53 40.18-85.2 69.39a96173 96173 0 0 0-37.42 80.03c-12.77 27.36-16.91 56.56-11.97 84.43 3.33 18.82 10.15 35.25 20.26 48.83 12.81 17.21 30.65 29.54 53.02 36.65 19.4 6.14 40.3 9.26 62.15 9.26m497.43-497.59h-247.22l-13.25 48.72c-76.32-22.09-158.12-34-232.96-34-263.78 0-419.88 173.53-419.88 362.55 0 154.94 131.54 264.17 286.63 264.17 101.69 0 181.27-18.59 246.35-75.92.68-.6 1.42-1.14 2.11-1.74 13.7 28.87 45.87 68.76 126.17 68.76l2.64-.01c90.41-.97 125.31-27.78 128.83-36.78l31.08-114.28h-41.42zm-497.43 480.59c-19.05 0-38.43-2.59-56.99-8.48-41.45-13.17-56.75-44.35-61.69-72.24-4.46-25.18-.18-51.1 10.64-74.27 7.21-15.45 18.97-40.61 37.41-80.01 25.81-55.14 115.47-80.09 183.42-80.1 49.55 0 87.56 13.26 80.9 37.74l-56.94 213.98c-8.77 32.26-70.71 63.38-136.75 63.38" class="st7" style="fill:#fff"/><path id="path669" d="m3325.9 1503.87-9.96 36.62-8.43 31 30.37-10.46a913 913 0 0 1 92.45-25.97c55.29-12.5 106.4-18.83 151.92-18.83 89.15 0 152.27 24.28 187.61 72.16l.53.72c8.79 11.91 20.83 28.21 31.05 51.31 12.14 27.41 18.97 58.61 20.3 92.74 3.8 97.4-35.85 221.59-117.89 369.26H3513.3l55.59-119.53.18-.38.16-.39c32.97-81.08 50.85-147.93 54.67-204.35 3.08-45.53-7.69-81.81-32.01-107.82-34.97-37.42-87.16-41.46-107.97-41.46-3.76 0-6.46.13-7.72.21-70.31.17-155.37 30.1-188.74 42.99l-8.02 3.1-2.26 8.3-114.03 419.33h-211.99l162.75-598.53h211.99m22.24-17.02h-247.22l-172 632.53h247.22l117.44-431.87c28.51-11.01 114.47-41.85 183.2-41.85 0 0 2.63-.21 7.13-.21 28.37 0 131.3 8.4 123.01 131.13-3.87 57.33-22.66 123.37-53.45 199.09l-66.82 143.7h227.18c204.05-362.26 105.67-492.41 69.72-541.11-44.61-60.44-122.38-79.06-201.29-79.06-109.86 0-221.95 36.1-249.91 45.73z" class="st7" style="fill:#fff"/><path id="path671" d="M903.63 1398.94c37.99 0 76.63 5.12 114.85 15.22 64.4 17.02 109.9 50.82 139.1 103.34 13.94 25.08 24.27 54.92 30.69 88.69 6.96 36.56 9.55 78.81 7.71 125.56-1.97 49.89-9.04 106.34-21.03 167.77-12.01 61.53-29.27 129.72-51.35 202.88h-121.18c33.27-87.25 54.54-174.02 61.74-252.33 7.24-78.75-.54-142.96-21.9-180.8-15.37-27.22-34.79-35.51-48.37-37.67a125 125 0 0 0-19.62-1.54c-20.18 0-41.38 4.82-63.02 14.33-19.59 8.61-40.09 21.31-60.93 37.74-36.4 28.72-75.45 70.12-116.04 123.06-36.2 47.21-94.56 129.13-185.34 297.2H74.61c69.39-102.4 131.1-187.93 188.16-260.81 73.72-94.16 141.75-170.17 207.96-232.36 150.65-141.49 292.25-210.28 432.9-210.28m0-17c-312.95 0-585.5 327.24-860.99 737.46h516.44c96.96-180.5 267.77-472.33 415.17-472.33q8.54-.01 16.95 1.33c72.86 11.58 87.92 220.37-13.76 471h158.73c158.03-515.26 50.65-678.33-113.37-721.68-40.38-10.67-80.11-15.78-119.17-15.78" class="st7" style="fill:#fff"/><path id="path673" d="M842.84 1954.16c35.21 0 69.39 2.6 96.24 7.33 16.89 2.97 27.52 6.13 34.07 8.68-6.56 2.55-17.19 5.71-34.07 8.68-26.85 4.73-61.03 7.33-96.24 7.33s-69.39-2.6-96.24-7.33c-16.89-2.97-27.52-6.14-34.07-8.68 6.56-2.55 17.19-5.71 34.07-8.68 26.85-4.73 61.03-7.33 96.24-7.33m0-17c-85.87 0-155.49 14.78-155.49 33.01s69.62 33.01 155.49 33.01 155.49-14.78 155.49-33.01-69.62-33.01-155.49-33.01" class="st7" style="fill:#fff"/><g id="g677" style="fill:#fff"><path id="path675" d="M1284.84 1398.94c33.83 0 66.49 7.01 97.05 20.83a234 234 0 0 1 59.62 38.73c-38.62 16.17-74.11 36.02-105.78 59.19a444 444 0 0 0-38.18 31.35c-8.73-32.82-20.62-62.86-35.5-89.62a332 332 0 0 0-36.49-52.93 235 235 0 0 1 59.28-7.55m0-17c-31.63 0-61.88 5.86-89.79 16.47a310 310 0 0 1 52.15 69.26c18.59 33.44 32.11 71.68 40.65 114.8a423 423 0 0 1 57.93-51.06c37.43-27.39 79.83-49.62 126.21-66.6-46.24-50.91-112.97-82.87-187.15-82.87" class="st7" style="fill:#fff"/></g></g><g id="g697" style="fill:#fff"><path id="polygon681" d="M2886.27 2087.23h247.22l172-632.53h-247.22z" class="st7" style="fill:#fff"/><path id="path683" d="M1739.27 1940.31c-74.39 0-160.57-46.23-160.57-145.53 0-79.35 106.73-164.04 233.25-164.04 48.44 0 112.44 8.26 169.01 24.66 19.71-20.19 42.66-43.71 59.13-60.64-93.76-72.15-235.27-116.38-370.49-116.38-263.78 0-434.09 138.41-434.09 303.83 0 207 205.17 303.83 360.26 303.83 132.67 0 267.73-32.58 371.1-85.49l-17.34-110.11c-71.6 29.6-152.26 49.87-210.26 49.87" class="st7" style="fill:#fff"/><path id="path685" d="M2931.32 1454.7H2684.1l-13.25 48.72c-76.32-22.09-158.12-34-232.96-34-263.78 0-419.88 173.53-419.88 362.55 0 154.94 131.54 264.17 286.63 264.17 101.69 0 181.27-18.59 246.35-75.92.68-.6 1.42-1.14 2.11-1.74 13.85 29.19 46.57 69.63 128.81 68.75 90.41-.97 125.31-27.78 128.83-36.78l31.08-114.28h-41.42zm-303.73 203.23-56.94 213.98c-11.3 41.57-110.85 81.24-193.74 54.9-41.45-13.17-56.75-44.35-61.69-72.24-4.46-25.18-.18-51.1 10.64-74.27 7.21-15.45 18.97-40.61 37.41-80.02 44.62-95.35 280.11-100.42 264.32-42.35" class="st7" style="fill:#fff"/><path id="path687" d="M3241.24 1659.22s109.23-45.71 192.9-45.71c0 0 139.75-11.3 130.15 130.92-3.87 57.33-22.66 123.37-53.45 199.09l-66.82 143.7h227.18c204.05-362.26 105.67-492.41 69.72-541.11-116.27-157.53-457.84-30.99-457.84-30.99" class="st7" style="fill:#fff"/><path id="path689" d="M980.18 1365.55C616.09 1269.34 309.87 1625.81 0 2087.23h516.44c100.71-187.47 281.07-495.02 432.13-471.01 72.86 11.58 87.92 220.37-13.76 471.01h158.73c158.04-515.26 50.66-678.33-113.36-721.68" class="st7" style="fill:#fff"/><ellipse id="ellipse691" cx="800.19" cy="1938" class="st7" rx="155.49" ry="33.01" style="fill:#fff"/><g id="g695" style="fill:#fff"><path id="path693" d="M1204.55 1435.51c18.59 33.44 32.11 71.68 40.65 114.8a423 423 0 0 1 57.93-51.06c37.43-27.39 79.83-49.62 126.21-66.6-46.24-50.91-112.96-82.87-187.15-82.87-31.63 0-61.88 5.86-89.79 16.47a309 309 0 0 1 52.15 69.26" class="st7" style="fill:#fff"/></g></g></g><g id="g713" style="fill:#fff"><path id="path701" d="M2172.66 1190.91c-115.94-4.6-124.66-9.22-133.48-38.34-32.25-106.43 157.27-184.67 157.27-184.67l-39.83-97.3s-195.02 148.16-159.33 282.65c7.55 28.44 17.73 84.12 176.11 78.18 20.23-.76 74.2-4.69 71.02 40.92-5.94 85.14-196.81 120.39-196.81 120.39l68.02 96.04c164.67-37.21 167.08-216.9 167.08-216.9 1.95-70.23-75.38-79.6-110.05-80.97" class="st7" style="fill:#fff"/><path id="polygon703" d="m3183.14 884.04-202.41 91.32 66.41 315.5 4.88 23.18.33 1.58 1.57 7.46 235.76-91.89-2.98-69.34-196.3 105.71-24.02-114.13 132.37-45.59-15.35-44.57-126.8 43.68-23.15-110 162.94-38.22z" class="st7" style="fill:#fff"/><path id="path705" d="M3514.78 975.72c-46.14-5.51-89.4 2.99-122.23 21.04l2.29-16.8-71.05-9.35-15.44 348.28 39.65 4.19 21.75-159.32c27.72 26.49 68.85 45.91 116.44 51.59a231 231 0 0 0 47.1.82c89.74 30.94 48.54 145.61 48.54 145.61l53.95 10.97c14.98-90.33-19.3-150.24-44.03-170.35 42-17.22 71.44-48.42 76.04-86.91 7.88-66.16-60.62-128.74-153.01-139.77m112.5 134.95c-5.38 45.07-67.98 76.22-136.72 68.02-38.61-4.61-72.41-20.83-93.68-42.15l-25.93 18.4 19.81-145.09 18.68 21.47c25.69-15.72 62.36-23.53 100.97-18.92 68.73 8.19 122.25 53.19 116.87 98.27" class="st7" style="fill:#fff"/><path id="path707" d="m2627.81 1207.91-45.05-180.06-45.73 11.44 45.05 180.06c31.49 125.87-157.32 173.11-188.81 47.24l-55.92-223.49-45.73 11.44 55.92 223.49c46.76 186.84 327.02 116.72 280.27-70.12" class="st7" style="fill:#fff"/><path id="path709" d="m2169.84 825.14 64.83 158.36-26.45 10.92c-1.63.68-164.69 70.81-140.76 149.82 1.7 5.62 2.55 7.15 2.82 7.55 8.77 6.65 70.93 9.12 104.34 10.44 73.92 2.93 121.01 31.02 133.98 78.41l-51.79-206.98 101.41-25.37 62.88 251.33c11.81 47.2 48.66 52.3 63.98 52.3h.01c23.3 0 46-10.52 59.21-27.46 12.13-15.53 15.56-35.64 9.93-58.15l-52.01-207.9 101.41-25.36 35.93 143.59 5.24-161.22 130.59 15.35c19.99-6 41.3-9.09 63.22-9.09 9.05 0 18.25.54 27.33 1.61 35.27 4.15 67.38 15.97 94.11 33.11l-12.14-57.71 257.05-115.97 24.44 137.75-162.09 38.02 10.68 50.74 123.2-42.44 34.04 98.83-135.55 46.69 10.9 51.79 177.48-95.58 8.44-190.45 124.26 16.35c20.83-5.98 43.21-9.06 66.32-9.06 10.29 0 20.75.63 31.09 1.86 107.96 12.88 187.85 89.9 178.09 171.67-4.41 36.92-25.71 69.23-59.9 92.2 21.91 34.39 40.29 90.49 27.71 166.35l-4.87 29.36-115.61-23.51 11.22-31.21c4.74-13.48 14.22-54.71.91-82.27-5.37-11.12-14.14-19.19-26.72-24.56q-7.6.45-15.19.45c-10.3 0-20.74-.62-31.02-1.85-33.1-3.95-64.19-13.88-91.07-28.81l-19.04 139.5-94.18-9.95 3.53-79.61-249.22 97.13-26.84-127.52c-32.64 38.76-86.8 63.09-149.28 63.09-9.11 0-18.36-.54-27.5-1.62-29.38-3.45-57.28-12.32-81.87-25.77l-14.09 119.85-101.5-11.93 1.18-36.46a159 159 0 0 1-4.95 6.71c-33.32 42.68-87.19 68.17-144.08 68.17h-.01c-80.94-.01-143.84-50.44-164.15-131.62l-10.17-40.65a112 112 0 0 1 2.68 28.33c-.93 69.56-41.73 210.71-189.43 244.09l-18.68 4.22-105.05-148.32 44.17-8.15c68.15-12.67 170.41-51.36 173.4-94.17.24-3.52-.28-5.34-.55-5.64-.19-.21-4.92-5-26.89-5-4.28 0-8.19.16-11.42.3l-2.46.1c-8.13.3-16.12.46-23.73.46-136.65 0-167.98-49.42-180.61-97.76l-.57-2.2c-40.17-151.34 161.11-306.34 169.7-312.87zm1342.71 326.16c48.44 0 83.7-22.77 86.23-44.03 1.4-11.7-6.12-25.41-20.61-37.6-17.87-15.03-43.8-25.52-71.16-28.78a157 157 0 0 0-18.59-1.11c-24.04 0-47.37 5.84-64.01 16.01l-11.96 7.32-5.81 42.58 10.55 10.57c17.57 17.6 46.27 30.28 76.78 33.93a157 157 0 0 0 18.58 1.11m-656.4 49.54c43.89 0 82.24-22.48 85.49-50.11 1.61-13.68-5.67-29.06-19.96-42.21-16.8-15.45-41.24-26.06-67.04-29.09-5.2-.61-10.47-.92-15.67-.92-23.45 0-46.31 6.43-62.72 17.65l-9.22 6.3-6.43 54.75 7.51 8.27c16.51 18.18 43.57 31.06 72.37 34.45 5.2.6 10.47.91 15.67.91m-678.96-402.63-17.63 13.39-29.76 22.61c-5.88 4.46-58.78 45.33-106.17 105.1-27.87 35.15-48.34 70-60.82 103.56-15.97 42.96-18.96 84.04-8.86 122.08l.56 2.14c5.7 21.81 17.13 53.48 50.55 76.68 32.74 22.74 80.66 33.79 146.51 33.79 7.79 0 15.99-.16 24.36-.47l2.5-.1.15-.01c3.15-.13 6.73-.28 10.6-.28q4.45.01 7.63.26c-5.81 9.55-20.91 22.52-49.83 36.46-30.25 14.58-71.19 27.75-106.86 34.38l-44.15 8.15-26.16 4.83 15.38 21.71 105.05 148.32 6.56 9.26 11.06-2.5 18.68-4.22c37-8.36 70.11-23.69 98.43-45.57 24.51-18.93 45.43-42.75 62.17-70.77a301 301 0 0 0 33.42-81.55c12.02 23.27 28.17 43.27 47.86 59.06 31.9 25.58 71.82 39.1 115.44 39.11 48.54 0 95.11-17.06 130.57-46.85l-.21 6.49 15.51 1.82 101.5 11.93 16.88 1.98 1.98-16.88 11.31-96.23a245 245 0 0 0 65.77 17.05 254 254 0 0 0 29.49 1.74v-34 34c33.01 0 64.14-6.19 92.54-18.39a197 197 0 0 0 46.47-27.96l20.47 97.28 4.13 19.62 18.68-7.28 224.9-87.66-2.37 53.54-.71 15.98 15.91 1.68 94.18 9.95 16.4 1.73 2.23-16.34 15.86-116.19a273 273 0 0 0 75.4 20.08 279 279 0 0 0 44.87 1.71c6.94 3.59 11.68 8.35 14.78 14.76 9.92 20.53 3.21 55.43-1.62 69.17l-11.2 31.16-6.64 18.49 19.25 3.92 115.61 23.51 17.28 3.51 2.88-17.39 4.87-29.36c6.11-36.82 5.76-72.13-1.04-104.96a228 228 0 0 0-21.11-59.54c30.93-25.05 50.09-58.22 54.46-94.82 2.73-22.91-.53-45.79-9.69-68.01-8.67-21.01-22.22-40.5-40.29-57.92-36.33-35.02-87.1-57.97-142.97-64.64a281 281 0 0 0-33.11-1.98c-23.38 0-46.08 2.94-67.55 8.75l-120.82-15.9-18.38-2.42-.82 18.52-8.01 180.81-17.61 9.48-2.59-7.53-34.04-98.83-5.54-16.07-16.07 5.54-105 36.17-3.29-15.64 145.91-34.23 15.67-3.67-2.81-15.85-24.44-137.75-3.82-21.51-19.91 8.98-257.05 115.97-12.46 5.62 2.82 13.38 4.69 22.3a246 246 0 0 0-68.03-18.08 251 251 0 0 0-29.31-1.73c-22.26 0-44 2.96-64.66 8.8l-127.16-14.95-18.38-2.16-.6 18.49-1.29 39.62-6.39-25.56-4.13-16.49-16.49 4.12-101.41 25.36-16.49 4.12 4.13 16.49 52.01 207.9c4.38 17.49 2.08 32.15-6.83 43.56-9.92 12.71-27.9 20.92-45.81 20.92-5.22 0-15.39-.81-24.9-6.22-11.05-6.29-18.65-17.46-22.59-33.2l-62.88-251.33-4.13-16.49-16.49 4.13-101.41 25.37-16.49 4.13 4.13 16.49 33.17 132.56-.41-.24c-25.39-14.93-58.29-23.3-97.79-24.87-15.84-.63-37.53-1.49-57.17-2.92-19.62-1.43-29.65-2.9-34.65-3.9-8.53-30.82 24.6-62.75 54.06-84.2 35.92-26.15 75.93-43.56 77.24-44.12l26.38-10.89 15.67-6.47-6.42-15.69-64.83-158.36zM3428.2 1073.4l5.08-3.11c14.03-8.59 34.13-13.52 55.13-13.52 5.5 0 11.08.33 16.58.99 24.15 2.88 46.83 11.96 62.23 24.91 10.9 9.17 15.23 17.94 14.67 22.57-.47 3.95-6.06 10.98-17.21 17.12-14 7.7-32.52 11.94-52.14 11.94-5.49 0-11.07-.33-16.57-.99-26.45-3.16-52.03-14.29-66.76-29.05l-4.6-4.61zm-645.18 38.72 2.83-1.93c13.65-9.33 33.02-14.68 53.13-14.68 4.55 0 9.15.27 13.68.8 22.32 2.62 43.29 11.63 57.52 24.72 10.09 9.28 15.54 19.63 14.59 27.71-.92 7.83-7.93 16.12-19.22 22.74-13.4 7.85-31.4 12.36-49.39 12.36-4.54 0-9.15-.27-13.69-.8-24.85-2.92-47.94-13.76-61.77-28.99l-2.31-2.54zm336.39 71.38 85.23-29.36-82.11 44.22z" class="st7" style="fill:#fff"/><path id="path711" d="M2862.59 1011.79c-43.66-5.13-84.78 4-116.48 22.83l2.13-18.15-75.78-8.91-11.22 345.22 46.81 5.5 16.45-139.95c26.46 25.67 64.34 44.08 108.01 49.22 89.32 10.5 168.46-38.24 176.77-108.87s-57.37-136.39-146.69-146.89m107.56 142.29c-5.66 48.11-66.57 82.15-133.02 74.33-37.33-4.39-69.89-21.22-90.27-43.65l-20.28 16.01 17.47-148.6 16.01 20.28c25.02-17.1 60.6-25.92 97.93-21.53 66.45 7.82 117.81 55.06 112.16 103.16" class="st7" style="fill:#fff"/></g></g></g></svg>