<svg xmlns="http://www.w3.org/2000/svg" viewBox="0 0 264 74"><path d="M257.35 68c-29.89 5.34-53.93 27.45-61.5 56.53-2.74 10.5-2.93 16.65-2.62 98.1.19 74.8.25 76.54 1.5 82.32 6.89 31.12 29 53.3 60.44 60.63 4.1.94 9.32 1.12 42.93 1.3 34.8.26 38.4.2 39.33-.74s1-12.92 1-148.85c0-100.77-.2-148.24-.63-149.11-.62-1.12-1.68-1.18-38.08-1.12-29.57.06-38.46.25-42.37.93m56.22 149.1v125.87l-25.28-.31c-23.3-.25-25.79-.37-30.44-1.55-20.01-5.16-34.86-20.57-39.02-40.64-1.37-6.27-1.37-160.84-.06-167a53.4 53.4 0 0 1 32.18-38.45c8.2-3.3 11.99-3.67 38.58-3.73l24.04-.06z" style="fill:#fff" transform="matrix(.24528 0 0 .24662 -47.37 -16.52)"/><path d="M262.7 129.19c-3.92.75-9.89 3.73-13.06 6.52-6.52 5.66-9.75 13.67-9.25 23.11.25 4.91.56 6.22 2.54 10.2a28.3 28.3 0 0 0 13.36 13.41c4.16 2.05 5.22 2.3 10.63 2.49 4.9.18 6.64 0 9.94-1.12 13.48-4.54 21.62-17.65 19.32-31.06-2.67-15.97-17.83-26.66-33.49-23.55m105.99-61.75c-.25.18-.44 67.53-.44 149.66 0 135.5.07 149.23 1 149.6 1.68.62 49.89.38 55.85-.25 25.23-2.85 47.47-18.2 59.58-41a92 92 0 0 0 4.66-10.87c3.92-11.68 3.8-8.58 3.8-97.85 0-71.26-.13-81.89-1-86.42-6.15-32.37-30.82-56.79-63.25-62.38-4.35-.74-11.06-.93-32.68-.93-14.9 0-27.33.19-27.52.44m66.35 135.3a30.4 30.4 0 0 1 20.88 19.4c2.05 5.83 1.98 14.4-.07 19.75-3.78 9.81-11.24 16.71-20.8 19.26-15.54 4.04-32.07-5.34-36.6-20.75-1.37-4.72-1.3-12.68.25-17.52 4.66-15.22 20.81-24.17 36.34-20.13" style="fill:#fff" transform="matrix(.24528 0 0 .24662 -47.37 -16.52)"/><path d="M1228.24 115.59c-15.5 5.1-24.7 20-22.1 36.2 1.6 10.4 7.6 18.6 16.8 23.3 12.5 6.2 25.8 4.6 35.8-4.4 7.5-6.8 10.7-13.9 10.7-24 0-9.5-2.8-16.6-9.1-22.9-7.9-7.9-22.1-11.5-32.1-8.2m17.7 14.6c6 3.1 9.3 8.1 9.8 14.9.6 8.9-3.2 15.3-11.1 18.6-13.4 5.6-28.6-7.3-24.8-21.2 1.6-6.2 4.3-9.7 9.3-12.2 5.4-2.6 11.7-2.7 16.8-.1m-688 16.5v30.6l6.3-.3 6.2-.3.5-19.3.5-19.3 14.5 19.5 14.5 19.6 6-.2 6-.3v-60l-6.2-.3-6.3-.3v39.5l-14.7-19.7-14.8-19.7h-12.5zm100 0v30.5h13v-61h-13zm58.5-29.2c-.3.7-.4 14.3-.3 30.2l.3 29 6.3.3 6.2.3v-40.5l15 20.2 15 20.2h12v-61h-13l-.2 19.2-.3 19.2-14.4-19.2-14.3-19.2h-5.9c-3.9 0-6.1.4-6.4 1.3m97.2-.6c-.4.3-.7 3.3-.7 6.5v5.8h20v48h13v-48h19v-13h-25.3c-14 0-25.7.3-26 .7m95.3 29.8v30.5h47v-12h-35v-14h32v-11h-32v-12l17.3-.2 17.2-.3.3-5.8.3-5.7h-47.1zm96.5-29.2c-.3.7-.4 14.3-.3 30.2l.3 29 6.3.3 6.2.3v-40.5l15 20.2 15 20.2h12v-61h-13l-.2 19.2-.3 19.2-14.4-19.2-14.3-19.2h-5.9c-3.9 0-6.1.4-6.4 1.3m105.5 29.1v30.6h13.3c15.4 0 22.7-1.5 29.3-6.1 19.5-13.4 16.5-42.1-5.4-52.2-4.1-1.9-6.9-2.2-20.9-2.5l-16.3-.4zm32.7-15.5c8.4 3.9 12 14.6 7.8 23.5-3.2 6.6-9.7 9.6-21.1 9.6h-7.4v-35h8.3c5.9 0 9.4.6 12.4 1.9m-62.9 73.2c-13.9 1.8-26.3 8.3-36.5 19.2-22.3 24-21.6 60.5 1.7 83.7 8.6 8.7 16.4 13.2 27.6 16 18.4 4.7 37 1 52.2-10.5 5.9-4.4 13.6-13 13-14.5-.2-.4-4.3-4.1-9.2-8.4l-8.8-7.7-2.7 3.5c-12.9 16.9-39 18.7-54.1 3.6-2.2-2.2-5.2-6.3-6.7-9.2-2.5-4.8-2.8-6.3-2.8-15.3 0-8.6.3-10.7 2.5-15 7.4-15.3 25.7-23.6 41.6-19 7.4 2.1 14.4 6.5 18.8 11.8l3.4 4.1 4.4-3.6c2.4-1.9 6.6-5.6 9.3-8l5-4.5-3.9-4.8c-13-15.8-34-24-54.8-21.4m-494.6 3.9c-23.8 6.3-36.1 22.2-30.8 40.2 3.8 13.3 16.4 19.8 49.9 25.8 22.5 4 29.1 7.3 29.1 14.4 0 4.9-2.9 8.5-9.2 11.4-5.4 2.5-6.6 2.7-20.2 2.7-16.1 0-22.4-1.3-34.3-6.7-3.7-1.7-6.9-2.9-7.1-2.7-1.2 1.5-10.7 19.2-10.4 19.4 1 1.1 17 6.9 23.6 8.7 11 2.9 34.5 3.6 46.5 1.4 22.4-4.2 33.5-14.5 34.5-31.8.8-14.3-3.2-21.7-15.5-28.1-8.8-4.6-16.4-6.8-35.8-10.7-16.9-3.3-21.7-4.9-25.2-8.2-3.1-2.9-3.1-8.1.1-11.3 7.2-7.2 33-7.5 53-.5 3.3 1.1 6.3 1.7 6.7 1.3.7-.8 7.9-17.7 7.9-18.7 0-.9-15.3-5.4-23.9-7-11.6-2.2-29.6-2-38.9.4m85.2.7c.3 1 7.3 25.9 15.6 55.3s15.3 54.3 15.6 55.2c.5 1.6 2.1 1.8 14.4 1.8h13.9l1.1-3.8c9.9-35.8 19.9-69.4 20.4-68.2.3.8 5 17.2 10.4 36.5l9.8 35 14 .3 14 .3 15.9-55.8c8.7-30.7 16-56.4 16.3-57.1.3-.9-2.5-1.2-12.2-1.2h-12.5l-1.4 4.7c-.8 2.7-5.6 20.7-10.7 40-5.2 19.4-9.6 35.3-10 35.3-.3 0-5-15.2-10.4-33.8-5.4-18.5-10.7-36.5-11.8-40l-1.9-6.3-10.2.3-10.2.3-11.7 40c-6.4 22-11.7 40.2-11.8 40.5s-4.6-15.9-9.9-36c-5.4-20.1-10.4-38.4-11-40.8l-1.2-4.2h-12.5c-11.5 0-12.5.1-12 1.7m189.6 55.3v57h26l-.2-56.8-.3-56.7-12.7-.3-12.8-.3zm53-44.5v12.5h36v89h25v-89l17.8-.2 17.7-.3v-24l-48.2-.3-48.3-.2zm251 44.5v57h24v-45h53v45h24l-.2-56.8-.3-56.7-11.7-.3-11.8-.3v45.1h-53v-45h-24z" style="fill:#fff" transform="matrix(.24528 0 0 .24662 -47.37 -17.2)"/></svg>