<svg xmlns="http://www.w3.org/2000/svg" viewBox="0 0 729.88 202.32"><path d="M517.9 16.57c0 7.6-6.91 14.5-15.2 14.5-7.6 0-14.5-6.9-14.5-14.5 0-8.28 6.9-15.19 15.2-15.19 8.28 0 14.5 6.9 14.5 15.2m-31.08 84.92c0-31.76 7.6-57.3 15.88-57.3 8.98 0 16.57 25.54 16.57 57.3 0 31.77-7.6 57.32-16.57 57.32-8.28 0-15.88-25.55-15.88-57.31M75.96 73.89c-11.05-5.53-18.65-7.6-26.93-7.6-7.6 0-13.12 4.14-13.12 10.36 0 5.52 3.45 8.28 13.12 11.04l13.12 3.46c13.12 3.45 17.95 7.6 21.4 12.43 4.15 4.83 6.22 11.05 6.22 17.95 0 22.1-18.64 37.29-46.26 37.29q-19.7 0-43.51-12.43l10.36-20.71c8.29 5.52 23.48 12.42 35.22 12.42 8.28 0 14.5-5.52 14.5-12.42s-5.53-11.05-16.57-13.12l-12.44-2.08c-7.6-1.38-15.88-6.21-20.02-11.04C7.6 94.6 4.83 87 4.83 80.1c0-20.72 16.58-35.22 42.13-35.22 16.57 0 28.3 5.53 37.98 10.36zm47.64-27.63 18.65 62.84c2.07 6.21 5.52 22.1 5.52 22.1s2.07-11.74 3.45-17.26c.7-3.46 2.77-9.67 4.15-14.5l16.57-51.1h29l-38.67 109.1c-7.6 20.72-13.12 29.7-20.71 35.22-6.9 5.52-16.58 8.28-26.24 9.66l-9.67-17.95c6.22-2.07 13.81-4.84 17.95-7.6a25 25 0 0 0 7.6-8.97c2.76-4.15 3.45-6.22 6.22-12.44 0 0-6.22.7-17.27-30.38L94.6 49.72zm113.25 0c1.38 2.77 2.76 5.53 3.45 11.05 7.6-7.6 16.57-11.05 26.24-11.05 8.98 0 16.58 2.77 22.1 8.98 1.38 1.38 2.76 3.45 4.14 4.84 9.67-9.67 18.65-13.82 30.39-13.82 8.28 0 16.57 2.77 21.4 6.91 5.53 4.83 7.6 11.05 7.6 26.24v75.95h-26.93V84.93c0-13.12-2.07-15.88-8.98-15.88-5.52 0-12.43 4.14-18.64 8.98v77.33h-26.93V85.62c0-13.12-2.07-16.57-9.67-16.57-4.83 0-12.43 2.76-17.96 8.29v78.02h-27.62V80.8c0-15.88-1.38-22.1-4.14-27.62zm429.51-.69a24.4 24.4 0 0 1 4.14 13.12c4.14-2.76 7.6-5.52 12.43-7.6 5.52-3.44 13.12-4.83 19.33-4.83 11.74 0 22.8 6.22 25.55 15.2 2.07 4.14 2.07 8.97 2.07 15.88v78.02h-27.62V85.62c0-12.43-2.07-15.88-8.98-15.88-6.21 0-13.11 4.15-20.02 9.67v75.95h-27.62V78.03c0-9.67-1.38-18.65-4.14-25.55zm-43.51 37.98c0-11.05-.69-14.5-2.07-19.33-4.14-11.74-16.57-18.65-34.53-18.65-9.66 0-18.64 2.08-29 6.9-7.6 2.77-11.74 4.84-17.26 8.3l11.74 20.02c11.05-7.6 22.1-11.74 31.07-11.74 9.67 0 12.43 3.45 12.43 15.88v4.15h-6.21c-34.53 0-51.8 11.74-51.8 36.6 0 21.4 13.13 33.14 36.6 33.14 22.8 0 49.03-13.12 49.03-35.9zm-29 49.03c-4.14 4.83-8.98 7.6-14.5 7.6-6.9 0-12.43-7.6-12.43-15.89 0-12.43 6.9-15.88 26.24-15.88h1.38zM425.36 45.57q-14.5 0-22.78 8.29c0-1.38.69-6.21.69-8.98V19.33c0-7.6-.7-11.73-1.38-19.33l-29 6.9c2.06 6.22 2.06 13.12 2.06 26.25v87c0 16.58 14.5 37.29 46.27 37.29 10.36 0 19.34-1.38 26.93-7.6 13.12-10.36 19.34-28.3 19.34-49.71 0-33.84-15.89-54.56-42.13-54.56m7.6 82.17c-2.76 5.53-6.9 8.3-13.81 8.3-7.6 0-11.74-3.46-15.88-6.91v-51.8c3.45-4.14 8.97-8.28 15.88-8.28 7.6 0 13.12 4.14 15.19 13.12 1.38 4.84 1.38 8.98 1.38 18.65 0 13.12-.7 20.71-2.76 26.92" style="fill-rule:evenodd;fill:#fff"/><script/></svg>