<svg xmlns="http://www.w3.org/2000/svg" viewBox="0 0 3790.2 1124.33"><path d="M1455.63 274.7c0-34-28.3-62.2-62.2-62.2h-45.3c-41 0-75-34-75-75s34-75 75-75h175.4V7.3h-176.8c-72.2 0-130.2 58-130.2 130.2s58 130.2 130.2 130.2h45.3c4.2 0 7.1 2.8 7.1 7.1 0 4.2-2.8 7.1-5.7 7.1h-176.9V337h176.8c34 0 62.3-28.3 62.3-62.3m-62.3-129.9h-45.3c-4.2 0-7.1-2.8-7.1-7.1 0-2.8 2.8-5.7 5.7-5.7h176.9V75.4l-176.8.1c-34 0-62.2 28.3-62.2 62.3s28.3 62.2 62.3 62.2h45.3c41 0 75 33.9 75 74.9s-33.9 75-74.9 75l-175.4.1v55.2l176.8-.1c72.2 0 130.1-58.1 130.1-130.2s-58.2-130.1-130.4-130.1m615.5-14.4h157V75.2h-183.9c-24.1 0-42.4 18.4-42.4 42.4v176.8c0 24.1 18.4 42.4 42.4 42.4h114.6V212.5h-87.7v55.2h32.5v12.7h-32.5c-7.1 0-12.7-5.7-12.7-12.7V143.1c0-7 5.6-12.7 12.7-12.7m449.9 206.6-87.7-260.3c-2.8-7.1-8.5-12.7-17-12.7-7.1 0-14.1 5.7-17 11.3l-113.2 329.6h65.1l39.6-117.4V337Zm-106.1-118.9 18.4 56.6h-38.2zm86.2-153.1c-11.3-36.7-45.3-65-86.3-65s-75 26.9-84.9 63.7l-103.1 302.8-.1-222.1-155.6.1v55.2l101.9-.1.1 150-127.3.1c-31.1 0-55.2-25.4-55.2-55.1l-.1-176.8c0-31.1 25.4-55.2 55.1-55.2l182.5-.1V7.3l-183.9.1c-60.8 0-110.3 49.6-110.3 110.4l.1 176.8c0 60.8 49.6 110.3 110.4 110.3l227.8-.1 114.4-332.5c4.2-12.7 15.6-21.2 29.7-21.2s25.5 8.5 29.7 21.2l93.5 277.2-147.1.1v55.2l223.5-.1zm-833.2 229.5V117.7c0-31.1 25.5-55.2 55.2-55.2h189.6V7.3h-189.6c-60.8 0-110.4 49.5-110.4 110.4v176.8c0 60.8 49.5 110.4 110.4 110.4h189.6v-55.2h-189.6c-31.2 0-55.2-25.5-55.2-55.2m80.7-11.2c-7.1-1.4-12.7-7.1-12.7-14.1l137.2-.1v-55.2l-192.4.1v82.1c0 24.1 18.4 42.4 42.5 42.4l189.6-.1v-55.2zm-.1-151.5h162.7V75.2h-188.2c-24.1 0-42.4 18.4-42.4 42.4v82.1h192.4v-55.2h-137.2c0-7 5.7-12.7 12.7-12.7" class="st1" style="fill:#fff"/><path d="M199.8 717.53q-4.8 0-7.8 3-2.4 3-2.4 7.2 0 3.6 1.8 7.2 1.8 3 5.4 3.6 1.8.6 13.8 3.6 12.6 2.4 28.2 6t31.2 8.4q16.2 4.2 24.6 8.4 18 10.2 35.4 24.6t31.2 34.8q13.8 19.8 22.2 46.8 8.4 26.4 8.4 60.6 0 40.8-15 76.2-14.4 34.8-39.6 60.6t-60 40.8q-34.2 15-73.8 15H0v-79.8h203.4q25.2 0 45.6-8.4 21-8.4 36-23.4t22.8-35.4q8.4-21 8.4-45.6 0-31.2-11.4-51t-28.2-31.2q-16.8-12-36.6-17.4-19.2-6-35.4-9.6-18-3.6-35.4-9.6-16.8-6.6-30-17.4t-21.6-27q-7.8-16.2-7.8-40.2 0-22.8 6.6-39.6 6.6-17.4 18-28.8 12-11.4 27.6-16.8 16.2-6 34.8-6h198.6v79.8zm-3-102q-24.6 0-45 8.4-19.8 8.4-34.2 23.4-13.8 15-21.6 36-7.8 20.4-7.8 45 0 25.8 9 45t22.8 33q14.4 13.8 31.8 22.2 17.4 7.8 34.2 10.8 16.2 3 35.4 8.4 19.2 4.8 35.4 15 16.2 9.6 27 26.4t10.8 42.6q0 22.8-7.2 40.2-7.2 16.8-19.8 28.2t-29.4 17.4q-16.2 5.4-34.8 5.4H0v-79.8h196.2q4.8 0 7.2-3 3-3.6 3-7.2 0-8.4-7.2-11.4-1.8-.6-14.4-3t-28.8-6q-15.6-3.6-31.2-7.8-15.6-4.8-24-9.6-17.4-9.6-34.2-24t-30-34.2q-12.6-20.4-20.4-46.8-7.8-27-7.8-61.8 0-40.2 14.4-75.6 15-35.4 40.2-61.2t59.4-40.8q34.8-15 74.4-15h198.6v79.8zm437.4 223.8h35.4q22.8 0 38.4-6 15.6-6.6 25.2-18 10.2-11.4 14.4-27 4.8-15.6 4.8-33.6v-219H828v202.2q0 80.4-27.6 123-27 42.6-86.4 54v209.4h-79.8zm-101.4 285v-209.4q-59.4-11.4-87.6-54-27.6-42.6-27.6-123v-202.2h75.6v219q0 18 4.2 33.6 4.8 15.6 14.4 27 10.2 11.4 25.8 18 15.6 6 38.4 6h36.6v285zM642 737.93q6.6 0 9-4.2t2.4-11.4v-186.6h77.4v207q0 21-3 35.4-3 13.8-10.8 22.8-7.2 9-21 13.2-13.2 3.6-34.2 3.6h-78q-21 0-34.8-3.6-13.2-4.2-21-13.2-7.2-9-10.2-22.8-3-14.4-3-35.4v-207h77.4v186.6q0 7.2 1.8 11.4 2.4 4.2 9.6 4.2zm414-20.4q-4.8 0-7.8 3-2.4 3-2.4 7.2 0 3.6 1.8 7.2 1.8 3 5.4 3.6 1.8.6 13.8 3.6 12.6 2.4 28.2 6t31.2 8.4q16.2 4.2 24.6 8.4 18 10.2 35.4 24.6t31.2 34.8q13.8 19.8 22.2 46.8 8.4 26.4 8.4 60.6 0 40.8-15 76.2-14.4 34.8-39.6 60.6t-60 40.8q-34.2 15-73.8 15H856.2v-79.8h203.4q25.2 0 45.6-8.4 21-8.4 36-23.4t22.8-35.4q8.4-21 8.4-45.6 0-31.2-11.4-51t-28.2-31.2q-16.8-12-36.6-17.4-19.2-6-35.4-9.6-18-3.6-35.4-9.6-16.8-6.6-30-17.4t-21.6-27q-7.8-16.2-7.8-40.2 0-22.8 6.6-39.6 6.6-17.4 18-28.8 12-11.4 27.6-16.8 16.2-6 34.8-6h198.6v79.8zm-3-102q-24.6 0-45 8.4-19.8 8.4-34.2 23.4-13.8 15-21.6 36-7.8 20.4-7.8 45 0 25.8 9 45t22.8 33q14.4 13.8 31.8 22.2 17.4 7.8 34.2 10.8 16.2 3 35.4 8.4 19.2 4.8 35.4 15 16.2 9.6 27 26.4t10.8 42.6q0 22.8-7.2 40.2-7.2 16.8-19.8 28.2t-29.4 17.4q-16.2 5.4-34.8 5.4H856.2v-79.8h196.2q4.8 0 7.2-3 3-3.6 3-7.2 0-8.4-7.2-11.4-1.8-.6-14.4-3t-28.8-6q-15.6-3.6-31.2-7.8-15.6-4.8-24-9.6-17.4-9.6-34.2-24t-30-34.2q-12.6-20.4-20.4-46.8-7.8-27-7.8-61.8 0-40.2 14.4-75.6 15-35.4 40.2-61.2t59.4-40.8q34.8-15 74.4-15h198.6v79.8zm631.2-79.8v79.8h-410.4v-79.8zm-215.4 101.4v487.2H1389v-407.4h-115.2v-79.8zm21.6 0h193.8v79.8h-114v407.4h-79.8zm217.8 79.8q0-37.8 13.8-70.8 13.8-33.6 36.6-57.6 23.4-24.6 53.4-38.4 30.6-14.4 63-14.4h227.4v79.8h-217.8q-22.8 0-40.8 9t-30.6 23.4q-12 14.4-18.6 33-6.6 18-6.6 36v226.2q0 18 6.6 36.6 6.6 18 18.6 32.4 12.6 14.4 30.6 23.4t40.8 9h217.8v79.8H1875q-32.4 0-63-13.8-30-14.4-53.4-38.4-22.8-24.6-36.6-57.6-13.8-33.6-13.8-71.4zm101.4 103.2v-91.2q0-15.6 4.8-31.8 5.4-16.8 15.6-30t25.8-21.6 36.6-8.4h210v79.8h-208.2q-3.6 0-7.8 4.2-3.6 4.2-3.6 11.4v8.4h174v79.2zm0 19.8h247.2v79.8h-174v7.8q0 7.2 3.6 11.4 4.2 4.2 7.8 4.2h208.2v79.8h-210q-21 0-36.6-8.4t-25.8-21.6-15.6-29.4q-4.8-16.8-4.8-32.4zm658.8 21-85.8-229.8q-2.4-6-10.2-10.8t-17.4-4.8q-8.4 0-17.4 4.8t-10.8 10.8l-172.8 493.2h-79.8l185.4-523.2q4.8-12.6 12.6-24 7.8-12 19.2-21 12-9.6 27.6-15t36-5.4 35.4 5.4 26.4 15q11.4 9 19.2 21 8.4 11.4 14.4 24l18 36 18-36q6.6-12.6 14.4-24 8.4-12 19.2-21 11.4-9.6 26.4-15t35.4-5.4q19.8 0 35.4 5.4 16.2 5.4 27.6 15 12 9 19.8 21 8.4 11.4 12.6 24l185.4 523.2h-79.8L2610 631.13q-1.8-6-10.8-10.8t-17.4-4.8q-9.6 0-17.4 4.8t-10.2 10.8zm0 263.4L2355 821.93l-99.6 302.4h-79.8l164.4-478.2q1.2-3.6 6-6 4.8-3 9-3t8.4 3q4.8 2.4 6 6l99 273 99-273q1.2-3.6 5.4-6 4.8-3 9-3t9 3q4.8 2.4 6 6l164.4 478.2h-76.8l-102.6-302.4zm679.2-406.8q-4.8 0-7.8 3-2.4 3-2.4 7.2 0 3.6 1.8 7.2 1.8 3 5.4 3.6 1.8.6 13.8 3.6 12.6 2.4 28.2 6t31.2 8.4q16.2 4.2 24.6 8.4 18 10.2 35.4 24.6t31.2 34.8q13.8 19.8 22.2 46.8 8.4 26.4 8.4 60.6 0 40.8-15 76.2-14.4 34.8-39.6 60.6t-60 40.8q-34.2 15-73.8 15h-203.4v-79.8h203.4q25.2 0 45.6-8.4 21-8.4 36-23.4t22.8-35.4q8.4-21 8.4-45.6 0-31.2-11.4-51t-28.2-31.2q-16.8-12-36.6-17.4-19.2-6-35.4-9.6-18-3.6-35.4-9.6-16.8-6.6-30-17.4t-21.6-27q-7.8-16.2-7.8-40.2 0-22.8 6.6-39.6 6.6-17.4 18-28.8 12-11.4 27.6-16.8 16.2-6 34.8-6h198.6v79.8zm-3-102q-24.6 0-45 8.4-19.8 8.4-34.2 23.4-13.8 15-21.6 36-7.8 20.4-7.8 45 0 25.8 9 45t22.8 33q14.4 13.8 31.8 22.2 17.4 7.8 34.2 10.8 16.2 3 35.4 8.4 19.2 4.8 35.4 15 16.2 9.6 27 26.4t10.8 42.6q0 22.8-7.2 40.2-7.2 16.8-19.8 28.2t-29.4 17.4q-16.2 5.4-34.8 5.4h-203.4v-79.8H3144q4.8 0 7.2-3 3-3.6 3-7.2 0-8.4-7.2-11.4-1.8-.6-14.4-3t-28.8-6q-15.6-3.6-31.2-7.8-15.6-4.8-24-9.6-17.4-9.6-34.2-24t-30-34.2q-12.6-20.4-20.4-46.8-7.8-27-7.8-61.8 0-40.2 14.4-75.6 15-35.4 40.2-61.2t59.4-40.8q34.8-15 74.4-15h198.6v79.8zm322.2 228H3600q25.2 0 45-8.4 20.4-8.4 34.8-23.4t22.2-36 7.8-45.6-7.8-45.6-22.2-36-34.8-23.4q-19.8-8.4-45-8.4h-234.6v-81H3600q39.6 0 74.4 15t60.6 41.4 40.2 61.8q15 35.4 15 76.2t-15 76.2-40.8 61.8q-25.2 26.4-60 41.4t-74.4 15h-53.4v199.8h-79.8zm-101.4-102H3600q3.6 0 5.4-3.6 1.8-4.2 1.8-7.8t-1.8-7.2q-1.8-4.2-5.4-4.2h-234.6v-80.4H3600q37.8 0 62.4 22.8 25.2 22.8 25.2 69t-25.2 69q-24.6 22.8-62.4 22.8h-154.8v302.4h-79.8z" aria-label="SYSTEM SP" style="font-size:600px;font-family:&quot;SEGA LOGO FONT&quot;;-inkscape-font-specification:&quot;SEGA LOGO FONT&quot;;white-space:pre;fill:#fff"/></svg>