<svg xmlns="http://www.w3.org/2000/svg" viewBox="0 0 559.25 81.18"><path d="M51.42 40.2h-4.38l10.42-18.05a11.3 11.3 0 0 1 9.8-5.67h21.53l-2.19 3.79H67.26a7.5 7.5 0 0 0-6.51 3.77zm11.72-14.78a4.8 4.8 0 0 1 4.12-2.38H85l.95-1.64h-18.7a6.4 6.4 0 0 0-5.53 3.2l-9 15.6h1.9zm1.66 6.97h14.8l2.57-4.44.77-1.35 1.41-2.44h-17.1c-1.28 0-2.48.7-3.13 1.82l-8.2 14.22h4.37zm-33.63 0v.04c-.04.12-.2.45-.76 1.39-1.18 1.98-2.38 4.45-2.38 7.79a11.3 11.3 0 0 0 11.3 11.3h43l-4.47 7.73h4.38l3.5-6.08a3.6 3.6 0 0 0-3.1-5.45H39.32a7.5 7.5 0 0 1-7.5-7.5c0-2.28.74-3.98 1.85-5.85 1.03-1.73 1.3-2.33 1.3-3.55 0-2-1.63-3.61-3.62-3.61h-12.7l2.19 3.79zm51.47 13.96H39.32a4.74 4.74 0 0 1-4.74-4.74c0-1.44.4-2.65 1.47-4.43 1.14-1.92 1.68-3.04 1.68-4.98a6.4 6.4 0 0 0-6.38-6.37H13.88l-.61-1.07-4.15 1.87 6.42 2.06-.71-1.22h16.52a4.74 4.74 0 0 1 4.74 4.73c0 1.48-.33 2.25-1.45 4.14-1.22 2.04-1.7 3.52-1.7 5.27a6.4 6.4 0 0 0 6.38 6.38h43.32a4.74 4.74 0 0 1 4.07 7.16l-3.17 5.49h1.9l2.68-4.67a6.37 6.37 0 0 0-5.48-9.62m-39.27 7.78H39l-3.76 6.5h4.38zm-.56 6.5 3.76-6.5h-1.9l-3.75 6.5zm9.44-6.5h-4.38l-3.75 6.5h4.37zm30.39-12.7H39.5c.02-.28.14-.7.76-1.74 1.35-2.26 2.38-4.24 2.38-7.48a11.3 11.3 0 0 0-11.3-11.3h-.3l-2.5 2.5-2.5-2.5H14.22l2.2 3.8h14.94c4.14 0 7.5 3.36 7.5 7.5 0 2.28-.7 3.62-1.84 5.54-.96 1.62-1.3 2.62-1.3 3.86 0 1.99 1.62 3.6 3.6 3.6h43.33a7.51 7.51 0 0 1 6.46 11.33l-2.37 4.1h4.38l1.26-2.2a11.3 11.3 0 0 0-9.73-17.01m-50.34-21-3.74-3.74-3.75 3.74h1.74l2-2 2.01 2zm69.96-2.89h20.42c13.46 0 18.2 10.38 18.2 20.99 0 12.9-6.55 21.1-20.64 21.1h-17.98zm12.44 31.3h4.87c7.74 0 8.88-6.54 8.88-10.49 0-2.65-.8-10.02-9.79-10.02h-3.96zm30.43-31.3h23.7c7.07 0 13.18 4.07 13.18 12.03 0 4.36-1.93 8.96-6.06 10.55 3.4 1.36 5.49 5.25 5.94 10.5.17 2.06.23 7.07 1.36 9.01h-12.44c-.63-2.12-.85-4.3-1.02-6.48-.34-4-.68-8.2-5.6-8.2h-6.62v14.69h-12.44zm12.44 18.4h6.5c2.32 0 5.5-.42 5.5-4.19 0-2.65-1.42-4.18-6.17-4.18h-5.83zm42.93-18.4h12.16l14.7 42.1h-12.9l-1.69-6.02h-12.84l-1.8 6.01h-12.5zm9.78 27.06-3.62-12.97h-.11l-3.9 12.97zm48.3 10.73c-2.77 3.71-7.07 5.3-11.48 5.3-11.93 0-19.29-9.66-19.29-21.63 0-16.03 10.8-22.46 19.91-22.46 10.3 0 16.8 5.84 18.61 15.74h-11.93a6 6 0 0 0-5.88-5.24c-8.54 0-8.26 9.37-8.26 12.26 0 3.94 1.52 10.84 9.1 10.84 2.89 0 5.83-1.53 6.45-4.65h-5.49v-9.02h16.52v23.16h-7.86zm34.84-38.79c12.27 0 20.47 9.2 20.47 22.05s-8.2 22.05-20.47 22.05-20.48-9.2-20.48-22.05 8.2-22.05 20.48-22.05m0 33.6c3.17 0 8.03-2.18 8.03-11.55s-4.86-11.56-8.03-11.56-8.03 2.18-8.03 11.56c0 9.37 4.86 11.55 8.03 11.55m25.79-32.6h12.72l11.77 22.52h.11V17.54h11.77v42.1h-12.1l-12.4-23h-.1v23h-11.77zm94.75 8.96v34.14H401.5V26.5h-12.8V15.74h38.09V26.5Zm34.37 34.14-2.65-8.85h-12.54l-2.81 8.84h-11.67l14.45-44.89h15.2L463 60.64Zm-12.75-18.65h7.58l-3.8-13.02Zm67.43 18.65h-11.7l-12.8-19.84a75 75 0 0 1-4.98-9.27q1.13 4.34 1.13 7.37v21.74H463v-44.9h13.58l10.9 16.45a63 63 0 0 1 4.94 8.61 63 63 0 0 1-1.1-11.77V15.74h11.7zm25.2.69q-9.74 0-15.87-6.28-6.14-6.3-6.14-16.81 0-10.06 5.87-16.63t16.27-6.56q9.64 0 15.7 6.19 6.07 6.18 6.07 16.5 0 10.7-6.12 17.14t-15.78 6.45m-.07-10.2q3.58 0 5.16-3.04 1.57-3.05 1.57-11.13 0-11.7-6.46-11.71-6.96 0-6.96 13.35 0 12.53 6.7 12.53" style="fill:#fff"/><path fill="none" stroke-miterlimit="10" stroke-width="1.11" d="M376.64 66.13h11.2c.51 0 .98-.31 1.18-.78l8.8-20.76" style="stroke:#fff"/><path fill="none" stroke-miterlimit="10" stroke-width="1.11" d="m393.45 44.59-5.77 15.04-1.04-15.04m-10 18.06h7.85L382.9 44.6m-8.38 1.73h-4.7c-.72 0-1.31-.6-1.31-1.31v-1.63c0-.71.59-1.3 1.3-1.3h4.7a2.12 2.12 0 0 1 0 4.24zm-.45 9.25h-5.68a1.6 1.6 0 0 1-1.59-1.59v-1.96c0-.87.71-1.58 1.58-1.58h5.7a2.57 2.57 0 0 1 2.56 2.56c0 1.41-1.16 2.57-2.57 2.57z" style="stroke:#fff"/><path fill="none" stroke-miterlimit="10" stroke-width="1.11" d="m361.5 59.5 3.46-21.47c.03-.2.2-.35.41-.35h8.89c3.61 0 6.74 2.82 6.79 6.44a6.5 6.5 0 0 1-1.64 4.4 7 7 0 0 1 1.64 4.7c-.11 3.81-3.43 6.77-7.25 6.77h-11.89a.42.42 0 0 1-.4-.49z" style="stroke:#fff"/></svg>