<svg xmlns="http://www.w3.org/2000/svg" viewBox="0 0 264 57"><path d="M0 0h13.08v3.87H9.25v52.49H4.62V3.87H0zm24.92 52.52h5.1V15.74h4.47v36.78c0 2.38-2.15 4.07-4.36 4.07h-5.2c-2.34 0-4.42-1.9-4.42-4.12V15.74h4.41zm96-27.79h6.82v31.9h-9.6c-2.06 0-4.6-1.59-4.6-3.98V4.43c0-2.03 2.12-4.19 4.5-4.19h5.24c2.32 0 4.43 2.14 4.43 4.14V15.8h-4.6V4.54h-5.22v48.14h5.34V28.63h-2.3zm65.93 12.32v19.33h-4.3V19.35c0-1.67 1.65-3.5 3.74-3.5h7.1v3.58h-6.54V33.1h5.39v3.95zm15.27-21.18h4.52v14.75l2.55 2.57 2.5-2.5V15.87h4.46V29.9c0 1.71-4.4 6.23-4.4 6.23s4.46 4.5 4.46 6.34v14H212V41.88l-2.71-2.75-2.72 2.71v14.61h-4.46V42.5c0-1.72 4.73-6.4 4.73-6.4s-4.73-4.47-4.73-6.27zM53.84 37.14c1.51 0 3.53-1.82 3.53-4.26v-13.3c0-1.92-2.18-3.7-4.65-3.7h-9.17v40.67h4.23V37.44h1.6l4.7 19.03h4.14zM53 33.16h-5.06V19.82H53zm94.36 3.87c1.52 0 3.53-1.82 3.53-4.26v-13.3c0-1.92-2.17-3.7-4.64-3.7h-9.17v40.67h4.22V37.33h1.6l4.7 19.03h4.15zm-.9-4.02h-5.05V19.67h5.06zm-66.5 5.09c-.02-1.83-1.91-2.98-1.91-2.98s1.91-1.24 1.91-2.97V19.73c0-2.34-2.05-3.86-4.14-3.86h-9.65v40.6h9.65c1.95 0 4.14-1.23 4.14-3.87 0 0 .02-12.68 0-14.5m-4.34 14.39h-5.07V37.35h5.07zm0-19.34h-5.07V19.81h5.07zm22.82-17.58h-5.02c-2.54 0-4.38 2.17-4.38 3.82v32.98c0 2.13 2.36 4.06 4.35 4.06h5.47c2.13 0 4.26-2.21 4.26-3.98V19.28c0-1.48-2.01-3.72-4.68-3.72m.16 36.67h-4.9V19.58h4.9zm70.76-36.37h-5.58a3.9 3.9 0 0 0-3.99 3.71v36.81h4.23V37.05h5.34v19.33h4.23V19.8c0-2.43-1.68-3.94-4.23-3.94m-.12 17.17h-5.06V19.95h5.06z" style="fill:#fff;fill-opacity:1"/><path d="M243.25 15.3a20.8 20.8 0 0 0-20.75 20.85A20.8 20.8 0 0 0 243.25 57 20.8 20.8 0 0 0 264 36.15a20.8 20.8 0 0 0-20.75-20.85m-1.04 15.64h-2.07v-1.05l-1.04-1.04h-8.3V44.5h8.3l1.04-1.04V42.4h2.07v2.09l-2.07 2.09h-10.38l-1.03-1.05V27.81l1.03-1.04h10.38l2.07 2.08zm15.56 13.55-2.07 2.09h-11.41v-2.1h1.04V28.86h-1.04v-2.08h11.41l2.07 2.08zm-10.37 0h8.3V28.85h-8.3z" style="fill:#fff"/></svg>