<svg xmlns="http://www.w3.org/2000/svg" viewBox="115 416.99 834 235.26"><path d="M289 517.44v-14.88a.56.56 0 0 1 .56-.56h46.88a.56.56 0 0 1 .56.56v14.88a.56.56 0 0 0 .56.56h14.88a.56.56 0 0 1 .56.56v17.88a.56.56 0 0 1-.56.56h-49.88a.56.56 0 0 0-.56.56v6.88a.56.56 0 0 0 .56.56h33.88a.56.56 0 0 1 .56.56v11.88a.56.56 0 0 1-.56.56h-46.87a.56.56 0 0 1-.56-.56l-.03-3.88a.56.56 0 0 0-.56-.56h-12.86a.56.56 0 0 1-.56-.56v-33.88a.56.56 0 0 1 .56-.56h12.88a.56.56 0 0 0 .56-.56m35 .83a.27.27 0 0 0-.27-.27h-21.46a.27.27 0 0 0-.27.27v5.46a.27.27 0 0 0 .27.27h21.46a.27.27 0 0 0 .27-.27zm500 .24v25.98a.5.5 0 0 0 .51.51h46.98a.5.5 0 0 1 .51.51v11.98a.5.5 0 0 1-.51.51h-60.9a.5.5 0 0 1-.51-.48l-.26-4.04a.5.5 0 0 0-.51-.48h-14.8a.5.5 0 0 1-.51-.51v-33.98a.5.5 0 0 1 .51-.51h14.98a.5.5 0 0 0 .51-.51v-14.98a.5.5 0 0 1 .51-.51h60.98a.5.5 0 0 1 .51.51v14.98a.5.5 0 0 1-.51.51h-46.98a.5.5 0 0 0-.51.51m-140-20.93v59.84a.6.6 0 0 1-.58.58h-27.84a.6.6 0 0 1-.58-.58v-59.84a.6.6 0 0 0-.58-.58h-19.84a.6.6 0 0 1-.58-.58v-14.84a.6.6 0 0 1 .58-.58h67.84a.6.6 0 0 1 .58.58v14.84a.6.6 0 0 1-.58.58h-17.84a.6.6 0 0 0-.58.58m-521 0v59.84a.6.6 0 0 1-.58.58h-25.84a.6.6 0 0 1-.58-.58v-59.84a.6.6 0 0 0-.58-.58h-19.84a.6.6 0 0 1-.58-.58v-14.84a.6.6 0 0 1 .58-.58h67.84a.6.6 0 0 1 .58.58v14.84a.6.6 0 0 1-.58.58h-19.84a.6.6 0 0 0-.58.58m743 27v32.84a.6.6 0 0 1-.58.58h-24.84a.6.6 0 0 1-.58-.58v-67.84a.6.6 0 0 1 .58-.58h24.84a.6.6 0 0 1 .58.58v19.84a.6.6 0 0 0 .58.58h33.84a.6.6 0 0 1 .58.58v12.84a.6.6 0 0 0 .58.58h6.84a.6.6 0 0 1 .58.58v32.84a.6.6 0 0 1-.58.58h-27.84a.6.6 0 0 1-.58-.58v-32.84a.6.6 0 0 0-.58-.58h-12.84a.6.6 0 0 0-.58.58M254.61 524h11.78a.6.6 0 0 1 .61.61v32.78a.6.6 0 0 1-.61.61h-24.78a.6.6 0 0 1-.61-.61v-32.78a.6.6 0 0 0-.61-.61h-12.78a.6.6 0 0 0-.61.61v32.78a.6.6 0 0 1-.61.61h-27.78a.6.6 0 0 1-.61-.61v-67.78a.6.6 0 0 1 .61-.61h27.78a.6.6 0 0 1 .61.61v19.78a.6.6 0 0 0 .61.61h25.78a.6.6 0 0 1 .61.61v12.78a.6.6 0 0 0 .61.61m520.24 33.98-48.98.01q-.6 0-.64-.6l-.31-3.91q-.03-.46-.49-.46l-13.18-.06-.16-34.09a.87.86-.3 0 1 .87-.87h12.54q.5 0 .5-.5v-14.88q0-.62.63-.62h48.75q.62 0 .62.62v14.88q0 .5.5.5h12.87a.63.62 0 0 1 .63.62v17.88q0 .5-.5.5h-49.87q-.63 0-.63.63v6.62q0 .75.75.75h35.74q.46 0 .46.46zm-15.86-39.23a.75.75 0 0 0-.75-.75h-19.5a.75.75 0 0 0-.75.75v4.5a.75.75 0 0 0 .75.75h19.5a.75.75 0 0 0 .75-.75zM460.06 417.74q.02-.7.7-.7l3.58-.05q.62 0 .63.61l.07 3.9.46.46 4.67.1q.65.02.67.67l.16 4.98.29.29 3.86.07q.65 0 .67.66l.22 8.52.46.71 3.72.12q.64.02.65.67l.09 5.25a11 11 0 0 0 .54 5.04l4.59-.01q.6 0 .75.57.54 2 .12 4.15l.33 6.25 3.73.02c.54 0 .97.44.97.98l.02 3.35q0 .65.66.65h3.63q.58 0 .6.58l.14 3.92.46.46 9.87-.02q.63 0 .63-.62v-3.06c0-.69.55-1.25 1.24-1.25l3.12-.03q.64 0 .64-.65v-9.67q0-.64.65-.65l4.11-.02c.69 0 1.24-.56 1.24-1.25v-2.71q0-.64.61-.83a7.3 7.3 0 0 1 3.89-.16l.54-1.04q-.45-1.84.26-3.53.2-.45.69-.46l3.36-.02q.65 0 .65-.65v-4.68q0-.65.65-.65l4.69-.02q.64 0 .65-.64l.02-3.39q0-.5.48-.67a8 8 0 0 1 4.26-.25l.29-.79c-.25-4.02-.42-4.24 3.78-4.28.65 0 1.18-.54 1.18-1.19v-4.12q0-.65.65-.65l4.57-.02q.66 0 .68.66l.14 4.85.46.46 3.38.06q.58 0 .81.54.75 1.8.35 3.94l.46.46 3.83.02q.7 0 .71.71l-.04 4.02.29.29 4.88.07q.65 0 .68.66l.19 4.77.46.46 3.56.05q.73 0 .79.73l.24 2.98c.06.72.66 1.28 1.38 1.28h3.8q.54 0 .56.54l.13 3.96.54.46 3.7.1q.67.02.68.69l.08 4.75.54.46 3.69.07q.74 0 .75.74l.09 2.89c.02.75.63 1.34 1.38 1.34h3.86q.54 0 .56.54l.13 3.96.54.46 3.71.11q.65 0 .67.66l.16 4.77.46.46 3.74.04q.63 0 .66.64l.15 3.05c.04.74.65 1.31 1.39 1.31h3.83q.54 0 .56.54l.13 3.96.54.46q-.86 2.54-.41 5.37.1.67-.57.67h-4.11c-.75 0-1.36.6-1.38 1.34l-.08 2.92q-.02.63-.64.67l-3.64.2q-.66.04-.66.7l-.02 3.52q0 .65-.65.65l-9.69.01q-.65 0-.65.65v4.54a.9.9 0 0 1-1.11.88 5.2 5.2 0 0 0-3.37.3.8.8 0 0 0-.49.75l-.08 3.09q-.02.64-.66.71l-3.69.4q-.58.06-.59.64l-.02 3.36q0 .63-.63.64l-4.67.08q-.69 0-.69.69v4.06c0 .6-.45 1.08-1.04 1.12l-3.16.22q-.8.06-.8.86v3.32q0 .57-.56.58l-8.64.2q-1.8.04-1.8 1.84v1.73c0 .66-.5 1.21-1.17 1.26l-3.03.21q-.8.06-.8.86v4.5q0 .5-.5.5h-4.26c-.7 0-1.25.57-1.25 1.26l.03 3.09q0 .64.64.64l4.69.02q.65 0 .65.65l.01 9.57q0 .7.71.72l3.62.07q.55.01.6.58l.22 3.47q.04.56.57.74 2.17.74 4.23-.3l.33.49 5.04.06q.6 0 .61.62l.06 10.03.29.29 3.89.01q.75 0 .77.75l.08 3.02c.02.68.57 1.22 1.25 1.22h3.98q.6 0 .6.59l.1 3.9.54.47a7.5 7.5 0 0 1 3.83.2q.6.2.6.82l.11 9.52.46.46a7.7 7.7 0 0 0-.22 5.41q.18.58.79.59l3.37.09q.54.02.55.56l.04 8.49q0 .75.75.78l4.51.17q.7.03.71.74v4.52q0 .57-.57.61l-4.63.26q-.8.04-.79.82l-.02 3.33q0 .61-.63.63l-8.83.13q-.6 0-.58.63l.17 3.43q.04.6-.57.66l-4.92.44q-.63.05-.63.68v4.39q0 .55-.56.57l-9.2.16c-.69.02-1.24.58-1.24 1.27v2.95q0 .7-.7.7l-8.06.04c-.69 0-1.24.56-1.24 1.25v2.85q0 .6-.6.66l-4.8.46q-.6.06-.6.66v3.58q0 1.47-1.47 1.49l-7.83.12q-.7 0-.7.71v2.89c0 .73-.58 1.34-1.31 1.37l-4.73.2-.46-.29-3.82-.02q-.6 0-.62-.62l-.06-4.03-.5-.33-3.45.05q-.54 0-.69-.52a13 13 0 0 1-.36-5.2l-.49-.32-4.83-.13q-.65-.02-.65-.67l.01-8.67-.79-.54q-1.83.34-3.59-.08-.58-.14-.59-.74l-.07-4.85-.29-.29-3.67-.08q-.6 0-.82-.59a7.5 7.5 0 0 1-.22-4.04l-.29-.29.23-4.22q.03-.47-.44-.5l-4.9-.36q-.6-.04-.6-.64v-4.41q0-.8-.81-.82l-3.34-.08a.87.87 0 0 1-.85-.87v-8.6q0-.5-.5-.49l-3.85-.02q-.65 0-.65-.65v-4.71q0-.68-.68-.66l-4.72.13q-.6.02-.59.61l-.02 4.57q0 .6-.58.63l-3.77.3q-.64.05-.64.7v3.11c0 .55-.44 1-.99.99q-3.94-.03-7.83.01c-2.4.02-2.3 1.28-2.18 3.21q.1 1.48-1.36 1.68l-3.14.43q-.5.07-.5.58v4.42q0 .64-.65.65l-3.69.02q-.64 0-.65.64l-.02 3.1c0 .69-.56 1.24-1.24 1.24l-3.87.02q-.7 0-.75.72l-.2 3.65q-.03.54-.57.55l-8.13.1c-.68.01-1.23.57-1.23 1.25v3.56c0 .6-.48 1.1-1.09 1.12l-4.34.12q-.57.02-.57.59v3.67q0 .64-.65.65l-3.72.02q-.63 0-.63-.63v-3.62q0-.46-.45-.58a9.3 9.3 0 0 0-5.59.32l-.46-.54-3.71-.05q-.65 0-.67-.66l-.16-4.75-.71-.54-3.54.09q-.73.02-.73-.71l-.02-3.84-.5-.5-4.68-.1q-.67 0-.7-.68l-.12-3.72-.25-.5-3.92-.09q-.65 0-.67-.67l-.12-4.95-.75-.33-3.64-.02q-.6 0-.6-.61l-.02-3.68q0-.65-.65-.65h-4.81q-.5 0-.5-.49l-.07-4.01-.25-.5-3.84-.06q-.64 0-.67-.65l-.24-4.8-.71-.53-3.58-.01q-.67 0-.67-.67v-3.53q0-.67.67-.68l3.83-.11.5-.5.09-4.68q0-.67.69-.69l3.72-.05.46-.54.11-3.71q0-.64.67-.66l5-.09.3-.8c-.25-4.01-.42-4.23 3.78-4.27a1.2 1.2 0 0 0 1.18-1.19v-4.04q0-.6.59-.61l3.87-.13.5-.5.11-3.71q0-.64.67-.66l5.01-.09.3-.79c-.26-4.02-.42-4.24 3.77-4.28.65 0 1.18-.54 1.18-1.19v-4.04q0-.6.59-.6l3.91-.1.46-.54.11-3.71q0-.64.67-.66l5.01-.09.29-.79a6.3 6.3 0 0 1 .25-3.77.7.7 0 0 1 .71-.48h3.28q.7 0 .7-.7l-.02-4.8-.46-.54-3.73-.05q-.67 0-.68-.68l-.09-3.94-.5-.33h-4.83q-.67 0-.67-.67v-3.63q0-.64-.65-.65l-3.67-.02q-.57 0-.59-.57l-.13-4.92-.46-.54-3.73-.05q-.67 0-.68-.68l-.05-4.23q.3-2.57-.54-4.96l-4.67-.06q-.65 0-.67-.65l-.16-4.79-.29-.54-4.03-.06q-.6 0-.63-.62l-.09-3.82-.71-.54-3.77-.02q-.48 0-.48-.48v-3.2c0-.69-.56-1.25-1.24-1.25l-4.15-.02q-.6 0-.61-.6l-.04-4.89-.46-.54-3.81.07q-.64.01-.66-.64l-.07-3.39-.71-1.04h-3.58q-.67-.01-.67-.68v-3.53q0-.67.67-.68l3.83-.11.5-.5.07-4.63q0-.64.65-.67l3.74-.16.5-.75.19-3.53q.04-.64.68-.65l4.92-.03.29-.54a6.4 6.4 0 0 1 .2-3.86.8.8 0 0 1 .81-.57l8.66-.07.33-.5-.01-4.67q0-.65.64-.67l4.79-.16.33-.5.53-3.9q.1-.6.7-.6h8.94l.08-.75a9 9 0 0 1 .08-3.59q.14-.58.74-.59l4.85-.07.25-.25.03-4.54c0-.65.53-1.19 1.18-1.19l9.03-.07q.7 0 .74-.71l.16-3.45q.03-.73.77-.73l3.88-.02.29-.79c-.25-4.01-.42-4.25 3.77-4.28a1.2 1.2 0 0 0 1.19-1.2v-4.04c0-.4.33-.74.74-.74l9.76-.03.5-.5zM449.5 428q-.5 0-.5.5 0-.5.5-.5m-9.85 10q-.6 0-.61.6.02-.6.61-.6m89.85 6q-.5 0-.5.5 0-.5.5-.5m-10 10q-.5 0-.5.5 0-.5.5-.5m-6.02 11.03q-.3 0-.32.3.02-.3.32-.3m90.47 16.6q-.02-.6-.64-.62.62 0 .64.62m-4-.64q-.53 0-.7-.5.17.5.7.5m-204.53 5.25q.58.17.58.78 0-.6-.58-.78m26.6 37.16q.01.55.56.56-.55-.01-.56-.56m145.01 52.31q-.24-2.5.26-3.71-.5 1.22-.26 3.71m-161.56 33.47q.49.1.47.62.02-.51-.47-.62m113.02 22.22q.4.12.44.55-.04-.43-.44-.55M401.8 603.99q-.68 0-.71-.68.03.68.71.68M421.38 561h.03zm6.62-10.5q0-.5.5-.49-.5 0-.5.49m5-4.84q0-.65.65-.65-.65 0-.65.65m5.21-.67q.76 0 .78-.77 0 .77-.78.77m-15.52-27.03q-.69 0-.69-.7 0 .7.69.7m-15.87-21.01q-.81 0-.81-.81 0 .8.81.81m-5.07-4.95q-.75 0-.75-.75 0 .75.75.75m-11.06-11.05q-.69 0-.7-.7.01.7.7.7m4.68-4.95q.63 0 .63-.63 0 .63-.63.63M412 460.63q0-.63.63-.63-.63 0-.63.63m9.25-.63q.75 0 .75-.75 0 .75-.75.75m16.96-11q.76 0 .78-.77 0 .77-.78.77m37.14-4.99q.65 0 .65.66 0-.64-.65-.66m21.04 37.02q.6 0 .61.61 0-.6-.6-.61m.61 4.35q0 .62.63.62-.63 0-.63-.62m31.33-31.39q.63 0 .65-.63-.02.62-.65.63M598.25 481q.75 0 .75.75 0-.75-.75-.75m5.13 5q.63 0 .62.63 0-.63-.62-.63m.61 5.23q0 .7-.7.72.7 0 .7-.72m-32 25.98q0 .68-.69.7.69-.02.69-.7M540.63 540q-.63 0-.63.63 0-.63.63-.63m25.75 37q.62 0 .62.63 0-.63-.62-.63m10.98 16.05q.56.02.59.57-.03-.55-.59-.57m10.04 15.98q.6 0 .6.62 0-.6-.6-.62m.59 5.32q0 .65-.65.65.65 0 .65-.65m-9.32.65q-.65 0-.65.65 0-.65.65-.65m-33.05 21q-.62 0-.62.63 0-.63.62-.63m-15.99 11q-.62 0-.62-.62 0 .62.62.62m-5.64-15.34q0-.65-.65-.65.65 0 .65.65m-4.34-.67q-.64 0-.64-.65 0 .64.64.65m-11.01-11q-.63 0-.63-.65 0 .64.64.65m-4.99-5q-.64 0-.64-.65 0 .64.64.65m-27-21.99q-.6 0-.61.6 0-.6.61-.6m-27.71 26.2q-.02.8-.82.8.8 0 .82-.8m-36.28-4.34-.68-.81c.08.36.34.67.68.81" style="fill:#fff"/></svg>