<svg xmlns="http://www.w3.org/2000/svg" viewBox="0 0 3839 1168.2"><path d="M196.3 800.7h39.4v123.8h.8c18.5-30.2 49.9-43 85.7-43 56.7 0 97.7 31.8 97.7 94.9V1091h-39.4V978.4c0-45-26.9-69.6-64.8-69.6-37.4 0-80 22.9-80 86.9v95.3h-39.4zm409.3 297.9c-82.1 0-126.2-39.4-126.2-108.6 0-65.6 41.8-108.6 126.2-108.6 82.1 0 126.2 39.4 126.2 108.6s-44.1 108.6-126.2 108.6m-84.5-108.5c0 45.9 29.4 81.3 84.5 81.3s84.5-35.4 84.5-81.3-29.4-81.3-84.5-81.3-84.5 35.4-84.5 81.3M791.3 935c0-15.3-.8-29.8-1.6-45.9h37c.8 10.1 1.6 21.7 1.6 35.8h.8c22.9-31 51.9-43.4 84.9-43.4 33.8 0 61.9 16.5 73.6 50.7 14.5-27.8 45.9-50.7 83.3-50.7 57.5 0 92.9 28.2 92.9 93.7V1091h-39.4V990c0-49.1-14.1-81.3-57.1-81.3-34.6 0-70 23.7-70 90.1v92.1h-39.4V987.6c0-54.3-18.5-78.8-54.7-78.8-34.6 0-72.4 24.9-72.4 84.5v97.7h-39.4zm657.5 65.5h-189c4 41.4 30.6 70.8 74.8 70.8 28.6 0 58.7-12.1 67.6-41h41.8c-8 53.9-62.7 68.4-107.4 68.4-74 0-116.3-40.6-116.3-104.6 0-73.6 44.2-112.6 117.5-112.6 71.6 0 111 38.6 111 107zm-41.9-27.3c-.8-46.7-35.4-64.4-70-64.4-40.6 0-69.6 19.7-75.6 64.4zm455.6 52.7c-4 51.1-56.3 72.8-107.8 72.8-75.2 0-115-43-115-108.2 0-68 45.9-109 118.7-109 48.7 0 95.7 19.3 102.6 72h-41.8c-3.6-29.4-27.4-44.6-60.4-44.6-42.6 0-77.2 27.8-77.2 81.7 0 43 25.3 80.9 75.2 80.9 37 0 61.9-17.3 64-45.5zm171.2 72.7c-82.1 0-126.2-39.4-126.2-108.6 0-65.6 41.8-108.6 126.2-108.6 82.1 0 126.2 39.4 126.2 108.6s-44.1 108.6-126.2 108.6m-84.4-108.5c0 45.9 29.4 81.3 84.5 81.3s84.5-35.4 84.5-81.3-29.4-81.3-84.5-81.3-84.5 35.4-84.5 81.3m270.2-55.1c0-15.3-.8-29.8-1.6-45.9h37c.8 10.1 1.6 21.7 1.6 35.8h.8c22.9-31 51.9-43.4 84.9-43.4 33.8 0 61.9 16.5 73.6 50.7 14.5-27.8 45.9-50.7 83.3-50.7 57.5 0 92.9 28.2 92.9 93.7V1091h-39.4V990c0-49.1-14.1-81.3-57.1-81.3-34.6 0-70 23.7-70 90.1v92.1H2386V987.6c0-54.3-18.5-78.8-54.7-78.8-34.6 0-72.4 24.9-72.4 84.5v97.7h-39.4zm443.9 0c0-15.3-.8-29.8-1.6-45.9h39.4c.8 7.6 1.6 16.9 1.6 28.6 20.5-23.3 52.7-36.2 88.5-36.2 60.3 0 112.6 43 112.6 108.6s-52.3 108.6-112.6 108.6c-32.2 0-63.6-7.6-88.5-34.2v103.8h-39.4zm118.9 136.2c47.1 0 79.6-30.2 79.6-81.3s-32.6-81.3-79.6-81.3c-46.7 0-79.6 30.2-79.6 81.3.1 51.2 33 81.3 79.6 81.3m404.6-26c0 15.3.8 29.8 1.6 45.9h-37c-.8-10.1-1.6-21.7-1.6-35.8h-.8c-22.9 31-51.9 43.4-88.1 43.4-56.7 0-97.8-31.8-97.8-94.9V889.1h39.4v112.6c0 45 26.9 69.6 64.8 69.6 37.4 0 80.1-22.9 80.1-86.9v-95.3h39.4zm101.2-193.1 39.4-16.5v53.5h59.5v27.4h-59.5v116.2c0 21.7 6 33.4 30.6 33.4 7.2 0 18.9-.8 30.2-2.4v27.4c-12.9 1.6-25.7 2.4-37.8 2.4-39.8 0-62.4-12.9-62.4-57.9V916.5h-52.7v-27.4h52.7zm362.4 148.4h-189c4 41.4 30.6 70.8 74.8 70.8 28.6 0 58.7-12.1 67.6-41h41.8c-8 53.9-62.7 68.4-107.4 68.4-74 0-116.3-40.6-116.3-104.6 0-73.6 44.2-112.6 117.5-112.6 71.6 0 111 38.6 111 107zm-41.9-27.3c-.8-46.7-35.4-64.4-70-64.4-40.6 0-69.6 19.7-75.6 64.4zm98.6-38.2c0-15.3-.8-29.8-1.6-45.9h37c.8 12.1 1.6 26.6 1.6 40.2h.8c18.1-32.6 35.8-43 80.8-43h13.3v35.4c-6-2-11.7-2.4-18.9-2.4-47.5 0-73.6 33.4-73.6 74v97.7h-39.4zM628.7 6.1h198.9v688.6H628.7zm-37.3 0H0v183h196.3v505.6h198.9V189.1h196.2zm1405-6.1c-155 0-280.6 86.5-280.6 243.2 0 173.5 128 235.9 249.5 235.9 37.9 0 91.9-20 127.4-47.5 17.2 167.1-171.1 176.4-189.1 77.6h-173.5c28.9 155.6 164.9 198.6 271.2 198.3 141-.4 275.6-112.7 275.6-385 0-226-125.5-322.5-280.5-322.5m-6.7 343.3c-58.4 0-105.8-47.3-105.8-105.8s47.3-105.8 105.8-105.8 105.8 47.4 105.8 105.8c0 58.5-47.4 105.8-105.8 105.8M1383.8 0c-155 0-280.6 86.5-280.6 243.2 0 173.5 128 235.9 249.5 235.9 37.9 0 91.9-20 127.4-47.5C1497.3 598.7 1309 608 1291 509.2h-173.6c28.9 155.6 164.9 198.6 271.2 198.3 141-.4 275.6-112.7 275.6-385 0-226-125.5-322.5-280.4-322.5m-6.8 343.3c-58.4 0-105.8-47.3-105.8-105.8s47.3-105.8 105.8-105.8 105.8 47.4 105.8 105.8c.1 58.5-47.3 105.8-105.8 105.8m-490.7-79.7h158.2v130.3H886.3zm2164.9 443.8h-199.4a18.2 18.2 0 0 1-18.2-18.2V554.6h-278.2a18.2 18.2 0 0 1-18.2-18.2V385.7c0-4.4 1.6-8.6 4.5-11.9l319-367.5c3.5-4 8.5-6.3 13.8-6.3h176.8c10.1 0 18.2 8.2 18.2 18.2V376h50.1c10.1 0 18.2 8.2 18.2 18.2v142.1c0 10.1-8.2 18.2-18.2 18.2h-50.1v134.6c-.1 10.1-8.3 18.3-18.3 18.3M2869.9 671h163V536.4c0-10.1 8.2-18.2 18.2-18.2h50.1V412.5h-50.1a18.2 18.2 0 0 1-18.2-18.2V36.4h-150.3l-309.1 356.1v125.6h278.2c10.1 0 18.2 8.2 18.2 18.2z" class="st0" style="fill:#fff"/><path d="M2851.7 412.5H2664c-7.1 0-13.6-4.2-16.6-10.7s-1.9-14.1 2.8-19.5L2838 166.1c5-5.7 13-7.8 20.1-5.1a18.3 18.3 0 0 1 11.8 17.1v216.2c0 10-8.1 18.2-18.2 18.2M2704 376.1h129.5V226.9zm1116.8 331.3h-138.1c-7.8 0-14.7-5-17.2-12.3l-48.2-140.5h-214.6l-48.1 140.5c-2.5 7.4-9.4 12.3-17.2 12.3H3199c-5.9 0-11.4-2.8-14.8-7.6a18.3 18.3 0 0 1-2.4-16.5l230-671c2.5-7.4 9.4-12.3 17.2-12.3h161.9c7.8 0 14.7 5 17.2 12.3l229.9 671c1.9 5.6 1 11.7-2.4 16.5s-8.9 7.6-14.8 7.6M3695.7 671h99.6L3577.9 36.4H3442L3224.5 671h99.7l48.1-140.5c2.5-7.4 9.4-12.3 17.2-12.3h240.7c7.8 0 14.7 5 17.2 12.3zm-103.9-228.5H3428c-5.9 0-11.4-2.8-14.8-7.6a18.3 18.3 0 0 1-2.4-16.5l82-239.1c2.5-7.4 9.5-12.3 17.2-12.3 7.8 0 14.7 5 17.2 12.3l81.9 239.1c1.9 5.6 1 11.7-2.4 16.5-3.5 4.8-9 7.6-14.9 7.6m-138.3-36.4h112.8l-56.4-164.6zM2553.4 36.4l-312.9 671h52l312.8-671z" class="st0" style="fill:#fff"/></svg>