<?xml version="1.0" encoding="UTF-8" standalone="no"?><svg viewBox="0 6 264 39" version="1.1" id="svg1" xmlns="http://www.w3.org/2000/svg" xmlns:svg="http://www.w3.org/2000/svg"><path fill="currentColor" d="M7.77 45.07v-31.2h15.52v31.2ZM0 13.87v-7.8h31.06v7.8Zm46.59 31.2v-7.8h31.06v7.8Zm7.76-7.8v-23.4h15.53v23.4Zm-7.76-23.4v-7.8h31.06v7.8Zm46.59 31.2v-7.8h23.29v7.8Zm23.29-7.8v-7.8h7.76v7.8Zm-31.06 0v-23.4h15.53v23.4Zm31.06-15.6v-7.8h7.76v7.8Zm-23.3-7.8v-7.8h23.3v7.8Zm46.59 7.8h23.3v7.8h-23.3Zm46.59 23.4v-7.8h23.3v7.8Zm23.3-7.8v-7.8h7.76v7.8Zm-31.06 0v-7.8h15.53v7.8Zm7.76-7.8v-7.8h23.3v7.8Zm23.3-7.8v-7.8h7.76v7.8Zm-31.06 0v-7.8h15.53v7.8Zm7.76-7.8v-7.8h23.3v7.8Zm46.59 31.2v-7.8h23.3v7.8Zm23.3-7.8v-15.6h-7.77v-7.8H264v23.4Zm-31.06 0v-23.4h15.53v23.4Zm15.53-7.8v-7.8h7.76v7.8Zm-7.77-15.6v-7.8h23.3v7.8Z" id="path1" style="fill:#ffffff"/></svg>