<svg xmlns="http://www.w3.org/2000/svg" viewBox="0 0 200 40"><path d="M65.64 22.24v-2.63l-2.38-.87q-.3-1.2-.9-2.26h.02l1.14-2.36-1.86-1.86-2.36 1.13a9 9 0 0 0-2.26-.88l-.88-2.41h-2.63l-.87 2.4q-1.22.3-2.26.92v-.02l-2.37-1.13-1.87 1.85 1.13 2.36c-.4.7-.82 1.46-1.02 2.26l-2.56.87v2.63l2.56.88c.2.8.57 1.55.98 2.25h.02l-1.12 2.37 1.87 1.85 2.37-1.12c.7.4 1.46.8 2.26 1l.88 2.53h2.63l.88-2.53c.8-.2 1.56-.56 2.26-.97v-.01l2.37 1.11 1.86-1.86-1.13-2.36c.41-.7.65-1.46.86-2.27zm-10.8 3.06a4.38 4.38 0 1 1 0-8.76 4.38 4.38 0 0 1 0 8.76M74.05 6.37l-.57-1.39-1.5.08q-.41-.57-.98-.99l.08-1.5L69.7 2l-1 1.11a5 5 0 0 0-1.4 0L66.3 2l-1.39.57.08 1.5q-.57.43-.99.99l-1.5-.08-.57 1.38 1.11 1a6 6 0 0 0 0 1.4L61.9 9.78l.58 1.39 1.5-.09q.44.57 1 .99l-.08 1.5 1.52.57 1.14-1.11c.3.05.8.06 1.26 0l.94 1.1 1.36-.56-.1-1.5q.57-.43.98-.99l1.5.08.57-1.39-1.11-1q.09-.69-.01-1.4zm-5.1 4a2.5 2.5 0 1 1-1.91-4.63 2.5 2.5 0 0 1 1.91 4.64" style="fill:#fff"/><path d="m89.7 10.45-.87 4.79h-4.15l-2.44 13.91h-5.72l2.44-13.91h-4.12l.87-4.8zm6.6 6.25-1.4 7.78h2.38q1.18 0 1.75-.28t.75-1.3l1.39-7.78h-2.41q-1.15 0-1.72.28t-.75 1.3m3.45-6.7q3.82 0 5.45 1.49 1.62 1.47 1.62 4.56 0 3.07-.98 6.45a10.7 10.7 0 0 1-3.1 5.22q-2.12 1.88-6.2 1.88-4.06 0-5.7-1.48-1.62-1.48-1.62-4.57 0-1.45.42-3.87.42-2.4 1.11-4.15a10 10 0 0 1 1.87-3.05Q94.87 10 99.75 10m15.5 6.7-1.39 7.78h2.38q1.18 0 1.75-.28t.75-1.3l1.38-7.78h-2.4q-1.15 0-1.72.28t-.75 1.3m3.46-6.7q3.82 0 5.45 1.49 1.62 1.47 1.62 4.56 0 3.07-.98 6.45a10.7 10.7 0 0 1-3.1 5.22q-2.12 1.88-6.2 1.88t-5.7-1.48-1.62-4.57q0-1.45.42-3.87.42-2.4 1.11-4.15a10 10 0 0 1 1.87-3.05Q113.83 10 118.7 10m20.28 14.36-.84 4.8H126.7l3.31-18.71h5.72l-2.47 13.91zm0 4.46 1.68-4.93q2.53.68 4.64.68t3.4-.18l.24-1.5-2.5-.23q-2.86-.27-4.05-1.29a3.6 3.6 0 0 1-1.19-2.87q0-.81.19-1.8.7-3.82 2.5-5.26 1.83-1.44 5.65-1.44t6.74.75l-1.56 4.79a26 26 0 0 0-4.22-.45q-1.59 0-2.7.15l-.25 1.46 2.02.21q3.07.32 4.36 1.46 1.3 1.11 1.3 3 0 1.92-.84 3.95a9 9 0 0 1-.93 1.76 4 4 0 0 1-1.26 1.18q-.76.5-1.4.75-.63.26-1.6.38-1.4.21-3.45.21-3.74 0-6.77-.78" style="fill:#fff;white-space:pre"/></svg>