<svg xmlns="http://www.w3.org/2000/svg" xml:space="preserve" id="Layer_1" x="0" y="0" viewBox="0 0 3840 1650.9"><style id="style2" type="text/css">.st0{fill:#887ec9}</style><g id="g148" style="fill:#fff;fill-opacity:1" transform="translate(2.43 -72.83)"><path id="rect4" d="M3414.2 699.1h124v437.2h-124z" class="st0" style="fill:#fff;fill-opacity:1;stroke-width:1.25" transform="matrix(.8 0 0 .8 410.3 288.9)"/><path id="rect6" d="M1323.5 699.1h124v437.2h-124z" class="st0" style="fill:#fff;fill-opacity:1;stroke-width:1.25" transform="matrix(.8 0 0 .8 410.3 288.9)"/><path id="rect8" d="M1110.1 699.1h124v437.2h-124z" class="st0" style="fill:#fff;fill-opacity:1;stroke-width:1.25" transform="matrix(.8 0 0 .8 410.3 288.9)"/><path id="rect10" d="M189.7 699.1h124v437.2h-124z" class="st0" style="fill:#fff;fill-opacity:1;stroke-width:1.25" transform="matrix(.8 0 0 .8 410.3 288.9)"/><path id="rect12" d="M3578.1 535.3h98.1v425.8h-98.1z" class="st0" style="fill:#fff;fill-opacity:1;stroke-width:1.25" transform="rotate(90 2962.4 948.11)scale(.8)"/><path id="rect14" d="M3534.3 748.6h98.1v338.1h-98.1z" class="st0" style="fill:#fff;fill-opacity:1;stroke-width:1.25" transform="matrix(0 .8 -.8 0 4011.1 -1843.57)"/><path id="rect16" d="M3578.1 874.4h98.1v425.8h-98.1z" class="st0" style="fill:#fff;fill-opacity:1;stroke-width:1.25" transform="rotate(90 2962.4 1219.43)scale(.8)"/><path id="rect18" d="M1475.3 547.4h98.1V949h-98.1z" class="st0" style="fill:#fff;fill-opacity:1;stroke-width:1.25" transform="rotate(90 1280.16 948.11)scale(.8)"/><path id="rect20" d="M1455.9 736.3h98.1v362.9h-98.1z" class="st0" style="fill:#fff;fill-opacity:1;stroke-width:1.25" transform="matrix(0 .8 -.8 0 2348.45 -180.91)"/><path id="path22" d="M1855.2 699.1c-50.4 0-91.2 40.8-91.2 91.2v254.8c0 50.4 40.8 91.2 91.2 91.2h335.3c50.4 0 91.2-40.8 91.2-91.2V790.3c0-50.4-40.8-91.2-91.2-91.2zm302.5 339.1H1888v-241h269.7z" class="st0" style="fill:#fff;fill-opacity:1;stroke-width:1.25" transform="matrix(.8 0 0 .8 410.3 288.9)"/><path id="path24" d="M2864.9 790.3v254.8c0 50.4 40.8 91.2 91.2 91.2h321c50.4 0 91.2-40.8 91.2-91.2v-78.3H3237v71.5h-248.1V797.2H3237v71.5h131.3v-78.3c0-50.4-40.8-91.2-91.2-91.2h-321c-50.4-.1-91.2 40.7-91.2 91.1" class="st0" style="fill:#fff;fill-opacity:1;stroke-width:1.25" transform="matrix(.8 0 0 .8 410.3 288.9)"/><path id="rect26" d="M202.7 496.4h98.1v503.4h-98.1z" class="st0" style="fill:#fff;fill-opacity:1;stroke-width:1.25" transform="rotate(90 262.06 948.11)scale(.8)"/><path id="path28" d="M1182.5 1252.4c0 10.7-8.6 19.3-19.4 19.3a19.35 19.35 0 1 1 0-38.7c10.7 0 19.4 8.6 19.4 19.4" class="st0" style="fill:#fff;fill-opacity:1;stroke-width:1.25" transform="matrix(.8 0 0 .8 410.3 288.9)"/><path id="path30" d="M2208.2 1252.4c0 10.7-8.7 19.3-19.4 19.3a19.35 19.35 0 1 1 0-38.7c10.7 0 19.4 8.6 19.4 19.4" class="st0" style="fill:#fff;fill-opacity:1;stroke-width:1.25" transform="matrix(.8 0 0 .8 410.3 288.9)"/><path id="rect32" d="M103.6 1193.9h40.6v23.4h-40.6z" class="st0" style="fill:#fff;fill-opacity:1;stroke-width:1.25" transform="matrix(.8 0 0 .8 410.3 288.9)"/><path id="path34" d="M303.7 1222v88.8h30v-93.5h64.1v93.5h30V1222c0-15.5-12.6-28.1-28.1-28.1h-67.9c-15.5 0-28.1 12.6-28.1 28.1" class="st0" style="fill:#fff;fill-opacity:1;stroke-width:1.25" transform="matrix(.8 0 0 .8 410.3 288.9)"/><path id="rect36" d="M303.7 1240.6h124v23.4h-124z" class="st0" style="fill:#fff;fill-opacity:1;stroke-width:1.25" transform="matrix(.8 0 0 .8 410.3 288.9)"/><g id="g42" style="fill:#fff;fill-opacity:1;stroke-width:1.25" transform="matrix(.8 0 0 .8 410.3 288.9)"><path id="path38" d="M1938 1222v88.8h30v-93.5h64.1v93.5h30V1222c0-15.5-12.6-28.1-28.1-28.1h-67.9c-15.5 0-28.1 12.6-28.1 28.1" class="st0" style="fill:#fff;fill-opacity:1;stroke-width:1.25"/><path id="rect40" d="M1938 1240.6h124v23.4h-124z" class="st0" style="fill:#fff;fill-opacity:1;stroke-width:1.25"/></g><g id="g48" style="fill:#fff;fill-opacity:1;stroke-width:1.25" transform="matrix(.8 0 0 .8 410.3 288.9)"><path id="rect44" d="M498.9 1193.9h30v116.9h-30z" class="st0" style="fill:#fff;fill-opacity:1;stroke-width:1.25"/><path id="rect46" d="M622.9 1193.9h30v116.9h-30z" class="st0" style="fill:#fff;fill-opacity:1;stroke-width:1.25"/></g><path id="path50" d="M836.6 1217.3v-23.4h-96c-15.5 0-28.1 12.6-28.1 28.1v60.7c0 15.5 12.6 28.1 28.1 28.1h96v-23.4h-94.1v-70.1z" class="st0" style="fill:#fff;fill-opacity:1;stroke-width:1.25" transform="matrix(.8 0 0 .8 410.3 288.9)"/><path id="path52" d="M903.9 1222v60.7c0 15.5 12.6 28.1 28.1 28.1h67.9c15.5 0 28.1-12.6 28.1-28.1V1222c0-15.5-12.6-28.1-28.1-28.1H932c-15.6 0-28.1 12.6-28.1 28.1m94 65.4h-64.1v-70.1h64.1z" class="st0" style="fill:#fff;fill-opacity:1;stroke-width:1.25" transform="matrix(.8 0 0 .8 410.3 288.9)"/><g id="g58" style="fill:#fff;fill-opacity:1;stroke-width:1.25" transform="matrix(.8 0 0 .8 410.3 288.9)"><path id="rect54" d="M1533.3 1240.6h94.1v23.4h-94.1z" class="st0" style="fill:#fff;fill-opacity:1;stroke-width:1.25"/><path id="path56" d="M1652.4 1217.3v-23.4h-96c-15.5 0-28.1 12.6-28.1 28.1v60.7c0 15.5 12.6 28.1 28.1 28.1h96v-23.4h-94.1v-70.1z" class="st0" style="fill:#fff;fill-opacity:1;stroke-width:1.25"/></g><g id="g64" style="fill:#fff;fill-opacity:1;stroke-width:1.25" transform="matrix(.8 0 0 .8 410.3 288.9)"><path id="rect60" d="M1786.5 1240.6h70.7v23.4h-70.7z" class="st0" style="fill:#fff;fill-opacity:1;stroke-width:1.25"/><path id="path62" d="M1763.2 1217.3h94.1v-23.4h-96c-15.5 0-28.1 12.6-28.1 28.1v60.7c0 15.5 12.6 28.1 28.1 28.1h67.9c15.5 0 28.1-12.6 28.1-28.1v-42.1h-30v46.8h-64.1z" class="st0" style="fill:#fff;fill-opacity:1;stroke-width:1.25"/></g><g id="g72" style="fill:#fff;fill-opacity:1;stroke-width:1.25" transform="matrix(.8 0 0 .8 410.3 288.9)"><path id="rect66" d="M103.6 1193.9h30v116.9h-30z" class="st0" style="fill:#fff;fill-opacity:1;stroke-width:1.25"/><path id="rect68" d="M197.7 1193.9h30v116.9h-30z" class="st0" style="fill:#fff;fill-opacity:1;stroke-width:1.25"/><path id="polygon70" d="m224.3 1308-79.9-114.1h-5.2l-15.7 11 74.2 105.9h22.6z" class="st0" style="fill:#fff;fill-opacity:1;stroke-width:1.25"/></g><path id="path74" d="M3612.7 1222v60.7c0 15.5 12.6 28.1 28.1 28.1h67.9c15.5 0 28.1-12.6 28.1-28.1V1222c0-15.5-12.6-28.1-28.1-28.1h-67.9c-15.5 0-28.1 12.6-28.1 28.1m94.1 65.4h-64.1v-70.1h64.1z" class="st0" style="fill:#fff;fill-opacity:1;stroke-width:1.25" transform="matrix(.8 0 0 .8 410.3 288.9)"/><path id="path76" d="M3414.2 1193.9v116.9h96c15.5 0 28.1-12.6 28.1-28.1V1222c0-15.5-12.6-28.1-28.1-28.1zm94.1 93.5h-64.1v-70.1h64.1z" class="st0" style="fill:#fff;fill-opacity:1;stroke-width:1.25" transform="matrix(.8 0 0 .8 410.3 288.9)"/><g id="g82" style="fill:#fff;fill-opacity:1;stroke-width:1.25" transform="matrix(.8 0 0 .8 410.3 288.9)"><path id="rect78" d="M3041 1240.6h94.1v23.4H3041z" class="st0" style="fill:#fff;fill-opacity:1;stroke-width:1.25"/><path id="path80" d="M3165 1217.3v-23.4h-96c-15.5 0-28.1 12.6-28.1 28.1v60.7c0 15.5 12.6 28.1 28.1 28.1h96v-23.4h-94v-70.1z" class="st0" style="fill:#fff;fill-opacity:1;stroke-width:1.25"/></g><g id="g94" style="fill:#fff;fill-opacity:1;stroke-width:1.25" transform="matrix(.8 0 0 .8 410.3 288.9)"><path id="rect84" d="M2333.6 1193.9h40.6v23.4h-40.6z" class="st0" style="fill:#fff;fill-opacity:1;stroke-width:1.25"/><g id="g92" style="fill:#fff;fill-opacity:1;stroke-width:1.25"><path id="rect86" d="M2333.6 1193.9h30v116.9h-30z" class="st0" style="fill:#fff;fill-opacity:1;stroke-width:1.25"/><path id="rect88" d="M2427.7 1193.9h30v116.9h-30z" class="st0" style="fill:#fff;fill-opacity:1;stroke-width:1.25"/><path id="polygon90" d="M2374.4 1193.9h-5.2l-15.7 11 74.2 105.9h22.6l4-2.8z" class="st0" style="fill:#fff;fill-opacity:1;stroke-width:1.25"/></g></g><g id="g100" style="fill:#fff;fill-opacity:1;stroke-width:1.25" transform="matrix(.8 0 0 .8 410.3 288.9)"><g id="g98" style="fill:#fff;fill-opacity:1;stroke-width:1.25"><path id="rect96" d="M2539.4 1193.9h30v116.9h-30z" class="st0" style="fill:#fff;fill-opacity:1;stroke-width:1.25"/></g></g><g id="g106" style="fill:#fff;fill-opacity:1;stroke-width:1.25" transform="matrix(.8 0 0 .8 410.3 288.9)"><g id="g104" style="fill:#fff;fill-opacity:1;stroke-width:1.25"><path id="rect102" d="M2891.9 1193.9h30v116.9h-30z" class="st0" style="fill:#fff;fill-opacity:1;stroke-width:1.25"/></g></g><g id="g118" style="fill:#fff;fill-opacity:1;stroke-width:1.25" transform="matrix(.8 0 0 .8 410.3 288.9)"><path id="rect108" d="M3215.8 1193.9h40.6v23.4h-40.6z" class="st0" style="fill:#fff;fill-opacity:1;stroke-width:1.25"/><g id="g116" style="fill:#fff;fill-opacity:1;stroke-width:1.25"><path id="rect110" d="M3215.8 1193.9h30v116.9h-30z" class="st0" style="fill:#fff;fill-opacity:1;stroke-width:1.25"/><path id="rect112" d="M3309.8 1193.9h30v116.9h-30z" class="st0" style="fill:#fff;fill-opacity:1;stroke-width:1.25"/><path id="polygon114" d="M3256.5 1193.9h-5.2l-15.7 11 74.2 105.9h22.6l4-2.8z" class="st0" style="fill:#fff;fill-opacity:1;stroke-width:1.25"/></g></g><g id="g130" style="fill:#fff;fill-opacity:1;stroke-width:1.25" transform="matrix(.8 0 0 .8 410.3 288.9)"><path id="rect120" d="M2653.7 1193.9h40.6v23.4h-40.6z" class="st0" style="fill:#fff;fill-opacity:1;stroke-width:1.25"/><g id="g128" style="fill:#fff;fill-opacity:1;stroke-width:1.25"><path id="rect122" d="M2653.7 1193.9h30v116.9h-30z" class="st0" style="fill:#fff;fill-opacity:1;stroke-width:1.25"/><path id="rect124" d="M2747.7 1193.9h30v116.9h-30z" class="st0" style="fill:#fff;fill-opacity:1;stroke-width:1.25"/><path id="polygon126" d="M2694.4 1193.9h-5.2l-15.7 11 74.2 105.9h22.6l4-2.8z" class="st0" style="fill:#fff;fill-opacity:1;stroke-width:1.25"/></g></g><path id="polygon132" d="M561.6 1310.8h28.6l40.3-116.9h-24.8l-29.8 86.7-29.9-86.7h-24.7z" class="st0" style="fill:#fff;fill-opacity:1;stroke-width:1.25" transform="matrix(.8 0 0 .8 410.3 288.9)"/><path id="rect134" d="M2844.9 1193.9h124v23.4h-124z" class="st0" style="fill:#fff;fill-opacity:1;stroke-width:1.25" transform="matrix(.8 0 0 .8 410.3 288.9)"/><g id="g140" style="fill:#fff;fill-opacity:1;stroke-width:1.25" transform="matrix(.8 0 0 .8 410.3 288.9)"><path id="polygon136" d="M2308.6 651.2 1938 0l-370.6 651.2h104.7L1938 184l265.9 467.2z" class="st0" style="fill:#fff;fill-opacity:1;stroke-width:1.25"/><path id="polygon138" d="M1269.6 1358.6h-104.7l-166.3 292.3h1878.8l-166.3-292.3h-104.7l114.5 201.3H1155.1z" class="st0" style="fill:#fff;fill-opacity:1;stroke-width:1.25"/></g><path id="path142" d="M1447.6 1217.3v-23.4h-96c-15.5 0-28.1 12.6-28.1 28.1v14c0 15.5 12.6 28.1 28.1 28.1h66v23.4h-94.1v23.4h96c15.5 0 28.1-12.6 28.1-28.1v-14c0-15.5-12.6-28.1-28.1-28.1h-66v-23.4z" class="st0" style="fill:#fff;fill-opacity:1;stroke-width:1.25" transform="matrix(.8 0 0 .8 410.3 288.9)"/><path id="path144" d="M732.8 881.4v85.9l202 169.1h152.8l-187.4-157h36.5c50.4 0 91.2-40.8 91.2-91.2v-97.9c0-50.4-40.8-91.2-91.2-91.2h-389v437.2h124V797.2h231.6v84.2z" class="st0" style="fill:#fff;fill-opacity:1;stroke-width:1.25" transform="matrix(.8 0 0 .8 410.3 288.9)"/><path id="path146" d="M2518.7 881.4v85.9l202 169.1h152.8l-187.4-156.9h36.5c50.4 0 91.2-40.8 91.2-91.2v-97.9c0-50.4-40.8-91.2-91.2-91.2h-388.9v437.2h124V797.2h231.6v84.2z" class="st0" style="fill:#fff;fill-opacity:1;stroke-width:1.25" transform="matrix(.8 0 0 .8 410.3 288.9)"/></g></svg>