<svg xmlns="http://www.w3.org/2000/svg" viewBox="0 0 3840 1163"><path d="M1187.4 113.9H1343v390.6h-155.6zm822.5 56.6v125.1c0 29.4-23.8 53.2-53.2 53.2h-43v155.6h81.3c94.2 0 170.5-76.4 170.5-170.5v-125c0-29.4 23.8-53.2 53.2-53.2h43V0h-81.3c-94.2 0-170.5 76.4-170.5 170.5m421.4-56.6V0h-155.6v504.5h155.6V258.2a20.9 20.9 0 1 1 41.8 0v246.3h155.6V225.4c0-61.6-49.9-111.5-111.5-111.5zM3840 504.5l-85.9-225.4 75.9-116h-164.3L3596.3 269V0h-123.4v504.5h123.4V398.3c0-19.7 27.3-24.7 34.3-6.3l42.9 112.5zM1003.6 0v113.9h-58.3c-107.9 0-195.3 87.4-195.3 195.3s87.4 195.3 195.3 195.3h200.3V0zm-55.8 428.9a62.3 62.3 0 0 1 0-124.6 62.3 62.3 0 0 1 0 124.6m-331.7-315H410.2v123.4h123.9a16.09 16.09 0 1 1 0 32.2H488c-64 0-118.1 50.2-119.9 114.2-1.8 66.4 51.5 120.8 117.4 120.8h242.1V225.4c0-61.6-49.9-111.5-111.5-111.5m-83.8 315a62.3 62.3 0 0 1 0-124.6 62.3 62.3 0 0 1 0 124.6m2367.1-315h-205.9v123.4h123.9a16.09 16.09 0 1 1 0 32.2h-46.2c-64 0-118.1 50.2-119.9 114.2-1.8 66.4 51.5 120.8 117.4 120.8h242.1V225.4c.1-61.6-49.8-111.5-111.4-111.5m-83.8 315a62.3 62.3 0 0 1 0-124.6 62.3 62.3 0 0 1 0 124.6" class="st0" style="fill:#fff"/><path d="M279.4 290.4c57.9-20.6 99.3-75.9 99.3-140.9C378.7 66.9 311.8 0 229.2 0H0v504.5h142v-97.3c0-17.9 24.4-23.4 32-7.1l49 104.4h157zm-113.3 36.8a62.3 62.3 0 0 1 0-124.6 62.3 62.3 0 0 1 0 124.6M1577.9 98.7c-116.3 0-210.6 94.3-210.6 210.6s94.3 210.6 210.6 210.6 210.6-94.3 210.6-210.6-94.3-210.6-210.6-210.6m0 330.2a62.3 62.3 0 0 1 0-124.6 62.3 62.3 0 0 1 0 124.6M3302.1 389c-9 23.3-31.6 39.9-58.1 39.9a62.3 62.3 0 0 1 0-124.6c26.5 0 49.1 16.6 58.1 39.9h149.5c1.9-11.4 3-23.1 3-35 0-116.3-94.3-210.6-210.6-210.6s-210.6 94.3-210.6 210.6 94.3 210.6 210.6 210.6c88 0 163.4-54.1 194.9-130.8zM394.5 770.8v384.4H229.7V770.8H0V639.3h624.2v131.5zm934.4 143c-17 29.4-47.2 36.4-78.9 41.8 78.1 5.4 90.5 43.3 90.5 115.3v84.3h-154.7c0-30.9 1.6-63.4-4.6-93.6-7-34-30.9-37.1-61.9-37.1H860.9v130.7h-157V639.3h379.8c27.8 0 56.5.8 84.3.8 58.8.8 124.5-5.4 159.3 52.6 20.1 33.3 18.6 79.7 18.6 116.8 0 34 .8 74.2-17 104.3m-205-145.4h-263v126.9h221.2c11.6 0 23.2-.8 34.8-.8 56.5-1.5 71.9-3.1 71.9-65 .1-52.6-13.1-61.1-64.9-61.1m895 353.5c-37.1 40.2-118.3 38.7-168.6 39.4-40.2 1.6-80.4 1.6-120.7 1.6-67.3 0-148.5 2.3-214.2-12.4-24.8-5.4-46.4-15.5-64.2-33.3-26.3-25.5-29.4-58.8-29.4-93.6 0-13.2.8-26.3 1.6-39.5H1575c0 11.6 0 22.4 3.9 33.3 2.3 7 5.4 11.6 11.6 16.2 14.7 11.6 58.8 10.1 75.8 10.1 22.4 0 44.1.8 66.5.8 27.8 0 54.9-.8 82.8-.8 19.3 0 68.1 2.3 81.2-16.2 5.4-8.5 5.4-20.1 5.4-29.4 0-39.4-30.9-37.9-62.6-38.7-82.8-2.3-165.5-7-248.3-10.1-44.9-1.5-102.1-3.1-134.6-39.4-27.1-30.2-29.4-73.5-29.4-112.2 0-92 24-150 123-160.1 66.5-7 135.4-6.2 202.6-6.2 65 0 133.8-1.5 197.2 13.9 70.4 17.8 85.1 64.2 85.1 131.5v24.8h-152.4V794c0-14.7-1.6-25.5-14.7-34-14.7-10.1-49.5-9.3-66.5-9.3h-133.8c-16.2 0-61.9-.8-75.8 9.3-10.1 7-12.4 19.3-12.4 30.9 0 9.3 2.3 21.7 10.1 27.8 5.4 4.6 13.2 6.2 20.1 7 17.8 3.1 36.3 3.1 54.1 3.9 34.8 1.6 69.6 3.1 104.4 3.9 59.6 1.6 144.6.8 202.7 16.2 18.6 5.4 34.8 13.2 49.5 26.3 31.7 27.8 33.3 81.2 33.3 119.9-.1 43.3-3.9 92.8-34.9 126m1039 7.7c-51 37.1-174 31.7-235.1 31.7h-70.4c-63.4 0-167.8 4.6-222-31.7-36.4-24.7-39.5-74.2-39.5-114.5 0-34 3.1-70.4 27.8-95.9 18.6-19.3 47.2-23.2 72.7-27.8-11.6-.8-24-1.5-35.6-4.6-51.8-13.9-58.8-65-58.8-111.4 0-75 22.4-119.1 100.5-131.5 64.2-10.1 131.5-10.8 196.5-10.8 35.6 0 71.2.8 106.7 2.3 45.6 2.3 110.6 3.9 149.3 30.2 35.6 24 41 72.7 41 112.1 0 30.2-3.9 65-24 88.2-18.6 21.7-43.3 24-70.4 25.5 27.8 4.6 51.8 7.7 72.7 27.8 27.1 25.5 27.8 70.4 27.8 105.2.3 38.7-5.1 81.3-39.2 105.2M2938 961.8c-11.6-11.6-54.1-10.8-68.8-10.8-27.8-.8-55.7-1.6-83.5-1.6-25.5 0-116-2.3-133 10.1-11.6 8.5-11.6 27.8-11.6 41 0 11.6.8 24.7 10.1 33.3 17.8 15.5 112.9 11.6 135.4 11.6 27.1 0 54.1-.8 81.2-1.5 19.3 0 65.7 2.3 75.8-20.1 3.9-8.5 3.9-20.1 3.9-29.4-.2-10.9-.9-24.9-9.5-32.6m-68.8-211.2c-30.9-.8-61.1-1.5-92-1.5-31.7 0-65-.8-96.7 3.9-26.3 3.9-33.3 17.8-33.3 43.3 0 27.1 9.3 36.3 35.6 39.4 54.9 5.4 113.7 3.1 168.6 3.1 17.8 0 69.6 0 82-12.4 7.7-7.7 7.7-22.4 7.7-32.5 0-44.8-36.3-42.5-71.9-43.3m855.5 401.5c-61.9 10.1-145.4 9.3-208.1 9.3-38.7 0-76.6-.8-115.3-1.5-85.1-1.6-184.1-4.6-202.6-107.5-8.5-48-6.2-106-6.2-154.7 0-30.9 0-61.1.8-92 .8-43.3 3.9-92.8 35.6-126.1 20.9-21.7 50.3-32.5 79.7-37.1 61.9-10.1 144.6-9.3 208.1-9.3 37.9 0 76.6 1.5 114.5 2.3 132.3 3.1 208.8 17 208.8 170.2v184.1c0 85.7-21.7 146.8-115.3 162.3m-75-375.2c-17.8-7.7-44.1-8.5-63.4-8.5-30.9 0-61.9-.8-93.6-.8s-66.5-.8-97.5 6.2c-9.3 2.3-18.6 5.4-25.5 13.2-20.9 21.7-19.3 82.8-19.3 110.6 0 25.5-1.6 85.9 16.2 106.7 7.7 9.3 17 13.2 28.6 16.2 33.3 7.7 88.2 7.7 123 7l68.1-1.5c19.3-.8 45.6-.8 63.4-9.3 38.7-17 33.3-85.1 33.3-119.1s5.4-102.9-33.3-120.7m-1487 126.6h205.2v136.8h-205.2z" class="st0" style="fill:#fff"/></svg>