<svg xmlns="http://www.w3.org/2000/svg" viewBox="0 0 475.72 258.6"><path d="M100.4 46.52h9.87q3.2 0 5.87-1.2 2.8-1.2 4.93-3.33 2.14-2.13 3.34-4.8 1.2-2.8 1.2-6t-1.2-6-3.34-4.8q-2.13-2.13-4.93-3.33-2.67-1.2-5.87-1.2h-54q-3.2 0-6 1.2t-4.93 3.33q-2 2-3.2 4.8t-1.2 6 1.2 6q1.2 2.67 3.2 4.8 2.13 2.13 4.93 3.33t6 1.2h10.14V98.8q0 3.6 1.33 6.67t3.6 5.46q2.27 2.27 5.33 3.6 3.2 1.34 6.67 1.34 3.6 0 6.67-1.34 3.06-1.33 5.33-3.6 2.4-2.4 3.73-5.46 1.34-3.07 1.34-6.67zm72.76-32.4q-10.66 0-20.13 4.14-9.47 4-16.53 11.06-6.94 6.94-11.07 16.4-4 9.47-4 20.14t4 20.13q4.13 9.47 11.07 16.53 7.06 6.94 16.53 11.07 9.47 4 20.13 4 10.67 0 20.14-4 9.46-4.13 16.4-11.07 7.06-7.06 11.06-16.53 4.14-9.47 4.14-20.13 0-10.67-4.14-20.14-4-9.46-11.06-16.4-6.94-7.06-16.4-11.06-9.47-4.14-20.14-4.14m.94 32.4q4 0 7.46 1.6 3.6 1.47 6.14 4.14 2.66 2.53 4.13 6.13 1.6 3.47 1.6 7.47t-1.6 7.6q-1.47 3.46-4.13 6.13-2.54 2.53-6.14 4.13-3.46 1.47-7.46 1.47t-7.6-1.47q-3.47-1.6-6.14-4.13-2.53-2.67-4.13-6.13-1.47-3.6-1.47-7.6t1.47-7.47q1.6-3.6 4.13-6.13 2.67-2.67 6.14-4.14 3.6-1.6 7.6-1.6M307.65 87.2l2.8 15.2q.54 3.07 2 5.6 1.6 2.4 3.87 4.13 2.27 1.74 4.93 2.8 2.8.94 5.74.94 4.4 0 7.6-1.6t5.33-4 3.2-5.34q1.07-3.06 1.07-5.86 0-.67-.14-1.47 0-.8-.13-1.47l-12.4-66.66q-1.2-6.27-5.73-9.87-4.54-3.73-10.94-3.73-5.2 0-9.2 2.4-3.86 2.26-6.13 7.06l-15.87 33.2-15.86-33.2q-4.54-9.46-15.34-9.46-6.4 0-11.06 3.73-4.54 3.6-5.6 9.87l-12.27 66.66-.27 1.6v1.47q0 3.33 1.34 6.4 1.33 2.93 3.6 5.33 2.4 2.27 5.46 3.6 3.07 1.34 6.67 1.34 2.93 0 5.6-.94 2.8-1.06 5.07-2.8 2.26-1.73 3.73-4.13 1.6-2.53 2.13-5.6l2.8-15.2 9.2 19.33q4.4 9.34 14.8 9.34t14.8-9.34zm111.43-45.33q2.93-4.27 2.93-9.47 0-3.33-1.33-6.4-1.34-3.07-3.6-5.2-2.14-2.27-5.2-3.6t-6.4-1.33q-3.87 0-7.47 1.73-3.47 1.73-5.87 5.2l-12 17.07-11.86-17.07q-2.4-3.47-6-5.2t-7.47-1.73q-3.47 0-6.53 1.33-2.94 1.33-5.2 3.6-2.14 2.13-3.47 5.2t-1.33 6.4q0 2.4.66 4.8.8 2.4 2.27 4.53l22 31.47v25.6q0 3.6 1.33 6.67 1.34 3.06 3.6 5.46 2.27 2.27 5.34 3.6 3.2 1.34 6.66 1.34 3.47 0 6.54-1.34 3.2-1.33 5.46-3.6 2.4-2.4 3.74-5.46 1.33-3.07 1.33-6.67V73.2zM70.72 160.6h9.48q3.07 0 5.63-1.24 2.69-1.25 4.74-3.45t3.2-4.96q1.15-2.9 1.15-6.2 0-3.32-1.15-6.21t-3.2-4.96q-2.05-2.2-4.74-3.45-2.56-1.24-5.63-1.24H28.34q-3.08 0-5.77 1.24t-4.73 3.45q-1.92 2.06-3.08 4.96-1.15 2.9-1.15 6.2t1.15 6.2q1.16 2.76 3.08 4.97 2.05 2.2 4.73 3.45 2.7 1.24 5.77 1.24h9.73v54.04q0 3.72 1.28 6.9 1.28 3.16 3.46 5.64 2.17 2.35 5.12 3.72 3.07 1.38 6.4 1.38 3.46 0 6.4-1.38t5.13-3.72q2.3-2.48 3.58-5.65t1.28-6.9zm72.6 38.18q-3.33 0-5.76-2.48-2.43-2.62-2.43-6.2v-43.7q0-3.59-1.28-6.76t-3.59-5.51q-2.17-2.48-5.12-3.86-2.94-1.38-6.4-1.38-3.33 0-6.4 1.38-2.95 1.38-5.13 3.86-2.17 2.34-3.45 5.51t-1.28 6.76v43.7q0 9.1 3.2 17.1 3.2 7.99 8.7 14.05 5.64 5.93 13.07 9.38 7.42 3.45 15.87 3.45t15.75-3.45q7.43-3.45 12.94-9.37 5.63-6.07 8.83-14.07t3.2-17.1v-43.7q0-3.58-1.28-6.75t-3.58-5.51q-2.18-2.48-5.12-3.86-2.95-1.38-6.28-1.38t-6.4 1.38q-2.95 1.38-5.25 3.86-2.18 2.34-3.46 5.51t-1.28 6.76v43.7q0 3.58-2.43 6.2-2.3 2.48-5.64 2.48m105.39-38.18h9.48q3.07 0 5.63-1.24 2.69-1.25 4.74-3.45t3.2-4.96q1.15-2.9 1.15-6.2 0-3.32-1.15-6.21t-3.2-4.96q-2.05-2.2-4.74-3.45-2.56-1.24-5.63-1.24h-51.86q-3.08 0-5.77 1.24t-4.73 3.45q-1.92 2.06-3.08 4.96-1.15 2.9-1.15 6.2t1.15 6.2q1.16 2.76 3.08 4.97 2.05 2.2 4.73 3.45 2.7 1.24 5.77 1.24h9.73v54.04q0 3.72 1.28 6.9 1.28 3.16 3.46 5.64 2.17 2.35 5.12 3.72 3.07 1.38 6.4 1.38 3.46 0 6.4-1.38t5.12-3.72q2.3-2.48 3.59-5.65 1.28-3.17 1.28-6.9zm71.7-33.5q-10.24 0-19.33 4.27-9.09 4.14-15.88 11.44-6.65 7.17-10.62 16.96-3.85 9.79-3.85 20.82t3.85 20.81q3.97 9.8 10.62 17.1 6.8 7.17 15.88 11.44 9.1 4.14 19.34 4.14t19.33-4.14q9.1-4.27 15.75-11.44 6.79-7.3 10.63-17.1 3.97-9.78 3.97-20.81t-3.97-20.82q-3.84-9.79-10.63-16.96-6.66-7.3-15.75-11.44-9.09-4.27-19.33-4.27m.9 33.5q3.85 0 7.17 1.65 3.46 1.52 5.9 4.28 2.56 2.62 3.97 6.34 1.53 3.58 1.53 7.72t-1.53 7.85q-1.41 3.59-3.97 6.35-2.44 2.62-5.9 4.27-3.32 1.52-7.16 1.52t-7.3-1.52q-3.33-1.65-5.9-4.27-2.43-2.76-3.96-6.35-1.41-3.72-1.41-7.85 0-4.14 1.4-7.72 1.54-3.73 3.98-6.34 2.56-2.76 5.89-4.28 3.45-1.65 7.3-1.65zm94.25 0q1.92 0 3.33 1.51 1.4 1.52 1.4 3.59 0 2.2-1.4 3.72-1.41 1.52-3.33 1.52h-4.35V160.6zm27.02 31.7q2.05-1.93 3.84-4.82 1.92-2.9 3.33-6.2 1.53-3.45 2.3-7.31.9-4 .9-8 0-7.72-2.69-14.47t-7.43-11.72q-4.6-5.1-10.88-8t-13.45-2.9h-23.69q-3.33 0-6.4 1.39-2.94 1.38-5.12 3.86-2.18 2.34-3.46 5.51t-1.28 6.76v68.24q0 3.72 1.28 6.9 1.28 3.16 3.46 5.64 2.18 2.35 5.12 3.72 3.07 1.38 6.4 1.38 3.46 0 6.4-1.38t5.13-3.72q2.3-2.48 3.58-5.65t1.28-6.9v-9.92l11.4 19.72q2.18 4 5.9 5.92 3.7 1.93 7.93 1.93 3.33 0 6.27-1.37 2.95-1.38 5.13-3.73 2.3-2.34 3.58-5.51 1.28-3.31 1.28-6.9 0-4.82-2.43-9.1z" style="fill:#fff"/></svg>