<?xml version="1.0" encoding="UTF-8" standalone="no"?><svg viewBox="0 0 302 152" version="1.1" id="svg1" xmlns="http://www.w3.org/2000/svg" xmlns:svg="http://www.w3.org/2000/svg"><path fill="currentColor" stroke="currentColor" stroke-width=".09" d="M34.2 1.1C38.8.8 43.4.5 48 .7 62.7.8 77.4.5 92.1.8c1 3 2.3 5.8 3.4 8.8 4.3 13.4 9.3 26.7 13.9 40 1 3.7 2.7 7 4 10.5C120.5 40.3 127 20.2 134.7.5c.9.1 2.9.4 3.8.5-1.1 3.4-1.7 7-3.1 10.3-6.9 19-13.2 38.2-20.3 57.1l-4-.3c-7.4-21-14.6-42-22.3-62.8-8.8.1-17.7.1-26.5 0 .1 21 .1 42 0 62.9h-4.5q-.3-31.2 0-62.4c-7.9-.3-15.7-.2-23.5-.1 0-1.5-.1-3.1-.1-4.6ZM6.6 85.7c3.7-2.3 8.2-2 12.4-2.1 6 .1 12-.3 18 .3 4 .4 8 2.5 10 6.1 2.7 4.9 1.8 10.8 1.9 16.2-4.6.1-9.3.1-14 0-.1-2.9-.3-5.8-.5-8.7-6.6-.3-13.3-.3-20 0-.1 13.3-.2 26.7 0 40.1 6.7-.1 13.3.8 19.9-.3.6-3.7.5-7.5.5-11.2l-12.1-.3c0-4.2.1-8.4.1-12.6 8.6 0 17.3-.1 26 0 0 7.3.3 14.6.2 21.9-.1 2.9-.2 5.9-1.3 8.6-1.3 3.5-4.5 6-8.1 6.9-4.1 1-8.4.8-12.6.8-4.7-.1-9.3.2-14-.3-2.9-.3-5.9-.9-8.2-2.9-2.5-2.3-3.7-5.5-4.8-8.6V95.4c1.3-3.7 3.1-7.6 6.6-9.7Zm68.5 2.5c.7-1.5.9-4 3-4 4.9-.6 9.8 0 14.6.1 6.8 22.3 14.5 44.2 21.3 66.5-5 .2-10 .1-15 0-1.4-4.8-3.2-9.6-4.3-14.5-7 0-14-.1-21 .2-1.2 4.7-2.7 9.4-4 14.2-4.9.2-9.8.3-14.7.1 6.5-20.9 13.5-41.7 20.1-62.6m2.9 34.5h12.8c-2.2-7.5-4.5-15-6.3-22.7-2 7.6-4.6 15-6.5 22.7Zm44.8-38.6c5-.1 10 0 15 .1 5.5 12.6 11.2 25.1 16.6 37.7 5.9-12.4 11.1-25.2 16.8-37.7 5-.1 10-.2 15-.1.3 18.3 0 36.6.2 54.9 0 4-.2 7.9-.2 11.9h-13.1c-.4-13.7.4-27.4-.3-41.1-4.9 9.8-8.2 20.3-13.2 29.9-3.3 1.1-6.9 1.1-10.2 0-2.2-3.5-3.3-7.5-5-11.2-2.7-6.2-5.3-12.5-8.1-18.6-.9 13.6 0 27.3-.4 40.9-4.4.1-8.7.1-13.1.1-.3-18 .1-35.9-.2-53.9 0-4.3.1-8.6.2-12.9Zm78.3 0c14.7-.1 29.4 0 44.1 0 .1 4.4.2 8.7 0 13.1-10 .2-20 .1-29.9 0 0 4.3 0 8.5-.1 12.8 8 .2 16 0 24 .1.1 4.3.2 8.7 0 13.1-8 .3-16 .1-23.9 0 0 4.9 0 9.7-.1 14.6 10-.1 20-.2 30 0 .2 4.3.1 8.7 0 13.1-14.7 0-29.4.1-44 0-.2-22.3-.2-44.5-.1-66.8Zm53.7 8.5c2-4.8 6.8-8.8 12.2-8.8 6.6-.3 13.4-.2 20-.1 4.2.1 8.5 1.9 10.9 5.5 3.4 4.6 2.4 10.7 2.3 16q-6.6.3-13.2 0c-.1-2.5-.3-5-.8-7.5-5.7-.7-11.7-.9-17.4.1-1 3-.8 6.4-.1 9.5 1.1 1.1 2.7 1.3 4.2 1.8 6.7 1.6 13.7 2.2 20.2 4.8 4.3 1.6 7.7 5.5 8.1 10.2q.75 8.4 0 16.8c-.6 5.3-5.3 9.3-10.4 10-5.2.8-10.5.3-15.8.5-4.8-.1-10 .3-14.4-2-3.3-1.8-5.4-5.3-6-9-.5-3.8-.3-7.7-.4-11.5 4.5-.3 9-.4 13.5 0 .2 2.8.4 5.7 1 8.5 5.1.6 10.2.4 15.3.3 1.4-.1 3.7 0 3.6-2 .3-2.9.6-6.1-.5-8.9-1.4-1.1-3.3-1.4-4.9-1.8-5.8-1.3-11.7-2-17.3-3.9-3.9-1.2-7.5-3.8-9.6-7.3-1.3-2.7-.9-5.9-1.1-8.8.2-4.1-.3-8.3.6-12.4Z" id="path1" style="fill:#ffffff"/></svg>