<svg xmlns="http://www.w3.org/2000/svg" xml:space="preserve" id="Layer_1" x="0" y="0" viewBox="0 0 3839 843.3"><style id="style2" type="text/css">.st1{fill:#fcfcfc}.st2{fill:#0b61a8}</style><g id="g1873" style="fill:#fff;fill-opacity:1"><path id="path26" d="m2219 228.5-167.8 295.8a99 99 0 0 1-25.9 29.8c-4.4-13.4-10.2-31.4-13.1-36.7l165-289h-137.4l-166.2 294.1 40.4 115.9h78.1c-10 15.4-20.2 26.6-31.8 34.1-13 8.3-28.9 12.7-49.1 12.7-13 0-26.3-1.2-37.6-2.9-13-1.9-27.5-5-40.5-9.2L1807 664l-45 79.5 8.9 4.2c13.1 6.9 29.1 12.2 47.7 15.5 18.9 3.6 39.1 5.2 57.9 5.2 54.9 0 104.2-11.4 146-34.3 44.9-23.6 79.4-58.5 105.6-103.3l228.5-402.5H2219" class="st1" style="fill:#fff;fill-opacity:1"/><path id="path28" d="M2636.6 251.1c-8.6-18.9-30.4-28.3-62.3-28.3-5.6 0-11.2.2-16.6.5-17.2 1.1-34.2 4.6-50.8 9.6l-22.2 6.8 6.3-11.1h-117.7l-303.6 536h137l62.5-110.3c13 4.9 32.3 5.4 46.4 4.1 34.5-3.1 69.3-10.5 104.1-31.4 34.6-20.7 63.7-48.5 86.7-83 13.1-19.1 24.6-37.2 34.7-53.9l33.2-56.7c11.6-20.1 21.7-40 31.9-59.1 10.2-19.7 17.2-35 21.7-46.6 14.5-32.5 15.9-58.2 8.7-76.6m-175 128.9-28.9 54.7-39.1 66-26.2 42.7c-1.5 2.5-4.9 7.8-8.4 13.2a33.1 33.1 0 0 1-28 15.3h-15.1L2458.6 320h14.1a11 11 0 0 1 10.1 15.5c-6.2 14-15.4 34.1-21.2 44.5" class="st1" style="fill:#fff;fill-opacity:1"/><path id="path30" d="M909.9 102 675.8 658.6H531.2l49.1-100.4h-52.1l-65.1 100.4h-146L704.6 102zM632.3 459.7c28.9-63 65.1-141.1 111.4-234-75.3 106.7-128.7 184.8-160.6 234z" class="st1" style="fill:#fff;fill-opacity:1"/><path id="polygon32" d="M693.1 658.6 1008.3 102h143.2L836.2 658.6z" class="st1" style="fill:#fff;fill-opacity:1"/><path id="polygon34" d="m522.5 213.7-252.1 445H128.2l252.1-445h-83.5l63.3-111.8h326.5l-77.8 111.8z" class="st1" style="fill:#fff;fill-opacity:1"/><path id="polygon36" d="m2031.1 213.7-252 445h-142.2l252.1-445h-83.5l63.3-111.8h309.4l-63.3 111.8z" class="st1" style="fill:#fff;fill-opacity:1"/><path id="path38" d="M1756 147.9c-2.8-19.3-13-33.8-30.4-43.7-17.4-9.8-41.9-14.5-70.9-14.5-30.4 0-60.7 5-89.7 15.4-28.8 10.5-56.3 25.2-80.9 44.4-24.6 19.3-44.8 40.6-59.3 63.9-16 23.3-40.5 62.9-72.3 118.7l-53.5 95.5c-31.8 57.2-53.4 97.4-63.6 120.3-11.6 22.9-14.5 44.3-11.6 63.7 2.8 19.6 14.4 34.1 31.8 43.9 17.4 9.6 40.5 14.5 70.9 14.5s60.7-5.2 89.7-15.4c27.4-10.3 54.9-25 79.5-44.4 24.6-19.1 44.8-40.4 60.7-63.6 16-23.5 39.1-63 70.7-119l53.7-95.5c33.2-57.1 54.8-97.3 65-120.4 10.2-22.9 14.6-44.2 10.2-63.8m-142.6 54.4L1410 560.1c-8 14.1-25.8 18.9-39.6 10.7-4.5-2.6-6-8.5-3.4-13.1l203.5-357.8c8-14.1 25.8-18.9 39.6-10.7 4.4 2.6 5.9 8.5 3.3 13.1" class="st1" style="fill:#fff;fill-opacity:1"/><path id="polygon40" d="m1330.8 213.7-252.1 445H936.6l252-445h-83.4l63.2-111.8h309.4l-63.3 111.8z" class="st1" style="fill:#fff;fill-opacity:1"/><path id="polygon42" d="M2783.5 658.2h162.7l196.1-166.1 155.6-131.7 337.2-285.7h-162.8l-331.8 281.1z" class="st2" style="fill:#fff;fill-opacity:1"/><path id="polygon44" d="m3137.5 74.7 21 583.5h157l-21-583.5z" class="st2" style="fill:#fff;fill-opacity:1"/><path id="path46" d="M2952.1 270.2c-4.3-31.4-30.2-47.5-78-47.5-53.5 0-105.6 19.6-153.4 58-47.7 36.7-91.1 91.1-131.6 161.6-40.4 70.9-57.7 125.3-53.4 162 4.2 38.6 31.8 58 82.3 58 43.4 0 82.5-9.5 115.6-28.3 33.3-19.7 62.1-49.8 85.3-89.3 0 0 5.9-10 7.9-13.3.8-1.4 3.2-5.4 3.2-5.4h-106l-2.7 4.7-11 19.1c-4.9 9.1-9.6 12.9-10.9 14.3-1.8 1.9-4 3.3-6.5 4l-1.8.5c-5.5 1.6-11.5-.5-14.9-5.2-2.9-4-3.6-9.2-1.7-13.8 5.2-12.9 17.3-38.1 45-86.3h156.2l33.3-59.9c33.1-58.4 47.5-103.1 43.1-133.2m-123.5 61.2c-3.7 8.6-10.2 22.3-22.6 44.5h-37.6c14.3-23.7 22.2-35.7 27-42.5 17.9-26.4 40.4-19.8 33.2-2" class="st1" style="fill:#fff;fill-opacity:1"/></g></svg>