<svg xmlns="http://www.w3.org/2000/svg" viewBox="0 0 500 176"><path d="M341.52 12.31c2.49 1.08 4.98 1.54 6.85 3.59 2.8 3.09 4.68 5.74 5.92 9.95 1.04 3.53 2.14 10.34 5.15 12.55q4.32 3.19 5.31 6.07 2.92 8.57 5.54 17.31-.56.43-.56 1.05.01.66.64.48 3.07-.85 3.86-4.33 1.3-5.66 4.97-15.14.24-.63.31-1.32.04-.44.49-.5.32-.04.45-.14 4.13-3.17 8.24-3.31c8.81-.3 21.1.77 32.13.02 4.87-.34 9.86.55 14.62-.96q.47-.14-.08-1.66c4.98 1.25 7.49 2.8 10.26 7.12 2.32 3.61 3.31 12.11 1.59 16.21-3.73 8.91-9.28 18.38-12.98 25.66q-3.09 6.09-6.36 12.09-.24.46.03.9.75 1.25 2.62 1.72-.68 1.34-.1 2.26a.98.96 74.6 0 0 .81.47q11.13.25 22.23-.22 8.19-.35 11.63-2.18c3.66-1.95 8.01-7.23 7.54-12.05q-.3-2.97-1.85-.76c.17-7.93-1-10.89-5.64-17.47a1.21 1.19 34.1 0 1-.19-.96q.25-1.08 1.53-1.76-.08.62 0 .69a1.9 1.82-43.6 0 0 2.3.01l10.15-7.71c7.4 2.76 13.36 12.85 13.69 20.55q.54 12.57-5.25 23.43c-3.99 7.46-10.77 12.82-18.06 17.04-4.88 2.83-15.91.7-21.32.73q-31.37.21-62.74.29c-3.8.01-10.13 2.1-13.49-1.49a1.1 1.1 0 0 1-.3-.83q.67-10.5.25-13.95-.21-1.72-1.79-1.82c-2.04-.13-3.63 1.91-6.03 2.05-4.21.24-12.47 1.67-15.05-2.3a.83.81-16.1 0 0-.69-.37h-2.86a.61.6-68.1 0 0-.44.19q-3.59 3.79-8.34 3.66-16.46-.47-32.91-.59c-3.3-.02-6.86.49-10.35.58q-28.98.67-53.8-.09-9.09-.28-11.87-8.23l1-.4q.49-.19.42-.71-.35-2.8 2.53-3.58.55-.15.98.22l.81.71q.33.29.73.11.76-.34 2.09.36c4.78 4.4 15.39 3.92 21.77 3.33q4.38.79 9.16.01l3.68.29q.44.04.49-.4.05-.39.45-.33 6.87 1.15 13.64.18a2.38 2.36 7.8 0 0 1.82-1.37l3.27-7.22 7.6-16.49 4.81-10.33.7-1.99 3.07-6.75 2.68-5.19 1.37-2.85a1.36 1.36 0 0 0-.85-1.89c-6.3-1.79-10.42-1.27-16.85-.86q-3.32.37-6.73 1.23c-3.34.84-4.5 7.84-5.26 11.58l-6.22 20q-1.05.65-.68 2.51l-1.27 3.74q-6.46 9.3-16.94 3.74l-.38-3.47c2.36-9.61 8.41-9.54 14.83-15.22q4.96-7.9 1.55-15.6-3.12-6.19-9.51-7.75l-7.5-.77-8.44.19-22.12.14-3.34.12q-1.68-.87 1.04-1.41.81-.16.08-.55l-.65-.35q-.61-.33-.17-.86l.42-.52q.4-.49-.11-.85-.94-.67-2.11-.6a.09.09 0 0 1-.05-.16q.12-.08.22-.17.16-.13.37-.15l10.79-.74 38.88-.17q4.41 2.78 7.35 8.05-.36 1.4 1.21.9.55-.17 1.04-.71c1.83-2.01 5.1-4.67 6.32-6.94q1.22-2.27-.63-2.24c-3.04-4.62-6.35-12.39-2.18-17.19q.42.76.99.8.46.03.66-.39c4.91-10.24 15.86-10.95 26.1-10.37q13.02.74 25.72 3.8.93.22 1.62.87.38.36.9.4 2.61.21 2.77-2.27m-46.29 3.06-3.02 2.08q-3.34 3.04-3.75 7.3-.76 6.9 5.15 10.74l3.36 1.51q2.67.93 5.29.24.71.09 1.48-.3 1.63.83 3.07-.49c7.14-1.6 8.54-10.53 6.36-16.29q-.2-.53.34-.71c3.06-.95 6.7.76 9.01 1.27l6.69 2.68c7.41 6.84 4.28 16.3.26 23.92l-3.29 4.87-2.73 3.46-4.56 6.14-3.88 4.96-15.13 19.27q-1.12.82-1.61 2.79l-4.34 4.79q-1.69 1.36-1.88 3.45a.8.8 0 0 0 .47.77q4.75 1.88 10.49.6 7.65.59 15.91-.45l3.56.83 18.3-.41a1.21 1.19-67.4 0 0 .81-.34q3.59-3.61 2.27-8.81-.32-2.24-1.89-4.53l-1.9-3.11q-1.14-2.85-3.05-4.37-.74-.58-.54.34l1.12 5.14-.8 3.74q-3.78 6.48-11.73 1.34.03-.77-.64-1.69l2.94-6.49 3.57-4.64 11.51-14.83 2.74 10.3q-.17.02.12 1.19l1.6 7.42.46 1.34 1.26 6.37 1.85 6.19q.18.71 1.01 1.36.25.36.38.41l2.52 1.78c7.56 3.22 19.35-.76 26.63-3.88q6.51-4.72 9.07-11.64 2.93-6.97 6.91-18.23 1.16-3.29 4.14-6.82l4.3-2.76q1.09.38 2.32.12 2.5-.06 6.79 2 .72.59 1.43 1.9c1.16 2.14.39 6.26-.15 8.57l-7.33 16.42-4.29 9.49c-3.22 7.4-6.08 14.8-15.01 15.84q-1.39-.48-3.54-.2l-4.5-.03a1.22 1.21-1.3 0 0-1.23 1.28l.33 6.37q.04.67.7.67l4.63.04 2.8.01 15.14-.11q2.61.51 4.48-.08l13.61.21 1.94.12 11.88-.13 12.65.17 4.17-.12 4.61-.08q7.65 1.04 13.25-1.64 8.65-5.86 14.43-17.44 8.85-17.76-6.44-29.49a1.09 1.09 0 0 0-1.58 1.45l1.53 2.44a2.39 2.23-68 0 1 .31.81c.74 3.99 2.18 8.13 1.78 12.01q-1.7 16.24-17.3 22.04-1.2-.25-1.65.15l-5.14.33q-1.77.07-1.54-.23l-17.18-.13-11.9.07-5.95.35q-.86-.55-2.43-.3-1.13-.14-1.18-1.07l5.62-10.45 14.46-27.26q3.7-6.02 3.94-12.87c2.26-14.52-12.45-13.34-21.54-12.51q-1.9-.41-3.79.1l-5.91-.04-5.62.23-3.32.51-.11.01q-6.17-.61-11.84.18-1.19-.16-1.79.41-4.83 3.18-4.84 10.4l-7.52 25.99q-1.08 4.46-4.31 3.84-1.35-.74-2.5-2.29l-3.26-13.9-1.5-4.99-.63-.88q.34-1.71-.41-3.21l-1.36-4.87-.41-2.13-.74-1.38c-.16-6.1-7.86-3.84-8.11-11.2q-.19-5.33-1.82-9.2-1.39-6.5-6.83-10.16l-16.98-4.6c-4.56-.49-8.64-1.14-13.46-.89-5.73.3-10.56-.78-16.07 1.55m25.64 13.77q-.73 4.76-3.86 8.33-.39.45-.13.98 2.24 4.63.12 9.47c-1.09 2.49-5.18 8.19-1.94 10.15a1.44 1.44 0 0 0 2.02-.58c1.76-3.46 3.45-5.23 6.7-8.33q4.18-3.98 3.62-9.71c-.49-4.89-.56-8.73-4.7-11.18a1.22 1.22 0 0 0-1.83.87m65.44 72.68q-.33.72-.02 1.69.13.41.57.41c7.02.01 9.59-7.03 12.18-12.31q5.67-11.52 11.13-24.5a1.05 1.04-79.6 0 0-.99-1.45l-1.55.05q.82-1.4.66-2.21-.38-1.91-2.38-.48a2 2-8.2 0 0-.73.97c-1.27 3.7-3.8 7.01-5.18 10.49q-3.8 9.6-8.56 18.77c-2.1 4.03-5.71 4.29-8.73 6.88a.8.8 0 0 0 .65 1.4q1.47-.23 2.95.29M262.89 83.35q-.11 3.14 3.38 1.84 1.58-.58 2.72-1.87 2.67-3.04.76-5.25-.13-2.63-1.38-3.17a.67.66-54.1 0 0-.71.12l-5.49 5.15q-.45.41-.47 1.03-.05 1.68 1.19 2.15" style="fill:#fff"/><path d="M132.06 39.5q-.49-.09-.8.42a.71.7-76.4 0 0 .65 1.07c5.51-.43 11.61-2.72 17.13-4.84l6.32 4.44q-1-.02-.91.67a1.1 1.1 0 0 0 1.74.76c3.52-2.5 6.24-4.5 10.79-4.5q25.96-.01 51.92.07c3.07.01 7.79-.43 11.87.18l-10.79.74q-.21.02-.37.15-.1.09-.22.17a.09.09 0 0 0 .05.16q1.17-.07 2.11.6.51.36.11.85l-.42.52q-.44.53.17.86l.65.35q.73.39-.08.55-2.72.54-1.04 1.41-2.41-.06-2.88 1.68-2.12 7.88-5.26 14.63l-6.76 14.87-8.03 14.05q-3.36 4.1-4.11 8.35-.7 2.91 2.96 2.03l4.63-.25 4.46.02 1.71-.25q4.56.77 8.74-.25c3.86-.95 1.47-4.58.64-6.56q-.2-.48.02-.96l4.82-10.48 1.65-4.07.6-1.32 1.12-2.49 1.76-3.32 3.73-7.8c1.46-6.05 7.18-4.71 12-5q1.33.15 4.01.22 2.94.07 4.41 2.77a.73.71-38.1 0 1-.11.85l-6.09 6.47-7.88 6.18q-4.37 4.2-5.21 9.35c-.25 1.6.74 2.89.66 4.77q-.18 4.37 3.61 7.93-1.33-.7-2.09-.36-.4.18-.73-.11l-.81-.71q-.43-.37-.98-.22-2.88.78-2.53 3.58.07.52-.42.71l-1 .4-1.46-5.53a.65.65 0 0 0-.76-.47l-1.32.25a.7.7 0 0 0-.57.7q.05 3.18.86 6.2c2.83 10.6-8.26 7.8-14.4 7.35q-6.5-.49-16.64.23c-3.93.27-6.49-.79-7.18-4.72-.88-5.01 7.7-14.68 6.02-17.7a.5.5 0 0 0-.83-.03l-8.05 12.37q-.26.4-.66.63-3.51 1.98-5 5.74a2.14 2.13-8.4 0 1-.65.87q-3.79 3.02-6.16 7.19c-1.24 2.19-3.99 4.2-4.24 6.72q-1.13 11.36-.64 14.92 1.64 11.9 3.31 23.79c.57 4.04 1.69 10.57-3.89 11.85a1.09 1.08-32.8 0 1-.89-.19c-6.82-5.13-12.4-13.04-17.97-19.5-3.44-4-6.13-8.26-9.12-12.6-4.17-6.07-6.42-11.4-5.57-18.24q.69.29 1.21.34.5.04.75-.39l6.67-10.93q.27-.45-.19-.7-.42-.23-1.01-.24c.12-.7.15-1.23-.29-1.85q-5.32-7.63-6.78-16.67a.78.78 0 0 0-1.27-.48c-.17.13-.45.42-.52.66q-1.96 6.43-4.61 12.61c-.83 1.95-.76 4.74-2.59 6.77q-.35.39-.88.42-3.89.26-10.44-.32c-4.51-.4-12.32-.23-18.55.27-2.74.22-5.41-.23-8.02-.05-7.66.55-16.64.48-22.93-5Q54.96 96.7 57 86.18q.61.41 1.51.32.5-.05.62-.54 1.53-5.99 4.42-11.47.15-.29.44-.47c.28-.17.45-.28.62-.58q5.54-9.99 11.85-19.51.62-.94.82-1.56.58-1.88-1.3-1.64c.81-2.13.21-3.56-2.23-3.39q-9.51.68-20.99 2.9-4.58.88-8.3 2.53c-3.66 1.63-6.15 5.57-9.09 8.43a1.6 1.6 0 0 0-.44.81l-3.88 18.45a.78.77-3.3 0 1-.52.58c-2.99.97-5.97 1.26-8.61-.92C15.64 74.95 9.78 66.54 9.74 58.1c-.01-2.42-.6-4.81-.22-7.13q.72-4.4 2.22-8.83c2.69.55 3.09-1.77 4.29-3.37q6.59-8.83 16.88-11.51c6.13-1.6 14.61-.55 21.67-.88C77 25.31 99.55 26 121.99 26q4.13 0 5.11-2.25.5-.43 1.11-.3a1.98 1.97-85.5 0 1 1.57 1.85l.5 11.95q.07 1.61 1.78 2.25m-22.82-9.86-9.71.13-4.88-.09-7.01.13q-6.98-.83-12.85.61-2.35-.93-5.25-.66l-6.85.14-1.99.35-12.43-.03c-12.99-1.16-25.37 3.04-29.94 16.14l-1.27 8.62q.51.49.09.56.4 10.12 7.25 17.46a.54.54 0 0 0 .9-.54c-1.71-4.9.2-10.12 3.03-15.71l1.95-2.96 5.76-5.55 8.23-3.71 9.03-2.47 10.5-1.51 3.75-.3 10.93-.61 3.16.07q.06.26.57.36l2.86.59q1.72-.04 1.47 2.21l-2.62 5.64-1.33 2.38-2.97 5.85-8.33 15.87-3.18 5.35q-2.77 3.19-3.41 8.37 1.23 11.58 13.39 14.11l8.56.05 5.92-.4 6.71.25 10.35-.23 7.27.02q.6.01.79-.56l4.12-12.01 1.23-4.09q.37-.66.38-1.38l.7-1.66.75-2.47 1.32-4 2.29-6.13c1.35-3.14 1.41-6.74 4.05-9.02a1.73 1.73 0 0 1 2.84 1l2.02 11.5.82 5.43 4.58 20.27 4.95 8.25q-1.16 3.96-4.33 7.05c-3.58 4.11-5.49 7.37-4.33 12.54 2.56 8.42 10.21 16.82 16.33 23.6l4.41 5.4q.74.92.63-.26l-1.02-10.36-1.03-15.74-1-6.98q4.61-7.86 10.43-14.94l1.81-2.87 4.61-6.42 3.65-4.62 10.83-15.05 8.56-11.57 1.74-2.01q3.77-5.69 12.24-15.77 1.45-1.73-.67-2.85-.39-.2-.84-.2l-18.29.27-12.7.32-1.18-.13-11.42.12c-13.69.15-13.74 20.95-.91 22.15a1.38 1.38 80 0 0 1.37-1.96c-3.36-7.04.09-11.9 7.53-12.29l1.64.93c5.72 5.25 1.56 12.09-1.7 17.02q-1.27 1.53-5.04 7.42-2.06 3.23-8.8 10.92-1.19 1.1-2.55.71-.51-.15-.59-.68c-1.91-12.71-3.3-25.5-5.55-38.16-.84-4.78-2.47-6.72-7.39-6.74q-10.44.2-19.96 4.4l-11.48 5.26q.44.23-.86.68-1.97 1.52-2.73 4.59l-1.96 5.93-.49 2.3-1.95 3.98-3.3 8.95-3.58 6.48-5.18 3.31q-8.28-.8-5.77-7.48l1.81-3.96 2.28-4.34 5.02-9.18.68-2.29.67-1.89c1.91-1.06 1.72-3.52 3.04-5.22l.85-1.83 3.2-5.52 4.68-9.04a1.09 1.07-75.6 0 1 .97-.58l14.02.29q.35.01.33-.33l-.5-8.86q-.03-.53-.56-.52zm51.72 50.52q6.94-1.45 3.7-6.23-.2-1.46-1.17-1.64a2.1.08 9.1 0 1-1.05-.21q-.89-.22-1.74 0-.52.13-.62.66l-.61 3.42q-.09.51.12.99z" style="fill:#fff"/></svg>