<svg xmlns="http://www.w3.org/2000/svg" viewBox="0 0 264 81"><path d="m0 56.7 7.68-36.22 11.27.12-5.8 26.54 15.52-.1 5.47-26.48 9.85.06-2.44 10.36L110.48 0 70.1 53.85l26.52-12.6 4.67-20.58 36.17.33-2.37 9.2-26.51-.39-1.05 4.39 18.71.1-2.19 9.06-18.92-.27-.49 3.89 27 .16-1.94 9.78-36.6-.37 1.58-7.93-69.27 32.34 31.83-46.2-17.86 8.03-2.84 14.4zm225.42-31.9 1.04-4.29 11.17.06 5.55 9.83 10.3-9.95 10.52.14-.25 3.84-15.79 14 8.6 13.91.14 4.34-11.34.1-5.75-9.88-10.2 9.77-11.06.13.54-3.65 15.42-14.5zm-36.36 22.05 3.4-16.39h16.17l-3.21 16.64Zm23.24 10.3 8.34-36.36-36.27-.01-7.94 36.28Zm-62.17-23.54.54-3.33 16.93.05-.61 3.43Zm-2.42 13.27.54-3.34 16.93.05-.61 3.44Zm17.7 9.43 6.78-5.1 1.57-7.96-4.53-5.66 7.05-4.54 1.86-8.26-4.56-4.13-30.34-.06-7.78 35.73Z" style="fill:#fff"/></svg>