<?xml version="1.0" encoding="UTF-8" standalone="no"?><svg viewBox="0 0 400 107.1" version="1.1" id="svg1" xmlns="http://www.w3.org/2000/svg" xmlns:svg="http://www.w3.org/2000/svg"><path fill="currentColor" stroke="currentColor" stroke-width=".09" d="M91.9.45h13c4.9 8.9 9.7 17.9 14.6 26.8 5.1-8.9 10.3-17.8 15.4-26.8h24.4q-.15 18.75 0 37.5h-12v-37c-6.8 12.3-13.6 24.7-20.5 37h-14.3c-6.9-12.5-13.7-25-20.6-37.5Zm69.3 0c11.9.1 23.9 0 35.8.1 4.6.1 9.8.9 12.9 4.6 3.1 3.9 2.2 9.2 2.4 13.9-.2 4.8.8 10.1-1.9 14.4-2.5 3.7-7.3 4.4-11.4 4.5-12.6 0-25.2-.1-37.8 0V.45m11.8 9.3v19h20c2.1-.1 4.5-.1 6-1.8 1.4-1.6 1.2-3.9 1.3-5.9 0-2.6.2-5.3-.4-7.9-1.3-2.4-4.3-3.3-6.9-3.3-6.6-.2-13.3 0-20-.1Zm40.6-9.3H255v9.2h-29.4v5.6h27.7c0 2.6-.1 5.2-.1 7.9h-27.6v5.7c9.9-.1 19.9 0 29.9-.1v9.2h-41.9q.15-18.75 0-37.5Zm51.8.1c8.5-1 17.1-.3 25.6-.5 4.8.2 10.6 0 14.2 3.8 3.4 3.9 2.8 9.4 2.8 14.2-.1 5.1.8 10.5-1.8 15.2-2.1 3.5-6.4 4.6-10.2 4.9-7.3.4-14.7.2-22 .2-4.2-.2-8.7.1-12.7-1.7a9.2 9.2 0 0 1-5.2-6.7c-.9-4.2-.4-8.6-.6-12.9.1-3.9-.2-8.2 1.8-11.7 1.6-2.9 4.9-4.3 8.1-4.8m8.1 9.1c-2.2.2-4.6 1.2-5.3 3.5-.7 2.5-.5 5.3-.5 7.9 0 2.2 0 4.9 2 6.3 3.1 1.9 6.8 1.5 10.3 1.7 4-.1 8.1.2 12-.8 2.1-.3 3.5-2.2 3.8-4.2.3-3 .3-6.1.1-9.1-.2-1.7-.9-3.5-2.4-4.3-2.7-1.2-5.7-1.1-8.5-1.2-3.8 0-7.7-.2-11.5.2ZM2.7 44.85c1.8-2.2 4.6-3.2 7.3-3.6 4.9-.9 10-.6 15-.6 4.7 0 9.4-.2 14 .5 2.7.5 5.3 1.9 6.5 4.3 1.5 2.8 1.3 6 1.5 9.1H35.9c-.7-1.3-.9-3.2-2.5-3.9-2.3-.9-4.9-.6-7.4-.7-3.8.1-7.7-.3-11.4.7-2 .4-2.8 2.6-2.9 4.5-.4 3.2-.4 6.6.1 9.8.2 1.5 1 3.1 2.6 3.7 3 1.1 6.4.8 9.6.9 3.2-.1 6.5.2 9.6-.9 1.9-.7 1.8-3 2.4-4.6h11.4c-.2 3.7.2 8-2.4 11.1-2.4 2.8-6.4 3.4-9.9 3.6-6.7.3-13.4.2-20.1.1-4-.1-8.5-.4-11.5-3.3-2.1-1.9-2.9-4.7-3.5-7.3v-16c.5-2.6.9-5.4 2.7-7.4Zm54.6-3.4c5.5-1.2 11.1-.7 16.7-.8 5.9.1 11.9-.4 17.7.8 3.2.7 5.8 3.1 6.8 6.2 1.1 3.7.8 7.6.9 11.4-.1 3.7.2 7.4-.5 11.1-.5 3.1-2.5 6.1-5.5 7.3-3.6 1.5-7.6 1.3-11.4 1.4-6.7.1-13.4.2-20.1-.1-3.7-.2-7.9-1.1-10.3-4.4-2.4-3.5-2-8.2-2.1-12.3.1-4.7-.4-9.4.8-14 .9-3.3 3.7-5.9 7-6.6m8 9c-2 .3-3.6 1.8-3.9 3.8-.6 3.8-.7 7.7.1 11.4.6 2.6 3.3 3.5 5.6 3.6 4.6.4 9.2.3 13.8.1 2.4-.1 5.5-.6 6.4-3.2.8-2.3.7-4.7.7-7.1-.1-2.5.1-5.3-1.7-7.3-2.4-1.8-5.5-1.6-8.3-1.7-4.2.1-8.5-.4-12.7.4Zm37.3-9.4h17.7c4.6 7.8 9.3 15.5 13.9 23.3 4.8-7.8 9.5-15.6 14.2-23.3h17.5v37.4h-11.7c.1-8.9.1-17.7 0-26.5a3750 3750 0 0 1-16.1 26.5h-7.9c-5.3-8.9-10.6-17.7-16-26.5.1 8.8 0 17.6.1 26.4-3.9.1-7.8.1-11.7.1-.1-12.5 0-24.9 0-37.4Zm66.1 0H200c3.5.1 7.5.3 10.3 2.7 2.7 2.2 3.4 5.9 3.6 9.3.2 3.8.1 7.8-1.5 11.4-1.5 3.1-5.1 4.6-8.4 4.6-8 .1-15.9 0-23.9.1-.1 3.1-.1 6.2-.1 9.3-3.7 0-7.5 0-11.3-.1v-37.3m11.3 9.4v9.3c4 .1 8 0 12 .1 3.2-.1 6.5.2 9.6-.7.7-2.5 1.5-5.4-.1-7.7-1.2-1.2-2.9-1-4.5-1zm35-9.4h11.6c0 7.3-.1 14.7 0 22 0 2.1.3 4.8 2.6 5.7 3.1 1 6.5.7 9.8.8 3-.1 6.1.2 9-.7 2.4-.8 2.9-3.5 2.9-5.7.1-7.4 0-14.8 0-22.1h11.7c0 8.7.1 17.4 0 26 0 3.5-1 7.5-4.1 9.4-3.4 2.1-7.6 2.3-11.5 2.4-5.3.1-10.7.1-16 0-3.9-.1-8-.4-11.6-2.2-3.1-1.6-4.4-5.3-4.4-8.6-.2-9-.1-18 0-27Zm50.4 0h42.2v9.1c-5.2.1-10.4.1-15.5.1v28.2h-11.3v-28.2c-5.1 0-10.3 0-15.4-.1zm44.9 0h41c0 3.1-.1 6.1-.1 9.2h-29.6v5.6c9.3-.1 18.6 0 28-.1v7.9h-28v5.7h30.1v9.1h-41.4zm43.7 0h30c4.1.1 8.4 0 12 2.1 2.6 1.4 3.4 4.5 4 7.2v5.6c-.2 3.5-2.2 6.7-5.7 7.7 2.1 1 4.4 2 5 4.5.8 3.3.4 6.8.4 10.3h-11.2c-.1-2.8.2-5.6-.6-8.3-1.3-1.3-3.2-1.1-4.9-1.2-5.8-.1-11.7 0-17.6 0v9.5H354v-37.4m11.4 9.4c0 3 0 6 .1 9.1q8.25-.15 16.5 0c1.9-.1 3.9.2 5.5-1 1.5-2.2 1-5 .3-7.4-1.6-.4-3.2-.8-4.8-.7zm-252.3 32.6h3.3c3.8 6.9 7.6 13.9 11.4 20.9 3.8-6.9 7.4-14 11.2-20.9h3.3c-4 8-8.1 16-12.1 24h-4.7c-4.1-8-8.3-16-12.4-24Zm30.1 1.1c4-1.6 8.5-1 12.8-1.2 3.5.2 7.4-.4 10.5 1.6 2 1.5 1.5 4.3 1.8 6.4-.7.1-2.2.1-2.9.1-.3-1.5-.6-3-1-4.4a54 54 0 0 0-19.6.1c-1.5 5.4-1.3 11.2-.1 16.6 4.7 1.1 9.5.7 14.3.7 2.1 0 4.1-.3 6.1-1.1 0-1.4.2-2.8.3-4.2h3.2c-.3 2-.1 4.1-.9 5.9-1.5 2.1-4.3 2.2-6.7 2.3-4.7.1-9.4.2-14.1-.2-2.2-.1-4.7-.8-5.5-3-1.2-3.7-.9-7.8-.9-11.7.2-2.7.2-6.1 2.7-7.9Zm32.5 14.1c6.1-5.1 12.2-10.2 18.3-15.2h4.6v16.1h3.3c.1.7.1 2.1.1 2.8-.9 0-2.5.1-3.4.1v5h-2.9v-5c-6.7-.1-13.3-.1-20 0v-3.8m3.8.9h16.2v-13.3c-5.4 4.4-10.9 8.8-16.2 13.3Zm27.8-15.6c4.5-.9 9.2-.5 13.7-.5 2.4.2 5.2.1 7.1 1.9 2 2.2 1.6 5.4 1.8 8.1-.1 3.6.2 7.5-1.1 11-1.2 2.5-4.3 2.7-6.7 2.9-4.8.1-9.7.4-14.4-.4a5.3 5.3 0 0 1-4.5-4.5c-.6-4.6-.5-9.4.1-14 .2-2.2 1.8-4.2 4-4.5m-.5 3.3c-1.1 5.4-1.3 11 .1 16.3 4.9 1.5 10.1 1.1 15.2.9 1.7-.1 4.1-.7 4.2-2.8.8-4.7.6-9.6-.3-14.3-1.9-.7-4-1.1-6-1.1-4.4 0-9-.4-13.2 1Zm28.6-3.3c5.1-1 10.5-.5 15.7-.4 2.6 0 5.7 1.1 6.6 3.9.8 3.9.5 8 .4 12-.2 2.3-.3 5.3-2.5 6.7-2.3 1.2-5 1.1-7.6 1.3-4.1 0-8.2.3-12.2-.6-2.4-.4-4.1-2.4-4.3-4.8-.5-4.5-.5-9 .1-13.5.1-2.1 1.7-4.1 3.8-4.6m-1 8.4c0 3.6-.6 7.5.9 10.9 2.8 1.8 6.5 1.2 9.7 1.3 3-.2 6.3.4 9-1.1 1.9-5.1 1.2-11 .3-16.2-5.6-1.5-11.5-1.2-17.2-.6-2.8.3-2.5 3.7-2.7 5.7Zm29.9-8.4c4.5-.9 9.2-.5 13.7-.5 2.4.2 5.2.1 7.1 1.9 1.8 1.9 1.6 4.7 1.8 7.1-.1 4 .3 8.1-1.1 12-1.2 2.5-4.3 2.7-6.7 2.9-4.8.1-9.7.4-14.4-.4a5.3 5.3 0 0 1-4.5-4.5c-.6-4.6-.6-9.4.1-14 .2-2.2 1.8-4.2 4-4.5m-.5 3.3c-1.1 5.4-1.3 11 .1 16.3 4.9 1.5 10.1 1.1 15.2.9 1.7-.1 4.1-.7 4.2-2.8.8-4.7.6-9.6-.3-14.3-1.9-.7-4-1.1-6-1.1-4.4 0-9-.4-13.2 1Z" id="path1" style="fill:#ffffff"/></svg>