<svg xmlns="http://www.w3.org/2000/svg" viewBox="0 0 264 66"><path d="M254.61 81.77a40.34 40.34 0 1 0 62.56 6.88l-21.7 21.7a12.37 12.37 0 0 1-21.08 8.67 12.36 12.36 0 0 1 17.47-17.46l.37.39 19.8-19.8-.38-.38a40.35 40.35 0 0 0-57.04 0M97.47 150.45 194.95 39.5h-40.68l-62.3 63.43a4.8 4.8 0 0 1-6.9 0 5.04 5.04 0 0 1 0-7.02L140.5 39.5H0zm435.02-40.35-33.76 39.7h27.58l26.28-26.76a3.85 3.85 0 0 1 5.52 0 4 4 0 0 1 0 5.61l-20.77 21.15H600l-33.75-39.7L600 70.43h-27.58l-26.28 26.76a3.84 3.84 0 0 1-5.52 0 4 4 0 0 1 0-5.61l20.77-21.15h-62.66zM377.13 70.42v79.38h25.33V98.2h19.2l23.64-27.78h-27.58l-26.3 26.76a3.83 3.83 0 0 1-5.5 0 4 4 0 0 1 0-5.62l20.77-21.14z" style="fill-opacity:1;fill:#fff" transform="scale(.44 .4382)"/><path d="M358.24 70.76h15.3l25.3-26.14h-40.6V0L296.5 70.76h27L342 53.58a3.84 3.84 0 0 1 5.5 0 4 4 0 0 1 0 5.62l-14.58 14.85v75.75h25.33zM168.19 81.77a40.34 40.34 0 1 0 62.56 6.88l-21.7 21.7a12.37 12.37 0 0 1-18.21 10.8l36.77-36.77a87 87 0 0 0-5.9-5.74 40.33 40.33 0 0 0-53.52 3.13m17.12 33.27a12.36 12.36 0 0 1 16.16-16.15zm257.78-33.27a40.35 40.35 0 0 0 57.03 57.04 40.35 40.35 0 0 0 5.53-50.16l-21.7 21.7a12.37 12.37 0 0 1-18.21 10.8l36.77-36.77a88 88 0 0 0-5.9-5.74 40.34 40.34 0 0 0-53.53 3.13m17.12 33.27a12.35 12.35 0 0 1 16.15-16.15z" style="fill-opacity:1;fill:#fff" transform="scale(.44 .4382)"/></svg>