<svg xmlns="http://www.w3.org/2000/svg" viewBox="0 0 3840 1178.6"><path d="M1412.1 1170.3h-205.9L987.8 619.9h147.6l160.9 411.8h25.8L1481 619.9h147zm275.5 0V619.9h141v550.4zm515.1 8.2c-58.3 0-118.5.8-175.4-14-45.7-12.4-74.8-41.3-84.1-99.9-8.6-53.6-6.6-111.4-6.6-165.9 0-33 0-66 1.3-98.2 1.3-50.3 2-104.8 33.1-141.1 10.6-12.4 23.2-20.6 37.1-26.4 58.3-23.9 183.4-21.5 245-21.5 50.3 0 102-1.7 151.6 9.9 19.9 4.9 37.7 13.2 53.6 28.9 35.1 33.8 35.1 99 35.1 148.5 0 5.8-.7 12.4-.7 18.2h-134.4c-.7-14.9-.7-42.1-9.9-52-6-6.6-16.6-9.1-24.5-9.9-35.8-5.8-73.5-5.8-109.2-5.8-19.2 0-37.7 0-56.9.8-19.9.8-48.3.8-64.9 16.5-23.2 22.3-21.2 99-21.2 131.2 0 29.7-2.6 104.8 19.9 125.4 8.6 7.4 17.9 11.6 28.5 13.2 28.5 5 59.6 4.1 88.7 4.1h68.2c24.5 0 72.2 5 83.4-30.5 4.6-14.9 5.3-36.3 5.3-52h134.4c.7 13.2 1.3 27.2 1.3 40.4 0 47-.7 103.1-31.1 137-41 46.2-158.2 42.9-210.5 42.9h-57.1Zm466.1-8.2c0-21.5-1.3-43.7-1.3-65.2 0-44.6-.7-89.1 5.3-132.9 11.9-91.6 75.5-103.1 139-109.8l166.8-16.5c21.2-2.5 44.4-2.5 64.9-11.6 19.2-8.3 19.2-22.3 19.2-45.4 0-15.7 0-33-11.3-42.9-16.6-15.7-88.1-11.6-107.3-11.6-40.4 0-84.1-2.5-124.5 5.8-30.5 5.8-27.1 33-27.1 66v18.2h-130.4v-22.3c0-45.4.7-108.1 27.8-143.6 30.5-39.6 98-41.3 138.4-43.7 28.5-1.7 56.9-1.7 85.4-1.7h12.6l109.2.8c42.4 0 96.7.8 128.4 41.3 24.5 31.4 24.5 94.1 24.5 134.5 0 41.3-.7 85-19.2 121.3-24.5 48.7-94 55.3-135.1 58.6-31.8 2.5-62.9 5-94.7 7.4-25.2 1.7-50.3 4.1-75.5 6.6-11.3.8-39.7 3.3-50.3 8.3-21.2 9.9-21.2 28.1-21.2 52h403.2v126.3h-526.8Zm1072.6-3.3c-53 10.7-124.5 9.9-178.1 9.9-33.1 0-65.5-.8-98.6-1.7-72.8-1.6-157.6-4.9-173.5-114.7-7.3-51.2-5.3-113.1-5.3-165 0-33 0-65.2.7-98.2.7-46.2 3.3-99 30.5-134.5 17.9-23.1 43-34.7 68.2-39.6 53-10.7 123.8-9.9 178.1-9.9 32.4 0 65.5 1.7 98 2.5 113.2 3.3 178.8 18.2 178.8 181.5v196.4c-.2 91.6-18.7 156.8-98.8 173.3m-64.3-400.2c-15.2-8.3-37.7-9.1-54.3-9.1-26.5 0-53-.8-80.1-.8s-56.9-.8-83.4 6.6c-7.9 2.5-15.9 5.8-21.8 14-17.9 23.1-16.6 88.3-16.6 118 0 27.2-1.3 91.6 13.9 113.9 6.6 9.9 14.6 14 24.5 17.3 28.5 8.3 75.5 8.3 105.3 7.4l58.3-1.7c16.6-.8 39.1-.8 54.3-9.9 33.1-18.2 28.5-90.8 28.5-127.1-.1-36.2 4.5-109.7-28.6-128.6" class="st5" style="fill:#fff"/><path d="M0 611.5h869.6v58.4H0zm0 127.2h869.6v58.4H0zm0 127.2h869.6v58.3H0zm0 127.2h869.6v58.3H0zm0 127.1h869.6v58.4H0z" class="st7" style="fill:#fff"/><path d="M3384.2 158.1h-71.3v204.6h74.4V255.8c0-27.9 17.1-41.9 48.1-41.9s38.8 9.3 40.3 35.6h69.8c0-69.7-9.3-96.1-83.7-96.1-45 0-60.5 9.3-77.5 43.4zm342.6 164.3c-71.3 0-82.1-6.2-82.1-41.9H3840c-3.1-99.2-3.1-122.4-134.9-122.4-111.6 0-136.5 20.1-136.5 108.5 0 82.2 32.6 102.3 122.5 103.9 100.8 0 148.8-4.7 148.8-71.3H3767c-3 15.5-9.2 23.2-40.2 23.2m-83.7-85.2c3.1-21.7 9.3-29.5 58.9-29.5 54.3 0 62 3.1 65.1 29.5zm-2771.8 7.7h74.4c-6.2-69.8-26.4-86.8-130.2-86.8-117.8 0-144.2 18.6-144.2 105.4s24.8 107 134.9 107c116.3 0 139.5-15.5 139.5-88.4h-74.4c0 20.2-7.7 29.5-65.1 29.5-49.6 0-60.5-12.4-60.5-52.7 0-38.8 10.8-38.8 69.8-38.8 43.4 0 51.1 4.7 55.8 24.8m1728.5 12.4c0-83.7-24.8-100.7-144.2-100.7-128.7 0-144.1 21.7-144.1 108.5s21.7 105.4 144.1 105.4c130.2 0 144.2-21.7 144.2-113.2m-212.4 4.7c0-41.9 9.3-46.5 63.6-46.5 60.5 0 71.3 1.5 71.3 46.5 0 41.9-7.8 49.6-65.1 49.6-62.1 0-69.8-6.2-69.8-49.6m880.5-4.7c0-83.7-23.3-100.7-142.6-100.7-127.1 0-142.6 20.1-142.6 107 0 88.4 21.7 107 142.6 107 130.2-.1 142.6-21.8 142.6-113.3m-210.8 4.7c0-41.9 9.3-46.5 63.5-46.5 60.5 0 71.3 1.5 71.3 46.5 0 41.9-7.7 49.6-65.1 49.6-61.9 0-69.7-6.2-69.7-49.6m-1781.2-4.7c0-83.7-23.3-100.7-142.6-100.7-128.7 0-144.2 20.1-144.2 107 0 88.4 21.7 107 144.2 107 130.2-.1 142.6-21.8 142.6-113.3m-209.3 4.7c0-41.9 9.3-46.5 62-46.5 60.5 0 71.3 1.5 71.3 46.5 0 41.9-7.8 49.6-65.1 49.6-60.5 0-68.2-6.2-68.2-49.6M2858.7 71.3v119.4c-17-23.3-32.5-35.6-94.5-35.6-99.2 0-117.8 26.4-117.8 107 0 82.2 26.4 105.4 122.5 105.4 60.5 0 79.1-15.5 93-41.8v37.2h74.4V71.3zm-54.3 142.6c41.8 0 55.8 6.2 55.8 38.7 0 49.6-3.1 54.3-62 54.3s-74.4-1.6-74.4-43.4c0-48 18.6-49.6 80.6-49.6m-1410.7-55.8H1324v204.6h74.4V257.3c0-31 15.5-41.8 57.4-41.8 38.8 0 49.6 13.9 49.6 52.7v94.5h76V254.2c0-29.5 23.2-38.7 58.9-38.7 34.1 0 49.6 9.3 49.6 38.7v108.5h74.4V241.8c0-60.4-37.2-88.4-105.4-88.4-58.9 0-80.6 21.7-88.4 45-15.5-26.4-37.2-45-96.1-45-55.8 0-71.3 18.6-80.6 52.7zm500.7 0h-69.8v204.6h74.4V257.3c0-31 18.6-41.8 55.8-41.8 38.8 0 49.6 12.4 49.6 52.7v94.5h76V254.2c0-29.5 21.7-38.7 57.4-38.7 34.1 0 51.1 10.8 51.1 38.7v108.5h74.4V241.8c0-60.4-37.2-88.4-105.4-88.4-58.9 0-79.1 20.1-88.4 45-15.5-26.4-37.2-45-96.1-45-54.2 0-68.2 18.6-79 52.7zM334.6 388.9a140.5 140.5 0 0 1-68.8 18c-77.7 0-141-63.2-141-141s63.2-141 141-141c25 0 48.4 6.5 68.8 18V9c-21.9-5.9-45-9-68.8-9C119 0 0 119 0 265.9s119 265.9 265.9 265.9c23.8 0 46.8-3.2 68.8-9V388.9Z" class="st5" style="fill:#fff"/><path d="M334.6 149.8h111.5v106.4H334.6z" class="st5" style="fill:#fff"/><path d="M566.4 149.8 460 256.2h-49V149.8zM334.6 275.6h111.5V382H334.6z" class="st5" style="fill:#fff"/><path d="M566.4 381.9 460 275.6h-49v106.3z" class="st5" style="fill:#fff"/></svg>