<?xml version="1.0" encoding="UTF-8" standalone="no"?><svg viewBox="0 0 553 235" version="1.1" id="svg3" xmlns="http://www.w3.org/2000/svg" xmlns:svg="http://www.w3.org/2000/svg"><path fill="currentColor" stroke="currentColor" stroke-width=".09" d="M183 7.8c5-2.5 10.8-1.8 16-.6-.1 2.9-.1 5.8-.1 8.8-3.6-.8-7.3-1.4-10.9-.3-.4.5-1.1 1.5-1.5 2 0 .4-.1 1.4-.1 1.9 4.2 2.9 9.8 2.9 13.6 6.4 3.4 3.8 3.7 9.7 1.2 14.1-2.1 3.4-6.1 5.7-10.2 5.8q-6.75.45-13.5-.6v-9.1c4.1.9 8.3 1.4 12.5.7 1.5-.5 3.5-1.7 3.1-3.6-3.9-3.4-9.8-3.2-13.6-6.8-5-5.4-3-15.3 3.5-18.7ZM80 7.2c3.3 0 6.6.1 10 0 0 12.7-.1 25.3 0 38H80zm43.5.1q5.1-.15 10.2 0c.1 12.6 0 25.2.1 37.8-3.5.1-6.9.1-10.4 0 .1-12.6 0-25.2.1-37.8Zm18.5-.1c6 .1 12 0 18 .1 4.3 0 8.7 2.1 10.7 6 2.5 4.8 2.8 10.8.4 15.7-1.6 3.3-4.8 5.6-8.1 7-3.5 1.6-7.5.6-11.2 1.1-1.6 2.2-.3 5.5-.7 8.1H142v-38m9.2 7.7c-.1 4.4-.3 8.7 0 13.1.2.2.6.7.8.9 2.8.4 6 .3 8.2-1.7 2.5-3.1 2.8-8.4-.5-11-2.5-1.9-5.7-1.1-8.5-1.3ZM4.9 7.6H22c2.6 0 5.4.2 7.6 1.7 5.2 3.2 6.8 10.2 5.8 15.9-1.1 6.5-7 11.5-13.5 11.9-2.5.3-5.2.1-7.7.3-.4 2.6-.2 5.2-.3 7.8H4.8c.1-12.5 0-25 .1-37.6m9.3 7.6c-.5 4.6-.2 9.3-.1 14 2.2-.1 4.5.2 6.7-.4 5.3-1.6 5.8-10 1.2-12.8-2.4-1.4-5.2-1.2-7.8-.8Zm26.2-7.4c3.3-.2 6.5-.2 9.8-.2v14.6H62V7.6c3.3 0 6.5 0 9.8.1 0 12.5-.1 24.9 0 37.4-3.3.1-6.5.1-9.8.1V29.8H50.2v15.4c-3.3 0-6.5 0-9.8-.1zm57.4-.2q4.8-.15 9.6 0c.1 9.8 0 19.7.1 29.6 3.5-.1 6.9 0 10.4-.1v8.1H97.7c0-12.5 0-25.1.1-37.6ZM370.1 82c2.4-5.2 5.2-10.2 7.7-15.3 8 14.4 15.1 29.2 22.8 43.8 2.3 4.6 4.7 9.2 7 13.9 2.1 3.7 4.2 7.4 5.7 11.4-5.1.1-10.3 0-15.4 0-1.7-3.7-3.8-7.2-5.3-11.1-6.7-.3-13.4.1-20-.2 2.1-4.7 4.5-9.4 7.1-13.9 1.7.1 3.5.2 5.3.2-1.3-3.2-2.9-6.3-4.6-9.3-3.5-6.5-6.7-13.1-10.3-19.5Zm-130.2-8.1c10.4-7.2 24.9-8.2 36.1-2.1 8.4 4.3 14.3 12.3 17.3 21.2.3 1.8.5 3.7.8 5.6-4.6 0-9.1-.1-13.6 0-1.8-5.5-4.8-11.1-10-14-4.8-3.2-11-3.5-16.5-2.4-7.8 1.9-13.2 8.9-15.2 16.4-4.6 0-9.3-.1-13.9 0a35.3 35.3 0 0 1 15-24.7Zm171.2 16.3c4.4-12 15.9-21 28.7-22.3.1 4.6.1 9.2 0 13.9-2.1.7-4.4 1.4-6.5 2.4-5.4 3.2-8.9 8.8-10.5 14.7-.2 5.7.6 11.6 4 16.2 2.9 4.6 8 7 13 8.5.1 4.7.1 9.4 0 14.2-3.6-.9-7.2-1.6-10.4-3.3-10.6-4.7-18.7-14.9-20.3-26.4-.5-6-.5-12.3 2-17.9Zm37.1-22.3c3 .5 6 .9 8.8 2 5.8 2.3 10.6 6.4 14.8 11-3.6 3-7.3 5.8-10.9 8.8-1.8-1.7-3.5-3.5-5.5-5-2.2-1.4-4.8-2.2-7.2-3.1-.1-4.6-.1-9.2 0-13.7ZM3 69.5c4.6-.1 9.3-.3 14 0 1.1 0 1.9 1 2.4 1.9 1.6 2.9 3 5.8 4.4 8.7 7.6 14.3 14.8 28.8 22.4 43.1-2.3 5.2-4.8 10.4-7.8 15.2-6.4-12.2-12.6-24.6-19-36.8C13.8 90.9 8.4 80.2 3 69.5Zm54.7.9c2.2-1.4 4.8-.9 7.3-1 6.8.1 13.7-.3 20.5.1.5 1.5.3 3 .4 4.5-.1 20.6 0 41.2-.1 61.8-4.5.1-9.1.1-13.6 0-.2-20.5.2-40.9-.2-61.4-5.7 8.9-9.8 18.7-14.8 28-2.2 3.9-4.1 7.9-6.2 11.9-2.6-5.1-5.1-10.2-7.8-15.2 2-3.7 3.9-7.5 5.8-11.3 2.8-5.8 6.4-11.3 8.7-17.4Zm40.5-1h13.6c.1 22.2 0 44.3.1 66.5q-6.9-.15-13.8 0c.1-22.2 0-44.3.1-66.5Zm22 .2c5.8-.6 11.6.2 17.3 1.2 8.1 2.6 14.4 8.7 19.1 15.6 3.1 6.3 4.8 13.6 3.6 20.6-1.5 12.8-11.1 24.7-23.8 27.6-5.3 1.3-10.8 1.4-16.2 1.2-.1-4.5-.1-9.1 0-13.6 6.1.1 12.6.1 17.9-3.2 3.2-2.2 5.6-5.3 7.2-8.7 3.9-8.9-.2-20.2-8.7-24.8-5.1-2.5-10.9-2.3-16.4-2.2-.1-4.6-.1-9.1 0-13.7Zm71.2-.1c8.4-.1 16.9-.2 25.3 0l.8.8c.3 4.3.2 8.6-.1 13h-25.8c-.3-4.6-.3-9.2-.2-13.8Zm109.7 0c4.8-.2 9.5-.1 14.2 0 0 22.1-.1 44.2 0 66.4h-14.2c.1-22.1 0-44.2 0-66.4Zm22.6.1c4.7-.5 9.4-.1 14 .8 6.8 2 11.5 8.1 13.6 14.6 1.7 9.3-3.2 19.7-12.2 23.2-4.9 1.5-10.2 1.5-15.3 1.5-.1-4.7-.3-9.3.3-14 3.9 0 8.3.5 11.8-1.7 2.5-2 1.7-5.4 1.2-8.1-.9-.7-1.9-1.4-2.9-2.2-3.4-.4-7-.5-10.5-.9.1-4.4 0-8.8 0-13.2Zm-154.6-.2c4.6.1 9.2-.1 13.7.1.1 22.1.1 44.2 0 66.4-4.6-.1-9.1-.1-13.7 0 .1-22.2 0-44.4 0-66.5ZM508 72.7h14v20.6c6.8-.1 13.7 0 20.5-.1v14.3H522v20.3c-4.7-.1-9.3-.1-14 0v-20.3h-20.5V93.2c6.8.1 13.7 0 20.5.1z" id="path1" style="fill:#ffffff"/><path fill="currentColor" stroke="currentColor" stroke-width=".09" d="M365.5 90.9c2.5 5 5.5 9.8 7.4 15.1-1.2 3.6-3.4 6.6-4.9 10-2.8 5.3-5.5 10.6-8.1 16-.7 1.2-1.4 2.5-2.2 3.6-5.1.6-10.3.1-15.4.2 7.7-15 15.4-30 23.2-44.9Zm-174.1 4.9c8.7-.2 17.4-.1 26.1 0 .2 4.6 0 9.2.2 13.9-8.8-.1-17.5-.1-26.3 0zm33.4 11.4h14.3c1.2 5.2 4.3 9.7 8.4 13 2.2.9 4.3 1.9 6.5 2.9 6.7 1.4 14.4.3 19.5-4.7 3.5-2.7 5.1-7.1 7-11.1 4.5-.4 9-.1 13.5-.1-.4 9.4-6.4 17.7-13.5 23.5-7.8 5.8-18.1 8.2-27.6 6.2-14.4-2.7-26.2-15.2-28.1-29.7Zm233.1 11.9 3-3.3c3.7 2.7 7.3 5.6 10.9 8.5-2 2.2-4.1 4.3-6.3 6.2-2.7 2.3-5.9 3.6-8.9 5.2q-4.2 1.2-8.4 2.1c0-4.7-.3-9.4.1-14 3.3-1.4 6.7-2.7 9.6-4.7Zm-266.6 3.2c8.7-.1 17.5-.3 26.1.1.4 4.4.2 9 0 13.4-8.6 0-17.3.1-26 0-.1-4.5 0-9-.1-13.5Zm29.7 35.6c8.6-4.7 19.2-5.4 28.5-2.3 5 1.9 9.4 5.2 13.3 8.8-3.3 3-6.6 6-9.8 9.1-.2 0-.7-.1-.9-.1-2.7-2.1-5.6-3.8-8.7-4.9-8.1-2.4-17.4.7-22.5 7.4-4.2 5-5 12-3.8 18.1 1.3 4.9 4.6 9.2 8.6 12.2 8 5.2 19.3 4.6 26.3-2 5.7-.1 11.4 0 17.2-.1-1.7 2.4-3.3 4.8-4.9 7.2-4.3 4.4-9.2 8.1-14.9 10.3-5 1.4-10.1 2.6-15.3 1.8-11-1.4-21.5-7.9-26.9-17.6-5.8-10.1-5.7-22.9-.8-33.4 3.7-5.8 8.3-11.3 14.6-14.5Zm192-.9c8.4-4.1 18.3-4.2 27-1.1 11.8 4.6 21.1 15.9 22.1 28.7h-13.6c-.7-1.7-1.3-3.4-2-5.1-2.1-3.8-4.7-7.6-8.9-9.4-4.4-2.8-9.8-3-14.8-2.1-8 1.8-14.1 8.8-15.9 16.6-4.7 0-9.3 0-14-.1.4-3.6 1.6-7.2 2.9-10.6 3.8-7.2 9.6-13.7 17.2-16.9Zm72.4 1.4c8.3-5.3 18.8-5.7 28-3.1 8.6 3 15.8 9.2 20.3 17.1 1.6 3.9 3.2 7.9 3.3 12.2-4.5 0-9-.1-13.6.1-1.2-3.5-2.6-7.1-5.1-10-6-6.8-16.5-9.1-24.8-5.2-6.1 2.7-10 8.8-11.7 15.1H468c1.1-10.9 7.9-20.9 17.4-26.2Zm-203.5-3h47.7c-2.2 4.4-3.6 9.1-5.2 13.7-14.2.3-28.3.1-42.4.2-.3-4.6-.3-9.3-.1-13.9Zm77.2 15.1c4.8-4.6 9.3-9.4 14.1-13.9.1 10.5 0 21 .1 31.6 3.8-.1 7.7 0 11.6 0-.1 4.5 0 9.1 0 13.7-3.9-.1-7.8 0-11.6-.1 0 7-.1 14.1 0 21.1h-14.2c0-17.5.1-35 0-52.4Zm-52.7 6.8c4.9.1 9.7 0 14.5.1-.9 3.4-2.1 6.8-3.3 10.1-1.1 2.6-2 5.3-3 8-2.3 6.5-4.5 13-6.9 19.4-.9 2.3-1.7 4.6-2.2 7-5.1-.1-10.3 0-15.4-.1 3.6-7.7 5.7-15.9 8.9-23.8 1.2-3.2 2.3-6.5 3.4-9.8 1.2-3.6 2.7-7.2 4-10.9Z" id="path2" style="fill:#ffffff"/><path fill="currentColor" stroke="currentColor" stroke-width=".09" d="M238.1 182.2c11.3-.1 22.5-.1 33.7 0 1.2 4.5.8 9.2 0 13.8-11.3-.2-22.5-.2-33.7-.1.1-4.6.1-9.2 0-13.7Zm88.6 19.7c4.7-4.5 9.2-9.4 14.1-13.6 3.4-.3 6.7-.1 10.1-.2q-.15 6.9 0 13.8c-8.1-.1-16.2-.1-24.2 0Zm66.2-8.7c4.8-.1 9.5-.1 14.3 0 .4 1.7.9 3.4 1.4 5 2.2 3.4 4.8 6.6 8.4 8.7 7.7 4.6 18.6 3.6 25-2.9 3.1-2.9 5-6.9 6.3-10.8 4.6 0 9.2-.1 13.7 0-.9 12.1-9.6 22.5-20.4 27.5-6.2 2.5-12.9 3.4-19.5 2.5-14.9-2.3-27.4-15-29.2-30Zm75 0c4.7-.1 9.3 0 14 0 1.2 4.5 3.9 8.5 7.2 11.9 2.9 1.8 5.9 3.5 9.3 4.2 3.3.5 6.6.2 9.8-.1 2.1-1 4.3-1.6 6.2-2.9 4.4-3.2 7.3-8 8.9-13.1h13.9c-.6 6.8-4 12.9-7.9 18.4-3.1 2.4-5.8 5.4-9.2 7.3-5.3 2.7-11.1 4.7-17.1 4.7-4.3.2-8.4-1.1-12.5-2.1-11.8-4.6-21-15.7-22.6-28.3Z" id="path3" style="fill:#ffffff"/></svg>