<svg xmlns="http://www.w3.org/2000/svg" viewBox="0 0 264 36"><path d="M55.38 59.87 43.72 81.6 0 0h23.32Zm-8.74-27.23L64.11 0h23.32L58.29 54.39ZM93.38 0h20.46l-.05 81.6h-20.4Zm29.15 0h20.46l-.06 81.6h-20.4Zm26.23 20.4V0h8.75a39.3 39.3 0 0 1 28.85 11.95Q198.3 23.9 198.31 40.8a39.3 39.3 0 0 1-11.95 28.85 39.3 39.3 0 0 1-28.85 11.95h-8.75V61.2h8.75q8.45 0 14.42-5.98a19.7 19.7 0 0 0 5.98-14.42q0-8.46-5.98-14.43a19.7 19.7 0 0 0-14.42-5.98ZM207.17 0h20.46l-.06 81.6h-20.4Zm26.23 0h32.06v20.4H233.4Zm0 61.2h32.06v20.4H233.4Zm0-30.6h32.06V51H233.4Zm101.96 13.12h20.51q-.93 15.03-11.89 25.94-11.95 11.95-28.85 11.95a39.3 39.3 0 0 1-28.86-11.95q-10.89-10.9-11.83-25.94h20.52q.87 6.6 5.77 11.48 5.94 6 14.4 6 8.45 0 14.45-6a19.5 19.5 0 0 0 5.78-11.48m-40.4-5.83h-20.52q.94-15.04 11.83-25.94A39.3 39.3 0 0 1 315.13 0q16.9 0 28.85 11.95 10.95 10.9 11.9 25.94h-20.52q-.88-6.6-5.78-11.54a19.8 19.8 0 0 0-14.45-5.95 19.6 19.6 0 0 0-14.4 5.95 19.8 19.8 0 0 0-5.77 11.54M364.8 0h20.4v81.6h-20.4Zm26.22 20.4V0h10.96Q412.54 0 420 7.46a24.6 24.6 0 0 1 7.46 18.01q0 10.61-7.46 18.08A24.5 24.5 0 0 1 402 51h-10.97V30.6h10.96q2.1 0 3.59-1.5 1.49-1.48 1.49-3.64 0-2.1-1.5-3.58a5 5 0 0 0-3.58-1.49Zm81.61 28.57L455.14 81.6h-23.31l29.14-54.39Z" style="font-size:40px;font-style:normal;font-weight:400;line-height:125%;letter-spacing:0;word-spacing:0;fill-opacity:1;stroke-opacity:1;font-family:Videopac;fill:#fff" transform="scale(.44 .44113)"/><path d="M481.14 53.92 463.9 21.74 475.55 0l43.72 81.6h-23.32l-3.9-7.28h-27.17l10.9-20.4Zm81.96 7.11V81.5q-15.03-.93-25.94-11.83-11.95-11.96-11.95-28.85 0-16.92 11.95-28.86Q548.06 1.05 563.1.12v20.46q-6.59.87-11.48 5.77-6 6-6 14.46 0 8.45 6 14.4 4.9 4.95 11.48 5.82m19.94-31.59a21 21 0 0 0-2.57-3.1 19.8 19.8 0 0 0-11.54-5.76V.12q15.04.93 25.94 11.83 2.91 2.91 5.13 6.18ZM600 63.48a42 42 0 0 1-5.13 6.18q-10.9 10.9-25.94 11.83V61.03a19.6 19.6 0 0 0 11.54-5.83q1.47-1.45 2.57-3.03Z" style="font-size:40px;font-style:normal;font-weight:400;line-height:125%;letter-spacing:0;word-spacing:0;fill-opacity:1;stroke-opacity:1;font-family:Videopac;fill:#fff" transform="scale(.44 .44113)"/></svg>