<svg xmlns="http://www.w3.org/2000/svg" viewBox="0 0 264 68"><path d="m0 .02 32.29 154.8L64.4.02H47.02l-14.73 87-14.9-87zm71.52 0h17.39v154.8H71.52zM104.46 0v154.83h17.4v-80l24.17 80h16.04l-19.35-73.2c10.75-6.45 13.91-14.9 13.91-14.9V17.56C149.51 1.75 137.23 0 137.23 0zm17.4 15.76h17.38v53.8h-17.39zM162.09.02h51.98v15.72H196.7v139.08h-17.4V15.75h-17.2zM310.26 0l-33.58 154.66v.16h17.22l3.64-20.86h24.3l3.47 20.86h17.4zm0 66.73 7.94 53.32h-17.18zM349.67.02h17.39v139.07h26v15.73h-43.39zm185.93 0h15.9l16.22 66.72L582.45.02H600l-24.34 91.06v63.74h-17.38V91.08zm-31.2 0c-19.76 0-26.11 17.54-26.11 17.54.16.24 0 116.4 0 119.71 2.62 18.82 26.11 17.55 26.11 17.55 26.07 0 26.06-17.55 26.06-17.55V17.55C523.72-.85 504.4.02 504.4.02m-8.72 17.53h17.4v121.52h-17.4zM220.86.02h17.55v137.25h17.55V.02h17.22v137.25s-5.63 17.55-25.33 17.55-26.99-17.55-26.99-17.55zM412.26 0v154.83h34.95c16.22-4.23 17.22-15.77 17.22-15.77l-.02-52.04c-1.22-6.75-6.77-6.97-6.77-6.97s-.02-1.88 0-3.37c6.13-.47 6.8-7.12 6.8-7.12s-.03-41.31 0-52.01C461.77 4.93 447.2 0 447.2 0zm17.44 17.66h17.5v51.9h-17.5zm-.05 67.6h17.55v53.8h-17.55z" style="fill-opacity:1;fill:#fff" transform="scale(.44 .43917)"/></svg>