<svg xmlns="http://www.w3.org/2000/svg" viewBox="2.1 2.84 974.75 616.64"><path d="M753.98 42.45q-6.98 0-14.06.5c-79.94 5.76-147.34 61.26-147.97 145.4q-.05 6.36 1.13 12.93.1.53.65.54 74.2.09 148.43-.03 24-.04 35.47-.25 1.2-.03.09-.48a17 17 0 0 0-3.87-.98 224 224 0 0 0-26.43-2.5c-18.91-.56-40.17-13.42-31.14-35.61 8.59-21.1 38.26-23.41 56.49-16.57 17.96 6.74 28.04 23.48 31.27 41.87.07.4.47.62.84.48a3122 3122 0 0 1 104.97-39.08.3.3 0 0 0 .17-.38C884.68 81.05 823.71 42.53 753.98 42.45m-158.31 172.1c-.42 0-.73.4-.63.8l2.93 11.96q.12.53.67.53h246.64q.96 0 .23-.63c-1.07-.93-3.07-1.72-4.08-2.3-5.83-3.36-16.23-10.09-22.83-10.1q-111.58-.22-222.93-.26M63.57 48.84a.87.87 0 0 0-.84 1.09l39.9 151.32c.1.38.44.65.84.65l114.48-.2c.57 0 .99-.53.85-1.08L181.78 49.5a.9.9 0 0 0-.84-.66zm43.68 165.75a.73.73 0 0 0-.71.92l3.11 11.79c.09.32.37.54.7.54h114.07c.47 0 .82-.44.7-.9l-2.8-11.79a.7.7 0 0 0-.71-.56z" style="fill-opacity:1;fill:#fff"/><path d="M314.6 48.84h98.2c.37 0 .64.35.55.7l-37.81 151.37a.6.6 0 0 1-.56.43h-97.32a.57.57 0 0 1-.56-.71l36.94-151.36c.06-.26.3-.43.56-.43" style="fill:#fff"/><path d="M441.05 48.84c-.67 0-1.2.53-1.2 1.2v150.6c0 .67.53 1.2 1.2 1.2h110.6c.67 0 1.2-.53 1.2-1.2V50.04c0-.67-.53-1.2-1.2-1.2zm-.41 165.75a.8.8 0 0 0-.79.79v11.68c0 .44.35.79.79.79h111.42c.44 0 .79-.35.79-.79v-11.68a.8.8 0 0 0-.79-.8z" style="fill-opacity:1;fill:#fff"/><path d="M368.18 227.84h-96.83a.68.68 0 0 1-.66-.84l2.94-11.9c.07-.3.35-.51.66-.51h96.95c.44 0 .77.42.66.85l-3.06 11.89a.7.7 0 0 1-.66.5" style="fill:#fff"/><path d="m228.56 241.3 2.99 12.19c.1.43-.23.85-.67.85H117.37a.7.7 0 0 1-.67-.51l-3.18-11.96a.7.7 0 0 1 .67-.87l113.7-.23c.32 0 .6.22.67.53" style="fill-opacity:1;fill:#fff"/><path d="M361.78 254.34h-97.06a.54.54 0 0 1-.53-.67l3.01-12.42c.06-.24.27-.4.52-.41h97.03c.35 0 .6.33.52.67l-2.96 12.42a.54.54 0 0 1-.53.4m79.02-13.49h111.06a.96.96 0 0 1 .96.96v11.58a.96.96 0 0 1-.96.96H440.8a.96.96 0 0 1-.96-.96V241.8a.96.96 0 0 1 .96-.96m423.99.23c4.88 3.39 9.69 8.36 13.77 12.68a.35.35 0 0 1-.26.59H609.97a.7.7 0 0 1-.66-.41l-5.9-12.08a.7.7 0 0 1 .63-1.01h260.01q.4 0 .74.23m-743.63 26.52h113.33c.3 0 .56.2.63.5l2.9 11.95c.1.41-.22.8-.64.8H124.3c-.3 0-.55-.2-.63-.48l-3.14-11.95a.65.65 0 0 1 .63-.82m234.02 13.25H258.1a.43.43 0 0 1-.42-.53l3.01-12.4a.43.43 0 0 1 .42-.32h97.17c.28 0 .48.26.42.53l-3.1 12.39a.4.4 0 0 1-.42.33m85.33-13.24h111.68a.66.66 0 0 1 .66.66v11.92a.66.66 0 0 1-.66.66H440.51a.66.66 0 0 1-.66-.66v-11.92a.66.66 0 0 1 .66-.66m188.8 12.84a79 79 0 0 1-10.45-12.25c-.17-.24 0-.57.3-.6h271.06q.55 0 .86.47l7.77 11.9a.57.57 0 0 1-.45.88H630.3q-.57 0-.99-.4m-501.04 13.4h112.49c.37 0 .7.25.78.6l2.9 11.9a.8.8 0 0 1-.78 1H131.48a.8.8 0 0 1-.77-.6l-3.22-11.9a.8.8 0 0 1 .78-1m220.21 13.5h-96.7a.53.53 0 0 1-.52-.66l3.05-12.44c.06-.24.28-.4.52-.4h96.75c.35 0 .6.32.52.66l-3.11 12.44a.5.5 0 0 1-.51.4m91.77-13.26h112.2a.4.4 0 0 1 .39.39v12.98a.4.4 0 0 1-.39.39h-112.2a.4.4 0 0 1-.39-.4v-12.97a.4.4 0 0 1 .39-.4m205.33.48q-.36-.24.05-.38.15-.06.35-.2a.6.6 0 0 1 .38-.13H905.6c.3 0 .56.18.66.46l4.62 12.45q.22.58-.41.58-120.5.03-241 0c-5.86 0-18.1-8.85-23.89-12.78m149.82 81.33c4.07-27.46-70.53-49.53-88.13-54.64q-2.26-.65.09-.65h206.26q.6 0 .7.59c3.63 19.16 3.05 38.08-.06 57.1-28.41 173.83-318.4 170.07-328.66-10.84a.7.7 0 0 1 .56-.76l104.92-26.18c.43-.1.84.23.83.67-.75 45.4 46.51 63.05 83.91 51.85 7.77-2.33 18.25-8.15 19.58-17.14m-660.37-55.29h209.86c.35 0 .61.34.53.68l-44.4 177.65a.55.55 0 0 1-.53.42H182.06a.55.55 0 0 1-.53-.41L134.5 321.28a.55.55 0 0 1 .53-.7m305.6.01h111.44a.8.8 0 0 1 .78.78v177.18a.8.8 0 0 1-.78.78H440.63a.8.8 0 0 1-.78-.78V321.37a.8.8 0 0 1 .78-.78" style="fill:#fff"/><path fill="currentColor" d="M976.64 3.09c-.01.85-.29 1.54-.29 2.35v545.08q0 .24.24.28.1 0 .25.04c-.34.97-.85 1.43-1.94 1.43q-72.53-.43-113.3-.13-15.54.12-19.75-.01l-79.75.17h-31.75q-86.62-.53-173.25 0h-23.25l-122.75-.17-9.75.16a3600 3600 0 0 0-85.25 0h-.25l-146-.16-97 .17-56.5-.17-5.25.17H3.33q-.48 0-.48-.46V3.29c0-.25.2-.45.45-.45h973.21q.03 0 .03.02.05.15.1.23M9.39 10.59q-.32.3-.32.76 0 266.8.06 533.7 0 .52.51.52l958.46-.02h.5q.42.22.74.2.55-.03.46-.58c-.43-2.63.05-5.63.05-7.67V11.53q0-.3-.19-.54a.5.5 0 0 1-.1-.4l.03-1.01q.02-.5-.47-.5H10.08q-.54 0-.73.52-.16.4.04.99m189.27 564.44c12.55 15.78 6.85 44.96-17.72 44.43-24.42-.53-30.66-33.48-13.32-47.1 8.61-6.77 23.8-6.45 31.04 2.67m-23.14 3.24c-8.94 4.54-9.05 20.75-3.56 27.72 4.47 5.66 14.1 6.27 18.96.19 8.73-10.91 2.15-36.81-15.4-27.91m182.76-10.55c32.99-1.84 33.27 54.33-1.19 51.57-29.27-2.35-28.62-49.91 1.19-51.57m3.9 42.44c15.6-2.92 14.02-36.33-5.16-33.08-16.19 2.75-15.01 36.86 5.16 33.08m244.19 6.4c-20.08-10.6-14.34-48.13 11.16-48.88 22.87-.67 31.14 28.3 18.14 43.8-7.21 8.6-19.65 10.17-29.3 5.08m9.03-6.38c21.33 4.55 21.31-39.04-.94-32.91-13.39 3.68-12.93 29.96.94 32.9m109.22-25.1c6.56 5.19 16.53 2.83 23.84 7.53 8.2 5.28 6.47 18.15-1.26 23.38-7.35 4.98-21.72 4.62-28.41-.88q-4.97-4.08-5.83-11.46a.72.72 0 0 1 .71-.8h8.36c.6 0 1.12.42 1.25 1 2.65 12.24 24.69 7.6 20-1.68-3.03-6-18.87-4.76-24.83-9.2-5.43-4.03-5.98-11.55-2.92-17.2 4.68-8.63 17.39-9.38 25.73-6.81 5.58 1.7 11.29 7.59 10.5 13.76a1.3 1.3 0 0 1-1.28 1.12h-7.64q-.65 0-.77-.63c-.4-2.26-1.02-4.28-3.21-5.42-5.07-2.62-17.03-2.36-14.74 6.5q.12.48.5.79m83.96-3.21c-.56 10.9 27.98 2.07 29.59 19.59 1.43 15.58-14.36 19.85-26.48 17.3-7.95-1.65-12.79-6.4-14.15-14.35q-.27-1.56 1.32-1.56h8.23c.32 0 .6.25.61.58.53 9.26 18.91 10.25 20.09 2.57 2.32-15.08-32.52-2-29.11-25.58 2.61-18.03 38.58-17.1 37.67 2.85q-.01.57-.6.57h-8.13q-.6 0-.75-.56-1.5-5.77-7.24-6.86c-4.09-.78-10.77.1-11.05 5.45M230.66 568.8h9.38a.8.8 0 0 1 .81.8v47.43a.8.8 0 0 1-.81.8h-9.38a.8.8 0 0 1-.81-.8V569.6a.8.8 0 0 1 .81-.81" style="fill:#fff"/><path fill="currentColor" d="M423.32 594.67q4.46 1.86 4.8 5.65.64 7.13 1.23 14.25.04.52.32.96l.89 1.42q.6.95-.52.92l-10.56-.34q-.7-.02-.77-.74-.53-6.87-.98-13.68-.27-4.2-4.04-4.33-6.15-.2-12.29.2-.55.04-.55.59v17.24c0 .57-.46 1.03-1.03 1.03h-8.22a.75.75 0 0 1-.75-.75v-47.47q0-.77.77-.77 9.48-.03 19.39 0c7.58.02 15.69-1.07 18.43 8.25q3.13 10.66-6.19 16.9-.58.4.07.67m-16.52-4.76c4.52-.01 10.7 1.64 12.71-4.13q1.42-4.12-1.64-7.5-.4-.44-.99-.44H401.6q-.75 0-.75.75v10.5q0 .6.58.63 2.73.2 5.37.19m42.05-4.57v31.72c0 .43-.35.77-.78.77h-9.69a.53.53 0 0 1-.53-.52v-47.33c0-.62.5-1.12 1.11-1.12l13.68-.11q.84 0 1.02.82l8.09 35.89q.2.88.71.14.5-.7.4-1.55-.04-.53.06-1.04l7.5-33.6q.11-.48.61-.5l14.36-.1c.25 0 .46.2.46.45v47.83q0 .75-.75.75h-8.5a.75.75 0 0 1-.75-.75v-33.67a.36.36 0 0 0-.72-.08l-7.71 33.93q-.15.68-.85.67l-9.18-.08c-.25 0-.48-.23-.56-.56l-7.4-32.03q-.58-2.5-.58.07m109-6.58v38.2c0 .48-.38.87-.86.87h-8.28a.86.86 0 0 1-.86-.85v-38.26a.86.86 0 0 0-.86-.86l-13.05-.06a.86.86 0 0 1-.86-.82l-.31-7.18a.86.86 0 0 1 .85-.9l38.5-.22c.5 0 .88.4.86.9l-.36 7.28c-.03.45-.4.8-.84.8l-13.09.25a.86.86 0 0 0-.84.85M23.6 603.56l9.9-34.42c.05-.18.22-.3.41-.3h9.63c.3 0 .5.28.4.56l-16.58 48.2a.4.4 0 0 1-.4.29l-8.1-.14a.4.4 0 0 1-.4-.28L2.12 569.4c-.1-.28.1-.56.4-.56h9.65c.18 0 .35.12.4.3l10.22 34.42a.42.42 0 0 0 .81 0m26.07-34.72h9.36a.8.8 0 0 1 .82.82v47.36a.8.8 0 0 1-.82.82h-9.36a.8.8 0 0 1-.82-.82v-47.36a.8.8 0 0 1 .82-.82m19.1.95c0-.6.48-1.08 1.07-1.08l20.64-.03c10.5-.02 19.05 9.93 19.07 22.22v4.66c.02 12.3-8.48 22.28-18.99 22.3l-20.64.03c-.59 0-1.06-.47-1.07-1.06zm9.97 9.08.06 28.88c0 .62.5 1.12 1.12 1.12l9.22-.02c5.52 0 10-5.49 9.98-12.23l-.02-6.7c-.01-6.74-4.5-12.2-10.02-12.2l-9.22.03c-.62 0-1.12.5-1.12 1.12m49.11 18.83v10.28c0 .47.39.86.86.86h24.28c.47 0 .86.38.86.86v7.28c0 .47-.38.86-.86.86h-35.28a.86.86 0 0 1-.86-.86V569.7c0-.48.39-.86.86-.86h34.34c.48 0 .87.4.85.89l-.28 7.16a.86.86 0 0 1-.85.83l-23.07.17a.86.86 0 0 0-.85.86l.01 8.23c0 .47.39.86.86.86h21.26c.48 0 .86.38.86.86l.02 7.28c0 .47-.39.86-.86.86h-21.29a.86.86 0 0 0-.86.86m151 2.83v-30.44q0-1.25 1.25-1.25h8.12q.63 0 .63.63v47.73q0 .68-.67.66l-8.68-.08a1 1 0 0 1-.87-.51l-18.18-31.3a.32.32 0 0 0-.6.16v30.96c0 .41-.34.75-.75.75h-9.72a.53.53 0 0 1-.53-.53v-48.06c0-.22.18-.4.4-.4l9.87-.01c.48 0 .91.25 1.15.65l18.11 31.17q.47.82.47-.13m30-2.83v19.07c0 .46-.37.84-.83.86l-9.28.27a.86.86 0 0 1-.89-.86V569.7c0-.48.38-.86.86-.86h33.36c.5 0 .88.4.86.9l-.37 7.2c-.03.45-.4.8-.85.8l-22 .14a.86.86 0 0 0-.86.86v8.24c0 .47.38.86.86.86H329c.48 0 .87.39.86.87l-.05 7.28c0 .47-.39.85-.86.85h-19.24a.86.86 0 0 0-.86.86m196 10.58-2.93 9.12a.6.6 0 0 1-.6.44h-9.54a.63.63 0 0 1-.59-.84l17.04-47.74a.6.6 0 0 1 .59-.42h10.62c.27 0 .51.16.6.42L536.46 617c.13.4-.16.82-.59.83h-9.36a.6.6 0 0 1-.59-.42l-3.05-9.14a.6.6 0 0 0-.59-.43h-16.83a.6.6 0 0 0-.6.44m3.41-10.12a.5.5 0 0 0 .48.67l10.42.02c.35 0 .59-.34.48-.67l-5.18-15.64a.51.51 0 0 0-.97 0zm69.39-29.32h9.4a.8.8 0 0 1 .8.8v47.4a.8.8 0 0 1-.8.8h-9.4a.8.8 0 0 1-.8-.8v-47.4a.8.8 0 0 1 .8-.8m100.2 30.63v-30.2c0-.24.2-.43.43-.43h10.14c.24 0 .43.2.43.43v48.13c0 .24-.2.43-.43.43h-9.97a.4.4 0 0 1-.37-.2l-18.51-31.85a.43.43 0 0 0-.8.22l.12 31.4c0 .25-.2.44-.43.44h-9.18a.43.43 0 0 1-.43-.43v-48.13c0-.24.2-.43.43-.43l9.59-.01q.25.01.37.2l17.81 30.65a.43.43 0 0 0 .8-.22m98.39-10.29 8.32-19.54c.2-.48.68-.79 1.2-.8h9.82q1.19 0 .62 1.04a736 736 0 0 0-14.39 28.15c-2.06 4.27-.95 14.24-.97 19.22 0 .32-.26.58-.59.58h-8.67q-.67 0-.69-.65c-.16-4.92 1.28-15-.84-19.02a2308 2308 0 0 0-15.45-28.84.32.32 0 0 1 .28-.47l9.24-.02c1.92 0 2.2.8 2.94 2.3a470 470 0 0 1 8.32 18.06.47.47 0 0 0 .86-.01m89.61-10.59v38.49c0 .41-.34.75-.75.75h-8.5a.75.75 0 0 1-.75-.74v-38.5a.75.75 0 0 0-.75-.75h-13.49a.75.75 0 0 1-.75-.75l-.01-7.5c0-.42.33-.75.75-.75h37.5c.41 0 .75.33.75.75v7.5c0 .41-.34.75-.75.75h-12.5a.75.75 0 0 0-.75.75m30-.04v8.58c0 .4.32.7.71.7h21.58c.4 0 .71.33.71.72v7.58c0 .4-.32.7-.71.7h-21.58c-.4 0-.71.33-.71.72v10.58c0 .4.32.7.71.7h24.57c.4 0 .71.33.71.72l.01 7.58c0 .4-.32.7-.71.7h-34.83a.7.7 0 0 1-.71-.7v-47.58c0-.4.32-.71.71-.71h33.83c.4 0 .71.32.71.7v7.59c0 .4-.32.7-.71.7h-23.58c-.4 0-.71.33-.71.72m57.64 27.31 7.92-35.82c.16-.7.78-1.2 1.5-1.2h13.31q.63 0 .63.63v47.59c0 .43-.35.78-.78.78l-8.57-.01q-.65 0-.65-.65v-33.52a.36.36 0 0 0-.71-.08l-7.44 33.55a.9.9 0 0 1-.88.7h-9.19a.7.7 0 0 1-.67-.53l-7.56-33.02q-.55-2.38-.55.06v31.88q0 1.62-1.63 1.62h-8.75q-.62 0-.62-.63v-47.62q0-.75.75-.75h14.53c.28 0 .52.2.58.46l8.34 36.56q.23.98.44 0" style="fill:#fff"/></svg>