<?xml version="1.0" encoding="UTF-8" standalone="no"?><svg viewBox="0 0 1101.6 445.61" version="1.1" id="svg1" xmlns="http://www.w3.org/2000/svg" xmlns:svg="http://www.w3.org/2000/svg"><text x="214.22" y="106.58" fill="currentColor" stroke="currentColor" stroke-width="7.25" font-family="TrasksHand" font-size="5.8" transform="translate(-65.25 -52.55)" id="text1" style="fill:#ffffff"><tspan x="214.22" y="106.58" fill="currentColor" fill-opacity=".4" stroke="none" id="tspan1" style="fill:#ffffff">John Loreth 2022</tspan></text><g class="currentLayer" transform="matrix(2.8282 0 0 2.80962 -15.94 -12.4)" id="g1" style="fill:#ffffff"><title id="title1">Layer 1</title><path fill="currentColor" fill-rule="evenodd" d="M118.19 4.62c-5.56.56-10.34 2.37-15.8 5.97-1.36.9-3.88 3.04-5.6 4.76l-3.1 3.1h-2.12c-3.92 0-7.56 2.15-9.97 5.87-1.46 2.26-1.46 2.26-3.46 2.48-1.1.12-3.13.38-4.5.58-2.02.3-2.85.27-4.43-.18-1.34-.38-4.07-.6-8.7-.72-5.07-.12-7.06-.3-8.06-.72a7 7 0 0 0-2-.56c-.43 0-1.21-.7-2-1.76-3.25-4.44-5-5.02-14.27-4.78-3.87.1-7.75.13-8.62.08-4.79-.28-7.28-.07-9.02.78C7.49 23.9 2.23 45.17 8.1 53.7c3.64 5.28 11.76 7.4 18.14 4.74 3.7-1.54 5.75-.21 3.2 2.08-1.48 1.33-5.23 7.1-7.04 10.82-2.74 5.65-3.85 9.92-5.03 19.34a326 326 0 0 1-.88 6.4 1722 1722 0 0 0-1.92 13.48l-.89 6.21-2.22 15.62c-1.26 8.74-1 11.95 1.36 16.94 6.38 13.47 26.52 15.73 37.17 4.18 3.63-3.93 5.45-7.82 6.42-13.7.8-4.84.28-4.45 6.13-4.7 9.35-.4 17.32-2.9 24.58-7.76l2.13-1.42 1.6 1.75a23.4 23.4 0 0 0 27.19 5.17l1.81-.88 1.74.88c6.79 3.44 16.37 2.8 23.48-1.58 1.32-.82 1.19-1 2.03 2.9 3.04 14.03 13.75 24.62 28.24 27.9 18.88 4.28 33.69-6.32 33.7-24.13v-3.49l1.86.26c14.7 2.05 30.73-3.34 42.04-14.14l1.48-1.41 3.66 3.7c11.28 11.38 29.52 15.79 41.62 10.05 1.22-.58 1.32-.57 2.95.2 6.02 2.87 14.26 2.86 20.46-.02l2.1-.98 1.63.82c5.55 2.78 13.86 2.76 20.2-.04l2-.89 1.6.87c5.34 2.9 14.84 2.81 20.75-.18 8.57-4.34 12.27-10.22 13.89-22.05a3223 3223 0 0 1 3.89-27.59l1.08-7.63c.65-4.52 1.08-7.58 1.72-12.24.29-2.05 1.11-7.72 1.84-12.6 2.57-17.31 1.62-22.81-4.99-28.86-6.19-5.65-17.63-7.01-25.84-3.06-1.3.63-1.37.62-2.84-.09-7.9-3.83-20-2.3-26.33 3.34-4.37 3.9-8 10.3-8 14.15 0 .63-.15 1.92-.33 2.87-.19.94-.6 3.59-.93 5.88-.72 5.04-.6 4.93-3.8 3.01-16.85-10.12-41.29-6.96-57 7.37-3.4 3.11-3.04 3.08-5.16.47-5.66-6.98-18.63-13.42-27-13.42-.84 0-2.03-.1-2.65-.23l-1.13-.23.23-2.7c1.33-15.56-14.47-27.35-29.47-21.97-9.08 3.25-14.8 10.2-16.13 19.63-1.61 11.45-1.31 10.84-4.53 9.22-5.72-2.86-9.75-3.7-18.38-3.81-6.16-.09-6.39-.12-6.28-.8 3.35-22.47-12.43-39-35.07-36.73m13.15 7.43c14.43 5.27 20.28 21.87 12.63 35.87-.7 1.26-1.45 2.66-1.69 3.1-.58 1.1-.15 1.39 1.21.83 10-4.1 20.4-4.77 27.77-1.79 4.74 1.91 8.2 4.12 11.21 7.12 2.98 2.98 2.95 3 3.67-2.23 1.66-12.21 2.36-17 2.72-18.57 2.95-13.12 19.64-18.7 28.57-9.56 3.84 3.93 4.87 7.89 3.88 14.91-1.14 8.05-1.14 7.39.03 7.1 12.97-3.27 29.14 4.27 36.68 17.1 1.36 2.3 2.85 3.48 2.85 2.23 0-.49 3.34-4.42 5.83-6.86 6.4-6.26 13.48-10.09 22.92-12.38 2.65-.64 14.04-.64 16.68 0 7.97 1.94 15.28 6.2 19.21 11.2 2.02 2.56 2.86 2.57 3.21.04l.83-6.03c2.49-18.37 2.93-20.34 5.38-23.9 5.52-8 18.37-10.14 25.1-4.17 1.3 1.15 1.2 1.16 3.47-.33 8.6-5.67 20.14-3.22 24.2 5.14 1.28 2.65 1.55 7.84.68 13.14-.69 4.19-1.58 10.34-3.5 24.05l-1.05 7.45c-.83 5.78-1.16 8.08-1.72 12.16-3.69 26.47-4.02 28.33-5.76 31.63-5 9.51-18.69 12.5-25.94 5.66-.97-.92-1.93-.94-2.73-.07-4.13 4.58-14.2 5-20.17.86-1.89-1.3-3.08-1.47-3.92-.55-2.64 2.92-11.18 4.58-15.72 3.05-1.79-.6-5.2-2.6-5.63-3.29s-1.52-.4-3.45.87c-3.39 2.23-5.3 2.78-10.12 2.93-13.4.41-25.65-6.66-31.69-18.29-1.34-2.59-1.73-2.7-3.09-.85-16.53 22.37-49.87 25.72-64.54 6.48-1.82-2.38-2.41-2.27-2.7.5l-.5 4.52-.27 2.4h1.73c11.84.03 18.68 12.4 13.03 23.56-7.39 14.58-32.7 11.8-43.23-4.76-4.62-7.26-5.71-14.52-3.95-26.08.54-3.5 1.07-7.24 2.15-14.9.56-4 .6-4.32 1.45-10.12 1.51-10.45 1.52-9.94-.13-9.94-1.58 0-3.15 1.72-3.42 3.77-.12.95-.44 3.25-.71 5.1l-1.07 7.45c-.31 2.25-.72 5.04-.9 6.22s-.57 3.96-.88 6.2c-.96 7.1-2.46 10.52-6.07 13.83-6.58 6-16.67 6.51-22.4 1.11-1-.95-1.66-.93-3.05.11-6.97 5.23-16.37 4.78-22.04-1.05-1.71-1.76-3.76-5.6-3.76-7.04 0-1.64-.89-1.43-3.6.87-4.27 3.6-11.81 8.15-13.5 8.15-.28 0-.65.13-.84.3-.18.15-1.3.56-2.46.89-6.72 1.89-13.43 2.22-17.63.87-2.93-.94-2.76-1.1-3.37 3.16-1.6 11.43-2.43 13.92-5.76 17.55-9.78 10.66-27.45 5.78-28.33-7.82-.19-2.93-.09-3.77 2.9-24.54.3-2.04.79-5.48 1.08-7.63.49-3.5.89-6.28 1.96-13.66.19-1.27.6-4.06.9-6.21 1.95-13.54 10.36-27.55 19.41-32.33 1.1-.58 1.3-1.78.35-2.05a9.4 9.4 0 0 0-4.85-.26c-3.32.61-7.34-.54-9.04-2.58-.66-.8-1.3-.73-2.63.26-7.78 5.8-16.57 1.47-16.57-8.18 0-7.18 3.78-16.78 7.56-19.18 1.62-1.03 5.88-1.35 6.73-.5.5.5 2.48.52 2.98.02s4.36-.5 4.85 0c.55.55 1.73.47 3.09-.21 3.57-1.78 8.58.87 9.11 4.8l.2 1.47 2-.04c1.96-.05 3.5.43 5.42 1.68.9.6 1.04.59 2.94-.06 1.91-.65 2.1-.65 4.3-.07 1.65.43 2.54.5 3.2.25q2.6-.99 5.83.78l2.05 1.13 1.9-.82c1.41-.61 3.13-.92 6.64-1.22l4.75-.39.72-1.95c1.84-4.97 6.12-7.3 9.83-5.37 2.08 1.08 2.53.95 3.89-1.05 6.81-10.05 21.64-15.03 32.7-10.99m-12.62 5.48-1.95.58c-17.9 5-23.7 30.08-8.69 37.58 1.88.94 1.92 1.16.53 2.75-2.33 2.64-2.55 3.66-5.16 22.84-.3 2.24-.7 4.88-.87 5.85-.18.98-.42 2.66-.53 3.73s-.36 2.91-.55 4.08c-.18 1.17-.58 3.97-.89 6.21-.3 2.25-.8 5.7-1.11 7.65-1.38 8.72.94 12.8 7.51 13.23 6.6.42 11.21-3.91 12.03-11.3.12-1.07.37-2.9.55-4.08.19-1.17.6-3.96.9-6.2l1.08-7.64 1.05-7.45c.3-2.15.7-4.86.88-6.03.18-1.18.59-4.13.9-6.57s.72-5.3.9-6.36c.56-3.14.42-5.76-.37-7.3-.97-1.9-.9-2.2.6-2.69 16.58-5.47 20.31-29.03 5.88-37.16-2.35-1.32-10.66-2.44-12.69-1.72M19.76 29.45c-2.08 2.47-3.8 8.38-4.04 13.9l-.16 3.78 1.06 1.19c2.25 2.51 6.79 1.48 10.3-2.34 1.5-1.63 4.31-6.96 4.31-8.17 0-1.16.72-1.96 1.75-1.96 1.5 0 1.67-.94.38-2.06-.9-.8-1.06-1.2-1.06-2.58 0-1.79-.74-2.82-2.02-2.82-1.7 0-2.48 2.8-1.38 4.93 2.03 3.91-6.15 15.35-9.18 12.84-1.14-.94-.94-5.4.38-8.41.27-.62.49-1.25.49-1.4 0-.16.74-1.76 1.64-3.56 1.89-3.75 1.86-4.4-.18-4.4-1.12 0-1.58.22-2.3 1.06m17.19-.39c-1.16 2.15 1.03 4.3 2.6 2.56 1.15-1.27.64-3.03-.92-3.16-1.01-.08-1.4.05-1.68.6m53.28.31c-.63.9-1.65 3.89-2.51 7.36l-.91 3.58a18 18 0 0 0-.55 3.56c0 2.97-3.67 5.15-5.33 3.16-.44-.54.15-2.62 1.99-7 1.28-3.04.09-4.8-2.21-3.3-.6.4-1.24.5-2.1.33-4.63-.86-8.32 2.38-9.22 8.12-.34 2.18-2.57 3.31-4.1 2.08-.88-.72-.8-1.68.57-6.09 1-3.22 1.06-4.5.25-4.76-1.55-.5-2.4.3-3.44 3.22-2.75 7.77-6.54 10.8-4.27 3.42 1.8-5.82 1.76-5.68 1.26-6.29-.48-.58-2.68-.78-3-.27a73 73 0 0 0-2 7.3 4.7 4.7 0 0 1-2.97 3.73c-1.72.66-1.87.4-1.1-1.88.7-2.05.25-4.33-1.16-5.97q-.53-.6-.28-1.6c.6-2.44.49-2.75-1.1-2.86-1.9-.14-2.7.6-2.56 2.4.17 2.35-4.22 8.8-6.69 9.83-1.46.6-3.47-.18-3.15-1.23l.91-3.09 1.11-3.74c.78-2.58-.4-3.96-2.45-2.86-.72.38-2.04 4.8-2.78 9.3-.48 2.9 5.3 5.27 7.8 3.2.49-.4.78-.4 1.91.05 1.73.7 10.4.63 11.25-.07.46-.38.78-.35 1.8.13 1.76.84 3.6.43 5.08-1.13.64-.68 1.2-1.18 1.24-1.1l.6 1.18c.83 1.6 5.4 2.16 6.99.85.37-.31.76-.26 1.67.23 1.8.97 3.94.56 5.45-1.04 1.4-1.48 1.86-1.59 1.86-.43 0 1.79 5.01 2.67 7.03 1.25.75-.54.9-.53 2.11.08 2.25 1.15 5.38.78 7.1-.84 1.57-1.47.53-2.64-1.22-1.38-2.6 1.88-4.61 1.01-3.97-1.73 1.43-6.06 2.22-8.47 3.4-10.37 1.22-1.98 1.76-4.28 1.25-5.4-.6-1.32-2.6-1.29-3.56.07m112.92.05c-1.68.43-4.18 2-5.29 3.31-1.87 2.21-2.32 3.84-3.54 12.52a1853 1853 0 0 1-2.15 15.09c-.29 2.05-.68 4.68-.86 5.85-.18 1.18-.42 2.85-.53 3.73l-.53 3.9-.9 6.4c-.31 2.24-.73 4.95-.92 6.03-3.95 22.08 12.22 38.83 34.2 35.45 37.62-5.8 46.1-58.34 10.67-66.12-10.7-2.36-17.86 1.94-17.85 10.72 0 5.5 2.6 7.84 9.37 8.4 17.39 1.43 12.8 27.52-4.85 27.52-8.93 0-13.34-6.14-11.72-16.33.23-1.46.68-4.5 1-6.74.3-2.25.72-5.12.92-6.39s.5-3.43.68-4.8.57-4.23.88-6.38c.3-2.15.7-5.1.88-6.57.18-1.46.48-3.62.68-4.79 2.42-14.79 1.99-17.95-2.77-20.4-1.03-.54-5.84-.8-7.37-.4m141.67.93a11.3 11.3 0 0 0-6.24 8.51c-.34 2.43-1.2 8.27-1.96 13.5a244 244 0 0 0-.84 6.3c-.18 1.5-.4 3.02-.51 3.36s-.36 1.98-.56 3.64-.61 4.7-.91 6.74-.78 5.33-1.05 7.28l-1.07 7.45c-.31 2.15-.7 4.95-.86 6.21-.17 1.27-.46 3.35-.67 4.62-.2 1.27-.62 4.22-.94 6.56-.31 2.35-.72 5.13-.91 6.19-1.43 8.13 4.09 13.21 11.82 10.86 5.25-1.59 7.06-4.4 8.22-12.79.33-2.34.74-5.13.92-6.2s.57-3.88.88-6.22c.3-2.34.79-5.85 1.07-7.8l1.06-7.46c.3-2.15.69-4.86.88-6.03.18-1.18.42-2.93.54-3.9.1-.98.35-2.82.53-4.09l.9-6.21c.3-2.15.72-4.94.92-6.21s.51-3.43.69-4.8.57-4.23.88-6.38c.98-6.86.99-7.1.38-8.95-1.52-4.56-8.09-6.65-13.17-4.18m23.61.26a10.4 10.4 0 0 0-5.44 6.44c-.47 1.64-.7 3.04-1.7 10.51-.34 2.58-1.09 7.87-1.9 13.49-.3 2.05-.72 5-.92 6.56s-.44 3.08-.52 3.37-.32 1.9-.52 3.55c-.2 1.66-.6 4.62-.88 6.57L354.38 96c-.29 1.96-.68 4.83-.87 6.4-.2 1.56-.53 3.71-.76 4.79-2.33 11.1 3.03 17.5 11.89 14.18 5.35-2 6.63-4.52 8.2-16.14.88-6.56 1.58-11.5 1.95-13.84.18-1.17.42-2.93.53-3.9.11-.98.36-2.73.55-3.9.18-1.18.59-3.97.9-6.22 1.12-8.26 1.6-11.58 1.94-13.66.19-1.17.51-3.4.72-4.97s.6-4.44.88-6.39.68-4.83.87-6.4c.2-1.58.52-3.72.72-4.76 1.8-9.53-4.96-14.84-13.48-10.58M78.96 39.74c.31.5-1.68 4.21-3.2 5.98-2.54 2.94-4.06.87-2.06-2.81 1.4-2.58 4.48-4.43 5.26-3.17m-31.4 3.8c0 2.13-2 4.45-3 3.46-.81-.82-.7-1.37.76-3.38 1.3-1.81 2.24-1.84 2.24-.08M61.22 55.7C48.2 58.56 36.81 68.44 32.76 80.39c-1.48 4.38-1.35 3.7-3.14 16.15l-.89 6.03c-.2 1.27-.5 3.5-.7 4.97s-.6 4.34-.9 6.4c-.3 2.04-.69 4.92-.87 6.38-.37 2.98-.75 5.55-1.64 11-1.99 12.2.39 17.01 8.21 16.6 6.11-.32 9.74-3.93 10.79-10.74.36-2.32.57-3.86 2-14.2.3-2.15.7-4.86.9-6.03s.5-3.33.69-4.8.56-4.25.84-6.2c1.14-7.8 1.7-11.84 2-14.38 1.3-10.78 8.96-17.9 18.1-16.81 16.09 1.93 12 26.35-4.64 27.65-8.04.63-12.4 4.68-12.4 11.55 0 7 5.85 9.77 16.15 7.62 36.24-7.54 43.03-58.48 8.8-66-3.47-.77-11.05-.7-14.84.13m91.4 0c-11.25 2.7-20.64 11.23-24.06 21.84-.69 2.15-1.34 5.79-2.37 13.31-.31 2.25-.72 5.04-.9 6.21-.2 1.17-.52 3.4-.73 4.97l-.89 6.57c-1.3 9.52 1.12 13.48 8.23 13.48 7.28 0 10.4-4.11 11.84-15.61.19-1.47.57-4.26.86-6.21.91-6.2 1.67-11.64 1.98-14.2 1.4-11.53 14.22-15.98 18.1-6.29.53 1.36.33 3.86-1.04 12.68l-.9 6.2-1.08 7.64-1.07 7.63c-.3 2.25-.7 4.85-.89 5.8-2.72 13.7 5.25 26.7 18.07 29.48 10.93 2.37 18.13-1.75 18.14-10.36.01-5.84-2.48-8.17-9.35-8.77-6.2-.53-8.17-4.05-6.81-12.2.28-1.68.77-4.98 1.08-7.32l.9-6.39c.18-1.17.58-3.97.88-6.21.73-5.35 1.54-11 1.96-13.7 1.68-10.69-2.26-20.15-10.63-25.52-5.48-3.5-14.17-4.74-21.32-3.02m138.24-.15c-13.51 3.13-24.21 12.1-28.77 24.11-8.34 21.96 4.08 42.37 25.87 42.52 14.42.1 17.35-18.17 3.15-19.64-7.42-.77-11.53-4.93-11.56-11.7-.04-14.85 20.45-22.44 26.71-9.9 1.87 3.73 1.85 4.09-1.21 24.63-.96 6.42-1.07 10.5-.33 12.04 4.22 8.9 19.33 4.13 19.33-6.1 0-.68.22-2.6.5-4.3.28-1.68.78-4.98 1.1-7.32l1.08-7.45c2.26-15.07-1.04-25.01-10.67-32.12-6.2-4.58-17.12-6.65-25.2-4.77" class="selected" id="path1" style="fill:#ffffff"/></g></svg>