<svg xmlns="http://www.w3.org/2000/svg" id="Camada_1" x="0" y="0" preserveAspectRatio="xMinYMid" viewBox="0 0 519 157.1"><style id="style5104" type="text/css">.st5{fill:#007cb3}.st6{fill:#f0973a}.st7{fill:#007cb4}</style><path id="XMLID_99_" d="M117.4 15.6c-5.4 7.9-49.1 78.5-59.9 95h-1.4C41.2 87.7 4.7 24.3 0 16.7L30.7 0c3 6.4 23.5 49.6 27.9 59.2C62.9 49.5 85.2 4.6 87.2 0z" class="st5" style="fill:#fff;fill-opacity:1"/><path id="XMLID_34_" d="M127 95.9a13.9 13.9 0 1 1-27.8 0 13.9 13.9 0 0 1 27.8 0" class="st5" style="fill:#fff;fill-opacity:1"/><path id="XMLID_89_" d="M156.9 84.1c11.4.4 23.8-2.8 23.8-8.3 0-2.3-2-3.7-11.5-9.1-7.4-4.2-15.9-10.1-15.9-19.9 0-13.1 17.4-27.4 47.1-30l3.2 19.6c-14.6 0-22 2.5-22 7.3 0 2.8 3.7 4.6 11.4 8.3 6.2 3 16.3 8.3 16.3 18.9 0 12.9-13.5 29.3-49.1 33.4z" class="st6" style="fill:#fff;fill-opacity:1"/><path id="XMLID_91_" d="M212.3 97.1c2-4.7 25.6-65.9 32.4-80.8h1.2c7.1 11.6 24.5 40.3 28.1 46.3 4.6-6.9 21.1-34.3 27.3-44.4h1.2c8.1 17.3 31.6 70.5 34.8 76.9l-23.7 10.5c-3.7-9.4-14.9-39.1-16.2-42.3-1.4 2.1-16.4 25.2-25.2 37.5H271c-9-13.6-21.3-33.5-23.2-37-2 6.1-10.4 36.3-12.5 41.8z" class="st6" style="fill:#fff;fill-opacity:1"/><path id="XMLID_93_" d="M376.1 66.7c0 11.7.4 32.7.5 35.4h-27.2c.2-5.2.4-32.6.4-35.6V53.8c0-2-.4-32.1-.4-34.9h27.2c-.1 2.1-.5 21.1-.5 35.1z" class="st6" style="fill:#fff;fill-opacity:1"/><path id="XMLID_95_" d="M426.8 18.9c-.1 2.7-.6 26.8-.6 41.6v21.4c2.8 0 16.6 0 26-.5l.1 21.8c-2.8 0-43.4-1.2-52.8-1.2.4-6.2.4-31.3.4-34.1V52.4c0-1.9-.2-31.3-.5-33.5z" class="st6" style="fill:#fff;fill-opacity:1"/><path id="XMLID_97_" d="M519 103.2c-4.2 0-46.5-1.2-52.6-1.2.4-6.2.4-31.3.4-34V52.4c0-1.9-.2-30.1-.4-33.5 6.6 0 45.9-1.8 50.2-2.1l.5 19.3c-4.3 0-22.7.6-24.8.6v15.5c2.3 0 15.8-.6 21-1.1l.4 18.7c-3.2 0-18.7-.5-21.3-.5v13.9c3 0 20.7.2 26.2-.2z" class="st6" style="fill:#fff;fill-opacity:1"/><path id="XMLID_86_" d="M316.2 147.5h-8.5v2.7h4.2v.2c-.2.7-.4 1.3-.8 1.7a3 3 0 0 1-1.4 1.1c-.6.2-1.2.4-2 .4-.7 0-1.3-.2-1.9-.5-.5-.3-1-.7-1.4-1.2s-.7-1.1-.8-1.8-.3-1.4-.3-2.1c0-.8.1-1.5.2-2.2s.4-1.3.8-1.7a3 3 0 0 1 1.4-1.1c.6-.2 1.2-.4 2-.4.7 0 1.3.2 1.9.5s1 .7 1.4 1.2l.3.6h4.4c0-.1 0-.1-.1-.2a7.6 7.6 0 0 0-3.9-4.7c-.9-.5-2.1-.7-3.4-.7-1.4 0-2.6.2-3.7.7s-2.1 1.1-2.9 1.9-1.4 1.8-1.9 2.8c-.4 1.1-.7 2.3-.7 3.5s.2 2.3.5 3.3.8 2 1.4 2.7c.6.8 1.5 1.4 2.4 1.9s2.1.7 3.5.7c1.3 0 2.6-.2 3.7-.7s2.1-1.1 2.9-1.9 1.4-1.7 1.9-2.8.7-2.3.7-3.5c.1-.1.1-.2.1-.4" class="st7" style="fill:#fff;fill-opacity:1"/><path id="XMLID_51_" d="M16.5 140.6v16.3h-4.4v-16.3H6.6v-4h15.5v4z" class="st7" style="fill:#fff;fill-opacity:1"/><path id="XMLID_53_" d="m57.3 136.6-2.3 6.2c-.9 2.4-1.7 4.7-2.6 7s-1.7 4.7-2.6 7h-4.6l-7-20.3h5l4.9 16.1h.1q0-.6.3-1.8.15-1.2.6-2.7c.2-1 .5-2.2.8-3.5s.7-2.6 1.1-4l1.2-4.1h5.1z" class="st7" style="fill:#fff;fill-opacity:1"/><path id="XMLID_55_" d="M98.1 156.9v-20.3h4.4v16.3h7.9v4z" class="st7" style="fill:#fff;fill-opacity:1"/><path id="XMLID_57_" d="M128.4 156.9v-17.5h9.9v3.3h-6v3.8h5.7v3.2h-5.7v4.1h6.2v3.3h-10.1z" class="st7" style="fill:#fff;fill-opacity:1"/><path id="XMLID_59_" d="m165.7 156.9-1-3.4h-5.8l-1 3.4h-4.3l6.4-17.5h4l6.1 17.5zm-4.2-14c-.1.3-.2.8-.2 1.3-.1.5-.2 1-.3 1.6s-.2 1.1-.4 1.7c-.1.6-.2 1-.4 1.5l-.3 1.3h3.9z" class="st7" style="fill:#fff;fill-opacity:1"/><path id="XMLID_62_" d="M189.6 156.9h-3.8v-17.5c2.1-.1 4.3-.1 6.5-.1.9 0 1.8.1 2.5.4s1.3.6 1.8 1.1.9 1 1.2 1.7a5.2 5.2 0 0 1 .1 3.7c-.2.5-.4 1-.8 1.4q-.45.6-1.2 1.2c-.5.3-1 .6-1.5.8l4.9 7.2h-4.8l-3.8-6.4h-1.1zm0-9.6c.3 0 .6.1.9.1h.9c.8 0 1.5-.3 2-.7s.7-1 .7-1.7c0-.3-.1-.6-.2-.9s-.3-.5-.5-.8c-.2-.2-.5-.4-.8-.5s-.7-.2-1.2-.2h-1.8z" class="st7" style="fill:#fff;fill-opacity:1"/><path id="XMLID_65_" d="M226.3 156.9q-.15 0-.3-.3c-.2-.2-.3-.4-.5-.7s-.4-.6-.7-1c-.2-.4-.5-.7-.7-1s-.4-.6-.5-.8c-.2-.2-.3-.4-.3-.5l-5.1-7.9h-.1c.1.5.2 1 .3 1.7s.1 1.3.2 2 .1 1.5.1 2.2v6.2H215v-17.5h4.2l7.8 12.1h.1c-.2-1-.3-2.2-.5-3.7-.1-1.4-.2-2.9-.2-4.5v-3.9h3.6v17.5h-3.7z" class="st7" style="fill:#fff;fill-opacity:1"/><path id="XMLID_67_" d="M247 156.9v-17.5h3.8v17.5z" class="st7" style="fill:#fff;fill-opacity:1"/><path id="XMLID_69_" d="M279.1 156.9q-.15 0-.3-.3c-.2-.2-.3-.4-.5-.7s-.4-.6-.7-1c-.2-.4-.5-.7-.7-1s-.4-.6-.5-.8c-.2-.2-.3-.4-.3-.5l-5.1-7.9h-.1c.1.5.2 1 .3 1.7s.1 1.3.2 2 .1 1.5.1 2.2v6.2h-3.7v-17.5h4.2l7.8 12.1h.1c-.2-1-.3-2.2-.5-3.7-.1-1.4-.2-2.9-.2-4.5v-3.9h3.6v17.5h-3.7z" class="st7" style="fill:#fff;fill-opacity:1"/><path id="XMLID_74_" d="M366.5 138.5v1.3c0 .4 0 .8-.1 1.1 0 .3 0 .6-.1.8-.7-.5-1.5-.8-2.3-1q-1.2-.3-2.4-.3c-.8 0-1.5.1-1.9.4-.5.3-.8.6-.8 1.1s.2 1 .6 1.3c.4.4 1 .7 1.6 1s1.3.7 2.1 1 1.4.8 2.1 1.3c.6.5 1.2 1.1 1.6 1.8s.6 1.6.6 2.6-.2 1.8-.6 2.5q-.6 1.05-1.8 1.8a11.24 11.24 0 0 1-5.8 1.5c-.7 0-1.4 0-2.2-.1s-1.5-.2-2.1-.4c0-.8 0-1.6.1-2.4 0-.9.1-1.6.1-2.1.8.4 1.6.8 2.4.9.8.2 1.7.3 2.6.3 1 0 1.7-.1 2.2-.3s.8-.6.8-1.2c0-.5-.2-1-.6-1.3-.4-.4-1-.7-1.6-1.1-.6-.3-1.3-.7-2.1-1.1s-1.4-.8-2.1-1.3a7 7 0 0 1-1.6-1.8c-.4-.7-.6-1.5-.6-2.5 0-.9.2-1.8.6-2.5q.6-1.05 1.8-1.8c.7-.5 1.6-.9 2.6-1.1s2-.4 3.1-.4c.6 0 1.3 0 2 .1s1.4.2 1.9.4c-.1.6-.1 1-.1 1.5" class="st7" style="fill:#fff;fill-opacity:1"/><path id="XMLID_76_" d="M395.6 156.9v-7.3l-5.9-10.3h4.4l3.7 7.3c0-.1.1-.4.3-.7.2-.4.4-.8.6-1.3s.5-1 .7-1.5c.3-.5.5-1 .7-1.4l1.2-2.3h4.4l-1.8 2.8c-.7 1.1-1.5 2.3-2.3 3.5s-1.5 2.2-2.2 3.2v8.1h-3.8z" class="st7" style="fill:#fff;fill-opacity:1"/><path id="XMLID_78_" d="M430.1 140.9v1.1c0 .3 0 .7-.1 1 0 .3 0 .5-.1.7-.6-.4-1.3-.7-2-.9-.7-.1-1.4-.2-2.1-.2s-1.3.1-1.7.3-.7.6-.7 1c0 .5.2.8.6 1.2.4.3.8.6 1.4.9l1.8.9c.7.3 1.3.7 1.8 1.1s1 1 1.4 1.6.6 1.4.6 2.3c0 .8-.2 1.6-.6 2.2s-.9 1.2-1.5 1.6-1.4.7-2.3.9-1.8.3-2.8.3c-.6 0-1.2 0-1.9-.1s-1.3-.2-1.8-.4c0-.7 0-1.4.1-2.1 0-.8.1-1.4.1-1.8.7.4 1.4.7 2.1.8.7.2 1.5.2 2.2.2.8 0 1.5-.1 1.9-.3s.6-.5.6-1-.2-.8-.6-1.2c-.4-.3-.8-.6-1.4-.9l-1.8-.9c-.6-.3-1.3-.7-1.8-1.1-.6-.4-1-.9-1.4-1.5s-.6-1.3-.6-2.2c0-.8.2-1.5.6-2.2.4-.6.9-1.2 1.5-1.6s1.4-.8 2.2-1q1.2-.3 2.7-.3c.5 0 1.1 0 1.7.1s1.2.2 1.6.4c.3.4.3.7.3 1.1" class="st7" style="fill:#fff;fill-opacity:1"/><path id="XMLID_80_" d="M454.1 142.8v14.1h-3.9v-14.1h-4.8v-3.4h13.4v3.4z" class="st7" style="fill:#fff;fill-opacity:1"/><path id="XMLID_82_" d="M472.9 156.9v-17.5h9.9v3.3h-6v3.8h5.7v3.2h-5.7v4.1h6.2v3.3h-10.1z" class="st7" style="fill:#fff;fill-opacity:1"/><path id="XMLID_84_" d="M499.5 139.3h4.4l4.2 12.8h.1c0-.1.1-.4.1-.7.1-.4.2-.8.3-1.4.1-.5.3-1.1.5-1.8l.6-2.1.5-1.6c.2-.6.4-1.1.5-1.6.2-.5.3-.9.5-1.3.1-.4.3-.8.4-1.2s.3-.8.4-1.2h4.3l2 17.5h-4l-1.1-12.4c0 .1 0 .3-.1.7s-.2.9-.4 1.4-.3 1.2-.5 1.8-.4 1.3-.6 2l-.5 1.6c-.3.8-.5 1.6-.8 2.4l-.9 2.4h-3.6l-3.9-12.3h-.1v1.1c0 .6 0 1.3-.1 2.1 0 .8-.1 1.7-.1 2.7s-.1 1.9-.1 2.7l-.2 3.9h-4.1z" class="st7" style="fill:#fff;fill-opacity:1"/></svg>