<svg xmlns="http://www.w3.org/2000/svg" fill="none" viewBox="0 0 345 70"><path d="M0 0v70h70V0H43.03l.02.4a8.06 8.06 0 0 1-8.06 8.06A8.06 8.06 0 0 1 26.93.4L27 0zm56.57 32.74a5.95 5.95 0 0 1 5.95 5.96 5.95 5.95 0 0 1-5.95 5.95 5.95 5.95 0 0 1-5.95-5.95 5.95 5.95 0 0 1 5.95-5.96m-40.78.9h6.51v8.2h8.21v6.52h-8.2v8.2h-6.52v-8.2H7.58v-6.51h8.2zm51.97 5.64h.13v.06h-.13zM45.9 45.53a5.95 5.95 0 0 1 5.95 5.95 5.95 5.95 0 0 1-5.95 5.96 5.95 5.95 0 0 1-5.95-5.96 5.95 5.95 0 0 1 5.95-5.95" style="fill:#fff;fill-opacity:1;fill-rule:evenodd;stroke-width:16.0135;stroke-linecap:square;paint-order:markers stroke fill;stop-color:#000"/><g aria-label="WASM-4" style="font-weight:700;font-size:62.6307px;line-height:1.25;font-family:Cantarell;-inkscape-font-specification:&quot;Cantarell Bold&quot;;text-align:center;letter-spacing:0;word-spacing:0;text-anchor:middle;fill:#fff;fill-opacity:1;stroke-width:2.9358"><path d="M128.05 68.55h8.58l9.45-32.82 10.21 32.82h8.4l12.65-43.47h-8.15l-8.51 32.76-9.71-32.5h-8.9l-9.39 33.19-8.27-33.45h-9.2zm49.54 0h8.58l3.57-10.9h16.66l3.5 10.9h8.96l-15.03-43.47h-10.4zm14.46-18.1 6.02-18.42 6 18.42zm43.78 18.72c10.59 0 16.98-5.26 16.98-13.4 0-15.72-22.86-10.27-22.86-19.04 0-3.32 3-5.2 8.45-5.2 3.57 0 7.52.7 10.65 1.88l2.31-6.39a32 32 0 0 0-12.52-2.57c-10.34 0-17.29 5.33-17.29 13.53 0 14.85 22.8 9.96 22.8 18.8 0 3.19-2.82 5.13-8.14 5.13-3.95 0-8.77-.88-13.1-2.7l-2.3 6.52a37 37 0 0 0 15.02 3.44m23.99-.62h7.83V39.36l11.46 22.49h6.2l11.65-23.3v30h7.83V25.08h-7.83l-14.34 28.18-14.85-28.18h-7.95ZM313.5 55.7h18.47v-6.5H313.5zm44.15 13.29h7.83v-9.46h7.7v-6.7h-7.7V25.08h-7.64l-20.98 30.25v4.2h20.79zm-12.21-16.23 12.2-18.35v18.35z" style="fill:#fff;fill-opacity:1" transform="matrix(.9558 0 0 1.02534 -25.69 -13)"/></g></svg>