<svg xmlns="http://www.w3.org/2000/svg" viewBox="0 0 4766.2 1435"><path d="M2953.43 163.38c0 90.09 75.84 163.2 169.2 163.2 97.05 0 173.25-71.61 173.25-163.2C3295.86 71.78 3219.68 0 3122.63 0c-93.36 0-169.2 73.22-169.2 163.38m28.08 326.77h288.87v934.63h-288.87zm559.14-326.77c0 90.09 75.99 163.2 169.3 163.2 97.1 0 173.15-71.61 173.15-163.2C3883.1 71.78 3807.05 0 3709.96 0c-93.32 0-169.31 73.22-169.31 163.38m27.99 326.77h288.94v934.63h-288.94zM2522.15 78.6l-253.3 993.1s-193.68-745.43-225.18-851.17c-31.5-105.91-96.36-152.31-188.32-152.31-92 0-156.95 46.4-188.45 152.31-31.4 105.73-225.11 851.18-225.11 851.18L1188.31 78.6H883.1s293.13 1059.6 332.99 1182.29c30.99 95.78 104.41 174.1 213.27 174.1 124.44 0 182.64-90.73 209.58-174.1 26.66-82.86 216.41-782.69 216.41-782.69s189.74 699.83 216.34 782.69c26.93 83.37 85.13 174.1 209.55 174.1 108.93 0 182.22-78.32 213.42-174.1C2534.4 1138.2 2827.34 78.6 2827.34 78.6z" style="fill:#fff"/></svg>