<svg xmlns="http://www.w3.org/2000/svg" viewBox="0 0 4766.2 1435"><path d="M556.7 1070.64c13.57-52.04 26.25-101.08 39.15-150.36 59.6-226.94 118.1-454.11 180.28-680.4 6.46-23.9 14.19-47.32 25.39-69.5 28.4-56.57 72.7-91.43 136.37-99.15 58.32-7.1 113.17 1.07 158.53 42.36 31.86 28.82 49.93 66.26 61.53 106.71 44.97 159.62 86.27 320.09 128.44 480.37 31.82 121.32 63.25 242.64 94.86 363.75.21.64.64 1.29 1.07 2.15 4.53-.43 3.03-4.5 3.67-6.9 51.62-202 103.04-403.76 154.65-605.75 31-121.11 61.97-242.22 92.5-363.33 2.4-9.25 5.82-12.28 15.71-12.28 92.51.43 185 .21 277.73.21 15.27 0 15.06 0 10.96 15.07-54 194.26-107.76 388.72-162.19 582.97-54.2 193.4-106.92 387.43-165.21 579.73-19.58 64.32-54.64 118.32-114.46 152.53-81.08 46.25-208.43 36.58-274.7-72.5-23.66-38.93-36.77-81.75-49.03-124.97-67.99-240.07-133.17-481-198.56-721.94-.65-2.6-1.5-4.95-2.58-8.17-4.53 6.89-5.17 13.97-7.1 20.64-60.44 222.44-120.68 444.86-183.29 666.87-13.1 46.46-23.65 93.57-44.72 137.46-22.17 46.04-52.5 84.33-99.18 108-80.68 40.65-185.86 19.36-245.68-48.2-36.56-41.3-55.92-90.56-70.97-142.4C233.17 924.6 150.35 624.5 66.88 324.4 44.95 246.13 23.22 167.38 1.05 88.87c-2.57-9.04-.64-10.56 8.18-10.56 94.43.21 188.9.21 283.33 0 9.03 0 11.82 3.25 13.96 11.42C373.63 353.67 441 617.63 508.31 881.56l45.17 177.26c.65 3.03 1.5 5.82 3.22 11.82m3502.76 5.39h-462.93c-33.36 0-66.48-4.08-98.75-13.75-90.98-26.9-141.33-89.71-158.76-181.14a412 412 0 0 1-6.86-75.93V192.77c0-41.1 7.08-80.68 29.9-115.75 32.25-49.46 80.43-71.4 137.46-75.07 58.72-3.87 117.65-.64 176.39-1.5 9.04-.21 8.18 4.96 8.18 10.75 0 70.14-.24 140.04 0 210.18.43 106.04-2.81 212.1 1.5 317.94 3.22 83.46 26.67 160.89 82.6 225.65 43.01 49.91 97.87 80.46 161.34 96.38 79.6 19.78 159.6 20.43 239 0 127.78-33.14 203.71-116.6 233.61-243.94 9.03-38.52 12.03-77.67 12.03-117.03-.21-162.2 0-324.4-.21-486.6 0-10.97 3.03-13.54 13.57-13.33 55.7 1.07 111.64-1.93 167.36 1.5 104.75 6.25 170.36 75.29 171 180.5.64 128.43.22 257.04.22 385.47 0 83.25.21 166.29-.22 249.54-.21 37.21-5.79 74-18.71 109.06-28.6 78.94-86.47 123.47-166.72 141.12-26.67 6.03-54 8.6-81.32 8.6-146.69-.2-293.19-.2-439.69-.2M2095.44 956.21c0-151 .21-301.8-.22-452.82 0-10.76 2.79-13.55 13.56-13.55 87.55.43 175.33.43 262.87 0 10.11 0 12.26 3 12.26 12.69-.22 303.32-.22 606.85 0 910.15 0 9.9-2.58 12.5-12.48 12.5q-131.97-.64-263.96 0c-10.1 0-12.25-3.04-12.25-12.71.22-152.08.22-304.16.22-456.26m586.61 0c0-151 .21-301.8-.21-452.82 0-10.97 2.8-13.55 13.56-13.55 87.33.43 174.46.43 261.8 0 9.67 0 13.34 1.5 13.34 12.47-.43 303.33-.21 606.86 0 910.16 0 9.89-2.6 12.5-12.48 12.5q-131.98-.64-263.94 0c-10.33 0-12.28-3.04-12.28-12.72.42-151.86.21-303.94.21-456.04" style="fill:#fff"/><path d="M4237.57 266.12c0 84.55 1.72 169.3-.64 253.84-1.51 58.07-22.37 109.92-66.48 149.93-83.46 75.72-242.85 60.88-294.5-76.15a250 250 0 0 1-16.14-86.68c-.21-165.65-.21-331.08-.43-496.72 0-7.74 2.17-10.1 9.9-10.1 119.4.21 239 .21 358.4 0 8.6 0 10.53 2.57 10.53 10.75-.21 84.96-.21 169.93-.21 255.13zm-2170.75-98.95c.22-87.34 70.36-160.69 153.61-165.86 61.51-3.65 114.22 14.42 153.36 62.82 62.82 77.43 39.8 191-47.32 239.2-85.4 47.34-189.29 21.08-237.7-60.02-14.84-24.5-21.3-51.4-21.95-76.14m929.73-4.75c-.21 77.89-53.33 141.13-132.93 160.06-81.53 19.36-166.71-23.03-197.47-98.75-39.38-96.35 21.94-199.82 121.1-218.99 71.87-13.97 133.38 7.1 178.98 66.28 20.86 27.31 29.25 59.36 30.32 91.4" style="fill:#fff"/></svg>