<svg xmlns="http://www.w3.org/2000/svg" viewBox="0 0 242 69.5"><g style="fill:#fff;fill-opacity:1"><g style="fill:#fff;fill-opacity:1"><path d="m201.08 861.2.13 2.82h-.34q-.1-.75-.26-1.07-.28-.51-.74-.75-.45-.25-1.2-.25h-1.7v9.2q0 1.12.24 1.4.34.37 1.04.37h.42v.33h-5.11v-.33h.42q.77 0 1.09-.46.2-.29.2-1.3v-9.21h-1.46q-.84 0-1.2.12-.46.17-.79.65t-.39 1.3h-.34l.15-2.83zm-16.79.65v4.74h2.2q.75 0 1.1-.33.35-.34.47-1.33h.33v4.08h-.33q-.01-.7-.19-1.03t-.48-.49-.9-.16h-2.2v3.78q0 .92.11 1.21.1.22.38.38.39.22.82.22h.43v.33h-5.17v-.33h.42q.75 0 1.09-.44.21-.28.21-1.37v-7.79q0-.91-.11-1.2-.1-.23-.37-.39-.38-.21-.82-.21h-.42v-.33h8.97l.11 2.65h-.3q-.24-.84-.55-1.24-.3-.4-.76-.57-.44-.18-1.38-.18zm-15.92-.93v4.16h-.33q-.16-1.2-.58-1.9-.4-.72-1.17-1.14t-1.59-.41q-.92 0-1.53.57-.6.56-.6 1.28 0 .55.38 1 .55.67 2.62 1.78 1.7.9 2.3 1.4.63.47.96 1.13.34.66.34 1.38 0 1.37-1.07 2.37-1.06.98-2.73.98-.52 0-.99-.08-.27-.04-1.14-.32t-1.1-.28-.35.13-.19.55h-.33v-4.13h.33q.23 1.3.62 1.95.4.64 1.2 1.06t1.76.43q1.11 0 1.75-.59.65-.58.65-1.38 0-.45-.24-.9-.25-.46-.76-.85-.35-.26-1.9-1.13t-2.2-1.38q-.65-.52-.99-1.14t-.33-1.37q0-1.3 1-2.23.99-.94 2.53-.94.96 0 2.03.47.5.22.7.22.24 0 .38-.13.15-.15.24-.56zm-13.55 0q2.34 0 4.06 1.78t1.72 4.45q0 2.74-1.73 4.56t-4.2 1.81q-2.49 0-4.18-1.77-1.7-1.77-1.7-4.58 0-2.87 1.96-4.68 1.7-1.57 4.07-1.57m-.17.64q-1.62 0-2.6 1.2-1.22 1.5-1.22 4.38 0 2.95 1.27 4.54.96 1.21 2.56 1.21 1.7 0 2.8-1.32 1.1-1.33 1.1-4.18 0-3.1-1.21-4.62-.98-1.2-2.7-1.2" style="font-size:18.2087px;font-family:&quot;Times New Roman&quot;;-inkscape-font-specification:&quot;Times New Roman, &quot;;letter-spacing:-.949854px;fill:#fff;stroke-width:1.13805;fill-opacity:1" transform="translate(-75.9 -1342.8)scale(1.5728)"/><path d="M150.87 873.25h-3.22l-4.08-5.64-.74.02h-.25l-.27-.02v3.5q0 1.14.25 1.42.33.39 1.01.39h.47v.33h-5.16v-.33h.45q.76 0 1.1-.5.18-.28.18-1.3v-7.8q0-1.13-.25-1.4-.35-.4-1.03-.4h-.45v-.33h4.39q1.92 0 2.83.29.91.27 1.54 1.03.64.74.64 1.78 0 1.11-.73 1.93-.72.82-2.24 1.16l2.5 3.46q.85 1.19 1.46 1.58t1.6.5zm-8.56-6.2h.5q1.72 0 2.6-.74.87-.74.87-1.9 0-1.13-.7-1.83-.71-.71-1.88-.71-.51 0-1.4.17z" style="font-size:18.2087px;font-family:&quot;Times New Roman&quot;;-inkscape-font-specification:&quot;Times New Roman, &quot;;letter-spacing:-.949854px;fill:#fff;stroke-width:1.13805;fill-opacity:1" transform="translate(-75.9 -1342.8)scale(1.5728)"/><path d="m138.87 860.92.27 4.1h-.27q-.55-1.85-1.58-2.66-1.02-.8-2.45-.8-1.2 0-2.17.6-.97.61-1.53 1.95-.55 1.33-.55 3.31 0 1.64.52 2.84.53 1.2 1.58 1.84 1.06.64 2.4.64 1.18 0 2.08-.5t1.97-2l.28.18q-.9 1.6-2.12 2.36-1.2.74-2.87.74-3 0-4.64-2.22-1.23-1.65-1.23-3.9 0-1.8.81-3.31t2.22-2.34q1.43-.83 3.1-.83 1.31 0 2.59.64.37.2.53.2.24 0 .42-.18.23-.24.33-.66z" style="font-size:18.2087px;font-family:&quot;Times New Roman&quot;;-inkscape-font-specification:&quot;Times New Roman, &quot;;letter-spacing:-.949854px;fill:#fff;stroke-width:1.13805;fill-opacity:1" transform="translate(-75.9 -1342.8)scale(1.5728)"/><path d="M129.48 872.92v.33h-5.17v-.33h.43q.75 0 1.08-.44.22-.28.22-1.37v-7.79q0-.91-.12-1.2-.09-.23-.36-.39-.4-.21-.82-.21h-.43v-.33h5.17v.33h-.44q-.73 0-1.07.44-.23.28-.23 1.36v7.8q0 .9.12 1.2.09.22.37.38.39.22.81.22z" style="font-size:18.2087px;font-family:&quot;Times New Roman&quot;;-inkscape-font-specification:&quot;Times New Roman, &quot;;letter-spacing:-.949854px;fill:#fff;stroke-width:1.13805;fill-opacity:1" transform="translate(-75.9 -1342.8)scale(1.5728)"/><path d="m115.17 873.25-5.44-11.85v9.4q0 1.3.28 1.63.38.43 1.21.43h.5v.39h-4.9v-.39h.5q.89 0 1.26-.54.23-.33.23-1.51v-9.2q0-.94-.2-1.35-.15-.3-.55-.5-.38-.21-1.24-.21v-.38h3.99l5.1 11.01 5.03-11.01h3.99v.38h-.5q-.9 0-1.27.54-.23.33-.23 1.52v9.2q0 1.3.3 1.62.38.43 1.2.43h.5v.39h-5.98v-.39h.5q.9 0 1.26-.54.23-.33.23-1.51v-9.41l-5.43 11.85z" style="font-size:18.2087px;font-family:&quot;Times New Roman&quot;;-inkscape-font-specification:&quot;Times New Roman, &quot;;letter-spacing:-.949854px;fill:#fff;stroke-width:1.32915;fill-opacity:1" transform="translate(-75.9 -1342.8)scale(1.5728)"/><path d="M175.46 860.92q2.34 0 4.06 1.78 1.73 1.78 1.73 4.45 0 2.74-1.74 4.56-1.73 1.81-4.2 1.81t-4.18-1.77q-1.7-1.77-1.7-4.58 0-2.87 1.96-4.68 1.7-1.57 4.07-1.57m-.17.64q-1.62 0-2.6 1.2-1.22 1.5-1.22 4.38 0 2.95 1.27 4.54.97 1.21 2.56 1.21 1.7 0 2.8-1.32 1.11-1.33 1.11-4.18 0-3.1-1.22-4.62-.98-1.2-2.7-1.2" style="font-size:18.2087px;font-family:&quot;Times New Roman&quot;;-inkscape-font-specification:&quot;Times New Roman, &quot;;letter-spacing:-.949854px;fill:#fff;stroke-width:1.13805;fill-opacity:1" transform="translate(-75.9 -1342.8)scale(1.5728)"/></g><g style="fill:#fff;fill-opacity:1"><path d="M198.47 878.74v4.76h-.38q-.18-1.37-.66-2.18-.46-.81-1.34-1.3-.87-.47-1.8-.47-1.06 0-1.76.65-.69.64-.69 1.46 0 .64.44 1.15.63.77 3 2.04 1.93 1.03 2.63 1.6.71.54 1.09 1.3.39.75.39 1.57 0 1.56-1.22 2.7-1.21 1.13-3.12 1.13-.6 0-1.13-.1-.32-.04-1.31-.36t-1.25-.32-.41.15-.21.63h-.38v-4.73h.38q.26 1.49.7 2.23.45.73 1.37 1.22t2.02.49q1.27 0 2-.67.75-.67.75-1.59 0-.5-.29-1.03-.27-.51-.86-.96-.4-.3-2.17-1.3-1.77-.99-2.52-1.58-.74-.59-1.13-1.3t-.38-1.56q0-1.49 1.14-2.55 1.13-1.08 2.9-1.08 1.09 0 2.32.54.57.25.8.25.27 0 .43-.15.17-.16.27-.64z" style="font-size:18.2087px;font-family:&quot;Times New Roman&quot;;-inkscape-font-specification:&quot;Times New Roman, &quot;;letter-spacing:-.949854px;fill:#fff;stroke-width:1.30102;fill-opacity:1" transform="translate(-75.9 -1342.8)scale(1.5728)"/><path d="M129.42 875.54v.46q-.66 0-1.07.24t-.79.89q-.25.44-.78 2.09l-4.73 13.65h-.5l-3.86-10.83-3.84 10.83h-.45l-5.03-14.07q-.56-1.57-.71-1.86-.25-.47-.7-.7-.42-.24-1.15-.24v-.46h6.27v.46h-.3q-.66 0-1.01.3t-.35.73q0 .44.55 2.01l3.33 9.51 2.82-8.08-.5-1.43-.4-1.14q-.27-.62-.6-1.1-.15-.23-.4-.4-.3-.22-.62-.32-.23-.08-.75-.08v-.46h6.6v.46H120q-.7 0-1.02.3t-.33.82q0 .63.56 2.22l3.25 9.21 3.23-9.33q.55-1.55.55-2.15 0-.3-.19-.54-.17-.25-.45-.35-.47-.18-1.24-.18v-.46z" style="font-size:18.2087px;font-family:&quot;Times New Roman&quot;;-inkscape-font-specification:&quot;Times New Roman, &quot;;letter-spacing:-.949854px;fill:#fff;stroke-width:1.59962;fill-opacity:1" transform="translate(-75.9 -1342.8)scale(1.5728)"/><path d="M132.84 892.46v.38h-5.9v-.38h.49q.85 0 1.24-.5.24-.32.24-1.56v-8.9q0-1.05-.13-1.39-.1-.25-.42-.44-.45-.24-.93-.24h-.5v-.38h5.91v.38h-.5q-.84 0-1.22.5-.26.32-.26 1.56v8.9q0 1.05.13 1.39.1.25.43.44.44.24.93.24z" style="font-size:18.2087px;font-family:&quot;Times New Roman&quot;;-inkscape-font-specification:&quot;Times New Roman, &quot;;letter-spacing:-.949854px;fill:#fff;stroke-width:1.30102;fill-opacity:1" transform="translate(-75.9 -1342.8)scale(1.5728)"/><path d="M130.65 879.05h3.75l8.42 10.34v-7.95q0-1.27-.28-1.58-.38-.43-1.2-.43h-.47v-.38h4.8v.38h-.49q-.87 0-1.24.53-.22.32-.22 1.48v11.62h-.37l-9.09-11.1v8.49q0 1.27.28 1.58.38.43 1.19.43h.48v.38h-4.8v-.38h.48q.89 0 1.26-.53.22-.32.22-1.48v-9.59q-.6-.7-.92-.92-.3-.23-.9-.42-.3-.1-.9-.1z" style="font-size:18.2087px;font-family:&quot;Times New Roman&quot;;-inkscape-font-specification:&quot;Times New Roman, &quot;;letter-spacing:-.949854px;fill:#fff;stroke-width:1.30102;fill-opacity:1" transform="translate(-75.9 -1342.8)scale(1.5728)"/><path d="M145.33 892.84v-.38h.52q.87 0 1.24-.56.22-.34.22-1.5v-8.9q0-1.3-.28-1.62-.4-.45-1.18-.45h-.52v-.38h5.61q3.1 0 4.7.7 1.61.7 2.6 2.34.98 1.64.98 3.78 0 2.88-1.75 4.81-1.96 2.16-5.98 2.16zm3.94-1q1.29.28 2.16.28 2.36 0 3.91-1.65 1.56-1.66 1.56-4.5 0-2.85-1.56-4.5-1.55-1.64-4-1.64-.9 0-2.07.29zm17.51-13.1q2.68 0 4.65 2.04 1.97 2.03 1.97 5.08 0 3.14-1.98 5.22-1.99 2.07-4.8 2.07-2.85 0-4.79-2.02-1.93-2.02-1.93-5.24 0-3.28 2.24-5.35 1.94-1.8 4.64-1.8m-.2.74q-1.84 0-2.96 1.37-1.4 1.7-1.4 5 0 3.38 1.45 5.2 1.1 1.38 2.93 1.38 1.94 0 3.2-1.52 1.27-1.51 1.27-4.77 0-3.54-1.4-5.28-1.11-1.38-3.08-1.38m24.73-.43v.38q-.54 0-.87.2-.34.19-.64.71-.2.36-.65 1.7l-3.84 11.11h-.4l-3.14-8.81-3.13 8.81h-.36l-4.1-11.44q-.45-1.29-.58-1.52-.2-.39-.56-.57-.34-.2-.94-.2v-.37h5.1v.38h-.24q-.54 0-.83.24-.28.25-.28.6t.45 1.63l2.71 7.73 2.29-6.57-.4-1.16-.33-.93q-.22-.5-.48-.9-.13-.18-.33-.32-.25-.18-.5-.26-.2-.06-.62-.06v-.38h5.37v.38h-.36q-.57 0-.84.24-.26.25-.26.66 0 .52.46 1.81l2.64 7.5 2.62-7.6q.45-1.26.45-1.75 0-.23-.15-.43t-.37-.29q-.39-.14-1-.14v-.38z" style="font-size:18.2087px;font-family:&quot;Times New Roman&quot;;-inkscape-font-specification:&quot;Times New Roman, &quot;;letter-spacing:-.949854px;fill:#fff;stroke-width:1.30102;fill-opacity:1" transform="translate(-75.9 -1342.8)scale(1.5728)"/></g></g><path d="M244.92 2.42c-25.13-.14-49.78 5.47-74.03 16.01v30.95c19.84-8.77 36.1-13.5 50.32-14.4v70.26c-16.92 1.35-33.62 6.52-50.32 14.17v21.98c18.5-8.99 35.2-13.04 50.32-14.17v67.09c-17.82 3.16-34.96 7.89-50.32 15.08V241c47.6-27.64 98.14-24.92 150.95.69V20.93c-26.18-12.47-51.79-18.36-76.92-18.5M15.64 20.47l-10.2 5.21v9.3l10.2-4.54zm150.72 0-28.1 13.6v28.1l28.1-14.73zM41.02 25.23l-13.14 7.93v13.37l13.14-7.47zm91.57 5.44L106.53 43.8v25.4l26.06-13.15zm117.67.67c13.5-.03 27.09 2.69 40.53 8.4v70.94c-6.57-2.5-19.69-5.67-28.49-6.48-11.86-1.1-21.37-.55-21.37-.55V31.8q4.65-.45 9.33-.46m-149.63.92-22.2 10.42v22.44l22.2-10.65zM70.5 35.2l-18.13 8.61v16.1l18.13-8.16zm95.87 17.23-28.1 13.82v28.1l28.1-14.72zm0 31.95-28.1 13.6v28.1l28.1-14.5zm-150.72 31.5-10.2 5v9.51l10.2-4.53zm150.72.69-28.1 13.6v28.1l28.1-14.73zm-125.34 4.08-13.14 7.93v13.6l13.14-7.48zm212.35 2.87c12.48.02 25.01 2.4 37.42 7.33v69.8c-15.86-5.2-30.6-8.16-49.86-7.25v-69.13q6.21-.76 12.44-.75m-120.78 2.57-26.06 13.14v25.62l26.06-13.38zm-31.96 1.81-22.2 10.43v22.44l22.2-10.66zm-30.14 2.72-18.13 8.61v16.1l18.13-8.17zm95.87 17.45-28.1 13.83v27.88l28.1-14.51zm0 32.87-28.1 13.6v28.1l28.1-14.5zm-150.72 30.6-10.2 5.2v9.3l10.2-4.53zm150.72 1.58-28.1 13.6v28.1l28.1-14.73zm-125.34 3.17-13.14 7.93v13.38l13.14-7.26zm91.57 5.44-26.06 13.15v25.38l26.06-13.14zm-31.96 1.59-22.2 10.42v22.44l22.2-10.65zm-30.14 2.94-18.13 8.62v16.09l18.13-8.16z" style="fill:#fff;fill-opacity:1;stroke:none;stroke-width:1.52051" transform="scale(.26458)"/><path d="M35.08 50.15v6.72l-6.9 3.54v-6.78zm0-8.21v6.71l-6.9 3.54v-6.78zm-8.45 8.63v5.94l-5.88 2.76v-5.88zm0-8.15v5.93l-5.88 2.82v-5.94zm-7.98 13.3v-4.37l-4.8 2.28v4.32zm0-8.2v-4.38l-4.8 2.27v4.32zm-7.8 1.2v3.71l-3.47 1.98v-3.6zm0-8.16v3.65L7.38 46.2v-3.54ZM4.14 39.3v2.58l-2.7 1.2v-2.46zm0 8.21v2.58l-2.7 1.2v-2.46z" style="fill:#fdfdff;fill-opacity:1;stroke:none;stroke-width:.402302"/><path d="M35.08 24.9v6.72l-6.9 3.54v-6.78zm0-8.21v6.72l-6.9 3.53v-6.77zm-8.45 8.64v5.93l-5.88 2.76v-5.88zm0-8.16v5.94l-5.88 2.81V20zm-7.98 13.31V26.1l-4.8 2.28v4.32zm0-8.21v-4.38l-4.8 2.28v4.32zm-7.8 1.2v3.71l-3.47 1.98v-3.6zm0-8.16v3.66l-3.47 1.98V17.4Zm-6.71-1.26v2.58l-2.7 1.2v-2.46zm0 8.22v2.58l-2.7 1.2v-2.46z" style="fill:#fff;fill-opacity:1;stroke:none;stroke-width:.402302"/></svg>