<svg xmlns="http://www.w3.org/2000/svg" viewBox="0 0 1065 187"><g style="fill:#fff;fill-opacity:1"><path d="M.23 48.63h5.49V6.2L22.9 48.63h4.49l17.4-42.2v42.2h6.17V1.2h-9.21L25.72 40.96 9.52 1.2H.22zM60.08 6.39h5.78v-5.2h-5.78zm0 42.24h5.78V13.49h-5.78zm39.39-22.82 5.49-.74c-1.27-8.02-6.62-12.55-14.1-12.55-10.4 0-17.57 7.24-17.57 18.54 0 11.4 6.8 18.52 16.65 18.52 7.95 0 13.52-4.36 15.02-12.26l-5.26-.88c-1.24 5.52-4.8 8.61-9.51 8.61-6.2 0-10.57-5.17-10.57-13.99 0-8.95 4.58-14.14 10.68-14.14 4.6 0 8.4 3.26 9.17 8.9m12.43 22.81h5.86V30.98c0-8.13 4.83-13.12 12.31-13.12h.98v-5.25a19 19 0 0 0-2.14-.13c-5.42 0-9.07 2.92-11.43 8.85V13.5h-5.58zm37.68.95c10.46 0 17.71-7.25 17.71-18.52 0-11.36-7.24-18.54-17.71-18.54-10.37 0-17.57 7.18-17.57 18.54 0 11.27 7.2 18.52 17.57 18.52m0-4.36c-6.7 0-11.2-5.22-11.2-14.16 0-9 4.42-14.14 11.2-14.14 6.8 0 11.29 5.2 11.29 14.14 0 8.9-4.56 14.16-11.3 14.16m74.96 4.36c10.5 0 17.74-7.25 17.74-18.52 0-11.36-7.24-18.54-17.74-18.54-10.34 0-17.55 7.18-17.55 18.54 0 11.27 7.2 18.52 17.55 18.52m0-4.36c-6.67 0-11.19-5.22-11.19-14.16 0-9 4.42-14.14 11.19-14.14 6.82 0 11.32 5.2 11.32 14.14 0 8.9-4.58 14.16-11.32 14.16m33.26-31.73c0-.41-.08-.89-.08-1.3 0-4.97 2.22-7.3 6.98-7.3 1.1 0 2.7.13 4.73.47V.99a32 32 0 0 0-5.79-.5c-7.92 0-11.66 4.2-11.66 12.73v.26h-6.95v3.86h6.95V49.2h5.82V17.34h14.76v18.2c0 4.53 0 7.83 1.61 9.87 2.24 2.9 5.44 4.17 10.08 4.17 1.6 0 3.28-.22 4.92-.53v-4.4c-1.47.36-2.88.4-4.05.4-6 0-6.66-2.79-6.66-9.35V17.34h9.3v-3.86h-9.3V4.6l-5.9.55v8.33zm-86.4 25.61c1.81 6.26 7.79 9.97 16.38 9.97 9 0 14.95-4.57 14.95-10.79 0-5.33-3.93-8.09-12.05-9.9-7.5-1.67-11.96-1.77-11.96-6.07 0-3.29 2.98-5.46 7.94-5.46 4.7 0 7.75 1.9 9 5.45l5.4-1.01c-1.9-5.65-6.96-8.77-14.18-8.77-8.54 0-14.01 4.53-14.01 10.4 0 5.77 3.94 8 12.47 9.82 7.17 1.57 11.3 1.97 11.3 6.2 0 3.37-3.38 5.85-8.85 5.85-5.4 0-9.54-2.4-11.12-6.67z" style="fill:#fff;fill-opacity:1"/><path d="M290.86 11.08a4.17 4.17 0 1 1 .05 8.35 4.17 4.17 0 0 1-4.17-4.19 4.17 4.17 0 0 1 4.12-4.16m.14-.7a4.87 4.87 0 1 0-.08 9.74 4.86 4.86 0 0 0 4.86-4.88A4.86 4.86 0 0 0 291 10.4m2.21 7.7-1.17-2.58c.7-.24 1.09-.78 1.09-1.46 0-.94-.8-1.61-1.93-1.61h-2.39v5.65h.84v-2.4h1.55l1.08 2.4zm-3.56-3.06v-1.88h1.55c.64 0 1.04.33 1.04.89 0 .61-.43 1-1.13 1zm444.07 139.52c5.86 20 25.15 31.12 55.85 31.12 33.75 0 54.32-15.39 54.32-35.8 0-8.38-3.36-15.57-9.85-21-8-6.64-17.44-7.97-28.99-9.93-19.9-3.3-29.86-2.5-29.76-8.74.02-3.39 3.98-6.96 11.92-6.96 9.9 0 16.19 3.28 19.97 9.47l32.3-5.24c-7.09-17.32-24.56-26.89-50.14-26.89-31.87 0-50.39 14.81-50.39 34.65 0 8.57 4.44 16.72 11.98 22.2 9.42 6.77 19.92 8.35 31.92 10.3 14.86 2.53 22.85 1.8 23.48 7.37.48 3.84-5.23 6.82-15.1 6.82-13.89 0-21.6-3.86-23.51-11.28zM287.6 82.77l36.12-.1v14.3c5.7-11.14 16.07-17.03 29.87-17.03 24.2 0 33.76 11.75 33.76 37.24v66.32h-39.4v-60.84c0-9.4-3.48-15.46-10.22-15.46-6.9 0-11.17 4.89-11.17 14.29v62.01H287.6z" style="fill:#fff;fill-opacity:1"/><path d="M628.3 183.5h29.07l14.9-56.3 13.6 56.3h29.46l33.42-100.78h-28.24l-14.8 50.77-13.11-50.77h-30.47l-12.6 49.39-14.41-49.39H595.2zm-540.01-.08h40.15l18.59-76.35 19.2 76.35h39.34l37.98-133.67h-33.68l-20.23 77.02-19.81-77.52h-36.6l-19.28 78.3-19.63-78.3H50.47z" style="fill:#fff;fill-opacity:1"/><path d="M240.23 74.65h39.45V49.77h-39.45zm0 8.02h39.45v100.75h-39.45zm214.59 37.79c0-4.01.2-8.77-2.51-11.93-1.86-2.6-5.62-3.98-8.95-3.98-9.47.02-14.8 10.9-14.83 29.59 0 8.94 1.73 24.8 14.66 24.8 4.1 0 6.86-1.75 9.12-5.13 2.9-4.36 2.5-7.95 2.5-12.9zm2.55 62.96v-13.58h-.38c-6.06 11.2-14.96 15.51-28.29 15.51-30.55 0-41.66-27.21-41.66-52.22 0-25.98 10.9-53.2 42.92-53.2a36.6 36.6 0 0 1 25.35 10.3V49.05h40.04v134.38zm110.87-50.18c0-18.82-6.34-27.9-16.1-27.9-9.83 0-16.12 9.08-16.12 27.9 0 18.91 6.36 27.96 16.11 27.96 9.85 0 16.11-9.05 16.11-27.96m-72.84 0c0-32.03 22.78-53.25 56.68-53.25 34 0 56.65 21.22 56.65 53.25 0 31.87-22.65 53.27-56.65 53.27-33.9 0-56.68-21.4-56.68-53.27M843.54 81.1a6.7 6.7 0 0 0-5.17-2.08c-2.03 0-3.88.56-5.33 2.07a8 8 0 0 0-2.04 5.47 7.07 7.07 0 0 0 7.37 7.18c2.04 0 3.68-.56 5.17-2.07a7 7 0 0 0 2.03-5.1c0-2.28-.73-3.96-2.03-5.48m-1.1.93a6.3 6.3 0 0 1 1.65 4.53c0 1.7-.55 3.03-1.66 4.35a5.3 5.3 0 0 1-4.04 1.7 5.8 5.8 0 0 1-4.24-1.7 5.8 5.8 0 0 1-1.86-4.35c0-1.88.57-3.4 1.86-4.53a5.3 5.3 0 0 1 4.24-1.9 4.9 4.9 0 0 1 4.04 1.9" style="fill:#fff;fill-opacity:1"/><path d="M841.7 84.69c0-1.72-.93-2.47-2.95-2.47h-3.31v8.5h1.28v-3.77h1.48l2.21 3.77h1.47l-2.39-3.77q2.21-.3 2.2-2.26zm-1.48-.2c0 .94-.56 1.5-1.84 1.5h-1.66v-2.63h1.66c1.29 0 1.84.37 1.84 1.13" style="fill:#fff;fill-opacity:1"/><g aria-label="9" style="font-size:207.731px;line-height:1.25;font-family:Arial;-inkscape-font-specification:Arial;text-align:center;letter-spacing:0;word-spacing:0;text-anchor:middle;stroke-width:1.08192;fill:#fff;fill-opacity:1"><path d="m803.5 161.54 17.55-1.62q2.24 12.37 8.52 17.95 6.3 5.58 16.13 5.58 8.42 0 14.71-3.85 6.39-3.86 10.45-10.25 4.05-6.49 6.8-17.44 2.73-10.96 2.73-22.32 0-1.21-.1-3.65-5.48 8.72-15.01 14.2-9.43 5.38-20.49 5.38-18.46 0-31.24-13.4-12.78-13.38-12.78-35.29 0-22.62 13.29-36.41 13.38-13.8 33.47-13.8 14.5 0 26.47 7.81 12.07 7.81 18.26 22.32 6.29 14.4 6.29 41.79 0 28.5-6.19 45.44-6.19 16.83-18.46 25.66-12.17 8.82-28.6 8.82-17.45 0-28.5-9.63-11.06-9.74-13.3-27.29m74.76-65.62q0-15.72-8.42-24.96-8.31-9.23-20.08-9.23-12.17 0-21.2 9.94t-9.03 25.77q0 14.2 8.52 23.12 8.63 8.83 21.2 8.83 12.68 0 20.8-8.83 8.21-8.92 8.21-24.64" style="fill:#fff;fill-opacity:1" transform="scale(1.06886 .93557)"/></g><g aria-label="x" style="font-size:207.731px;line-height:1.25;font-family:Arial;-inkscape-font-specification:Arial;text-align:center;letter-spacing:0;word-spacing:0;text-anchor:middle;stroke-width:1.08192;fill:#fff;fill-opacity:1"><path d="m895.35 195.93 39.35-56-36.41-51.72h22.82l16.53 25.25q4.67 7.2 7.5 12.07 4.47-6.69 8.22-11.86l18.16-25.46h21.8l-37.22 50.71 40.07 57h-22.42l-22.1-33.46-5.9-9.03-28.3 42.5z" style="fill:#fff;fill-opacity:1" transform="scale(1.06886 .93557)"/></g></g></svg>