<svg xmlns="http://www.w3.org/2000/svg" xml:space="preserve" id="Layer_1" x="0" y="0" viewBox="0 0 3840 879.9"><style id="style1" type="text/css">.st1{fill:#fff}</style><g id="g12" style="fill:#fff"><g id="g7" style="fill:#fff"><path id="path1" d="m1742.6 205.9-137.8 487.9h-67l-100.4-356.6c-4.3-15.2-6.9-31.8-7.8-49.7h-1.4c-1.4 16.8-4.3 33.1-8.8 49l-101.1 357.3H1252l-142.9-487.9h63l103.8 374.2c4.3 15.7 7 32 8.2 49h1.7c1.1-12 4.6-28.3 10.5-49l107.8-374.2h54.8l103.4 376.9c3.6 12.9 6.4 28.1 8.2 45.6h1.4c.9-11.8 4-27.4 9.2-46.9l99.7-375.6z" class="st1" style="fill:#fff"/><path id="path2" d="M1825.8 256.9q-15 0-25.5-10.2c-7-6.8-10.5-15.5-10.5-25.9s3.5-19.1 10.5-26 15.5-10.4 25.5-10.4c10.2 0 18.9 3.5 26 10.4s10.7 15.6 10.7 26c0 10-3.6 18.5-10.7 25.5-7.2 7.1-15.8 10.6-26 10.6m27.2 436.9h-55.8V345.3h55.8z" class="st1" style="fill:#fff"/><path id="path3" d="M2244.7 693.8h-55.8V495.1c0-74-27-110.9-81-110.9-27.9 0-51 10.5-69.2 31.5s-27.4 47.5-27.4 79.4v198.7h-55.8V345.3h55.8v57.9h1.4q39.45-66 114.3-66c38.1 0 67.2 12.3 87.4 36.9s30.3 60.2 30.3 106.7z" class="st1" style="fill:#fff"/><path id="path4" d="M2636.7 693.8h-55.8v-59.2h-1.4c-25.9 44.9-65.8 67.3-119.8 67.3q-65.7 0-105-46.8c-26.2-31.2-39.3-73.6-39.3-127.4 0-57.6 14.5-103.8 43.6-138.5 29-34.7 67.7-52.1 116-52.1 47.9 0 82.7 18.9 104.5 56.5h1.4V178h55.8zm-55.8-157.5v-51.4q0-42.15-27.9-71.4c-18.6-19.6-42.2-29.3-70.8-29.3-34 0-60.8 12.5-80.3 37.5-19.5 24.9-29.3 59.4-29.3 103.4 0 40.1 9.4 71.8 28.1 95.1 18.7 23.2 43.8 34.8 75.4 34.8 31.1 0 56.3-11.2 75.7-33.7 19.4-22.4 29.1-50.8 29.1-85" class="st1" style="fill:#fff"/><path id="path5" d="M2884.8 701.9c-51.5 0-92.6-16.3-123.3-48.8-30.7-32.6-46.1-75.7-46.1-129.5q0-87.75 48-137.1c32-32.9 75.2-49.3 129.6-49.3 52 0 92.5 16 121.6 48s43.7 76.3 43.7 133q0 83.4-47.1 133.5c-31.4 33.5-73.6 50.2-126.4 50.2m4.1-317.8c-35.8 0-64.2 12.2-85.1 36.6s-31.3 58-31.3 100.9c0 41.3 10.6 73.8 31.6 97.7 21.1 23.8 49.3 35.7 84.7 35.7 36.1 0 63.8-11.7 83.2-35.1 19.4-23.3 29.1-56.6 29.1-99.6q0-65.4-29.1-100.8c-19.3-23.5-47.1-35.4-83.1-35.4" class="st1" style="fill:#fff"/><path id="path6" d="m3575.9 345.3-104.5 348.4h-57.8l-71.8-249.4c-2.7-9.5-4.6-20.3-5.5-32.3h-1.4c-.7 8.2-3.1 18.7-7.1 31.6L3250 693.8h-55.8l-105.5-348.4h58.5l72.1 262c2.3 7.9 3.9 18.4 4.8 31.3h2.7c.7-10 2.7-20.7 6.1-32l80.3-261.3h51l72.1 262.7c2.3 8.4 4 18.8 5.1 31.3h2.7c.5-8.8 2.4-19.2 5.8-31.3l70.8-262.7h55.2z" class="st1" style="fill:#fff"/><path id="path7" d="M3609 681.2v-59.9c30.4 22.4 63.9 33.7 100.4 33.7 49 0 73.5-16.3 73.5-49q0-13.95-6.3-23.7c-4.2-6.4-9.9-12.2-17-17.2s-15.5-9.4-25.2-13.4c-9.6-3.9-20-8.1-31.1-12.4-15.4-6.1-29-12.3-40.7-18.5s-21.4-13.3-29.3-21.1a79 79 0 0 1-17.7-26.7c-4-10-5.9-21.6-5.9-35.1 0-16.3 3.7-30.8 11.2-43.4s17.5-23.1 29.9-31.6c12.5-8.5 26.7-14.9 42.7-19.2s32.5-6.5 49.5-6.5c30.2 0 57.1 5.2 81 15.7v56.5c-25.6-16.8-55.1-25.2-88.4-25.2q-15.6 0-28.2 3.6c-8.4 2.4-15.6 5.8-21.6 10.1s-10.7 9.5-14 15.5-4.9 12.7-4.9 19.9c0 9.1 1.7 16.7 4.9 22.8 3.3 6.1 8.1 11.6 14.5 16.3 6.3 4.8 14.1 9.1 23.1 12.9 9.1 3.8 19.4 8 31 12.6 15.4 5.9 29.3 12 41.5 18.2s22.7 13.3 31.3 21.1 15.3 16.8 19.9 27 7 22.4 7 36.4c0 17.3-3.8 32.2-11.4 44.9a97 97 0 0 1-30.5 31.6c-12.7 8.4-27.3 14.7-43.9 18.7-16.5 4.1-33.9 6.1-52.1 6.1-35.8 0-66.9-6.9-93.2-20.7" class="st1" style="fill:#fff"/></g><g id="g11" style="fill:#fff"><g id="g8" style="fill:#fff"><path id="polygon7" d="M359.7 438.9H0v302.9L359.7 798z" class="st1" style="fill:#fff"/><path id="polygon8" d="M387.1 438.9v363.4l496.1 77.6v-441z" class="st1" style="fill:#fff"/></g><g id="g10" style="fill:#fff"><path id="polygon9" d="M359.7 80.6 0 135.9v275.6h359.7z" class="st1" style="fill:#fff"/><path id="polygon10" d="M387.1 76.3v335.2h496.1V0z" class="st1" style="fill:#fff"/></g></g></g></svg>