<svg xmlns="http://www.w3.org/2000/svg" viewBox="0 0 264 40"><path d="m117.38 65.47 8.19-34.32 8.24-6.54h8.18l-8.18 34.32 8.18-4.9 6.57-24.49 4.93-4.93h11.53l-8.21 34.32 8.21-6.51 4.9-21.27 6.6-6.54h9.89l-8.22 32.71-9.85 8.15zm332.82 0 4.18-19.59 7.44-7.14h9.55l-5.61 21.54 8.24-4.9 2.09-11.14 5.5-5.5h11.47l-5.62 21.54 7.77-5.2 2.21-9.2 7.17-7.14h8.54l-4.78 18.58-11.2 8.15zm-64.13 0 8.25-8.15h35.36s3.04.9 4.78-2.96c1.58-3.58-1.5-3.58-1.5-3.58h-16.42s-4.72-1.08-4.75-6.87c-.09-14.25 11.62-17.93 11.62-17.93h34.52l-6.86 6.81h-18.1s-5.77 1.65-5.89 6.46c-.09 2.18 2.6 1.73 2.6 1.73h14.75s8.55 1.43 6.57 10.63c-2.57 12.1-11.47 13.86-11.47 13.86z" style="fill-opacity:1;fill:#fff" transform="scale(.44 .44404)"/><path d="M358 65.47h14.75l4.48-16.96c.54-1.98 5.73-4.21 4.36-3.98-1.34.24 4.72-.9 4.72-.9s1.91.54 2.87 1.86c.98 1.28-.96 3.2-1.23 4.69s1.65 1.64 1.65 1.64h8.24s4.42-1.64 5.61-3.28c1.17-1.67 2.63-3.4 2.63-4.87s-3.25-3.29-3.25-3.29l-3.32-1.6h-24.64s-11.8 6.74-13.17 8.14c-.48.42-3.7 18.55-3.7 18.55M185.54 46.75c-1.14 1.3-4.84 12.84-4.03 14.72.83 1.82 5.4 4 5.4 4h24.02s11.2-7.02 12.06-8c.83-1.02 4-12.22 4-13.39 0-1.16-2.69-5.34-2.69-5.34h-28.07s-9.52 6.69-10.7 8m18.72-2.66h7.38s-.83 8.87-2.68 11.38c-1.89 2.5-6.04 4.69-6.04 4.69s-4.66.47-5.31 0c-.7-.54-.19-5.35-.19-5.35s.63-5.2 1.5-6.72c.84-1.5 5.34-4 5.34-4m70.83 2.67c-1.13 1.3-4.83 12.84-4 14.72.84 1.82 5.38 4 5.38 4h33.42s1.1-5.31 2.48-10.7a169 169 0 0 0 2.87-13.38c0-1.2 8.3-11.67 8.3-11.67H309l-7.34 9.02h-15.9c.04 0-9.5 6.69-10.69 8m18.73-2.66h7.35s-.81 8.87-2.7 11.38c-1.81 2.5-6 4.69-6 4.69s-4.65.47-5.34 0c-.63-.54-.18-5.35-.18-5.35s.63-5.2 1.52-6.72c.84-1.5 5.35-4 5.35-4m-70.39 21.39L231 38.74h32.08s4.24.45 5.67 2.84c1.5 2.39 1.02 6.5 1.02 6.5l-4.36 17.4h-13.38s1.55-8.52 3.04-14.7c1.5-6.19-2.69-6.7-2.69-6.7h-8l-4.6 16.05s-4 4.65-5.67 5.34zm329.2 0 8.52-26.73h32.08s4.2.45 5.7 2.84 1.02 6.5 1.02 6.5l-4.51 17.4h-14.67s2.45-7.18 4-13.4c1.5-6.14-2.18-8-2.18-8h-8.03l-4.48 16.04s-3.7 4.66-5.35 5.35zM319.2 46.75c-1.17 1.3-4.81 12.84-4 14.72.8 1.82 5.34 4 5.34 4h24.04s4.78-2.99 8.34-5.35c0 0-20.43.15-21.69 0-.56-.06-.35-2.53-.3-4h16.43s3.17-.68 7.89-4.6c4.78-3.91 5.37-4.33 5.37-7.44 0-3.07-2.69-5.34-2.69-5.34h-28.07c.06 0-9.5 6.69-10.66 8m18.76-2.66h10.78s-1.2 4.09-7.08 6.69h-9c-.86-2.33 1.26-4.19 2.46-5.2 1.25-1.14 2.84-1.5 2.84-1.5m197.27 21.4s4.54-14.36 5.98-18.97c.71-2.5-.96-2.41-4.13-2.41s-5.46.68-9.85 8c-5.14 8.54 7.58 10.87 7.58 10.87l-.9 2.5h-14.69s-8.03.34-8.03-9.34c0-11.88 15.2-17.38 15.2-17.38h32.1l-8.53 26.73zM76.8 24.73q1.11-.05 2.3-.06c16.72 0 31.05 16.22 32.13 24.46q.17 1.31.24 2.3C111.26 28.91 76.17 0 47.97 0c-21.75 0-31.9 8.78-35.25 18.7-5.01 12.51 1.59 30.31 17 42.98a79 79 0 0 0 4.93 3.67q-1.1.08-2.27.06C15.65 65.41 1.3 49.2.24 40.95L0 38.65c.2 22.52 35.3 51.43 63.5 51.43 21.74 0 31.9-8.8 35.24-18.7 5.02-12.48-1.58-30.28-17-42.97a72 72 0 0 0-4.95-3.68m-31.4 37.4c-12.43-10.19-16.55-25.15-9.6-33.67 7.03-8.5 22.86-7.52 35.58 2.4 12.6 9.79 17.44 24.72 11 33.62 2.62-5.34-.3-13.38-7.24-18.84-7.43-5.86-16.78-6.45-20.9-1.4-4.15 5.04-1.68 13.94 5.61 20 5.65 4.7 12.49 6.34 17.39 4.64-8.27 4.39-21.33 1.88-31.84-6.75" style="fill-opacity:1;fill:#fff" transform="scale(.44 .44404)"/></svg>