<?xml version="1.0" encoding="UTF-8" standalone="no"?><svg data-name="Warstwa 1" viewBox="0 0 1168.62 370.12" version="1.1" id="svg2" xmlns="http://www.w3.org/2000/svg" xmlns:svg="http://www.w3.org/2000/svg"><title id="title1">Sharp_X1_logo</title><path fill="currentColor" d="M109.63.1h6.2q136.5 0 273-.1c4.19 0 6.41 1.2 8.53 4.89q96.69 168.5 193.56 336.91c1.93 3.35 3.92 4.5 7.74 4.47 28.17-.17 56.33-.12 84.49-.05 2.88 0 4.76-.46 6.37-3.33q71-126.51 142.21-252.9c.56-1 1-2 1.91-3.84h-99.07c1.69-2 2.54-3.17 3.52-4.19q37.65-39.39 75.41-78.68a10.5 10.5 0 0 1 6.72-3.05Q992.46.01 1164.69.1h3.93c-1 1.91-1.68 3.3-2.44 4.63q-103.95 180.75-207.82 361.55c-1.81 3.16-3.84 3.84-7.12 3.84q-311.22-.09-622.45 0c-3.11 0-5.06-.65-6.77-3.59Q216.99 185.24 111.76 4.1c-.57-1-1.08-2-2.13-4m764.92 62.14-159.61 283.7c2 .1 3.22.23 4.47.23q109.48 0 219 .11c3.49 0 4.93-1.52 6.44-4.15q89.94-156.51 180-313c.87-1.51 1.66-3.08 2.68-5-1.56-.13-2.38-.26-3.2-.26q-147.21 0-294.42.1a9.3 9.3 0 0 0-5.9 2.7c-10.51 10.69-20.83 21.58-31.18 32.43a34 34 0 0 0-2.24 3.08ZM150.93 23.92c1.3 2.36 2.18 4.08 3.15 5.76q90.48 155.89 180.89 311.82c2 3.39 4 4.79 8.09 4.78q108.45-.21 216.91-.1h5.9c-1.24-2.36-2-4-2.91-5.52q-89.75-156-179.41-312.09c-2-3.49-4.1-4.75-8.12-4.74q-109.45.18-218.92.09Zm26.38 171.75 103.07 174H0Zm-5 38.15-114.12 112h180.47Z" id="path1" style="fill:#ffffff"/><path fill="currentColor" d="M440.52.33h257.45l-164.13 166.4Zm98.6 127.26L640.98 24.28h-159.8Z" id="path2" style="fill:#ffffff"/></svg>