<svg xmlns="http://www.w3.org/2000/svg" viewBox="0 0 264 45"><path d="M25.33.03 84.44 102.4h80.22L105.56.03zM38 6.43h61.22l50.48 87.44H88.48zm8.47 48.47L0 102.4h73.89zm-2.49 13.38L61.22 96H16.9zm97.54-20.79 46.46-47.5H114.1zM144 34.12 126.76 6.4h44.33zm56.73 32.56q-.18-.22-.72 3.92a65 65 0 0 0-.6 6.15c.37 2.86 1.34 2.88 2.9 4.32 1.3.81 2.41.58 5.54.94 3.14.36 21.78.37 24.93.01 3.14-.34 5.78-.78 7.5-1.92 3.34-2.13 5.62-5.19 6.8-13.44.86-4.46 1.23-5.6 1.13-7.71q-.2-4.23-4.26-5.66c-2.72-.95-6.68-.5-11.09-.5h-8.7c-9.35 0-15.01.05-17.81 2-3.2 2.16-4.46 5.02-5.62 11.9m66.87-32.9h-13.25c.45-3.23.33-5.38.24-7.35-.1-2-.3-3.76-1.2-4.4-1.88-1.65-9.57-1.5-17.75-1.5H228c-8.14 0-12.9-.05-15.37 1.8q-4.8 3.76-5.79 11.51l-2.15 8.88s1.43-2.18 4.66-2.52c5.65-.62 15.08-.05 18.62-.05 8.62.15 15.75-.36 20.39.4 4.63.78 9.68 1.79 12.1 4.44q3.2 3.3 3.5 10.17.22 4.52-1.76 14.76-1.11 4.95-2.58 8.9a28 28 0 0 1-4.06 7.36c-1.73 2.26-3.78 6.18-6.17 7.49-3.76 1.94-8.59 1.81-12.95 2.33s-11.36 0-18.29 0c-6.19 0-12.46.14-16.97-.4q-6.75-.82-11.14-3.94-5.36-3.94-6-13A59 59 0 0 1 185.07 68l7.38-39.14c1.4-8.56 4-15.24 10.17-19.23q5.15-3.24 12.5-4.28c4.9-.7 12.99-1.05 20.04-1.05h10.85c7.38 0 9.43 1 14.6 2.97q7.76 2.98 8.18 11.88c.08 1.74-.32 9.46-1.2 14.63m50.89-16.98c-8.7 0-16.63.4-19.55 1.2-2.85.8-4.64.73-5.93 2.8a17 17 0 0 0-2.44 6.48q-.54 3.4-.95 9.12.41 3.43 2.18 4.72c2.25 1.43 10.14 1.56 20.38 1.56 9.18 0 16.03-.2 19.61-1.76q2.29-.9 3.93-4.09c1.1-2.12 1.77-3.68 2.56-7.68q.64-3.63.59-6.15-.07-3.21-1.97-4.28-2.07-1.14-6.35-1.53t-12.06-.39m22.21 31.75c5.46 2.26 5.46 7.58 5.6 13.7.02.87.22 5.52-.06 7.13-.28 1.6-.19 2.85-.29 3.37-1.2 5.61-1.6 8.09-3.47 11.4-1.88 3.33-2.99 5.71-6.26 7.5q-4.3 2.44-10.87 3.4c-4.4.63-12.08.95-18.86.95h-8.75q-11.37 0-17.78-.83c-4.27-.56-6.8-2.55-9.3-4.87-2.38-2.1-4.63-7.17-5.02-12.06.13-2.28.53-3.45 1.2-7.75.88-3.97 1.09-7.17 1.79-9.3s2.09-4.63 3.62-6.59c1.53-1.94 3.79-3.37 6.46-4.91 1.65-.96 2.14-1.32.46-2.74-1.85-1.56-2.35-3.02-2.87-4.92-.26-.6-.4-6.4-.43-6.59.82-13.24 4.25-19.99 10.4-25.09 3.6-3.12 5.2-4.98 13.2-5.56 4.1-.33 15.38-.5 21.13-.5 7.94 0 15.66.18 18.94.52q4.33.63 7.53 1.87c2.14.82 1.92 2.22 3.56 4.2q2.14 2.75 2.28 8.7.09 4.1-.54 8.56a36 36 0 0 1-2.3 8.61 18 18 0 0 1-4.33 6.62c-2.22 2.45-1.9 4.16-4.85 5.14-.63.21-.97.06-.96-.04 0-.08.26-.13.77.08m-31.1 5.91c-5.59 0-11.3-.02-14.32.32q-4.53.52-7.43 1.96a9 9 0 0 0-4.3 4.4q-1.62 3.18-2.88 8.86c-.7 4.4-.62 5.27-.75 6.55.27 2.33.75 3.7 2.5 4.48 1.75.77 4.27 2.13 7.74 2.28 2.64.28 9.55.43 16.48.43 7.2 0 12.84.5 16.75-.97 1.84-.82 3.87-1.05 5.04-3.15 1.18-2.1 1.69-4.27 2.58-8.32q1.06-4.65 1-7.3c-.04-2-.6-5.66-1.68-6.71q-1.34-1.52-5.96-2.27c-3.09-.5-8.47-.56-14.76-.56M385.49 96c-7.9 0-16.27-.5-20.9-1.51q-6.95-1.53-10.13-5.32c-2.62-2.98-2.13-7.22-2.5-13.03.15-4.64.73-9.3 1.47-13.68l4.78-25.37q1.5-8.15 4.25-14.76a29.5 29.5 0 0 1 7.73-11 20 20 0 0 1 7.49-4.4 43 43 0 0 1 10.54-2.13q5.9-.5 14.51-.5 6.5 0 11.69.44 5.2.45 9.1 1.63a18 18 0 0 1 6.65 3.53q4.94 4.54 5.16 14.27.1 3.92-1.17 13.48l-4.88 25.48c-2.63 14.48-5.8 23.98-13.67 28.52q-4.8 2.68-11.56 3.52c-4.52.55-12.1.83-18.56.83m14.95-78.58q-9.02 0-12.91.34-3.88.33-6.69 1.46a12 12 0 0 0-3.87 2.54q-1.71 1.67-3.42 5.56c-1.13 2.6-2.12 3.98-2.97 8.37l-5.4 28.97c-.62 4.28-1 5.63-1.15 8.31q.23 3.6 1.2 5.28.95 1.67 2.83 2.67 2.39 1.24 6.09 1.6 3.7.35 12.22.35 10.35 0 15.4-.63 5.08-.62 7.7-2.87c3.22-2.93 5.07-7.3 6.97-16.43l5-26.7c.73-5.1 1.05-6.84 1-9.48-.08-3.64-.21-5.55-1.78-6.67q-2.26-1.72-6.33-2.2-4.06-.47-13.89-.47M467.82 96c-7.9 0-16.27-.5-20.9-1.51q-6.96-1.53-10.13-5.32c-2.62-2.98-2.13-7.22-2.5-13.03.16-4.64.73-9.3 1.47-13.68l4.78-25.37q1.5-8.15 4.25-14.76a29.5 29.5 0 0 1 7.74-11 20 20 0 0 1 7.48-4.4q4.63-1.63 10.54-2.13t14.51-.5q6.51 0 11.7.44 5.18.45 9.1 1.63a18 18 0 0 1 6.64 3.53q4.94 4.54 5.17 14.27.08 3.92-1.18 13.48l-4.88 25.48c-2.63 14.48-5.79 23.98-13.67 28.52q-4.8 2.68-11.56 3.52c-4.51.55-12.1.83-18.56.83m14.95-78.58q-9.02 0-12.9.34-3.9.33-6.7 1.46a12 12 0 0 0-3.87 2.54q-1.71 1.67-3.42 5.56c-1.12 2.6-2.12 3.98-2.96 8.37l-5.4 28.97c-.63 4.28-1.01 5.63-1.16 8.31q.23 3.6 1.2 5.28.96 1.67 2.83 2.67 2.38 1.24 6.09 1.6 3.7.35 12.22.35 10.35 0 15.4-.63 5.08-.62 7.7-2.87c3.22-2.93 5.07-7.3 6.97-16.43l5-26.7c.73-5.1 1.06-6.84 1-9.48-.08-3.64-.21-5.55-1.78-6.67q-2.26-1.72-6.33-2.2-4.06-.47-13.89-.47M550.15 96c-7.9 0-16.27-.5-20.9-1.51q-6.95-1.53-10.13-5.32c-2.62-2.98-2.13-7.22-2.5-13.03.15-4.64.73-9.3 1.47-13.68l4.78-25.37q1.5-8.15 4.25-14.76a29.5 29.5 0 0 1 7.73-11q2.85-2.78 7.5-4.4 4.62-1.63 10.53-2.13t14.51-.5q6.5 0 11.69.44a45 45 0 0 1 9.1 1.63q3.93 1.19 6.65 3.53 4.94 4.54 5.16 14.27.1 3.92-1.17 13.48l-4.88 25.48c-2.64 14.48-5.79 23.98-13.67 28.52q-4.8 2.68-11.56 3.52c-4.51.55-12.1.83-18.56.83m14.96-78.58q-9.03 0-12.92.34-3.88.33-6.69 1.46a12 12 0 0 0-3.87 2.54q-1.71 1.67-3.41 5.56c-1.13 2.6-2.13 3.98-2.97 8.37l-5.4 28.97c-.63 4.28-1.01 5.63-1.16 8.31q.23 3.6 1.2 5.28.96 1.67 2.83 2.67 2.38 1.24 6.09 1.6 3.7.35 12.22.35 10.34 0 15.41-.63 5.07-.62 7.68-2.87c3.23-2.93 5.09-7.3 6.99-16.43l5-26.7c.72-5.1 1.05-6.84 1-9.48-.1-3.64-.22-5.55-1.79-6.67q-2.26-1.72-6.33-2.2-4.07-.47-13.88-.47" style="fill:#fff" transform="scale(.44 .43947)"/></svg>