<svg xmlns="http://www.w3.org/2000/svg" viewBox="0 0 1251.74 276.11"><path fill="currentColor" fill-opacity=".4" d="M224.46 110.54q0 .37-.09.63-.13.38-.43.38-.2 0-.41-.09-.26-.1-.29-.27.1 0 .2.03.28.08.35.08.27 0 .4-.27.11-.21.11-.51 0-.21-.14-.6-.13-.39-.13-.54 0-.05.02-.08t.08-.03q.12 0 .24.56.1.48.1.7m1.2.32q0 .32-.18.5t-.5.18q-.18 0-.28-.09t-.1-.26q0-.24.32-.5.31-.23.57-.23.12 0 .16.15.02.08.02.25m-.18.08-.01-.07-.03-.08q-.05.03-.16.17l-.1.1v-.1l.05-.09q-.14 0-.3.11-.14.12-.14.25 0 .1.1.1.2 0 .37-.1.22-.11.22-.29m1.48.05q0 .15-.12.34-.13.21-.27.21-.04 0-.07-.04l-.02-.09q0-.06.12-.18t.12-.16l-.01-.06-.02-.04q-.23.06-.47.27t-.37.25q-.03-.07-.03-.14 0-.09.04-.19.03-.07.1-.16l.23-.38.22-.38.22-.38.07-.08q.04-.04.1-.05.04 0 .05.04l.02.08q0 .11-.14.3l-.25.33q-.14.21-.14.39v.03l.2-.1q.14-.05.23-.05.1 0 .14.07.05.06.05.16zm1.45-.19q0 .21-.1.45-.12.27-.28.37-.04-.04-.06-.09-.03-.05-.03-.1t.16-.32q.07-.11.07-.2v-.04q-.12.03-.4.2l-.58.36q-.04 0-.08-.03-.03-.04-.03-.08 0-.06.21-.44l.23-.39q.05.07.06.15.02.08.02.18v.08q.29-.18.45-.26.18-.1.24-.1t.08.1q.04.1.04.16m2.72.6q0 .06-.05.1l-.1.02h-.14l-.24-.04-.37.02-.22.02q-.2 0-.2-.2 0-.18.12-.51l.25-.63q.16-.39.2-.55l.03-.07q.03-.03.07-.03t.1.08q.04.09.04.16 0 .1-.13.37l-.25.5q-.14.3-.14.45 0 .08.07.1.05.03.14.03l.23-.02.23-.01q.14 0 .23.04.13.05.13.18zm1.16-.54q0 .32-.18.5-.19.18-.51.18-.18 0-.28-.09t-.1-.26q0-.24.33-.5.3-.23.56-.23.12 0 .16.15.02.08.02.25m-.19.08v-.07l-.03-.08q-.05.03-.17.17l-.1.1.01-.1.04-.09q-.14 0-.29.11t-.14.25q0 .1.1.1.19 0 .37-.1.21-.11.21-.29m1.51-.15q0 .1-.05.21-.05.12-.13.2v-.17l.02-.11q0-.06-.02-.08-.01-.03-.06-.03-.15 0-.37.23l-.47.5h-.04l-.06-.02q0-.12.08-.25l.19-.4.04-.15q0-.05.03-.1l.05-.09.1-.07.02.38.21-.17q.14-.1.24-.1t.16.06.06.16m1.54-.36q0 .13-.35.34t-.5.21q-.07 0-.1-.05l-.01-.14v-.08q.2 0 .38-.07.17-.06.3-.2-.1-.04-.2-.04-.22 0-.48.18-.28.19-.28.4t.28.3l.53.08q.28.04.28.15 0 .05-.1.08t-.26.03q-.4 0-.63-.12-.3-.17-.3-.53 0-.37.37-.6.32-.18.72-.18.12 0 .22.06.13.07.13.18m1.24-.56q0 .07-.16.29-.17.21-.17.33 0 .06.07.12.15.14.15.17l-.02.08q-.03.03-.07.03l-.1-.03-.17-.13-.07.14-.12.24-.09.3q-.08.18-.2.18v-.07q0-.22.14-.52l.16-.3q-.25-.13-.55-.13 0-.11.05-.17.05-.05.17-.05.1 0 .26.03l.16.04q.06-.02.16-.2.25-.45.34-.51l.05.08zm1.16 1.11q0 .16-.12.35-.13.21-.27.21-.04 0-.07-.04-.03-.05-.03-.09 0-.06.12-.18t.12-.16V111l-.02-.04q-.23.06-.48.27t-.36.25q-.03-.07-.03-.14 0-.09.04-.19.03-.07.1-.16l.23-.38.21-.38.23-.38.07-.08q.04-.04.1-.05.03 0 .05.04l.02.08q0 .11-.14.3l-.26.33q-.14.21-.14.39l.01.03.2-.1q.14-.05.23-.05.1 0 .14.07.05.06.05.16m2.56-1.02q0 .15-.15.4-.1.16-.33.45l-.28.38.23.08q.23.07.23.25l-.19.03h-.03v-.03l-.08-.02-.19.02-.2.02q-.08 0-.13-.03t-.05-.11q0-.07.24-.37l.45-.58q.25-.34.25-.45 0-.04-.03-.06-.03-.03-.12-.03-.06 0-.25.12-.09.06-.15.06l-.05-.01-.04-.05-.02-.06q0-.13.25-.24.22-.1.38-.1.13 0 .2.1t.07.23zm1.89.57q0 .38-.41.67-.38.26-.78.26-.2 0-.31-.1-.12-.1-.12-.29 0-.42.38-.74.35-.3.79-.3.22 0 .33.14.12.13.12.36m-.2.07q0-.14-.16-.22-.12-.05-.29-.05-.25 0-.51.24-.27.24-.27.49 0 .1.05.14t.16.04q.3 0 .63-.17.4-.2.4-.47m1.63-.63q0 .14-.16.39-.1.16-.33.45l-.28.38.23.08q.23.07.23.25l-.18.03h-.04v-.03l-.08-.02-.18.02-.2.02q-.08 0-.14-.03-.05-.03-.05-.11t.24-.37l.46-.58q.24-.34.24-.45 0-.04-.03-.06-.03-.03-.12-.03-.06 0-.24.12-.1.06-.15.06l-.05-.01-.04-.05-.03-.06q0-.13.26-.24.21-.1.37-.1.14 0 .2.1.07.1.07.23m1.44 0q0 .14-.16.39-.1.16-.33.45l-.28.38.23.08q.23.07.23.25l-.18.03h-.04v-.03l-.08-.02-.18.02-.2.02q-.08 0-.14-.03-.05-.03-.05-.11t.24-.37l.46-.58q.24-.34.24-.45 0-.04-.03-.06-.03-.03-.12-.03-.06 0-.24.12-.1.06-.15.06l-.05-.01-.05-.05-.02-.06q0-.13.26-.24.21-.1.37-.1.14 0 .2.1.07.1.07.23z"/><path fill="currentColor" d="M371.95 106.61v57.27h-9.98v-25.26h-17.69v25.26h-10.21v-57.27h10.21v22.6h17.7v-22.6zM481.3 167.1l-11.9-30.89-17.46 28.15h-10.93l24.37-40.3-2.74-7.96h-9.49v-9.49h16.25l18.66 48.58 8.2-2.73 2.74 9.41zm109.13-12.55h28.31v9.25h-38.37v-57.1h10.06zm142.25-47.86h.8v9.41H712.9v13.35h16.65v9.26H712.9v25.17h-10.2v-57.19zm80.38 22.68v9.74H786.2v-9.74zm60.09 25.18h28.31v9.25H863.1v-57.1h10.06zm117.59-47.86h.88v57.27h-9.98V106.7zm122.37 0h.8v9.41h-20.59v13.35h16.65v9.26h-16.65v25.17h-10.21v-57.19zm114.01 47.94v9.25h-36.03v-57.19h34.99v9.33h-24.94v13.27h21.64v9.41h-21.64v15.93z" style="fill:#fff"/><g transform="translate(40.7 37.6)"><circle cx="97.36" cy="100.46" r="130.23" style="opacity:.98;fill:none;stroke:#fff;stroke-width:15.6458;stroke-linecap:round;stroke-linejoin:round;stroke-opacity:1"/><path fill="currentColor" d="m128.1 136.27 5.85 19.65-33.97 11.6-20.33-61.86-31.2 57.35H25.33l44.84-87.3-5.56-15.78H50.4v-18.7h28.4l33.98 100.52z" style="fill:#fff"/><path fill="currentColor" d="m11.72 94.79 1 1.64-14.33 23.15h7.19l10.4-19.2 10.46 19.2h7.16L19.3 96.43 32.64 74.6H25.5L16 92.62 6.48 74.6h-7.1zm126.14-20.6c-4.49.06-9.25 1.4-12.32 4.86-2.4 2.64-3.24 6.38-2.86 9.87.2 2.87 1.39 5.83 3.87 7.45 3.33 2.35 7.52 2.55 11.42 3.13 2.57.35 5.42.56 7.39 2.46 2.23 2.15 2.63 5.77 1.4 8.54-1.21 2.64-4.1 3.98-6.85 4.34-3.93.48-8 .1-11.75-1.17a15 15 0 0 1-2.69-1.25l-3.87 3.8c3.95 2.87 8.97 3.58 13.73 3.76s9.84-.62 13.77-3.52a11.3 11.3 0 0 0 4.64-8.5c.1-3.06-.14-6.38-2-8.94-2.15-2.8-5.76-3.8-9.09-4.34-2.68-.42-5.41-.62-8.08-1.17-2.75-.65-5.34-2.78-5.76-5.7-.61-3.6 2-7.2 5.38-8.28 2.7-.91 5.62-.63 8.4-.34 1.84.23 3.66.73 5.23 1.73l3.62-3.55c-3.97-2.63-8.92-3.24-13.58-3.19zm25.82 45.39h6.6V99.27h19.88v20.3h6.56V74.6h-6.56v19.7h-19.89V74.6h-6.59z" style="fill:#fff"/></g></svg>