<svg xmlns="http://www.w3.org/2000/svg" viewBox="0 0 264 45"><path d="M695.1-245.54c-10.65 0-19.67-3.5-26.5-10.35-15.16-15.15-17.34-43.2-17.34-58.57 0-20.75 4.23-68.92 43.84-68.92s43.98 48.17 43.98 68.92c0 20.7-4.37 68.92-43.98 68.92m0-152.07c-37.7-.03-59.28 30.3-59.28 83.15 0 52.82 21.58 83.14 59.28 83.14 21.45 0 37.43-9.34 47.53-27.75 9.7-17.57 11.75-39.82 11.75-55.39 0-25.02-5.87-83.15-59.28-83.15M567.8-245.54c-22.4 0-40.02-18.04-40.02-41.03 0-23.87 17.21-41.9 40.02-41.9a38.2 38.2 0 0 1 27.32 11.3c7.92 7.89 12.43 19.06 12.43 30.6 0 22.99-17.48 41.03-39.75 41.03m0-97.17a51.6 51.6 0 0 0-42.48 22.24c1.91-30.14 11.61-62.91 44.26-62.91 18.3 0 32.23 11.92 35.24 30.38l.54 2.88h15.17l-.28-3.83c-3-26.92-22.4-43.69-50.67-43.69-49.58 0-60.1 49.35-60.1 90.75 0 49.44 20.21 75.57 58.32 75.57 31.42 0 55.05-23.75 55.05-55.25 0-32.52-23.09-56.13-55.05-56.13m-95.74 22.4c13.38-6.16 21.85-19.55 21.85-35.31 0-11.15-3.69-20.46-10.93-27.76-9.15-9.23-24.45-14.53-41.52-14.53-28.14 0-47.53 16.73-50.54 43.7l-.41 3.8h15.16l.55-2.85c3-18.5 16.93-30.43 35.24-30.43 18.44 0 37.15 9.64 37.15 28.07 0 7.86-2.46 14.26-7.38 18.93-7.78 7.58-22.4 9.46-29.91 9.46-2.73 0-6.7.07-10.65.09-.14 3.85-.14 11.26 0 15h10.65c14.2.13 25.27 3.08 32.24 9.58 5.73 5.34 8.6 12.8 8.6 22.18 0 22.68-20.49 34.55-40.7 34.55-13.25 0-24.04-4.03-31.28-11.59-7.24-7.45-10.8-18.23-10.25-31.07l.14-3.6h-15.3l-.13 3.31c-.82 17.02 3.82 31.28 13.25 41.24 9.97 10.42 25.13 15.94 43.57 15.94 34 0 56-19.14 56-48.78 0-18.75-9.7-33.58-25.4-39.94m-124.98 85.03-61.06-83.11 55.73-75.54h-20.9L275.5-332.3l-45.34-61.62H209.4l55.59 75.55-60.92 83.1h20.9l50.53-68.78 50.68 68.78zm-415.78 0-60.91-83.11 55.59-75.54h-20.76l-45.35 61.62-45.35-61.62h-20.9l55.73 75.55-61.05 83.1h20.9l50.67-68.78 50.54 68.78z" style="fill:#fff" transform="matrix(.27327 0 0 .27014 57.85 107.49)"/><path d="M4.38-251.85H-42.2v-57.72H4.38c17.76 0 38.79 4.85 38.79 27.6 0 26.17-24.31 30.12-38.8 30.12m-46.58-125.5H4.38c12.56 0 33.74 3.16 33.74 25.22 0 16.69-12.3 26.6-33.74 26.6H-42.2zm89.47 64.97a43 43 0 0 0-10.38-6.63c11.47-6.25 18.98-18.03 18.98-31.75 0-10.13-3.69-43.17-51.5-43.17h-64.32v68.43H-81.4A421 421 0 0 0-93-309.6h33.05v74.33H4.38c34.97 0 56.68-17.74 56.68-46.32 0-12.48-4.78-23.1-13.8-30.78m97.54 63.8c-34.02 0-57.79-27.17-57.79-66.12 0-38.92 23.77-66.08 57.78-66.08 33.87 0 57.5 27.16 57.5 66.08 0 38.95-23.63 66.12-57.5 66.12m0-148.99c-44.67 0-75.82 34.07-75.82 82.87 0 48.83 31.15 82.9 75.81 82.9 44.4 0 75.54-34.07 75.54-82.9 0-48.8-31.15-82.87-75.54-82.87" style="fill:#fff" transform="matrix(.27327 0 0 .27014 57.85 107.49)"/></svg>