<svg xmlns="http://www.w3.org/2000/svg" fill-rule="evenodd" stroke-linejoin="bevel" stroke-width=".5" overflow="visible" viewBox="0 0 264 44"><path d="m252.17 0-21.22 17.2L209.84 0h-11.95l27.2 22-27.2 22h11.95l21.1-17.3L252.18 44H264l-27.08-22L264 0zm-57.8 22c0-9.82-2.56-17.09-7.46-22h-43.4c-5.11 4.91-7.67 12.18-7.67 22s2.56 17.09 7.68 22h43.4c4.9-4.91 7.45-12.28 7.45-22m-7.25 0c0 3.31-.74 6.73-2.13 10.25l-2.02 4.6h-35.62l-2.02-4.6A26 26 0 0 1 143.2 22q0-7.84 4.15-14.74h35.62q4.15 6.89 4.15 14.74m-62.37 1.82v-3.64l3.2-1.7c-.75-8.23-3.2-14.42-7.36-18.48H77.2c-4.15 3.95-6.71 10.15-7.35 18.37H62.8v7.26h7.04c.64 8.22 3.2 14.31 7.36 18.37h43.4c4.15-4.16 6.6-10.25 7.35-18.37zm-8.1-16.56a31 31 0 0 1 3.94 11.11H77.2c.65-4.17 1.92-7.8 3.95-11.1zm3.95 18.36a32 32 0 0 1-3.94 11.22H81.14a30 30 0 0 1-3.94-11.22z" style="fill:#fff"/><path d="M38.92 22 66 0H54.06L32.95 17.2 11.73 0H0l26.98 22L0 44h11.73l21.22-17.3L54.05 44H66z" style="fill:#fff"/></svg>