<svg xmlns="http://www.w3.org/2000/svg" viewBox="0 0 3725.9 1469.8"><path d="M3658.2 59.8v199.7h-673.4v312.4h617.3l-130.6 164.6h-486.7v508.8H3602L3471.5 1410h-761.3V736.6h-207.4l536.8-676.7h618.6m-973-.1-506 637.9-29.5 37.2 29.5 37.2 424.3 534.9 81.7 103H2449l-370.5-467.1-46.9-59.1-46.9 59.1-370.5 467.1H1378l506-637.9 29.5-37.2-29.5-37.2-506-637.9h236.3l370.5 467.1 46.9 59.1 46.9-59.1L2449 59.8zM1643.1 0h-389l583 734.9-583 734.9h389l388.5-489.7 388.5 489.7h1080.3l225.5-284.3h-681.3V796.4h455.8l225.5-284.3h-681.3V319.3H3718V0h-707.3L2379 796.4h271.4v473.4l-424.3-534.9L2809 0h-389l-388.5 489.7m-1429.8-3.1H320.2v75.9h103.7v421.8h74.2V562.5h103.7c-.1-25.4-.1-50.6-.1-75.9m-375.4 12.3c-10.2-8.9-23.5-13.2-36.8-13.2-17.6 0-35.3 7.4-46.3 21.5-11 12.3-12.9 29.1-17.7 44.2C83.6 695.6 41.8 839.9 0 984.1h77.4c12.2-41.8 24.2-83.6 36.5-125.2 33.5 0 66.9-.1 100.3-.1 16.7 0 33.4 0 50.2.1 12.2 41.8 24.2 83.6 36.3 125.2h77.8c-44-151.3-88.1-302.4-132.1-453.7-3.6-11.9-10.3-23.2-20.1-31.5M170.8 788c-12.2 0-24.3 0-36.5-.1 18.2-62.7 36.3-125.4 54.7-188.1q27.45 94.05 54.6 188.1c-24.2 0-48.5.1-72.8.1m581.7-300.7q-6.9-1.8-14.1-1.8c-19 0-37.8 9.3-48.6 24.9-8.6 11.3-10.3 25.7-14.6 38.9-42.1 144.9-84.3 289.9-126.1 435h77.3c12-41.8 24.3-83.4 36.3-125.2H813c12.2 41.8 24.1 83.4 36.1 125.2 26-.2 51.9 0 78-.2-43.9-151.1-88.1-302.2-132-453.3-5.4-20.6-21.5-38.7-42.6-43.5m-69.1 300.8c18-62.9 36.3-125.8 54.5-188.5 18 62.9 36.5 125.6 54.5 188.5z" class="st0" style="fill:#fff"/><path d="M1320.1 984.3h78.6V486.6h-78.6zm-155.2-206.8c14.6-10.8 31.5-18 45.1-30.2 25.7-22.3 39.7-55.7 42.3-89.1 3.8-31.9 2.2-65.8-12.7-94.9-21.6-44.9-69-75.9-118.9-76.8-19.8 0-39.4.1-59.2.1-9.9 0-19.7 0-29.6-.1h-1.8c-6.9 0-13.8.9-20.4 3.1-24.3 7.7-42.5 31.9-42.8 57.6v437.1h74.9c0-135.3-.2-270.7 0-406 0-8.6 7.9-16.1 16.5-16.1h.3c12.8 0 25.6.1 38.4.1 6.4 0 12.8 0 19.2-.1h1.9c27 0 52.2 20.9 58 47.2 5 20.7 5.7 44-5.7 63-14.7 25.2-41.1 41.1-67.8 51.4-14 5.5-26.6 15.9-31.9 30.3-6.7 18.7-3.8 40.4 7.5 56.9 38.2 57.7 76.2 115.6 114.6 173.4h88.1c-40.1-60.1-81-119.8-120.3-180.4-4.1-8.7-3.8-20.5 4.3-26.5" class="st0" style="fill:#fff"/></svg>