<svg xmlns="http://www.w3.org/2000/svg" viewBox="0 0 553.61 58.52"><g stroke-width="2.5" style="fill:#fff"><path fill="currentColor" d="M105.71 58.21q0-1.21.86-2.07t2.07-.86v-50q-1.2 0-2.07-.86t-.86-2.07h16.76q0 1.21-.86 2.07t-2.07.86v20.86L131.3 2.35h13.83q0 1.64-1.49 2.5-.46.31-1.44.4l-12.66 25.03 12.66 25q1.2 0 2.07.86t.86 2.07H131.3l-11.76-23.83v20.9q1.21 0 2.07.86t.86 2.07zm-28.39-10.9q0 1.21.86 2.07t2.07.86h5.86q1.21 0 2.07-.86t.86-2.07v-6.17h12.11q0 2-1.83 2.74.62 1.75.62 3.63v.35q0 4.38-3.12 7.5t-7.5 3.13H77.05q-4.37 0-7.5-3.13t-3.12-7.5V12.63q0-4.38 3.12-7.5T77.05 2h12.27q4.37 0 7.5 3.13t3.12 7.5v.35q0 1.87-.62 3.63 1.83.74 1.83 2.73h-12.1v-6.17q0-1.2-.87-2.07-.86-.86-2.07-.86h-5.86q-1.2 0-2.07.86t-.86 2.07zm-33.38 10.9q0-1.21.86-2.07t2.07-.86V5.24q-1.21 0-2.07-.86t-.86-2.07h16.75q0 1.21-.86 2.07t-2.07.86v50.04q1.21 0 2.07.86t.86 2.07zm-18.4-44.69q0-1.2-.85-2.07-.86-.9-2.07-.9h-8.8v15.59h8.8q1.2 0 2.07-.86t.86-2.07zm.67 16.72q4.22.16 7.23 3.24 3 3.13 3 7.43v14.37q1.22 0 2.08.86.85.86.85 2.07H25.56v-20.9q0-1.2-.86-2.07-.82-.86-2.03-.86h-8.83v20.9q1.2 0 2.07.86t.86 2.07H0q0-1.21.86-2.07t2.07-.86V5.24q-1.21 0-2.07-.86T0 2.31h25.82q4.38 0 7.5 3.13t3.13 7.5v6.68q0 4.3-3.01 7.38-3.01 3.13-7.23 3.24m515.26 7.07q0-1.2-.87-2.07-.86-.86-2.08-.86h-9.12q-4.44 0-7.58-3.12-3.11-3.13-3.11-7.5V12.62q0-4.37 3.1-7.5Q524.96 2 529.4 2h12.34q4.4 0 7.55 3.13t3.14 7.5v.35q0 1.87-.67 3.63 1.85.74 1.85 2.73h-12.14v-6.17q0-1.2-.87-2.07-.86-.86-2.08-.86h-5.9q-1.22 0-2.08.86t-.86 2.07v10.04q0 1.21.86 2.07t2.08.86h9.12q4.4 0 7.55 3.13t3.14 7.5v11.09q0 4.37-3.14 7.5t-7.55 3.12H529.4q-4.44 0-7.58-3.12-3.11-3.13-3.11-7.5v-.35q0-1.88.63-3.64-1.85-.74-1.85-2.73h12.18v6.17q0 1.21.87 2.07.86.86 2.08.86h5.9q1.22 0 2.08-.86t.86-2.07zM498.6 5.24q-1.22 0-2.08-.86t-.87-2.07h16.86q0 1.21-.86 2.07-.87.86-2.09.86v42.62q0 4.37-3.14 7.5t-7.55 3.12h-12.34q-4.4 0-7.54-3.12t-3.15-7.5V5.24q-1.21 0-2.08-.86-.86-.86-.86-2.07h16.86q0 1.21-.87 2.07-.86.86-2.08.86v42.07q0 1.21.86 2.07.87.86 2.09.86h5.9q1.21 0 2.07-.86.87-.86.87-2.07zM467.13 47.9q0 4.37-3.14 7.5t-7.55 3.12H444.1q-4.4 0-7.55-3.12t-3.14-7.5V12.66q0-4.37 3.14-7.5t7.55-3.12h12.34q4.4 0 7.55 3.12t3.14 7.5zm-13.91 2.38q1.22 0 2.08-.86t.87-2.07V13.21q0-1.21-.87-2.07-.86-.86-2.08-.86h-5.9q-1.22 0-2.08.86t-.87 2.07v34.14q0 1.21.87 2.07.86.86 2.08.86zM414.9 13.52q0-1.2-.87-2.07-.86-.9-2.08-.9h-8.84v15.59h8.84q1.22 0 2.08-.86t.87-2.07zm.67 16.72q4.24.16 7.27 3.24 3.02 3.13 3.02 7.43v14.37q1.22 0 2.09.86t.86 2.07H414.9v-20.9q0-1.2-.87-2.07-.82-.86-2.04-.86h-8.88v20.9q1.22 0 2.08.86t.87 2.07H389.2q0-1.21.86-2.07.87-.86 2.08-.86V5.24q-1.21 0-2.08-.86-.86-.86-.86-2.07h25.97q4.4 0 7.55 3.13t3.14 7.5v6.68q0 4.3-3.02 7.38-3.03 3.12-7.27 3.24m-65.31 27.97q0-1.21.86-2.07.87-.86 2.09-.86V5.24q-1.22 0-2.09-.86t-.86-2.07h33.95v11.17q-1.21 0-2.08-.86-.86-.86-.86-2.07h-17.1v15.59h14.34q0-1.21.87-2.07.86-.86 2.08-.86v14.1q-1.22 0-2.08-.86t-.87-2.07h-14.34v15.55h17.1q0-1.21.86-2.07.87-.86 2.08-.86v11.21zm-30.3-10.9q0 1.21.87 2.07t2.09.86h5.89q1.22 0 2.08-.86t.87-2.07v-14.1q-1.22 0-2.09-.86t-.86-2.07h16.86q0 1.21-.86 2.07-.87.86-2.09.86v14.65q0 4.37-3.14 7.5t-7.55 3.12H319.7q-4.4 0-7.54-3.12t-3.15-7.5V12.63q0-4.38 3.15-7.5T319.7 2h12.34q4.4 0 7.55 3.13t3.14 7.5v.35q0 1.87-.63 3.63 1.85.74 1.85 2.73h-12.18v-6.17q0-1.2-.87-2.07-.86-.86-2.08-.86h-5.9q-1.21 0-2.08.86-.86.86-.86 2.07zM277.5 26.3v28.98q1.22 0 2.09.86t.86 2.07h-16.86q0-1.21.87-2.07.86-.86 2.08-.86v-50q-1.22 0-2.09-.86t-.86-2.07h13.17l12.57 31.92V5.28q-1.22 0-2.08-.86t-.87-2.07h16.86q0 1.21-.86 2.07t-2.08.86v50q1.21 0 2.08.86t.87 2.07h-13.17zm-55.17 16.52q.16-8.87 2.68-16.6l7.03-21.49q-1.3-.9-1.3-2.42h16.86q0 1.53-1.25 2.42l7.03 21.49q2.52 7.73 2.67 16.6v12.46q1.22 0 2.09.86t.86 2.07h-16.82q0-1.21.83-2.07.86-.86 2.08-.86V42.63H233.3v12.65q1.22 0 2.08.86.83.86.83 2.07h-16.82q0-1.21.86-2.07.87-.86 2.09-.86zm22.2-8.44q-.5-4.02-1.6-8.2l-3.74-14.3-3.73 14.3q-1.1 4.18-1.61 8.2zM181.09 5.24q-1.22 0-2.09-.86t-.86-2.07h25.98q4.4 0 7.54 3.13t3.15 7.5v34.6q0 4.42-3.15 7.55t-7.54 3.12h-25.98q0-1.21.86-2.07.87-.86 2.09-.86zm22.75 8.24q0-1.2-.86-2.07-.87-.86-2.08-.86h-8.85v39.38h8.85q1.21 0 2.08-.86.86-.82.86-2.07z" style="fill:#fff"/><path fill="currentColor" d="M25.55 11.52q0-1.2-.86-2.07-.86-.9-2.07-.9h-8.8v15.59h8.8q1.2 0 2.07-.86t.86-2.07zm.66 16.72q4.22.16 7.23 3.24 3 3.13 3 7.43v14.37q1.22 0 2.08.86t.86 2.07H25.55v-20.9q0-1.2-.86-2.07-.82-.86-2.03-.86h-8.83v20.9q1.2 0 2.07.86t.86 2.07H0q0-1.21.86-2.07t2.07-.86V3.24q-1.21 0-2.07-.86T0 .31h25.82q4.38 0 7.5 3.13t3.13 7.5v6.68q0 4.3-3.01 7.38-3.01 3.13-7.23 3.24m17.73 27.97q0-1.21.86-2.07t2.07-.86V3.24q-1.21 0-2.07-.86T43.94.31h16.75q0 1.21-.86 2.07t-2.07.86v50.04q1.21 0 2.07.86t.86 2.07zm33.38-10.9q0 1.21.86 2.07t2.07.86h5.86q1.21 0 2.07-.86t.86-2.07v-6.17h12.11q0 2-1.83 2.73.62 1.76.62 3.64v.35q0 4.37-3.12 7.5t-7.5 3.12H77.05q-4.37 0-7.5-3.12t-3.12-7.5V10.63q0-4.38 3.12-7.5T77.05 0h12.27q4.37 0 7.5 3.13t3.12 7.5v.35q0 1.87-.62 3.63 1.83.74 1.83 2.73h-12.1v-6.17q0-1.2-.87-2.07-.86-.86-2.07-.86h-5.86q-1.2 0-2.07.86t-.86 2.07zm28.4 10.9q0-1.21.85-2.07.86-.86 2.07-.86v-50q-1.2 0-2.07-.86t-.86-2.07h16.76q0 1.21-.86 2.07t-2.07.86v20.86L131.3.35h13.83q0 1.64-1.49 2.5-.46.31-1.44.4l-12.66 25.03 12.66 25q1.2 0 2.07.86t.86 2.07H131.3l-11.76-23.83v20.9q1.21 0 2.07.86t.86 2.07zm75.36-52.97q-1.22 0-2.08-.86t-.87-2.07h25.98q4.4 0 7.54 3.13 3.15 3.12 3.15 7.5v34.6q0 4.42-3.15 7.55t-7.54 3.12h-25.98q0-1.21.87-2.07.86-.86 2.08-.86zm22.75 8.24q0-1.2-.86-2.07-.87-.86-2.08-.86h-8.85v39.38h8.85q1.21 0 2.08-.86.86-.82.86-2.07zm18.5 29.34q.16-8.87 2.68-16.6l7.03-21.49q-1.3-.9-1.3-2.42h16.86q0 1.53-1.25 2.42l7.03 21.49q2.52 7.73 2.67 16.6v12.46q1.22 0 2.09.86t.86 2.07h-16.82q0-1.21.83-2.07.86-.86 2.08-.86V40.63H233.3v12.65q1.22 0 2.08.86.83.86.83 2.07h-16.82q0-1.21.86-2.07.87-.86 2.09-.86zm22.2-8.44q-.5-4.02-1.6-8.2l-3.74-14.3-3.73 14.3q-1.1 4.18-1.61 8.2zm32.97-8.08v28.98q1.22 0 2.09.86t.86 2.07h-16.86q0-1.21.87-2.07.86-.86 2.08-.86v-50q-1.22 0-2.09-.86T263.6.35h13.17l12.57 31.92V3.28q-1.22 0-2.08-.86t-.87-2.07h16.86q0 1.21-.86 2.07t-2.08.86v50q1.21 0 2.08.86t.87 2.07h-13.17zm42.48 21.01q0 1.21.86 2.07.87.86 2.09.86h5.89q1.22 0 2.08-.86t.87-2.07v-14.1q-1.22 0-2.09-.86t-.86-2.07h16.86q0 1.21-.86 2.07-.87.86-2.09.86v14.65q0 4.37-3.14 7.5t-7.55 3.12H319.7q-4.4 0-7.54-3.12t-3.15-7.5V10.63q0-4.38 3.15-7.5T319.7 0h12.34q4.4 0 7.55 3.13t3.14 7.5v.35q0 1.87-.63 3.63 1.85.74 1.85 2.73h-12.18v-6.17q0-1.2-.87-2.07-.86-.86-2.08-.86h-5.9q-1.21 0-2.08.86-.86.86-.86 2.07zm30.29 10.9q0-1.21.86-2.07.87-.86 2.09-.86V3.24q-1.22 0-2.09-.86t-.86-2.07h33.95v11.17q-1.21 0-2.08-.86-.86-.86-.86-2.07h-17.1v15.59h14.34q0-1.21.87-2.07.86-.86 2.08-.86v14.1q-1.22 0-2.08-.86t-.87-2.07h-14.34v15.55h17.1q0-1.21.86-2.07.87-.86 2.08-.86v11.21zm64.64-44.69q0-1.2-.87-2.07-.86-.9-2.08-.9h-8.84v15.59h8.84q1.22 0 2.08-.86t.87-2.07zm.67 16.72q4.24.16 7.27 3.24 3.02 3.13 3.02 7.43v14.37q1.22 0 2.09.86t.86 2.07h-13.91v-20.9q0-1.2-.87-2.07-.82-.86-2.04-.86h-8.88v20.9q1.22 0 2.08.86t.87 2.07H389.2q0-1.21.86-2.07.87-.86 2.08-.86V3.24q-1.21 0-2.08-.86-.86-.86-.86-2.07h25.97q4.4 0 7.55 3.13t3.14 7.5v6.68q0 4.3-3.02 7.38-3.03 3.12-7.27 3.24zm51.55 17.66q0 4.37-3.14 7.5t-7.55 3.12H444.1q-4.4 0-7.55-3.12t-3.14-7.5V10.66q0-4.37 3.14-7.5T444.1.04h12.34q4.4 0 7.54 3.13t3.15 7.5zm-13.91 2.38q1.21 0 2.08-.86.86-.86.86-2.07V11.21q0-1.21-.86-2.07t-2.08-.86h-5.9q-1.22 0-2.08.86t-.87 2.07v34.14q0 1.21.87 2.07.86.86 2.08.86zM498.6 3.24q-1.22 0-2.08-.86t-.87-2.07h16.86q0 1.21-.86 2.07-.87.86-2.09.86v42.62q0 4.38-3.14 7.5t-7.55 3.13h-12.34q-4.4 0-7.54-3.13t-3.15-7.5V3.24q-1.21 0-2.08-.86-.86-.86-.86-2.07h16.86q0 1.21-.87 2.07-.86.86-2.08.86v42.07q0 1.21.86 2.07.87.86 2.09.86h5.9q1.21 0 2.07-.86.87-.86.87-2.07zm42.87 32.07q0-1.2-.87-2.07-.86-.86-2.08-.86h-9.12q-4.44 0-7.58-3.12-3.11-3.13-3.11-7.5V10.62q0-4.37 3.1-7.5Q524.96 0 529.4 0h12.34q4.4 0 7.55 3.13t3.14 7.5v.35q0 1.87-.67 3.63 1.85.74 1.85 2.73h-12.14v-6.17q0-1.2-.87-2.07-.86-.86-2.08-.86h-5.9q-1.22 0-2.08.86t-.86 2.07v10.04q0 1.21.86 2.07t2.08.86h9.12q4.4 0 7.55 3.13t3.14 7.5v11.09q0 4.37-3.14 7.5t-7.55 3.12H529.4q-4.44 0-7.58-3.12-3.11-3.13-3.11-7.5v-.35q0-1.88.63-3.64-1.85-.74-1.85-2.73h12.18v6.17q0 1.21.87 2.07.86.86 2.08.86h5.9q1.22 0 2.08-.86t.86-2.07z" style="fill:#fff"/></g></svg>