<?xml version="1.0" encoding="UTF-8" standalone="no"?><svg viewBox="0 0 1875 828" version="1.1" id="svg2" xmlns="http://www.w3.org/2000/svg" xmlns:svg="http://www.w3.org/2000/svg"><path fill="currentColor" stroke="currentColor" stroke-width=".09" d="m81.7 29.3 1.1-1.1H105c1.9-.3 3 1.4 3.9 2.8 1.8 3.5 3.8 7.1 3.8 11.1.2.4.5 1.2.7 1.5-2.1 2.2-4.2 4.5-6.8 6.1-1.3.7-2.1 2-2.8 3.4 4.7-1.3 9.3-3.2 13-6.3.9-3.3 0-7.1 1.7-10.3 4.6-2.6 9.4-4.9 13.4-8.2q11.1-.3 22.2 0c-1.5 2.5-3.1 4.9-4 7.7 5.5 1.6 11.2 1.9 16.9 1.3 4.3-1.1 8.5-2.8 12.3-5.1 3.2-2 6.8-3.7 10.7-4h334c2.5-.1 4.7 1.1 7 1.8 3.8-1.4 8-.7 11.9-.8q-.3 2.25-.9 4.5c3.9-.6 7-3 9.9-5.4 24.1-.2 48.1 0 72.2-.1.3 2.8 1 5.7 2.5 8.2 1.7 2 3.6 3.7 5.5 5.5 2 2.1 5.1 3.3 6.5 6-.9 3.4-2.3 6.7-4.1 9.7-17 25.3-33.9 50.8-50.8 76.1-1.1 1.6-2.6 2.8-4 4-2.2-1.7-4.4-4.5-7.5-3.4-2.9 1.6-5.9 3.4-7.9 6 .2 2.3 1.3 4.4 1.1 6.7.4 4-3.9 6.7-7.4 6.9-1.6-.1-1.8 1.7-2.5 2.7-2.4 4.5-6.8 7.2-10.7 10.2 2.4.7 4.9 1.4 7.4 2.1v3.5c-2.5.5-4.8-.9-7.3-.9-.2 2.5-1 4.8-1.2 7.3 2.2.9 4.8 1.7 5.8 4.1.2 2.1-1.2 3.8-2.2 5.4-18.6 27.8-37.1 55.6-55.6 83.4-1.2 1.8-2.3 3.6-3.9 5.1-1.4 1.3-3.3 1.9-4.7 3.1-1.8 5.5-3.4 11.3-7.6 15.6-4.9 4.4-6.3 11.4-11.1 15.9-2.3 2.8-5.6 4.5-8.5 6.5-.6 2.5 0 5.1-.4 7.7-1.3 3.6-3.9 6.5-6.1 9.6-5.2 8.8-11.3 16.9-16.8 25.5-56.7 85.2-113.6 170.4-170.3 255.6-2.3 3.1-3.8 7-7.3 9-3.2 1.8-5.9 4.4-9 6.4-2.4-.1-4.4-3.2-4.4-5.6-1.2 1.8-2.3 4.3-4.6 4.8-2.1-1.5-3.9-3.4-6.2-4.6-1.9-.1-2 2.6-2.9 3.8 2.1.7 4.3 1.3 6.4 1.9q.15 3.9 0 7.8c-1.6.7-2.8 1.8-3.6 3.2 4 .5 8.3-.6 12.1 1.2-2.2 4.9-5.3 9.1-8 13.6-2.6 3.7-5.5 7.2-7.2 11.5 4.1.1 8.3 0 12.4.1 59.7 0 119.3-.1 179 0 1.2-.1 2.3-.2 3.5-.5.1-2.1.4-4.2 1.2-6.2 1.9-5 3.9-10 4.9-15.3 1.3-5.1 4.3-9.5 6.2-14.4 2.7-6.9 6.8-13.1 10-19.8 1.3-2.3 2.5-4.6 3-7.1.5-2.6 2.5-4.5 3.7-6.8 1.1-2.2.9-4.8.9-7.3-7.1 0-14.3.1-21.4.1-4 .1-7.9-1.1-11.4-2.7-2.1-1.6-3.8-3.6-5-5.9-1.7-3.6-1.9-7.7-3.9-11.2-1.3-2.3-2.5-4.8-5.2-5.8 3.4-3.7 8 .4 11.9.2 2-1.8 3.3-4.1 4-6.7 1.5.2 3.1.3 4.2 1.4 7.3 5.7 13.4 13.1 22 17.2 3.3 1.7 7.9 1.2 10-2.1 4.2-4.3 2.7-10.9 5.2-15.9.1-.7.2-2 .3-2.6 1.3-1.2 2.5-3.2 4.5-2.6 3.1 1.6 5.9 4 9.4 4.6 2.9 0 5-2.7 5.6-5.3 1-3.9 1.9-7.8 3.2-11.6 1.3-9.1 4.6-18.1 3.2-27.4-.1-6.4-2.2-12.4-2.8-18.7-.3-2.9-.7-5.9-1.8-8.7-.3-.2-.9-.7-1.2-.9-1.7 1.6-3.5 3.2-4.5 5.3-1.9 3.9-1.7 8.3-1.2 12.4.8 4 .4 8.2.4 12.3-3.1-1-5.4-3.6-7.2-6.2-2-4.1-3.8-8.6-4.2-13.2-.3-1.8-1-3.6-1.6-5.4-1.5.2-2.9.3-4.3 1-4.5 1.9-9.3 3.2-13.8 5-3.3.7-7.1.9-9.8-1.4-2.9-1.6-2.8-5.2-3.4-8-1.1-5 .1-10.1.7-15.1.6-3 1.1-6.4 3.8-8.4-.1-.4-.4-1.2-.5-1.6-2.3-2-5.5-2.9-7.9-4.8-4.4-3.3-9.7-5.5-13.6-9.4-2.9-2.7-7.1-5-7.2-9.5 7.8-2.6 15.8-5.5 24.1-5.1 8.1-.4 16.2 1.2 24 3.3 2.8-.7 5.8-1.6 7.3-4.3 1.3-4.3.9-8.9 1.8-13.3.7-3.7.1-7.6 1.7-11 2.9-7.7 5.8-15.5 10.2-22.5 3.9 1.7 7.1 4.9 8.7 8.9 3.1 4.8 5.5 10 6.8 15.6 1.4 5.1-1 11.2 2.7 15.7 2.2.5 4.6.4 6.8.3 2.5-.8 4.5-2.6 6.9-3.6 6-2.2 11.9-5 18.1-6.5 6.3-1.4 12.5-2.9 18.9-3.7-.3 5.6-1.7 11.3-4.4 16.3-4.6 7.1-11.9 11.6-18.6 16.6-1.7.4-3.9.6-4.9 2.4 3.4 3.5 7.1 6.7 11.3 9.2 3 1.8 5.6 4.3 8.1 6.9 3.2 2.7 4.3 7.4 3.9 11.5-6.1-2.4-10-8.3-16.3-10.3-2.2-1.1-4.8 1-5.3 3.2.6 4.1 2.9 7.8 3.5 12 1.1 3.5-.6 7.6-3.6 9.6-3.9 2.9-9.1 2.4-13.7 2.1-3.6-.9-7-2.8-10.5-4.1-1.5-.9-3.2-1.4-4.9-1.4-.3 4.6 1 9.2.9 13.8 2 12.8 2.7 26.2-.3 39 3-.3 5.4-2.4 7.4-4.5 2.4-2.4 4.8-4.9 6.3-8 1.8-3.3 5.7-4.2 9-5.4-4.2 5.1-8.2 10.6-11.1 16.6-2.1 3.2-4.9 5.9-6.9 9.1-2.5 4.4-5.8 8.4-7.3 13.3.4 1.3 1.2 1.9 2.4 2.1 4 .2 7.9-.3 11.8.2 1.2 1.5.8 3.7.6 5.5-2.3 3.1-6.8 3.3-9.3 6.2.1.3.2 1.1.3 1.4 3.9 2.1 8.3 2.4 12.6 1.6 4.5-.8 9.2-.9 13.6.7-1 2.7-4.2 2.7-6.5 3.4-4.3-.5-8.8-1.6-13 .1.9 1.4 1.8 2.8 3.5 3.2 2.5.2 5.1 0 7.6.8a14 14 0 0 1-10.1 3.3c-5.2.3-10-1.8-15-2.7-3.2-.5-6.4-1.1-9.6-1.4 1 3.9 4.3 6.3 8 7.4 3.3.7 6.4-1.4 9.6-.8 2.3.5 4.6 2.4 4.4 4.9-.3 1.6-1 3.2-1.6 4.7-3.5 0-7.3.7-10.6-1-3.8-1.7-7.8-2.6-11.9-3.6-1.4 6.1-4.1 13.4-10.7 15.4-3.9 1.5-8-1.8-11.8.2-3.3 2.1-5.6 5.6-6.8 9.3-.7 2.1-2.4 3.8-3.2 5.9-1.6 4.5-4.1 8.6-5.7 13-2.8 4.9-3.9 10.4-5.5 15.7-1.3 3.8-2.4 7.7-2.3 11.8 27.3 0 54.5-.1 81.8 0 3.5-2.6 6.8-5.4 9.8-8.5 3.6-2.2 6.1-5.8 9.5-8.3 3.6-2.5 6.1-6.1 9.8-8.5 3.5-3.5 7.6-6.3 11-9.9 4-2.6 6.9-6.5 10.8-9.1 3.3-3.2 6.6-6.6 11-8.2h3.2c-.5 1.7-1.7 3.3-1.5 5.1.7 2.9 1.3 5.9 2.9 8.4 3.3 2.5 7.5.9 10.5-1.3 2-1.6 4.4-2.9 5.8-5.2 1-1.6 2.3-3 3.6-4.3 1.8.1 3.6.1 5.4.1 0-3.4-3.1-5.6-4.4-8.5-2.3.8-4.7 1.4-6.9 2.4-3.5 2.1-1.5 6.8-1.9 10.1-1.9-1.2-3.8-2.3-5.6-3.6.5-2.1 2.2-3.9 1.7-6.1-.8-2.3-2.1-4.3-3.5-6.2 2.1-2.1 4.2-4.5 6.7-6.1 3.3-2.3 5.4-5.8 8.7-8 1.8-1.2 3.3-2.7 4.8-4.2 1.8-1.9 4.2-3.1 6-5 1.7-1.8 3.4-3.8 5.5-5.2 2.7-1.7 4.6-4.4 7.3-6.1 2.9-2.3 5.3-5.4 8.5-7.4 3.2-3.6 7.5-5.9 10.5-9.6-.1-27.1 0-54.1-.1-81.2-.1-5 2.3-9.6 5.6-13.3v-10.5c-.4-.3-1.2-1-1.7-1.4-.1-2.8-.1-5.9 1.5-8.3 1.5-1.8 3.3-3.3 5-5v-15.1c-3.4-2.8-5.7-7.2-10.3-8.1-.2-53.1 0-106.2-.1-159.3-.2-2.1.8-4.1 2.3-5.5 1.6-1.4 2.6-3.3 4-4.9 2.4-2.1 5.7-1.8 8.7-1.8-1.6-2.6-3.5-4.9-5.2-7.4-1.8 0-3.7 0-5.5.1-2.1-3.9-3.6-8.1-4.2-12.5-.2-5.7 0-11.4-.1-17.1-2.9-2.8-5.6-5.8-8.5-8.6-6.6-4.7-11.5-11.2-17.6-16.4-2.4-1.7-4.6-3.8-6.6-6 1.5-1.6 3.2-3 4.4-4.8 1.6-3.9 1.1-8.3 2.4-12.2 5.3-1.3 10.2-3.7 15.4-5.4 2.6-1 5.5-.6 8.3-.7 17.7 0 35.3.1 53 0 2.8 0 5.7.6 8.1 2.1.7 2-.6 4.1-.9 6.1-.6 3.2-2.6 5.9-4.1 8.7 4.2-1.3 8.7-3.8 13-1.8 2.8-2.3 5.9-4.2 9.4-5.4.7-1.5 1.2-3.1 1.8-4.6-1.2-1.5-2.5-3-3.4-4.7 4-.6 8-.3 12.1-.3 34.7-.1 69.3 0 104-.1 1.6.1 3.3-.2 4.9.4 1.6 1.3 3 2.9 4.5 4.5.8-.1 2.4-.1 3.2-.2.3 2.8-1.2 5.2-1.9 7.7 4-1.1 7.4-3.5 10.9-5.5-.2-1.5-.4-3-.5-4.5 2.2-.9 4.3-2.5 6.9-2.4 40.7.1 81.4-.1 122.1.1 3.5 2.3 7.6 4 11.9 3.8 4.2-.4 8.2-2 12-3.7 1.7-.3 3.3-.1 5-.2 32.4.1 64.8-.1 97.2.1.2 3.4-1.5 6.7-1 10.1-.2 1.6 1.9 1.8 2.8 2.6-.2 1.4-1.5 2.1-2.6 2.9-6.9 5.8-14.5 10.7-21.5 16.4-2.5 2.1-5.8 2.4-8.7 3.7.2-2.7.3-5.6-2-7.4 2.6-1.4 5.3-2.6 7.7-4.4-3.4-1.8-7.2-1.4-10.9-1.4-.5-.5-1.6-1.6-2.1-2.2-3 2.9-6.5 5.6-10.7 6.3.7 1.8 1.6 3.7.7 5.6-1.2 2.8.5 6.2-1.5 8.7 1.6-.2 3.2-.8 4.7-1.6 1.9 1.1 3.8 2.2 5.7 3.4-.1.3-.2.7-.2 1-3.5 3.9-7.5 7.5-12 10.3.1 3-.2 6-1.2 8.8-.9 2.7-.6 5.5-.8 8.3-.4 2.1-1.6 3.9-1.9 6 .4 2.2 3.1 3.6 2.5 6 .1 7.7-.4 15.3 0 23 0 19.7-.4 39.3 0 59-.4 8.6 0 17.3-.2 25.9-1.9 1.3-4.7 1.7-5.8 3.8 2.2 1.5 4.4 3.1 6.2 5.1-.4 3.4-.1 6.8-.1 10.2-.1 27.3 0 54.7-.1 82 .7 5.6 1.2 11.4.2 17.1-.1 7.6-.6 15.2-.2 22.9.3 11.2-.3 22.5.2 33.7.7-1.4.2-3.2.4-4.7-.1-10 .1-20-.2-30-1.4-5.3.4-10.6.2-16 0-7.3.3-14.7 0-22-.1-28.7 0-57.3-.1-86 .1-2.3 0-4.6.4-6.9.8 3.2.4 6.6.5 9.9v177.6c-1.6 1.8-4 3.1-4.6 5.4.8 1.1 1.8 2.1 2.6 3.2.6 3.6-.8 7.1-1.9 10.4-1.2.5-2.3 1-3.4 1.5-.5 2.6-1.1 5.1-1.9 7.7 1 1.9 2 3.9 2.9 5.8 2.3.1 4.5.9 6.8 1.2 1.7-.3 3.1-1.4 4.7-2.1 2.1-1.1 4.5-1.4 6.8-2.2 1.2-1 2.3-2.2 3.5-3.3 2.7 1.2 5.8 1.4 8.7.5 3.3-1 6.8-.1 10.2-.6 1.3-1.8 1.8-4.1 2.7-6.1 6.3-15.2 12.1-30.7 18.5-45.9 7.9-21.5 17.2-42.6 25.2-64.1 2.9-7.5 6.1-14.9 9-22.4.8-2.1 1.4-4.5 2.9-6.2 1.2-.3 2.4-.6 3.6-.7 2.6-2.7 5.9-5.1 7.1-8.8 1.5-4.3 5.2-7.9 4.4-12.8 2.3.3 3.9 2.6 4.9 4.6 1.4 3.6 2.6 7.4 2.5 11.3 0 4.8.5 9.9-1.4 14.5-1.6.8-3.4 1.4-5.1 2.1.2 3.8-.5 7.7.8 11.4 1 3.2 1.7 6.6.8 9.9-.9 3-.8 6.1-.6 9.1.2 3.1 1.6 6 1.6 9.2-3.1 1.7-6.3 3.5-9.1 5.8 3.8-.1 7.8.8 10.5 3.7 1.6 2.4 2.6 5.3 2.5 8.3v65c.4 3.7-2.9 6.2-4.5 9.2-.5 2.7.8 5.4 1.3 8 .7 3.4 2 6.5 3 9.8.6 6.7-.1 13.4.4 20.2 4.9-2.6 8.4-7.5 13.8-9.3.6 1.4 1 2.9 1.4 4.5 2.4-1.3 5-2.5 7.8-2.1 3.9-.4 7.7.6 11.5 1.7-1.5-2.1-3.4-3.8-5.3-5.5 1.4-2.6 3.7-5.1 3.6-8.3-2.5-.4-3.3 3.2-5.8 2.7-1.5 0-2.7-.9-4-1.3 5-3.2 9.7-6.7 14.3-10.3 1.9-1.4 4-2.6 5.4-4.5.3-1.2.5-2.5.4-3.8 0-45 .1-90 0-135-.2-4.2 2.3-7.7 3.5-11.5-1.2-.7-2.4-1.5-3.5-2.4.1-47.7 0-95.4 0-143.1 0-1.5.7-2.8 1.2-4.1 2 2.3 3 5.3 4.8 7.9 1.7-2.3 1.7-5.2 2.8-7.7 1.4-2.3-1.1-4-2.2-5.7-1.9-.1-3.9.3-5.8-.3-1.2-1-.6-2.8-.8-4.1v-45.9c3.9-1.5 8-1.4 12-1.3.1-1.9.1-3.8 0-5.8-2.4.5-4.6 1.1-6.9 1.7-2.2-3.3-4.7-6.3-6.5-9.9-2.4-.3-4.4 1-6.4 2-4.3-3.8-9.1-7-13.6-10.5-3.2-2.3-6.2-4.9-9.6-6.9.4-2 1.1-4.3-.5-6.1-.6-1.7-2.3-.6-3.5-.4-5.2-.9-9.9-3.6-13.6-7.2l-1.2-5.4c2-1.7 5.1-2 6.5-4.4.2-2.7-1.2-5.2-.9-7.9 33-.3 66.1-.1 99.1-.2 1.7 0 3.3 0 5 .2 1.6.3 2.1 2 2.6 3.3.4 2.8.1 5.6.1 8.4-2.2 3.3-5.1 6-7.7 8.9h4.6c2.6-2.7 5-5.7 8.6-6.8.2-2.8.3-6 2.4-8.1 1.5-1.6 2.9-3.1 4.6-4.4 4-1.9 8.7-1.8 13-.9 3.3.7 6.8.3 10.1.4 1.9 1.5 4.5.7 6.7 1.1 5.6 1.2 11.3 1.9 17 3.1 10.4 1.8 20.6 4.9 30.6 8.5 3 1.3 6.1 2.2 8.9 4 1.8 2.9 2.9 6.2 4.9 9 2.4 3.4 5.4 6.5 6.7 10.6-1.5-.2-3-1.1-4.4-.2.7 2.3 2.9 4.2 5.2 4.8 2.8-.2 5.4-.7 8.1-1.3 2.9-.3 5.9-.1 8.8-.2 1-1.7 2-3.3 3.1-4.9 5 2.7 8.9 6.9 13.5 10.3l15 15c1.8 2.5 3.8 4.9 6 7 8.5 11.1 16.5 22.8 22.4 35.6 1.4 2.9 3.1 5.7 3.9 8.9.7 5.2-.4 10.6.5 15.8 2 2.7 4.6 4.9 7.8 6.1 6.4 18.8 10.2 38.4 12.6 58 .1 2-.2 4 .4 5.9 1 3.3.4 6.7.5 10.1-.1 2.1 1.1 3.9 1 6v41c.3 4.7-1.3 9.2-1 14-1.8 4.6-2.4 9.7-4.2 14.3-1.3.7-3.1.7-4 1.9-.2 2.4-.2 4.8-.7 7.2 1.9 0 3.9-.2 5.6.5-2 .3-4 .3-5.9.5 1.8.7 3.8.2 5.7.3-.3 7.2-2.3 14.2-3.3 21.3-6.7 29.5-18.1 58.2-36.1 82.6-4.6 6.3-9.3 12.6-15.1 17.9-3.1 3.2-6.3 6.4-9.4 9.6-7.5 6.1-14.8 12.4-23.1 17.3l-1-.1c-2.6-3.8-5.4-7.6-7.6-11.6-.5-3 .3-6.1-.8-9-.8 2.8-1.7 5.5-2.7 8.2-.6 1.6-.8 3.5 0 5.1 1.4 3.2 2.9 6.5 2.3 10-.7 2.2-2 4.1-3.8 5.5-1.8 1-3.8-.2-5.5-.8-3.1 2.7-6.2 5.7-9.9 7.4-16.1 6.3-32.9 10.7-49.9 13-2.6.7-5.4.5-8.1.6-3 .3-5.5-1.6-8-2.9-2.3-1.5-5.2-2.8-6.3-5.6-.8-1.6-.1-3.4 0-5-1.6.2-3.3.2-4.8.9-1.1-.2-2.3-.9-3.4-.5q-4.2 1.5-8.4 2.4c-4.4-3.5-10-4.6-15.3-6 1.4 3.7 3.4 7.1 5.1 10.7a72 72 0 0 0-3.8 4c6.6.2 13.3-.3 19.9.2 1.7.7 5.1.6 5 3.1-1.5.7-3.2.4-4.7.5-47.8-.1-95.5-.1-143.3-.1a6.8 6.8 0 0 1-5.8-3.3c.3-4.4-1.6-8.6-1-13 1.4-1.9 3.3-3.4 4.8-5.1-4.4.2-6.6 5.5-10.8 5.8-1.9-3.5-1.7-7.6-2.7-11.3-3.3-2.8-5.7-6.4-8.2-9.9-.3-.2-.9-.5-1.2-.7 1 3.3 2.1 6.7 3.3 9.9 1.4 2.4 4.2 3.8 5.2 6.6.2 2.2-.6 4.5.4 6.6 1.2 2.6 3 4.9 4.7 7.2-5.7 1.5-9.9 6.3-15.7 7.2-33.7 0-67.4.1-101.1 0-3.5-3.1-8.5-2.9-12.9-2.7.8-2.1 2-3.8 3.7-5.1-2.1-1.9-3.4-4.3-4.3-7-2.9 3.4-4.9 7.6-8 10.7-2.9 1.8-5.8 4.3-9.4 4.1-37 0-74 .1-111 0-4.7-.8-9-4-14-3.7-2.9.2-5.6-1-8.5-1.1-1.8-2.8-3.7-5.7-4.6-8.9-1.4 1.2-1.6 3.1-2.4 4.7-1 2.6-3.1 4.3-4.9 6.2-4.4-.1-9.1-.3-12.6 2.8-2.3 0-4.7.2-7-.1-1.9-.7-3.5-1.7-5.2-2.7-5.2 3.7-11.9.8-17.7 2.3-2.3.7-4.7.6-7.1.5-53.6 0-107.1.1-160.6 0-2.3 7.2-4.9 14.4-7.2 21.6-4.7 15.1-10.1 30-15 45-2.5 7.8-5 15.7-7.8 23.4-2.5 3.3-7 2.8-10.5 3.8.6-1.5 1.2-3 1.8-4.4-2.5-1.3-5.3-2-7.9-3.1-3.5 2.3-6.1 5.7-8.2 9.3-.8 2.7 2.1 4.2 3.2 6.3-2.2.6-4.8-.3-6.7.9 2.1 2.4 4.3 5 7.2 6.5 5.5-1.3 10-6.1 15.8-6 .5 1.8-.4 3.6-.9 5.3-1.4 4-2.8 7.9-3.6 12-.1 1.2-1.2 2.5-2.6 2.2q-13.05.15-26.1 0a68 68 0 0 0-3.8-3.8c-2.7 1.6-6 .9-9.1 1.1-4.9.3-9.5-1.9-13.9-3.7-2.5 1.3-5.3 1.8-8.1 2.1-2.8.7-3.9 4.5-7 4.4-20.7-.1-41.4.1-62.1-.2-.7-3.7-4-5.5-7.1-6.9-5.1 1.6-10.5 2.4-15.5 4.3-4.6 1.9-9.7-.1-14.3 1.7-4.2 1.6-8.7 1-13 1.1-54.3 0-108.7-.1-163 0-5.5.3-10.7-1.7-15.7-3.8-2.9-1.2-6.3-1.4-9.2-.1-1.3-.6-2.6-.9-4-.8-1.2 2.8-4 4.8-7.1 4.7-19 0-38-.1-57 0-2-.1-4 .1-5.9-.4.3-1.2.9-2.3 1.8-3.1-2-1.7-4.6-2.2-6.9-3.2-.9.4-1.8.8-2.6 1.2-2.9-2.8-5.6-5.9-8.6-8.5-3.2-.3-5.7 2.2-8.8 1.9-3.7-.1-7.7 2-10.8-1.1.2 1.3.6 2.5 1.3 3.6-2.2 3.2-5.1 7.1-9.5 6.8-2.7.2-5.3-1-8-1.1.7 1.6.3 4.3-2 3.8-5.7.1-11.3 0-17 .1-3.5.1-6.8-1.4-10.4-1.1.5-4.8.9-9.8 2.8-14.3-.3-.5-1.1-1.4-1.5-1.8-1.3 4.3-1.1 9.2-4.2 12.7-1.5 2.8-4.6 3.4-7.4 3.8-4.4 1.1-8.9.5-13.3.7-7.4-.1-14.8.1-22.2-.2-.7-1.5.7-2.8 1.4-4 1.6-2.2 2.9-4.7 4.6-6.9 1.9.4 3.8.7 5.8.7 1.5-3.2 3.3-6.4 4-9.9 1-3.4 1.2-7.2 3.1-10.3 24.1-35.9 48-72 72.1-107.9 6.2-9.7 12.9-19.1 19.1-28.8 4-5.9 7.8-11.9 12.1-17.7 3.2 1.6 6.3 4.1 10.1 4.1.4-.3 1-.8 1.4-1.1-.9-5.5-1.4-11-2.4-16.4.5-2.1 2.2-3.6 3.2-5.4 5.4-8.3 11-16.5 16.5-24.7 7.7-12 16-23.5 23.4-35.6 5.5-8.1 10.7-16.3 16.1-24.3 2.5-3.9 5.7-7.5 9.7-9.9 1.7-1.2 3.7-2.2 4.7-4.1.9-5.5 2.5-11 5.6-15.7 3.4-5.7 7.4-11.2 11-16.8 1.8-2.9 4.5-4.9 6.7-7.4 3.1-4.5 7.6-8 9.4-13.4 1.6-4.7 4.1-9.4 8.8-11.4 0-1.8 0-3.5.1-5.2 43.4-65.2 86.9-130.3 130.3-195.4 5.1-8.1 10.9-15.8 16.3-23.6 4.6-4.7 8.4-10.1 12.7-15 .1-1.8 0-3.6 0-5.4 3.6-4.5 6.6-9.5 9.6-14.4 3.6-5.7 7.8-11 10.9-17-4.4-.1-8.8.2-13.1-.1-3.1-.7-6-1.9-8.6-3.5-.4-1.1-.9-2.2-1.2-3.3-4.4 2.5-9.2 4.3-13.9 6.2-2.7 1.1-5.6.6-8.3.7H244c-3.6-.3-6.9-2.2-10.5-2.6-5.8 2-12.1 1.1-17.8-1.1-4.2 1-8.2 3.3-12.7 2.8-7.1 1.7-14.5.4-21.7 1-2.4 1.2-4.3 3.1-6.4 4.6-4.4 4-9.6 7-14.1 10.9-3.2 2.6-6.4 5-9.8 7.2-1.1.9-2.4.7-3.7.9-.3-3.8.8-8.2-2.1-11.4-4 .8-7.8 2.3-11.9 2.8 1.5 4 1.5 9.1-1.8 12.2-2.1 3.4-5.3 5.9-7.7 9.2 1.6.5 3.2.9 4.8 1.3-1.1 2.6-3.4 4.3-5.4 6.2-6.9 5.7-14.5 10.7-21.4 16.5-12.6 9.5-25.3 18.7-37.7 28.4A9391 9391 0 0 0 14 230c-3.4 2.3-6.4 5.2-10.2 7.1 5.7-16.5 12.4-32.5 18.2-48.9 3.1.7 6-.8 9-.8 3.1-.1 5.7-2.1 8.2-3.6-1.6-3.5-5.4-4.6-8.1-6.9-1.2-1.4-2-3.1-2.6-4.9.6-2.4 1.5-4.7 2.3-7 5.7-14.4 10.4-29.2 16.7-43.4 1.5-3.6 4.5-6.3 6.7-9.4 2.9-4.2 5.7-8.4 7.3-13.3-.5-2.2-2-4.1-3.4-5.9 3.3-9.4 7.2-18.5 10.3-28 4.3-11.2 8.7-22.5 12.9-33.7.1-.7.3-1.3.4-2m449.8 63.3c-4.6 6-9.5 11.8-14.1 17.8-2.9 3.7-8.2 4.2-11.1 8 0 1.9-.1 3.8-.1 5.7-8.8 10.9-17.6 21.8-26.3 32.9-2 2.2-4.2 4.4-6.5 6.4-3.4 2.5-8 4.5-9 9.2-4.8 10.4-12.8 19-19.9 28-5.9 7.7-12.3 15.1-18.2 22.9a406 406 0 0 0-16.4 20.4c-4.8 5.3-9.1 10.9-13.5 16.5-2.1 2.4-5.6 2.9-7.5 5.5-1.5 1.6-1.5 3.9-2.2 5.8-1.9 2.5-4.5 4.3-6.2 6.9-1.6 2.5-3 5-4.6 7.5-2.3 3.6-1.4 8.1-2.8 12.1 2.3-1.6 3.9-4.1 6.5-5.2.3 10.4-.1 20.7.2 31.1 6.3-2.4 11.9-6.2 18.1-8.8 4.7-2.4 9.4-4.7 14.1-7.2 5.4-3.6 7.2-10.3 10.6-15.6 2.9-4.3 4.3-9.3 7.5-13.4 2.7-1.9 6.1-1.5 9.2-1.7.9-.8 1.7-1.7 2.5-2.5-1.8-3.1-3.4-6.3-3.6-9.9 2.5-6.2 6.1-11.8 9.2-17.8 2.6-3.8 4.2-8.2 6.8-12 2.1-3.3 3.3-7.1 5.8-10.2 1.2-1.2 3-1.7 4.4-2.6 1.2-3 2.1-6.2 4.6-8.4 3-3.7 8-5.6 10.1-10-1.2-3.3-2.7-6.9-1.6-10.6 2-4.4 4.4-8.7 7-12.8 4.8-9.3 9.9-18.6 15.2-27.6 3.8-7.9 8.2-15.4 12.4-23.1 4.5-7.5 8.3-15.4 12.8-22.9 2.3-5.2 5.9-9.7 8-14.9-.4.1-1.1.4-1.4.5M894.4 165c-.1 4.7.1 9.4-.1 14.1-.2 1.4-1.7 1.8-2.7 2.4-3.2.9-6.5-.1-9.7-.4 3.8 2.3 7.7 5.1 12.4 4.7.1 45.7 0 91.5.1 137.2-.1 1.7.2 3.4-.3 5-3 2.3-6.3 4-9.6 5.6-2.1-.9-4.5-1.4-6.1-3-2.6-2.5-3.2-6.2-4.8-9.4-3.7-7.5-7.7-14.9-11.2-22.5-2-5.7-5.2-10.9-7.8-16.3-1.2-2 .5-4.3-.2-6.3-.5-3.6-2.2-6.7-3.5-10.1-.8-1.9-.4-4.1-.9-6.1-2.2-2.5-5.6-3.6-7.9-6-3.6-3.1-5-7.7-6.8-11.9l-5.7-11.7c-2.1-4-3.1-8.4-4.7-12.6 2.1-1.3 4.4-2.4 6.7-3.3v-6.8c-1.2-.8-2.4-1.6-3.6-2.3-2.1 0-4 1.5-6 .7-3-.7-5.6-2.5-8-4.5-4.4.2-8.6 2-13 2-19.2-.1-38.4 0-57.6-.1.1 6.9 0 13.7.1 20.6.1 3.4-.9 6.7-1.9 10-.6 2.4-3.1 3.5-4.9 5 2.3 6.2 6.4 12.1 6.8 19-.1 30-.1 60-.1 90 0 2.2-.2 4.5-.3 6.7 9.3.1 18.6.1 27.9.1 3.3-.1 6.6.3 9.9-.3-9.6-.5-19.3-.2-28.9-.3-2.6-.1-5.3.6-7.7-.5.1-.1.3-.4.5-.5 11.7.5 23.5.2 35.3.2 2.2-1.2 3.7-3.3 5.1-5.3 3.7-4.6 7.2-9.3 11.1-13.6 9.1-12 19.3-23.2 28.2-35.4 2.5-.3 5 .8 6.6 2.8 2.1 2.6 3.9 5.5 6.1 8.1 0 17.5.1 35-.1 52.6-3.3-.1-5.2 3.1-5.7 6-.5 2.2.6 4.3 1.4 6.3 1.5.2 3 .3 4.6.4-.3 4.7-.2 9.4-.1 14-.7 1-1.4 2-1.9 3.1-.9 3.7 2.1 6.9 1.8 10.6v61c.3 1.5-.8 2.7-2.2 2.9-4.1 1.4-8.4 2.4-12.6 1.7-4.3-6.6-9.2-12.7-13.9-19-3.5-5.2-7.4-10.1-11.1-15.2-3.5-4.9-4.8-11.2-9.4-15.4-2.2-2.8-4.2-5.8-7.2-7.8-2.7-1.5-4.5-4.1-6.9-5.9-4.8-3.2-7.8-8.6-13.1-11-3.1.9-5.8 2.9-8.7 4.3 1.3.8 5.3 1.5 3.1 3.6-4.7 2.7-10.6 4.6-12.7 10.1.2.4.7 1.2.9 1.6.1 5.7.1 11.4 0 17.2-2.6 4.9-5.4 9.9-10.1 13.3.8 1.5.4 4.4 2.7 4.4l2.3-.8c2.7 6.7 5.6 13.7 5.1 21 0 32.3.1 64.6 0 97 7.5.7 15.1 0 22.6.3 5.1.9 10.1 1.7 14.9 3.5 3.6-1.2 7.6 0 11.1-1.8 7.4-2.7 15.4-1.4 23.1-1.8 1.8-1.9 3-4.3 5.1-6 1.6-1.5 3.9-2 5.5-3.5.3-2.4-.2-4.9.7-7.2 2.5-4.8 6.2-8.8 9-13.5.1-2.8-3.4-1.2-5.1-1.5 1.5-4.6 3.9-8.9 5.6-13.5 7.1-14.2 12.7-29 19.6-43.2 5.3-11.6 10-23.5 15.7-34.9 1.2-3.2 2.6-6.3 4.9-8.8 2.3-1.6 4.5-3.5 6.5-5.4 1 .8 2.1 1.4 3.4 1.7-.1-3.2-.8-6.4-1.3-9.6l-3.7.9c.4-2.8 2.1-5.1 3-7.7.6-1.6 1.2-3.1 2.5-4.3.9 3.1 2.5 6 2.2 9.3-.5 4.8 3.6 8 5.6 11.9.2 25.7 0 51.4.1 77.1.1 4.6-2 9-5.6 11.9 0 .6-.1 2-.2 2.7-2.7 3-3.7 7-5.6 10.5-3.5 0-7-1.8-10.7-1.7v1c1.6.4 3.2.9 4.8 1.3 1.1 2.2 2.2 4.4 3.4 6.6-4 2.9-9.3 1.4-13.4-.4.2 2 .8 3.9 1.3 5.8 2.8-.4 5.5.2 8.3.9 1.2-.7 2.1-1.8 3.2-2.8 1.3.4 3.1 1.6 4.3.4 2.4-1.8 3.1-4.8 5-7 2.9-.7 3.8 2.8 5.1 4.7q.15 33.6 0 67.2c5.3-2.8 9.8-6.9 14.6-10.4 3.8-3.2 8.3-5.6 12.4-8.5 2.1-1.8 4.2-3.7 6.7-5.1 2.3-1.4 5.1-1.6 7.6-2.5 2.5-1.9 3.5-5.2 6-7.1 2.1-1.8 4.1-3.9 6.1-5.8.1-43.9.1-87.8.1-131.7.1-3.1-.5-6.3.7-9.2 1.2-3.4 2.1-7.1 4.5-9.8.7-1.2 2-.5 3-.3-.2-1.3-1.1-2.8-.4-4.1 1.2-1.5 2.9-2.7 3.7-4.5-1.7-.6-3.4-1.6-5.3-1.4-2.1.3-4.1 1.1-6.1 1.8-.3-68.2 0-136.4-.2-204.6-2.3-3.4-6.8-5.3-7.4-9.9.9-2.3.9-5.1 2.7-7 1.4-.9 3.1-1.3 4.4-2.4 1.1-2.2 1.5-4.7 1.3-7.1-1.9-1.3-1.9-3.6-2.2-5.6-.7 6.4-3.5 12.8-8.4 17.1-2.7.6-5.5.2-8.2.3-4.4-3.4-9.2-6.2-13.3-9.8-7.4-5.6-14.7-11.3-22.2-16.5m421.2 41.9c-.6 11.4-.1 22.9-.3 34.4-1.7 4-3.1 8.7-7.5 10.6-.2 3 0 6.1.8 9.1.7 8.3 3.7 16.8 1.1 25 0 1.7.8 3.3.9 5 .6 5.6 3.4 10.6 4.7 16-.9 3-1.2 6-.9 9.1-.3.4-.8 1.2-1.1 1.6 1.7 1.8.3 4.7 1.9 6.3.3 48.1 0 96.3.2 144.4l-2.9 2.6v14.9c-1.5-.8-3.1-1.5-4.6-2.4-.1 2.5-.3 5-.1 7.5.6 4.4 3.2 8.2 5.4 12 .5 1 1.3 1.8 2.1 2.7.1 20.5-.1 41.1.1 61.6 8.9-3.2 17.4-8 24.4-14.5 5.5-3.8 9.3-9.3 13.6-14.2 3.6-4.5 6.5-9.6 9.9-14.3 13.9-24.3 22.3-51.6 25.6-79.3.7-3.8 1.3-7.6 1.7-11.5.9-3.2.6-6.9 2.3-9.8 3.3.8 6.5 2.3 9.9 3.1-2.3-3.2-5.8-5.4-7.5-9-.9-1.9-2.2-3.6-2.1-5.8v-39c.2-2.7-1.1-5.3-1-8-.2-4.2.6-8.5-.6-12.5-.9-3.4.2-7-.9-10.3-2.2-17.5-4.6-35.3-10.3-52.2-1.3-5.7-4-11-5.8-16.6-2.4-6.7-5.9-12.8-9-19.1-1.8-3.9-4.6-7.3-6.8-11-2.7-4-5.3-8-8.7-11.3-3.9-5.8-9.6-9.9-14.8-14.3-3.1-2.2-6.5-4.1-9.7-6.2-3.1-2-6.8-2.9-10-4.6M326.7 368.8c-5.6 2.4-11.1 4.8-16.9 6.8-1.1.6-3.3.5-3.2 2.3 1.5 3.5.4 7.4 1.3 11.1.9 3.3.2 6.8 1 10.2.7 2.6.2 5.3.9 7.9.9 2.7.2 5.5.9 8.2.4 1.5.5 3.1.7 4.6 13.8-5.6 27.9-10.9 41.7-16.7 1.6-.7 3.5-.9 4.8-2.2-1.5-10.7-3.5-21.3-4.7-32-.9-3.3-.2-7-2-10.1-8 3.8-16.2 7-24.5 9.9m-51.4 79.5c-1.9 1.5-3.8 2.8-5.7 4.3-.8 2.2-.8 4.7-2.5 6.5-2.6 3-6.6 3.7-10.1 4.8-6.1 4.4-10.1 11.1-13.6 17.6-3.4 5.1-5.5 10.9-8.8 16-1.8 3.4-4.5 6.3-6.3 9.8-2.5 4.8-5.6 9.2-8.4 13.8-1.4 7.4-6.7 13.2-9.5 20.2-1.2 4-5 6.6-8.6 8.5-3.1 2.5-1.6 6.9-2.7 10.2-.6 5.2-4.3 9.1-6.5 13.7-6.4 11.8-13 23.5-19.5 35.3-5.2 10.1-11.3 19.7-16.3 29.9-6.6 11.7-13.4 23.4-19.5 35.3-1.9 3.2-4.1 6.2-5 9.8 1.9-.6 3-2.3 4-3.8 14.3-17.1 27.9-34.7 42.1-51.9 8.1-10.1 16-20.4 24.5-30.4 5.4-7.2 11.5-13.9 16.9-21.1 2.2-2.4 4.5-4.9 6.3-7.7 2.8 0 5.6.3 8 1.8.1.8.2 2.3.3 3.1.4-.3 1.2-.8 1.6-1.1-1.2-3.1-2.8-6-4.6-8.9 1.1-3.1 3.2-5.8 5.4-8.2 9.6-12.1 19.2-24.2 29-36.1 7.1-8.6 13.7-17.5 20.9-26 .2-3.9 0-7.8.1-11.7 0-2.5 1.4-4.7 2-7-.2-1.9-2.4-3.1-2-5 .4-2.8 2-5.3 2.8-8 .2-3.5.1-6.9-.1-10.3-2.2.9-4.2 2.2-6.5 3-1.8.1-3.6 0-5.4-.1-.4-2.1-.9-4.2-1.2-6.4-.3.1-.9.1-1.1.1m160.9 34.8c-.2 1.3-.4 2.6-.3 3.9 2.1 1.3 4.1-.3 6.1-1.1 1.7-2.8 2.2-6.1 3-9.2-3.4 1.4-6.7 3.3-8.8 6.4Z" id="path1" style="fill:#ffffff"/><path fill="currentColor" stroke="currentColor" stroke-width=".09" d="M1539.3 156c.5-2 1.7-4.1 3.6-5 3-.3 6.1-.1 9.1-.2 37.3 0 74.7.1 112 0 1.4.2 3.1-.3 4.2 1 1.5 1.8 2.8 3.8 4.4 5.5-1.8 3.3-1.2 7.3-.3 10.7.7 3.3 0 6.7-.8 9.9 2.7.6 5.5 1.2 7.8 2.8 1.8 1.4 2.4 3.8 3.1 5.9 1.3 4.8 2.4 9.6 3.6 14.3 2.6 8.4 3.9 17 6.7 25.3 1.6 5.9 2.9 11.9 4.5 17.8 2.7 8.6 4.5 17.4 6.7 26.1 2.2 6.8 3.4 13.8 5.6 20.5 2 7.4 3.6 15 5.9 22.4 1.9 7.1 3.3 14.3 5.2 21.3 2.3 7.1 3.7 14.4 5.7 21.5 2.3 7 3.8 14.2 5.6 21.2 2.5 8.6 4.1 17.5 6.9 26 1.9 5.7.7 12.1-2.8 17-1.3 2-3.1 5-5.9 4-2.6-.7-5.7.2-7.1 2.5 2.6.1 5.4.2 8.1 0 2.1-1 3.7-2.7 5.9-3.6 1.7-.2 3.4-.2 5.2-.2.9 1 2.2 1.9 2.6 3.3 1.5 5.2 2.5 10.4 3.8 15.6 2.5 8 4.2 16.3 6.4 24.4 1.4 4.4.7 9.2.8 13.8-2.6 1.2-6.4 1.4-7.8 4.3 2.4 2.7 6.6 4.6 6.3 8.8 1.6 1.7 3.2 3.5 5.3 4.5 1.2.7 2.9 1 3.8 2.2 1.7 3.5 2.1 7.3 3.2 10.9 2.7 8.2 4.1 16.8 6.8 25l3.9 15.9c1.6 6.3 2.7 12.8 5.8 18.6 1.3 1.9-.1 4-.2 6-.1 2.7-.2 5.4.5 8 .4 2 1.3 4.1.5 6.1-1.5 2.5-4.6 3.4-6.3 5.8 4.3 1.6 8.6 3.4 12.5 6 1 1.5 1.5 3.4 3.1 4.5-.3-5.3 1.3-10.4 3.5-15.1 4.6.7 8.8 2.8 13.3 3.8 2.2.4 4.4.9 6.6 1.4 4 4.1 9 7.4 14.5 9.2 2.3 1.5 1.5 4.7 1.7 7.1-1.4 1.2-2.8 2.5-4 4-1.5 2-2.2 4.5-3.8 6.5-2.7.3-5.3.1-8 .1h-149c-3 0-6 .2-9-.2l.2-1c4-1.3 7.6-3.7 11.8-4.4 1.4-.1 3-1.2 2.9-2.7-3.5-2.9-7.8-4.7-10.9-8.1-1.8-1.8-3.4-4.1-5.9-4.7-2.9-.9-5.8-1.5-8.6-2.2-.8 1.3-1.8 2.6-2.4 4 1.7 2.1 4.6 3 5.7 5.6-.3.4-.9 1.3-1.3 1.7q-5.1-.3-10.2 0c-1.7-1.9-2-4.5-3-6.7-.4-1.2-1.3-2.2-1.1-3.5 9.1-7.2 18.1-14.5 26.9-22.1 1.2-1 2.8-1.6 3.6-2.9.4-4.3-.5-8.6.7-12.7.7-2.9 0-6.1 1.1-8.9 1.1-3.2-3-4.6-4.9-6.2-.9-4.3-2.6-8.4-4.8-12.2s-2.7-8.1-3.8-12.2c-.6-3.6-2-7.3-1-11 .4-1.5.6-3.1.8-4.7-1.2-.9-2.4-1.8-3.7-2.5-2.6-7.8-3.6-15.9-5.8-23.8-1-2.9-.7-6.1-2.4-8.6-23.6.1-47.2 0-70.7 0-3 9-4.8 18.5-7.5 27.6-1.8 7.4-4.2 14.6-5.9 22-1.3-.9-2.3-2.3-3.8-2.8-1.9.4-3.3 1.9-4.9 2.9.4 2.4 1.6 4.6 2.4 6.9.8 5.7-2.9 10.6-3.8 16 .6 2.5 1.5 5 .7 7.5-1.6 6.1-1.9 12.5-3.8 18.5-.2 1.2-.9 2.5-.2 3.6 8.2 6.5 16.1 13.3 24.2 19.9 2.5 1.7 4.3 4.4 7 5.9 1 2.8 1.3 5.7 2.1 8.6.4 1.7 1.3 3.4.6 5.2-.9 2.6-.5 5.4-.5 8-3.9.4-7.9.2-11.8.2h-59c-5.8.4-11.4-1.4-17.1-2.4-4-.4-7-3.4-10.1-5.7-2.8-1.3-6.6-.8-8.1-4 1.9-3.8 2.9-8.4.9-12.3-4 1.2-7.7 3.8-9.3 7.8l.3.7c2 .2 3.5-2 5.5-2 1.1 1.2 1 3.1 1.6 4.7.9 4.4 2.5 8.7 3.4 13.2-13.7.2-27.4-.1-41.1.1-4.7.5-9.2-3.2-10.8-7.5.2-3 1.2-6 1.1-9.2 4-3.1 8.4-5.9 12.2-9.3 5.5-4.4 11.6-8.3 16.9-12.9 6.9-5.3 13.8-10.3 20.7-15.5 1.1-1.1 1.4-2.7 1.8-4.1 5.5-20.7 12.1-41.2 17.6-62 6.3-20.6 12-41.3 17.8-62 2.2-7 3.5-14.6 8.3-20.4 1.3-.5 2.6-.6 3.9-1.1 2.5-2.1 2.8-5.6 3.5-8.5.4-3.7.3-7.4-.1-11.1-1.5.9-2.9 2.1-4.4 3 4.8-17.7 10.2-35.2 15.1-52.9 5.2-18.5 10.9-37 15.9-55.6 1.2-4.9 3.1-9.6 4.3-14.5 2.1-6.7 3.6-13.5 6.1-20 1.8-.7 3.6-1.3 5.5-1.6 0 1.7 0 3.3.1 5 2.5.1 4.9.9 7.5 1.1 2.9.3 5.4 1.9 8.1 2.8-1.1-2.1-2.8-3.9-3.6-6.2.5-1.1 1-2.1 1.7-3.2-3.3 0-6.6-.1-9.8 0-.6-4.4-2.2-8.8-5.2-12.1.1-1.6.1-3.3.6-4.8 3.8-12 6.9-24.3 10.8-36.3-5.2-4.6-10.9-8.5-16.1-13.1-2-2.1-4.5-3.5-6.8-5.3-4.8-3.8-9.5-7.8-14.4-11.5-.9-.7-2.3-1.4-2-2.7 0-3 1.4-5.9 1-9 .3-2.6-1.4-4.7-2-7m71 174.9c-1.8 6-3.3 12.1-5.2 18.1-2.6 11.1-6.2 21.9-8.6 33-1.9 6.2-3.3 12.5-5 18.7-1.4 4.5-2.5 9-3.5 13.5 8.8.4 17.8 0 26.7.2 2 1.3 3 3.7 4.3 5.6-.7 1.1-2 1.6-2.9 2.5 3.5 1.6 7.1 3.1 10.9 4.1 3.5.3 6.6-1.9 10-1.9 2.4.3 4.7 1.1 7.1 1.3-1.2-4.8-3.3-9.3-5-13.9-.4-1-1.2-2.9-2.4-1.6-2 2.6-4.1 5.1-6.2 7.6a100 100 0 0 1-3.1-14.4c-4.2-18.6-8.5-37.2-13-55.7-1.5-5.7-1.8-11.7-4.1-17.1Zm-555-86.9c.9-3.5.1-7.1 1-10.5.5 3.4.2 7 .3 10.5 0 33-.1 66 0 99-2-.3-1.4-2.6-1.5-4 .4-8-.7-16.1.7-24 .2-2.4-.3-4.7-.6-7-.2-5-.3-10 .4-15-.9-5.6-.4-11.3-.4-17-.2-3 1.1-5.9.3-8.9-.9-3 .8-6 .3-9.1-.9-4.6-1-9.3-.5-14Zm115 202.2c-1.5-3.7-3.8-8.8-.8-12.2.9 1.9 2.4 3.8 2.3 6-.1 2.1.8 4.9-1.5 6.2Zm-618.7 55.4c5.8-3.8 13.2-4 19.9-3.4 3.4 1.4 7.5 1.4 10.4 3.9 1.1 1.1 1.9 2.5 2.6 3.9q-.75 1.95-1.8 3.9c-1.2 5.2.4 10.4-.2 15.6-1.1 2.4-2.9 4.5-5.2 5.8-3.6 2.2-7.3 4.3-11.4 5.1-2.6.2-5.3.2-7.9 0-5.3-1-9.5-5.1-11.7-9.9-1.7-2.5-2.9-5.5-5.7-7-3.3-2.6-7.7-1.9-11.5-2.8.1-.2.5-.7.6-.9 4.4-2.2 9.3-3.8 13.2-6.9 2.8-2.6 6.3-4.3 8.7-7.3Zm1136.6 139.8c7-1.4 14.6.6 19.8 5.6 8.1 7.1 9.4 20.3 3.2 29.1-4.1 5.9-10.9 10-18.2 9.9-9.4.4-18.2-6-21.5-14.7-2.3-6.6-1.6-14.5 2.5-20.3 3.3-4.8 8.4-8.6 14.2-9.6ZM1217.1 653c14-3.6 28-7.2 41.9-11-2 41.9-5 83.7-6.7 125.6 6.7 4.7 13.8 8.8 20.6 13.3-8.8 8.4-17.3 17.3-24.8 27-11.3-1.9-22.5-8.4-27.9-18.8-5.7-10.4-5.9-22.6-5.4-34.1 1.4-34 1.8-68 2.3-102Zm-78 42.8c1.3-1.2 3.2-.7 4.9-.8 10 .5 20.1.8 29.9 2.6 12.4 2.3 23.3 12 26.5 24.2.8 3.8 1.9 7.9 1.1 11.6-12.1 2.2-24.1 5.3-35.6 9.7-1-3.4-2.1-6.9-4.2-9.7-2.5-3.5-6.4-5.8-10.6-6.8-.8 9.8-1.9 19.6-2.1 29.4-.2 4.2 1.2 8.7 4.5 11.5 4 3.6 9.2 5.4 14.3 6.9 5.9 1.6 12.4 2.6 18.1-.2 5-2.2 8.4-6.5 12.1-10.3-.7 3.5-2.3 6.8-3.7 10-3.6 7.9-8.4 15.6-15.3 21.1-6.8 5.2-15.5 7.3-23.9 7.8-9.2.6-18.7 0-27-4.1-7-3.5-13-9.4-15.7-16.9-3-8.2-3.6-17.1-3.4-25.8-.1-11.7.5-23.4 1-35-.2-1.5 1.1-2.3 1.9-3.1 8.6-7.9 17.7-15.3 27.2-22.1Zm632 0c1.3-1.2 3.2-.7 4.9-.8 10 .5 20.1.8 29.9 2.6 11.4 2.1 21.4 10.3 25.5 21.2 1.5 4.6 3 9.8 2 14.6-12.1 2.2-24 5.3-35.5 9.7-1.1-3.6-2.2-7.3-4.6-10.3-2.6-3.2-6.3-5.3-10.2-6.2-.8 9.8-1.9 19.6-2.1 29.4-.2 3.8.9 7.7 3.5 10.5 3.9 4.1 9.4 6 14.6 7.7 6 1.7 12.9 2.9 18.8 0 4.9-2.2 8.4-6.5 12.1-10.3-.7 3.5-2.3 6.8-3.7 10-3.6 7.9-8.4 15.6-15.3 21.1-6.8 5.2-15.5 7.3-23.9 7.8-9.1.6-18.7 0-27-4.1-7-3.5-13-9.4-15.7-16.9-3-8.2-3.6-17.1-3.4-25.8-.1-11.7.5-23.4 1-35.1-.2-1.4 1.1-2.2 1.9-3 8.6-7.9 17.7-15.3 27.2-22.1ZM1441 697c2-1.5 4.7-.8 7-.7 19.4 1.6 38.8 2.4 58.2 2.5-2.6 10-6.1 19.7-7.2 30-8-3-16.5-4.4-24.9-5.7-10.1-1.4-20.2-2.7-30.3-3.3 2.3 7.3 9.2 12.2 16.3 14.3 12.3 4.1 25.3 2.3 38 3.4 4.1.3 8.4.7 12 2.7 4.4 2.4 7.3 7 8 11.8 1.5 9.7-.9 19.7-5.8 28.1-3.1 5.2-6.8 10.2-12.1 13.2-17.9 9.8-39.1 12.3-59.1 9.8-10.6-1.3-21.1-4.5-30.3-10 1.8-6.2 4.3-12.1 6.6-18 10.1 4 20.7 6.8 31.5 7.7 7.7.5 15.7 1.2 23.2-1 4.2-1.2 8.1-3.2 11.8-5.3-4.3-3.8-10.2-5.4-15.9-5.5-6.3.1-12.6.6-19 .2-10.7-.7-21.8-2.2-31-8.2-7.3-4.7-10.7-13.6-10.7-22-.5-9.6 2.5-19.5 9.2-26.5 6.9-7.3 15.7-12.5 24.5-17.5Zm124.6 1.6c2.3-1.2 4.7-3.1 7.5-2.5q30.15 2.55 60.6 2.7c-2.5 9.9-6.4 19.6-7 30-8.7-3.1-17.8-4.6-26.8-5.9-9.5-1.3-19-2.5-28.6-3.1 2.2 7.1 8.8 11.9 15.6 14.1 14.3 4.9 29.6 1.8 44.2 4.2 3.9.6 7.8 2.3 10.5 5.3 3.2 3.3 4.2 8.1 4.4 12.6.5 11.7-4.2 23.3-11.9 32-3 3.5-6.9 5.9-11 7.7-17.5 7.9-37.3 9.9-56.2 7.2-10-1.5-20-4.5-28.6-10 2-6 4.2-12 6.8-17.9 11.6 5.1 24.3 7.6 36.9 8.2 5.7.3 11.6.2 17.1-1.3 4.3-1.1 8.3-3.2 12.2-5.3-1.9-2.3-4.8-3.2-7.5-4.2-7.3-2.6-15.2-.7-22.8-1-11.8-.4-24.2-1.6-34.6-7.8-6.2-3.6-10.1-10.4-11.1-17.5-1.6-10.5.4-22.1 7.5-30.3 6.3-7.3 14.6-12.3 22.8-17.2Zm-264.4 15.6c6.3-6.2 12.9-12.2 20-17.6 13.9 2.6 27.9 5.1 41.7 8.1 9.8 1.9 19.1 8.7 22.4 18.4 4 11.1 3.2 23.2 3.1 34.9-.1 13.3-1.2 26.7.7 39.9-14 2.7-27.7 6.8-41.4 10.5 1.6-15.1 2-30.3 2-45.4-11.7 14.4-24.8 27.6-37.7 41-.9 1-1.8 2-2.9 2.9-7.5-1.6-14.8-4.2-21.9-7.1-1.6-11.6-3.5-23.1-3.9-34.8-.7-10.8 0-22.1 4.4-32.1 3.1-7.2 8.2-13.2 13.5-18.7m19.6 11.8c.6 16 1.8 31.9 2.6 47.9 8.6-9.4 15.9-20 22.5-30.9.6-1.2 1.6-2.3 1.8-3.6-6.4-8.3-17.1-11.2-26.9-13.4Zm343.3-11.4c18-3.5 35.2-10.4 51.9-18V715c-.9 28.1 1.1 56.3 2.6 84.4-14.5 2.6-29 4.8-43.6 6.6 2.4-25.3 1.6-50.9 1.2-76.3-6.4 2.1-13.1 2.1-19.6 1.1.7-5 1.9-10 3.1-15 1.3-.9 2.9-.8 4.4-1.2Z" id="path2" style="fill:#ffffff"/></svg>