<svg xmlns="http://www.w3.org/2000/svg" xml:space="preserve" viewBox="0 0 1200 600"><path fill="none" d="M5.5.9C1.75.9.9 1.76.9 5.5q.17 295.5 0 591c0 3.75.85 4.6 4.6 4.6 296-.1 592-.1 888.5-.1 101.17 0 201.83-.02 302.5.1 3.75 0 4.6-.85 4.6-4.6q-.16-295.5 0-591c0-3.75-.85-4.6-4.6-4.6Q601 1.06 5.5.9m834.7 248.78c.54-.03.98.6.61 1.57-.96 2.52-1.1 5.3-1.12 7.96-.02 3.83.28 7.86.5 11.66.62 9.53.32 4.78.9 14.24.11 1.65-1.56 1.75-1.66.1-.59-9.45-.29-4.7-.91-14.25-.22-3.83-.53-7.96-.5-11.83.02-2.88.2-5.88 1.28-8.6.23-.57.58-.83.9-.85m-5.3 33.18c.36.03.72.39.8 1.1.86 7.17 2.16 14.26 3.37 21.37q1.66 9.7 3.35 19.4c.28 1.63-1.36 1.92-1.65.29q-1.68-9.7-3.34-19.4c-1.22-7.12-2.52-14.22-3.37-21.4-.11-.92.36-1.4.83-1.36" style="fill:#fff;fill-opacity:0"/><path fill="currentColor" d="M860.67 165.03c23.63 8.78 41.13 24.43 53.56 45.67 11.13 19.04 16.66 39.9 18.89 61.79 1.34 13.21 2.6 26.36.89 40.05 1.95 1.77 1.98 3.67 1.83 5.77-1.86 25.32-7.53 49.59-19.85 72.03-.57 1.02-.87 2.16-1.56 3.55-6.49 9.2-14.24 16.77-21.93 24.85-.29.5-.42.7-.8 1.13-1.2.82-2.37 1.01-3.26 2.23-.35.44-.5.6-.92.95-1.27.58-2.33.84-3.79 1.76-3.63-.33-5.52 2.03-7.7 3.3-14.86 8.67-31.07 13.11-47.86 15.89-11.68 1.93-23.44 2.03-35.24 2.03-121.79-.05-243.57 0-365.35-.16-5.26 0-7.35 1.59-9.03 6.58-7.08 21.06-14.79 41.91-22.13 62.89-.92 2.63-2.2 3.9-5 3.67-1.48-.12-3-.01-4.5-.01H92.07c-10.62 0-11.23-.42-15.31-10.86 4.48-2.77 9.15-.85 14.07-1.27 92.44-.5 184.43 0 276.42-.17q3.75.02 7.5-.01c7.35-.08 8.26-.72 10.89-7.76 6.35-17 13.05-33.88 19.31-50.93 1.33-3.6 4.14-6.48 4.86-10.85a4.4 4.4 0 0 1 2.8-2.49c7.26-1.21 14.1-.97 20.92-.97h121.96q2.5 0 5-.02c7.17-.11 8.15-1 8.18-8.08.07-16.16-.06-32.32.05-48.48.12-19.32-.64-38.64.8-58.4-.2-3.06.95-5 3-6.37 3.14-2.1 6.32-4.16 10.6-4.49 2.16 1.71 2.1 3.8 2.1 5.76q.23 50.31.02 100.64c0 1.16-.24 2.3-.39 3.9.55 3.51-.74 6.3-1.26 9.22-.32 1.73-1.56 3.38-.32 5.54 2.99 1.84 5.86.72 8.61.72 41.66.08 83.32.06 124.98.06q2 0 4-.02c6.81-.12 7.8-1.01 7.8-7.89.07-29.5.1-58.99-.02-88.48-.03-6.02 1.02-11.95.82-18.4.3-6.34 4.53-10.26 12.95-12.05.48 32.41.54 64.84.6 97.26 0 4 0 7.98.03 12.44 1.81 2.36 1.1 4.43.51 6.53-.88 3.17-2.16 6.23-2.22 9.84.8.92 1.51 1.22 2.41 1.19 20.14-.79 40.3.26 60.42-.48 17.31-.63 34.43-3 50.73-9.55 26.41-10.6 44.2-29.4 54.12-55.97 5.82-15.58 8.5-31.73 9.92-48.2 2.17-25.25.6-50.2-6.1-74.66-8.07-29.42-24.14-52.75-52.32-66.43-2.1-1.02-4.22-2.05-5.42-4.75-.15-4.35 1.23-7.46 5.59-9.04" style="fill:#fff"/><path fill="currentColor" d="M426.6 100.29c5.14 4.92 5.88 11.95 2.26 17.41a2978 2978 0 0 0-22.78 34.8c-.08.99.11 1.76-.26 2.25-2.77 3.65-.74 5.39 2.84 6.89 6.9 6.44 14.3 11.75 20.87 18.02 1.59 1.52 3.27 2.84 2.8 5.69-2.86 3.17-6.25 4.31-10.45 4.33-2.87.04-4.73-1.19-6.6-2.73a744 744 0 0 1-15.24-12.86c-2.52-2.2-4.4-2.13-6.39.9-19.08 29.05-38.63 57.79-57.65 86.88-18.48 28.26-37.45 56.2-56.08 84.36q-40.61 61.36-81.37 122.63c-1.84 2.78-4.13 5.2-6.12 8.32-6.48 4.41-12.97 7.96-20.97 8.53-3.19-3.17-1.05-5.76.55-8.2 9.12-13.9 18.48-27.66 27.61-41.57 27.67-42.13 55.6-84.09 83.4-126.13 24.5-37.05 49.04-74.06 73.43-111.17 17.45-26.56 35.3-52.86 52.45-79.61 1.62-2.53 3.68-4.7 5.44-7.53 4.04-3.94 6.2-9.48 12.26-11.21" style="fill:#fff"/><path fill="currentColor" d="M90.92 508.66c-4.66.5-8.94.19-13.6-.6 5.19-10.43 12.28-19.76 18.68-29.5 21.44-32.6 43.06-65.07 64.54-97.64 20.5-31.07 40.87-62.23 61.37-93.3 20.85-31.61 42-63.04 62.6-94.81a3026 3026 0 0 1 31.4-47.45c.06-1.82.82-2.98 2-3.6 5.23-2.74 10.1-6.4 16.7-6.37 2.79 3.28.78 5.86-.8 8.33-7.02 10.92-14.4 21.6-21.51 32.47-21.87 33.43-44 66.68-65.98 100.04-20.8 31.54-41.65 63.04-62.44 94.59-21.9 33.2-43.82 66.38-65.66 99.61-7.31 11.13-14.71 22.2-22 33.34-1.32 2-2.81 3.7-5.3 4.9" style="fill:#fff"/><path fill="currentColor" d="M426.44 100.07c-2.99 3.95-6.44 7.87-10.18 11.98-3.83 2.65-7.9 2.24-11.88 2.24H135.94c-16.2 0-13.4-.62-18.6 13.08-7.98 21.02-15.62 42.17-23.48 63.24-.65 1.72-1.51 3.32-2.55 5.33-.26.68-.36.95-.57 1.63a10 10 0 0 1-1.11 3.11c-4.48 5.19-9.99 8.59-14.88 12.7-1.39 1.18-3.14 1.87-5.38.87a4860 4860 0 0 1 26.66-74.34c4.55-12.44 9.37-24.77 13.87-37.23.7-1.93 1.5-2.76 3.42-2.68q1 .01 2 0c103.55 0 207.1.02 311.12.07" style="fill:#fff"/><path fill="currentColor" d="M1034.6 153.29c3.4 2.46 2.99 6.41 3.85 9.8 11.27 43.99 22.38 88.01 33.57 132.02 9.14 35.98 18.53 71.9 27.32 107.97 1.78 7.3 7.43 10.3 12.1 14.48 6.38 5.75 13.3 10.91 19.88 16.45 3.74 3.14.54 6.9.36 10.3-.13 2.46-2.9 1.65-4.57 1.65-41.15.05-82.3 0-123.46.1-3.75 0-5.61-1.22-5.73-5.05-.04-1.46-.54-2.91-.8-4.79 5.14-3.46 10.82-2.21 16.72-2.6 4.55 1.45 8.7.06 12.82.07 25.82.1 51.64.07 77.47.03 1.95 0 3.98.45 6.22-.71-5.17-5.63-11.48-9.7-17.07-14.55-2.9-2.53-4.84-5.26-5.83-8.97-6.7-25.27-13-50.63-19.54-75.94a42387 42387 0 0 1-37.26-145.14c-2.1-8.22-4.66-16.33-6.04-25.12 1.18-5.63 5.25-7.9 9.98-10" style="fill:#fff"/><path fill="currentColor" d="M738.07 435.61c1.3-5.88 3.06-11.86 4.9-18.22.68-.52 1.31-.65 1.92-.83 9.97-3.08 10.34-10.54 10.3-19.51-.35-68.38-.2-136.76-.24-205.61 2.59-5.91 7.3-7.3 13.21-6.84 2.83 2.9 2.08 6.24 2.1 9.3.09 26.66.04 53.32.04 79.97 0 44.48-.2 88.95.18 133.43.07 8.72-2.1 14.48-10.43 18.12-7.24 3.17-13.2 9.12-21.98 10.2" style="fill:#fff"/><path fill="currentColor" d="M699.9 153.75c5.32 5.67 5.04 10.02-.48 14.08q-10.62 7.77-21.19 15.62c-2.52 1.88-4.36 3.83-4.35 7.65.17 71.27.14 142.54.16 214.27-1.13 6.03-5.46 9.77-12.44 10.63-2.7-3.36-1.85-7-1.85-10.4-.08-49.47-.05-98.94-.05-148.4 0-22.82.16-45.64-.1-68.46-.07-6.4 2.07-10.66 7.58-13.83 6.18-3.57 11.79-8.09 18.42-11.74 4.4-4.04 8.25-8.16 14.3-9.42" style="fill:#fff"/><path fill="currentColor" d="M69.11 214.38c7-3.76 12.24-9.6 18.71-14.38.53-.6.7-1.02 1-1.75.22-.26.23-.22.2-.21 7.8-9.7 18.2-16.5 27.75-24.2a9778 9778 0 0 1 47.5-38.1c3.68-2.92 7.41-4.01 11.9-4.01H279.1c16.82 0 33.65-.05 50.47.06 2.56.02 5.44-.6 7.44 2.46-.07.67-.23.91-1.2 1.43-7.3 2.44-13 6.23-19.48 9.21-45.92.12-91.52.15-137.12.03-3.62 0-6.36 1.26-9 3.39l-61.06 49.18c-8.89 7.16-17.97 14.1-26.52 21.65-3.28 2.9-5.2 2.9-8.28.18a90 90 0 0 1-5.24-4.94" style="fill:#fff"/><path fill="currentColor" d="M911.69 394.37c12.23-23.13 20.13-47.16 21.45-73.13.13-2.47.54-4.92.85-7.81 3.65-9.03 5.4-18.19 7.95-27.1 5.43-18.9 10.64-37.87 15.85-56.84 3.8-13.83 7.48-27.7 11.22-41.96 3.3-4.34 7.54-3.62 12.22-2.71 3.74 2.69 2.24 5.96 1.41 8.85-3.75 13.12-7.33 26.28-11.05 39.4q-16.75 59.33-33.39 118.68c-5.4 19.23-10.95 38.4-16.14 57.68-1.15 4.28-3.72 7.3-7.24 9.77-8.02 5.65-15.66 11.82-24.1 17.51-5.31 3.67-10.04 7.68-16.62 8.98-3.64-2.52-4.33-9.42-1.46-11.82 3.35-2.8 6.79-5.48 10.34-8.53.16-.3.08-.33.07-.3a9.4 9.4 0 0 1 3.76-2.82c.27-.17.2-.1.24-.07.86-1.3 2.06-2.16 3.75-2.93.28-.17.21-.2.23-.17a39 39 0 0 1 7.29-6.74 38 38 0 0 0 13.37-17.94" style="fill:#fff"/><path fill="currentColor" d="M874.23 445.88c3.88-4.03 9.1-6.7 14.32-10 4.57-1.8 8.98-2.22 13.53-2.2 17.81.1 35.62.06 53.43.03 1.79 0 3.64.4 5.72-.66-3.14-3.82-7.11-6.48-10.9-9.26-5-3.67-6.76-7.78-5.05-14.12a4033 4033 0 0 0 15.52-59.4c1.51-5.93 3.38-7.38 9.48-7.46 14.98-.18 29.96-.12 44.94-.02 1.81.02 3.7-.06 5.54 1.49.2 6.52-4.73 8.4-9.5 10.78-11.23-.03-22.05.03-32.88-.1-3.19-.05-4.66 1-5.49 4.25-4.34 17-8.88 33.96-13.5 50.9-.8 2.91-.37 4.92 2 6.85 6.68 5.44 13.2 11.06 19.8 16.58 1.2 1 3.43 1.52 2.05 3.73-1.81 2.93-1.05 7.55-5.6 8.66-.64.15-1.34.06-2 .06-33.65 0-67.29 0-101.41-.1" style="fill:#fff"/><path fill="currentColor" d="M408.15 163.35c-.63-.19-.79-.24-.94-.3-8.28-3.02-8.32-3.27-1.5-10.1 21.11-.06 41.89.03 62.67.04 37.24.03 74.48.01 112.2.04-.05 6.7-5.2 9.06-10.69 11.65-3.22.75-6.06.63-8.88.63l-141.2.01c-3.83 0-7.67.08-11.66-1.97" style="fill:#fff"/><path fill="currentColor" d="M662.93 416.42c3.55-3.67 7.05-6.93 10.84-10.39 13.01.47 12.96.45 17.04-11.5 9.7-28.4 19.47-56.79 29.2-85.18.64-1.9 1.16-3.53 3.85-3.41 6.14.26 12.29.2 18.7.59-4.02 3.06-8.09 6.1-11.93 9.93-.68 12.18-5.73 22.8-9.5 33.73-6.82 19.78-13.8 39.5-20.64 59.27-3.14 9.1-3.94 9.73-13.55 9.77-6.15.03-12.3.1-18.44-.06-2.13-.06-4.43.1-5.57-2.75" style="fill:#fff"/><path fill="currentColor" d="M570.44 163.37c3.7-3.47 7.1-6.56 10.56-9.99.04-.33.5-.44.72-.39 2.98 1.85 2.06 5.1 3.39 7.85a7.2 7.2 0 0 0 3.76 4.1c7.24 3.65 13.94 8.2 20.63 12.77 1.54 1.05 2.98 2.14 2.74 4.64-3.51 3.76-7.8 4.75-12.76 5.1-3.99-.64-6.64-3.06-9.67-4.74-4.48-2.48-5.47-2-5.5 3.18-.07 17.62 0 35.23-.03 52.85 0 9.47.14 18.94-.07 28.41-.15 6.48-1.58 7.9-8.03 8.05-4.3.1-8.64.46-13.29-.7-2.65-2.34-1.55-4.17.04-6.05 1.65-1.95 4.1-3.21 5.12-6.26a9 9 0 0 0 1.3-5.16c-1.46-29.36-.36-58.75-.57-88.12-.02-1.8-.04-3.7 1.66-5.54" style="fill:#fff"/><path fill="currentColor" d="M860.91 164.62c-1.46 2.93-3.1 5.53-4.89 8.45-2.14 2.38-4.45 1.76-6.66.97-19.2-6.83-39.08-8.8-59.32-8.8-14.78 0-29.57.59-44.34-.4-.66-.04-1.32.2-2.42.48-6.77-.58-13.33 1.3-19.8-2.06 3-6.37 6.64-10.8 15.24-10.52 22.45.76 44.95.07 67.43.32 18.88.21 37.05 4.33 54.76 11.56" style="fill:#fff"/><path fill="currentColor" d="M1010.92 355.47c3.07-3.46 6.2-6.5 9.62-9.75 4 .12 3.89 3.4 4.43 5.74 2.53 11.02 4.7 22.11 7.09 33.16 1.89 8.78 3.56 17.6 5.55 26.36.9 3.97.67 7.64-2.59 10.54a405 405 0 0 1-14.03 11.95c-1.47 1.19-3.37 1.37-5.46 2.17-6.06.2-11.76.22-17.91.2 3.95-5.36 10.03-8.83 14.92-13.64 2.54-2.49 5.55-4.51 8.41-6.65 2.2-1.64 2.38-3.74 1.81-6.16a17369 17369 0 0 1-11.72-50.52c-.22-.95-.05-1.99-.12-3.4M583.4 163.32c-2.44-3.05-.9-6.34-1.49-9.83 38.47-.46 76.9-.48 115.32-.48.83 0 1.65.13 2.76.55-3.5 3.37-7.27 6.4-11.37 9.55a32 32 0 0 1-12.52 2.23q-39.97-.08-79.95 0a40 40 0 0 1-12.75-2.02m451.07-10.25a36 36 0 0 1-8.3 8.47c-1.73 2.88-4.37 2.7-6.81 2.7-19.71-.11-39.43.62-59.13-.38a8 8 0 0 0-2.44.43c-5.34-.2-10.37.75-15.39-1.98.83-8.3 2.96-10.31 10.18-10.31 14.44 0 28.88.2 43.31-.06 12.74-.22 25.42.64 38.58 1.13" style="fill:#fff"/><path fill="currentColor" d="M723.12 163.35c6.23-.28 12.51-.23 19.25-.13 6.01 1.43 9.84 5.53 14.07 8.9 2.96 2.36 5.83 4.88 8.63 7.46 1.35 1.24 2.53 2.65 2.27 5.03-4.02 2.24-7.9 4.15-12.1 6.21a1124 1124 0 0 1-32.12-27.47" style="fill:#fff"/><path fill="currentColor" d="M942.12 162.38c4.5-.32 9.17-.35 14.3-.32 4.68 1.4 8 4.19 11.2 7.06 3.93 3.54 7.48 7.5 11.7 10.77 1.68 1.3 3.24 2.93 2.75 5.73-4.2.67-8.2 1.03-12.62 1.45a1052 1052 0 0 1-27.33-24.7" style="fill:#fff"/><path fill="currentColor" d="M431.5 185.1c.46 2.08.64 4.23.64 6.39.02 73.7-.02 147.4.1 221.1.01 4.25-1.19 7.1-4.5 9.75-5.07 4.03-9.72 8.58-14.72 13.19-.57.62-.96.96-1.5 1.52-9.68 6.33-18.04 13.97-26.96 20.88a2582 2582 0 0 0-33.27 26.37c-2.04 1.64-4.08 2.55-6.77 2.54-57.1-.08-114.21-.09-171.32-.12-.82 0-1.65-.16-2.82-.45-.32-.6-.12-.84.46-1.1.22-.14.16-.13.17-.1 6.84-2.13 13.09-5.63 19.78-8.89 3.62-2.48 7.43-2.48 11.3-2.48 43.8.02 87.6-.08 131.4.1 6.85.04 12.33-1.59 17.67-6.2 21.01-18.17 42.47-35.83 63.62-53.85 2.64-2.25 3.92-4.78 3.9-8.2-.01-3.65.03-7.32.03-10.98 0-65.46-.02-130.9.06-196.36 0-3.21-.97-6.73 2.02-9.83 3.68-1.27 7.02-2.23 10.72-3.27" style="fill:#fff"/><path fill="currentColor" d="M582.97 420.42c4.99-3.5 9.9-6.63 14.81-9.76 2.1-1.33 2.27-3.34 2.26-5.62-.07-18.13-.04-36.26-.04-54.4 0-54.56 0-109.13-.06-164.16 3.69-1.79 7.4-3.1 11.48-4.51.42 1.9.58 3.9.58 5.9 0 73.27-.04 146.56.1 219.84 0 4.3-1.08 6.97-4.85 9.31-9.18 5.7-18.04 11.9-27.41 17.96.77-4.69 1.91-9.43 3.13-14.56" style="fill:#fff"/><path fill="currentColor" d="M547.66 345.2c5.15-11.06 8.05-22.6 12.01-33.79 1.01-2.85 2.24-3.5 4.85-3.45 5.48.13 10.96.07 16.9.12-3.17 2.81-6.81 5.6-10.58 8.72-8.37 23.51-16.61 46.68-24.83 69.86-3 8.46-6.07 16.9-8.83 25.43-.98 3.02-2.42 4.17-5.65 4.14-16.96-.17-33.93-.12-51.38-.23.5-6.4 5.74-8.67 10.84-11.51 9.32-1.48 18.3-.5 27.27-.71 7.77-.19 7.77-.13 10.29-7.32 5.38-15.36 9.6-31.13 16.25-46.48.53-2 1.1-3.55 2.86-4.79" style="fill:#fff"/><path d="M890.7 418.96c-.47 1.38-1.3 2.69-3.29 3.14-.57-2.32 1.03-2.91 3.3-3.14m-4 3.01c-.5 1.35-1.28 2.72-3.34 3.06-.46-2.28 1.12-2.85 3.34-3.06" style="fill:#fff"/><path fill="none" d="M420.77 188.01c.31 23.04.24 46.02.23 69-.02 49.98-.04 99.94.07 149.91 0 3.89-1.38 6.04-4.5 8.42-7.68 5.86-14.76 12.5-22.17 18.73-9.62 8.1-19.35 16.07-28.98 24.16a556 556 0 0 0-15.63 13.54c-3.03 2.74-6.08 4.34-10.45 4.33-49.13-.16-98.27-.11-147.87-.16C223.34 427.27 255.66 378.62 288 330c14.98-22.52 30.04-44.99 45.01-67.52 20.02-30.13 40.02-60.27 59.9-90.48 2.2-3.33 3.44-4.17 6.86-1.02 6.55 6.02 13.73 11.36 21 17.03" style="fill:#fff;fill-opacity:0"/><path fill="currentColor" d="M88.8 198.12q.1.54-.5 1.5-.09-.53.5-1.5" style="fill:#fff"/><path fill="currentColor" d="M335.77 135.15q.19.4-.58.8-.08-.31.58-.8" style="fill:#fff"/><path fill="currentColor" d="M561.91 272.49c-4.53-3.88-5.35-9.93-7.59-15.13-8.54-19.8-16.4-39.9-24.5-59.9-1.02-2.53-1.9-5.11-2.97-8.04-.88-5 .54-7.22 6.06-9.55 3.44-.36 3.02 2.45 3.65 3.96 10.64 25.12 21.15 50.3 31.69 75.47.58 1.38 1.24 2.72 2.07 4.4-1.7 4.03-6.04 5.16-8.4 8.79" style="fill:#fff"/><path fill="currentColor" d="M146.4 469.22c.66-6.72 4.95-11.84 7.97-17.47 15.8-29.49 31.96-58.8 47.82-88.25 1.94-3.61 4.32-6.03 8.12-7.5 4.66-1.78 9.18-3.94 13.69-6.08 2.69-1.29 4.1-.73 4.3 2.32.33 5.47.66 10.94.84 16.74-2.31 1.84-4.44 1.03-6.26-.1-4.29-2.67-6.52-.56-8.83 2.96-15.9 24.19-32.09 48.2-48.1 72.33-5.33 8.03-11.4 15.52-16.86 23.46-.58.84-1.24 1.58-2.69 1.6" style="fill:#fff"/><path fill="currentColor" d="M361.45 147.92c-.82 4.4-3.34 7.78-5.3 11.42-17.9 33.21-35.93 66.35-53.76 99.6-2.02 3.78-4.58 6.2-8.53 7.7-5.43 2.08-10.69 4.6-16.46 7-.45-3.18.77-6 2.58-8.7 20.21-30.02 39.86-60.43 60.43-90.2 5.46-7.91 11.24-15.61 17.4-23.46.27-.25.2-.27.21-.24.2-.24.4-.5.85-.88.2-.16.13-.16.14-.13.41-.44.48-1.04.86-1.82.2-.21.14-.2.14-.16.33-.36.73-.5 1.44-.13" style="fill:#fff"/><path fill="currentColor" d="M357.74 151.07c.31 2.16-1.34 3.53-2.42 5.14-25.96 38.94-51.97 77.85-78.17 117.15-1.82-6.25-1.45-13.05-1.92-19.78-.07-1.14.82-2.53 1.61-3.52q39.48-48.9 79.04-97.7c.4-.5 1-.84 1.86-1.29" style="fill:#fff"/><path fill="currentColor" d="M146.04 469.1c2.03-.85 2.64-2.9 3.71-4.5 21.3-31.95 42.67-63.87 63.7-96 2.77-4.23 5.05-4.75 8.96-2.28 1.8 1.15 3.89 1.86 6.2 2.88.38 1.58-.55 2.56-1.39 3.59l-80.76 99.54a4.4 4.4 0 0 1-2.34 1.47c-.6-.62-.57-1-.24-1.6.2-.2.13-.2.13-.16.2-.23.43-.48.86-.88.2-.16.13-.16.14-.13.4-.44.48-1.04.87-1.8.2-.22.13-.17.16-.14" style="fill:#fff"/><path fill="currentColor" d="M242.65 324.36c-2.82-6.08-1.07-12.68-2.24-19-.27-1.47 1.32-2.14 2.56-2.69 5.6-2.5 11.22-4.94 16.78-7.52 2.34-1.1 3.4-.44 3.54 2.03.36 5.77.72 11.53.89 17.6-2.5.97-4.84 1.05-6.9-.21-3.44-2.11-5.48-.56-7.22 2.34-1.8 2.98-3.89 5.7-7.41 7.45" style="fill:#fff"/><path fill="currentColor" d="M242.6 324.56c2.34-4.06 5.08-7.95 7.56-12 1.38-2.23 2.77-2.86 5.17-1.52 2.57 1.43 5.3 2.57 8.31 3.95-6.21 4.36-13.39 7.24-21.05 9.57m-99.36 151.3c-.56 1.96-1.69 3.1-3.66 4.65.92-2.32.79-4.28 3.15-5.28.44.06.58.22.5.63" style="fill:#fff"/><path fill="currentColor" d="M361.69 147.95c-.4.3-.78.33-1.4.25-.2-.72-.04-1.34.67-1.34.26 0 .51.54.73 1.1" style="fill:#fff"/><path fill="currentColor" d="M170.87 485c.02.32-.16.6-.59.97-.44-.52-.27-.9.59-.97" style="fill:#fff"/><path fill="currentColor" d="M143.29 475.93c-.26.17-.22-.31-.24-.56-.02-.24.02-.71.02-.95.1-.5.2-.76.6-.74l.31.3a7 7 0 0 1-.69 1.95" style="fill:#fff"/><path fill="currentColor" d="M144 473.64c-.03.33-.48.43-.7.48-.07-.54.1-1.15.52-1.94.24.25.23.69.18 1.46m1.8-4.49q.18.67-.5 1.76-.18-.66.5-1.76" style="fill:#fff"/><path fill="currentColor" d="M359.81 148.16q.15.65-.5 1.75-.17-.63.5-1.75" style="fill:#fff"/><path fill="currentColor" d="M144.8 471.08q.17.41-.49.98-.17-.42.5-.98" style="fill:#fff"/><path fill="currentColor" d="M358.8 150.07q.17.42-.49.98-.17-.42.49-.98" style="fill:#fff"/><path fill="currentColor" d="M813.21 179.95c6.38-1.84 12.07.8 17.42 3.73 18.36 10.05 29.44 26.29 36.36 45.39 9.59 26.47 12.76 53.95 11.33 82.05-1.14 22.48-5 44.32-14.37 64.93-6 13.2-13.87 25.1-25.53 34.03-7.25 5.55-15.19 9.6-24.96 9.3 1.56-6.7 5.6-11.6 11.27-15.73 8.6-4.28 13.85-11.36 18.23-19.05 10.12-17.76 15.24-37.12 17.94-57.27a209 209 0 0 0 1.8-37.82c-1.16-24.43-5.3-48.25-16.28-70.45-4.87-9.83-10.98-18.62-21.15-24.36-5.91-3.52-9.56-8.44-12.06-14.75" style="fill:#fff"/><path fill="currentColor" d="M813.05 180.1a206 206 0 0 1 11.86 12.57c2.47 2.7 2.37 5.74 2.38 8.74.06 14.99.03 29.97.03 44.95 0 49.44.02 98.88-.05 148.32 0 3.24.8 6.7-1.89 9.98-4.12 4.97-7.9 9.56-11.95 14.35-.34-.98-.46-2.14-.46-3.3 0-78.38.02-156.75.08-235.62M548.03 344.57c-.06 1.96.12 3.51-1.01 5.17-1.93 1.2-3.36 2.67-5.34 3.25-8.28 2.44-11.07 1.43-16.02-5.69-5.43-7.79-10.69-15.69-16.25-23.38a11.7 11.7 0 0 0-13.18-4.34c-1.85.6-2.64 1.9-2.82 3.7-.18 1.83-.14 3.66-.14 5.5 0 22.81.04 45.64-.04 68.46-.01 2.74.7 5.73-1.88 8.38-3.98 3.44-7.65 6.58-11.5 10.01-1.16-1.4-.9-3.26-.9-5.07-.02-32.8.1-65.6-.13-98.4-.04-5.18 1.57-6.6 6.53-6.36 7.47.39 14.98.26 22.47.03 3.56-.1 5.8 1.1 7.84 4.04a279 279 0 0 0 20 25.95c0-25.17 0-50.34-.12-76.01.32-5.67 6.19-11.58 11.91-12.14.43 32.23.5 64.33.58 96.9m-15.09-165.03c-1.77 3.1-3.91 5.96-6.13 9.16-10.2.33-20.34.48-30.46.22-4.05-.1-5.46 1.06-5.44 5.29.18 27.23.11 54.47.13 82.17-1.25 6.08-5.51 8.23-10.85 9.61-1.57-1.59-1.17-3.48-1.17-5.27-.03-31.97.05-63.94-.1-95.9-.02-4.36.93-6.2 5.76-6.11 14.48.3 28.97.1 43.45.13 1.48 0 2.96.3 4.8.7" style="fill:#fff"/><path fill="currentColor" d="M480.21 286.18c3.15-3.1 6.7-6.06 10.54-9.18 2.95-.11 5.69-.44 8.25.07 7.38 1.48 11.13-2.9 15.05-8.06 6.42-8.43 13.37-16.45 20.09-24.66 1.23-1.5 2.8-1.76 4.45-1.08 2.97 1.24 5.88 2.64 9.02 4.25-4.42 3.28-8.1 7.34-12.07 11.5-7.14 7.4-13.03 15.45-19.28 23.19-2.52 3.11-5.15 4.63-9.26 4.47-8.79-.36-17.6-.26-26.79-.5" style="fill:#fff"/><path fill="currentColor" d="M994.87 239.73a5019 5019 0 0 1 19.17 72.89c.79 3.05 1.43 6.15 2.34 9.16.71 2.33.26 3.44-2.36 3.39-14.44-.26-28.88.52-43.66-.65 2.64-5.73 7.93-8.3 13.54-11 3.98-.84 7.64-.75 11.29-.83 2.47-.05 3.92-1.21 3.28-3.75-2.18-8.67-4.22-17.37-6.6-26.43-.81-14.53.36-28.5 3-42.78" style="fill:#fff"/><path fill="currentColor" d="M994.89 239.56c-.13 14.06-.53 28.31-.98 43.04.47 10.47-3.93 19.4-6.25 28.77-.37 1.5-1.6 2.47-3.3 3.4-4.78 3.23-9.22 6.25-14 9.4.69-9.03 4.2-17.52 6.75-26.25a3233 3233 0 0 1 17.78-58.36" style="fill:#fff"/><path fill="none" d="M825.03 193.45c0 70.84 0 141.21.39 211.56 2.15.14 3.5-.88 4.81-1.8 6.84-4.77 11.49-11.47 15.45-18.57 12.6-22.6 17.53-47.4 19.13-72.8 1.03-16.4.15-32.86-2.64-49.23-2.85-16.76-7.17-32.95-15.35-47.8-5.06-9.18-10.5-18.6-21.8-21.36m15.18 56.23c.53-.03.97.6.6 1.57-.96 2.52-1.1 5.3-1.12 7.96-.02 3.83.28 7.86.5 11.66.62 9.53.32 4.78.9 14.24.11 1.65-1.56 1.75-1.66.1-.59-9.45-.29-4.7-.91-14.25-.22-3.83-.53-7.96-.5-11.83.02-2.88.2-5.88 1.28-8.6.23-.57.58-.83.9-.85m-5.32 33.18c.37.03.73.39.82 1.1.85 7.17 2.15 14.26 3.36 21.37q1.66 9.7 3.35 19.4c.28 1.63-1.36 1.92-1.65.29q-1.68-9.7-3.34-19.4c-1.22-7.12-2.52-14.22-3.37-21.4-.11-.92.36-1.4.83-1.36" style="fill:#fff;fill-opacity:0"/></svg>