<svg xmlns="http://www.w3.org/2000/svg" viewBox="0 0 540 78.3"><path d="M11.97 78.34A11.97 11.97 0 0 1 0 66.37v-54.4a11.97 11.97 0 1 1 23.94 0v54.4c0 6.61-5.36 11.97-11.97 11.97M174.3 28.06h-36.13v-6.51h36.14a10.77 10.77 0 0 0 0-21.55H125a10.77 10.77 0 0 0-10.78 10.78v55.6a11.97 11.97 0 0 0 23.94 0V49.6h36.14a10.77 10.77 0 0 0 0-21.54m365.24 34.81-15.5-54.04a11.8 11.8 0 0 0-5.77-7.18A10.7 10.7 0 0 0 512.56 0H455.7q-.56 0-1.1.06a11.97 11.97 0 0 0-10.87 11.91v54.4a11.97 11.97 0 1 0 23.94 0V21.55h5.3v44.83a11.97 11.97 0 0 0 23.94 0V21.55h6.02l13.74 47.88a11.9 11.9 0 1 0 22.87-6.56M249.9 0h-40.66a20.6 20.6 0 0 0-20.56 20.57v37.2a20.6 20.6 0 0 0 20.56 20.57h40.66a20.6 20.6 0 0 0 20.56-20.56V20.57A20.63 20.63 0 0 0 249.9 0m-2.65 53.72a2.4 2.4 0 0 1-2.4 2.4h-30.57a2.4 2.4 0 0 1-2.4-2.4v-29.1a2.4 2.4 0 0 1 2.4-2.39h30.58a2.4 2.4 0 0 1 2.4 2.4zM418.3 0h-40.66a20.63 20.63 0 0 0-20.56 20.57v37.2a20.63 20.63 0 0 0 20.56 20.57h40.66a20.6 20.6 0 0 0 20.56-20.56V20.57A20.6 20.6 0 0 0 418.3 0m-2.65 53.72a2.4 2.4 0 0 1-2.39 2.4h-30.58a2.4 2.4 0 0 1-2.4-2.4v-29.1a2.4 2.4 0 0 1 2.4-2.39h30.58a2.4 2.4 0 0 1 2.4 2.4zM105.2 0H34.67c-3 0-5.43 2.43-5.43 5.43v60.94c0 6.61 5.36 11.97 11.97 11.97s11.83-5.36 11.83-11.97V24.62a2.4 2.4 0 0 1 2.4-2.4H84.2a2.5 2.5 0 0 1 2.48 2.4v41.75a11.97 11.97 0 0 0 23.94 0V5.43c0-3-2.43-5.43-5.42-5.43m239 56.11h-42.8a2.4 2.4 0 0 1-2.4-2.4V24.64a2.4 2.4 0 0 1 2.4-2.4h42.8a11.12 11.12 0 0 0 0-22.23h-48.55a20.5 20.5 0 0 0-20.45 20.46V57.9c0 11.24 9.2 20.45 20.45 20.45h48.54a11.12 11.12 0 0 0 0-22.23" style="fill-opacity:1;fill:#fff"/></svg>