<svg xmlns="http://www.w3.org/2000/svg" viewBox="0 0 264 82"><path d="M47.44 3.6v3.61h8.76V0h-8.76zm161.9 0v3.61h8.77V0h-8.77zM152.1 18.8v18.29h8.78V.52h-8.77zM0 17.51v8.76l18.2.1c17.74.16 18.15.16 18.15 1.19s-.41 1.03-18.15 1.18l-18.2.1v7.73h45.38V19.06H9.27v-2.58h36.1V8.76H0zm47.44 5.15v13.91h8.76V8.76h-8.76zm10.83 0v13.91h9.28V16.48h26.8v20.09h9.29V8.76H58.27zm46.92 0v13.91h44.86v-7.73h-36.1V16.48h36.1V8.76h-44.86zm57.75-10.04v3.86l17.68.1c17.22.16 17.64.16 17.64 1.19s-.41 1.03-17.64 1.18l-17.68.1v17.52h44.86V8.76h-44.86zm35.32 14.94c0 .98-.41 1.03-13.25 1.18-12.64.1-13.3.05-13.3-.82 0-.52.15-1.14.35-1.34.21-.16 6.14-.26 13.26-.2 12.53.15 12.94.2 12.94 1.18m11.08-4.9v13.91h8.77V8.76h-8.77zm10.32 0v13.91h9.28l.1-9.94.16-9.89 17.42-.15 17.38-.1V8.75h-44.34zM79.4 46.36v3.09h8.77c4.85 0 8.77.15 8.77.36 0 .25-4.44 5.82-9.8 12.41l-9.8 12v7.16h30.94V75.2l-10.83-.1-10.88-.16L97.2 61.91l10.62-12.98-.16-2.73-.15-2.68-14.03-.15-14.07-.1zm31.92-2.12c.31.57 2.9 4.59 5.73 8.91 2.88 4.33 5.1 8.25 5 8.66s-2.89 4.9-6.19 9.94a243 243 0 0 0-6.03 9.37c0 .16 2 .26 4.54.26h4.48l4.23-6.54 4.18-6.54 4.22 6.54 4.23 6.54h4.64c3.56 0 4.49-.15 4.23-.62-.2-.36-3.14-4.79-6.5-9.78L132 61.86l5.93-9.17 5.88-9.17-3.92-.15c-2.17-.1-4.23-.05-4.54.1-.36.1-2.22 2.78-4.12 5.93-1.91 3.14-3.61 5.71-3.82 5.71-.15 0-1.96-2.62-3.92-5.82l-3.6-5.77-4.55-.15c-4.38-.15-4.53-.1-4.02.87m42.28.46c-5.92 3.1-6.9 10.77-1.85 14.8l1.8 1.43-1.6 1.08c-4.9 3.3-5.87 10.72-2.06 15.71 1.96 2.58 6.19 4.33 10.42 4.28 4.33 0 7.32-1.19 9.54-3.76 3.97-4.64 3.86-11.38-.2-15.1-1.14-1.02-2.33-1.85-2.7-1.85-.3 0 .37-.87 1.5-1.95 2.38-2.17 3.46-5.1 2.94-7.88-1.03-5.41-4.9-8.2-11.5-8.2-2.88 0-4.07.26-6.28 1.45m9.6 5.52c.87.82 1.28 1.8 1.28 3.04 0 2.47-.4 3.35-2.11 4.17-2.06 1.08-3.81.93-5.47-.46-1.13-.98-1.44-1.65-1.44-3.4s.31-2.42 1.44-3.4c1.96-1.65 4.64-1.65 6.3.05m-.78 14.42c3.56 1.86 4.13 7.42 1.09 10.15-4.95 4.43-11.35-2.37-7.8-8.24 1.6-2.58 4.03-3.3 6.71-1.9m16.49-2.34v19.06h7.74V43.27h-7.74z" style="fill:#fff"/></svg>