<svg xmlns="http://www.w3.org/2000/svg" style="fill-rule:evenodd;clip-rule:evenodd;stroke-linejoin:round;stroke-miterlimit:2" viewBox="0 0 492.9 108.4"><path d="M405.64 56.02a8.04 8.04 0 1 1-16.08 0V28.14a8.04 8.04 0 0 1 16.08 0zm-109.77 0a8.04 8.04 0 1 1-16.08 0V12.1a8.04 8.04 0 0 1 16.08 0zM405.64 8.04a8.04 8.04 0 1 1-16.08 0 8.04 8.04 0 0 1 16.08 0M101.17 56.02a8.04 8.04 0 1 1-16.09 0V28.14a8.04 8.04 0 0 1 16.09 0zm0-47.98a8.04 8.04 0 1 1-16.09 0 8.04 8.04 0 0 1 16.09 0m311.51 26.08c0-7.8 6.32-14.08 14.12-14.08h60.15c3.3 0 5.98 2.79 5.98 6.09s-2.68 5.96-5.98 5.96h-51.96a6.23 6.23 0 0 0-6.24 6.2l.01 17.7a8.04 8.04 0 0 1-16.08 0zm-29.95.05c0-7.8-6.32-14.12-14.12-14.12h-59.65a6.03 6.03 0 0 0-.03 12.04l55.77-.02a2.01 2.01 0 0 1 0 4.02h-47.83a13.94 13.94 0 1 0 0 27.89h51.74c7.8 0 14.12-6.33 14.12-14.12zm-61.86 17.92a2 2 0 0 1 0-4.02h43.83a2.01 2.01 0 0 1 0 4.02zm-54.27-.22a6.05 6.05 0 0 1 6.05 6.05c0 3.33-2.68 6-6 6l-52.36.01a21.97 21.97 0 0 1-21.97-21.97 21.93 21.93 0 0 1 21.97-21.92h52.33a6.04 6.04 0 0 1 6.03 6.05c0 3.32-2.68 6-6 6h-48.37c-5.47 0-9.9 4.4-9.9 9.86a9.9 9.9 0 0 0 9.9 9.92zM121.25 20.05c-7.8 0-14.11 6.32-14.11 14.12l.02 21.85a8.04 8.04 0 0 0 16.08 0V38.17a6.2 6.2 0 0 1 6.2-6.2h35.65a6.2 6.2 0 0 1 6.2 6.2v17.85a8.04 8.04 0 0 0 16.08 0l.03-21.85c0-7.8-6.32-14.12-14.12-14.12z" style="fill:#fff;fill-rule:nonzero"/><path d="M13.99 20.06a13.94 13.94 0 1 0 0 27.9l48.2-.02a2.01 2.01 0 1 1 0 4.02H6.06a6 6 0 0 0-6.04 6c0 3.33 2.67 6 6 6l60.3.02c7.72 0 13.98-6.24 13.98-13.97 0-7.72-6.26-13.92-13.98-13.92H17.94a2 2 0 1 1 0-4.02l56.32.02c3.32 0 6-2.68 6-6 0-3.33-2.7-6.03-6.03-6.03z" style="fill:#fff"/><path d="M2.58 98.41 15.13 83.4H3.56v-4.33h18.42v4.07L9.43 98.15H22.3v4.33H2.58zm28.81-8.19-7.54-11.15h5.96l4.6 7.48 4.75-7.48h5.63l-7.5 11.18 8.16 12.22h-6.13l-5.11-8.09-5.21 8.1h-5.8zm29.4 4.48c0 3.12 2.42 4.33 5.18 4.33 1.8 0 4.55-.52 4.55-2.91 0-2.53-3.5-2.95-6.94-3.87-3.48-.92-6.99-2.26-6.99-6.65 0-4.79 4.53-7.08 8.75-7.08 4.89 0 9.38 2.13 9.38 7.54h-4.98c-.17-2.82-2.17-3.55-4.62-3.55-1.64 0-3.55.7-3.55 2.66 0 1.8 1.12 2.03 6.99 3.54 1.7.43 6.95 1.5 6.95 6.82 0 4.3-3.38 7.5-9.74 7.5-5.18 0-10.03-2.55-9.96-8.32zm29.99-.65c0-2.69-1.08-5.47-4.06-5.47-3.05 0-4.04 2.72-4.04 5.47 0 2.76 1.05 5.38 4.07 5.38 3.05 0 4.03-2.62 4.03-5.38m-12.59-8.52h4.43v2.16h.06c1.12-1.8 2.95-2.62 5.05-2.62 5.31 0 7.7 4.3 7.7 9.12 0 4.52-2.49 8.74-7.44 8.74a6 6 0 0 1-5.08-2.55h-.06v8.06h-4.66zm31.67 6.65c-.43-2.36-1.45-3.6-3.7-3.6-2.96 0-3.8 2.3-3.87 3.6zm-7.57 2.95c.13 2.95 1.57 4.3 4.16 4.3 1.87 0 3.38-1.15 3.67-2.2h4.1c-1.31 4-4.1 5.7-7.94 5.7-5.34 0-8.65-3.67-8.65-8.91 0-5.08 3.5-8.95 8.66-8.95 5.76 0 8.55 4.85 8.22 10.07zm26.91-3.63c-.3-1.9-1.51-2.92-3.45-2.92-2.98 0-3.96 3.01-3.96 5.5 0 2.43.95 5.35 3.87 5.35 2.16 0 3.4-1.38 3.7-3.44h4.49c-.59 4.49-3.7 6.94-8.16 6.94-5.11 0-8.56-3.6-8.56-8.68 0-5.28 3.15-9.18 8.66-9.18 4 0 7.67 2.1 7.96 6.43zm13.43-5.97h3.41v3.11h-3.4v8.4c0 1.57.39 1.96 1.96 1.96.5 0 .95-.03 1.44-.13v3.64c-.78.13-1.8.16-2.72.16-2.85 0-5.34-.65-5.34-4.03v-10h-2.82v-3.1h2.82v-5.1h4.65zm5.97 0h4.43v3.15h.06a6 6 0 0 1 5.4-3.6c.34 0 .73.06 1.03.16v4.32a9 9 0 0 0-1.68-.16c-3.4 0-4.59 2.46-4.59 5.44v7.64h-4.65zm28.94 16.95h-4.42v-2.36h-.1a6 6 0 0 1-5.18 2.81c-4.95 0-6.2-2.78-6.2-6.98V85.53h4.66v9.57c0 2.79.82 4.16 2.98 4.16 2.53 0 3.6-1.4 3.6-4.85v-8.88h4.66zm3.87-16.95h4.4v2.3h.06a6.1 6.1 0 0 1 5.18-2.76c2.13 0 4.03.79 4.95 2.82a6.2 6.2 0 0 1 5.1-2.82c3.61 0 6.2 1.67 6.2 6.07v11.34h-4.65v-9.6c0-2.27-.2-4.14-2.85-4.14-2.62 0-3.12 2.17-3.12 4.3v9.44h-4.65v-9.5c0-1.98.13-4.24-2.82-4.24-.92 0-3.15.6-3.15 3.9v9.84h-4.65zm39.69-6.46h5.12l9.77 15.7h.06v-15.7h4.82v23.4h-5.15L226 86.82h-.07v15.67h-4.81zm35.54 13.11c-.43-2.36-1.44-3.6-3.7-3.6-2.96 0-3.8 2.3-3.87 3.6zm-7.57 2.95c.13 2.95 1.57 4.3 4.16 4.3 1.87 0 3.38-1.15 3.67-2.2h4.1c-1.31 4-4.1 5.7-7.94 5.7-5.34 0-8.65-3.67-8.65-8.91 0-5.08 3.5-8.95 8.65-8.95 5.77 0 8.56 4.85 8.23 10.07zm19.63-1.57-5.57-8.03h5.3l2.99 4.42 2.95-4.42h5.14l-5.57 7.93 6.26 9.02h-5.3l-3.55-5.35-3.54 5.35h-5.2zm19.5-8.03h3.41v3.11h-3.4v8.4c0 1.57.39 1.96 1.96 1.96.5 0 .95-.03 1.44-.13v3.64c-.79.13-1.8.16-2.72.16-2.85 0-5.34-.65-5.34-4.03v-10h-2.82v-3.1h2.82v-5.1h4.65z" style="fill:#fff;fill-rule:nonzero"/></svg>