<svg xmlns="http://www.w3.org/2000/svg" viewBox="0 0 3840 1095.1"><path d="M683.6 0h118v93.4h-118zM1.7 955.4l174.9-209.1H15.4V686H272v56.6L97.2 951.7h179.5v60.3H1.7zm401.4-114.2L298.1 686h83.1l63.9 104.1L511.3 686h78.5L485.3 841.7 599 1012h-85.4l-71.2-112.8-72.6 112.8H289zm309.1 62.6c0 43.4 33.8 60.3 72.1 60.3 25.1 0 63.5-7.3 63.5-40.6 0-35.2-48.9-41.1-96.8-53.9-48.4-12.8-97.3-31.5-97.3-92.7 0-66.7 63-98.6 121.9-98.6 68 0 130.6 29.7 130.6 105h-69.4c-2.3-39.3-30.1-49.3-64.4-49.3-22.8 0-49.3 9.6-49.3 37 0 25.1 15.5 28.3 97.3 49.3 23.7 5.9 96.8 21 96.8 95 0 59.8-47 104.6-135.6 104.6-72.1 0-139.7-35.6-138.8-116h69.4Zm226.9-127.9h61.6V806h.9c15.5-25.1 41.1-36.5 70.3-36.5 74 0 107.3 59.8 107.3 126.9 0 63-34.7 121.9-103.7 121.9-28.3 0-55.3-12.3-70.8-35.6h-.9V1095H939V775.9Zm175.4 118.8c0-37.4-15.1-76.3-56.6-76.3-42.5 0-56.2 37.9-56.2 76.3s14.6 74.9 56.6 74.9c42.5 0 56.2-36.6 56.2-74.9m143.4 15c1.8 41.1 21.9 59.8 58 59.8 26 0 47-16 51.1-30.6h57.1c-18.3 55.7-57.1 79.5-110.5 79.5-74.4 0-120.6-51.1-120.6-124.2 0-70.8 48.9-124.7 120.6-124.7 80.4 0 119.2 67.6 114.6 140.2zm105.4-41.1c-5.9-32.9-20.1-50.2-51.6-50.2-41.1 0-53 32-53.9 50.2zm250.3-9.5c-4.1-26.5-21-40.6-47.9-40.6-41.6 0-55.3 42-55.3 76.7 0 33.8 13.2 74.4 53.9 74.4 30.1 0 47.5-19.2 51.6-47.9h62.6c-8.2 62.6-51.6 96.8-113.7 96.8-71.2 0-119.2-50.2-119.2-121 0-73.5 43.8-127.9 120.6-127.9 55.7 0 106.9 29.2 111 89.5zm169.8-83.2h47.5v43.4h-47.5v116.9c0 21.9 5.5 27.4 27.4 27.4 6.9 0 13.2-.5 20.1-1.8v50.7c-11 1.8-25.1 2.3-37.9 2.3-39.7 0-74.4-9.1-74.4-56.2V819.3h-39.3v-43.4h39.3v-70.8h64.8zm64.8 0h61.6v43.8h.9c11.9-29.7 43.8-50.2 75.3-50.2 4.6 0 10 .9 14.2 2.3v60.3c-5.9-1.4-15.5-2.3-23.3-2.3-47.5 0-63.9 34.2-63.9 75.8V1012h-64.8zm385.4 236.1H2172v-32.9h-1.4c-16.4 26.5-44.7 39.3-72.1 39.3-69 0-86.3-38.8-86.3-97.3V775.9h64.8v133.3c0 38.8 11.4 58 41.6 58 35.2 0 50.2-19.6 50.2-67.6V775.9h64.8zm37.5-236.1h61.2v32h.9c16.9-24.2 41.6-38.4 72.1-38.4 29.7 0 56.2 11 69 39.3 13.7-20.5 38.4-39.3 71.2-39.3 50.2 0 86.3 23.3 86.3 84.5v158H2567V878.2c0-31.5-2.7-57.5-39.7-57.5-36.5 0-43.4 30.1-43.4 59.8V1012H2419V879.6c0-27.4 1.8-58.9-39.3-58.9-12.8 0-43.8 8.2-43.8 54.3v137h-64.8zM3039.4 0h118v93.4h-118zM683.6 128.1h118v391.3h-118zm2355.8 0h118v391.3h-118zM2198 0h118v519.3h-118zM950.8 128.1h-118v391.2h118V221.4h415.4v297.9h118V128.1h-118zm2889.2 0h-651.4v391.2h118V221.4H3840zM1 153.8H0v217.9h118v-1.3h415.4V426H1v93.3h651.4V426h-1V275.7h-118v1.3H118v-55.6h534.4v-93.3H1zm1514.4-25.7v391.2h651.3V426h-533.3V221.4h533.3v-93.3h-533.3zm1483.1 0h-651.3v93.4h538.6V277h-538.6v242.4h661V128.1zM2465.2 426v-55.6h420.6V426z" class="st4" style="fill:#fff"/></svg>